<?xml version="1.0" encoding="utf-8"?>
<svg version="1.1" id="Layer_1" xmlns="http://www.w3.org/2000/svg" xmlns:xlink="http://www.w3.org/1999/xlink" x="0px" y="0px"
	 viewBox="0 0 300 35.4" style="enable-background:new 0 0 300 35.4;" xml:space="preserve">
<path d="M0,0v20.5c7.5-1.8,14.2,0.4,23.3,6.6c15.6,10.8,21.3,10.9,36,1.1c16.5-11,25.2-11.2,39.5-0.7c13.9,10.1,22.3,10.1,37.2,0
	c14.7-10,23.2-10.1,37.3-0.4c15.6,10.8,21.3,10.9,36,1.1c16.5-11,25.2-11.2,39.5-0.7c13.9,10.1,22.3,10.1,37.2,0
	c5.3-3.6,9.8-5.9,14-6.9V0H0z"/>
</svg>
