<?xml version="1.0" encoding="utf-8"?>
<!-- Generator: Adobe Illustrator 23.0.6, SVG Export Plug-In . SVG Version: 6.00 Build 0)  -->
<svg version="1.1" xmlns="http://www.w3.org/2000/svg" xmlns:xlink="http://www.w3.org/1999/xlink" x="0px" y="0px"
	 viewBox="0 0 600 400" enable-background="new 0 0 600 400" xml:space="preserve">
<g id="graphics_oc4h_0">
	<g>
		<path fill="none" d="M255.7,41.4c-8.5-7.6-18.2-11.1-29.1-10.6c-9.4,0.5-18,4.5-25.6,12.1c-7.1,7.1-10.6,15.8-10.6,26.3
			s3.8,19.4,11.4,27c7.6,7.6,16.8,11.4,27.7,11.4C221,92.7,215.8,83.2,213.9,79c-2.3-4.8-3.5-8.5-3.5-11.4c0.9-5.2,3.1-9.9,6.4-14.2
			c4.8-4.8,9-7.3,12.8-7.8c4.3-0.5,9.7,2.6,16.3,9.2c3.8,4.3,9.7,10.4,17.7,18.5c0.5,0.9,1.6,2.3,3.5,4.3
			C269.9,62.9,266.2,50.8,255.7,41.4z"/>
		<path d="M10.2,44.9l1.4-2.1l-2.8-2.1c-0.4,0.9-1.1,1.9-1.8,2.8c-0.7,0.9-1.1,1.6-1.1,2.1C6.8,46.5,7.8,47,8.7,47
			C8.7,46.5,9.2,45.8,10.2,44.9z"/>
		<path d="M6.6,52c-0.5,0-1.1-0.1-1.8-0.4c-0.7-0.2-1.3-0.4-1.8-0.4c-0.9,1.9-1.4,3.5-1.4,5C2.1,56.8,3.1,57,4.5,57
			C5,55.6,5.7,53.9,6.6,52z"/>
		<path d="M22.2,30.7c0,0.9,0.2,1.4,0.7,1.4c2.8-1.4,4.5-2.1,5-2.1c0-0.5-0.2-1.1-0.7-1.8c-0.5-0.7-0.7-1.3-0.7-1.8
			c-1.9,0.9-3.5,1.9-5,2.8C22,29.3,22.2,29.8,22.2,30.7z"/>
		<path d="M4.5,75.8c-0.5-1.2-0.7-2-0.7-2.5H0.9c0,0.9,0.1,2,0.4,3.2c0.2,1.2,0.4,2,0.4,2.5c1.9,0,3.1-0.2,3.5-0.7
			C5.2,77.8,5,77,4.5,75.8z"/>
		<path d="M3.8,67.6v-5c-0.9-0.5-1.9-0.6-2.8-0.4c-0.9,0.2-1.2,1.1-0.7,2.5v2.8H3.8z"/>
		<path d="M8.4,85.7c-0.7-1.2-1.3-2-1.8-2.5l-1.4,0.7l-1.4,0.7c1.4,2.8,2.3,4.5,2.8,5c0.9-0.9,1.9-1.4,2.8-1.4
			C9.4,87.7,9.1,86.9,8.4,85.7z"/>
		<path d="M46,26.1c1.2,0.2,2,0.4,2.5,0.4c0-1.9,0.2-3.1,0.7-3.5h-6.4c0,1.4,0.3,2.3,0.7,2.8C44,25.7,44.9,25.9,46,26.1z"/>
		<path d="M78.3,38.5c-0.5-0.9-1.6-2.3-3.5-4.3c0,0.5-0.4,0.9-1.1,1.4c-0.7,0.5-1.1,0.9-1.1,1.4l3.5,3.5L78.3,38.5z"/>
		<path d="M84.7,48.5c-0.9-1.9-1.8-3.5-2.8-5c-0.5,0-0.9,0.2-1.4,0.7L79,44.9c0.9,0.9,1.9,2.6,2.8,5C82.8,49,83.8,48.5,84.7,48.5z"
			/>
		<path d="M59.1,26.5l0.7-0.7c-0.5-0.5-1.3-0.9-2.5-1.4c-1.2-0.5-2-0.7-2.5-0.7c-0.4,0.9-0.7,2.1-0.7,3.5c0.5,0,2.1,0.5,5,1.4V26.5z
			"/>
		<path d="M68.4,33.6l0.7-1.4l1.4-1.4l-2.1-1.4c-1.4-0.9-2.3-1.4-2.8-1.4c-0.9,0.9-1.4,1.9-1.4,2.8c0.5,0,1.2,0.5,2.1,1.4
			C67.1,33.1,67.9,33.6,68.4,33.6z"/>
		<path d="M81.1,86.1c-0.4,0.5-0.9,1.2-1.4,2.1c-0.5,0.9-0.9,1.6-1.4,2.1l1.4,0.7l1.4,1.4c0.5-0.5,0.9-1.4,1.4-2.8
			c0.5-1.4,0.9-2.3,1.4-2.8c-0.5,0-1.2-0.2-2.1-0.7H81.1z"/>
		<path d="M9.4,94.6c1.9,1.9,3.1,3.3,3.5,4.3l2.8-2.8l-3.5-3.5C11.4,93.4,10.4,94.1,9.4,94.6z"/>
		<path d="M66.9,101.7l-4.3,2.1c0,0.9,0.5,1.9,1.4,2.8c2.8-1.4,4.5-2.3,5-2.8l-1.4-1.4L66.9,101.7z"/>
		<path d="M74.7,94.6l-3.5,3.5c0.9,0.9,1.6,1.9,2.1,2.8c0.5-0.5,1.4-1.2,2.8-2.1l1.4-2.1C77.6,95.3,76.7,94.6,74.7,94.6z"/>
		<path d="M565.2,238c-17.5-7.6-28.4-13.3-32.7-17c-9-7.1-16.1-16.8-21.3-29.1c-0.9-2.3-2.3-6.2-3.9-11.4c-1.6-5.2-3.2-9.8-4.6-13.8
			s-3.1-7.7-5-11c-4.8-7.6-13.3-15.4-25.6-23.4c-8.5-6.2-19.4-12.1-32.7-17.7c-1.9-0.5-4.8-1.4-8.9-2.8c-4-1.4-7-2.6-8.9-3.5
			c-2.3-0.9-6-2.5-11-4.6c-5-2.1-9.6-3.9-13.8-5.3s-8.5-2.3-12.8-2.8c-13.7-1.9-22.2,0.7-25.6,7.8c-18-10.4-30-16.5-36.2-18.5
			c-6.6-2.3-11.9-2.6-15.6-0.7c-5.7,2.3-6.9,9.4-3.5,21.3c0.9,3.8,3.5,10.9,7.8,21.3c-24.1-27-36.7-41-37.6-41.9l2.1-8.5
			c0.1,0,0.2,0,0.3,0c-0.1-0.7-0.1-1.4,0.1-2.2c1.1-3.7-0.6-14.1-1.2-14.1c-5.2-22.2-19.7-34.8-43.3-37.6h-5
			c-22.7,2.8-37.1,15.1-43.3,36.9c-6.6,0-16.5,0.1-29.5,0.4c-13,0.2-100.4,0.4-108.1,0.4c-0.6,3.3-0.8,8.7-0.8,16.3
			c7.7,0,95.3-0.2,108.2-0.7c13-0.5,22.9-0.7,29.5-0.7c3.3,19.9,13.7,32.7,31.2,38.3c5.7,2.3,11.6,3.3,17.7,2.8h2.8
			c0.5,0,1.4,1.4,2.8,4.3c11.9,19,28.2,42.8,49,71.7c-6.6,0.9-11.9,6.6-15.6,17c-0.9,3.3-3.8,18.2-8.5,44.7c0,1.9-0.5,4.5-1.4,7.8
			s-1.6,5.8-1.8,7.5c-0.2,1.6,0.1,4.1,1.1,7.5c1.4,3.8,6.2,8.3,14.2,13.5c3.8,2.3,9.4,5.5,17,9.2c16.1,8.5,28.2,14.4,36.2,17.7
			c36.9,15.6,70.5,27,100.8,34.1c1.4,0.5,3.3,0.9,5.7,1.4c2.3,0.5,4.3,0.7,5.7,0.7c1.4,0.5,3.4,0.9,6,1.1c2.6,0.2,4.6,0.4,6,0.4
			c10.4,1.4,20.6,9.2,30.5,23.4c0.9-0.5,2.1-1.2,3.5-2.1c1.4-0.9,2.6-1.9,3.5-2.8c-11.4-15.1-22.7-23.9-34.1-26.3
			c-0.5,0-6.4-0.7-17.7-2.1C419,340.2,398.2,334,375,326c-24.6-8.5-43.8-16.1-57.5-22.7c-3.3-1.4-8-3.8-14.2-7.1
			c-6.2-3.3-10.2-5.5-12.1-6.4c-2.8-1.4-7.1-4-12.8-7.8c-6.6-3.3-10.2-6.4-10.6-9.2c-0.5-0.9,0-4.5,1.4-10.6c0.9-4.8,1.4-8,1.4-9.9
			c3.8-22.7,6.2-35.7,7.1-39c3.8-8.5,7.1-13,9.9-13.5c2.8,0,5.9,2.3,9.2,7.1c3.8,7.6,7.6,19.4,11.4,35.5c0.9,0,2.3-0.1,3.9-0.4
			c1.6-0.2,3-0.6,3.9-1.1c-2.8-18.5-9-34.8-18.5-49c-1.4-2.3-3.8-5.7-7.1-9.9c-3.3-4.3-5.7-7.3-7.1-9.2
			c-10.4-13.7-24.1-33.9-41.2-60.3c-7.6-11.9-13.7-22.5-18.5-31.9c-0.5-0.9-1.2-2.3-2.1-3.9c-0.9-1.6-1.6-3.2-2.1-4.6
			s-0.7-2.6-0.7-3.5c0-0.5,1.2-3.1,3.5-7.8c1.9-2.8,3.5-4.8,5-5.7c2.3-1.4,6.2,0,11.4,4.3l17,19.2c9.4,9.9,22.2,23.9,38.3,41.9
			c16.1,18,26.8,29.8,31.9,35.5c2.8-1.9,5-3.5,6.4-5c-3.3-5.7-7.8-14.7-13.5-27c-3.8-7.1-6.6-14.9-8.5-23.4
			c-0.9-3.3-0.7-6.2,0.7-8.5c5.2-0.5,11.1,1.2,17.7,5c3.8,1.4,9,4,15.6,7.8c3.3,1.9,8.2,5,14.6,9.2s11.2,7.3,14.6,9.2
			c0.5-0.9,1.2-2.1,2.1-3.5s1.6-2.6,2.1-3.5c-0.9-0.5-2.3-1.3-3.9-2.5c-1.6-1.2-3.2-2.3-4.6-3.2c-1.4-0.9-2.3-2.1-2.8-3.5
			c4.3-3.8,11.1-4.8,20.6-2.8c3.8,0.9,9.7,3.1,17.7,6.4c3.8,1.4,9.6,3.5,17.4,6.4s13.8,5.2,18.1,7.1c12.3,5.7,22.7,11.6,31.2,17.7
			c11.9,9.4,19.4,18,22.7,25.6c2.8,8.5,5,14.7,6.4,18.5c7.1,20.4,16.8,35,29.1,44c4.3,3.3,15.1,8.7,32.7,16.3l34.1,14.9
			c0.5-0.9,1.1-2.3,1.8-3.9c0.7-1.6,1.3-3,1.8-3.9C584.9,246.3,573.2,241.3,565.2,238z"/>
		<path d="M267.1,77.6c-1.9-1.9-3.1-3.3-3.5-4.3c-8-8-14-14.2-17.7-18.5c-6.6-6.6-12.1-9.7-16.3-9.2c-3.8,0.5-8,3.1-12.8,7.8
			c-3.3,4.3-5.5,9-6.4,14.2c0,2.8,1.2,6.6,3.5,11.4c1.9,4.3,7.1,13.7,15.6,28.4c-10.9,0-20.1-3.8-27.7-11.4
			c-7.6-7.6-11.4-16.5-11.4-27s3.5-19.2,10.6-26.3c7.6-7.6,16.1-11.6,25.6-12.1c10.9-0.5,20.6,3.1,29.1,10.6
			C266.2,50.8,269.9,62.9,267.1,77.6z"/>
		<path d="M57.7,106c-3.8,0.9-6.4,1.4-7.8,1.4c0,1.9,0.2,3.1,0.7,3.5c4.8-1.4,7.3-2.1,7.8-2.1l-0.7-1.4V106z"/>
		<path d="M19.4,99.6c0,0.5-0.2,1.2-0.7,2.1l-0.7,0.7c0.5,0,0.9,0.2,1.4,0.7c0.5,0.5,1.1,0.9,1.8,1.4c0.7,0.5,1.3,0.7,1.8,0.7
			l0.7-0.7c0.5-0.9,0.7-1.6,0.7-2.1c-0.9-0.5-1.8-1.1-2.5-1.8C21.2,99.9,20.3,99.6,19.4,99.6z"/>
		<path d="M16.5,32.8c-0.9,0.5-2.3,1.6-4.3,3.5c0.5,0,0.9,0.4,1.4,1.1c0.5,0.7,0.9,1.1,1.4,1.1c0-0.5,0.5-1.2,1.4-2.1l2.1-1.4
			L16.5,32.8z"/>
		<path d="M38.5,110.9c0.5,0,1.4,0.1,2.8,0.4s2.6,0.4,3.5,0.4v-3.5c-2.3,0-4.3-0.2-5.7-0.7C39.3,109.3,39,110.4,38.5,110.9z"/>
		<path d="M29.3,105.2c-0.9,0.9-1.4,1.9-1.4,2.8c0.9,0.5,2.8,1.2,5.7,2.1c0-0.5,0.1-1.1,0.4-1.8c0.2-0.7,0.4-1.3,0.4-1.8
			c-0.5,0-1.3-0.1-2.5-0.4C30.6,106.1,29.8,105.7,29.3,105.2z"/>
		<path d="M34.6,23.6c-1.2,0-2,0.2-2.5,0.7c0,1.4,0.2,2.6,0.7,3.5c1.9-0.9,3.5-1.4,5-1.4c0-1.9-0.2-3.1-0.7-3.5
			C36.7,23.4,35.8,23.6,34.6,23.6z"/>
	</g>
</g>
<g id="Layer_2">
	<polygon points="190.3,60 63,60.2 62.9,46.7 18.7,69.1 63.1,91.3 63.1,77.9 190.4,77.7 	"/>
</g>
</svg>
