<svg class="svgMeme svelte-1s2dvcy" style="" id="graphics_oc4h_0" data-part="@a7825@df-gestures@z" width="600" height="400" preserveAspectRatio="xMinYMin"><g style=""><svg id="2mt15" viewBox="0 0 845.3 501"><path d="m319.3 0h7c33.3 4 53.7 21.7 61 53 18 0 45 .2 81 .5s63 .5 81 .5v-20c72 20 111 30.7 117 32-20 6-59 16.3-117 31v-20c-35.3-.7-89-1-161-1l-3 12c1.3 1.3 19 21 53 59-6-14.7-9.7-24.7-11-30-4.7-16.7-3-26.7 5-30 5.3-2.7 12.7-2.3 22 1 8.7 2.7 25.7 11.3 51 26 4.7-10 16.7-13.7 36-11 6 .7 12 2 18 4s12.5 4.5 19.5 7.5 12.2 5.2 15.5 6.5c2.7 1.3 6.8 3 12.5 5s9.8 3.3 12.5 4c18.7 8 34 16.3 46 25 17.3 11.3 29.3 22.3 36 33 2.7 4.7 5 9.8 7 15.5s4.2 12.2 6.5 19.5 4.2 12.7 5.5 16c7.3 17.3 17.3 31 30 41 6 5.3 21.3 13.3 46 24 11.3 4.7 27.7 11.7 49 21-.7 1.3-1.5 3.2-2.5 5.5s-1.8 4.2-2.5 5.5l-48-21c-24.7-10.7-40-18.3-46-23-17.3-12.7-31-33.3-41-62-2-5.3-5-14-9-26-4.7-10.7-15.3-22.7-32-36-12-8.7-26.7-17-44-25-6-2.7-14.5-6-25.5-10s-19.2-7-24.5-9c-11.3-4.7-19.7-7.7-25-9-13.3-2.7-23-1.3-29 4 .7 2 2 3.7 4 5s4.2 2.8 6.5 4.5 4.2 2.8 5.5 3.5c-.7 1.3-1.7 3-3 5s-2.3 3.7-3 5c-4.7-2.7-11.5-7-20.5-13s-15.8-10.3-20.5-13c-9.3-5.3-16.7-9-22-11-9.3-5.3-17.7-7.7-25-7-2 3.3-2.3 7.3-1 12 2.7 12 6.7 23 12 33 8 17.3 14.3 30 19 38-2 2-5 4.3-9 7-7.3-8-22.3-24.7-45-50s-40.7-45-54-59l-24-27c-7.3-6-12.7-8-16-6-2 1.3-4.3 4-7 8-3.3 6.7-5 10.3-5 11 0 1.3.3 3 1 5s1.7 4.2 3 6.5 2.3 4.2 3 5.5c6.7 13.3 15.3 28.3 26 45 24 37.3 43.3 65.7 58 85 2 2.7 5.3 7 10 13s8 10.7 10 14c13.3 20 22 43 26 69-1.3.7-3.2 1.2-5.5 1.5s-4.2.5-5.5.5c-5.3-22.7-10.7-39.3-16-50-4.7-6.7-9-10-13-10-4 .7-8.7 7-14 19-1.3 4.7-4.7 23-10 55 0 2.7-.7 7.3-2 14-2 8.7-2.7 13.7-2 15 .7 4 5.7 8.3 15 13 8 5.3 14 9 18 11 2.7 1.3 8.3 4.3 17 9s15.3 8 20 10c19.3 9.3 46.3 20 81 32 32.7 11.3 62 20 88 26 16 2 24.3 3 25 3 16 3.3 32 15.7 48 37-1.3 1.3-3 2.7-5 4s-3.7 2.3-5 3c-14-20-28.3-31-43-33-2 0-4.8-.2-8.5-.5s-6.5-.8-8.5-1.5c-2 0-4.7-.3-8-1s-6-1.3-8-2c-42.7-10-90-26-142-48-11.3-4.7-28.3-13-51-25-10.7-5.3-18.7-9.7-24-13-11.3-7.3-18-13.7-20-19-1.3-4.7-1.8-8.2-1.5-10.5s1.2-5.8 2.5-10.5 2-8.3 2-11c6.7-37.3 10.7-58.3 12-63 5.3-14.7 12.7-22.7 22-24-29.3-40.7-52.3-74.3-69-101-2-4-3.3-6-4-6h-4c-8.7.7-17-.7-25-4-24.7-8-39.3-26-44-54-9.3 0-23.2.3-41.5 1s-32.2 1-41.5 1c0-10.7.3-18.3 1-23 9.3 0 23.2-.2 41.5-.5s32.2-.5 41.5-.5c8.7-30.7 29-48 61-52zm41 27c-12-10.7-25.7-15.7-41-15-13.3.7-25.3 6.3-36 17-10 10-15 22.3-15 37s5.3 27.3 16 38 23.7 16 39 16c-12-20.7-19.3-34-22-40-3.3-6.7-5-12-5-16 1.3-7.3 4.3-14 9-20 6.7-6.7 12.7-10.3 18-11 6-.7 13.7 3.7 23 13 5.3 6 13.7 14.7 25 26 .7 1.3 2.3 3.3 5 6 4-20.7-1.3-37.7-16-51zm-300-26h9c-.7.7-1 2.3-1 5-.7 0-1.8-.2-3.5-.5-1.6-.3-2.8-.5-3.5-.5-.6-.7-1-2-1-4zm-8 0c.7.7 1 2.3 1 5-2 0-4.3.7-7 2-.7-1.3-1-3-1-5 .7-.7 1.8-1 3.5-1s2.9-.3 3.5-1zm25 1c.7 0 1.8.3 3.5 1s2.8 1.3 3.5 2l-1 1v3c-4-1.3-6.3-2-7-2 0-2 .4-3.7 1-5zm-38 9c-.7 0-3 1-7 3-.7 0-1-.7-1-2s-.3-2-1-2c2-1.3 4.3-2.7 7-4 0 .7.3 1.5 1 2.5s1 1.8 1 2.5zm53-3c.7 0 2 .7 4 2l3 2-2 2-1 2c-.7 0-1.7-.7-3-2s-2.3-2-3-2c0-1.3.7-2.7 2-4zm-69 7 3 3-3 2c-1.3 1.3-2 2.3-2 3-.7 0-1.3-.5-2-1.5s-1.3-1.5-2-1.5c2.7-2.7 4.7-4.3 6-5zm82 2c2.7 2.7 4.3 4.7 5 6l-3 3-5-5c0-.7.5-1.3 1.5-2s1.5-1.3 1.5-2zm-93 9 4 3-2 3c-1.3 1.3-2 2.3-2 3-1.3 0-2.7-.7-4-2 0-.7.5-1.7 1.5-3s1.9-2.7 2.5-4zm107 11c-1.3 0-2.7.7-4 2-1.3-3.3-2.7-5.7-4-7l2-1c.7-.7 1.3-1 2-1 1.4 2 2.7 4.3 4 7zm-115 4c.7 0 1.5.2 2.5.5s1.8.5 2.5.5c-1.3 2.7-2.3 5-3 7-2 0-3.3-.3-4-1 0-2 .7-4.3 2-7zm118 3c1.3 2.7 2 5.7 2 9 5.3-.7 13.7-1 25-1v23h-29c.7.7 2 1 4 1-1.3 4-2.3 6.7-3 8h-2l-2-1c0-.7.3-1.8 1-3.5s1-3.2 1-4.5c-13.3.7-33 1-59 1v-22c12.7-.7 32.3-1 59-1 0-1.3-.2-2.7-.5-4s-.5-2.3-.5-3zm-122 20v-4c-.7-2-.3-3.2 1-3.5s2.7-.2 4 .5v7zm5 8c0 .7.3 1.8 1 3.5s1 2.8 1 3.5c-.7.7-2.3 1-5 1 0-.7-.2-1.8-.5-3.5s-.5-3.2-.5-4.5zm4 14c.7.7 1.5 1.8 2.5 3.5s1.5 2.8 1.5 3.5c-1.3 0-2.7.7-4 2-.7-.7-2-3-4-7l2-1zm105 4h1c1.3.7 2.3 1 3 1-.7.7-1.3 2-2 4s-1.3 3.3-2 4l-2-2-2-1c.7-.7 1.3-1.7 2-3s1.4-2.3 2-3zm-97 9 5 5-4 4c-.7-1.3-2.3-3.3-5-6 1.4-.7 2.7-1.7 4-3zm88 3c2.7 0 4 1 4 3l-2 3c-2 1.3-3.3 2.3-4 3-.7-1.3-1.7-2.7-3-4zm-71 11c0 .7-.3 1.7-1 3l-1 1c-.7 0-1.5-.3-2.5-1s-1.8-1.3-2.5-2-1.3-1-2-1l1-1c.7-1.3 1-2.3 1-3 1.3 0 2.5.5 3.5 1.5s2.2 1.8 3.5 2.5zm63 2c-.7.7-3 2-7 4-1.3-1.3-2-2.7-2-4l6-3 1 1zm-56 2c.7.7 1.8 1.2 3.5 1.5s2.8.5 3.5.5c0 .7-.2 1.5-.5 2.5s-.5 1.8-.5 2.5c-4-1.3-6.7-2.3-8-3 0-1.3.7-2.7 2-4zm41 5c-.7 0-4.3 1-11 3-.7-.7-1-2.3-1-5 2 0 5.7-.7 11-2v2zm-27-2c2 .7 4.7 1 8 1v5c-1.3 0-3-.2-5-.5s-3.3-.5-4-.5c.7-.7 1-2.3 1-5z" fill="#000000"></path></svg></g></svg>
