<?xml version="1.0" standalone="no"?>
<!DOCTYPE svg PUBLIC "-//W3C//DTD SVG 1.1//EN" "http://www.w3.org/Graphics/SVG/1.1/DTD/svg11.dtd" >
<svg xmlns="http://www.w3.org/2000/svg">
<metadata>Generated by IcoMoon</metadata>
<defs>
<font id="callouts" horiz-adv-x="1024">
<font-face units-per-em="1024" ascent="819" descent="-205" />
<missing-glyph horiz-adv-x="1024" />
<glyph unicode="&#x20;" horiz-adv-x="500" d="" />
<glyph unicode="&#x4d;" horiz-adv-x="1011" d="M602.048 250.54l102.579-96.492-47.083 166.31 178.126-40.996-105.443 92.375h196.923l-182.78 56.392 161.656 71.608-136.235 28.822 70.534 88.436-111.172-16.47 40.817 112.246-105.98-69.639-24.884 103.474-75.368-92.733c0 6.445-44.218 91.48-46.545 91.48s-45.65-89.69-45.65-89.69l-78.948 82.887-19.871-97.387-73.936 83.424s-1.611-93.27-6.266-93.27-111.888 57.824-111.888 57.824 25.779-106.159 25.779-108.666-116.364 18.439-116.364 18.439l95.776-76.621-101.505-34.909s85.214-64.806 82.887-67.312-75.189-67.67-75.189-67.67 129.969 3.222 127.642 3.222c-0.358-2.148-124.241-97.745-124.241-100.252s134.982 34.193 134.982 34.193l-90.943-133.371 151.631 108.129-32.045-117.438 89.331 73.757-24.168-63.91 116.006 55.676-287.687-319.373 360.369 320.627 43.681-78.232z" />
<glyph unicode="&#x4e;" horiz-adv-x="1031" d="M163.578-192v242.096h-52.345c-68.703 0-111.233 42.53-111.233 111.233v565.981c0 58.888 49.073 104.69 111.233 104.69h811.348c62.16 0 111.233-45.802 111.233-104.69v-565.981c0-65.431-42.53-111.233-111.233-111.233h-513.636z" />
<glyph unicode="&#x4f;" horiz-adv-x="1031" d="M111.233 773.112c-26.173 0-52.345-16.358-52.345-45.802v-569.252c0-35.987 16.358-52.345 52.345-52.345h111.233v-163.578l166.85 163.578h536.537c35.987 0 52.345 16.358 52.345 52.345v569.252c0 29.444-26.173 45.802-52.345 45.802z" />
<glyph unicode="&#x50;" horiz-adv-x="1097" d="M373.649 691.427c7.271 0 72.71 48.473 179.15 53.321 145.42 16.966 205.81-77.557 205.81-77.557-4.847-12.118 99.37 75.134 159.76 67.863 65.439-9.695 92.099-38.779 84.828-99.37-4.847-38.779-46.050-55.744-55.744-75.134 4.847-9.695 58.168-41.202 58.168-126.031s-53.321-130.878-50.897-130.878 53.321-84.828 14.542-135.725-147.844-2.424-164.607 7.271c-16.966-4.847-16.966-38.779-65.439-46.050s-109.065 14.542-109.065 14.542l-24.237 19.389-50.897-268.825-70.286 254.283c-31.508-9.695-24.237-16.966-113.912-26.66-75.134 0-58.168 14.542-82.405 24.237-29.084-19.389-147.844-46.050-186.421 26.66-31.508 92.099 16.966 113.912 26.66 130.878-9.695 21.813-41.202 58.168-36.355 126.031 0 87.252 21.813 130.878 41.202 145.42-9.695 19.389-48.473 96.947 36.355 145.42 140.573 36.355 200.963-31.508 203.386-29.084z" />
<glyph unicode="&#x51;" horiz-adv-x="1097" d="M347.594 724.147c7.271 0 72.71 48.473 179.15 53.321 145.42 16.966 205.81-77.557 205.81-77.557-4.847-12.118 99.37 75.134 159.76 67.863 65.439-9.695 92.099-38.779 84.828-99.37-4.847-38.779-46.050-55.744-55.744-75.134 4.847-9.695 58.168-41.202 58.168-126.031s-53.321-130.878-50.897-130.878 53.321-84.828 14.542-135.725-147.844-2.424-164.809 7.271c-16.966-4.847-16.966-38.779-65.439-46.050s-109.065 14.542-109.065 14.542l-24.237 19.389-50.897-268.825-70.286 254.283c-31.508-9.695-24.237-16.966-113.912-26.66-75.134 0-58.168 14.542-82.405 24.237-29.084-19.389-147.844-46.050-186.421 26.66-31.508 92.099 16.966 113.912 26.66 130.878-9.695 21.813-41.202 58.168-36.355 126.031 0 87.252 21.813 130.878 41.202 145.218-9.695 19.389-48.473 96.947 36.355 145.42 140.573 36.355 200.963-31.508 203.386-29.084z" />
<glyph unicode="&#x52;" horiz-adv-x="1092" d="M372.382 691.376c7.242 0 72.424 48.283 178.446 53.111 144.849 16.899 205.001-77.253 205.001-77.253-4.828-12.071 98.98 74.839 159.132 67.596 65.182-9.657 91.738-38.626 84.495-98.98-4.828-38.626-45.869-55.525-55.525-74.839 4.828-9.657 57.939-41.040 57.939-125.536s-53.111-130.364-50.697-130.364 53.111-84.495 14.485-135.192-147.263-2.414-164.162 7.242c-16.899-4.828-16.899-38.626-65.182-45.869s-108.637 14.485-108.637 14.485l-24.141 19.313 260.527-272.597-381.234 258.112c-31.384-9.657-24.141-16.899-113.465-26.556-74.839 0-57.939 14.485-82.081 24.141-28.97-19.313-147.263-45.869-185.688 26.556-31.384 91.738 16.899 113.465 26.556 130.364-9.657 21.727-41.040 57.939-36.212 125.536 0 86.909 21.727 130.364 41.040 144.849-9.657 19.313-48.283 96.566 36.212 144.849 140.020 36.212 200.173-31.384 202.587-28.97z" />
<glyph unicode="&#x53;" horiz-adv-x="1092" d="M343.010 720.547c7.242 0 72.424 48.283 178.446 53.111 144.849 16.899 205.001-77.253 205.001-77.253-4.828-12.071 98.98 74.839 159.132 67.596 65.182-9.657 91.738-38.626 84.495-98.98-4.828-38.626-45.869-55.525-55.525-74.839 4.828-9.657 57.939-41.040 57.939-125.536s-53.111-130.364-50.697-130.364 53.111-84.495 14.485-135.192-147.062-2.414-163.961 7.242c-16.899-4.828-16.899-38.626-65.182-45.869s-108.637 14.485-108.637 14.485l-24.141 19.313 260.527-272.597-381.234 258.112c-31.384-9.657-24.141-16.899-113.465-26.556-74.839 0-57.939 14.485-82.081 24.141-28.97-19.313-147.062-45.869-185.688 26.556-31.384 91.738 16.899 113.465 26.556 130.364-9.657 21.727-41.040 57.939-36.212 125.536 0 86.909 21.727 130.364 41.040 144.849-9.657 19.313-48.283 96.566 36.212 144.849 140.020 36.212 200.173-31.384 202.587-28.97z" />
<glyph unicode="&#x54;" horiz-adv-x="1092" d="M371.98 691.376c7.242 0 72.424 48.283 178.446 53.111 144.849 16.899 205.001-77.253 205.001-77.253-4.828-12.071 98.98 74.839 159.334 67.596 65.182-9.657 91.738-38.626 84.495-98.98-4.828-38.626-45.869-55.525-55.525-74.839 4.828-9.657 57.939-41.040 57.939-125.536s-53.111-130.364-50.697-130.364 53.111-84.495 14.485-135.192-147.263-2.414-163.961 7.242c-16.899-4.828-16.899-38.626-65.182-45.869s-108.637 14.485-108.637 14.485l-24.141 19.313-340.193-272.597 219.486 258.112c-31.384-9.657-24.141-16.899-113.465-26.556-74.839 0-57.939 14.485-82.081 24.141-28.97-19.313-147.263-45.869-185.688 26.556-31.384 91.738 16.899 113.465 26.556 130.364-9.657 21.727-41.040 57.939-36.212 125.536 0 86.909 21.727 130.364 41.040 144.849-9.657 19.313-48.283 96.566 36.212 144.849 140.020 36.212 200.173-31.384 202.587-28.97z" />
<glyph unicode="&#x55;" horiz-adv-x="1092" d="M342.607 717.529c7.242 0 72.424 48.283 178.446 53.111 144.849 16.899 205.001-77.253 205.001-77.253-4.828-12.071 98.98 74.839 159.132 67.596 65.182-9.657 91.738-38.626 84.495-98.98-4.828-38.626-45.869-55.525-55.525-74.839 4.828-9.657 57.939-41.040 57.939-125.536s-53.111-130.364-50.697-130.364 53.111-84.495 14.485-135.192-147.263-2.414-164.162 7.242c-16.899-4.828-16.899-38.626-65.182-45.869s-108.637 14.485-108.637 14.485l-24.141 19.313-340.193-272.597 219.486 258.112c-31.384-9.657-24.141-16.899-113.465-26.556-74.839 0-57.939 14.485-82.081 24.141-28.97-19.313-147.263-45.869-185.688 26.556-31.384 91.738 16.899 113.465 26.556 130.364-9.657 21.727-41.040 57.939-36.212 125.536 0 86.909 21.727 130.364 41.040 144.648-9.657 19.313-48.283 96.566 36.212 144.849 140.020 36.212 200.173-31.384 202.587-28.97z" />
<glyph unicode="&#x56;" horiz-adv-x="1011" d="M559.799 270.769l102.579-96.313-47.083 166.31 178.126-40.996-105.443 92.375h196.923l-182.78 56.392 161.656 71.608-136.235 28.822 70.534 88.436-111.172-16.47 40.817 112.246-105.98-69.639-24.884 103.474-75.368-92.733c0 6.445-44.218 91.48-46.545 91.48s-45.65-89.69-45.65-89.69l-78.948 82.887-19.871-97.387-73.936 83.424s-1.611-93.27-6.266-93.27-111.888 57.824-111.888 57.824 25.779-106.159 25.779-108.666-116.364 18.439-116.364 18.439l95.776-76.621-101.505-34.909s85.214-64.806 82.708-67.312c-2.327-2.506-75.189-67.67-75.189-67.67s129.969 3.222 127.642 3.222c-0.179-2.148-124.241-97.566-124.241-100.252s134.982 34.193 134.982 34.193l-90.943-133.371 151.631 108.129-32.045-117.438 89.331 73.757-24.168-63.91 116.006 55.676-287.687-319.373 360.369 320.627 43.681-78.232z" />
<glyph unicode="&#x58;" horiz-adv-x="1147" d="M229.191 746.734l679.307-4.838c41.928-0.403 113.083-11.087 128.202-70.148 17.537-77.606 23.383-427.137-4.838-480.957-20.762-43.339-39.912-57.852-60.472-70.148-60.674-29.027-343.282-24.189-343.282-24.189l265.877-202.986-394.079 205.405h-292.485c-41.121 0-78.614 25.802-91.918 82.243-23.181 102.4-27.616 389.443-4.838 456.769 21.569 61.48 57.852 109.254 118.526 108.85z" />
<glyph unicode="&#x59;" horiz-adv-x="1147" d="M203.187 769.713l679.307-4.838c41.928-0.202 113.083-11.087 128.202-70.148 17.537-77.606 23.383-427.339-4.838-480.957-20.762-43.339-39.912-57.852-60.472-70.148-60.674-29.027-343.282-24.189-343.282-24.189l265.877-202.986-394.079 205.405h-292.485c-41.121 0-78.614 25.802-91.918 82.243-23.181 102.4-27.616 389.443-4.838 456.769 21.569 61.48 57.852 109.254 118.526 108.85z" />
<glyph unicode="&#x5a;" horiz-adv-x="1051" d="M87.744 744.061s878.021 2.54 875.481 2.54-2.54-540.14-2.54-540.14h-369.93l308.177-313.258-456.305 310.718-355.078-4.885z" />
<glyph unicode="&#x5b;" horiz-adv-x="1051" d="M59.212 769.466s878.021 2.54 875.481 2.54-2.54-540.14-2.54-540.14h-369.93l308.177-313.258-456.305 310.718-355.078-4.885z" />
<glyph unicode="&#x61;" glyph-name="a8324df-ideabursts209" horiz-adv-x="1076" d="M149.566 59.244c-6.953-5.248-13.382-10.496-19.024-15.744s-11.545-10.496-17.712-15.744c10.496 5.248 21.254 10.758 32.143 16.4s21.648 10.758 32.143 15.088h13.12c-14.825-6.953-29.913-14.169-45.263-21.648s-30.438-14.694-45.263-21.648c-1.706 0-2.886-0.394-3.28-1.312s-1.574-0.394-3.28 1.312v5.248l23.616 18.368 23.616 19.68zM329.307 59.244c-12.201-41.065-27.945-81.080-47.231-120.046s-37.654-77.144-55.103-114.798c29.782 37.654 60.745 75.045 93.151 112.174s65.599 72.421 99.71 105.614l17.056 17.056h9.184c-6.953-6.166-13.776-12.726-20.336-19.68s-13.776-14.038-21.648-20.992c-33.193-33.193-65.205-67.305-95.775-102.334s-59.957-70.847-87.903-107.582c-0.918 0.918-1.574 0.918-1.968 0s-1.574-0.918-3.28 0v2.624c18.368 41.065 37.654 81.605 57.727 121.358s36.342 81.999 48.543 126.606zM503.8 59.244c0.918-0.918 2.23-3.018 3.936-6.56 4.33-22.697 6.953-45.001 7.872-66.911s1.312-45.526 1.312-70.847c13.12 48.15 29.782 96.168 49.855 144.318h6.56c-12.201-27.945-22.96-56.153-32.143-84.623s-17.318-57.071-24.272-85.935h-3.936c-1.706 16.662-2.362 33.455-1.968 50.511s-0.262 34.374-1.968 51.823c-1.706 10.496-2.886 22.041-3.28 34.767s-4.198 23.878-11.152 33.455zM649.43 59.244c5.248-28.864 9.577-58.121 13.12-87.903s6.56-59.957 9.184-90.527c3.542 24.534 7.478 50.118 11.808 76.751s10.102 52.742 17.056 78.063c0.918 4.33 1.574 8.265 1.968 11.808s1.574 7.478 3.28 11.808h5.248c-9.577-34.111-16.793-68.485-21.648-102.99s-10.758-68.485-17.712-101.678c-1.706-0.918-3.018-0.918-3.936 0-2.624 33.193-5.642 67.305-9.184 102.334s-8.79 69.141-15.744 102.334zM826.547 59.244c8.79-9.577 17.056-19.286 24.928-28.864l23.616-28.864c-3.542 9.577-6.822 19.286-9.84 28.864s-6.298 19.286-9.84 28.864h5.248c4.33-12.201 8.528-24.665 12.464-37.391s8.134-25.19 12.464-37.391c0-0.918-0.918-1.312-2.624-1.312h-1.312c-10.496 13.12-20.729 25.977-30.832 38.703s-20.729 25.19-32.143 37.391zM255.836 164.202l-3.936-3.936c-14.825-18.368-31.225-35.817-49.199-52.479s-35.686-32.799-53.135-48.543h-9.184c18.368 15.744 36.735 31.881 55.103 48.543s35.423 34.505 51.167 53.791c0 1.706 0.394 2.624 1.312 2.624zM889.522 164.202c17.449-6.953 34.505-14.825 51.167-23.616l49.855-26.24-24.272 24.272-24.272 25.584h9.184c9.577-10.496 19.024-20.992 28.208-31.488s19.024-20.598 29.52-30.176c0.918-1.706 0.394-3.542-1.312-5.248-20.073 11.414-40.409 22.566-61.007 33.455s-41.721 20.729-63.631 29.52c-5.248 1.706-10.889 3.018-17.056 3.936s-11.414 0-15.744-2.624c-8.79-6.953-11.808-15.35-9.184-24.928s4.33-18.368 5.248-26.24c2.624-8.79 4.986-17.318 7.216-25.584s4.592-16.793 7.216-25.584h-5.248c-4.33 11.414-7.872 22.304-10.496 32.799s-5.642 21.385-9.184 32.799c-0.918 6.953-1.050 14.169-0.656 21.648s3.28 13.382 8.528 17.712zM177.117 59.244l47.231 20.992 47.231 19.68c6.953 3.542 14.694 5.904 22.96 7.216s16.4-0.262 24.272-4.592c6.953-3.542 11.152-8.79 12.464-15.744s1.574-13.513 0.656-19.68c-0.918-1.706-1.312-3.018-1.312-3.936s-0.394-2.23-1.312-3.936h-7.872c0.918 1.706 1.312 3.674 1.312 5.904s0.394 4.198 1.312 5.904c2.624 6.953 1.312 14.432-3.936 22.304-4.33 5.248-10.102 7.872-17.056 7.872s-13.12-0.918-18.368-2.624c-16.662-6.166-32.537-12.464-47.887-19.024s-30.832-13.382-46.575-20.336zM436.889 59.244c6.953 6.166 13.776 11.152 20.336 15.088s14.169 5.51 22.96 4.592c5.248-0.918 9.84-3.28 13.776-7.216s7.216-8.134 9.84-12.464h-9.184c-1.706 4.33-6.56 8.79-14.432 13.12-12.201 0-23.616-4.33-34.111-13.12zM566.775 59.244c2.624 5.248 4.986 10.233 7.216 15.088s4.198 9.446 5.904 13.776c4.33 6.166 8.921 12.201 13.776 18.368s11.152 9.577 19.024 10.496c9.577 0 16.4-3.936 20.336-11.808l11.152-22.304c0.918-4.33 1.706-8.265 2.624-11.808s1.706-7.478 2.624-11.808h-6.56l-7.872 31.488c-1.706 4.33-4.198 8.528-7.216 12.464s-7.216 6.298-12.464 7.216c-9.577 0-16.4-3.542-20.336-10.496s-8.134-14.038-12.464-20.992c-1.706-3.542-3.28-6.822-4.592-9.84s-2.886-6.298-4.592-9.84zM705.845 59.244c1.706 10.496 4.198 20.729 7.216 30.832s8.921 18.63 17.712 25.584c7.872 4.33 15.744 5.642 23.616 3.936s15.35-4.854 22.304-9.184c9.577-7.872 18.368-16.006 26.24-24.272s15.744-17.318 23.616-26.896h-7.872c-11.414 14.038-24.928 27.945-40.671 41.983-5.248 4.33-11.152 7.872-17.712 10.496s-13.382 3.018-20.336 1.312c-9.577-4.33-16.137-11.808-19.68-22.304s-6.56-20.598-9.184-30.176v-1.312zM192.861 353.127c6.166-1.706 12.070-3.28 17.712-4.592s11.545-2.886 17.712-4.592c8.79-2.624 17.449-6.56 26.24-11.808s14.038-13.12 15.744-23.616c0.918-6.953-1.706-12.726-7.872-17.056s-11.808-8.265-17.056-11.808c-23.616-10.496-48.281-19.024-74.127-25.584s-50.905-13.382-75.439-20.336c16.662-1.706 33.062-3.28 49.199-4.592s32.537-3.674 49.199-7.216c11.414-2.624 23.222-4.592 35.423-5.904s21.385-7.609 27.552-19.024c4.33-10.496 3.936-21.385-1.312-32.799h-7.872c2.624 4.33 4.854 9.577 6.56 15.744s0.394 11.414-3.936 15.744c-4.33 6.166-12.201 10.889-23.616 14.432-23.616 5.248-48.15 9.184-73.471 11.808s-50.774 4.854-76.095 6.56c-2.624 1.706-3.018 3.542-1.312 5.248 27.945 6.953 55.759 14.432 83.311 22.304s54.054 17.056 79.375 27.552c5.248 2.624 10.496 5.904 15.744 9.84s8.265 8.921 9.184 15.088c-0.918 6.953-4.198 12.201-9.84 15.744s-10.758 6.56-15.088 9.184c-22.697 7.872-45.001 14.432-66.911 19.68zM902.642 353.127c-5.248-5.248-6.953-12.201-5.248-20.992 4.33-6.953 10.233-12.201 17.712-15.744s14.694-7.478 21.648-11.808c22.697-11.414 45.919-21.91 69.535-31.488s46.838-19.68 69.535-30.176c0-0.918-0.918-2.23-2.624-3.936-20.073 2.624-41.065 4.592-62.975 5.904s-43.689 1.574-65.599 0.656c-6.953-1.706-13.513-3.018-19.68-3.936s-10.496-4.854-13.12-11.808c-3.542-7.872-2.886-14.694 1.968-20.336s9.446-11.545 13.776-17.712l23.616-27.552h-9.184c-5.248 6.953-10.496 13.513-15.744 19.68s-10.102 12.201-14.432 18.368c-7.872 10.496-10.496 20.073-7.872 28.864 2.624 6.166 6.298 10.496 11.152 13.12s9.84 4.854 15.088 6.56c20.073 2.624 40.934 2.886 62.319 0.656s42.246-3.674 62.319-4.592c-25.321 9.577-50.118 19.942-74.127 30.832s-48.281 22.566-72.815 34.767c-6.953 4.33-12.726 10.889-17.056 19.68-1.706 8.79-0.394 15.744 3.936 20.992zM843.603 164.202c1.706 1.706 3.018 2.624 3.936 2.624 11.414 4.33 21.385 4.854 30.176 1.312l11.808-3.936zM274.204 437.094c-1.706-6.953-5.904-12.464-12.464-16.4s-13.382-6.822-20.336-8.528c-34.111-6.953-69.273-12.464-105.614-16.4s-71.896-7.216-106.926-9.84c27.945-4.33 55.497-9.184 82.655-14.432s54.185-11.414 81.343-18.368h-20.992c-27.945 6.953-56.153 12.857-84.623 17.712s-57.071 9.446-85.935 13.776c-0.918 0-1.312 1.312-1.312 3.936l2.624 2.624c41.983 1.706 83.967 4.986 125.95 9.84s83.048 12.070 123.326 21.648c3.542 1.706 6.822 3.674 9.84 5.904s4.986 4.986 5.904 8.528zM812.115 437.094c0-1.706 0.394-3.018 1.312-3.936 6.953-8.79 15.35-13.513 24.928-14.432s19.286-2.624 28.864-5.248c20.073-1.706 41.065-3.28 62.975-4.592s43.689-1.050 65.599 0.656c1.706-1.706 1.706-3.542 0-5.248-15.744-6.953-31.225-14.169-46.575-21.648s-29.913-16.4-43.951-26.896l-2.624-2.624h-7.872c12.201 13.12 25.584 22.566 40.015 28.208s28.601 12.464 42.639 20.336c-30.569 0-60.745 1.312-90.527 3.936-12.201 2.624-24.534 4.33-36.735 5.248s-24.009 4.854-35.423 11.808c-6.166 4.33-9.184 9.184-9.184 14.432zM178.429 521.061c14.038-7.872 27.289-16.006 40.015-24.272s25.584-16.793 38.703-25.584c5.248-4.33 9.577-8.921 13.12-13.776s4.854-10.758 3.936-17.712v-2.624h-6.56c0.918 0.918 1.312 2.23 1.312 3.936-1.706 12.201-7.478 21.254-17.056 26.896s-18.761 11.545-27.552 17.712c-17.449 12.201-36.735 24.009-57.727 35.423zM232.22 521.061c9.577-1.706 19.68-3.018 30.176-3.936s20.598-1.312 30.176-1.312c5.248 1.706 9.577 3.542 13.12 5.248h10.496c-4.33-4.33-9.577-7.478-15.744-9.184s-12.201-2.624-18.368-2.624c-27.945 2.624-55.103 6.56-81.343 11.808zM936.753 521.061c-37.654-16.662-73.864-36.735-108.894-60.351-10.496-7.872-15.744-15.744-15.744-23.616h-6.56v2.624c0 6.953 3.018 13.12 9.184 18.368s11.808 9.577 17.056 13.12c14.825 9.577 29.913 18.368 45.263 26.24s30.832 15.744 46.575 23.616zM166.621 521.061l-27.552 15.744c-0.918 0.918-0.918 2.624 0 5.248 16.662-4.33 32.537-8.265 47.887-11.808s30.438-6.56 45.263-9.184h-31.488c-6.166 1.706-12.201 3.018-18.368 3.936s-12.201 2.23-18.368 3.936c2.624-1.706 4.986-3.018 7.216-3.936s4.592-2.23 7.216-3.936zM305.691 521.061c3.542 2.624 6.56 5.642 9.184 9.184 1.706 4.33 1.574 8.528-0.656 12.464s-4.198 8.134-5.904 12.464c-15.744 24.534-33.455 47.887-53.135 70.191s-38.31 44.345-55.759 66.255c-0.918 0-1.312 0.656-1.312 1.968s0.918 1.968 2.624 1.968l6.56-1.312c26.24-17.449 53.135-34.505 80.687-51.167s55.759-31.094 84.623-43.295c6.953-1.706 14.169-2.23 21.648-1.312s13.382 4.33 17.712 10.496 6.822 13.382 7.216 21.648 0.656 16.006 0.656 22.96c1.706 29.782 1.968 59.039 0.656 87.903s-1.574 58.645-0.656 89.215c0.918 0.918 1.706 1.312 2.624 1.312 9.577-27.158 18.105-54.447 25.584-81.999s18.105-54.054 32.143-79.375c3.542-6.953 8.134-14.694 13.776-22.96s13.382-12.857 22.96-13.776c14.825 0 25.321 5.904 31.488 17.712s12.201 22.96 18.368 33.455c15.744 39.359 28.47 80.424 38.047 123.326 1.706 1.706 3.018 2.23 3.936 1.312l2.624-2.624c0.918-25.321 1.968-52.479 3.28-81.343s8.134-54.71 20.336-77.407c2.624-3.542 6.166-6.56 10.496-9.184s8.79-3.936 13.12-3.936c16.662 1.706 30.569 7.478 41.983 17.056s23.616 18.368 36.735 26.24c22.697 15.744 45.657 32.537 68.879 50.511s44.87 35.161 64.943 51.823c2.624 0 4.33-0.918 5.248-2.624-17.449-28.864-34.111-58.645-49.855-89.215s-29.782-61.269-41.983-91.839c-3.542-8.79-5.51-18.105-5.904-28.208s2.886-19.024 9.84-26.896c5.248-4.33 11.152-6.822 17.712-7.216s13.382-1.050 20.336-1.968c24.534 0 48.806 0.918 72.815 2.624s47.494 3.936 70.191 6.56c1.706-1.706 2.23-3.018 1.312-3.936-6.166-2.624-12.070-5.51-17.712-8.528s-11.152-5.904-16.4-8.528h-13.12c4.33 1.706 8.79 3.674 13.12 5.904s8.79 4.198 13.12 5.904c-23.616-1.706-46.838-3.542-69.535-5.248s-45.919-1.706-69.535 0c-6.953 0.918-13.382 2.624-19.024 5.248s-10.233 6.953-13.776 13.12c-2.624 4.33-4.592 9.446-5.904 15.088s-1.050 11.545 0.656 17.712c9.577 33.193 22.96 65.205 40.015 95.775s33.455 61.269 49.199 91.839c-25.321-20.073-50.249-39.753-74.783-59.039s-49.462-37.654-74.783-55.103c-7.872-4.33-15.744-9.446-23.616-15.088s-17.056-8.528-27.552-8.528c-12.201 0-21.91 4.854-28.864 14.432-13.12 20.992-20.336 44.214-21.648 69.535s-2.886 50.774-4.592 76.095c-4.33-17.449-9.184-34.505-14.432-51.167s-10.889-33.193-17.056-49.855c-5.248-11.414-11.152-23.616-17.712-36.735s-17.318-20.992-32.143-23.616c-8.79-0.918-16.662 1.050-23.616 5.904s-12.726 10.758-17.056 17.712c-14.825 24.534-26.502 50.118-34.767 76.751s-16.4 53.135-24.272 79.375c0.918-27.945 1.574-57.465 1.968-88.559s-0.262-59.695-1.968-85.935c0-12.201-3.542-22.304-10.496-30.176-4.33-6.953-10.889-10.758-19.68-11.152s-17.056 0.262-24.928 1.968c-27.945 10.496-54.447 23.878-79.375 40.015s-50.118 32.143-75.439 47.887c15.744-17.449 31.225-35.686 46.575-54.447s30.438-38.31 45.263-58.383c4.33-6.166 8.528-12.857 12.464-20.336s3.674-15.088-0.656-22.96c-1.706-1.706-2.624-3.018-2.624-3.936z" />
<glyph unicode="&#x62;" glyph-name="a8630df-komikabubblesb" horiz-adv-x="851" d="M0 471.569c0-44.785 9.145-87.418 27.57-127.765s43.709-76.255 75.986-107.591 69.934-57.561 112.971-78.676 89.704-34.698 139.869-41.019l100.867-297.221c1.748-5.38 4.707-8.742 8.742-10.087s8.069-1.614 12.104-0.672 7.397 2.959 10.087 6.052 3.093 7.397 1.345 12.776c-5.38 22.46-9.818 45.995-13.449 70.607s-5.38 49.492-5.38 74.641 1.748 50.030 5.38 74.641 9.414 47.744 17.484 69.262c51.106 7.128 98.446 21.249 141.886 42.364s81.097 47.34 112.971 78.676 56.889 66.976 75.314 106.919 27.57 82.307 27.57 127.092c0 50.164-11.163 97.236-33.622 141.214s-52.854 82.038-91.453 114.316-83.652 57.83-135.162 76.659-106.515 28.243-164.749 28.243-113.374-9.414-165.422-28.243-97.236-44.381-135.834-76.659-68.993-70.338-91.453-114.316-33.622-91.049-33.622-141.214zM34.967 471.569c0 44.785 10.087 87.149 30.26 127.092s48.013 74.641 83.383 104.229 76.928 53.123 124.402 70.607 98.581 26.225 153.318 26.225c53.796 0 104.901-8.742 153.318-26.225s90.511-41.019 126.42-70.607 64.286-64.286 85.401-104.229 31.605-82.307 31.605-127.092c0-41.288-8.742-80.424-26.225-117.678s-41.692-70.203-72.624-98.849-67.245-52.72-108.936-71.952-86.745-31.605-135.162-36.985c-7.128-0.941-13.045-9.683-17.484-26.225s-8.069-37.388-10.759-62.537-3.766-52.047-3.362-80.693 2.017-55.544 4.707-80.693l-64.555 239.391c-0.941 2.69-3.362 5.111-7.397 7.397s-6.993 3.362-8.742 3.362c-47.475 5.38-91.856 17.753-133.144 36.985s-77.062 43.305-107.591 71.952-54.199 61.596-71.279 98.849-25.553 76.39-25.553 117.678z" />
<glyph unicode="&#x63;" glyph-name="a8632df-komikabubblesd" horiz-adv-x="821" d="M767.939 83.441c14.535 0 27.011 5.208 37.549 15.746s15.746 23.014 15.746 37.549v639.546c0 16.11-5.208 29.434-15.746 39.972s-23.014 15.746-37.549 15.746h-713.433c-15.383 0-28.222-5.208-38.76-15.746s-15.746-23.862-15.746-39.972v-639.546c0-14.535 5.208-27.011 15.746-37.549s23.377-15.746 38.76-15.746h186.534l150.196-265.266c2.423-4.845 6.904-7.873 13.324-9.084s12.718-1.454 18.775-0.606 10.901 2.665 14.535 5.451 4.239 6.662 1.817 11.507c-8.115 20.228-14.535 41.183-19.38 62.986s-7.51 43.848-7.873 66.014 2.18 44.211 7.873 66.014 14.535 42.394 26.648 61.774zM398.505-139.431l-134.45 254.365h-209.548c-13.687 0-20.591 7.268-20.591 21.803v639.546c0 6.42 1.817 12.113 5.451 16.958s8.721 7.268 15.141 7.268h713.433c5.693 0 10.659-2.423 15.141-7.268s6.662-10.538 6.662-16.958v-639.546c0-6.42-2.18-11.749-6.662-15.746s-9.448-6.056-15.141-6.056l-337.942-1.211c-8.842-9.69-17.2-22.651-24.831-38.76s-13.324-35.127-16.958-56.929-4.845-46.028-3.634-72.676 5.814-54.87 13.93-84.788z" />
<glyph unicode="&#x64;" glyph-name="a8638df-komikabubblesj" horiz-adv-x="1223" d="M541.196 819.182l-11.394-18.515-25.636-41.302-28.484-43.438-18.515-24.924c-3.845 1.851-12.391 6.694-25.636 14.242s-24.639 14.242-34.181 19.939-15.239 8.972-17.090 9.969c-0.997-1.851-2.848-7.548-5.697-17.090s-6.409-20.936-10.682-34.181-7.406-21.79-9.257-25.636c-4.7 0-16.663 1.709-35.605 4.985s-38.738 7.121-59.104 11.394-38.738 8.118-54.832 11.394l-24.211 4.985 2.136-20.651 4.985-46.287 5.697-48.423 5.697-27.060c-3.845-1.851-13.245-4.985-28.484-9.257s-28.769-7.833-40.59-10.682-18.799-4.7-20.651-5.697c0.997-1.851 3.845-7.833 8.545-17.803s10.397-21.79 17.090-35.605 10.966-23.927 12.818-30.62c-4.7-1.851-15.239-6.124-31.332-12.818s-32.757-13.815-49.847-21.363-32.472-14.527-46.287-20.651l-20.651-9.257 17.090-15.666 39.166-34.893 42.014-37.029 24.211-22.075c-1.851-3.845-7.121-12.391-15.666-25.636s-16.378-24.639-23.499-34.181-11.109-15.239-12.106-17.090l76.907-38.453c-1.851-2.848-5.982-11.821-12.106-27.060s-12.533-31.332-19.227-48.423-12.818-32.472-18.515-46.287l-8.545-20.651 21.363 4.985 48.423 12.106 52.695 13.53 32.757 9.257c1.851-6.694 4.985-16.806 9.257-30.62s7.833-25.636 10.682-35.605 4.7-15.951 5.697-17.803c0.997 0.997 5.412 3.276 13.53 7.121s17.518 8.972 28.484 15.666 18.23 11.821 22.075 15.666c1.851-4.7 5.27-14.242 9.969-28.484s9.685-28.769 14.954-43.438 9.969-27.772 14.242-39.166l6.409-17.090 102.542 102.542 64.089-64.089 12.106 12.106 24.211 24.924 16.378 19.939c2.848-2.848 10.966-10.254 24.211-22.075s27.060-24.211 41.302-37.029 27.060-24.496 38.453-34.893l17.090-15.666 4.985 19.227 11.394 44.15 11.394 48.423 4.985 30.62c6.694-1.851 16.378-4.985 29.196-9.257s23.784-8.118 32.757-11.394 13.957-4.985 14.954-4.985c0 0.997 0.997 4.557 2.848 10.682s3.988 13.957 6.409 23.499 3.561 17.518 3.561 24.211c4.7-2.848 20.651-12.533 47.711-29.196s57.965-35.605 92.573-56.968 69.786-43.011 105.391-64.801 64.374-39.593 86.164-53.408 33.754-21.078 35.605-22.075l12.818 19.939-31.332 23.499-74.058 64.089-87.588 94.709-70.498 113.936c5.697 1.851 13.957 4.273 24.924 7.121s19.939 5.412 27.060 7.833 11.109 3.561 12.106 3.561c-0.997 1.851-2.848 7.406-5.697 16.378s-6.409 19.939-10.682 32.757-7.406 22.502-9.257 29.196c4.7 0.997 13.103 3.561 24.924 7.833s24.211 8.83 37.029 13.53 23.927 8.83 33.469 12.106l14.242 4.985-13.53 12.818-30.62 29.908-32.757 32.757-19.939 21.363 64.089 64.089c-1.851 0.997-7.833 3.845-17.803 8.545s-21.79 10.397-35.605 17.090-23.927 10.966-30.62 12.818c1.851 2.848 5.27 8.972 9.969 18.515s9.685 18.942 14.954 28.484 9.969 18.087 14.242 25.636l6.409 11.394c-1.851 0-8.83 0.997-20.651 2.848s-25.92 3.988-42.014 6.409-27.487 3.561-34.181 3.561c1.851 4.7 4.273 15.381 7.121 32.045s5.697 33.896 8.545 51.983 5.27 34.181 7.121 48.423l2.848 21.363-26.348-7.833-59.816-18.515-63.377-19.939-37.029-12.106c-1.851 3.845-6.694 12.818-14.242 27.060s-14.527 26.775-20.651 37.741-9.685 17.375-10.682 19.227c-0.997-0.997-5.412-4.557-13.53-10.682s-18.087-13.53-29.908-22.075-20.651-14.669-26.348-18.515c-1.851 2.848-8.545 12.391-19.939 28.484s-23.784 33.041-37.029 50.559-25.351 33.469-36.317 47.711l-16.378 21.363zM477.107 663.944l9.969 17.090 23.499 39.878 26.348 44.15 17.090 28.484c2.848-4.7 10.254-14.954 22.075-30.62s24.211-31.76 37.029-48.423 24.496-31.332 34.893-44.15l15.666-19.227c0.997 0.997 5.412 4.557 13.53 10.682s17.518 13.815 28.484 22.787 18.23 15.381 22.075 19.227c1.851-3.845 6.694-12.391 14.242-25.636s14.527-24.924 20.651-34.893 9.685-15.951 10.682-17.803l70.498 23.499 54.12 17.803 36.317 11.394c0-6.694-0.712-17.803-2.136-33.469s-2.848-31.617-4.273-47.711-2.848-30.335-4.273-42.726l-2.136-18.515c0.997 0 6.124-0.427 15.666-1.424s20.936-2.564 34.181-4.985 24.211-4.557 32.757-6.409c-3.845-6.694-9.542-16.378-17.090-29.196s-13.815-23.784-18.515-32.757-7.548-13.957-8.545-14.954c0.997-0.997 5.982-3.276 14.954-7.121s19.939-8.545 32.757-14.242 22.502-9.542 29.196-11.394c-3.845-5.697-10.682-13.245-20.651-22.787s-18.515-17.375-25.636-23.499-11.109-9.685-12.106-10.682c1.851-1.851 8.26-7.833 19.227-17.803s23.927-22.075 39.166-36.317 26.063-24.211 32.757-29.908c-8.545-3.845-20.936-8.972-37.029-15.666s-29.623-11.821-40.59-15.666-17.375-6.124-19.227-7.121c0-1.851 1.709-7.121 4.985-15.666s7.121-18.942 11.394-31.332 7.406-20.366 9.257-24.211c-6.694-1.851-15.951-4.985-27.772-9.257s-21.79-8.118-29.908-11.394-12.533-4.985-13.53-4.985l7.121-7.121c16.093-45.574 38.738-86.164 67.65-121.769s60.101-67.65 93.285-96.134c-29.481 16.093-59.816 33.469-91.149 51.983s-59.816 35.89-85.452 51.983-46.714 29.623-63.377 40.59l-24.924 16.378c0-0.997-1.139-5.697-3.561-14.242s-4.985-18.799-7.833-30.62-5.27-20.651-7.121-26.348c-3.845 1.851-11.821 4.985-24.211 9.257s-22.787 7.833-31.332 10.682-13.815 4.7-15.666 5.697l-4.273-15.666-9.257-36.317-10.682-40.59-8.545-29.908c-4.7 4.7-13.103 12.106-24.924 22.075s-23.927 19.939-36.317 29.908-23.214 18.799-32.757 26.348l-14.242 11.394-10.682-10.682-22.787-22.075-19.227-18.515-64.089 64.089-11.394-12.106-26.348-28.484-29.908-32.045-22.075-22.787c-2.848 6.694-6.836 16.663-12.106 29.908s-10.397 26.775-15.666 40.59-9.542 25.92-12.818 36.317l-4.985 15.666c-0.997-0.997-5.412-3.561-13.53-7.833s-17.518-9.685-28.484-16.378-18.23-11.821-22.075-15.666c-1.851 6.694-4.273 16.378-7.121 29.196s-5.412 23.784-7.833 32.757-3.561 14.527-3.561 16.378l-17.803-4.273-40.59-9.257-44.862-10.682-32.045-8.545c0.997 6.694 3.988 16.663 9.257 29.908s10.254 26.775 14.954 40.59 9.257 25.92 13.53 36.317l6.409 15.666c-0.997 0.997-5.412 3.276-13.53 7.121s-18.087 8.972-29.908 15.666-20.651 11.821-26.348 15.666c3.845 3.845 9.969 11.821 18.515 24.211s15.951 22.787 22.075 31.332 9.685 13.815 10.682 15.666l-47.711 40.59-37.029 32.757-24.924 23.499c4.7 2.848 13.957 7.548 27.772 14.242s28.199 13.103 43.438 19.227 28.484 11.678 39.878 16.378l17.090 7.121c-0.997 1.851-3.276 7.833-7.121 17.803s-8.26 21.79-13.53 35.605-8.83 23.927-10.682 30.62c5.697 1.851 15.381 4.557 29.196 7.833s25.636 6.124 35.605 8.545 15.951 3.561 17.803 3.561l-2.848 17.090-6.409 39.878-6.409 44.862-2.848 32.045c6.694-1.851 18.799-4.557 36.317-7.833s35.605-6.694 54.12-9.969 34.893-6.409 49.135-9.257l21.363-4.273c0 0.997 1.709 5.412 4.985 13.53s7.121 18.087 11.394 29.908 7.406 21.078 9.257 27.772c5.697-3.845 14.954-9.542 27.772-17.090s23.784-13.957 32.757-19.227 14.527-8.26 16.378-9.257z" />
<glyph unicode="&#x65;" glyph-name="a8640df-komikabubblesl" horiz-adv-x="997" d="M3.28 294.941c-2.767-2.767-3.792-5.637-3.075-8.712s2.357-5.33 5.125-6.662l144.514-39.972c0-10.967-0.512-22.548-1.537-34.847s-1.742-23.573-2.050-33.822 0-18.654 1.025-25.111 3.587-9.429 7.687-8.712l134.265 25.623c-4.1-18.449-10.044-41.714-17.936-69.695s-16.091-57.396-24.598-88.143-16.911-60.675-25.111-89.681-14.656-53.808-19.474-74.307c-2.767-10.967-3.587-18.756-2.562-23.573s2.767-7.687 5.125-8.712 4.817-0.82 7.174 0.512 3.895 2.767 4.612 4.1l168.087 317.726 88.143-121.966c2.767-6.15 5.842-6.15 9.224 0l103.517 166.037 92.243-95.318 23.573 83.019 157.838-56.371c3.382-1.332 5.842-0.82 7.174 1.537s1.332 5.637 0 9.737l-20.498 135.29c6.15 2.767 10.967 6.457 14.349 11.274l65.595 7.174c3.382 0.717 5.637 2.562 6.662 5.637s0.205 6.355-2.562 9.737l-38.947 61.495c0.717 17.116 0.717 35.872 0 56.371l101.467 65.595c3.382 1.332 4.92 4.305 4.612 8.712s-2.255 7.379-5.637 8.712l-150.664 84.044-3.075 4.1 35.872 139.389c1.332 4.1 1.23 7.482-0.512 10.249s-3.895 3.382-6.662 2.050l-177.312-62.52c-4.1 28.698-7.174 51.451-9.224 68.157s-6.15 22.753-12.299 17.936l-85.069-65.595-86.093 142.464c-1.332 2.767-3.075 4.1-5.125 4.1s-3.792-1.332-5.125-4.1l-81.994-145.539-63.545 55.346c-2.767 2.767-5.432 1.742-8.199-3.075l-48.171-87.118-188.586 94.293c-3.382 2.767-5.945 2.767-7.687 0s-1.845-6.457-0.512-11.274l17.424-63.545-27.673 1.025c-1.332-4.817-2.357-7.482-3.075-8.199s-1.332-1.742-2.050-3.075l34.847-111.717c-8.199-4.1-15.374-7.482-21.523-10.249s-11.582-5.432-16.399-8.199c-13.631-6.15-21.216-11.992-22.548-17.424s2.767-15.681 12.299-30.748c4.1-7.482 9.429-16.399 15.886-26.648s14.144-22.856 23.061-37.922zM836.542 557.321l135.29-78.919-94.293-55.346-0.512 2.050c0.307-1.332 0.512-5.432 0.512-12.299s0.205-16.706 0.512-29.723 0.205-30.030-0.512-51.246l33.822-43.047-45.097-3.075-37.922-27.673h3.075l19.474-130.165-160.913 55.346-18.449-76.869-84.044 89.168c-2.050 3.382-4.817 2.767-8.199-2.050l-101.467-163.988-87.118 122.991c-1.332 1.332-3.28 2.562-5.637 3.587s-4.305 0.512-5.637-1.537l-154.763-293.128c5.432 21.216 11.479 44.072 17.936 68.67s13.119 49.709 19.986 75.332 13.529 51.041 19.986 76.357 12.504 49.196 17.936 71.745c4.1 15.066 4.92 23.881 2.562 26.648s-4.305 3.792-5.637 3.075l-137.34-24.598 4.1 88.143c0 4.817-1.742 8.199-5.125 10.249l-137.34 36.897 89.168 111.717c1.332 1.332 2.255 3.382 2.562 6.15s-0.205 4.817-1.537 6.15l-48.171 83.019 57.396 32.798-33.822 124.016 26.648-10.249 5.125 32.798c-1.332 2.050-2.357 3.792-3.075 5.125s-1.537 3.28-2.562 5.637-2.255 5.637-3.587 9.737-3.075 9.942-5.125 17.424l179.361-90.193c2.767-1.332 5.432-0.717 8.199 2.050l46.122 86.093 63.545-56.371c3.382-2.050 6.15-1.025 8.199 3.075l80.969 143.489 85.069-138.365c0.717-2.050 1.845-3.382 3.587-4.1s2.87-0.307 3.587 1.025l83.019 63.545c0.717-4.817 1.537-12.094 2.562-22.036s2.255-19.679 3.587-29.21 3.075-17.731 5.125-24.598 4.817-9.532 8.199-8.199l170.137 60.47-28.698-112.741c-2.767 4.1-4.305 5.432-4.612 4.1s0.205-4.1 1.537-8.199 3.075-9.019 5.125-14.861 4.407-11.069 7.174-15.886z" />
<glyph unicode="&#x66;" glyph-name="a8645df-komikabubblesq" horiz-adv-x="1136" d="M338.571 797.714c-33.286-12.429-65-27.571-95-45.714s-57.857-38.143-83.571-60c-51.429-45.714-91-99.571-118.571-161.429-27.571-63.857-41.429-133.286-41.429-208.571 0-71.429 13.857-140 41.429-205.714 27.571-61.857 67.143-115.286 118.571-160 25.714-21.857 53.571-41.857 83.571-60s61.714-33.286 95-45.714c36.143-12.429 73.143-21.143 110.714-26.429s77.429-7.857 119.286-7.857c62.857 0 123.286 7.429 181.429 22.143s110.429 37.429 157.143 67.857c1.857-1.857 11.714-7.857 29.286-17.857s36.714-21 57.143-32.857 39-22.571 55.714-32.143l25-14.286c4.714-2.857 8.143-0.429 10 7.143v2.857c0 2.857-1 6.143-2.857 10-1 0-5.286 2.571-12.857 7.857s-16 13.857-25 25.714-18.143 27.429-27.143 46.429-15 41.857-17.857 68.571c45.714 45.714 80 97.571 102.857 155.714s34.286 121 34.286 188.571c0 75.286-13.857 144.714-41.429 208.571-28.571 61-67.571 114.714-117.143 161.429-25.714 21.857-53.857 41.857-84.286 60s-62.429 33.286-95.714 45.714c-71.429 22.857-147.571 34.286-228.571 34.286-81.857 0-158.571-11.429-230-34.286zM15.714 322c0 73.286 13.286 139.571 40 198.571 13.286 28.571 29.286 56.143 47.857 82.857s40.286 51 65 72.857c50.429 43.857 109.714 77.571 177.857 101.429s142.143 35.714 222.143 35.714c79 0 152.571-11.857 220.714-35.714s126.857-57.571 176.429-101.429c24.714-21.857 46.429-46.143 65-72.857s34.571-54.286 47.857-82.857c14.286-30.429 24.571-62.143 30.714-95s9.286-67.429 9.286-103.571c0-64.714-11-125.429-32.857-182.143s-55.714-106.429-101.429-149.286c-1-1.857-1.429-4.714-1.429-8.571v-1.429c1.857-26.714 6.857-50 15-70s16.857-36.714 26.429-50c-16.143 9.571-33.571 19.571-52.143 30s-33.143 18.857-43.571 25-16.714 9.714-18.571 10.714c-1.857 1.857-3.857 1.857-5.714 0-47.571-30.429-99.714-53.286-156.429-68.571s-116.429-22.857-179.286-22.857c-81.857 0-156.714 11.857-224.286 35.714s-125.714 57.429-174.286 100.714-86.429 94.714-113.571 154.286-40.714 125-40.714 196.429z" />
<glyph unicode="&#x67;" glyph-name="a8646df-komikabubblesr" horiz-adv-x="898" d="M296.851 714.137c-27.106-30.728-47.518-64.528-61.455-101.511s-21.4-74.624-22.497-113.034 4.39-76.49 16.461-114.131 30.947-72.21 56.517-103.706c-8.779-35.886-21.948-71.881-39.507-108.096s-37.312-71.661-59.261-106.449-44.994-67.711-69.137-98.768-47.189-59.041-69.137-83.952c-13.937-16.79-24.143-28.862-30.728-36.215s-10.974-12.291-13.169-14.815-2.963-3.621-2.195-3.292l1.097 0.549v-1.097c-5.158-6.585-5.158-12.401 0-17.559 5.816-5.816 12.072-5.487 18.656 1.097 0.768 0.768 7.682 7.353 20.851 19.754s31.057 29.411 53.773 51.030 47.408 44.994 74.076 70.235 53.993 50.81 81.758 76.819 53.225 49.713 76.27 71.332 42.031 39.727 57.066 54.322 23.594 22.717 25.789 24.143c34.349-16.132 69.905-26.009 106.449-29.63s72.649-1.866 108.096 5.487 69.357 20.302 101.511 38.958 61.126 42.58 86.696 71.881c30.728 35.886 52.896 75.173 66.394 117.972s18.656 85.928 15.364 129.495-14.815 85.818-34.569 126.752-47.518 76.819-83.404 107.547c-35.117 30.728-74.295 52.896-117.424 66.394s-86.476 18.656-130.044 15.364-85.818-14.596-126.752-34.020-76.819-46.969-107.547-82.855zM311.118 280.658c1.427 3.621 1.097 7.353-1.097 10.974-24.143 29.959-42.031 62.553-53.773 97.67s-17.229 70.564-16.461 106.449 7.462 71.113 20.302 105.901 31.606 66.394 56.517 94.927c28.533 32.923 61.675 58.492 99.316 76.819s76.6 28.862 116.875 31.825 80.111-1.646 119.618-13.718 75.722-32.374 108.644-60.907 58.492-61.675 76.819-99.316 28.862-76.819 31.825-117.424-1.866-80.88-14.266-120.716-32.923-76.27-61.455-109.193c-23.375-27.106-50.262-49.384-80.66-66.942s-62.224-29.63-95.475-36.215-67.272-7.682-102.060-3.292-68.589 14.596-101.511 30.728c-5.816 1.427-10.645 0.329-14.266-3.292l-114.68-114.68-110.29-109.193-116.326-113.034c34.349 40.934 66.065 81.209 94.927 120.716s54.322 77.039 76.27 112.485 39.836 68.369 53.773 98.768 23.046 57.285 27.435 80.66z" />
<glyph unicode="&#x68;" glyph-name="a10571df-peaxwebdesigncircles301" horiz-adv-x="992" d="M98.193 678.289l48.54-53.597c3.337-4.045 3.236-7.584-0.506-10.618s-6.877-2.832-9.607 0.506l-48.54 53.597c-3.337 3.337-3.337 6.775 0 10.113s6.775 3.337 10.113 0zM58.754 583.23c6.775-3.337 13.652-7.584 20.731-12.641s14.663-10.922 22.753-17.697l17.191-14.158c4.045-3.337 4.551-6.877 1.517-10.618s-6.27-4.247-9.607-1.517c-4.753 3.337-10.922 8.393-18.708 15.169s-14.865 12.438-21.236 17.191-12.641 8.798-18.708 12.135c-4.045 2.023-5.056 5.056-3.034 9.101s5.056 5.056 9.101 3.034zM34.484 445.699c24.978-18.203 44.799-30.034 59.664-35.394 4.045-2.023 5.259-5.259 3.539-9.607s-4.854-5.865-9.607-4.551c-15.472 6.068-36.102 18.506-61.687 37.417-4.045 2.73-4.753 6.068-2.023 10.113s6.068 4.753 10.113 2.023zM6.169 291.988c12.135 2.023 31.652 6.775 58.653 14.158 4.753 1.315 7.787-0.303 9.101-5.056s-0.303-7.787-5.056-9.101c-27.607-7.382-47.833-12.135-60.675-14.158-4.753-0.708-7.382 1.315-8.090 6.068s1.416 7.382 6.068 8.090zM22.349 174.682c7.382 2.73 16.484 7.382 27.304 14.158 14.158 8.798 23.562 14.158 28.315 16.18 4.045 2.023 7.079 1.011 9.101-3.034s1.011-7.079-3.034-9.101-13.146-7.382-27.304-16.18c-11.427-7.382-21.54-12.843-30.338-16.18-4.045-1.315-6.877 0.202-8.596 4.551-1.618 4.348-0.101 7.584 4.551 9.607zM38.529 83.669c5.36 3.337 14.865 9.809 28.315 19.214 12.843 8.798 23.259 15.169 31.349 19.214 4.045 2.023 7.079 1.011 9.101-3.034s1.011-7.079-3.034-9.101c-7.382-4.045-17.191-10.113-29.326-18.203-13.45-10.113-23.562-16.888-30.338-20.225-4.045-2.73-7.281-1.82-9.607 2.528s-1.112 7.584 3.539 9.607zM115.385-31.614c15.472 28.315 33.068 49.855 52.585 64.721 3.337 2.73 6.573 2.225 9.607-1.517s2.528-7.281-1.517-10.618c-17.495-12.843-33.675-32.36-48.54-58.653-2.023-4.753-5.259-5.865-9.607-3.539s-5.157 5.562-2.528 9.607zM264.040-61.952c-5.36-7.382-8.798-19.214-10.113-35.394-0.708-2.73-1.315-9.809-2.023-21.236-0.708-8.798-1.315-15.877-2.023-21.236-0.708-4.753-3.337-6.775-8.090-6.068s-6.775 3.337-6.068 8.090 1.315 11.427 2.023 20.225c0.708 11.427 1.315 18.506 2.023 21.236 1.315 18.911 5.36 33.068 12.135 42.473 2.73 4.045 6.068 4.753 10.113 2.023s4.753-6.068 2.023-10.113zM330.783-106.448c-5.36-18.203-1.315-36.709 12.135-55.619 2.73-4.045 2.023-7.382-2.023-10.113s-7.382-2.023-10.113 2.023c-15.472 22.248-20.225 44.799-14.158 67.754 1.315 4.753 4.348 6.371 9.101 5.056s6.472-4.348 5.056-9.101zM417.751-121.616c3.337-14.865 13.146-34.383 29.326-58.653 2.73-4.045 2.023-7.382-2.023-10.113s-7.382-2.023-10.113 2.023c-17.495 26.293-28.012 47.833-31.349 64.721-0.708 4.045 1.214 6.573 5.562 7.584s7.281-0.809 8.596-5.562zM505.73-123.639c2.023-4.045 5.36-10.113 10.113-18.203s8.899-14.663 12.641-19.72 7.888-9.607 12.641-13.652c3.337-2.73 3.539-5.865 0.506-9.607s-6.573-3.843-10.618-0.506c-5.36 4.753-10.113 9.91-14.158 15.675s-8.596 12.944-13.652 21.742-8.292 14.158-9.607 16.18c-2.73 4.045-2.023 7.382 2.023 10.113s7.483 2.023 10.113-2.023zM613.935-112.515c8.090-13.45 22.248-29.023 42.473-46.518 3.337-2.73 3.539-5.865 0.506-9.607s-6.573-3.843-10.618-0.506c-20.933 18.203-35.697 35.091-44.495 50.563-2.73 4.045-1.82 7.281 2.528 9.607s7.584 1.214 9.607-3.539zM730.23-75.099c3.337-1.315 15.169-6.371 35.394-15.169 11.427-5.36 22.551-8.090 33.372-8.090 4.753 0 7.079-2.326 7.079-7.079s-2.326-7.079-7.079-7.079c-12.843 0-25.989 3.034-39.439 9.101-19.517 8.798-30.641 13.45-33.372 14.158-4.753 1.315-6.371 4.348-5.056 9.101s4.45 6.371 9.101 5.056zM839.445 3.78c4.045-1.315 9.405-3.034 16.18-5.056l16.18-4.045c4.045-1.315 9.101-2.528 15.169-3.539s11.832-1.517 17.191-1.517c4.753 0 7.079-2.326 7.079-7.079s-2.326-7.079-7.079-7.079c-6.068 0-12.438 0.506-19.214 1.517s-12.135 2.023-16.18 3.034-9.809 2.73-17.191 5.056-12.843 3.843-16.18 4.551c-4.753 1.315-6.371 4.348-5.056 9.101s4.45 6.371 9.101 5.056zM892.031 72.545c27.607 6.068 47.529 12.438 59.664 19.214 4.045 2.023 7.079 1.011 9.101-3.034s1.011-7.079-3.034-9.101c-12.843-7.382-33.372-14.461-61.687-21.236-4.753-0.708-7.584 1.214-8.596 5.562s0.506 7.281 4.551 8.596zM926.414 189.851c4.753 4.753 13.854 11.124 27.304 19.214 11.427 7.382 19.922 13.854 25.281 19.214 3.337 3.337 6.775 3.337 10.113 0s3.337-6.775 0-10.113c-6.775-6.068-15.877-12.843-27.304-20.225-12.843-8.798-21.944-14.865-27.304-18.203-3.337-3.337-6.573-3.236-9.607 0.506s-2.528 6.877 1.517 9.607zM924.391 329.405c6.775 6.775 16.18 14.461 28.315 23.259 12.843 10.113 21.54 17.495 26.293 22.248 3.337 3.337 6.775 3.337 10.113 0s3.337-6.775 0-10.113c-5.36-4.753-14.865-12.438-28.315-23.259-11.427-8.798-20.225-16.18-26.293-22.248-3.337-3.337-6.775-3.337-10.113 0s-3.337 6.775 0 10.113zM928.436 444.688c4.045 10.113 10.82 22.248 20.225 36.405 11.427 15.472 18.506 25.989 21.236 31.349 2.023 4.045 5.056 5.056 9.101 3.034s5.056-5.056 3.034-9.101c-2.73-6.068-10.113-17.191-22.248-33.372-8.798-12.843-14.461-23.562-17.191-32.36-2.023-4.753-5.259-6.27-9.607-4.551s-5.865 4.551-4.551 8.596zM878.884 547.836c-4.045 16.18-1.011 33.372 9.101 51.574 3.337 5.36 8.090 12.438 14.158 21.236 7.382 10.113 12.135 16.888 14.158 20.225 2.73 4.045 6.068 4.753 10.113 2.023s4.753-6.068 2.023-10.113c-2.73-3.337-7.382-10.113-14.158-20.225-6.068-8.798-10.416-15.472-13.146-20.225-8.798-14.865-11.427-28.315-8.090-40.45 0.708-4.753-1.214-7.584-5.562-8.596s-7.18 0.506-8.596 4.551zM808.096 640.872c-2.023 5.36-3.337 10.618-4.045 15.675s-0.303 10.416 1.011 16.18 2.326 9.809 3.034 12.135 2.73 7.281 6.068 14.663 5.36 11.832 6.068 13.146c1.315 4.045 4.247 5.259 8.596 3.539s5.562-4.854 3.539-9.607c-0.708-2.73-2.225-6.573-4.551-11.629s-3.843-8.596-4.551-10.618l-3.034-9.101c-1.315-4.045-2.023-7.281-2.023-9.607s0.303-5.36 1.011-9.101 1.719-7.584 3.034-11.629-0.202-6.877-4.551-8.596-7.584-0.202-9.607 4.551zM662.475 685.368c-2.023 6.068-3.236 12.438-3.539 19.214s0.506 13.652 2.528 20.731 3.742 12.641 5.056 16.686 4.045 10.416 8.090 19.214 6.775 14.158 8.090 16.18c1.315 4.045 4.247 5.259 8.596 3.539s5.562-4.854 3.539-9.607c-0.708-2.73-3.034-8.292-7.079-16.686s-6.775-14.36-8.090-17.697-2.832-8.292-4.551-14.663-2.326-12.135-2.023-17.191 1.517-10.315 3.539-15.675c1.315-4.045-0.202-6.877-4.551-8.596s-7.584-0.202-9.607 4.551zM535.057 704.581c-14.158 11.427-21.944 31.046-23.259 58.653-0.708 7.382-0.708 18.203 0 32.36s1.011 23.967 1.011 29.326c0 4.753 2.326 7.079 7.079 7.079s7.079-2.326 7.079-7.079c0-5.36-0.303-15.169-1.011-29.326-0.708-13.45-0.708-24.27 0-32.36 1.315-23.562 7.079-39.742 17.191-48.54 4.045-2.73 4.551-5.865 1.517-9.607s-6.169-3.843-9.607-0.506zM361.12 721.773c-5.36 15.472-6.371 37.113-3.034 64.721 0.708 4.753 3.337 6.775 8.090 6.068s6.775-3.337 6.068-8.090c-3.337-24.978-2.326-44.495 3.034-58.653 1.315-4.045-0.202-6.877-4.551-8.596s-7.584-0.202-9.607 4.551zM252.916 671.21c-12.843 20.933-19.922 45.203-21.236 72.811 0 4.753 2.326 7.079 7.079 7.079s7.079-2.326 7.079-7.079c1.315-24.978 7.787-46.518 19.214-64.721 2.73-4.045 2.023-7.382-2.023-10.113s-7.382-2.023-10.113 2.023z" />
<glyph unicode="&#x69;" glyph-name="a10576df-peaxwebdesigncircles361" horiz-adv-x="1067" d="M188.835-36.271c-1.416 2.94-2.505 3.594-3.267 2.178 0.762 0 1.851-0.653 3.267-2.178zM709.384 743.463c-5.118 3.594-11.652 8.712-19.602 15.246l-18.513 15.246c-5.118 3.594-11.108 7.623-17.969 11.979s-13.939 7.95-21.236 10.89c-58.044 21.78-123.276 21.018-195.478-2.178s-124.365-60.985-156.274-113.257c-17.424-27.552-21.78-54.777-13.068-81.676 0-0.762 2.505-3.594 7.623-8.712 2.94-2.94 5.118-5.445 6.534-7.623 2.178-5.118 2.178-10.128 0-15.246-5.118-9.474-14.919-16.662-29.403-21.78-18.187-6.534-27.988-10.128-29.403-10.89-40.62-23.196-75.142-49.768-103.456-79.498-37.026-39.205-64.252-85.814-81.676-139.938s-21.454-109.228-11.979-165.53 33.759-102.585 72.964-138.849c19.602-18.187 47.59-28.641 83.854-31.581 0.762 0 2.178 0.327 4.356 1.089 2.94 0.762 5.118 0.762 6.534 0 5.118-0.762 8.385-2.94 9.801-6.534 3.594-7.95 6.207-14.484 7.623-19.602s1.851-9.474 1.089-13.068-2.178-6.207-4.356-7.623l6.534-8.712c16.662-21.78 44.323-39.967 82.765-54.451 37.789-15.246 81.349-26.463 130.682-33.759 47.154-7.296 92.239-10.563 135.038-9.801 43.561 1.416 78.082 6.534 103.456 15.246 39.967 14.484 77.647 37.026 113.257 67.519s63.163 64.252 82.765 101.278c6.534 13.068 12.741 37.026 18.513 71.875 2.94 16.009 4.029 28.641 3.267 38.115-5.772 2.94-10.563 5.445-14.157 7.623-2.94 2.178-5.118 4.029-6.534 5.445-2.94 2.94-4.356 5.772-4.356 8.712-0.762 6.534 1.851 10.89 7.623 13.068 2.94 0.762 6.534 1.089 10.89 1.089 12.306 0 20.365-6.861 23.958-20.691 39.967-2.94 72.202 17.751 96.922 62.074 13.83 25.374 25.374 58.262 34.848 98.556s14.157 81.132 14.157 122.514c1.416 99.427-21.78 165.53-69.697 198.201-8.712 5.772-19.058 10.346-31.037 13.613s-21.562 5.227-28.859 5.99-19.384 1.416-36.482 2.178-28.532 1.089-34.304 1.089c-6.534 0.762-9.474 4.356-8.712 10.89s4.356 9.474 10.89 8.712c3.594 0 14.375-0.327 32.126-1.089s30.819-1.634 39.205-2.723 19.276-3.485 32.67-7.079 25.265-9.039 35.393-16.335c53.688-36.264 79.825-107.486 78.409-213.447 0-42.798-4.901-85.27-14.702-127.415s-21.998-76.231-36.482-102.367c-28.314-50.857-65.668-75.142-112.168-72.964 0-10.128-1.089-22.543-3.267-37.026-5.772-37.026-12.741-62.836-20.691-77.32-21.018-39.967-50.312-75.904-87.666-107.812s-77.102-55.213-119.247-69.697c-26.899-10.128-63.163-16.009-108.901-17.424-44.323-0.762-90.388 2.505-138.305 9.801-114.673 17.424-190.251 49.006-226.515 94.744-5.118 7.296-9.039 12.741-11.979 16.335s-4.683 6.534-5.445 8.712c-1.416 3.594-1.089 6.861 1.089 9.801 2.178 3.594 5.118 5.445 8.712 5.445-0.762 4.356-1.416 7.296-2.178 8.712-3.594-0.762-6.534-1.089-8.712-1.089-39.967 2.94-71.548 14.919-94.744 35.937-32.67 30.492-55.866 67.192-69.697 109.99s-18.513 85.814-14.157 129.048 15.573 85.488 33.759 126.87 41.056 76.993 68.608 106.723c29.73 31.908 66.43 59.896 109.99 83.854 0.762 0.762 11.217 4.683 31.581 11.979 5.772 2.178 11.652 5.772 17.424 10.89-0.762 0-1.416 0.327-2.178 1.089-7.296 7.296-11.652 12.741-13.068 16.335-9.474 33.433-4.356 66.43 15.246 99.1 34.848 55.866 90.606 96.16 167.164 120.881s146.146 25.047 208.546 1.089c10.128-3.594 19.602-8.168 28.314-13.613s19.276-13.286 31.581-23.414 19.602-16.335 21.78-18.513c5.772-3.594 6.752-8.168 2.723-13.613s-8.494-5.99-13.613-1.634z" />
<glyph unicode="&#x6a;" glyph-name="a10589df-peaxwebdesigncircles528" horiz-adv-x="1412" d="M55.505 823.958c17.535-2.637 39.947-2.241 67.238 1.318 6.988 0.923 10.943-2.241 11.866-9.229s-2.241-10.943-9.229-11.866c-28.082-3.56-52.34-3.955-72.512-1.318-6.988 0.923-10.152 4.878-9.229 11.866s4.878 10.152 11.866 9.229zM230.852 831.868c29.928-4.351 58.405-4.351 85.696 0 6.988 0.923 10.943-2.241 11.866-9.229s-2.241-10.943-9.229-11.866c-29.005-4.351-59.328-4.351-90.969 0-6.988 0.923-10.152 4.878-9.229 11.866s4.878 10.152 11.866 9.229zM436.522 821.321c11.47 0.923 25.972 1.714 43.507 2.637 25.445 0.923 39.552 1.318 42.189 1.318 6.988 0 10.547-3.56 10.547-10.547s-3.56-10.547-10.547-10.547c-1.714 0-15.821-0.396-42.189-1.318-16.744 0-30.323-0.923-40.87-2.637-6.988-0.923-10.943 2.241-11.866 9.229s2.241 10.943 9.229 11.866zM648.784 810.774c16.744 1.714 39.947 4.878 69.875 9.229 6.988 0.923 10.943-2.241 11.866-9.229s-2.241-10.943-9.229-11.866c-29.928-4.351-53.131-7.515-69.875-9.229-6.988-0.923-10.943 2.241-11.866 9.229s2.241 10.943 9.229 11.866zM890.051 820.003c14.898 0.923 37.311 1.318 67.238 1.318 29.005 0 51.022 0.923 65.92 2.637 6.988 0.923 10.943-2.241 11.866-9.229s-2.241-10.943-9.229-11.866c-15.821-1.714-38.629-2.637-68.557-2.637s-51.418-0.396-64.602-1.318c-6.988-0.923-10.943 2.241-11.866 9.229s2.241 10.943 9.229 11.866zM1165.596 810.774c32.564 3.56 78.181 2.241 137.113-3.955 6.988-0.923 10.152-4.878 9.229-11.866s-4.878-10.152-11.866-9.229c-57.087 6.196-101.121 7.515-131.84 3.955-6.988-0.923-10.943 2.241-11.866 9.229s2.241 10.943 9.229 11.866zM9.361-121.334c11.47 0.923 33.883 1.318 67.238 1.318 6.988 0 10.547-3.56 10.547-10.547s-3.56-10.547-10.547-10.547c-32.564 0-54.054-0.396-64.602-1.318-6.988-0.923-10.943 2.241-11.866 9.229s2.241 10.943 9.229 11.866zM197.892-139.791c12.261-1.714 35.201-2.637 68.557-2.637 6.988 0 10.547-3.56 10.547-10.547s-3.56-10.547-10.547-10.547c-35.201 0-58.932 0.923-71.194 2.637-6.988 0.923-10.152 4.878-9.229 11.866s4.878 10.152 11.866 9.229zM437.84-156.931c48.385 0 78.181 1.318 89.651 3.955 6.988 0.923 11.206-1.978 12.525-8.57s-1.055-10.811-7.251-12.525c-13.184-2.637-44.826-3.955-94.925-3.955-6.988 0-10.547 3.56-10.547 10.547s3.56 10.547 10.547 10.547zM652.739-156.931c9.624 1.714 20.171 2.9 31.642 3.296s25.313 0.396 41.53 0 26.632-0.659 30.982-0.659c6.988 0 10.547-3.56 10.547-10.547s-3.56-10.547-10.547-10.547c-5.274 0-15.821 0.264-31.642 0.659s-29.005 0.396-39.552 0-20.699-1.582-30.323-3.296c-6.196-0.923-9.888 1.978-11.206 8.57s1.582 10.811 8.57 12.525zM880.822-167.478c14.107 1.714 29.268 3.296 45.485 4.614s34.938 2.241 56.032 2.637 36.52 0.659 46.144 0.659c6.988 0 10.547-3.56 10.547-10.547s-3.56-10.547-10.547-10.547c-9.624-0.923-24.786-1.318-45.485-1.318s-38.893-0.396-54.714-1.318-30.719-2.637-44.826-5.274c-6.988-0.923-10.943 2.241-11.866 9.229s2.241 10.943 9.229 11.866zM1145.82-168.796c29.928-4.351 70.271-1.714 121.293 7.91 6.196 0.923 9.888-1.978 11.206-8.57s-1.582-10.811-8.57-12.525c-52.736-9.624-94.925-12.261-126.566-7.91-6.988 0.923-10.152 4.878-9.229 11.866s4.878 10.152 11.866 9.229zM1358.082-137.155c0 45.748 3.56 83.059 10.547 112.064 1.714 6.988 6.196 9.624 13.184 7.91s9.624-6.196 7.91-13.184c-6.988-28.082-10.547-63.679-10.547-106.79 0-6.988-3.56-10.547-10.547-10.547s-10.547 3.56-10.547 10.547zM1358.082 110.704c-0.923 17.535-1.318 63.679-1.318 138.432 0 6.988 3.56 10.547 10.547 10.547s10.547-3.56 10.547-10.547c0-74.753 0.396-120.897 1.318-138.432 0-6.988-3.56-10.547-10.547-10.547s-10.547 3.56-10.547 10.547zM1383.132 367.792c0.923 12.261 1.318 34.278 1.318 65.92 0 28.082 0.923 50.495 2.637 67.238 0.923 6.988 4.878 10.152 11.866 9.229s10.152-4.878 9.229-11.866c-1.714-15.821-2.637-37.311-2.637-64.602 0-32.564-0.396-55.373-1.318-68.557-0.923-6.988-4.878-10.152-11.866-9.229s-10.152 4.878-9.229 11.866zM1383.132 615.651c2.637 6.988 4.614 14.898 5.933 23.731s1.978 16.216 1.978 22.413-0.264 15.162-0.659 27.027-0.659 20.435-0.659 25.709c0 6.988 3.56 10.547 10.547 10.547s10.547-3.56 10.547-10.547c0-4.351 0.264-12.525 0.659-24.39s0.659-21.358 0.659-28.346-0.659-15.557-1.978-25.709-3.296-19.512-5.933-28.346c-2.637-6.196-7.251-8.174-13.843-5.933s-8.965 6.856-7.251 13.843zM33.092 779.132c3.56-14.898 5.274-30.587 5.274-46.803s-1.055-35.201-3.296-56.691-3.296-36.256-3.296-44.166c0-6.988-3.56-10.547-10.547-10.547s-10.547 3.56-10.547 10.547c0 10.547 1.055 27.027 3.296 49.44s3.296 37.97 3.296 46.803-1.714 24.127-5.274 46.144c-1.714 6.988 0.923 11.47 7.91 13.184s11.47-0.923 13.184-7.91zM43.639 465.353v-109.427c0-6.988-3.56-10.547-10.547-10.547s-10.547 3.56-10.547 10.547v109.427c0 6.988 3.56 10.547 10.547 10.547s10.547-3.56 10.547-10.547zM33.092 192.445c2.637-22.017 3.955-40.87 3.955-56.691 0-6.988-3.56-10.547-10.547-10.547s-10.547 3.56-10.547 10.547c0 14.898-1.318 32.96-3.955 54.054-0.923 6.988 2.241 10.943 9.229 11.866s10.943-2.241 11.866-9.229zM29.137 7.869c-2.637-38.629-3.955-75.149-3.955-109.427 0-6.988-3.56-10.547-10.547-10.547s-10.547 3.56-10.547 10.547c0 34.278 1.318 71.589 3.955 112.064 0.923 6.988 4.878 10.152 11.866 9.229s10.152-4.878 9.229-11.866z" />
<glyph unicode="&#x6b;" glyph-name="a10609df-peaxwebdesigncircles714" horiz-adv-x="1058" d="M489.367 794.519c-97.873-26.693-170.5-61.505-217.991-104.547-5.895-5.895-11.678-5.783-17.239 0.556s-5.005 12.012 1.668 17.239c50.383 46.712 126.012 83.748 226.888 111.22 8.119 2.224 13.346-0.779 15.571-8.898s-0.779-13.346-8.898-15.571zM96.761 476.431c-17.795-38.593-31.364-71.737-40.595-99.542s-15.015-56.833-17.239-87.307c-0.779-8.119-5.227-11.901-13.346-11.122s-11.901 5.227-11.122 13.346c2.224 31.92 8.341 62.505 18.351 91.756s23.912 63.951 41.707 103.99c3.67 7.452 9.231 9.231 16.683 5.561s9.231-9.231 5.561-16.683zM54.498 59.357c16.349-60.837 44.822-104.88 85.639-132.351 6.673-4.449 7.785-10.010 3.337-16.683s-10.010-7.785-16.683-3.337c-45.934 30.363-78.187 78.966-96.761 145.698-2.224 8.119 0.779 13.346 8.898 15.571s13.346-0.667 15.571-8.898zM422.635-166.419c11.901-0.779 60.837-1.112 146.81-1.112 8.119 0 12.234-4.115 12.234-12.234s-4.115-12.234-12.234-12.234c-85.973 0-135.688 0.334-149.034 1.112-8.119 0.779-11.901 5.227-11.122 13.346s5.227 11.901 13.346 11.122zM840.821-88.566c26.693 17.795 51.94 40.818 75.629 68.956 24.468 28.917 43.376 57.834 56.722 86.751 3.67 7.452 9.231 9.231 16.683 5.561s9.231-9.231 5.561-16.683c-14.125-30.363-34.144-60.948-60.059-91.756s-53.052-55.054-81.19-72.849c-6.673-4.449-12.234-3.337-16.683 3.337s-3.337 12.234 3.337 16.683zM1033.231 339.63c0 69.735-8.898 130.127-26.693 181.288-3.003 8.119-0.556 13.569 7.229 16.127s12.79 0.222 15.015-7.229c19.241-54.164 28.917-117.559 28.917-190.186 0-8.119-4.115-12.234-12.234-12.234s-12.234 4.115-12.234 12.234zM841.933 721.114c-17.795 20.020-45.934 37.036-84.527 51.161-3.67 1.446-20.353 7.007-50.049 16.683-20.798 6.673-37.481 13.013-50.049 18.907-7.452 3.67-9.231 9.231-5.561 16.683s9.231 9.231 16.683 5.561c9.676-4.449 25.247-10.343 46.712-17.795 27.471-9.676 44.488-15.571 51.161-17.795 42.263-15.571 73.405-34.812 93.425-57.834 5.895-5.895 5.783-11.678-0.556-17.239s-12.012-5.005-17.239 1.668zM170.166 586.538c0-8.119-4.115-12.234-12.234-12.234s-12.234 4.115-12.234 12.234 4.115 12.234 12.234 12.234 12.234-4.004 12.234-12.234zM24.468 161.679c0-8.119-4.115-12.234-12.234-12.234s-12.234 4.115-12.234 12.234 4.115 12.234 12.234 12.234 12.234-4.004 12.234-12.234zM282.498-150.849c0-8.119-4.115-12.234-12.234-12.234s-12.234 4.115-12.234 12.234 4.115 12.234 12.234 12.234 12.234-4.004 12.234-12.234zM734.050-138.615c0-8.119-4.115-12.234-12.234-12.234s-12.234 4.115-12.234 12.234 4.115 12.234 12.234 12.234 12.234-4.004 12.234-12.234zM1039.904 170.576c0-8.119-4.115-12.234-12.234-12.234s-12.234 4.115-12.234 12.234 4.115 12.234 12.234 12.234 12.234-4.004 12.234-12.234zM956.49 627.689c0-8.119-4.115-12.234-12.234-12.234s-12.234 4.115-12.234 12.234 4.115 12.234 12.234 12.234 12.234-4.004 12.234-12.234z" />
<glyph unicode="&#x6c;" glyph-name="a39797nocleft-speech-bubble" horiz-adv-x="1272" d="M20.984 332.59c0-264.393 264.393-478.426 591.738-478.426 121.705 0 235.016 29.377 327.344 79.738 37.77 20.984 276.984-125.902 306.361-100.721 33.574 29.377-142.689 226.623-121.705 260.197 50.361 71.344 75.541 151.082 75.541 239.213 4.197 264.393-260.197 478.426-587.541 478.426s-591.738-214.033-591.738-478.426z" />
<glyph unicode="&#x6d;" horiz-adv-x="1065" d="M912.475 406.178l57.452 87.868-77.729 33.795c-23.657 6.759-33.795 30.416-30.416 50.693 0 3.38 0 3.38 3.38 3.38l43.934 121.663-131.802-70.97c-10.139-3.38-23.657-3.38-33.795 0s-16.898 13.518-20.277 23.657l-33.795 64.211-57.452-54.073c-16.898-13.518-37.175-13.518-54.073 0l-125.043 101.386-60.832-101.386c-10.139-20.277-33.795-27.036-54.073-16.898l-155.459 74.35 33.795-121.663c3.38-10.139 0-23.657-3.38-33.795-10.139-3.38-20.277-10.139-30.416-13.518l-57.452-10.139 27.036-47.314c13.518-16.898 10.139-43.934-10.139-57.452l-77.729-50.693 104.766-50.693c13.518-6.759 20.277-16.898 23.657-30.416s0-27.036-10.139-33.795l-47.314-67.591 67.591-10.139c23.657-3.38 40.554-23.657 37.175-47.314 0-6.759-3.38-10.139-3.38-16.898l-141.941-253.465 260.224 182.495c20.277 13.518 43.934 10.139 57.452-10.139 3.38-3.38 3.38-6.759 3.38-6.759v-3.38l16.898-54.073 125.043 77.729c13.518 10.139 33.795 10.139 47.314 0l98.007-60.832 13.518 57.452c3.38 23.657 27.036 37.175 47.314 33.795 3.38 0 6.759 0 6.759-3.38l141.941-54.073-47.314 131.802c-3.38 10.139-3.38 23.657 0 33.795 6.759 10.139 13.518 20.277 27.036 23.657l111.525 33.795-91.248 91.248c-13.518 13.518-13.518 37.175 0 54.073z" />
<glyph unicode="&#x6e;" horiz-adv-x="1065" d="M1054.416 284.515l-98.007 98.007 60.832 98.007c10.139 20.277 3.38 43.934-13.518 54.073-3.38 0-6.759 3.38-10.139 3.38l-81.109 37.175 50.693 135.182c6.759 16.898 3.38 33.795-10.139 43.934-13.518 13.518-30.416 16.898-47.314 10.139l-141.941-77.729-37.175 70.97c-3.38 10.139-13.518 20.277-23.657 23.657-13.518 3.38-27.036 0-40.554-10.139l-60.832-57.452-128.422 104.766c-10.139 10.139-23.657 13.518-33.795 10.139-13.518-3.38-23.657-10.139-27.036-20.277l-60.832-104.766-168.977 81.109c-13.518 6.759-33.795 3.38-43.934-6.759s-16.898-27.036-13.518-43.934l37.175-131.802-60.832-10.139c-23.657-3.38-37.175-27.036-33.795-47.314 0-6.759 3.38-13.518 6.759-16.898l27.036-50.693-84.488-54.073c-13.518-10.139-20.277-23.657-16.898-37.175 0-13.518 10.139-27.036 23.657-33.795l108.145-54.073-50.693-74.35c-10.139-10.139-13.518-23.657-6.759-37.175s20.277-23.657 33.795-27.036l70.97-13.518-155.459-277.122c-10.139-16.898-6.759-37.175 6.759-50.693 6.759-6.759 16.898-10.139 27.036-10.139 6.759 0 16.898 3.38 23.657 6.759l283.881 196.013 16.898-54.073v-3.38c3.38-13.518 13.518-20.277 27.036-23.657s23.657 0 33.795 6.759l131.802 81.109 104.766-64.211c13.518-6.759 27.036-10.139 40.554-3.38s20.277 16.898 23.657 30.416l13.518 57.452 152.079-57.452c10.139-20.277 33.795-30.416 54.073-23.657 20.277 10.139 30.416 33.795 23.657 54.073-3.38 10.139-13.518 20.277-23.657 23.657l-47.314 148.7 114.904 33.795c13.518 3.38 23.657 13.518 30.416 27.036 3.38 13.518 3.38 27.036-6.759 40.554zM892.198 227.063c-13.518-3.38-20.277-10.139-27.036-23.657-6.759-10.139-6.759-23.657 0-33.795l47.314-131.802-141.941 54.073c-20.277 6.759-43.934-3.38-54.073-23.657 0-3.38-3.38-6.759-3.38-6.759l-13.518-57.452-98.007 60.832c-13.518 10.139-33.795 10.139-47.314 0l-125.043-77.729-13.518 54.073v3.38c-10.139 20.277-33.795 30.416-54.073 23.657-3.38 0-6.759-3.38-6.759-3.38l-263.604-185.875 141.941 253.465c6.759 13.518 6.759 27.036 0 40.554s-16.898 20.277-30.416 20.277l-70.97 13.518 47.314 67.591c6.759 10.139 13.518 23.657 10.139 33.795-3.38 13.518-10.139 23.657-23.657 30.416l-104.766 50.693 77.729 50.693c20.277 13.518 23.657 37.175 10.139 57.452l-23.657 47.314 57.452 10.139c23.657 3.38 37.175 27.036 33.795 47.314 0 3.38 0 3.38 0 3.38l-33.795 121.663 155.459-74.35c20.277-10.139 43.934 0 54.073 16.898l60.832 101.386 125.043-101.386c16.898-13.518 37.175-13.518 54.073 0l57.452 54.073 33.795-64.211c3.38-10.139 10.139-16.898 20.277-23.657 10.139-3.38 23.657-6.759 33.795 0l131.802 70.97-43.934-121.663c-10.139-20.277 0-43.934 23.657-54.073 0 0 3.38 0 3.38-3.38l77.729-33.795-57.452-87.868c-13.518-16.898-10.139-40.554 0-54.073l91.248-91.248z" />
<glyph unicode="&#x6f;" horiz-adv-x="1120" d="M127.557-60.9c14.173 3.543 21.26 14.173 42.519 10.63 7.087 0 10.63-3.543 17.716-7.087s14.173-3.543 17.716-3.543 7.087-7.087 14.173-10.63c7.087-7.087 14.173-10.63 17.716-17.716 0-3.543 3.543-7.087 3.543-7.087 7.087-10.63 10.63-17.716 7.087-35.433 0-3.543 0-7.087-3.543-10.63h-3.543v-7.087c0-3.543-3.543-3.543-3.543-7.087-3.543-7.087-7.087-10.63-14.173-17.716-3.543-3.543-7.087-7.087-10.63-7.087-3.543-3.543-7.087-3.543-14.173-7.087-7.087 0-17.716-3.543-24.803-3.543-3.543 0-10.63 0-17.716 3.543-14.173 3.543-17.716 3.543-28.346 10.63 0 0-3.543 3.543-3.543 3.543-3.543 3.543-3.543 3.543-7.087 7.087h-3.543c-3.543 10.63-14.173 24.803-14.173 35.433 0 14.173 0 28.346 7.087 38.976 0 0 0 3.543 3.543 3.543h3.543c3.543 3.543 7.087 14.173 10.63 17.716h3.543c-3.543 3.543-3.543 7.087 0 10.63z" />
<glyph unicode="&#x70;" horiz-adv-x="1120" d="M315.349-128.221c-7.087-3.543-10.63-7.087-17.716-10.63-14.173-7.087-28.346-7.087-46.062-7.087-28.346 0-60.235 7.087-81.495 24.803-38.976 28.346-53.149 85.038-35.433 131.1 24.803 60.235 88.581 77.952 145.273 56.692 81.495-28.346 113.384-148.817 35.433-194.879z" />
<glyph unicode="&#x71;" horiz-adv-x="1120" d="M995.654 676.097c31.889-35.433 56.692-81.495 60.235-124.014 0-10.63-3.543-24.803 0-38.976 3.543-7.087 7.087-10.63 10.63-17.716s10.63-10.63 14.173-17.716c17.716-24.803 35.433-56.692 38.976-85.038 3.543-17.716 0-35.433 0-49.606 0-38.976-17.716-74.408-42.519-106.298-10.63-14.173-24.803-28.346-42.519-38.976-7.087-7.087-31.889-17.716-35.433-28.346-3.543-7.087-3.543-10.63-3.543-17.716s-3.543-10.63-3.543-17.716c0-31.889-14.173-53.149-35.433-74.408-17.716-24.803-49.606-42.519-77.952-49.606-14.173-3.543-42.519-3.543-67.322-3.543-21.26 0-42.519 0-60.235 3.543-10.63 3.543-24.803 10.63-38.976 10.63-14.173-3.543-21.26-14.173-31.889-21.26-17.716-10.63-42.519-21.26-63.779-28.346-14.173-3.543-31.889-3.543-49.606-3.543-21.26 0-46.062 0-67.322 7.087-17.716 3.543-28.346 14.173-46.062 17.716-21.26 7.087-31.889-3.543-49.606-10.63-7.087-3.543-17.716-3.543-28.346-3.543-70.865-10.63-155.903 14.173-184.249 88.581 0 0 0 3.543 0 7.087-10.63 21.26-46.062 21.26-63.779 31.889s-31.889 28.346-42.519 46.062c-17.716 31.889 3.543 67.322-31.889 95.668-7.087 3.543-10.63 10.63-14.173 14.173-46.062 56.692-49.606 141.73-24.803 205.509 10.63 24.803 24.803 46.062 46.062 63.779 0 0 3.543 3.543 3.543 7.087 3.543 7.087 7.087 14.173 10.63 24.803 7.087 35.433 14.173 74.408 38.976 102.754 10.63 14.173 28.346 28.346 46.062 38.976 7.087 3.543 14.173 10.63 24.803 14.173s21.26 7.087 31.889 7.087 42.519 3.543 53.149 10.63c7.087 7.087 14.173 14.173 17.716 21.26 14.173 28.346 49.606 42.519 74.408 56.692 28.346 17.716 67.322 21.26 102.754 17.716 21.26-3.543 42.519-17.716 63.779-24.803 24.803-7.087 42.519 3.543 63.779 10.63 31.889 10.63 63.779 14.173 95.668 14.173 53.149-3.543 109.841-31.889 148.817-67.322 21.26-17.716 21.26-31.889 49.606-35.433 14.173 0 24.803 0 35.433-3.543 7.087 0 14.173-3.543 17.716-7.087 21.26-10.63 38.976-24.803 56.692-42.519z" />
<glyph unicode="&#x72;" horiz-adv-x="1120" d="M644.872 768.221c35.433 3.543 70.865-7.087 102.754-24.803 35.433-17.716 49.606-49.606 77.952-77.952 3.543-3.543 10.63-3.543 17.716-3.543h21.26c28.346 0 56.692-10.63 77.952-28.346 10.63-10.63 17.716-21.26 28.346-31.889 21.26-24.803 31.889-63.779 28.346-95.668 0-7.087-3.543-10.63 0-17.716 0-10.63 17.716-10.63 21.26-17.716 7.087-7.087 14.173-17.716 17.716-24.803 21.26-35.433 31.889-81.495 24.803-124.014-3.543-21.26-10.63-42.519-24.803-56.692-10.63-14.173-24.803-21.26-38.976-31.889-3.543-3.543-10.63-10.63-14.173-10.63s-7.087 7.087-10.63 7.087c-3.543 3.543-10.63 3.543-17.716 0-3.543-3.543-3.543-7.087-3.543-14.173s0-17.716-3.543-24.803c0-7.087-3.543-10.63-3.543-17.716s0-10.63-3.543-17.716c-21.26-60.235-74.408-102.754-138.187-92.125-17.716 3.543-35.433 3.543-53.149 10.63-7.087 3.543-7.087 10.63-7.087 17.716s-7.087 14.173-14.173 10.63-10.63-14.173-14.173-17.716-10.63-7.087-14.173-14.173c-3.543-3.543-10.63-7.087-14.173-10.63-10.63-7.087-21.26-14.173-31.889-17.716-35.433-17.716-77.952-24.803-116.927-17.716-10.63 3.543-24.803 3.543-31.889 10.63-7.087 3.543-10.63 7.087-10.63 17.716 0 3.543 3.543 14.173 0 17.716-7.087 7.087-17.716 3.543-21.26 0-10.63-10.63-24.803-17.716-38.976-21.26-10.63-3.543-24.803-7.087-35.433-7.087-38.976-7.087-81.495-3.543-113.384 21.26-24.803 17.716-46.062 42.519-53.149 70.865-3.543 10.63-3.543 38.976-21.26 28.346-3.543-3.543-7.087-7.087-10.63-10.63-3.543 0-7.087 0-10.63 0-7.087 0-14.173 3.543-21.26 7.087-53.149 24.803-28.346 77.952-28.346 120.471 0 10.63-3.543 17.716-14.173 14.173-3.543-3.543-10.63-10.63-14.173-10.63s-10.63 10.63-14.173 10.63-17.716 21.26-24.803 31.889c-21.26 38.976-21.26 92.125-7.087 131.1 10.63 24.803 35.433 49.606 56.692 67.322 3.543 3.543 10.63 3.543 14.173 10.63 7.087 0 7.087 3.543 3.543 7.087s-10.63 0-10.63 3.543 0 7.087 0 10.63c0 10.63 3.543 17.716 3.543 28.346 7.087 28.346 28.346 53.149 49.606 70.865 17.716 14.173 35.433 21.26 56.692 24.803 24.803 3.543 56.692-7.087 70.865 14.173s28.346 35.433 49.606 49.606 46.062 21.26 74.408 21.26c38.976 0 70.865-10.63 102.754-28.346 17.716-7.087 24.803 3.543 35.433 14.173 24.803 10.63 46.062 14.173 70.865 17.716zM290.547-67.986c-21.26-17.716-60.235-21.26-85.038-3.543-10.63 7.087-17.716 24.803-17.716 35.433-3.543 14.173 3.543 28.346 14.173 38.976 3.543 3.543 7.087 7.087 10.63 7.087 24.803 10.63 60.235 3.543 81.495-17.716 21.26-24.803 17.716-49.606-3.543-63.779zM162.99-99.875c35.433 10.63 56.692-42.519 17.716-53.149-17.716-3.543-28.346 7.087-35.433 21.26-3.543 14.173 3.543 28.346 17.716 31.889z" />
<glyph unicode="&#x73;" horiz-adv-x="1082" d="M90.329 744.085s903.896 2.615 901.281 2.615-2.615-556.058-2.615-556.058h-380.831l-63.572-297.141-88.921 294.526-365.542-5.029z" />
<glyph unicode="&#x74;" horiz-adv-x="1082" d="M67.596 770.238s903.896 2.615 901.281 2.615-2.615-556.058-2.615-556.058h-380.831l-63.572-297.141-88.921 294.526-365.542-5.029z" />
<glyph unicode="&#x75;" horiz-adv-x="1187" d="M237.126 746.701l702.827-5.005c43.379-0.417 116.999-11.47 132.64-72.577 18.144-80.293 24.192-442.134-5.005-497.61-21.481-44.839-41.294-59.855-62.566-72.577-62.775-30.032-355.167-25.026-355.167-25.026l-45.048-179.982-87.593 182.485h-302.612c-42.545 0-81.336 26.695-95.101 85.090-23.984 105.945-28.572 402.926-5.005 472.583 22.315 63.609 59.855 113.036 122.63 112.619z" />
<glyph unicode="&#x76;" horiz-adv-x="1187" d="M210.222 777.15l702.827-5.005c43.379-0.209 116.999-11.47 132.64-72.577 18.144-80.293 24.192-442.134-5.005-497.61-21.481-44.839-41.294-59.855-62.566-72.577-62.775-30.032-355.167-25.026-355.167-25.026l-45.048-179.982-87.593 182.485h-302.612c-42.545 0-81.336 26.695-95.101 85.090-23.984 105.945-28.572 402.926-5.005 472.583 22.315 63.609 59.855 113.036 122.63 112.619z" />
<glyph unicode="&#x78;" horiz-adv-x="1147" d="M229.191 746.734l679.307-4.838c41.928-0.403 113.083-11.087 128.202-70.148 17.537-77.606 23.383-427.137-4.838-480.957-20.762-43.339-39.912-57.852-60.472-70.148-60.674-29.027-343.282-24.189-343.282-24.189l-360.214-202.986 232.013 205.405h-292.485c-41.121 0-78.614 25.802-91.918 82.243-23.181 102.4-27.616 389.443-4.838 456.769 21.569 61.48 57.852 109.254 118.526 108.85z" />
<glyph unicode="&#x79;" glyph-name="a45863opesrd_comic_clouds_8" horiz-adv-x="1078" d="M405.61 819.81c-47.654-2.216-98.632-37.126-119.134-99.74-45.991 63.723-153.489 2.771-115.81-74.805-162.355 46.545-271.515-263.758 40.45-247.688-198.926-169.558 136.312-320.277 275.948-156.814 8.866-106.944 146.286-120.242 191.169-24.935 44.329-86.442 182.303-75.913 197.264 59.29 59.29-70.372 165.68 19.394 116.364 88.104 77.576-7.758 115.255 104.727 12.19 128 74.805 83.117-49.316 181.195-128.554 113.039 43.221 113.593-67.602 197.264-172.329 115.81 23.273 97.524-126.338 151.827-200.589 28.26-16.623 50.424-55.965 73.143-96.97 71.481zM376.242 130.494c-11.082-0.554-22.165-2.216-32.693-4.987-45.437-13.299-66.494-49.316-46.545-80.346 19.394-30.476 72.035-44.883 117.472-31.584s66.494 49.316 46.545 79.792c-14.961 23.827-49.316 37.68-84.779 37.126zM462.13-35.186c-7.203-0.554-13.853-1.662-20.502-3.879h-0.554c-32.693-9.974-48.208-36.017-33.801-59.29 14.407-22.719 52.641-33.247 85.887-23.273s48.208 36.571 34.355 59.29c-11.636 18.286-38.234 28.814-65.385 27.152zM580.156-142.684c-3.879 0-7.758-0.554-11.082-1.108l-0.554-0.554c-14.961-3.879-22.165-14.961-15.515-24.381 6.649-9.974 24.381-14.407 39.896-9.974 15.515 3.879 22.165 14.961 15.515 24.381-4.987 7.758-16.069 12.19-28.26 11.636z" />
<glyph unicode="&#x7a;" horiz-adv-x="1147" d="M203.187 769.713l679.307-4.838c41.928-0.202 113.083-11.087 128.202-70.148 17.537-77.606 23.383-427.339-4.838-480.957-20.762-43.339-39.912-57.852-60.472-70.148-60.674-29.027-343.282-24.189-343.282-24.189l-360.214-202.986 232.013 205.405h-292.485c-41.121 0-78.614 25.802-91.918 82.243-23.181 102.4-27.616 389.443-4.838 456.769 21.569 61.48 57.852 109.254 118.526 108.85z" />
</font>
</defs>
</svg>
