<?xml version="1.0" standalone="no"?>
<!DOCTYPE svg PUBLIC "-//W3C//DTD SVG 1.1//EN" "http://www.w3.org/Graphics/SVG/1.1/DTD/svg11.dtd" >
<svg xmlns="http://www.w3.org/2000/svg" xmlns:xlink="http://www.w3.org/1999/xlink" version="1.1">
<metadata></metadata>
<defs>
<font id="janda_manatee_solidregular" horiz-adv-x="1494" >
<font-face units-per-em="2048" ascent="1638" descent="-410" />
<missing-glyph horiz-adv-x="800" />
<glyph horiz-adv-x="0" />
<glyph unicode="&#xd;" horiz-adv-x="800" />
<glyph unicode=" "  horiz-adv-x="800" />
<glyph unicode="&#x09;" horiz-adv-x="800" />
<glyph unicode="&#xa0;" horiz-adv-x="800" />
<glyph unicode="!" horiz-adv-x="544" d="M98 488l6 1094q12 38 69 58t124 21t126 -17t77 -58l-16 -1078q-42 -34 -93 -52t-102 -19t-101 12t-90 39zM104 160q-2 50 18 94t62 74t108 32q68 0 111 -28t63 -71t18 -94t-25 -95t-66 -74t-105 -32q-58 0 -98 29t-62 72t-24 93z" />
<glyph unicode="&#x22;" horiz-adv-x="1196" d="M82 1370q18 82 61 142t98 93t115 37t112 -26t84 -75t44 -94t5 -97t-36 -82t-78 -48t-119 4q-12 -50 5 -91t44 -72t55 -50t36 -23q-84 -42 -166 -24t-144 76t-95 146t-21 184zM638 1326q18 82 61 142t98 93t115 37t112 -26t84 -75t44 -94t5 -97t-36 -82t-78 -48t-119 4 q-12 -50 5 -91t44 -72t55 -50t36 -23q-84 -42 -166 -24t-144 76t-95 146t-21 184z" />
<glyph unicode="#" horiz-adv-x="1680" d="M112 628q-4 46 9 91t51 77l296 -10v192l-284 10q-18 24 -33 70t-19 97t9 101t51 82l276 -10v248q8 38 52 55t96 17t100 -19t64 -53v-258l156 -4v262q8 38 54 55t101 17t104 -19t65 -53v-272l296 -10q38 -10 54 -60t15 -109t-21 -113t-54 -68l-290 10v-192l276 -10 q38 -10 54 -55t15 -100t-21 -104t-54 -63l-270 10v-288q-24 -18 -65 -35t-87 -21t-92 8t-80 48v298l-156 4v-302q-24 -18 -63 -35t-83 -21t-88 8t-78 48v312l-304 10q-18 24 -33 66t-19 88zM780 776l156 -4v192l-156 4v-192z" />
<glyph unicode="$" horiz-adv-x="1228" d="M34 1130q0 78 34 149t95 129t147 101t188 63l8 202q6 44 43 66t83 23t92 -19t70 -60l-8 -204q20 -2 61 -9t86 -14t86 -15t61 -14q50 -32 65 -86t5 -105t-37 -84t-59 -21q-16 6 -55 14t-82 15t-83 13t-58 6l-14 -358q36 -14 68 -27t60 -23q134 -62 207 -142t95 -166 t-3 -172t-88 -160t-159 -129t-216 -79l-6 -166q-26 -24 -58 -44t-68 -26t-77 6t-85 54l6 170q-56 8 -113 22t-115 38q-68 72 -97 136t-30 115t24 87t65 52q32 -44 72 -69t79 -39t73 -18t54 -6l16 390q-72 24 -148 58t-139 82t-104 113t-41 151zM400 1112q8 -16 29 -34 t49 -34l8 186q-52 -24 -77 -54t-9 -64zM738 336q42 14 70 37t34 56t-16 75t-78 94z" />
<glyph unicode="%" horiz-adv-x="1404" d="M32 80l1020 1532q48 30 100 30t96 -22t75 -64t35 -98l-974 -1458q-48 -32 -99 -40t-98 4t-88 42t-67 74zM56 1236q0 90 36 156t92 106t124 54t134 -2t120 -62t82 -124q38 -108 10 -190t-94 -133t-153 -69t-165 4t-132 85t-54 175zM280 1244q0 -46 21 -67t47 -20t47 23 t21 64q0 38 -21 59t-47 21t-47 -20t-21 -60zM803 292q3 82 39 151t106 111t176 34q88 -6 143 -57t78 -122t15 -153t-46 -149t-106 -110t-164 -37q-82 4 -137 55t-81 123t-23 154zM1008 274q-4 -34 14 -62t62 -28q18 0 36 28t24 62t-4 62t-46 28t-59 -28t-27 -62z" />
<glyph unicode="&#x26;" horiz-adv-x="1376" d="M22 350q6 82 44 171t96 176t130 168t144 147q-72 110 -81 224t34 207t133 153t214 60q116 0 182 -67t77 -169t-36 -223t-159 -227l144 -262l210 244q26 18 61 2t64 -52t42 -85t-1 -97l-220 -288l216 -350q-4 -56 -41 -86t-82 -42t-86 -8t-53 18l-160 270 q-78 -96 -176 -157t-199 -87t-196 -16t-166 54t-109 125t-26 197zM375 407q-5 -51 19 -69q32 -24 73 -19t86 29t88 62t79 82l-148 268q-52 -48 -96 -112t-70 -127t-31 -114zM633 1295q-5 -45 4 -83t31 -40q26 -2 44 34t26 80t2 82t-30 40q-36 2 -54 -33t-23 -80z" />
<glyph unicode="'" horiz-adv-x="724" d="M123 1350q-7 48 5 97t44 94t84 75t112 26t115 -37t98 -93t61 -142q12 -96 -21 -184t-95 -146t-144 -76t-166 24q8 4 36 23t55 50t44 72t5 91q-70 -18 -119 -4t-78 48t-36 82z" />
<glyph unicode="(" horiz-adv-x="1014" d="M58 794q8 152 77 310t178 290t248 221t287 105q42 -4 67 -44t34 -92t3 -104t-26 -78q-10 0 -47 -17t-86 -49t-106 -80t-106 -112t-86 -145t-47 -177q-10 -92 34 -197t114 -201t155 -172t159 -110q26 -116 15 -180t-37 -96t-58 -41t-46 -15h-6q-126 56 -258 160t-237 237 t-169 285t-56 302z" />
<glyph unicode=")" horiz-adv-x="956" d="M30 1534q-6 52 3 104t34 92t67 44q148 -16 287 -105t248 -221t178 -290t77 -310q8 -150 -56 -302t-169 -285t-237 -237t-258 -160h-6q-16 6 -47 15t-57 41t-37 96t15 180q74 34 159 110t155 172t114 201t34 197q-10 96 -47 177t-86 145t-106 112t-106 80t-86 49t-47 17 q-20 26 -26 78z" />
<glyph unicode="*" horiz-adv-x="1198" d="M109 910q-1 48 17 91t58 73h132l-86 156q18 52 52 93t76 65t88 28t92 -16l86 -156l88 158q14 8 61 6t99 -20t95 -56t53 -100l-88 -160h162q14 -10 35 -51t30 -95t-3 -111t-62 -95h-182l96 -172q0 -16 -27 -54t-70 -73t-98 -52t-113 9l-76 138l-66 -120q-54 -12 -107 -5 t-95 30t-71 60t-35 85l86 156h-152q-36 42 -55 91t-20 97z" />
<glyph unicode="+" horiz-adv-x="1196" d="M110 852q0 80 90 188h234v292q26 40 77 66t104 29t95 -19t52 -76v-292h244q44 -26 65 -70t19 -90t-25 -88t-65 -64h-238v-336q-14 -44 -45 -64t-69 -25t-79 3t-73 23t-50 32t-12 31v336h-234q-90 44 -90 124z" />
<glyph unicode="," horiz-adv-x="496" d="M45 110q-9 56 18 118t91 98q42 24 91 21t93 -30t79 -76t51 -115q10 -78 -17 -150t-78 -119t-117 -62t-134 19q6 4 28 19t44 41t36 59t4 73q-86 -22 -133 13t-56 91z" />
<glyph unicode="-" horiz-adv-x="844" d="M88 530q4 44 16 82t33 63t47 25l518 8q42 -12 60 -65t15 -113t-22 -111t-49 -61l-516 -6q-40 2 -63 29t-33 66t-6 83z" />
<glyph unicode="." horiz-adv-x="510" d="M77 179q-1 47 19 88t62 71t106 36q64 0 106 -28t62 -69t18 -89t-23 -90t-62 -70t-101 -30q-62 0 -103 27t-62 67t-22 87z" />
<glyph unicode="/" horiz-adv-x="1400" d="M32 80l1020 1532q48 30 100 30t96 -22t75 -64t35 -98l-974 -1458q-48 -32 -99 -40t-98 4t-88 42t-67 74z" />
<glyph unicode="0" horiz-adv-x="1116" d="M35 874q13 154 57 298t116 252t171 167t221 45q132 -16 226 -97t154 -203t85 -271t16 -301t-50 -295t-114 -252t-176 -170t-237 -51q-136 14 -231 95t-152 204t-78 274t-8 305zM392 844q-4 -92 10 -174t47 -141t87 -69q44 10 71 68t39 140t10 174t-15 170t-35 128t-50 48 q-48 2 -84 -47t-56 -127t-24 -170z" />
<glyph unicode="1" horiz-adv-x="1056" d="M40 220q2 50 12 93t26 74t38 37l256 4l8 760l-162 -64q-28 -22 -58 11t-51 91t-28 126t9 116l290 180h358l-4 -1220l248 2q28 -26 43 -86t14 -127t-18 -126t-51 -83l-870 -2q-22 8 -36 41t-20 78t-4 95z" />
<glyph unicode="2" horiz-adv-x="1084" d="M35 220q1 108 65 182q138 98 254 220t199 239t126 212t35 137q-22 36 -59 39t-78 -15t-85 -52t-81 -74t-66 -80t-39 -70q-28 -34 -66 -25t-73 44t-60 88t-23 109q26 128 110 227t194 158t232 72t223 -28t166 -142t61 -271q-20 -130 -66 -247t-112 -217t-146 -181 t-166 -141l454 24q14 -40 23 -93t9 -110t-13 -113t-43 -104l-934 -4q-42 108 -41 216z" />
<glyph unicode="3" horiz-adv-x="1128" d="M40 448q2 28 25 60t54 59t66 45t61 20q32 -80 110 -128t160 -55t147 30t73 127q6 54 -15 118t-67 107t-113 53t-153 -40q-62 8 -99 38t-52 68t-10 77t27 67l230 190h-378q-32 38 -48 85t-11 95t33 93t84 79h726q10 -16 23 -50t16 -79t-9 -96t-52 -103l-126 -184 q74 -20 138 -69t111 -117t74 -150t27 -168q6 -168 -60 -294t-171 -203t-234 -99t-248 15t-212 137t-127 272z" />
<glyph unicode="4" horiz-adv-x="1076" d="M42 778l4 778q-2 18 21 33t58 26t78 15t81 -2t67 -24t37 -50q0 -34 -1 -90t-1 -115t-1 -115t-1 -90l172 2l4 406q22 30 71 54t104 30t105 -12t76 -70v-410l98 4q24 -18 34 -74t9 -117t-15 -112t-40 -63q-16 0 -24 -1t-15 -1t-15 -1t-26 -1l2 -698q-24 -36 -72 -55 t-101 -22t-103 9t-78 38l-16 720z" />
<glyph unicode="5" horiz-adv-x="1060" d="M36 504q-18 56 8 102t70 70t93 22t79 -44q12 -88 62 -153t110 -87t115 10t77 142q-4 102 -66 163t-152 97t-192 55t-184 37l-4 700l870 10q28 -24 45 -76t22 -109t-4 -108t-31 -71l-480 -8l-2 -130q80 -18 180 -60t186 -108t145 -154t59 -194q0 -178 -67 -306t-171 -202 t-227 -90t-235 32t-196 161t-110 299z" />
<glyph unicode="6" horiz-adv-x="1108" d="M58 444q-14 146 0 292t54 280t104 249t153 199t200 131t243 45q14 -12 42 -37t50 -62t28 -88t-24 -113q-106 -2 -195 -58t-152 -133t-96 -156t-27 -125q124 106 230 135t188 2t139 -98t83 -167t17 -204t-58 -208t-140 -181t-231 -123q-114 -18 -217 1t-185 71t-136 140 t-70 208zM517 535q-21 -55 1 -119q32 -38 79 -30t86 46t57 94t-8 114q-26 30 -71 23t-84 -40t-60 -88z" />
<glyph unicode="7" horiz-adv-x="1148" d="M28 1412q-2 60 27 120t103 88l958 -4l-440 -1564q-118 -76 -233 -73t-231 69l380 1184l-476 20q-36 4 -61 52t-27 108z" />
<glyph unicode="8" horiz-adv-x="1220" d="M18 508q2 98 55 196t173 184q-76 68 -109 151t-31 169t36 165t92 141t135 97t169 31q100 -4 184 -46t146 -105t98 -138t41 -149t-24 -137t-97 -99q150 -54 224 -147t85 -202t-34 -220t-130 -200t-206 -144t-261 -51q-110 2 -210 45t-175 112t-119 159t-42 188zM417 1214 q-3 -38 10 -69t43 -51t80 -18q28 -4 52 17t39 55t22 75t-2 76t-33 58t-68 23q-44 -8 -75 -34t-48 -60t-20 -72zM439 553q-9 -47 5 -86t55 -63t117 -20q44 0 76 23t49 59t20 79t-11 83t-46 70t-84 42q-44 -2 -82 -30t-64 -69t-35 -88z" />
<glyph unicode="9" horiz-adv-x="1068" d="M33 1121q11 107 65 199t142 163t196 113q86 32 166 29t149 -37t123 -96t88 -148q14 -48 26 -96t20 -112t11 -153t-2 -217t-18 -305t-37 -417q2 -20 -48 -39t-119 -24t-137 12t-102 67l38 638q-78 -30 -158 -33t-151 21t-129 77t-90 137q-44 114 -33 221zM346 1121 q-4 -41 9 -74t46 -54t87 -17q38 6 66 34t44 65t19 79t-9 75t-41 52t-75 13q-42 -4 -73 -31t-50 -64t-23 -78z" />
<glyph unicode=":" horiz-adv-x="556" d="M105 493q-1 47 19 88t62 71t106 36q64 -2 106 -29t62 -68t18 -89t-23 -90t-62 -70t-101 -30q-62 0 -103 27t-62 67t-22 87zM109 1003q-1 47 19 88t62 71t106 36q64 -2 106 -29t62 -68t18 -89t-23 -90t-62 -70t-101 -30q-62 0 -103 27t-62 67t-22 87z" />
<glyph unicode=";" horiz-adv-x="604" d="M127 124q-9 56 18 118t91 98q42 24 91 21t93 -30t79 -76t51 -115q10 -78 -17 -150t-78 -119t-117 -62t-134 19q6 4 28 19t44 41t36 59t4 73q-86 -22 -133 13t-56 91zM137 653q-1 47 19 88t62 71t106 36q64 -2 106 -29t62 -68t18 -89t-23 -90t-62 -70t-101 -30 q-62 0 -103 27t-62 67t-22 87z" />
<glyph unicode="&#x3c;" horiz-adv-x="1112" d="M76 692l16 332l736 340q26 -2 63 -41t65 -91t40 -104t-10 -80l-446 -196l418 -208q8 -28 7 -86t-19 -116t-54 -103t-96 -47z" />
<glyph unicode="=" horiz-adv-x="1024" d="M93 508q-1 48 17 91t58 73h730q14 -10 35 -51t30 -95t-3 -111t-62 -95h-730q-36 42 -55 91t-20 97zM93 972q-1 48 17 91t58 73h730q14 -10 35 -51t30 -95t-3 -111t-62 -95h-730q-36 42 -55 91t-20 97z" />
<glyph unicode="&#x3e;" horiz-adv-x="1128" d="M124 1128q12 52 40 104t64 91t64 41l736 -340l16 -332l-720 -400q-40 2 -69 23t-49 54t-31 73t-16 79t-4 72t7 51l418 208l-446 196q-22 28 -10 80z" />
<glyph unicode="?" horiz-adv-x="1104" d="M66 1234q32 162 117 260t194 138t228 24t217 -82t162 -180t64 -270q0 -106 -39 -186t-103 -137t-144 -92t-160 -53l2 -148q-36 -30 -85 -43t-102 -12t-103 17t-86 46l-4 416q54 0 124 -1t135 14t116 58t69 133q-28 86 -83 116t-111 17t-102 -63t-56 -122q-30 -42 -79 -44 t-93 22t-70 70t-8 102zM209 165q-1 47 19 88t62 71t106 36q64 0 106 -28t62 -69t18 -89t-23 -90t-62 -70t-101 -30q-62 0 -103 27t-62 67t-22 87z" />
<glyph unicode="@" horiz-adv-x="2100" d="M72 732q26 174 96 313t171 245t228 179t266 113t286 47t289 -17q134 -24 244 -89t191 -163t130 -226t59 -274q-4 -218 -72 -368t-171 -239t-224 -123t-230 -21t-189 68t-100 143q-94 -78 -175 -74t-142 57t-96 137t-35 164q0 104 40 197t102 159t139 96t151 8v46 q8 22 59 24t108 -10t104 -37t51 -57q-64 -226 -66 -352t32 -175t90 -34t109 72t89 145t30 184q-10 146 -58 232t-105 130t-108 58t-69 18q-110 28 -243 4t-254 -99t-210 -200t-113 -297q-20 -146 12 -262t99 -201t161 -140t200 -79t216 -18t208 42q44 -16 70 -65t28 -108 t-23 -116t-85 -91q-146 -48 -304 -34t-310 76t-286 167t-228 238t-140 288t-22 319zM886 618q0 -64 46 -81t114 27l-4 234q-20 8 -47 0t-51 -31t-41 -61t-17 -88z" />
<glyph unicode="A" d="M50 84l350 1404q22 52 73 84t115 47t135 15t133 -12t108 -35t60 -53l432 -1470q-72 -44 -136 -60q-57 -14 -110 -14h-13q-59 2 -116 18t-113 34l-86 602l-244 8l-60 -572q-26 -38 -77 -57t-110 -23q-21 -1 -43 -1q-38 0 -77 4q-61 7 -111 20t-81 30t-29 31zM650 972 l214 8q-24 150 -52 210q-23 50 -47 50q-5 0 -10 -2q-29 -12 -56 -84t-49 -182z" />
<glyph unicode="B" horiz-adv-x="1430" d="M50 1482q68 56 168 90t210 45q45 4 90 4q66 0 132 -9q112 -16 204 -59t157 -116t81 -179q0 -36 -4 -79t-15 -86t-30 -81t-47 -64q66 0 145 -26t143 -85t99 -156q21 -58 21 -130q0 -50 -10 -107q-18 -114 -103 -201t-208 -147t-269 -93t-287 -40q-38 -2 -75 -2 q-99 0 -189 14q-123 19 -197 63zM400 714l6 -354q90 -38 182 -38t167 28t126 77t60 107q2 10 2 20q0 49 -36 101q-43 63 -153 117q-88 -40 -179 -50q-76 -8 -147 -8h-28zM400 1256l6 -218q50 4 105 6t101 15t77 41t35 86q-6 46 -46 75t-93 38q-24 4 -47 4q-29 0 -58 -6 q-52 -11 -80 -41z" />
<glyph unicode="C" horiz-adv-x="1366" d="M63 749q-1 26 -1 52q0 146 42 309q34 132 124 241t207 181t250 100q68 14 133 14q63 0 123 -13q123 -27 221 -117t146 -254q1 -8 1 -16q0 -43 -28 -82q-33 -46 -83 -74t-106 -33q-8 -1 -16 -1q-46 0 -78 26q-66 88 -128 124t-117 36t-103 -31t-87 -77t-66 -101t-39 -105 q-13 -49 -13 -102q0 -26 3 -53q10 -81 41 -150t82 -118t113 -58q12 -2 23 -2q51 0 108 32q69 39 141 147q10 38 42 59t74 27q18 3 37 3q25 0 51 -5q46 -8 86 -29t66 -54t28 -77q-80 -198 -186 -321t-223 -181q-111 -55 -226 -55h-12q-121 3 -230 58t-197 155t-141 238 t-62 307z" />
<glyph unicode="D" horiz-adv-x="1216" d="M52 1586q113 43 237 43h16q133 -3 263 -47t246 -124t203 -186t135 -235q41 -111 41 -231q0 -20 -1 -40q-10 -162 -69 -286t-151 -213t-207 -145t-237 -84t-241 -30h-21q-106 0 -196 18zM432 426q15 -1 29 -1q65 0 121 22q68 27 118 74t80 111t38 134q2 23 2 44 q0 121 -76 206q-90 100 -312 138v-728z" />
<glyph unicode="E" horiz-adv-x="1108" d="M38 28v1596l984 12q22 -18 34 -69q8 -34 8 -71q0 -18 -2 -37q-6 -57 -33 -107t-81 -64l-532 -8l20 -206l340 -10q20 -8 34 -47t17 -87q1 -13 1 -26q0 -35 -6 -68q-8 -46 -30 -70l-374 -12l8 -310l570 4q40 -54 50 -113q6 -33 6 -64q0 -25 -4 -49q-8 -54 -29 -100t-45 -76 z" />
<glyph unicode="F" horiz-adv-x="1030" d="M46 1632l822 2q62 -12 96 -64t39 -116q1 -10 1 -19q0 -54 -24 -107q-28 -62 -90 -98l-366 -6v-182l294 -4q64 -22 84 -72q16 -40 16 -83q0 -11 -1 -22q-5 -55 -26 -104t-35 -67l-332 -14l-8 -606q-10 -24 -44 -44t-80 -33t-98 -15h-15q-44 0 -83 10q-46 12 -80 39t-44 75 z" />
<glyph unicode="G" horiz-adv-x="1354" d="M45 832q3 140 36 275t97 244t159 182t225 91q54 8 106 8q31 0 60 -3q80 -7 147 -26t120 -49t87 -66q12 -14 17 -46q3 -20 3 -44q0 -14 -1 -29q-3 -41 -16 -83t-34 -74t-54 -48q-19 -9 -41 -9q-16 0 -34 5q-95 25 -167 25q-26 0 -49 -3q-88 -12 -144 -55t-85 -108 t-40 -134q-9 -54 -9 -105q0 -14 1 -28q3 -64 9 -108q14 -94 66 -156t120 -81q26 -7 53 -7q43 0 90 19q75 31 135 123l-142 -14q-8 -1 -15 -1q-44 0 -71 21q-32 24 -48 63t-17 86v9q0 42 8 81q9 43 25 75t38 42l634 -8l18 -830q-12 -28 -55 -45t-97 -21q-15 -1 -31 -1 q-38 0 -76 7q-53 10 -81 40v140q-154 -122 -286 -160q-80 -23 -150 -23q-46 0 -88 10q-106 25 -187 103t-134 191t-79 249q-23 122 -23 247v29z" />
<glyph unicode="H" horiz-adv-x="1250" d="M52 1540q8 30 43 51t86 32t110 11t111 -11t90 -32t50 -53l10 -608l192 -4l8 634q16 26 56 45t90 28q38 7 78 7q13 0 27 -1q55 -3 100 -17t74 -41q27 -25 27 -62v-5l-2 -1440q-34 -40 -103 -56q-61 -14 -126 -14h-16q-73 2 -135 17t-82 37l-6 516h-182l-20 -504 q-6 -8 -37 -20t-75 -23t-96 -18q-40 -5 -80 -5h-22q-50 2 -94 16t-70 44z" />
<glyph unicode="I" horiz-adv-x="1050" d="M33 1409q-4 24 -4 47q0 41 12 81q19 63 95 97l798 -4q30 -34 51 -78t25 -95q1 -10 1 -20q0 -42 -14 -87q-17 -56 -63 -114l-234 4l8 -782h266q10 -10 29 -62t27 -120q3 -26 3 -52q0 -43 -8 -86q-13 -70 -65 -118l-828 -2q-44 24 -64 65t-25 88q-2 20 -2 39q0 28 4 56 q7 48 19 88t24 66t16 30l222 10l2 776h-212q-18 8 -45 58t-38 115z" />
<glyph unicode="J" horiz-adv-x="998" d="M30 522q2 92 15 171t25 127q46 34 93 45q37 9 70 9q8 0 17 -1q40 -3 70 -16t40 -25q0 -36 -4 -86t-6 -102q-1 -26 -1 -51t1 -50q2 -49 12 -84t31 -52t59 -5q32 0 55 48t36 124t15 171v35q0 77 -7 154q-9 94 -29 179t-50 143l-184 -6q-20 2 -55 40t-54 94q-12 35 -12 74 q0 23 4 46q11 64 81 116l860 12q50 -10 74 -55q23 -43 23 -99q0 -62 -28 -123q-27 -59 -81 -95l-202 -10q4 -100 13 -232q7 -108 7 -221v-50q-2 -139 -21 -273t-71 -239t-146 -170t-244 -65q-128 0 -208 47t-125 123t-60 168q-13 81 -13 162v22z" />
<glyph unicode="K" horiz-adv-x="1198" d="M48 92l12 1448q30 48 82 73t109 30q16 1 32 1q41 0 83 -9q58 -13 100 -41l-16 -478l420 464q84 44 141 44t92 -24t52 -65t22 -82q3 -26 3 -48q0 -14 -1 -26q-3 -33 -9 -41l-498 -526l482 -570q1 -12 1 -24q0 -46 -19 -80q-24 -42 -64 -70t-89 -41t-92 -16q-14 -1 -27 -1 q-26 0 -48 4q-32 6 -36 18l-346 460l34 -454q-18 -10 -52 -22t-78 -20t-91 -9h-8q-42 0 -80 9q-41 10 -71 32t-40 64z" />
<glyph unicode="L" horiz-adv-x="1074" d="M54 1005v308v265q26 36 93 56t143 21h8q72 0 135 -18q67 -19 93 -59l-26 -1104l494 10q26 -30 40 -96q13 -62 13 -129v-10q-1 -73 -21 -136t-62 -85l-900 -24q-2 46 -4 148t-3 238t-2 296t-1 319z" />
<glyph unicode="M" horiz-adv-x="1488" d="M34 1558q42 52 101 73t121 23h15q53 0 101 -12q54 -14 86 -32l288 -678l216 656q18 28 56 43t85 20q29 3 60 3q18 0 37 -1q50 -3 91 -11t69 -21t30 -25l82 -1462q-48 -84 -116 -113q-66 -28 -130 -28h-4q-66 1 -118 24t-64 45q-2 0 -4 48t-3 119t-3 153t-3 153t-2 118 t-3 47t-14 -47t-28 -118t-35 -153t-35 -153t-28 -119t-14 -48q-34 -26 -72 -41q-11 -4 -23 -4q-28 0 -61 25l-208 614l10 -622q-28 -34 -84 -60t-122 -27h-5q-64 0 -130 27q-69 28 -123 102z" />
<glyph unicode="N" horiz-adv-x="1368" d="M32 1550q30 26 88 45t123 26q35 4 70 4l60 -3q65 -6 111 -30l344 -846l-26 854q42 30 120 42q62 10 127 10q16 0 32 -1q81 -3 150 -18t93 -37l-16 -1518q-44 -60 -119 -79q-65 -16 -130 -16h-20q-75 3 -135 23t-72 38l-282 600l-14 -644q-36 -18 -109 -25q-51 -5 -104 -5 q-23 0 -45 1q-76 3 -142 16t-88 35z" />
<glyph unicode="O" horiz-adv-x="1330" d="M50 744q0 200 58 366t158 286t234 186t286 66q142 0 244 -67t167 -179t92 -257q19 -103 19 -209q0 -43 -3 -87q-11 -151 -59 -299t-133 -267t-206 -197t-277 -90q-128 0 -234 59t-183 160t-120 237t-43 292zM504 642q2 -88 28 -151t80 -69h5q63 0 108 51q47 53 75 134 t38 178q6 57 6 110q0 37 -3 72q-7 85 -33 147t-68 76q-8 2 -16 2q-41 0 -77 -44q-43 -52 -76 -135t-51 -183q-16 -90 -16 -170v-18z" />
<glyph unicode="P" horiz-adv-x="1222" d="M52 1436q14 42 65 77t127 61t168 40t189 15h12q91 0 179 -14q94 -15 173 -47t135 -84t78 -126q10 -39 10 -84q0 -47 -11 -100q-21 -104 -94 -205t-202 -184t-327 -121l32 -606q-34 -46 -107 -66q-66 -18 -137 -18h-14q-78 2 -142 22t-80 54zM510 1264l6 -194q32 0 87 8 t108 27t92 51t39 82q-12 42 -65 51q-32 5 -66 5q-23 0 -47 -2q-70 -8 -154 -28z" />
<glyph unicode="Q" horiz-adv-x="1354" d="M26 458q0 106 18 237t58 264t102 258t152 220t208 151q107 51 239 51q14 0 29 -1q14 1 29 1q83 0 157 -50q86 -59 152 -161t107 -236t50 -275q2 -35 2 -70q0 -105 -20 -209q-27 -138 -97 -246l108 -60q26 -20 30 -66q1 -8 1 -15q0 -38 -17 -73q-20 -42 -66 -68 q-27 -15 -64 -15q-26 0 -56 7l-96 70q-88 -82 -197 -126t-223 -51q-23 -1 -45 -1q-91 0 -178 22q-109 28 -194 87t-137 148t-52 207zM437 584q7 -84 42 -142t99 -81q29 -10 65 -10q44 0 99 15l-126 96q-17 42 -17 80q0 12 2 23q7 47 35 77t77 38q14 2 29 2q38 0 82 -14 l104 -60q8 -4 21 41t22 117t9 157t-17 159t-56 124t-107 54h-6q-61 0 -116 -41q-58 -43 -106 -114t-81 -162t-47 -183q-9 -61 -9 -119q0 -29 2 -57z" />
<glyph unicode="R" horiz-adv-x="1334" d="M46 72l18 1384q90 58 206 102t241 65q88 15 174 15q37 0 74 -3q123 -9 224 -54t172 -132t93 -225q0 -70 -25 -133t-64 -122t-89 -114t-100 -107l358 -526q-22 -72 -83 -115t-139 -65t-162 -29t-150 -9l-294 582l4 -536q-24 -60 -98 -82q-54 -16 -112 -16q-21 0 -43 2 q-81 8 -143 40t-62 78zM482 1290l4 -266q18 -5 43 -5q18 0 40 3q51 6 102 27t93 59t56 98v10q0 39 -27 63q-31 27 -81 38q-31 7 -66 7q-22 0 -46 -3q-62 -7 -118 -31z" />
<glyph unicode="S" horiz-adv-x="1104" d="M25 307q-1 18 -1 34q0 61 14 112q18 65 56 85q38 -32 95 -51t114 -24q22 -2 43 -2q33 0 64 5q50 8 77 26t22 45t-57 63q-56 26 -135 54t-147 74t-109 117q-28 49 -28 118q0 30 5 65q30 114 97 211t156 172t192 127t206 76q88 21 170 20h27q94 -4 164 -40q12 -42 22 -97 q6 -34 6 -70q0 -21 -2 -43q-6 -58 -34 -113t-90 -93q-60 44 -136 57q-30 5 -58 5q-44 0 -85 -12q-67 -20 -111 -72q-40 -48 -40 -122v-14q28 -58 85 -95t125 -67t136 -63t119 -82t75 -123q13 -40 13 -93q0 -44 -9 -95q-48 -154 -152 -237t-234 -120t-271 -39h-56 q-110 0 -211 6q-56 52 -84 133t-33 162z" />
<glyph unicode="T" horiz-adv-x="1242" d="M28 1409q0 57 12 109t36 88l1088 24q26 -12 46 -52t22 -99v-10q0 -55 -19 -119q-21 -70 -75 -138h-322q0 -62 2 -152t4 -194t5 -214t5 -214t4 -194t2 -152q-8 -40 -45 -62t-87 -30q-31 -5 -64 -5q-21 0 -42 2q-56 5 -104 17t-82 30t-40 38l36 1130l-348 -12 q-16 42 -25 97t-9 112z" />
<glyph unicode="U" horiz-adv-x="1216" d="M48 1132q2 124 8 230t8 202q6 12 38 29t76 30t97 21q42 6 82 6h20q49 -2 90 -19t63 -53q4 -88 4 -182v-63q-2 -127 -6 -249t-5 -233v-16q0 -101 12 -182q13 -87 42 -143t85 -68q48 4 76 66t40 196t12 349t-10 527q2 10 27 24t61 25t80 17q22 3 44 3l44 -3q44 -6 81 -26 t59 -60q14 -248 14 -448q0 -66 -2 -128q-6 -244 -35 -416t-82 -282t-131 -173t-182 -87t-234 -26q-116 0 -191 46t-123 121t-77 170t-49 193q-24 182 -31 330q-5 115 -5 216v56z" />
<glyph unicode="V" horiz-adv-x="1450" d="M36 1538q28 34 93 56t138 30q42 5 82 5q30 0 60 -3q69 -6 107 -30l250 -906l218 906q14 12 49 23t80 15q26 2 53 2q20 0 41 -1q49 -3 91 -19t72 -46t36 -78l-340 -1458q-18 -8 -60 -16t-96 -14t-114 -9q-36 -2 -71 -2q-23 0 -45 1q-56 2 -101 9t-67 23q-88 282 -155 497 t-117 374t-84 269t-57 180t-36 109l-19 57t-7 22z" />
<glyph unicode="W" horiz-adv-x="1830" d="M20 1518q20 42 76 67t123 37t134 14h32q46 0 77 -4l146 -828l124 300q36 42 89 63t106 23h14q45 0 82 -11q43 -13 61 -39l144 -370l108 800q8 28 45 42t89 17q12 1 24 1q41 0 85 -8q57 -10 107 -31t85 -54t39 -75l-366 -1386q-6 -22 -37 -36t-74 -22t-94 -10 q-20 -1 -40 -1q-29 0 -56 2q-45 3 -79 10t-44 17l-140 460l-196 -446q-78 -44 -180 -44t-208 26z" />
<glyph unicode="X" horiz-adv-x="1506" d="M44 1398v9q0 34 28 73q32 44 82 80t109 59q54 21 103 21h8l366 -490l266 496q16 24 54 23t81 -18t87 -50t75 -76t42 -93q4 -17 4 -34q0 -34 -15 -68l-242 -426l358 -482q41 -35 41 -77q0 -5 -1 -11q-6 -48 -44 -94t-96 -88t-116 -70t-103 -39t-57 3l-328 462l-306 -536 q-22 -8 -63 3t-88 33t-94 52t-82 64t-53 68q-11 20 -11 39q0 12 5 23l390 554z" />
<glyph unicode="Y" horiz-adv-x="1502" d="M12 1510q12 48 48 76t82 41t97 16q22 1 42 1q27 0 51 -2q42 -4 70 -10t30 -10l316 -448l236 450q42 14 117 22q40 4 81 4q36 0 72 -3q78 -7 143 -31t87 -74l-424 -626l-12 -834q-36 -44 -98 -75t-137 -38q-18 -2 -36 -2q-58 0 -119 17q-80 22 -150 86l8 830z" />
<glyph unicode="Z" horiz-adv-x="1392" d="M39 1472q29 94 119 146l988 12q54 -2 78 -28t28 -66q1 -10 1 -21q0 -32 -9 -68q-12 -49 -33 -95t-45 -85t-42 -59l-460 -706l550 18q90 -58 125 -131q34 -71 34 -139q0 -72 -26 -132q-25 -58 -53 -84l-1118 -34q-46 16 -69 61t-30 106q-4 39 -4 80q0 24 1 49q4 68 14 130 t20 110t16 68q-2 10 8 21t33 33t60 62t90 106t125 165t164 241h-540q-35 95 -35 168q0 39 10 72z" />
<glyph unicode="[" horiz-adv-x="760" d="M48 -338v2260l580 -4q30 -34 51 -78t25 -95t-13 -107t-63 -114l-234 4l8 -1414h266q10 -10 29 -62t27 -120t-5 -138t-65 -118z" />
<glyph unicode="\" horiz-adv-x="1400" d="M32 1458q4 56 35 98t75 64t96 22t100 -30l1020 -1532q-28 -44 -68 -74t-87 -42t-98 -4t-99 40z" />
<glyph unicode="]" horiz-adv-x="832" d="M56 -62q8 68 27 120t29 62h266l8 1414l-234 -4q-46 58 -63 114t-13 107t25 95t51 78l580 4v-2260l-606 14q-52 48 -65 118t-5 138z" />
<glyph unicode="^" horiz-adv-x="902" d="M98 906l220 320q26 38 71 53t92 12t87 -21t58 -44l180 -304q8 -10 4 -35t-19 -54t-39 -57t-54 -41t-66 -6t-74 47l-82 146l-96 -164q-28 -26 -71 -26t-85 20t-77 60t-49 94z" />
<glyph unicode="_" horiz-adv-x="1398" d="M75 198q-1 48 17 91t58 73l1120 -4q14 -10 35 -51t30 -95t-3 -111t-62 -95l-1120 4q-36 42 -55 91t-20 97z" />
<glyph unicode="`" horiz-adv-x="548" d="M58 1622q0 56 28 94t69 56t84 12t71 -38l180 -304q22 -28 5 -70t-54 -74t-85 -40t-86 30z" />
<glyph unicode="a" horiz-adv-x="1052" d="M24 504q14 146 70 273t138 214t184 124q56 20 114 20q47 0 94 -13v68q8 20 41 33t77 17q25 2 52 2q20 0 42 -1q50 -3 92 -15t71 -34t33 -52v-1044q-6 -38 -39 -61t-77 -36t-95 -15h-25q-37 0 -68 4q-42 6 -72 19t-32 31l-4 112q-90 -74 -170 -99q-51 -16 -98 -16 q-26 0 -51 5q-69 14 -124 59t-91 109t-53 141q-12 52 -12 105q0 25 3 50zM408 542q0 -46 14 -86t39 -62t63 -23h2q37 0 84 31l20 396q-14 6 -30.5 6t-35.5 -6q-38 -12 -73 -45t-59 -86t-24 -125z" />
<glyph unicode="b" horiz-adv-x="1072" d="M26 1550q18 20 63 47t100 38q24 5 49 5q31 0 62 -8q56 -14 96 -72l8 -512q86 106 186 149q59 25 115 25q39 0 77 -12q92 -30 163 -136t99 -296q2 -47 2 -91q0 -170 -36 -304q-46 -169 -135 -264t-210 -105q-12 -1 -24 -1q-111 0 -235 83l-2 -56q-24 -20 -73 -35t-105 -19 q-15 -1 -30 -1q-40 0 -78 8q-52 11 -80 41zM496 635v-23q0 -46 6 -88q8 -52 26 -87t48 -35h4q35 0 59 31q25 33 37 82t13 108v10q0 53 -10 99q-11 50 -33 85t-52 39q-30 2 -51 -30t-33 -82t-14 -109z" />
<glyph unicode="c" horiz-adv-x="898" d="M34 600q4 124 49 236t116 196t159 133t180 50h3q90 0 177 -56q88 -57 156 -183q2 -14 2 -28q0 -33 -13 -65q-19 -45 -55 -77t-81 -45q-22 -6 -43 -6q-23 0 -46 7q-20 60 -45 84t-50 20t-49 -30t-44 -64t-33 -81t-15 -83q-1 -9 -1 -17q0 -37 14 -73q17 -44 49 -66 q22 -15 48 -15q12 0 25 3q41 10 87 72q24 36 68 36t87 -21t77 -56t38 -65q-64 -150 -155 -239t-189 -121q-59 -19 -117 -19q-38 0 -76 8q-95 21 -169 93t-117 191q-38 104 -38 242q0 19 1 39z" />
<glyph unicode="d" horiz-adv-x="1014" d="M28 406q-2 40 -2 81q0 74 7 150q11 117 38 221t73 185t110 122q54 34 120 34q13 0 27 -1q83 -8 189 -82l-2 430q-4 18 22 39t67 38t90 27q35 7 67 7q13 0 26 -1q44 -4 77 -24t41 -62v-1484q-50 -54 -112 -73q-56 -17 -109 -17h-11q-58 2 -105 16t-65 26v140 q-102 -140 -198 -170q-38 -12 -73 -12q-53 0 -99 28q-76 46 -124 150t-54 232zM336 618q2 -108 37 -157q28 -39 59 -39q8 0 17 3q41 13 76 89t35 216q-4 52 -34 87q-27 31 -61 31h-8q-39 -4 -74 -56t-47 -174z" />
<glyph unicode="e" horiz-adv-x="1030" d="M18 656q4 82 23 171t63 168t116 140t182 87q66 15 126 15q52 0 100 -11q104 -24 179 -83t116 -146q39 -83 39 -176v-9q-4 -94 -70 -162t-158 -104t-190 -38h-10q-91 0 -154 34q10 -82 52 -126t109 -50q11 -1 22 -1q59 0 131 26q86 31 186 101q8 1 15 1q35 0 66 -24 q37 -29 55 -76q12 -33 12 -68q0 -16 -2 -33q-8 -54 -56 -100q-102 -98 -205 -143t-199 -48h-16q-87 0 -166 29q-86 32 -156 88t-119 130t-71 156q-10 36 -17 103q-4 43 -4 91q0 28 1 58zM440 858q2 -36 32 -48q24 -10 51 -9h14q35 3 66 19t35 38q6 34 -23 49q-27 14 -63 14 h-5q-39 -1 -73 -17t-34 -46z" />
<glyph unicode="f" horiz-adv-x="976" d="M-7 759q-2 19 -2 38q0 37 9 72q14 53 62 69l200 8q-6 69 -6 131q0 247 90 382q112 169 350 169q88 0 161 -27t125 -82t81 -139t29 -200q0 -16 -44 -34t-97 -28q-41 -8 -76 -8q-11 0 -21 1q-44 3 -46 29q-2 14 -4 50t-36 110q-28 30 -55 22t-47 -52t-29 -125 q-4 -38 -4 -85q0 -51 5 -112l194 -2q36 -12 58 -57t25 -98v-17q0 -44 -13 -85q-16 -49 -52 -69l-184 -6l-4 -552q-20 -18 -72 -35t-113 -23q-22 -2 -43 -2q-39 0 -78 7q-60 11 -98 49l-2 556h-184q-26 0 -49 44t-30 101z" />
<glyph unicode="g" horiz-adv-x="1040" d="M39 568v7q0 130 35 254q36 127 107 215t179 119q38 11 80 11q79 0 174 -38l2 64q0 14 52 28t117 17q13 1 26 1q50 0 95 -10q56 -12 66 -48q-4 -15 -4 -52q0 -32 3 -81q7 -105 18 -257t19 -336q5 -105 5 -211q0 -79 -3 -159q-6 -186 -33 -358t-85 -302t-155 -201 q-79 -58 -191 -58q-25 0 -52 3q-124 14 -214 78t-146 158t-77 207q-13 72 -13 144q0 42 4 83q16 60 48 87t72 32q11 1 22 1q29 0 59 -9q41 -13 74 -32t53 -41t16 -34q0 -62 12 -109t29 -79t36 -48t33 -16q50 0 77 45t37 114q8 53 8 112q0 18 -1 36q-3 79 -13 149 q-108 -56 -197 -56q-26 0 -50 5q-107 21 -178 102t-108 205t-38 258zM395 552q9 -64 31 -100t51 -42t55 20t44 83t18 149q0 82 -29 124t-65 46h-8q-31 0 -59 -28q-31 -32 -33 -96q-9 -56 -9 -102q0 -29 4 -54z" />
<glyph unicode="h" horiz-adv-x="1030" d="M28 1544q14 24 68 49t120 36q30 5 60 5q35 0 68 -7q62 -13 92 -67l-6 -522q136 178 244 199q16 3 31 3q88 0 150 -106q73 -124 106 -390q23 -187 24 -438q0 -106 -5 -224q-22 -32 -74 -52t-108 -25q-16 -1 -32 -1q-38 0 -71 8q-47 12 -59 46q-4 92 -4 180v59q2 117 2 213 t-6 164t-26 92q-9 11 -23 11q-16 0 -37 -14q-40 -27 -108 -121l-10 -588q-42 -34 -98 -48q-52 -13 -103 -13h-7q-54 1 -101 14t-73 35z" />
<glyph unicode="i" horiz-adv-x="528" d="M50 1174q36 30 97 48q58 17 117 17h7q63 -1 116 -23t77 -70l8 -1032q-18 -50 -75 -73t-123 -23t-127 21t-89 57zM73 1510q5 48 35 89t83 70t127 33q50 -2 82 -29t47 -68q12 -34 12 -73v-16q-3 -48 -22 -90t-56 -71t-91 -33q-80 2 -129 30t-71 69q-18 33 -18 71q0 9 1 18z " />
<glyph unicode="j" horiz-adv-x="684" d="M-409 -248q1 64 7 106q6 64 49 94t95 32h8q48 0 94 -22q50 -24 72 -66q-5 -25 -5 -55q0 -27 4 -57q9 -64 31 -116t56 -78q16 -12 33 -12q21 0 43 16t38 75t28 146t19 195t10 223q2 86 2 171v57q-1 113 -6 210t-13 172t-20 111q-10 30 16 55t70 42t100 23q26 3 51 3 q29 0 58 -4q53 -7 95 -31t58 -68q8 -102 16 -234t10 -277v-53q0 -119 -7 -242q-9 -150 -33 -292t-67 -267t-110 -219t-161 -148t-220 -54q-108 4 -183 44t-123 101t-72 135t-34 147q-9 66 -9 125v12zM107 1439v13q0 45 19 85q22 45 69 72q36 21 91 21q16 0 34 -2 q56 -10 94 -45t56 -81q16 -41 16 -87v-10q-2 -51 -23 -91t-63 -63q-29 -16 -68 -16q-17 0 -36 3h-13q-48 0 -85 26q-42 30 -65 76t-26 99z" />
<glyph unicode="k" horiz-adv-x="1186" d="M38 76l12 1472q30 38 89 61t124 29q23 2 45 2q40 0 78 -7q58 -11 88 -41l22 -600l284 256q40 11 73 11q28 0 52 -8q51 -17 84 -55t52 -87t29 -93q0 -18 -9 -35t-36 -48t-77 -81t-130 -134v-12q30 -48 73 -108t91 -125t96 -128t88 -113q-10 -84 -48 -130t-88 -68t-102 -25 q-22 -1 -42 -1q-26 0 -48 2l-348 512l-20 -496q-8 4 -60 -12t-119 -25q-25 -3 -51 -3q-43 0 -87 9q-71 15 -115 81z" />
<glyph unicode="l" horiz-adv-x="528" d="M50 1530q4 38 36 62t77 34q35 8 73 8q11 0 23 -1q51 -3 96 -21t75 -49t34 -77q8 -170 9 -349t2 -361t3 -361t12 -349q-10 -24 -62 -45t-119 -26q-16 -1 -32 -1q-51 0 -104 12q-69 16 -113 64z" />
<glyph unicode="m" horiz-adv-x="1404" d="M46 52v1088q38 38 88 57t100 24q17 2 33 2q32 0 63 -7q46 -10 76 -30v-78q58 42 116 73t111 34h9q48 0 91 -30q47 -33 85 -121q146 112 259 131q17 3 33 3q91 0 152 -92q72 -108 99 -362q13 -125 13 -292q0 -174 -14 -394q-46 -54 -104 -65q-30 -6 -60 -6q-27 0 -52 5 q-54 10 -93 35t-45 43q-16 138 -20 240t-8 171t-12 108t-32 49q-22 -6 -36 -38t-23 -82t-14 -111t-9 -124t-8 -121t-12 -100q-18 -24 -56 -34t-79 -10t-78 9t-51 25q-4 146 -4 262t-4 197t-16 125t-42 46q-24 -12 -35 -54t-15 -100t-4 -127v-134t-1 -121t-9 -88 q-12 -14 -46 -25t-77 -18t-91 -10q-21 -1 -39 -1q-25 0 -48 2q-39 4 -65 15t-26 31z" />
<glyph unicode="n" horiz-adv-x="1160" d="M56 88v1008q6 26 40 47t81 34t100 17q24 2 46 2q27 0 52 -3q45 -5 74 -21t31 -44l-4 -58q126 84 220 104q40 9 75 9q48 0 88 -16q69 -27 115 -94t75 -160t44 -203t22 -223t7 -221v-196q-36 -40 -94 -56q-52 -14 -102 -14h-13q-57 2 -103 22t-56 56q-2 178 -7 327t-32 242 t-86 117q-15 6 -33 6q-54 0 -138 -54l6 -638q-16 -28 -50 -46t-76 -27q-38 -8 -78 -8h-9q-45 1 -85 11t-70 30t-40 50z" />
<glyph unicode="o" horiz-adv-x="1012" d="M53 420q-3 34 -3 69q0 77 14 155q20 114 67 221t114 188t149 127q70 39 147 39q13 0 27 -1q104 -4 180 -59t123 -142t66 -196q13 -77 13 -155q0 -33 -2 -66q-8 -112 -44 -219t-99 -191t-152 -134q-86 -48 -194 -48h-9q-130 8 -215 66t-129 147t-53 199zM414 514 q4 -54 18 -92t38 -42q6 -2 12 -2q24 0 43 26q23 32 37 83t18 113q2 35 2 69q0 25 -1 48q-3 55 -15 93t-32 40h-7q-29 0 -51 -28q-24 -32 -39 -82t-21 -111q-4 -37 -4 -71q0 -22 2 -44z" />
<glyph unicode="p" horiz-adv-x="1146" d="M38 1158q44 70 102 86q33 9 65 9q24 0 47 -5q54 -12 95 -41t51 -51l6 -82q60 56 135 89t152 40q21 2 41 2q56 0 110 -14q74 -19 132 -66t94 -124t38 -185q2 -21 2 -44q0 -65 -13 -143q-17 -105 -55 -207t-98 -191t-140 -140t-180 -52h-3q-99 0 -213 71l24 -866 q-22 -30 -70 -46t-104 -17h-9l-103 11q-56 12 -94 38zM494 558q38 -60 81 -75q19 -7 37 -7q23 0 44 11q38 19 63 67t27 114v11q0 58 -19 93q-21 38 -53 50q-15 6 -32 6q-18 0 -38 -7q-38 -13 -66 -47t-43 -89q-8 -28 -8 -61q0 -31 7 -66z" />
<glyph unicode="q" horiz-adv-x="1056" d="M38 364q-2 33 -2 68q0 68 8 141q12 109 43 209t80 185t118 138t157 67q23 4 47 4q69 0 149 -30v66q20 16 65 34t98 22q10 1 19 1q43 0 85 -15q51 -18 87 -74l-58 -1444l322 186q9 3 17 3q24 0 43 -26q26 -35 38 -91q8 -35 8 -73q0 -22 -3 -44q-7 -61 -37 -99l-592 -366 q-35 -11 -60 -11h-4q-26 1 -41 25t-23 78t-9 149v50q0 80 2 186q3 141 9 341h-6q-76 -42 -165 -43h-4q-87 0 -166 38q-81 39 -143 120t-82 205zM370 596q-4 -34 -4 -63q0 -66 22 -106q32 -57 75 -57t84 57t45 173q-6 94 -35 139q-27 42 -61 42h-5q-37 -3 -72 -50t-49 -135z " />
<glyph unicode="r" horiz-adv-x="972" d="M30 1124q20 58 77 82t116 25h7q55 0 99 -15q47 -16 49 -36l-20 -122q64 84 132 115q55 25 110 26q12 0 24 -2q66 -7 125 -46t104 -100t73 -136t30 -151q-14 -60 -52 -93t-83 -44q-24 -6 -46 -6q-21 0 -41 5q-42 10 -66 34q-14 78 -52 107q-28 22 -59 22q-11 0 -22 -3 q-43 -10 -81 -55t-50 -117v-542q-14 -30 -68 -51t-117 -26q-16 -1 -31 -1q-46 0 -87 11q-55 15 -67 59z" />
<glyph unicode="s" horiz-adv-x="870" d="M18 179q-4 23 -4 44q0 27 6 53q10 46 32 83t44 59q6 -16 47 -33t96 -30t113 -15h14q49 0 83 12q39 14 48 49q2 6 2 13q0 33 -35 88q-8 14 -46 29t-89 35t-107 47t-102 66t-73 90q-22 42 -22 96q0 12 1 25q10 90 71 164t156 119t217 52q17 1 34 1q106 0 218 -38 q34 -24 42 -74q4 -24 4 -47q0 -26 -5 -52q-9 -49 -29 -84t-44 -29q-47 13 -81 13h-5q-36 -1 -59 -9t-33 -21t-10 -25q2 -28 15 -44t35 -28t51 -26t63 -34q88 -54 130 -125t46 -147q0 -9 1 -17q0 -67 -28 -135q-31 -76 -86 -140t-131 -109t-163 -62q-41 -8 -84 -8 q-48 0 -98 10q-95 19 -189 83q-38 50 -46 101z" />
<glyph unicode="t" horiz-adv-x="896" d="M2 1018q-1 14 -1 28q0 40 8 86q11 62 43 122l164 4l4 310q14 16 60 34t103 25q25 3 50 3q33 0 66 -5q59 -9 101 -47l6 -320l188 6q20 -14 43 -61t33 -106q6 -35 6 -68q0 -24 -3 -47q-7 -56 -47 -88l-220 2l2 -882q-48 -18 -114 -27q-54 -7 -104 -7h-22q-60 2 -101 18 t-41 48v844l-166 -8q-22 10 -38 47t-20 89z" />
<glyph unicode="u" horiz-adv-x="1024" d="M59 766v31q0 93 5 182q6 103 12 185q6 18 33 38t65 36t81 24q20 4 40 4q22 0 42 -5q39 -9 68 -39t39 -86q-12 -178 -14 -315v-27q0 -118 16 -193q18 -83 63 -106q13 -7 30 -7q39 0 95 38l-18 620q-2 24 43 53t106 41q27 5 54 6q34 0 69 -9q62 -15 98 -77l8 -1086 q-22 -24 -56 -46t-77 -34q-37 -10 -79 -10h-14q-50 2 -102 26v74q-126 -60 -219 -63h-13q-85 0 -148 36q-68 39 -111 113t-69 170t-36 206t-11 220z" />
<glyph unicode="v" horiz-adv-x="1140" d="M38 1028q-2 22 14 53t44 62t65 54t79 29q10 1 20 1q32 0 65 -14q43 -19 83 -73l186 -526l144 570q32 30 89 42q31 7 63 7q26 0 53 -5q59 -10 108 -44t65 -96l-328 -1000q-30 -46 -81 -63q-41 -14 -85 -14q-10 0 -20 1q-54 4 -101 25t-67 51z" />
<glyph unicode="w" horiz-adv-x="1634" d="M52 1072q20 40 66 73t102 51q48 15 97 15h16q57 -3 99 -35l112 -534l124 482q79 60 163 60h5q86 -2 144 -60l92 -464l172 524q6 16 37 24q28 7 64 7h9q42 -1 89 -10t86 -26t62 -41t19 -56l-330 -1012q-22 -34 -72 -52t-107 -19h-6q-53 0 -101 16q-50 17 -70 53l-126 494 l-182 -484q-26 -34 -81 -47q-45 -11 -92 -11q-11 0 -22 1q-59 3 -107 20t-60 45z" />
<glyph unicode="x" horiz-adv-x="1334" d="M44 996q-4 28 14 59t50 59t71 52t79 41t76 24t58 1l256 -346l280 318q22 13 57 13q9 0 18 -1q47 -4 93 -28t82 -67t42 -105l-318 -364l376 -386q16 -23 16 -48q0 -23 -13 -47q-27 -51 -78 -92t-111 -64q-42 -16 -72 -16q-13 0 -24 3l-352 372l-242 -380q-29 -9 -61 -9 q-20 0 -42 4q-55 9 -103 36t-84 69t-48 96l300 386z" />
<glyph unicode="y" horiz-adv-x="1232" d="M-2 1088q18 28 70 68t116 64q51 19 106 19q13 0 27 -1q69 -6 121 -66l142 -772l232 786q38 16 102 22q24 2 48 2q40 0 79 -6q63 -10 111 -41t52 -87l-636 -1842q-60 -48 -141 -56q-31 -3 -61 -3q-49 0 -96 8q-76 13 -133 39t-69 44l312 760z" />
<glyph unicode="z" horiz-adv-x="1052" d="M18 1000q4 48 15 90t27 71t34 35l734 26q64 -22 99 -58t49 -81q12 -39 13 -81q0 -6 -1 -12q-2 -48 -12 -92t-23 -79t-21 -53l-414 -348l440 16q46 -40 65 -101q15 -48 15 -97q0 -13 -1 -25q-5 -61 -31 -111t-72 -70l-864 8q-26 26 -36 68q-9 38 -9 81v9q1 48 11 99t28 97 l502 414l-466 -14q-34 10 -53 42t-26 75q-4 27 -4 57q0 17 1 34z" />
<glyph unicode="{" horiz-adv-x="954" d="M64 824q142 40 207 84t80 94t-5 105t-48 121t-50 141t-8 165q20 126 96 211t178 134t218 66t218 9q30 -12 43 -63t9 -113t-24 -121t-54 -87q-36 4 -81 6t-91 -10t-87 -45t-67 -95q-8 -66 5 -129t31 -124t32 -120t11 -119t-32 -120t-99 -122q60 -64 70 -143t0 -158 t-27 -151t-11 -126q2 -34 18 -56t52 -32t95 -5t149 27q12 -6 35 -51t36 -107t8 -129t-49 -115q-80 -20 -169 -27t-174 5t-160 43t-132 83t-88 127t-25 175q4 42 28 91t47 101t37 102t2 93t-60 75t-148 48z" />
<glyph unicode="|" horiz-adv-x="630" d="M82 1660q4 38 36 62t77 34t96 7t96 -21t75 -49t34 -77q6 -114 8 -253t3 -290t2 -310t3 -310t6 -290t10 -253q-10 -24 -62 -45t-119 -26t-136 11t-113 64z" />
<glyph unicode="}" horiz-adv-x="956" d="M2 1788q-4 62 9 113t43 63q102 8 218 -9t218 -66t178 -134t96 -211q14 -90 -8 -165t-50 -141t-48 -121t-5 -105t79 -94t208 -84l-16 -262q-100 -16 -148 -48t-60 -75t2 -93t37 -102t46 -101t29 -91q4 -100 -26 -175t-87 -127t-132 -83t-160 -43t-174 -6t-169 28 q-44 48 -49 115t8 129t36 107t35 51q90 -22 149 -27t95 5t52 32t18 56q6 54 -11 126t-27 151t0 158t70 143q-70 62 -99 122t-32 120t11 119t32 120t30 124t6 129q-28 62 -68 95t-86 45t-91 10t-81 -6q-34 28 -54 87t-24 121z" />
<glyph unicode="~" horiz-adv-x="1160" d="M96 818q-10 56 8 90q6 32 42 84t83 98t97 75t84 15q54 0 89 -28t64 -61t56 -60t65 -27q42 0 68 19t42 47t23 61t13 61q24 36 71 30t92 -35t75 -71t22 -78q-18 -82 -61 -144t-91 -105t-94 -69t-70 -38q-58 -10 -103 14t-84 54t-73 56t-68 22q-46 8 -87 -26t-81 -120 q-40 -46 -79 -28t-66 63t-37 101z" />
<glyph unicode="&#xa1;" horiz-adv-x="544" d="M98 1170l6 -1094q12 -38 69 -58t124 -21t126 17t77 58l-16 1078q-42 34 -93 52t-102 19t-101 -12t-90 -39zM104 1498q-2 -50 18 -94t62 -74t108 -32q68 0 111 28t63 71t18 94t-25 95t-66 74t-105 32q-58 0 -98 -29t-62 -72t-24 -93z" />
<glyph unicode="&#xa3;" horiz-adv-x="1302" d="M-7 759q-7 57 7 110t62 69l176 6q24 186 75 319t125 217t171 123t215 39q88 0 163 -31t131 -90t90 -142t42 -187q2 -30 -39 -61t-95 -45t-106 -5t-70 59q-2 6 -1 14t0 23t-7 39t-24 60q-18 20 -50 29t-68 3t-73 -28t-67 -64t-49 -105t-17 -151h312q36 -12 52 -59t12 -103 t-26 -107t-58 -71l-302 -8l-38 -354q96 22 186 21t175 -17t165 -46t156 -68q16 -8 25 -37t10 -67t-7 -79t-27 -74t-48 -52t-69 -13q-92 30 -176 52t-187 28t-241 -9t-336 -59l70 774l-160 2q-26 0 -49 44t-30 101z" />
<glyph unicode="&#xa8;" horiz-adv-x="948" d="M37 1463q-1 47 19 88t62 71t106 36q64 -2 106 -29t62 -68t18 -89t-23 -90t-62 -70t-101 -30q-62 0 -103 27t-62 67t-22 87zM521 1463q-1 47 19 88t62 71t106 36q64 -2 106 -29t62 -68t18 -89t-23 -90t-62 -70t-101 -30q-62 0 -103 27t-62 67t-22 87z" />
<glyph unicode="&#xad;" horiz-adv-x="844" d="M88 530q4 44 16 82t33 63t47 25l518 8q42 -12 60 -65t15 -113t-22 -111t-49 -61l-516 -6q-40 2 -63 29t-33 66t-6 83z" />
<glyph unicode="&#xaf;" horiz-adv-x="934" d="M114 1452q4 44 16 82t33 63t47 25l518 8q42 -12 60 -65t15 -113t-22 -111t-49 -61l-516 -6q-40 2 -63 29t-33 66t-6 83z" />
<glyph unicode="&#xb4;" horiz-adv-x="548" d="M63 1372q-17 42 5 70l180 304q28 32 71 38t83 -12t69 -56t29 -94l-212 -334q-40 -38 -87 -30t-84 40t-54 74z" />
<glyph unicode="&#xb7;" horiz-adv-x="510" d="M65 913q-1 47 19 88t62 71t106 36q64 -2 106 -29t62 -68t18 -89t-23 -90t-62 -70t-101 -30q-62 0 -103 27t-62 67t-22 87z" />
<glyph unicode="&#xb8;" horiz-adv-x="792" d="M66 -512q8 34 28 61t40 47q-12 -4 5 -10t50 -11t73 -6t75 7t57 28t18 56q-4 40 -33 55t-68 19t-83 6t-79 14t-56 42t-15 94l-6 160q22 36 63 54t85 17t83 -21t57 -62l6 -90q54 0 110 -20t103 -57t79 -89t36 -116q16 -212 -135 -301t-451 -37q-34 46 -42 86t0 74z" />
<glyph unicode="&#xbf;" horiz-adv-x="1104" d="M26 550q0 106 39 186t103 137t144 92t160 53l-2 148q36 30 85 43t102 12t103 -17t86 -46l4 -416q-54 0 -124 1t-135 -14t-116 -58t-69 -133q28 -86 83 -116t111 -17t102 63t56 122q30 42 79 44t93 -22t70 -70t8 -102q-32 -162 -117 -260t-194 -138t-228 -24t-217 82 t-162 180t-64 270zM492 1500q2 48 23 90t62 70t101 30q62 0 103 -27t62 -67t22 -87t-19 -88t-62 -71t-106 -36q-64 0 -106 28t-62 69t-18 89z" />
<glyph unicode="&#xc0;" d="M50 84l350 1404q22 52 73 84t115 47t135 15t133 -12t108 -35t60 -53l432 -1470q-72 -44 -136 -60t-123 -14t-116 18t-113 34l-86 602l-244 8l-60 -572q-26 -38 -77 -57t-110 -23t-120 3t-111 20t-81 30t-29 31zM502 2024q0 56 28 94t69 56t84 12t71 -38l180 -304 q22 -28 5 -70t-54 -74t-85 -40t-86 30zM650 972l214 8q-24 150 -52 210t-57 48t-56 -84t-49 -182z" />
<glyph unicode="&#xc1;" d="M50 84l350 1404q22 52 73 84t115 47t135 15t133 -12t108 -35t60 -53l432 -1470q-72 -44 -136 -60t-123 -14t-116 18t-113 34l-86 602l-244 8l-60 -572q-26 -38 -77 -57t-110 -23t-120 3t-111 20t-81 30t-29 31zM553 1774q-17 42 5 70l180 304q28 32 71 38t83 -12t69 -56 t29 -94l-212 -334q-40 -38 -87 -30t-84 40t-54 74zM650 972l214 8q-24 150 -52 210t-57 48t-56 -84t-49 -182z" />
<glyph unicode="&#xc2;" d="M50 84l350 1404q22 52 73 84t115 47t135 15t133 -12t108 -35t60 -53l432 -1470q-72 -44 -136 -60t-123 -14t-116 18t-113 34l-86 602l-244 8l-60 -572q-26 -38 -77 -57t-110 -23t-120 3t-111 20t-81 30t-29 31zM374 1836l220 320q26 38 71 53t92 12t87 -21t58 -44 l180 -304q8 -8 4 -34t-19 -55t-39 -57t-54 -41t-66 -6t-74 47l-82 146l-96 -164q-28 -26 -71 -26t-85 20t-77 60t-49 94zM650 972l214 8q-24 150 -52 210t-57 48t-56 -84t-49 -182z" />
<glyph unicode="&#xc3;" d="M50 84l350 1404q22 52 73 84t115 47t135 15t133 -12t108 -35t60 -53l432 -1470q-72 -44 -136 -60t-123 -14t-116 18t-113 34l-86 602l-244 8l-60 -572q-26 -38 -77 -57t-110 -23t-120 3t-111 20t-81 30t-29 31zM258 1846q-10 56 8 90q6 32 42 84t83 98t97 75t84 15 q54 0 89 -28t64 -61t56 -60t65 -27q42 0 68 19t42 47t23 61t13 61q24 36 71 30t92 -35t75 -71t22 -78q-18 -82 -61 -144t-91 -105t-94 -69t-70 -38q-58 -10 -103 14t-84 54t-73 56t-68 22q-46 8 -87 -26t-81 -120q-40 -46 -79 -28t-66 63t-37 101zM650 972l214 8 q-24 150 -52 210t-57 48t-56 -84t-49 -182z" />
<glyph unicode="&#xc4;" d="M50 84l350 1404q22 52 73 84t115 47t135 15t133 -12t108 -35t60 -53l432 -1470q-72 -44 -136 -60t-123 -14t-116 18t-113 34l-86 602l-244 8l-60 -572q-26 -38 -77 -57t-110 -23t-120 3t-111 20t-81 30t-29 31zM315 1865q-1 47 19 88t62 71t106 36q64 -2 106 -29t62 -68 t18 -89t-23 -90t-62 -70t-101 -30q-62 0 -103 27t-62 67t-22 87zM650 972l214 8q-24 150 -52 210t-57 48t-56 -84t-49 -182zM799 1865q-1 47 19 88t62 71t106 36q64 -2 106 -29t62 -68t18 -89t-23 -90t-62 -70t-101 -30q-62 0 -103 27t-62 67t-22 87z" />
<glyph unicode="&#xc5;" d="M50 84l350 1404q22 52 73 84t115 47t135 15t133 -12t108 -35t60 -53l432 -1470q-72 -44 -136 -60t-123 -14t-116 18t-113 34l-86 602l-244 8l-60 -572q-26 -38 -77 -57t-110 -23t-120 3t-111 20t-81 30t-29 31zM386 1930q0 88 35 152t89 103t121 52t131 -2t116 -60 t80 -121q38 -104 10 -184t-92 -130t-148 -67t-160 4t-129 83t-53 170zM604 1938q0 -44 21 -65t45 -20t45 22t21 63q0 38 -21 57t-45 19t-45 -19t-21 -57zM650 972l214 8q-24 150 -52 210t-57 48t-56 -84t-49 -182z" />
<glyph unicode="&#xc6;" horiz-adv-x="1830" d="M50 84l350 1404q14 32 43 56t88 41t155 28t245 16t356 5t487 -4q22 -18 34 -69t6 -108t-33 -107t-81 -64l-532 -8l20 -206l340 -10q20 -8 34 -47t17 -87t-5 -94t-30 -70l-374 -12l8 -310l570 4q40 -54 50 -113t2 -113t-29 -100t-45 -76l-936 -18v624l-152 6l-60 -572 q-26 -38 -77 -57t-110 -23t-120 3t-111 20t-81 30t-29 31zM650 972l140 4v250q-18 20 -37 10t-37 -45t-35 -91t-31 -128z" />
<glyph unicode="&#xc7;" horiz-adv-x="1366" d="M63 742q-11 172 41 368q34 132 124 241t207 181t250 100t256 1t221 -117t146 -254q6 -52 -27 -98t-83 -74t-106 -33t-94 25q-66 88 -128 124t-117 36t-103 -31t-87 -77t-66 -101t-39 -105q-20 -74 -10 -155t41 -150t82 -118t113 -58t131 30t141 147q10 38 42 59t74 27 t88 -2t86 -29t66 -54t28 -77q-102 -254 -245 -385t-295 -161l4 -62q60 0 122 -22t114 -63t86 -98t40 -127q18 -234 -148 -332t-496 -40q-38 50 -47 93t-1 80t28 66t42 51q2 -4 27 -11t61 -11t77 -3t75 11t55 31t17 59q-6 42 -37 59t-74 22t-91 6t-87 15t-62 47t-17 103 l-6 164q-112 50 -205 151t-148 240t-66 311zM544 -452q0 4 6 4q-2 0 -6 -4z" />
<glyph unicode="&#xc8;" horiz-adv-x="1108" d="M38 28v1596l984 12q22 -18 34 -69t6 -108t-33 -107t-81 -64l-532 -8l20 -206l340 -10q20 -8 34 -47t17 -87t-5 -94t-30 -70l-374 -12l8 -310l570 4q40 -54 50 -113t2 -113t-29 -100t-45 -76zM310 2024q0 56 28 94t69 56t84 12t71 -38l180 -304q22 -28 5 -70t-54 -74 t-85 -40t-86 30z" />
<glyph unicode="&#xc9;" horiz-adv-x="1108" d="M38 28v1596l984 12q22 -18 34 -69t6 -108t-33 -107t-81 -64l-532 -8l20 -206l340 -10q20 -8 34 -47t17 -87t-5 -94t-30 -70l-374 -12l8 -310l570 4q40 -54 50 -113t2 -113t-29 -100t-45 -76zM361 1774q-17 42 5 70l180 304q28 32 71 38t83 -12t69 -56t29 -94l-212 -334 q-40 -38 -87 -30t-84 40t-54 74z" />
<glyph unicode="&#xca;" horiz-adv-x="1108" d="M38 28v1596l984 12q22 -18 34 -69t6 -108t-33 -107t-81 -64l-532 -8l20 -206l340 -10q20 -8 34 -47t17 -87t-5 -94t-30 -70l-374 -12l8 -310l570 4q40 -54 50 -113t2 -113t-29 -100t-45 -76zM182 1836l220 320q26 38 71 53t92 12t87 -21t58 -44l180 -304q8 -8 4 -34 t-19 -55t-39 -57t-54 -41t-66 -6t-74 47l-82 146l-96 -164q-28 -26 -71 -26t-85 20t-77 60t-49 94z" />
<glyph unicode="&#xcb;" horiz-adv-x="1108" d="M38 28v1596l984 12q22 -18 34 -69t6 -108t-33 -107t-81 -64l-532 -8l20 -206l340 -10q20 -8 34 -47t17 -87t-5 -94t-30 -70l-374 -12l8 -310l570 4q40 -54 50 -113t2 -113t-29 -100t-45 -76zM123 1865q-1 47 19 88t62 71t106 36q64 -2 106 -29t62 -68t18 -89t-23 -90 t-62 -70t-101 -30q-62 0 -103 27t-62 67t-22 87zM607 1865q-1 47 19 88t62 71t106 36q64 -2 106 -29t62 -68t18 -89t-23 -90t-62 -70t-101 -30q-62 0 -103 27t-62 67t-22 87z" />
<glyph unicode="&#xcc;" horiz-adv-x="1050" d="M33 1409q-11 65 8 128t95 97l798 -4q30 -34 51 -78t25 -95t-13 -107t-63 -114l-234 4l8 -782h266q10 -10 29 -62t27 -120t-5 -138t-65 -118l-828 -2q-44 24 -64 65t-25 88t2 95t19 88t24 66t16 30l222 10l2 776h-212q-18 8 -45 58t-38 115zM280 2024q0 56 28 94t69 56 t84 12t71 -38l180 -304q22 -28 5 -70t-54 -74t-85 -40t-86 30z" />
<glyph unicode="&#xcd;" horiz-adv-x="1050" d="M33 1409q-11 65 8 128t95 97l798 -4q30 -34 51 -78t25 -95t-13 -107t-63 -114l-234 4l8 -782h266q10 -10 29 -62t27 -120t-5 -138t-65 -118l-828 -2q-44 24 -64 65t-25 88t2 95t19 88t24 66t16 30l222 10l2 776h-212q-18 8 -45 58t-38 115zM331 1774q-17 42 5 70l180 304 q28 32 71 38t83 -12t69 -56t29 -94l-212 -334q-40 -38 -87 -30t-84 40t-54 74z" />
<glyph unicode="&#xce;" horiz-adv-x="1050" d="M33 1409q-11 65 8 128t95 97l798 -4q30 -34 51 -78t25 -95t-13 -107t-63 -114l-234 4l8 -782h266q10 -10 29 -62t27 -120t-5 -138t-65 -118l-828 -2q-44 24 -64 65t-25 88t2 95t19 88t24 66t16 30l222 10l2 776h-212q-18 8 -45 58t-38 115zM152 1836l220 320q26 38 71 53 t92 12t87 -21t58 -44l180 -304q8 -8 4 -34t-19 -55t-39 -57t-54 -41t-66 -6t-74 47l-82 146l-96 -164q-28 -26 -71 -26t-85 20t-77 60t-49 94z" />
<glyph unicode="&#xcf;" horiz-adv-x="1050" d="M33 1409q-11 65 8 128t95 97l798 -4q30 -34 51 -78t25 -95t-13 -107t-63 -114l-234 4l8 -782h266q10 -10 29 -62t27 -120t-5 -138t-65 -118l-828 -2q-44 24 -64 65t-25 88t2 95t19 88t24 66t16 30l222 10l2 776h-212q-18 8 -45 58t-38 115zM93 1865q-1 47 19 88t62 71 t106 36q64 -2 106 -29t62 -68t18 -89t-23 -90t-62 -70t-101 -30q-62 0 -103 27t-62 67t-22 87zM577 1865q-1 47 19 88t62 71t106 36q64 -2 106 -29t62 -68t18 -89t-23 -90t-62 -70t-101 -30q-62 0 -103 27t-62 67t-22 87z" />
<glyph unicode="&#xd0;" horiz-adv-x="1216" d="M-124 776q4 44 16 82t33 63t47 25h86l-6 640q120 46 253 43t263 -47t246 -124t203 -186t135 -235t40 -271q-10 -162 -69 -286t-151 -213t-207 -145t-237 -84t-241 -30t-217 18l-8 572h-84q-40 2 -63 29t-33 66t-6 83zM432 426q82 -6 150 21t118 74t80 111t38 134 q16 150 -74 250t-312 138v-202l58 2q42 -12 60 -65t15 -113t-22 -111t-49 -61l-62 -2v-176z" />
<glyph unicode="&#xd1;" horiz-adv-x="1368" d="M32 1550q30 26 88 45t123 26t130 1t111 -30l344 -846l-26 854q42 30 120 42t159 9t150 -18t93 -37l-16 -1518q-44 -60 -119 -79t-150 -16t-135 23t-72 38l-282 600l-14 -644q-36 -18 -109 -25t-149 -4t-142 16t-88 35zM194 1846q-10 56 8 90q6 32 42 84t83 98t97 75 t84 15q54 0 89 -28t64 -61t56 -60t65 -27q42 0 68 19t42 47t23 61t13 61q24 36 71 30t92 -35t75 -71t22 -78q-18 -82 -61 -144t-91 -105t-94 -69t-70 -38q-58 -10 -103 14t-84 54t-73 56t-68 22q-46 8 -87 -26t-81 -120q-40 -46 -79 -28t-66 63t-37 101z" />
<glyph unicode="&#xd2;" horiz-adv-x="1330" d="M50 744q0 200 58 366t158 286t234 186t286 66q142 0 244 -67t167 -179t92 -257t16 -296t-59 -299t-133 -267t-206 -197t-277 -90q-128 0 -234 59t-183 160t-120 237t-43 292zM420 2024q0 56 28 94t69 56t84 12t71 -38l180 -304q22 -28 5 -70t-54 -74t-85 -40t-86 30z M504 642q2 -88 28 -151t80 -69q66 -2 113 51t75 134t38 178t3 182t-33 147t-68 76q-50 10 -93 -42t-76 -135t-51 -183t-16 -188z" />
<glyph unicode="&#xd3;" horiz-adv-x="1330" d="M50 744q0 200 58 366t158 286t234 186t286 66q142 0 244 -67t167 -179t92 -257t16 -296t-59 -299t-133 -267t-206 -197t-277 -90q-128 0 -234 59t-183 160t-120 237t-43 292zM471 1774q-17 42 5 70l180 304q28 32 71 38t83 -12t69 -56t29 -94l-212 -334q-40 -38 -87 -30 t-84 40t-54 74zM504 642q2 -88 28 -151t80 -69q66 -2 113 51t75 134t38 178t3 182t-33 147t-68 76q-50 10 -93 -42t-76 -135t-51 -183t-16 -188z" />
<glyph unicode="&#xd4;" horiz-adv-x="1330" d="M50 744q0 200 58 366t158 286t234 186t286 66q142 0 244 -67t167 -179t92 -257t16 -296t-59 -299t-133 -267t-206 -197t-277 -90q-128 0 -234 59t-183 160t-120 237t-43 292zM292 1836l220 320q26 38 71 53t92 12t87 -21t58 -44l180 -304q8 -8 4 -34t-19 -55t-39 -57 t-54 -41t-66 -6t-74 47l-82 146l-96 -164q-28 -26 -71 -26t-85 20t-77 60t-49 94zM504 642q2 -88 28 -151t80 -69q66 -2 113 51t75 134t38 178t3 182t-33 147t-68 76q-50 10 -93 -42t-76 -135t-51 -183t-16 -188z" />
<glyph unicode="&#xd5;" horiz-adv-x="1330" d="M50 744q0 200 58 366t158 286t234 186t286 66q142 0 244 -67t167 -179t92 -257t16 -296t-59 -299t-133 -267t-206 -197t-277 -90q-128 0 -234 59t-183 160t-120 237t-43 292zM176 1846q-10 56 8 90q6 32 42 84t83 98t97 75t84 15q54 0 89 -28t64 -61t56 -60t65 -27 q42 0 68 19t42 47t23 61t13 61q24 36 71 30t92 -35t75 -71t22 -78q-18 -82 -61 -144t-91 -105t-94 -69t-70 -38q-58 -10 -103 14t-84 54t-73 56t-68 22q-46 8 -87 -26t-81 -120q-40 -46 -79 -28t-66 63t-37 101zM504 642q2 -88 28 -151t80 -69q66 -2 113 51t75 134t38 178 t3 182t-33 147t-68 76q-50 10 -93 -42t-76 -135t-51 -183t-16 -188z" />
<glyph unicode="&#xd6;" horiz-adv-x="1330" d="M50 744q0 200 58 366t158 286t234 186t286 66q142 0 244 -67t167 -179t92 -257t16 -296t-59 -299t-133 -267t-206 -197t-277 -90q-128 0 -234 59t-183 160t-120 237t-43 292zM233 1865q-1 47 19 88t62 71t106 36q64 -2 106 -29t62 -68t18 -89t-23 -90t-62 -70t-101 -30 q-62 0 -103 27t-62 67t-22 87zM504 642q2 -88 28 -151t80 -69q66 -2 113 51t75 134t38 178t3 182t-33 147t-68 76q-50 10 -93 -42t-76 -135t-51 -183t-16 -188zM717 1865q-1 47 19 88t62 71t106 36q64 -2 106 -29t62 -68t18 -89t-23 -90t-62 -70t-101 -30q-62 0 -103 27 t-62 67t-22 87z" />
<glyph unicode="&#xd8;" horiz-adv-x="1330" d="M8 126l134 202q-44 90 -68 195t-24 221q0 200 58 366t158 286t234 186t286 66q112 0 204 -46l38 56q48 30 100 30t96 -22t75 -64t35 -98l-108 -160q54 -116 72 -258t1 -287t-67 -285t-134 -251t-201 -183t-267 -84q-140 0 -256 70l-14 -20q-48 -32 -99 -40t-98 4t-88 42 t-67 74zM544 930l172 260q-52 -8 -98 -83t-74 -177zM610 422h2q46 0 83 27t65 73t46 107t28 127z" />
<glyph unicode="&#xd9;" horiz-adv-x="1216" d="M48 1132q2 124 8 230t8 202q6 12 38 29t76 30t97 21t102 6t90 -19t63 -53q6 -118 4 -245t-6 -249t-5 -233t12 -198t42 -143t85 -68q48 4 76 66t40 196t12 349t-10 527q2 10 27 24t61 25t80 17t88 0t81 -26t59 -60q18 -332 12 -576t-35 -416t-82 -282t-131 -173t-182 -87 t-234 -26q-116 0 -191 46t-123 121t-77 170t-49 193q-24 182 -31 330t-5 272zM364 2024q0 56 28 94t69 56t84 12t71 -38l180 -304q22 -28 5 -70t-54 -74t-85 -40t-86 30z" />
<glyph unicode="&#xda;" horiz-adv-x="1216" d="M48 1132q2 124 8 230t8 202q6 12 38 29t76 30t97 21t102 6t90 -19t63 -53q6 -118 4 -245t-6 -249t-5 -233t12 -198t42 -143t85 -68q48 4 76 66t40 196t12 349t-10 527q2 10 27 24t61 25t80 17t88 0t81 -26t59 -60q18 -332 12 -576t-35 -416t-82 -282t-131 -173t-182 -87 t-234 -26q-116 0 -191 46t-123 121t-77 170t-49 193q-24 182 -31 330t-5 272zM415 1774q-17 42 5 70l180 304q28 32 71 38t83 -12t69 -56t29 -94l-212 -334q-40 -38 -87 -30t-84 40t-54 74z" />
<glyph unicode="&#xdb;" horiz-adv-x="1216" d="M48 1132q2 124 8 230t8 202q6 12 38 29t76 30t97 21t102 6t90 -19t63 -53q6 -118 4 -245t-6 -249t-5 -233t12 -198t42 -143t85 -68q48 4 76 66t40 196t12 349t-10 527q2 10 27 24t61 25t80 17t88 0t81 -26t59 -60q18 -332 12 -576t-35 -416t-82 -282t-131 -173t-182 -87 t-234 -26q-116 0 -191 46t-123 121t-77 170t-49 193q-24 182 -31 330t-5 272zM236 1836l220 320q26 38 71 53t92 12t87 -21t58 -44l180 -304q8 -8 4 -34t-19 -55t-39 -57t-54 -41t-66 -6t-74 47l-82 146l-96 -164q-28 -26 -71 -26t-85 20t-77 60t-49 94z" />
<glyph unicode="&#xdc;" horiz-adv-x="1216" d="M48 1132q2 124 8 230t8 202q6 12 38 29t76 30t97 21t102 6t90 -19t63 -53q6 -118 4 -245t-6 -249t-5 -233t12 -198t42 -143t85 -68q48 4 76 66t40 196t12 349t-10 527q2 10 27 24t61 25t80 17t88 0t81 -26t59 -60q18 -332 12 -576t-35 -416t-82 -282t-131 -173t-182 -87 t-234 -26q-116 0 -191 46t-123 121t-77 170t-49 193q-24 182 -31 330t-5 272zM177 1865q-1 47 19 88t62 71t106 36q64 -2 106 -29t62 -68t18 -89t-23 -90t-62 -70t-101 -30q-62 0 -103 27t-62 67t-22 87zM661 1865q-1 47 19 88t62 71t106 36q64 -2 106 -29t62 -68t18 -89 t-23 -90t-62 -70t-101 -30q-62 0 -103 27t-62 67t-22 87z" />
<glyph unicode="&#xdd;" horiz-adv-x="1502" d="M12 1510q12 48 48 76t82 41t97 16t93 -1t70 -10t30 -10l316 -448l236 450q42 14 117 22t153 1t143 -31t87 -74l-424 -626l-12 -834q-36 -44 -98 -75t-137 -38t-155 15t-150 86l8 830zM557 1774q-17 42 5 70l180 304q28 32 71 38t83 -12t69 -56t29 -94l-212 -334 q-40 -38 -87 -30t-84 40t-54 74z" />
<glyph unicode="&#xde;" horiz-adv-x="1108" d="M44 1332q18 20 63 47t100 38t111 -3t96 -72l18 -292q86 106 186 149t192 13t163 -136t99 -296q12 -226 -34 -395t-135 -264t-210 -105t-259 82v-334q-24 -20 -73 -35t-105 -19t-108 7t-80 41zM524 637q-2 -59 6 -111t26 -87t48 -35q38 -2 63 31t38 82t13 108t-11 109 t-33 85t-52 39t-51 -29t-33 -83t-14 -109z" />
<glyph unicode="&#xdf;" horiz-adv-x="1372" d="M64 1412q14 82 87 137t174 80t217 20t218 -42t176 -107t90 -176q0 -36 -4 -79t-15 -86t-30 -81t-47 -64q66 0 145 -26t143 -85t99 -156t11 -237q-18 -114 -93 -199t-184 -143t-244 -90t-275 -40q-26 14 -37 59t-8 99t21 108t52 90q92 -10 163 17t114 74t54 104t-18 108 t-102 89t-199 46l-6 304q52 12 70 33t22 83q-6 46 -36 64t-70 15t-82 -24t-70 -51l24 -1546q-58 -48 -105 -60t-86 -1t-72 38t-65 55z" />
<glyph unicode="&#xe0;" horiz-adv-x="1046" d="M20 504q14 146 70 273t138 214t184 124t208 7v68q8 20 41 33t77 17t94 1t92 -15t71 -34t33 -52v-1044q-6 -38 -39 -61t-77 -36t-95 -15t-93 4t-72 19t-32 31l-4 112q-90 -74 -170 -99t-149 -11t-124 59t-91 109t-53 141t-9 155zM278 1622q0 56 28 94t69 56t84 12t71 -38 l180 -304q22 -28 5 -70t-54 -74t-85 -40t-86 30zM404 542q0 -46 14 -86t39 -62t63 -23t86 31l20 396q-28 12 -66 0t-73 -45t-59 -86t-24 -125z" />
<glyph unicode="&#xe1;" horiz-adv-x="1046" d="M20 504q14 146 70 273t138 214t184 124t208 7v68q8 20 41 33t77 17t94 1t92 -15t71 -34t33 -52v-1044q-6 -38 -39 -61t-77 -36t-95 -15t-93 4t-72 19t-32 31l-4 112q-90 -74 -170 -99t-149 -11t-124 59t-91 109t-53 141t-9 155zM329 1372q-17 42 5 70l180 304 q28 32 71 38t83 -12t69 -56t29 -94l-212 -334q-40 -38 -87 -30t-84 40t-54 74zM404 542q0 -46 14 -86t39 -62t63 -23t86 31l20 396q-28 12 -66 0t-73 -45t-59 -86t-24 -125z" />
<glyph unicode="&#xe2;" horiz-adv-x="1046" d="M20 504q14 146 70 273t138 214t184 124t208 7v68q8 20 41 33t77 17t94 1t92 -15t71 -34t33 -52v-1044q-6 -38 -39 -61t-77 -36t-95 -15t-93 4t-72 19t-32 31l-4 112q-90 -74 -170 -99t-149 -11t-124 59t-91 109t-53 141t-9 155zM150 1434l220 320q26 38 71 53t92 12 t87 -21t58 -44l180 -304q8 -8 4 -34t-19 -55t-39 -57t-54 -41t-66 -6t-74 47l-82 146l-96 -164q-28 -26 -71 -26t-85 20t-77 60t-49 94zM404 542q0 -46 14 -86t39 -62t63 -23t86 31l20 396q-28 12 -66 0t-73 -45t-59 -86t-24 -125z" />
<glyph unicode="&#xe3;" horiz-adv-x="1046" d="M20 504q14 146 70 273t138 214t184 124t208 7v68q8 20 41 33t77 17t94 1t92 -15t71 -34t33 -52v-1044q-6 -38 -39 -61t-77 -36t-95 -15t-93 4t-72 19t-32 31l-4 112q-90 -74 -170 -99t-149 -11t-124 59t-91 109t-53 141t-9 155zM36 1444q-10 56 8 90q6 32 42 84t83 98 t97 75t84 15q54 0 89 -28t64 -61t56 -60t65 -27q42 0 68 19t42 47t23 61t13 61q24 36 71 30t92 -35t75 -71t22 -78q-18 -82 -61 -144t-91 -105t-94 -69t-70 -38q-58 -10 -103 14t-84 54t-73 56t-68 22q-46 8 -87 -26t-81 -120q-40 -46 -79 -28t-66 63t-37 101zM404 542 q0 -46 14 -86t39 -62t63 -23t86 31l20 396q-28 12 -66 0t-73 -45t-59 -86t-24 -125z" />
<glyph unicode="&#xe4;" horiz-adv-x="1046" d="M20 504q14 146 70 273t138 214t184 124t208 7v68q8 20 41 33t77 17t94 1t92 -15t71 -34t33 -52v-1044q-6 -38 -39 -61t-77 -36t-95 -15t-93 4t-72 19t-32 31l-4 112q-90 -74 -170 -99t-149 -11t-124 59t-91 109t-53 141t-9 155zM91 1463q-1 47 19 88t62 71t106 36 q64 -2 106 -29t62 -68t18 -89t-23 -90t-62 -70t-101 -30q-62 0 -103 27t-62 67t-22 87zM404 542q0 -46 14 -86t39 -62t63 -23t86 31l20 396q-28 12 -66 0t-73 -45t-59 -86t-24 -125zM575 1463q-1 47 19 88t62 71t106 36q64 -2 106 -29t62 -68t18 -89t-23 -90t-62 -70 t-101 -30q-62 0 -103 27t-62 67t-22 87z" />
<glyph unicode="&#xe5;" horiz-adv-x="1046" d="M20 504q14 146 70 273t138 214t184 124t208 7v68q8 20 41 33t77 17t94 1t92 -15t71 -34t33 -52v-1044q-6 -38 -39 -61t-77 -36t-95 -15t-93 4t-72 19t-32 31l-4 112q-90 -74 -170 -99t-149 -11t-124 59t-91 109t-53 141t-9 155zM286 1540q0 88 35 152t89 103t121 52 t131 -2t116 -60t80 -121q38 -104 10 -184t-92 -130t-148 -67t-160 4t-129 83t-53 170zM404 542q0 -46 14 -86t39 -62t63 -23t86 31l20 396q-28 12 -66 0t-73 -45t-59 -86t-24 -125zM504 1548q0 -44 21 -65t45 -20t45 22t21 63q0 38 -21 57t-45 19t-45 -19t-21 -57z" />
<glyph unicode="&#xe6;" horiz-adv-x="1552" d="M18 504q12 142 66 250t133 187t174 131t190 85t181 48t146 19q124 8 222 -21t167 -88t108 -141t49 -180q6 -64 -23 -115t-79 -89t-114 -62t-126 -32t-117 -1t-87 33q20 -166 142 -179t322 125q44 6 81 -23t55 -76t10 -101t-56 -100q-106 -100 -211 -145t-202 -46t-185 33 t-156 94q-88 -74 -176 -95t-167 -3t-145 68t-113 119t-71 148t-18 157zM380 476q4 -66 53 -108t117 -40q-6 14 -11 28t-9 30q-8 26 -14 72t-7 104t4 123t21 131q-30 -24 -59 -57t-51 -75t-35 -94t-9 -114zM970 832q4 -42 30 -58t54 -13t52 24t24 55q2 34 -23 49t-55 12 t-56 -21t-26 -48z" />
<glyph unicode="&#xe7;" horiz-adv-x="898" d="M34 600q4 124 49 236t116 196t159 133t180 50t180 -56t156 -183q8 -48 -11 -93t-55 -77t-81 -45t-89 1q-20 60 -45 84t-50 20t-49 -30t-44 -64t-33 -81t-15 -83q-4 -46 13 -90t49 -66t73 -12t87 72q24 36 68 36t87 -21t77 -56t38 -65q-68 -156 -163 -246t-197 -120l2 -20 q54 0 110 -20t103 -57t79 -89t36 -116q16 -212 -135 -301t-451 -37q-34 44 -42 84t-1 73t26 60t39 47q2 -4 25 -10t56 -10t70 -3t67 10t49 28t15 53q-4 40 -33 55t-68 19t-83 6t-79 14t-56 42t-15 94l-6 122q-96 64 -156 194t-52 322zM300 -336q-4 4 4 4q-4 0 -4 -4z" />
<glyph unicode="&#xe8;" horiz-adv-x="1030" d="M18 656q4 82 23 171t63 168t116 140t182 87q122 28 226 4t179 -83t116 -146t39 -185q-4 -94 -70 -162t-158 -104t-190 -38t-164 34q10 -82 52 -126t109 -50t153 25t186 101q44 6 81 -23t55 -76t10 -101t-56 -100q-102 -98 -205 -143t-199 -48t-182 29t-156 88t-119 130 t-71 156q-10 36 -17 103t-3 149zM270 1622q0 56 28 94t69 56t84 12t71 -38l180 -304q22 -28 5 -70t-54 -74t-85 -40t-86 30zM440 858q2 -36 32 -48t65 -9t66 19t35 38q6 34 -23 49t-68 14t-73 -17t-34 -46z" />
<glyph unicode="&#xe9;" horiz-adv-x="1030" d="M18 656q4 82 23 171t63 168t116 140t182 87q122 28 226 4t179 -83t116 -146t39 -185q-4 -94 -70 -162t-158 -104t-190 -38t-164 34q10 -82 52 -126t109 -50t153 25t186 101q44 6 81 -23t55 -76t10 -101t-56 -100q-102 -98 -205 -143t-199 -48t-182 29t-156 88t-119 130 t-71 156q-10 36 -17 103t-3 149zM321 1372q-17 42 5 70l180 304q28 32 71 38t83 -12t69 -56t29 -94l-212 -334q-40 -38 -87 -30t-84 40t-54 74zM440 858q2 -36 32 -48t65 -9t66 19t35 38q6 34 -23 49t-68 14t-73 -17t-34 -46z" />
<glyph unicode="&#xea;" horiz-adv-x="1030" d="M18 656q4 82 23 171t63 168t116 140t182 87q122 28 226 4t179 -83t116 -146t39 -185q-4 -94 -70 -162t-158 -104t-190 -38t-164 34q10 -82 52 -126t109 -50t153 25t186 101q44 6 81 -23t55 -76t10 -101t-56 -100q-102 -98 -205 -143t-199 -48t-182 29t-156 88t-119 130 t-71 156q-10 36 -17 103t-3 149zM142 1434l220 320q26 38 71 53t92 12t87 -21t58 -44l180 -304q8 -8 4 -34t-19 -55t-39 -57t-54 -41t-66 -6t-74 47l-82 146l-96 -164q-28 -26 -71 -26t-85 20t-77 60t-49 94zM440 858q2 -36 32 -48t65 -9t66 19t35 38q6 34 -23 49t-68 14 t-73 -17t-34 -46z" />
<glyph unicode="&#xeb;" horiz-adv-x="1030" d="M18 656q4 82 23 171t63 168t116 140t182 87q122 28 226 4t179 -83t116 -146t39 -185q-4 -94 -70 -162t-158 -104t-190 -38t-164 34q10 -82 52 -126t109 -50t153 25t186 101q44 6 81 -23t55 -76t10 -101t-56 -100q-102 -98 -205 -143t-199 -48t-182 29t-156 88t-119 130 t-71 156q-10 36 -17 103t-3 149zM83 1463q-1 47 19 88t62 71t106 36q64 -2 106 -29t62 -68t18 -89t-23 -90t-62 -70t-101 -30q-62 0 -103 27t-62 67t-22 87zM440 858q2 -36 32 -48t65 -9t66 19t35 38q6 34 -23 49t-68 14t-73 -17t-34 -46zM567 1463q-1 47 19 88t62 71 t106 36q64 -2 106 -29t62 -68t18 -89t-23 -90t-62 -70t-101 -30q-62 0 -103 27t-62 67t-22 87z" />
<glyph unicode="&#xec;" horiz-adv-x="528" d="M22 1622q0 56 28 94t69 56t84 12t71 -38l180 -304q22 -28 5 -70t-54 -74t-85 -40t-86 30zM50 1174q36 30 97 48t124 17t116 -23t77 -70l8 -1032q-18 -50 -75 -73t-123 -23t-127 21t-89 57z" />
<glyph unicode="&#xed;" horiz-adv-x="528" d="M50 1174q36 30 97 48t124 17t116 -23t77 -70l8 -1032q-18 -50 -75 -73t-123 -23t-127 21t-89 57zM71 1372q-17 42 5 70l180 304q28 32 71 38t83 -12t69 -56t29 -94l-212 -334q-40 -38 -87 -30t-84 40t-54 74z" />
<glyph unicode="&#xee;" horiz-adv-x="528" d="M-106 1434l220 320q26 38 71 53t92 12t87 -21t58 -44l180 -304q8 -8 4 -34t-19 -55t-39 -57t-54 -41t-66 -6t-74 47l-82 146l-96 -164q-28 -26 -71 -26t-85 20t-77 60t-49 94zM50 1174q36 30 97 48t124 17t116 -23t77 -70l8 -1032q-18 -50 -75 -73t-123 -23t-127 21 t-89 57z" />
<glyph unicode="&#xef;" horiz-adv-x="528" d="M-165 1463q-1 47 19 88t62 71t106 36q64 -2 106 -29t62 -68t18 -89t-23 -90t-62 -70t-101 -30q-62 0 -103 27t-62 67t-22 87zM50 1174q36 30 97 48t124 17t116 -23t77 -70l8 -1032q-18 -50 -75 -73t-123 -23t-127 21t-89 57zM319 1463q-1 47 19 88t62 71t106 36 q64 -2 106 -29t62 -68t18 -89t-23 -90t-62 -70t-101 -30q-62 0 -103 27t-62 67t-22 87z" />
<glyph unicode="&#xf1;" horiz-adv-x="1160" d="M56 88v1008q6 26 40 47t81 34t100 17t98 -1t74 -21t31 -44l-4 -58q126 84 220 104t163 -7t115 -94t75 -160t44 -203t22 -223t7 -221v-196q-36 -40 -94 -56t-115 -14t-103 22t-56 56q-2 178 -7 327t-32 242t-86 117t-171 -48l6 -638q-16 -28 -50 -46t-76 -27t-87 -8 t-85 11t-70 30t-40 50zM90 1444q-10 56 8 90q6 32 42 84t83 98t97 75t84 15q54 0 89 -28t64 -61t56 -60t65 -27q42 0 68 19t42 47t23 61t13 61q24 36 71 30t92 -35t75 -71t22 -78q-18 -82 -61 -144t-91 -105t-94 -69t-70 -38q-58 -10 -103 14t-84 54t-73 56t-68 22 q-46 8 -87 -26t-81 -120q-40 -46 -79 -28t-66 63t-37 101z" />
<glyph unicode="&#xf2;" horiz-adv-x="1012" d="M53 420q-9 110 11 224t67 221t114 188t149 127t174 38q104 -4 180 -59t123 -142t66 -196t11 -221t-44 -219t-99 -191t-152 -134t-203 -48q-130 8 -215 66t-129 147t-53 199zM262 1622q0 56 28 94t69 56t84 12t71 -38l180 -304q22 -28 5 -70t-54 -74t-85 -40t-86 30z M414 514q4 -54 18 -92t38 -42q32 -8 55 24t37 83t18 113t1 117t-15 93t-32 40q-34 4 -58 -28t-39 -82t-21 -111t-2 -115z" />
<glyph unicode="&#xf3;" horiz-adv-x="1012" d="M53 420q-9 110 11 224t67 221t114 188t149 127t174 38q104 -4 180 -59t123 -142t66 -196t11 -221t-44 -219t-99 -191t-152 -134t-203 -48q-130 8 -215 66t-129 147t-53 199zM313 1372q-17 42 5 70l180 304q28 32 71 38t83 -12t69 -56t29 -94l-212 -334q-40 -38 -87 -30 t-84 40t-54 74zM414 514q4 -54 18 -92t38 -42q32 -8 55 24t37 83t18 113t1 117t-15 93t-32 40q-34 4 -58 -28t-39 -82t-21 -111t-2 -115z" />
<glyph unicode="&#xf4;" horiz-adv-x="1012" d="M53 420q-9 110 11 224t67 221t114 188t149 127t174 38q104 -4 180 -59t123 -142t66 -196t11 -221t-44 -219t-99 -191t-152 -134t-203 -48q-130 8 -215 66t-129 147t-53 199zM134 1434l220 320q26 38 71 53t92 12t87 -21t58 -44l180 -304q8 -8 4 -34t-19 -55t-39 -57 t-54 -41t-66 -6t-74 47l-82 146l-96 -164q-28 -26 -71 -26t-85 20t-77 60t-49 94zM414 514q4 -54 18 -92t38 -42q32 -8 55 24t37 83t18 113t1 117t-15 93t-32 40q-34 4 -58 -28t-39 -82t-21 -111t-2 -115z" />
<glyph unicode="&#xf5;" horiz-adv-x="1012" d="M20 1444q-10 56 8 90q6 32 42 84t83 98t97 75t84 15q54 0 89 -28t64 -61t56 -60t65 -27q42 0 68 19t42 47t23 61t13 61q24 36 71 30t92 -35t75 -71t22 -78q-18 -82 -61 -144t-91 -105t-94 -69t-70 -38q-58 -10 -103 14t-84 54t-73 56t-68 22q-46 8 -87 -26t-81 -120 q-40 -46 -79 -28t-66 63t-37 101zM53 420q-9 110 11 224t67 221t114 188t149 127t174 38q104 -4 180 -59t123 -142t66 -196t11 -221t-44 -219t-99 -191t-152 -134t-203 -48q-130 8 -215 66t-129 147t-53 199zM414 514q4 -54 18 -92t38 -42q32 -8 55 24t37 83t18 113t1 117 t-15 93t-32 40q-34 4 -58 -28t-39 -82t-21 -111t-2 -115z" />
<glyph unicode="&#xf6;" horiz-adv-x="1012" d="M53 420q-9 110 11 224t67 221t114 188t149 127t174 38q104 -4 180 -59t123 -142t66 -196t11 -221t-44 -219t-99 -191t-152 -134t-203 -48q-130 8 -215 66t-129 147t-53 199zM75 1463q-1 47 19 88t62 71t106 36q64 -2 106 -29t62 -68t18 -89t-23 -90t-62 -70t-101 -30 q-62 0 -103 27t-62 67t-22 87zM414 514q4 -54 18 -92t38 -42q32 -8 55 24t37 83t18 113t1 117t-15 93t-32 40q-34 4 -58 -28t-39 -82t-21 -111t-2 -115zM559 1463q-1 47 19 88t62 71t106 36q64 -2 106 -29t62 -68t18 -89t-23 -90t-62 -70t-101 -30q-62 0 -103 27t-62 67 t-22 87z" />
<glyph unicode="&#xf8;" horiz-adv-x="1012" d="M-36 2l124 208q-50 92 -57 208t21 235t86 231t135 195t168 127t189 28q16 -4 30 -7t28 -7l56 94q48 30 100 30t96 -22t75 -64t35 -98l-110 -186q36 -90 44 -197t-9 -215t-60 -209t-109 -178t-156 -123t-200 -44q-22 2 -41 4t-37 6l-56 -96q-48 -32 -99 -40t-98 4t-88 42 t-67 74z" />
<glyph unicode="&#xf9;" horiz-adv-x="1024" d="M59 766q-1 110 5 213t12 185q6 18 33 38t65 36t81 24t82 -1t68 -39t39 -86q-12 -178 -14 -315t16 -220t63 -106t125 31l-18 620q-2 24 43 53t106 41t123 -3t98 -77l8 -1086q-22 -24 -56 -46t-77 -34t-93 -10t-102 26v74q-126 -60 -219 -63t-161 36t-111 113t-69 170 t-36 206t-11 220zM268 1622q0 56 28 94t69 56t84 12t71 -38l180 -304q22 -28 5 -70t-54 -74t-85 -40t-86 30z" />
<glyph unicode="&#xfa;" horiz-adv-x="1024" d="M59 766q-1 110 5 213t12 185q6 18 33 38t65 36t81 24t82 -1t68 -39t39 -86q-12 -178 -14 -315t16 -220t63 -106t125 31l-18 620q-2 24 43 53t106 41t123 -3t98 -77l8 -1086q-22 -24 -56 -46t-77 -34t-93 -10t-102 26v74q-126 -60 -219 -63t-161 36t-111 113t-69 170 t-36 206t-11 220zM319 1372q-17 42 5 70l180 304q28 32 71 38t83 -12t69 -56t29 -94l-212 -334q-40 -38 -87 -30t-84 40t-54 74z" />
<glyph unicode="&#xfb;" horiz-adv-x="1024" d="M59 766q-1 110 5 213t12 185q6 18 33 38t65 36t81 24t82 -1t68 -39t39 -86q-12 -178 -14 -315t16 -220t63 -106t125 31l-18 620q-2 24 43 53t106 41t123 -3t98 -77l8 -1086q-22 -24 -56 -46t-77 -34t-93 -10t-102 26v74q-126 -60 -219 -63t-161 36t-111 113t-69 170 t-36 206t-11 220zM212 1468l220 320q26 38 71 53t92 12t87 -21t58 -44l180 -304q8 -8 4 -34t-19 -55t-39 -57t-54 -41t-66 -6t-74 47l-82 146l-96 -164q-28 -26 -71 -26t-85 20t-77 60t-49 94z" />
<glyph unicode="&#xfc;" horiz-adv-x="1024" d="M59 766q-1 110 5 213t12 185q6 18 33 38t65 36t81 24t82 -1t68 -39t39 -86q-12 -178 -14 -315t16 -220t63 -106t125 31l-18 620q-2 24 43 53t106 41t123 -3t98 -77l8 -1086q-22 -24 -56 -46t-77 -34t-93 -10t-102 26v74q-126 -60 -219 -63t-161 36t-111 113t-69 170 t-36 206t-11 220zM81 1463q-1 47 19 88t62 71t106 36q64 -2 106 -29t62 -68t18 -89t-23 -90t-62 -70t-101 -30q-62 0 -103 27t-62 67t-22 87zM565 1463q-1 47 19 88t62 71t106 36q64 -2 106 -29t62 -68t18 -89t-23 -90t-62 -70t-101 -30q-62 0 -103 27t-62 67t-22 87z" />
<glyph unicode="&#xfd;" horiz-adv-x="1232" d="M-2 1088q18 28 70 68t116 64t133 18t121 -66l142 -772l232 786q38 16 102 22t127 -4t111 -41t52 -87l-636 -1842q-60 -48 -141 -56t-157 5t-133 39t-69 44l312 760zM423 1372q-17 42 5 70l180 304q28 32 71 38t83 -12t69 -56t29 -94l-212 -334q-40 -38 -87 -30t-84 40 t-54 74z" />
<glyph unicode="&#xfe;" horiz-adv-x="1122" d="M48 1556q18 20 63 47t100 38t111 -3t96 -72l18 -292q86 106 186 149t192 13t163 -136t99 -296q12 -226 -34 -395t-135 -264t-210 -105t-259 82v-334q-24 -20 -73 -35t-105 -19t-108 7t-80 41zM528 861q-2 -59 6 -111t26 -87t48 -35q38 -2 63 31t37 82t13 108t-10 109 t-33 85t-52 39q-30 2 -51 -30t-33 -82t-14 -109z" />
<glyph unicode="&#xff;" horiz-adv-x="1232" d="M-2 1088q18 28 70 68t116 64t133 18t121 -66l142 -772l232 786q38 16 102 22t127 -4t111 -41t52 -87l-636 -1842q-60 -48 -141 -56t-157 5t-133 39t-69 44l312 760zM185 1463q-1 47 19 88t62 71t106 36q64 -2 106 -29t62 -68t18 -89t-23 -90t-62 -70t-101 -30 q-62 0 -103 27t-62 67t-22 87zM669 1463q-1 47 19 88t62 71t106 36q64 -2 106 -29t62 -68t18 -89t-23 -90t-62 -70t-101 -30q-62 0 -103 27t-62 67t-22 87z" />
<glyph unicode="&#x152;" horiz-adv-x="1688" d="M50 744q0 180 48 334t131 270t196 191t245 99l954 -2q22 -18 34 -69t6 -108t-33 -107t-81 -64l-532 -8l20 -206l340 -10q20 -8 34 -47t17 -87t-5 -94t-30 -70l-374 -12l8 -310l570 4q40 -54 50 -113t2 -113t-29 -100t-45 -76l-958 -12q-128 0 -232 53t-179 147t-116 224 t-41 286zM506 725q-6 -79 2 -145t33 -109t71 -49h13t15 2v714q-36 -42 -64 -110t-46 -146t-24 -157z" />
<glyph unicode="&#x153;" horiz-adv-x="1586" d="M30 478q8 128 54 261t122 242t175 182t211 81q64 -10 128 -39t112 -71q54 30 124 48q122 28 221 4t171 -83t115 -146t53 -185q6 -64 -23 -115t-79 -89t-114 -62t-126 -32t-117 -1t-87 33q20 -166 142 -179t322 125q44 6 81 -23t55 -76t10 -101t-56 -100 q-102 -96 -203 -141t-196 -50t-181 25t-156 84q-218 -82 -366 -76t-238 70t-126 175t-28 239zM414 466q16 -64 67 -100t117 -24q-2 6 -6 22q-6 26 -13 69t-9 97t2 115t18 125q-38 10 -56 -4q-84 -76 -110 -156t-10 -144zM1032 810q4 -42 30 -58t54 -13t52 24t24 55 q2 34 -23 49t-55 12t-56 -21t-26 -48z" />
<glyph unicode="&#x178;" horiz-adv-x="1502" d="M12 1510q12 48 48 76t82 41t97 16t93 -1t70 -10t30 -10l316 -448l236 450q42 14 117 22t153 1t143 -31t87 -74l-424 -626l-12 -834q-36 -44 -98 -75t-137 -38t-155 15t-150 86l8 830zM319 1865q-1 47 19 88t62 71t106 36q64 -2 106 -29t62 -68t18 -89t-23 -90t-62 -70 t-101 -30q-62 0 -103 27t-62 67t-22 87zM803 1865q-1 47 19 88t62 71t106 36q64 -2 106 -29t62 -68t18 -89t-23 -90t-62 -70t-101 -30q-62 0 -103 27t-62 67t-22 87z" />
<glyph unicode="&#x2c6;" horiz-adv-x="838" d="M52 1434l220 320q26 38 71 53t92 12t87 -21t58 -44l180 -304q8 -8 4 -34t-19 -55t-39 -57t-54 -41t-66 -6t-74 47l-82 146l-96 -164q-28 -26 -71 -26t-85 20t-77 60t-49 94z" />
<glyph unicode="&#x2dc;" horiz-adv-x="1102" d="M70 1444q-10 56 8 90q6 32 42 84t83 98t97 75t84 15q54 0 89 -28t64 -61t56 -60t65 -27q42 0 68 19t42 47t23 61t13 61q24 36 71 30t92 -35t75 -71t22 -78q-18 -82 -61 -144t-91 -105t-94 -69t-70 -38q-58 -10 -103 14t-84 54t-73 56t-68 22q-46 8 -87 -26t-81 -120 q-40 -46 -79 -28t-66 63t-37 101z" />
<glyph unicode="&#x2000;" horiz-adv-x="1125" />
<glyph unicode="&#x2001;" horiz-adv-x="2250" />
<glyph unicode="&#x2002;" horiz-adv-x="1125" />
<glyph unicode="&#x2003;" horiz-adv-x="2250" />
<glyph unicode="&#x2004;" horiz-adv-x="750" />
<glyph unicode="&#x2005;" horiz-adv-x="562" />
<glyph unicode="&#x2006;" horiz-adv-x="375" />
<glyph unicode="&#x2007;" horiz-adv-x="375" />
<glyph unicode="&#x2008;" horiz-adv-x="281" />
<glyph unicode="&#x2009;" horiz-adv-x="450" />
<glyph unicode="&#x200a;" horiz-adv-x="125" />
<glyph unicode="&#x2010;" horiz-adv-x="844" d="M88 530q4 44 16 82t33 63t47 25l518 8q42 -12 60 -65t15 -113t-22 -111t-49 -61l-516 -6q-40 2 -63 29t-33 66t-6 83z" />
<glyph unicode="&#x2011;" horiz-adv-x="844" d="M88 530q4 44 16 82t33 63t47 25l518 8q42 -12 60 -65t15 -113t-22 -111t-49 -61l-516 -6q-40 2 -63 29t-33 66t-6 83z" />
<glyph unicode="&#x2012;" horiz-adv-x="844" d="M88 530q4 44 16 82t33 63t47 25l518 8q42 -12 60 -65t15 -113t-22 -111t-49 -61l-516 -6q-40 2 -63 29t-33 66t-6 83z" />
<glyph unicode="&#x2013;" horiz-adv-x="844" d="M88 530q4 44 16 82t33 63t47 25l518 8q42 -12 60 -65t15 -113t-22 -111t-49 -61l-516 -6q-40 2 -63 29t-33 66t-6 83z" />
<glyph unicode="&#x2014;" horiz-adv-x="2200" d="M89.5 530q11.5 44 47 82t98 63t139.5 25l1536 8q125 -12 178.5 -65t44.5 -113t-65.5 -111t-145.5 -61l-1530 -6q-119 2 -187 29t-97.5 66t-18 83z" />
<glyph unicode="&#x2018;" horiz-adv-x="654" d="M82 1370q18 82 61 142t98 93t115 37t112 -26q52 -28 84 -74t44 -95t5 -97t-36 -82t-78 -48t-119 4q-12 -50 5 -91t44 -72t55 -50t36 -23q-84 -42 -166 -24t-144 76t-95 146t-21 184z" />
<glyph unicode="&#x2019;" horiz-adv-x="724" d="M123 1350q-7 48 5 97t44 94t84 75t112 26t115 -37t98 -93t61 -142q12 -96 -21 -184t-95 -146t-144 -76t-166 24q8 4 36 23t55 50t44 72t5 91q-70 -18 -119 -4t-78 48t-36 82z" />
<glyph unicode="&#x201a;" horiz-adv-x="724" d="M89 294q-7 48 5 97t44 94t84 75t112 26t115 -37t98 -93t61 -142q12 -96 -21 -184t-95 -146t-144 -76t-166 24q8 4 36 23t55 50t44 72t5 91q-70 -18 -119 -4t-78 48t-36 82z" />
<glyph unicode="&#x201c;" horiz-adv-x="1196" d="M82 1186q-12 96 21 184t95 146t144 76t166 -24q-8 -4 -36 -23t-55 -50t-44 -72t-5 -91q70 18 119 4t78 -48t36 -82t-5 -97t-44 -95t-84 -74q-52 -30 -112 -26t-115 37t-98 93t-61 142zM638 1230q-12 96 21 184t95 146t144 76t166 -24q-8 -4 -36 -23t-55 -50t-44 -72 t-5 -91q70 18 119 4t78 -48t36 -82t-5 -97t-44 -94t-84 -75t-112 -26t-115 37t-98 93t-61 142z" />
<glyph unicode="&#x201d;" horiz-adv-x="1288" d="M123 1306q-7 48 5 97t44 94t84 75t112 26t115 -37t98 -93t61 -142q12 -96 -21 -184t-95 -146t-144 -76t-166 24q8 4 36 23t55 50t44 72t5 91q-70 -18 -119 -4t-78 48t-36 82zM679 1350q-7 48 5 97t44 94t84 75t112 26t115 -37t98 -93t61 -142q12 -96 -21 -184t-95 -146 t-144 -76t-166 24q8 4 36 23t55 50t44 72t5 91q-70 -18 -119 -4t-78 48t-36 82z" />
<glyph unicode="&#x201e;" horiz-adv-x="1288" d="M61 218q-7 48 5 97t44 94t84 75t112 26t115 -37t98 -93t61 -142q12 -96 -21 -184t-95 -146t-144 -76t-166 24q8 4 36 23t55 50t44 72t5 91q-70 -18 -119 -4t-78 48t-36 82zM617 262q-7 48 5 97t44 94t84 75t112 26t115 -37t98 -93t61 -142q12 -96 -21 -184t-95 -146 t-144 -76t-166 24q8 4 36 23t55 50t44 72t5 91q-70 -18 -119 -4t-78 48t-36 82z" />
<glyph unicode="&#x2022;" horiz-adv-x="1056" d="M331 775q-1 81 35 154t108 124t182 61q112 -2 184 -50t107 -119t32 -154t-40 -155t-108 -121t-175 -53q-106 0 -178 47t-109 116t-38 150z" />
<glyph unicode="&#x2026;" horiz-adv-x="1530" d="M77 179q-1 47 19 88t62 71t106 36q64 0 106 -28t62 -69t18 -89t-23 -90t-62 -70t-101 -30q-62 0 -103 27t-62 67t-22 87zM587 179q-1 47 19 88t62 71t106 36q64 0 106 -28t62 -69t18 -89t-23 -90t-62 -70t-101 -30q-62 0 -103 27t-62 67t-22 87zM1097 179q-1 47 19 88 t62 71t106 36q64 0 106 -28t62 -69t18 -89t-23 -90t-62 -70t-101 -30q-62 0 -103 27t-62 67t-22 87z" />
<glyph unicode="&#x202f;" horiz-adv-x="450" />
<glyph unicode="&#x205f;" horiz-adv-x="562" />
<glyph unicode="&#x20ac;" horiz-adv-x="1746" d="M56 642q-2 38 22 72t74 58h72q0 20 1 39t3 41h-76q-46 36 -70 76t-26 79t22 74t74 59h144q52 124 165 227t255 171t299 96t297 1t249 -115t157 -250q6 -52 -27 -98t-83 -74t-106 -33t-94 25q-70 90 -152 129t-166 40t-164 -31t-146 -88h228q18 -8 43 -42t37 -78t-3 -90 t-77 -78h-410q-6 -42 -6 -80h416q18 -8 43 -41t37 -76t-3 -88t-77 -77h-288q58 -56 135 -89t166 -31t187 46t196 144q20 22 51 17t63 -28t61 -61t43 -81t11 -88t-35 -81q-120 -116 -252 -178t-264 -76t-258 16t-234 96t-190 166t-128 228h-120q-46 36 -70 75t-26 77z" />
<glyph unicode="&#x25fc;" horiz-adv-x="1230" d="M0 0v1230h1230v-1230h-1230z" />
</font>
</defs>
</svg>
