<?xml version="1.0" standalone="no"?>
<!DOCTYPE svg PUBLIC "-//W3C//DTD SVG 1.1//EN" "http://www.w3.org/Graphics/SVG/1.1/DTD/svg11.dtd" >
<svg xmlns="http://www.w3.org/2000/svg">
<metadata>Generated by IcoMoon</metadata>
<defs>
<font id="icomoon" horiz-adv-x="1024">
<font-face units-per-em="1024" ascent="803" descent="-221" />
<missing-glyph horiz-adv-x="1024" />
<glyph unicode="&#x20;" horiz-adv-x="256" d="" />
<glyph unicode="&#x2190;" glyph-name="untitled1185" d="M965.5 288q0-20.5-19.5-20.5h-777q114-81 144-216 3.5-15.5 3.5-17.5 0-12-10.5-13.5h-20.5q-7 0-10 9.5-16.5 87.5-71 151.75t-139 96.25q-8 3-8 10t8 11.5l23 9q141 61 181.5 214 1.5 8 4.75 20.25t13.25 13.25q-4.5-0.5 18-0.5 10.5 0 10.5-13.5 0-2-3.5-17.5-29.5-133-144-216h777q19.5 0 19.5-20.5z" />
<glyph unicode="&#x2191;" glyph-name="untitled1186" horiz-adv-x="512" d="M235.5 597q-67.5-111.5-207-146.5-10.5 0-11.5 11.5 0.5-5.5 0.5 20 0 6.5 7 9.5 11 3 32.5 9.5 66 23 114.75 75.25t66.25 119.25q1.5 11.5 6.5 33.5 3 9 12 9t11-9q2-11 6.5-33 17.5-67.5 66.25-119.75t114.75-75.25q11-3 32.5-9.5 7-2 7-32 0-9-11-9l-3 1q-51 14-80 29.5-79 42-124 116v-740.5q0-18.5-20.5-18.5t-20.5 18.5v740.5z" />
<glyph unicode="&#x2192;" glyph-name="untitled1187" d="M953 302.5q12.5-5.5 12.5-13.5t-7.5-11l-23-9q-95-41.5-148-132.5-20.5-35-39.5-106.5-1-3.5-4-6.5t-26.5-3q-10.5 0-10.5 13.5 0 1 4 18 32.5 137 143.5 215.5h-777q-19.5 0-19.5 20.5t19.5 20.5h777q-77 55.5-119 144-28.5 60.5-28.5 89.5 0 12 10.5 14-1.5-0.5 20.5-0.5 7.5 0 10-9.5 7-27.5 27-81.5 52.5-108.5 158.5-155z" />
<glyph unicode="&#x2193;" glyph-name="untitled1188" horiz-adv-x="512" d="M276.5-21q68 111.5 207 146.5 11 0 11-9 0-30-7-32-11-3-32.5-9.5-66-23-114.75-75.25t-66.25-119.75q-2-11-6.5-33-2-9-11-9t-12 9q-2 11.5-6.5 33.5-17.5 67-66.25 119.25t-114.75 75.25q-11 3-32.5 9.5-7 3-7 9.5 0 25.5-0.5 20 1 11.5 11.5 11.5l3-1q52-14.5 80.5-29.5 78.5-41.5 123.5-116v740.5q0 18.5 20.5 18.5t20.5-18.5v-740.5z" />
<glyph unicode="&#x2194;" glyph-name="untitled1189" d="M958.5 299.5q7-4 7-11.25t-7-10.25q-111.5-39.5-171.5-141.5-21.5-37-39.5-106.5-1-3.5-4-6.5t-26.5-3q-10.5 0-10.5 13.5 0 1 4 18 32.5 137 143.5 215.5h-685q114-81 144-216 3.5-15.5 3.5-17.5 0-12-10.5-13.5h-20.5q-7 0-10 9.5-17.5 88.5-71.5 152.5t-138.5 95.5q-8 3-8 10.25t29.5 19.75q69 29.5 116.75 85.75t66.75 130.75q1.5 7.5 5 21.5 2.5 9 12.5 10-4.5-0.5 18-0.5 10.5 0 10.5-13.5 0-2-3.5-17.5-29.5-133-144-216h685q-77 55.5-119 144-28.5 60.5-28.5 89.5 0 12 10.5 13.5h20.5q7.5 0 10-9.5 24.5-95.5 72-151.5t112.5-84.5q9.5-3 26.5-10.5z" />
<glyph unicode="&#x2195;" glyph-name="untitled1190" horiz-adv-x="512" d="M276.5-20.5q67.5 111 207 146 10 0 11.5-12-0.5 4.5-0.5-19.5 0-7-7-9-38-11.5-58.75-20.25t-45.25-26.25q-86.5-62-111-164.5-1.5-9-5-27-2.5-9-11.5-9t-11 9l-9 40q-7 31-30 68.5-54.5 88.5-152 121.5-10 2-29.5 8-7 2.5-7 31.5 0 9 11 9l3-1q51-14 79-28.5 79-41 125-116.5v617q-68-111.5-207-146-11 0-11 31.5 0 6.5 7 9 10 2.5 29.5 8 97 33 152 122 22 36 32.5 77 1.5 10.5 6 31 2.5 9 11.75 9t11.25-9q2-11 6.5-33 17-66.5 65.75-118.75t110.25-75.25l37.5-11q7-2.5 7-31.5 0-9-11-9l-3 1q-138.5 38-204 145v-617z" />
<glyph unicode="&#x2196;" glyph-name="untitled1191" d="M962-140q0-22-22-22-7 0-12 5l-778 778q9.5-38.5 9.5-75 0-86.5-50.5-172.5-4-6.5-9.25-6.5t-15.25 10-10 15l17.5 34.5q28 56 28 124.5 0 80-38 141.5-20 33-20 34 0 11.5 12 11.5l33.5-20q63.5-38 136.5-38t129.5 28q35.5 17.5 33.5 17.5 5 0 15.25-9.5t10.25-15.5-6-9.5q-82.5-50-173-50-38 0-74.5 9l778-778q5-5 5-12z" />
<glyph unicode="&#x2197;" glyph-name="untitled1192" d="M962 726.5q0-1-20-34-38-61.5-38-135.75t28-130.25l17.5-34.5q0-5-10-15t-15.25-10-9.25 6.5q-50.5 86-50.5 172.5 0 36.5 9.5 75l-778-778q-5-5-12-5-22 0-22 22 0 7 5 12l778 778q-36.5-9-74.5-9-90.5 0-173 50-6 3.5-6 9.5t10.25 15.5 15.25 9.5q-2 0 33.5-17.5 56.5-28 129.5-28t136.5 38l33.5 20q12 0 12-11.5z" />
<glyph unicode="&#x2198;" glyph-name="untitled1193" d="M962-150.5q0-11.5-12-11.5l-33.5 20q-63.5 38-136.5 38t-129.5-28q-35.5-17.5-33.5-17.5-5 0-15.25 9.5t-10.25 15.5 6 9.5q82.5 50 173 50 38 0 74.5-9l-778 778q-5 5-5 12 0 22 22 22 7 0 12-5l778-778q-9.5 38.5-9.5 75 0 86.5 50.5 172.5 4 6.5 9.25 6.5t15.25-10 10-15l-17.5-34.5q-28-56-28-124.5 0-80 38-141.5 20-33 20-34z" />
<glyph unicode="&#x2199;" glyph-name="untitled1194" d="M962 716q0-7-5-12l-778-778q36.5 9 74.5 9 90.5 0 173-50 6-3.5 6-9.5t-10.25-15.5-15.25-9.5q2 0-33.5 17.5-56.5 28-129.5 28t-136.5-38l-33.5-20q-12 0-12 11.5 0 1 20 34 38 61.5 38 135.75t-28 130.25l-17.5 34.5q0 5 10 15t15.25 10 9.25-6.5q50.5-86 50.5-172.5 0-36.5-9.5-75l778 778q5 5 12 5 22 0 22-22z" />
<glyph unicode="&#x219c;" glyph-name="untitled1197" d="M990 288q0-7-5.5-13.5-52.5-60.5-82-83.5-50.5-39-102.5-39t-103 39q-29.5 23-80.25 80.5t-76.75 78q-41.5 32.5-82 32.5t-120.25-57.25-132.25-57.25h-36.5q122-87.5 147.5-233.5 0-13.5-10-13.5h-20.5q-9 0-10.5 9.5-15.5 85.5-72.25 152.25t-138.25 94.25q-7.5 4-7.5 11.75t7.5 9.75q81.5 28.5 138.25 95.5t72.25 152.5q1.5 9.5 10.5 9.5h20.5q10 0 10-13.5-25.5-146-147.5-233.5h36.5q42 0 120.25 57.25t131.5 57.25 103.75-38.5q31.5-24 81.25-80.5t76.25-78q42-33 81.5-33t81 33q25 20.5 74 75.5 6 7 15.5 7 19.5 0 19.5-20.5z" />
<glyph unicode="&#x219d;" glyph-name="untitled1198" d="M990 288q0-8-7.5-10-81.5-28.5-138.25-95.5t-72.25-152.5q-1.5-9.5-10.5-9.5h-20.5q-10 0-10 13.5 25.5 146 147.5 233.5h-36.5q-42 0-120.25-57.25t-131.5-57.25-103.75 38.5q-31.5 24-81.25 80.5t-76.25 78q-42 33-81.5 33t-81-33q-25-20.5-74-75.5-6-7-15.5-7-19.5 0-19.5 20.5 0 7 5.5 13.5 52.5 60.5 82 83.5 50.5 39 102.5 39t103-39q29.5-23 80.25-80.5t76.75-78q41.5-32.5 82-32.5t120.25 57.25 132.25 57.25h36.5q-122 87.5-147.5 233.5 0 13.5 10 13.5h20.5q9 0 10.5-9.5 15.5-85.5 72.25-152.25t138.25-94.25q7.5-3.5 7.5-11.5z" />
<glyph unicode="&#x219e;" glyph-name="untitled1199" d="M965.5 288q0-20.5-19.5-20.5h-582q114-81 144-216 3.5-15.5 3.5-17.5 0-12-10.5-13.5h-20.5q-7 0-10 9.5-16.5 87.5-67.25 147.5t-117.25 90h-117q114-81 144-216 3.5-15.5 3.5-17.5 0-12-10.5-13.5h-20.5q-7 0-10 9.5-16.5 87.5-71 151.75t-139 96.25q-8 3-8 10t8 11.5l23 9q141 61 181.5 214 1.5 8 4.75 20.25t13.25 13.25q-4.5-0.5 18-0.5 10.5 0 10.5-13.5 0-2-3.5-17.5-29.5-133-144-216h114.5q141 61 181.5 214 1.5 8 4.75 20.25t13.25 13.25q-4.5-0.5 18-0.5 10.5 0 10.5-13.5 0-2-3.5-17.5-29.5-133-144-216h582q19.5 0 19.5-20.5z" />
<glyph unicode="&#x219f;" glyph-name="untitled1200" horiz-adv-x="512" d="M235.5 597q-67.5-111.5-207-146.5-10.5 0-11.5 11.5 0.5-5.5 0.5 20 0 6.5 7 9.5 11 3 32.5 9.5 66 23 114.75 75.25t66.25 119.25q1.5 11.5 6.5 33.5 3 9 12 9t11-9q2-11 6.5-33 17.5-67.5 66.25-119.75t114.75-75.25q11-3 32.5-9.5 7-2 7-32 0-9-11-9l-3 1q-51 14-80 29.5-79 42-124 116v-70q19-64.5 67-114.25t111.5-71.75q11-3 32.5-9.5 7-2 7-32 0-9-11-9l-3 1q-51 14-80 29.5-79 42-124 116v-580.5q0-18.5-20.5-18.5t-20.5 18.5v580.5q-67.5-111.5-207-146.5-10.5 0-11.5 11.5 0.5-5.5 0.5 20 0 6.5 7 9.5 11 3 32.5 9.5 63.5 22 111.5 71.75t67 113.75v70.5z" />
<glyph unicode="&#x21a0;" glyph-name="untitled1201" d="M965.5 288q0-7-8-10-129.5-49-184.5-167-11.5-24.5-16.5-45l-9-36q-3-9.5-10-9.5h-20.5q-10.5 1.5-10.5 13.5 0 2 3.5 17.5 30 135 144 216h-117q-66.5-30-113-85-47-55.5-66-129-1.5-8-5-20.5t-10.5-12.5h-20.5q-10.5 1.5-10.5 13.5 0 2 3.5 17.5 30 135 144 216h-582q-19.5 0-19.5 20.5t19.5 20.5h582q-114.5 83-144 216-3.5 15.5-3.5 17.5 0 13.5 10.5 13.5 22.5 0 18 0.5 10-1 12-9.5t6-24q19-73 66.25-128.75t115.25-85.25h114.5q-114.5 83-144 216-3.5 15.5-3.5 17.5 0 13.5 10.5 13.5 22.5 0 18 0.5 10-1 12-9.5t6-24q19-73 66.25-128.75t115.25-85.25q8-2.5 23-9 8-4.5 8-11.5z" />
<glyph unicode="&#x21a1;" glyph-name="untitled1202" horiz-adv-x="512" d="M276.5-21q68 111.5 207 146.5 11 0 11-9 0-30-7-32-11-3-32.5-9.5-66-23-114.75-75.25t-66.25-119.75q-2-11-6.5-33-2-9-11-9t-12 9q-2 11.5-6.5 33.5-17.5 67-66.25 119.25t-114.75 75.25q-11 3-32.5 9.5-7 3-7 9.5 0 25.5-0.5 20 1 11.5 11.5 11.5l3-1q52-14.5 80.5-29.5 78.5-41.5 123.5-116v70.5q-19 64-67 113.75t-111.5 71.75q-11 3-32.5 9.5-7 3-7 9.5 0 25.5-0.5 20 1 11.5 11.5 11.5l3-1q52-14.5 80.5-29.5 78.5-41.5 123.5-116v580.5q0 18.5 20.5 18.5t20.5-18.5v-580.5q68 111.5 207 146.5 11 0 11-9 0-30-7-32-11-3-32.5-9.5-63.5-22-111.5-71.75t-67-114.25v-70z" />
<glyph unicode="&#x21a2;" glyph-name="untitled1203" d="M981.5 34q0-13.5-10.5-13.5-22.5 0-18-0.5-10 1-12 9.5t-6 24q-19 73-66.25 128.75t-115.25 85.25h-584.5q114-81 144-216 3.5-15.5 3.5-17.5 0-12-10.5-13.5h-20.5q-7 0-10 9.5-16.5 87.5-71 151.75t-139 96.25q-8 3-8 10t8 11.5l23 9q141 61 181.5 214 1.5 8 4.75 20.25t13.25 13.25q-4.5-0.5 18-0.5 10.5 0 10.5-13.5 0-2-3.5-17.5-29.5-133-144-216h584.5q141 61 181.5 214 1.5 8 4.75 20.25t13.25 13.25q-4.5-0.5 18-0.5 10.5 0 10.5-13.5 0-2-3.5-17.5-13-59-46.5-112-48.5-77-123.5-124.5 75-47.5 123.5-124.5 33.5-53 46.5-112 3.5-15.5 3.5-17.5z" />
<glyph unicode="&#x21a3;" glyph-name="untitled1204" d="M981.5 288q0-7-8-10-129.5-49-184.5-167-11.5-24.5-16.5-45l-9-36q-3-9.5-10-9.5h-20.5q-10.5 1.5-10.5 13.5 0 2 3.5 17.5 30 135 144 216h-584.5q-141-61-181.5-214-1.5-8-4.75-20.25t-13.25-13.25q4.5 0.5-18 0.5-10.5 0-10.5 13.5 0 2 3.5 17.5 13 59 46.5 112 48.5 77 123.5 124.5-75 47.5-123.5 124.5-33.5 53-46.5 112-3.5 15.5-3.5 17.5 0 13.5 10.5 13.5 22.5 0 18 0.5 10-1 12-9.5t6-24q19-73 66.25-128.75t115.25-85.25h584.5q-114.5 83-144 216-3.5 15.5-3.5 17.5 0 13.5 10.5 13.5 22.5 0 18 0.5 10-1 12-9.5t6-24q19-73 66.25-128.75t115.25-85.25q8-2.5 23-9 8-4.5 8-11.5z" />
<glyph unicode="&#x21a4;" glyph-name="untitled1205" d="M982.5 19q0-31-20.5-31t-20.5 31v248.5h-772.5q114-81 144-216 3.5-15.5 3.5-17.5 0-12-10.5-13.5h-20.5q-7 0-10 9.5-16.5 87.5-71 151.75t-139 96.25q-8 3-8 10t8 11.5l23 9q141 61 181.5 214 1.5 8 4.75 20.25t13.25 13.25q-4.5-0.5 18-0.5 10.5 0 10.5-13.5 0-2-3.5-17.5-29.5-133-144-216h772.5v249q0 30.5 20.5 30.5t20.5-30.5v-538.5z" />
<glyph unicode="&#x21a5;" glyph-name="untitled1206" horiz-adv-x="512" d="M235.5 597q-67.5-111.5-207-146.5-10.5 0-11.5 11.5 0.5-5.5 0.5 20 0 6.5 7 9.5 11 3 32.5 9.5 66 23 114.75 75.25t66.25 119.25q1.5 11.5 6.5 33.5 3 9 12 9t11-9q2-11 6.5-33 17.5-67.5 66.25-119.75t114.75-75.25q11-3 32.5-9.5 7-2 7-32 0-9-11-9l-3 1q-51 14-80 29.5-79 42-124 116v-740.5q0-18.5-20.5-18.5t-20.5 18.5v740.5zM463 800q31.5 0 31.5-20.25t-31.5-20.25h-414q-31.5 0-31.5 20.25t31.5 20.25h414z" />
<glyph unicode="&#x21a6;" glyph-name="untitled1207" d="M953 302.5q12.5-5.5 12.5-13.5t-7.5-11l-23-9q-95-41.5-148-132.5-20.5-35-39.5-106.5-1-3.5-4-6.5t-26.5-3q-10.5 0-10.5 13.5 0 1 4 18 32.5 137 143.5 215.5h-771.5v-248.5q0-31-20.5-31t-20.5 31v538.5q0 30.5 20.5 30.5t20.5-30.5v-249h771.5q-77 55.5-119 144-28.5 60.5-28.5 89.5 0 12 10.5 14-1.5-0.5 20.5-0.5 7.5 0 10-9.5 7-27.5 27-81.5 52.5-108.5 158.5-155z" />
<glyph unicode="&#x21a7;" glyph-name="untitled1208" horiz-adv-x="512" d="M276.5-21q68 111.5 207 146.5 11 0 11-9 0-30-7-32-11-3-32.5-9.5-66-23-114.75-75.25t-66.25-119.75q-2-11-6.5-33-2-9-11-9t-12 9q-2 11.5-6.5 33.5-17.5 67-66.25 119.25t-114.75 75.25q-11 3-32.5 9.5-7 3-7 9.5 0 25.5-0.5 20 1 11.5 11.5 11.5l3-1q52-14.5 80.5-29.5 78.5-41.5 123.5-116v740.5q0 18.5 20.5 18.5t20.5-18.5v-740.5zM463-183.5q31.5 0 31.5-20.25t-31.5-20.25h-414q-31.5 0-31.5 20.25t31.5 20.25h414z" />
<glyph unicode="&#x21a8;" glyph-name="untitled1209" horiz-adv-x="512" d="M276.5-20.5q67.5 111 207 146 10 0 11.5-12-0.5 4.5-0.5-19.5 0-7-7-9-38-11.5-58.75-20.25t-45.25-26.25q-86.5-62-111-164.5-1.5-9-5-27-2.5-9-11.5-9t-11 9l-9 40q-7 31-30 68.5-54.5 88.5-152 121.5-10 2-29.5 8-7 2.5-7 31.5 0 9 11 9l3-1q51-14 79-28.5 79-41 125-116.5v617q-68-111.5-207-146-11 0-11 31.5 0 6.5 7 9 10 2.5 29.5 8 97 33 152 122 22 36 32.5 77 1.5 10.5 6 31 2.5 9 11.75 9t11.25-9q2-11 6.5-33 17-66.5 65.75-118.75t110.25-75.25l37.5-11q7-2.5 7-31.5 0-9-11-9l-3 1q-138.5 38-204 145v-617zM463-183.5q31.5 0 31.5-20.25t-31.5-20.25h-414q-31.5 0-31.5 20.25t31.5 20.25h414z" />
<glyph unicode="&#x21a9;" glyph-name="untitled1210" d="M812 581l-44.5-5q-20.5 0-20.5 22 0 24 65 24 174 0 174-177.5 0-122-97-158-52-19-200.5-19h-519.5q111-79 144-216 3.5-14.5 3.5-17.5 0-14-18.75-14t-21.5 9-6.25 24.5q-18.5 73-67.25 130.5t-137.25 94q-8 3.5-8 10.5t31 20q66.5 28 114.5 85 57 67.5 70.5 147 3.5 11.5 8 13.5t10 2q25 0 25-14 0-3-3.5-17.5-32.5-135-144-216h579.5q92 0 135.5 22 61 31 61 114 0 71-31 103.75t-102 32.75z" />
<glyph unicode="&#x21aa;" glyph-name="untitled1211" d="M276 576l-44.5 5q-71 0-102-32.75t-31-103.75q0-83 61-114 43.5-22 135.5-22h579.5q-111.5 81-144 216-3.5 14.5-3.5 17.5 0 14 25 14 12 0 16-10 2-8 5.5-23.5 18.5-72 66.75-129t114.75-85q31-13 31-20t-8-10.5q-88.5-36.5-137.25-94t-67.25-130.5q-1.5-8-5.5-23.5-3.5-10-22.25-10t-18.75 14q0 3 3.5 17.5 33 137 144 216h-519.5q-148.5 0-200.5 19-97 36-97 158 0 177.5 174 177.5 65 0 65-24 0-22-20.5-22z" />
<glyph unicode="&#x21af;" glyph-name="untitled1216" d="M962 741q0-10.5-9-15.5l-496-286.5 295-200-556.5-321.5q135.5-3 228-103.5 4-4.5 4-9.5t-11-12-18.5-7q-0.5 0-30 26-78 69-187.5 69-38 0-73.75-10.5t-33.75-10.5q-11 0-11 11 0 4.5 29 31.5 83 77.5 83 203 0 27.5-5 51l-8 35.5q0 6 11.25 13.25t17.5 7.25 9.25-9q14.5-44.5 14.5-100.5 0-79.5-38.5-149.5l500.5 289.5-294.5 200 551.5 318.5q3.5 2 8.5 2 21 0 21-22z" />
<glyph unicode="&#x21b0;" glyph-name="untitled1217" horiz-adv-x="512" d="M453 17.5q0-20.5-20.5-20.5t-20.5 20.5v526h-263.5q63-53.5 89-125.5 1.5-4 1.5-7.5 0-19.5-21-19.5-12 0-17 11l-13.5 31q-38 74.5-115 118-13.5 7.5-13.5 13t13.5 13q77.5 44 115 118.5 4 10 12.5 29.5 6 13 18 13 21 0 21-19.5 0-3.5-1.5-7.5-26-73-89.5-126.5h284.5q20.5 0 20.5-20.5v-546.5z" />
<glyph unicode="&#x21b1;" glyph-name="untitled1218" horiz-adv-x="512" d="M453 564q0-5.5-13.5-13-77-43.5-115-118l-12.5-29q-6-13-18-13-21 0-21 19.5 0 3.5 1.5 7.5 26 72 89 125.5h-263.5v-526q0-20.5-20.5-20.5t-20.5 20.5v546.5q0 20.5 20.5 20.5h284.5q-63.5 53.5-89.5 126.5-1.5 4-1.5 7.5 0 19.5 21 19.5 12 0 17-11.5l13.5-31q37.5-74.5 115-118.5 13.5-7.5 13.5-13z" />
<glyph unicode="&#x21b2;" glyph-name="untitled1219" horiz-adv-x="512" d="M453 171q0-20.5-20.5-20.5h-284.5q63.5-53.5 89.5-126.5 1.5-4 1.5-7.5 0-19.5-21-19.5-12 0-17 11.5l-13.5 31q-37.5 74.5-115 118.5-13.5 7.5-13.5 13t13.5 13q77 43.5 115 118l12.5 29q6 13 18 13 21 0 21-19.5 0-3.5-1.5-7.5-26-72-89-125.5h263.5v526q0 20.5 20.5 20.5t20.5-20.5v-546.5z" />
<glyph unicode="&#x21b3;" glyph-name="untitled1220" horiz-adv-x="512" d="M453 171q0-5.5-13.5-13-77.5-44-115-118.5-4-10-12.5-29.5-6-13-18-13-21 0-21 19.5 0 3.5 1.5 7.5 26 73 89.5 126.5h-284.5q-20.5 0-20.5 20.5v546.5q0 20.5 20.5 20.5t20.5-20.5v-526h263.5q-63 53.5-89 125.5-1.5 4-1.5 7.5 0 19.5 21 19.5 12 0 17-11l13.5-31q38-74.5 115-118 13.5-7.5 13.5-13z" />
<glyph unicode="&#x21b4;" glyph-name="untitled1221" horiz-adv-x="512" d="M453 156q0-12-11.5-17l-31-13.5q-74.5-37.5-118.5-115-7.5-13.5-13-13.5t-13 13.5q-43.5 77-118 115l-29 12.5q-13 6-13 18 0 21 19.5 21 3.5 0 7.5-1.5 72-26 125.5-89v610.5h-179q-20.5 0-20.5 20.5t20.5 20.5h199.5q20.5 0 20.5-20.5v-631.5q53.5 63.5 126.5 89.5 4 1.5 7.5 1.5 19.5 0 19.5-21z" />
<glyph unicode="&#x21b5;" glyph-name="untitled1222" d="M874 288q0-20.5-20.5-20.5h-684.5q114-81 144-216 3.5-15.5 3.5-17.5 0-12-10.5-13.5h-20.5q-7 0-10 9.5-16.5 87.5-71 151.75t-139 96.25q-8 3-8 10t8 11.5l23 9q141 61 181.5 214 1.5 8 4.75 20.25t13.25 13.25q-4.5-0.5 18-0.5 10.5 0 10.5-13.5 0-2-3.5-17.5-29.5-133-144-216h664v409q0 20.5 20.5 20.5t20.5-20.5v-429.5z" />
<glyph unicode="&#x21b6;" glyph-name="untitled1223" d="M986-1q0-22.5-20.5-22.5t-20.5 18.5q0 80-24.5 160-38.5 125.5-122 201.5-92 84-216 84-147.5 0-254.75-103.75t-108.75-250.75q53.5 63.5 126.5 89.5 4 1.5 7.5 1.5 19.5 0 19.5-21 0-12-11.5-17l-31-13.5q-74.5-37.5-118.5-115-7.5-13.5-13-13.5t-13 13.5q-43.5 77-118 115l-29 12.5q-13 6-13 18 0 21 19.5 21 3.5 0 7.5-1.5 72-26 125.5-89 1 164 120.25 279.5t284.25 115.5q180.5 0 297-154.5 106.5-141.5 106.5-328z" />
<glyph unicode="&#x21b7;" glyph-name="untitled1224" d="M998.5 156q0-12-11.5-17l-30.5-13.5q-74.5-38-118-115-7.5-13.5-13-13.5t-13 13.5q-44 77.5-118.5 115-10 4-29.5 12.5-13 6-13 18 0 21 19.5 21 3.5 0 7.5-1.5 73-26 126.5-89.5-1.5 147-108.75 250.75t-254.75 103.75q-124 0-216-84-83.5-76-122-201.5-24.5-80-24.5-160 0-18.5-20.5-18.5t-20.5 22.5q0 186.5 106.5 328 116.5 154.5 297 154.5 165 0 284.25-115.5t120.25-279.5q53.5 63 125.5 89 4 1.5 7.5 1.5 19.5 0 19.5-21z" />
<glyph unicode="&#x21ba;" glyph-name="untitled1227" horiz-adv-x="795" d="M758 288q0-148.5-105.75-254.75t-254.5-106.25-254.75 106-106 255q0 102.5 55.75 192.75t148.25 132.25q4.5 2.5 9 2.5 19.5 0 19.5-21 0-12.5-11.5-17.5-82-37.5-131.5-117.75t-49.5-171.25q0-132.5 94.25-226.75t226.5-94.25 226.25 94.5 94 226.5q0 91.5-48.5 169.5t-129.5 118q19-54.5 19-92.5 0.5-1.5 0.5-3.5 0-35.5-4.5-60-2-10.5-11.5-14.75t-19.5 1.5-8.5 18 3.5 33.75q0.5 8.5 0.5 16.5 0 74-40.5 143.5-8 13.5-5.5 18 3 4.5 18.5 4.5h2q87 0 156.5 45l25.5 18.5q6.5 5 13 5 4.5 0 9-2.5 12-7 12-16.5 0-5-3.5-11-2-3-5-5.5-59-50-139.5-64 89.5-46 142.75-133t53.25-188.5z" />
<glyph unicode="&#x21bb;" glyph-name="untitled1228" horiz-adv-x="795" d="M758 288q0-149-106-255t-254.75-106-254.5 106.25-105.75 254.75q0 101.5 53.25 188.5t142.75 133q-80.5 14-139.5 64-3 2.5-5 5.5-3.5 6-3.5 11 0 9.5 12 16.5 4.5 2.5 9 2.5 6 0 11.5-4l27-19.5q69.5-45 156.5-45h2q15.5 0 18.25-4.5t-5.25-18q-40.5-69.5-40.5-143.5 0-8 0.5-16.5 1-10.5 3-28.25t-8-23.5-19.5-1.5-11.5 14.75q-4.5 24.5-4.5 60 0 2 0.5 3.5 0 38 19 92.5-81-40-129.5-118t-48.5-169.5q0-132 94-226.5t226.25-94.5 226.5 94.25 94.25 226.75q0 91-49.5 171.25t-131.5 117.75q-11.5 5-11.5 17.5 0 21 19.5 21 4.5 0 9-2.5 92.5-42 148.25-132.25t55.75-192.75z" />
<glyph unicode="&#x21e6;" glyph-name="untitled1271" d="M966.5 187q0-18.5-20.5-18.5h-502.5q-13.5 0-13.5-13v-138q0-12-18-12-2 0-6.75 0.25t-7.5 0.25-6.75 6.5q-64 110.5-133.25 167.5t-151.25 84.5q-13.5 3.5-40 12-9 3.5-9 11.5t9 11.5l40 12q82 27.5 151.25 84.5t133.25 167.5q4 6.5 6.75 6.5t7.5 0.25 6.75 0.25q18 0 18-12v-138q0-13 13.5-13h502.5q20.5 0 20.5-18.5v-202zM926.5 221.5v133q0 12-13.5 12h-503.5q-20.5 0-20.5 19.5v99q-37-50.5-62.5-77-77.5-80-177-120 99.5-40 177-120 25.5-26.5 62.5-77v99q0 19.5 20.5 19.5h503.5q13.5 0 13.5 12z" />
<glyph unicode="&#x21e7;" glyph-name="untitled1272" horiz-adv-x="625" d="M595 383.5q0-18-12-18h-138q-13 0-13-13.5v-493.5q0-20.5-18.5-20.5h-202q-18.5 0-18.5 20.5v493.5q0 13.5-13 13.5h-138q-12 0-12 18 0 2 0.25 6.75t0.25 7.5 6.5 6.75q110.5 64 167.5 133.25t84.5 151.25q3.5 13.5 12 40 3.5 9 11.5 9t11.5-9l12-40q27.5-82 84.5-151.25t167.5-133.25q6.5-4 6.5-6.75t0.25-7.5 0.25-6.75zM214.5 406.5q19.5 0 19.5-20.5v-494.5q0-13.5 12-13.5h133q12 0 12 13.5v494.5q0 20.5 19.5 20.5h99q-50.5 37-77 62.5-80 77.5-120 177-40-99.5-120-177-26.5-25.5-77-62.5h99z" />
<glyph unicode="&#x21e9;" glyph-name="untitled1274" horiz-adv-x="625" d="M595 192.5v-7q-0.5-4.5-0.5-7.25t-6.5-6.75q-110.5-64-167.5-133.25t-84.5-151.25q-3.5-13.5-12-40-3.5-9-11.5-9t-11.5 9l-12 40q-27.5 82-84.5 151.25t-167.5 133.25q-6.5 4-6.5 6.5v7.5q-0.5 5-0.5 7 0 18 12 18h138q13 0 13 13.5v493.5q0 20.5 18.5 20.5h202q18.5 0 18.5-20.5v-493.5q0-13.5 13-13.5h138q12 0 12-18zM410.5 169.5q-19.5 0-19.5 20.5v494.5q0 13.5-12 13.5h-133q-12 0-12-13.5v-494.5q0-20.5-19.5-20.5h-99q50.5-37 77-62.5 80-77.5 120-177 40 99.5 120 177 26.5 25.5 77 62.5h-99z" />
<glyph unicode="&#x21ea;" glyph-name="untitled1275" horiz-adv-x="625" d="M595 383.5q0-18-12-18h-138q-13 0-13-13.5v-178.5q0-20.5-18.5-20.5h-202q-18.5 0-18.5 20.5v178.5q0 13.5-13 13.5h-138q-12 0-12 18 0 2 0.25 6.75t0.25 7.5 6.5 6.75q110.5 64 167.5 133.25t84.5 151.25q3.5 13.5 12 40 3.5 9 11.5 9t11.5-9l12-40q27.5-82 84.5-151.25t167.5-133.25q6.5-4 6.5-6.75t0.25-7.5 0.25-6.75zM432-141.5q0-20.5-18.5-20.5h-202q-18.5 0-18.5 20.5v194q0 20.5 18.5 20.5h202q18.5 0 18.5-20.5v-194zM214.5 406.5q19.5 0 19.5-20.5v-179.5q0-13.5 12-13.5h133q12 0 12 13.5v179.5q0 20.5 19.5 20.5h99q-50.5 37-77 62.5-80 77.5-120 177-40-99.5-120-177-26.5-25.5-77-62.5h99zM391-108.5v128q0 13.5-12 13.5h-133q-12 0-12-13.5v-128q0-13.5 12-13.5h133q12 0 12 13.5z" />
<glyph unicode="&#x21f1;" glyph-name="untitled1282" horiz-adv-x="787" d="M278 427q9-36.5 9-79.5 0-79.5-50-168-0.5-1-1.5-2.5-8-8-14-1.5-8.5 7-18.5 21-1 3.5 2.5 9.5l14.5 26.5q28 58.5 28 124v11q-3 71.5-38 131l-19 28q-4.5 8 1.75 14.25t14.75 2.25q9.5-7 28.5-19.5 65-38 139-38 24 0 49 4 40.5 7 77.5 24.5 9.5 6 29.5 16.5 7 3 11.5-2 18.5-18 18.5-22 0-5.5-6.5-9.5-47-26.5-86-38.5t-81.5-12-80 9.5l404.5-404.5q13-13-1.5-27.5t-27.5-1.5zM719.5 646.5q0-20.5-34-20.5h-577.5v-627.5q0-34-20.5-34t-20.5 34v634.5q0 30.5 17.5 33 5.5 1 16.5 1h584.5q34 0 34-20.5z" />
<glyph unicode="&#x21f2;" glyph-name="untitled1283" horiz-adv-x="787" d="M719.5 31q0-30.5-17.5-33-5.5-1-16.5-1h-584.5q-34 0-34 20.5t34 20.5h577.5v627.5q0 34 20.5 34t20.5-34v-634.5zM225.5 157.5q0 5.5 6.5 9.5 47 26.5 86 38.5t81.5 12 80-9.5l-404.5 404.5q-6 6-6 12.5 0 7.5 7.5 15t15 7.5q6.5 0 12.5-6l404.5-404.5q-9 36.5-9 79.5 0 79.5 50 168 0.5 1 1.5 2.5 8 8 14 1.5 8.5-7 18.5-21 1-3.5-2.5-9.5l-14.5-26.5q-28-58-28-123 0-6 0.5-12 2.5-71.5 37.5-131l19-28q2-3.5 2-6.5 0-4-3.5-8-4-3.5-8.5-3.5-3 0-6.5 1.5-9.5 7-28.5 19.5-65 38-139 38-24 0-49-4-40.5-7-77.5-24.5-9.5-6-29.5-16.5-7-3-11.5 2-18.5 18-18.5 22z" />
<glyph unicode="&#x21f6;" glyph-name="untitled1287" d="M825.5 579q-111.5 67.5-146.5 207 0 11 31.5 11 6.5 0 9.5-7 3-11 9.5-32.5 23-66 75.25-114.75t119.25-66.25q11.5-1.5 33.5-6.5 9-3 9-11.5t-9-11.5q-11.5-2-33.5-6.5-102.5-27-162.5-117 60-90.5 162.5-117.5 11.5-1.5 33.5-6.5 9-3 9-11.5t-9-11.5q-11.5-2-33.5-6.5-102.5-27-162.5-117 60-90.5 162.5-117.5 11.5-1.5 33.5-6.5 9-3 9-11.5t-9-11.5q-11.5-2-33.5-6.5-67-17.5-119.25-66.25t-75.25-114.75q-3-11-9.5-32.5-3-7-9.5-7-31.5 0-31.5 11l1 3q14.5 52 29.5 80.5 41.5 78.5 116 123.5h-749.5q-18.5 0-18.5 20.5t18.5 20.5h749.5q-70 42.5-111 115 41 72 111 114.5h-749.5q-18.5 0-18.5 20.5t18.5 20.5h749.5q-70 42.5-111 115 41 72 111 114.5h-749.5q-18.5 0-18.5 20.5t18.5 20.5h749.5z" />
<glyph unicode="&#x21fc;" glyph-name="untitled1293" d="M959 299.5q7-4 7-11.25t-7-10.25q-111.5-39.5-171.5-141.5-21.5-37-39.5-106.5-1-3.5-4-6.5t-26.5-3q-10.5 0-10.5 13.5 0 1 4 18 32.5 137 143.5 215.5h-247v-197.5q0-19.5-20.5-19.5t-20.5 19.5v197.5h-109v-197.5q0-19.5-20.5-19.5t-20.5 19.5v197.5h-247q114-81 144-216 3.5-15.5 3.5-17.5 0-12-10.5-13.5h-20.5q-7 0-10 9.5-17.5 88.5-71.5 152.5t-138.5 95.5q-8 3-8 10.25t29.5 19.75q69 29.5 116.75 85.75t66.75 130.75q1.5 7.5 5 21.5 2.5 9 12.5 10-4.5-0.5 18-0.5 10.5 0 10.5-13.5 0-2-3.5-17.5-29.5-133-144-216h247v198.5q0 18.5 20.5 18.5t20.5-18.5v-198.5h109v198.5q0 18.5 20.5 18.5t20.5-18.5v-198.5h247q-77 55.5-119 144-28.5 60.5-28.5 89.5 0 12 10.5 13.5h20.5q7.5 0 10-9.5 24.5-95.5 72-151.5t112.5-84.5q9.5-3 26.5-10.5z" />
<glyph unicode="&#x21fd;" glyph-name="untitled1294" d="M966.5 288q0-20.5-18.5-20.5h-518v-250q0-12-18-12-2 0-6.75 0.25t-7.5 0.25-6.75 6.5q-64 110.5-133.25 167.5t-151.25 84.5q-13.5 3.5-40 12-9 3.5-9 11.5t9 11.5l40 12q82 27.5 151.25 84.5t133.25 167.5q4 6.5 6.75 6.5t7.5 0.25 6.75 0.25q18 0 18-12v-250h518q18.5 0 18.5-20.5zM389 91v394q-37-50.5-62.5-77-77.5-80-177-120 99.5-40 177-120 25.5-26.5 62.5-77z" />
<glyph unicode="&#x22b6;" glyph-name="untitled1479" d="M951.5 403q47.5-48 47.5-114.75t-47.75-115-111.75-48.25-110.25 40.75-54.25 101.75h-326q-8-61-54.25-101.75t-110.25-40.75-111.75 48.25-47.75 115 47.5 114.75 111.5 48 110.75-41 54.25-101.5h326q7.5 60.5 54.25 101.5t110.75 41 111.5-48zM309 288q0 50-36 86t-85.75 36-85.5-36.25-35.75-85.75 35.75-85.75 85.5-36.25 85.75 36 36 86z" />
<glyph unicode="&#x22b7;" glyph-name="untitled1480" d="M951.5 403q47.5-48 47.5-114.75t-47.75-115-111.75-48.25-110.25 40.75-54.25 101.75h-326q-8-61-54.25-101.75t-110.25-40.75-111.75 48.25-47.75 115 47.5 114.75 111.5 48 110.75-41 54.25-101.5h326q7.5 60.5 54.25 101.5t110.75 41 111.5-48zM958 288q0 49.5-35.75 85.75t-85.5 36.25-85.75-36-36-86 36-86 85.75-36 85.5 36.25 35.75 85.75z" />
<glyph unicode="&#x2410;" glyph-name="untitled1825" d="M867 288l-710-355v710z" />
<glyph unicode="&#x2411;" glyph-name="untitled1826" d="M867-67l-710 355 710 355v-710z" />
<glyph unicode="&#x2417;" glyph-name="untitled1832" d="M482 783h60v-731l266.5 154.5 34.5 5-331-343.5-331 343.5 34.5-5 266.5-154.5v731zM809.5-224h-595v60h595v-60z" />
<glyph unicode="&#x2418;" glyph-name="untitled1833" d="M542-207h-60v806l-266.5-154.5-34.5-5 331 343.5 331-343.5-34.5 5-266.5 154.5v-806z" />
<glyph unicode="&#x2419;" glyph-name="untitled1834" d="M482 783h60v-806l266.5 154.5 34.5 5-331-343.5-331 343.5 34.5-5 266.5-154.5v806z" />
<glyph unicode="&#x241a;" glyph-name="untitled1835" d="M17 258v60h806l-154.5 266.5-5 34.5 343.5-331-343.5-331 5 34.5 154.5 266.5h-806z" />
<glyph unicode="&#x241b;" glyph-name="untitled1836" d="M1007 258h-806l154.5-266.5 5-34.5-343.5 331 343.5 331-5-34.5-154.5-266.5h806v-60z" />
<glyph unicode="&#x241d;" glyph-name="untitled1838" d="M1007 288l-343.5-331 5 34.5 154.5 266.5h-622l154.5-266.5 5-34.5-343.5 331 343.5 331-5-34.5-154.5-266.5h622l-154.5 266.5-5 34.5z" />
<glyph unicode="&#x241e;" glyph-name="untitled1839" d="M867-3h-710l355 710z" />
<glyph unicode="&#x241f;" glyph-name="untitled1840" d="M867 707l-355-710-355 710h710z" />
<glyph unicode="&#x2573;" glyph-name="untitled2020" d="M1079-224h-110l-457 457-457-457h-110l512 512-512 512h110l457-457 457 457h110l-512-512z" />
<glyph unicode="&#x2608;" glyph-name="untitled2169" horiz-adv-x="691" d="M599.5 117q0-39 12-108-72 12.5-108 12.5-79.5 0-163.5-27l-19.5 59.5q89.5 29 171.5 30l-255.5 255.5v44l231 231.5h-355v-732.5h-62.5v763.5l31 31.5h462l22-53.5-262.5-262.5 234.5-234q1.5 85 29.5 172.5l59.5-19.5q-26.5-82.5-26.5-163.5z" />
<glyph unicode="&#x260a;" glyph-name="untitled2171" horiz-adv-x="969" d="M886.5 272.5q42-49.5 42-118.75t-51.25-120.5-124.75-51.25-124.75 51.25-51.25 123.25 48.75 123 119.25 54.5q-16 113.5-83 188-74 83-183 83t-183-83q-67-74.5-83-188 70.5-3.5 119.25-54.5t48.75-123-51.25-123.25-124.75-51.25-125 51.25-51.5 120.5 42 118.75 106.5 59.5q15.5 129.5 96 218.75t206 89.25 206-89.25 96-218.75q64-10 106-59.5zM841.75 68.75q36.75 36.75 36.75 89.5t-36.5 89.25-89.25 36.5-89.75-36.75-37-89.5 36.75-89.25 89.5-36.5 89.5 36.75zM294 68.5q36.5 36.5 36.5 89.25t-36.75 89.5-89.5 36.75-89.25-36.5-36.5-89.25 36.75-89.5 89.5-36.75 89.25 36.5z" />
<glyph unicode="&#x260b;" glyph-name="untitled2172" horiz-adv-x="969" d="M877.25 588.75q51.25-51.25 51.25-120.5t-42-118.75-106-59.5q-15.5-129.5-96-218.75t-206-89.25-206 89.25-96 218.75q-64.5 10-106.5 59.5t-42 118.75 51.5 120.5 125 51.25 124.75-51.25 51.25-123.25-48.75-123-119.25-54.5q16-113.5 83-188 74-83 183-83t183 83q67 74.5 83 188-70.5 3.5-119.25 54.5t-48.75 123 51.25 123.25 124.75 51.25 124.75-51.25zM842 374.5q36.5 36.5 36.5 89.25t-36.75 89.5-89.5 36.75-89.5-36.5-36.75-89.25 37-89.5 89.75-36.75 89.25 36.5zM293.75 374.75q36.75 36.75 36.75 89.5t-36.5 89.25-89.25 36.5-89.5-36.75-36.75-89.5 36.5-89.25 89.25-36.5 89.5 36.75z" />
<glyph unicode="&#x260c;" glyph-name="untitled2173" horiz-adv-x="574" d="M508 449.5q0-9.5-15.5-25l-131-131q43-48.5 43-118.75t-51.25-121.5-124.75-51.25-124.75 51.25-51.25 124.75 51.25 124.75 124.75 51.25q59 0 103-32.5l132 132q15.5 15.5 25 15.5 19.5 0 19.5-19.5zM317.25 89q36.75 37 36.75 89.25t-36.5 88.75-89 36.5-89-36.5-36.5-88.75 36.75-89.25 88.75-37 88.75 37z" />
<glyph unicode="&#x260d;" glyph-name="untitled2174" horiz-adv-x="796" d="M771.5 453q0-73.5-51.25-124.75t-124.75-51.25q-59 0-103 32.5l-161-161q43-48.5 43-118.75t-51.25-121.5-124.75-51.25-124.75 51.25-51.25 124.75 51.25 124.75 124.75 51.25q59 0 103-32.5l161 161q-43 48.5-43 118.75t51.25 121.5 124.75 51.25 124.75-51.25 51.25-124.75zM684.25 364.25q36.75 36.75 36.75 89t-36.5 89-89 36.75-89-36.75-36.5-89 36.75-89 88.75-36.75 88.75 36.75zM287.25-56q36.75 37 36.75 89.25t-36.5 88.75-89 36.5-89-36.5-36.5-88.75 36.75-89.25 88.75-37 88.75 37z" />
<glyph unicode="&#x2611;" glyph-name="untitled2178" d="M1008-208h-992v992h992v-992zM933-133v842h-842v-842h842zM282.75-65q-6.75 6.5-20.25 34.5-62.5 130-62.5 201 0 18 23.5 34.5 46.5 33 79 33 13 0 19.5-11.5l9-22.5q36-85 44-85 5.5 0 26.5 31l237 351q1.5 2 27.5 34l55 67.5q24.5 30 76.5 45.75t99 15.75l7-16.5q-33-37-95-112.5l-213-281.5-147.5-228.5-36-61.5q-5.5-11.5-21.5-28.5-11.5-6.5-56.25-6.5t-51.5 6.5z" />
<glyph unicode="&#x2612;" glyph-name="untitled2179" d="M1008-208h-992v992h992v-992zM933-133v842h-842v-842h842zM237-34l6 29q0 4.5-4.75 8.75t-4.75 9 25 47.75l24.5 42q64.5 110.5 187.5 246.5l-76 209q-11.5 31.5-11.5 36.5t10.75 17 16.75 12 17-9q6 5 16 5 3.5 1.5 9.75 8.5t10.75 7q9.5 0 18.5-18.5l78-153.5 25.5 31.5q140 165 148.5 165 12.5 0 36-19.5 21.5 20.5 23.25 20.5t4.25-5.75 12-16.75 9.5-15.5-10.25-14.25-35.75-42.75l-145.5-188.5-11.5-16.5q33.5-63 112-234.5-4.5-10-14.5-14.5v-8l-12-7.5q-8.5-5.5-8.5-9.5t5-14q-1.5-9-12.75-17.25t-21-8.25-38.75 45l-96.5 148.5-202.5-314q-17-12.5-53.5-12.5-9 0-22.75 22.25t-13.75 29.75z" />
<glyph unicode="&#x2613;" glyph-name="untitled2180" horiz-adv-x="913" d="M738 50q0-12.5-9.25-21.25t-21.75-8.75-23 11.5l-76 99.5q-104.5 134.5-207.5 239-119-119.5-176-219l-44.5-93q-9.5-18.5-27-18.5-30.5 0-30.5 29.5 0 6 2 11.5 58 157 233 332l-166 161.5q-24 22-69.5 68.5-9 10-9 21.5t9.25 20.75 20.75 9.25 21.5-9l95.5-94.5 140.5-136 150.5 143.5q23.5 26 72.5 76 10 9.5 21.5 9.5 30.5 0 30.5-30 0-10-10.5-23.5t-70.5-72.5l-151-145q63-64 178.75-199.75t115.75-162.75z" />
<glyph unicode="&#x261a;" glyph-name="untitled2187" horiz-adv-x="965" d="M915 438q28-58 28-122.75t-31-138.25l-27.5 11.5q28.5 67.5 28.5 125.25t-31.5 124.75l27 13zM851.5 431.5q26.5-56.5 26.5-117.25t-24-117.75h-71.5q-57.5-62.5-112-87.5-20.5-2.5-39-2.5t-50 10l-18.5-8-17.5-1q-5.5-0.5-10.5-0.5-64.5 0-64.5 54.5 0 2.5 1 8-56 8-56 55.5 0 10.5 5.5 24.5-45 12-45 51.5 0 28.5 25 43.5l-18 4-180 2q-116.5 1.5-116.5 53.5 0 31 26.25 42.75t100.25 13.25l204.5 4.5 20.5 19 137.5 12.5q95-27.5 169-64.5h107z" />
<glyph unicode="&#x261b;" glyph-name="untitled2188" horiz-adv-x="965" d="M943 404q0-52-116.5-53.5l-180-2-18-4q25-15 25-43.5 0-39.5-45-51.5 5.5-14 5.5-24.5 0-47.5-56-55.5 1-5.5 1-8 0-54.5-64.5-54.5-5 0-10.5 0.5l-17.5 1-18.5 8q-31.5-10-50-10t-39 2.5q-54.5 25-112 87.5h-71.5q-24 57-24 117.75t26.5 117.25h107q74 37 169 64.5l137.5-12.5 20.5-19 204.5-4.5q74-1.5 100.25-13.25t26.25-42.75zM148 438.5q-31.5-67-31.5-124.75t28.5-125.25l-27.5-11.5q-31 73.5-31 138.25t28 122.75l6.5 13.5z" />
<glyph unicode="&#x261c;" glyph-name="untitled2189" horiz-adv-x="965" d="M915 438q28-58 28-122.75t-31-138.25l-27.5 11.5q28.5 67.5 28.5 125.25t-31.5 124.75l27 13zM851.5 431.5q26.5-56.5 26.5-117.25t-24-117.75h-71.5q-57.5-62.5-112-87.5-20.5-2.5-39-2.5t-50 10l-18.5-8-17.5-1q-5.5-0.5-10.5-0.5-64.5 0-64.5 54.5 0 2.5 1 8-56 8-56 55.5 0 10.5 5.5 24.5-45 12-45 51.5 0 28.5 25 43.5l-18 4-180 2q-116.5 1.5-116.5 53.5 0 31 26.25 42.75t100.25 13.25l204.5 4.5 20.5 19 137.5 12.5q95-27.5 169-64.5h107zM837 222.5q15.5 46.5 15.5 92.25t-17.5 92.25h-91q-127 51-170 63.5l-126.5-11-78.5-72q22-19.5 50-19.5 43 0 85.5 44.5 46-26 87.5-26h7l8.5 0.5-1-25-11.5-0.5h-6.5q-38.5 0-79 21.5-29.5-23-54.5-32.5l45-0.5q26 14.5 52 14.5 57.5 0 91.5-66.5l-35-15q33-10.5 60.5-57.5l-31-14q28-23 40.5-52.5l-62.5-26.5q25.5-3.5 31.75-3.5t18.75 2q58 34 103 91.5h67.5zM552 340.5q-22 0-45-16h-64.5q-41 0-41-23 0-32.5 57.5-32.5h2l53 0.5 95 38.5q-19 32.5-57 32.5zM441.5 224.5q0-31.5 46-31.5h3l45 1 97 42q-17.5 26.5-58.5 32l-52-23-73 0.5q-7.5-12-7.5-21zM495.5 169.5q0-37.5 44-37.5h2.5l19.5 0.5 82 38.5q-11 14.5-32.5 28l-67-29.5h-48.5zM111 403.5q0-28 121-28.5l113.5-0.5q-5 4.5-12 12.5l58 53-183-4.5q-97.5-2.5-97.5-32z" />
<glyph unicode="&#x261d;" glyph-name="untitled2190" horiz-adv-x="965" d="M645-35.5q-56.5-26.5-117.25-26.5t-117.75 24v71.5q-62.5 57.5-87.5 112-2.5 20.5-2.5 39t10 50l-8 18.5-1 17.5q-0.5 5.5-0.5 10.5 0 64.5 54.5 64.5 2.5 0 8-1 8 56 55.5 56 10.5 0 24.5-5.5 12 45 51.5 45 28.5 0 43.5-25l4 18 2 180q1.5 116.5 53.5 116.5 31 0 42.75-26.25t13.25-100.25l4.5-204.5 19-20.5 12.5-137.5q-27.5-95-64.5-169v-107zM651.5-99q-58-28-122.75-28t-138.25 31l11.5 27.5q67.5-28.5 125.25-28.5t124.75 31.5l13-27zM617 705q-28 0-28.5-121l-0.5-113.5q4.5 5 12.5 12l53-58-4.5 183q-2.5 97.5-32 97.5zM554 264q0 22-16 45v64.5q0 41-23 41-33 0-32.5-59.5l0.5-53 38.5-95q32.5 19 32.5 57zM438 374.5q-31.5 0-31.5-46v-3l1-45 42-97q26.5 17.5 32 58.5l-23 52 0.5 73q-12 7.5-21 7.5zM581.5 397q0-43 44.5-85.5-26-46-26-87.5v-7l0.5-8.5-25 1-0.5 11.5v6.5q0 38.5 21.5 79-23 29.5-32.5 54.5l-0.5-45q14.5-26 14.5-52 0-57.5-66.5-91.5l-15 35q-10.5-33-57.5-60.5l-14 31q-23-28-52.5-40.5l-26.5 62.5q-3.5-25.5-3.5-31.75t2-18.75q34-58 91.5-103v-67.5q46.5-15.5 92.25-15.5t92.25 17.5v91q51 127 63.5 170l-11 126.5-72 78.5q-19.5-22-19.5-50zM383 320.5q-38.5 0-37.5-46.5l0.5-19.5 38.5-82q14.5 11 28 32.5l-29.5 67v48.5z" />
<glyph unicode="&#x261e;" glyph-name="untitled2191" horiz-adv-x="965" d="M943 404q0-52-116.5-53.5l-180-2-18-4q25-15 25-43.5 0-39.5-45-51.5 5.5-14 5.5-24.5 0-47.5-56-55.5 1-5.5 1-8 0-54.5-64.5-54.5-5 0-10.5 0.5l-17.5 1-18.5 8q-31.5-10-50-10t-39 2.5q-54.5 25-112 87.5h-71.5q-24 57-24 117.75t26.5 117.25h107q74 37 169 64.5l137.5-12.5 20.5-19 204.5-4.5q74-1.5 100.25-13.25t26.25-42.75zM148 438.5q-31.5-67-31.5-124.75t28.5-125.25l-27.5-11.5q-31 73.5-31 138.25t28 122.75l6.5 13.5zM918.5 403.5q0 29.5-97.5 32l-183 4.5 58-53q-7-8-12-12.5l113.5 0.5q121 0.5 121 28.5zM628 301.5q0 23-41 23h-64.5q-23 16-45 16-38 0-57-32.5l95-38.5 55-0.5q57.5 0 57.5 32.5zM588 224.5q0 9-7.5 21l-73-0.5-52 23q-41-5.5-58.5-32l97-42 45-1h3q46 0 46 31.5zM194.5 407q-17.5-46.5-17.5-92.25t15.5-92.25h67.5q45-57.5 103-91.5 12.5-2 18.75-2t31.75 3.5l-62.5 26.5q12.5 29.5 40.5 52.5l-31 14q27.5 47 60.5 57.5l-35 15q34 66.5 91.5 66.5 26 0 52-14.5l45 0.5q-25 9.5-54.5 32.5-40.5-21.5-79-21.5h-6.5l-11.5 0.5-1 25 8.5-0.5h7q41.5 0 87.5 26 42.5-44.5 85.5-44.5 28 0 50 19.5l-78.5 72-126.5 11q-43-12.5-170-63.5h-91zM534 169.5h-48.5l-67 29.5q-21.5-13.5-32.5-28l82-38.5 19.5-0.5h2.5q44 0 44 37.5z" />
<glyph unicode="&#x261f;" glyph-name="untitled2192" horiz-adv-x="965" d="M627.5 671q-67.5 28.5-125.25 28.5t-124.75-31.5l-13 27 13.5 6.5q58 28 122.75 28t138.25-31zM707 457q2.5-20.5 2.5-39t-10-50l8-18.5 1-17.5q0.5-5.5 0.5-10.5 0-64.5-54.5-64.5-2.5 0-8 1-8-56-55.5-56-10.5 0-24.5 5.5-12-45-51.5-45-28.5 0-43.5 25l-4-18-2-180q-1.5-116.5-53.5-116.5-31 0-42.75 26.25t-13.25 100.25l-4.5 204.5-19 20.5-12.5 137.5q27.5 95 64.5 169v107q56.5 26.5 117.25 26.5t117.75-24v-71.5q62.5-57.5 87.5-112zM646.5 282q38.5 0 37.5 46.5l-0.5 19.5-38.5 82q-14.5-11-28-32.5l29.5-67v-48.5zM683.5 402.5q3.5 25.5 3.5 31.75t-2 18.75q-34 58-91.5 103v67.5q-46.5 15.5-92.25 15.5t-92.25-17.5v-91q-51-127-63.5-170l11-126.5 72-78.5q19.5 22 19.5 50 0 43-44.5 85.5 26 46 26 87.5v7l-0.5 8.5 25-1 0.5-11.5v-6.5q0-38.5-21.5-79 23-29.5 32.5-54.5l0.5 45q-14.5 26-14.5 52 0 57.5 66.5 91.5l15-35q10.5 33 57.5 60.5l14-31q23 28 52.5 40.5zM591.5 228q31.5 0 31.5 46v3l-1 45-42 97q-26.5-17.5-32-58.5l23-52-0.5-73q12-7.5 21-7.5zM475.5 338.5q0-22 16-45v-64.5q0-41 23-41 33 0 32.5 59.5l-0.5 53-38.5 95q-32.5-19-32.5-57zM412.5-102.5q28 0 28.5 121l0.5 113.5q-4.5-5-12.5-12l-53 58 4.5-183q2.5-97.5 32-97.5z" />
<glyph unicode="&#x2680;" glyph-name="untitled2289" d="M36-148.5v748.5l264.5 124.5h687.5v-716l-208-157h-744zM919 694.5h-611.5l-189.5-89h653zM958 23v660l-168-101v-685.5zM760-118.5v694h-694v-694h694zM466.75 282.75q22.75-22.75 22.75-54t-22.5-53.75-54-22.5-54 22.5-22.5 53.5 22.75 54 53.75 23 53.75-22.75z" />
<glyph unicode="&#x2681;" glyph-name="untitled2290" d="M36-148.5v748.5l264.5 124.5h687.5v-716l-208-157h-744zM919 694.5h-611.5l-189.5-89h653zM958 23v660l-168-101v-685.5zM760-118.5v694h-694v-694h694zM261.75 487.75q22.75-22.75 22.75-54t-22.5-53.75-54-22.5-54 22.5-22.5 53.5 22.75 54 53.75 23 53.75-22.75zM671.75 77.75q22.75-22.75 22.75-54t-22.5-53.75-54-22.5-54 22.5-22.5 53.5 22.75 54 53.75 23 53.75-22.75z" />
<glyph unicode="&#x2682;" glyph-name="untitled2291" d="M36-148.5v748.5l264.5 124.5h687.5v-716l-208-157h-744zM919 694.5h-611.5l-189.5-89h653zM958 23v660l-168-101v-685.5zM760-118.5v694h-694v-694h694zM466.75 282.75q22.75-22.75 22.75-54t-22.5-53.75-54-22.5-54 22.5-22.5 53.5 22.75 54 53.75 23 53.75-22.75zM261.75 487.75q22.75-22.75 22.75-54t-22.5-53.75-54-22.5-54 22.5-22.5 53.5 22.75 54 53.75 23 53.75-22.75zM671.75 77.75q22.75-22.75 22.75-54t-22.5-53.75-54-22.5-54 22.5-22.5 53.5 22.75 54 53.75 23 53.75-22.75z" />
<glyph unicode="&#x2683;" glyph-name="untitled2292" d="M36-148.5v748.5l264.5 124.5h687.5v-716l-208-157h-744zM919 694.5h-611.5l-189.5-89h653zM958 23v660l-168-101v-685.5zM760-118.5v694h-694v-694h694zM261.75 487.75q22.75-22.75 22.75-54t-22.5-53.75-54-22.5-54 22.5-22.5 53.5 22.75 54 53.75 23 53.75-22.75zM671.75 77.75q22.75-22.75 22.75-54t-22.5-53.75-54-22.5-54 22.5-22.5 53.5 22.75 54 53.75 23 53.75-22.75zM671.75 487.75q22.75-22.75 22.75-54t-22.5-53.75-54-22.5-54 22.5-22.5 53.5 22.75 54 53.75 23 53.75-22.75zM261.75 77.75q22.75-22.75 22.75-54t-22.5-53.75-54-22.5-54 22.5-22.5 53.5 22.75 54 53.75 23 53.75-22.75z" />
<glyph unicode="&#x2684;" glyph-name="untitled2293" d="M261.75 487.75q22.75-22.75 22.75-54t-22.5-53.75-54-22.5-54 22.5-22.5 53.5 22.75 54 53.75 23 53.75-22.75zM671.75 77.75q22.75-22.75 22.75-54t-22.5-53.75-54-22.5-54 22.5-22.5 53.5 22.75 54 53.75 23 53.75-22.75zM36-148.5v748.5l264.5 124.5h687.5v-716l-208-157h-744zM919 694.5h-611.5l-189.5-89h653zM958 23v660l-168-101v-685.5zM760-118.5v694h-694v-694h694zM466.75 282.75q22.75-22.75 22.75-54t-22.5-53.75-54-22.5-54 22.5-22.5 53.5 22.75 54 53.75 23 53.75-22.75zM671.75 487.75q22.75-22.75 22.75-54t-22.5-53.75-54-22.5-54 22.5-22.5 53.5 22.75 54 53.75 23 53.75-22.75zM261.75 77.75q22.75-22.75 22.75-54t-22.5-53.75-54-22.5-54 22.5-22.5 53.5 22.75 54 53.75 23 53.75-22.75z" />
<glyph unicode="&#x2685;" glyph-name="untitled2294" d="M671.75 487.75q22.75-22.75 22.75-54t-22.5-53.75-54-22.5-54 22.5-22.5 53.5 22.75 54 53.75 23 53.75-22.75zM261.75 77.75q22.75-22.75 22.75-54t-22.5-53.75-54-22.5-54 22.5-22.5 53.5 22.75 54 53.75 23 53.75-22.75zM36-148.5v748.5l264.5 124.5h687.5v-716l-208-157h-744zM919 694.5h-611.5l-189.5-89h653zM958 23v660l-168-101v-685.5zM760-118.5v694h-694v-694h694zM261.75 487.75q22.75-22.75 22.75-54t-22.5-53.75-54-22.5-54 22.5-22.5 53.5 22.75 54 53.75 23 53.75-22.75zM671.75 77.75q22.75-22.75 22.75-54t-22.5-53.75-54-22.5-54 22.5-22.5 53.5 22.75 54 53.75 23 53.75-22.75zM671.75 282.75q22.75-22.75 22.75-54t-22.5-53.75-54-22.5-54 22.5-22.5 53.5 22.75 54 53.75 23 53.75-22.75zM261.75 282.75q22.75-22.75 22.75-54t-22.5-53.75-54-22.5-54 22.5-22.5 53.5 22.75 54 53.75 23 53.75-22.75z" />
<glyph unicode="&#x26bd;" glyph-name="untitled2350" d="M1007.5 288q0-205-145.25-350.25t-350.25-145.25-350.25 145.25-145.25 350.25 145.25 350.25 350.25 145.25 350.25-145.25 145.25-350.25zM940 506q-49 96-135.5 162.5l2.5-29zM948.5 482.5l-2 2h0.5l-146 147-138.5-46.5v-173l145-122.5 136 42zM989 234l-43.5 88-135.5-42.5-95.5-178 37.5-107.5 143 4.5q79.5 105 94 235.5zM652.5 412.5v173l-161.5 82.5-148-116 7.5-156.5 141.5-71.5zM484.5 675.5l-29.5 89q-166.5-19.5-284.5-139l9.5-55 156-11zM170.5 566.5l-8.5 50q-107.5-114.5-126.5-270.5l59 41zM743-9.5l-37.5 107.5-180 51-131.5-106 55.5-148 169.5-12.5zM519 156.5l-31 158.5-141.5 71.5-141.5-125.5 31-145.5 151.5-65.5zM394-177.5q57.5-14.5 124.5-14.5t137 22l-37.5 42.5-170 12.5zM32 288q0-120 55-224l66-42 73.5 91-31.5 147.5-97.5 116.5-63.5-44q-2-21.5-2-45zM163-41.5l-13 53.5-52.5 33.5q27-46.5 65.5-87z" />
<glyph unicode="&#x26ea;" glyph-name="untitled2395" d="M988 112h-55.5v-260h-189.5v273l-232 177.5-232-177.5v-273h-188.5v259h-54.5v25.5l436.5 308v142.5h-115.5v78h115v101h77.5v-99.5h115.5v-78.5h-115v-143.5l438-308v-24.5zM627-148h-230v185.5q0 40 36.5 68.75t77.75 28.75 78.5-28.75 37.25-68.75v-185.5z" />
<glyph unicode="&#x26f9;" glyph-name="untitled2410" d="M530.25 726q31.25-32 31.25-76t-31.75-76.25-75-32.25-75.5 32.5-32.25 75.5 32.25 75.75 76 32.75 75-32zM877 328q28.5-28.5 28.5-67.25t-29.5-68-68.25-29.25-66.75 28.5-28 69 27.25 68 67.75 27.5 69-28.5zM965-152.5h-348.5q-57.5 0-76 44.5-6 14-22.5 70.5l-49 169.5h-27q-18-56-51-168.5-15.5-60-27.5-79-22.5-37-69.5-37h-235v39.5h179l100 343.5v156l-176.5-209q-53 21.5-53 70.5 0 19.5 19.5 42.5l56 66 64 80q47.5 57 72.75 72t57.25 15h487.5q-25.5-95.5-62.5-95.5h-233.5v-193.5l105-347.5h290.5v-39.5z" />
<glyph unicode="&#x26fa;" glyph-name="untitled2411" d="M986 302.5l-50.5-433-327 23v289.5l-260 16v-287l-310.5 20.5 472.5 786 474.5-407q1-1 1-5v-3zM936 285l-373.5 336.5 331.5-661z" />
<glyph unicode="&#x2705;" glyph-name="untitled2422" horiz-adv-x="894" d="M843.5 616.5q0-20-7-30l-92-100-249-262-133-128q-118.5-114-148.5-114h-1l-23.5 2q-21.5 2-70 41-21.5 17-41 40-9 10.5-9 38l-14.5 124q-6 52.5-6 92 0 13.5 1 25.5 2.5 47.5 5 53.75t26 34.25 33.5 38 31 16.75 41.5 6.75 35-10q14.5-12.5 14.5-31.25t10-77.25l9.5-55.5q2-17.5 13-45 12-13.5 28-13.5 7.5 0 21.5 13.5l373.5 363.5 79 65.5q17.5 14.5 40.25 14.5t27.5-6 4.75-30v-66.5zM793.5 613v45l-68-56.5q-21-19-146-141l-209-204.5q-45-44-73.5-44-39 0-65.5 30.5-15.5 18-22.5 55.25t-11.75 66.25-10.75 80.5q-22-1.5-33.5-6.5-4.5-2-27.75-29.25t-23.75-31.25q-2.5-15.5-2.5-55.25t20.5-215.75l-0.5-11.5q52.5-58 74.5-60.5l23.5-2q1 0 9 7 142 126.5 234 220.5l247.5 260.5z" />
<glyph unicode="&#x2713;" glyph-name="untitled2436" horiz-adv-x="804" d="M240.5-10q-14-6.5-55.5-6.5t-49.25 4.25-23.25 36.75q-62.5 129.5-62.5 201 0 18 23.5 34.5 47 33 79 33 13 0 19.5-11 42.5-108 53-108 5.5 0 26.5 31l237 351 82.5 101.5q24 29.5 76 45.5t99.5 16l7-16.5-95-112.5-213-281.5-147.5-228.5-36-61.5q-5.5-11-21.5-28.5z" />
<glyph unicode="&#x2714;" glyph-name="untitled2437" horiz-adv-x="894" d="M843.5 616.5q0-20-7-30l-92-100-249-262-133-128q-118.5-114-148.5-114h-1l-23.5 2q-21.5 2-70 41-21.5 17-41 40-9 10.5-9 38l-14.5 124q-6 52.5-6 92 0 13.5 1 25.5 2.5 47.5 5 53.75t26 34.25 33.5 38 31 16.75 41.5 6.75 35-10q14.5-12.5 14.5-31.25t10-77.25l9.5-55.5q2-17.5 13-45 12-13.5 28-13.5 7.5 0 21.5 13.5l373.5 363.5 79 65.5q17.5 14.5 40.25 14.5t27.5-6 4.75-30v-66.5z" />
<glyph unicode="&#x2715;" glyph-name="untitled2438" horiz-adv-x="809" d="M758.5 57.5l-60.5-60.5-293.5 295-294-295-60.5 60.5 296 294-296 293.5 60.5 60.5 294-295 293.5 295 60.5-61.5-295-292.5z" />
<glyph unicode="&#x2716;" glyph-name="untitled2439" horiz-adv-x="809" d="M758.5 175l-177-178-177 179-177.5-179-177 178 179 176.5-179 176 177 178 177.5-178 177 178 177-178-178-176z" />
<glyph unicode="&#x2717;" glyph-name="untitled2440" horiz-adv-x="686" d="M609 674q2.5 0 5.25-6.5t12-16.5 9.25-15-10-14.5-36-43l-156.5-204.5 31.5-63.5 80-171q-4.5-10.5-14-14.5v-8q-0.5-0.5-10.5-6.75t-10-10.25 5-14q-1.5-9-13-17.25t-21.25-8.25-38.75 45l-96 148.5-203-314.5q-16-12-53-12-8.5 0-22.75 22.5t-14.25 29 3.75 19.5-1.5 17.75-5.25 10.25 24.5 47.5l24.5 42q39.5 67.5 175.5 232l12 14.5-75.5 209q-11.5 32-11.5 35.75t13.5 20.75q10.5 9 15 9t15.5-9q6 5 16.5 5 3 1.5 9 7 5 8.5 11.5 8.5 9.5 0 18.5-18.5l77.5-154 26 32 50 57.5q93.5 107.5 98 107.5 12.5 0 36-19.5l11.5 10q7 10.5 11 10.5z" />
<glyph unicode="&#x2718;" glyph-name="untitled2441" horiz-adv-x="721" d="M621.5 683l-5-10q0-4 7.25-9.5t12.25-5.5 9.25 1.25 9.75-6.75l15.5-22.5q0-4-6.75-13.5t-6.75-11q-4 1.5-218-249l-5-6 63.5-82 88-105.5q-2-11.5-14.5-34t-19-22.5h-8.5q-2 0-7.25-8.25t-3.25-13.25-12.25-17.75-16.75-12.75-17 9.25-12 9.25q-1 0-17.25-17.5t-25.75-17.5l-8 2q-26.5 27-66.25 84.5t-48.75 69l-156.5-210h-13.5l-19.5 21.5 3 14.5q0 5-4 5t-25.5-8q-9.5 4.5-24.25 29t-14.75 23q0 3 6.25 11.25t6.25 14.75-7.75 21-8.75 19.5l88 106.5 83 97.5q-89 166-119 268.5 11 21 37 45 2.5-0.5 11.75-10t10.75-9.5q15.5 0 14.5 19.5-0.5 9.5 7.75 17t18.25 7.5 22-18.5l121-181q25.5 30 128.5 135.75t111 105.75q3 0 20-14t17-22z" />
<glyph unicode="&#x2726;" glyph-name="untitled2455" horiz-adv-x="842" d="M791.5 351.5q0-5.5-11.5-8.5-121.5-31-206.5-110.5-111.5-104-149.5-230.5-5.5-18.5-10-18.5h-0.5q-3.5-0.5-8 15.5-35.5 129-120 213-40.5 40.5-101.5 78.5t-113.5 54.5q-20.5 4-20.5 11.5 0 4.5 17.5 10 123.5 38 207 122 97.5 98.5 133 209 7 21.5 11.25 21.5t9.25-16.5q35-121.5 128.5-213.25t213.5-125.75q21.5-8.5 21.5-12z" />
<glyph unicode="&#x2728;" glyph-name="untitled2457" d="M974 238q-101-3.5-125.5-34.5-20-25-24.5-129.5h-15.5q-3 62-9.5 86.5-13 50-50 65-23 9-92.5 13v17q100.5 3 125.5 33.5 21 25 26 129h15.5q6.5-85.5 10.5-102 8.5-33.5 35.5-44.5t104.5-17v-16.5zM714 397q-147-7-203.5-26-68.5-24-93.5-89-23-59-27.5-204h-17q-4.5 143.5-28.25 206.25t-86.75 85.25-207.5 27.5v17q144.5 5.5 201 24.5 67 23 92.5 87.5 23 58 28.5 201h18v-5q0-131 27-194 27.5-64 99.5-89 60-20.5 197.5-25v-17zM767.5 21.5q-52-0.5-74-3.5-49-6.5-63.75-24.5t-20.5-48.25-12.25-107.75h-14.5q-5.5 90-12 114-10.5 38.5-42 52t-115.5 18.5v17.5q87.5 8.5 117 20t39 47.5q5.5 19.5 13.5 114h14.5q10-98.5 14-114.5 9.5-37 39.25-48.75t117.25-18.25v-18zM858 246q-28.5 12.5-43 41.5-14.5-28-46-41.5 31.5-14.5 46-44.5 14.5 30.5 43 44.5zM533.5 405.5q-121.5 30.5-153.5 144.5-15.5-62.5-49.25-96t-96.25-48.5q62.5-15.5 96.75-49.75t49.75-96.75q16 64 51.5 97.75t101 48.75zM639 32q-35.5 14.5-49 50.5-14.5-37-56-51.5 40.5-15 55.5-50.5 13.5 36.5 49.5 51.5z" />
<glyph unicode="&#x2729;" glyph-name="untitled2458" horiz-adv-x="870" d="M820 451.5l-218-191.5 71.5-277.5-238.5 157-238.5-157 62.5 277.5-209 191.5 282.5 19.5 102.5 248 102.5-248zM785 439.5l-285.5-21.5-64.5 268-64.5-268-285.5 21.5 236.5-161-103.5-266 217 190.5 216-190.5-109.5 266z" />
<glyph unicode="&#x272a;" glyph-name="untitled2459" horiz-adv-x="837" d="M679 611.25q107.5-107.75 107.5-260t-107.75-260.5-260-108.25-260.5 107.25-108.25 260.5 107.75 261 260.75 107.75 260.5-107.75zM745.5 462h-250l-78 230.5-76.5-230.5h-248l196.5-148.5-82-240.5 210 149.5 199-149.5-74 240.5z" />
<glyph unicode="&#x272b;" glyph-name="untitled2460" horiz-adv-x="891" d="M840.5 433l-271.5-159.5 116-291-246 195.5-239.5-195.5 106.5 291-256 159.5 302-12 82 298 87-298zM515 239.75q31.5 32.75 31.5 77.5t-32.25 76.75-77.5 32-77.75-31.75-32.5-77.5 33-77.75 78.5-32 77 32.75z" />
<glyph unicode="&#x272c;" glyph-name="untitled2461" horiz-adv-x="872" d="M822 448.5l-215-188.5 71.5-277.5-241.5 157-236.5-157 64.5 277.5-215 188.5 283.5 21.5 103.5 249 103.5-249zM557 317.5q0-18-6.5-39l238 159-284-21.5q52.5-42 52.5-98.5zM373.5 418q30.5 16 64 16t64-16l-64.5 267zM657 11.5l-107.5 265q-32.5-69.5-108.5-75.5zM321.5 319.5q0 55 50 96.5l-288.5 21.5 244.5-159q-6 26-6 41zM437 201q-70.5 0-108.5 75.5l-105.5-265z" />
<glyph unicode="&#x272d;" glyph-name="untitled2462" horiz-adv-x="882" d="M831.5 439.5l-227.5-175 92-282-255 167-253-167 80 282-218 175h283.5l107.5 279.5 109.5-279.5h281zM753.5 411.5h-221l-91.5 233.5-90-233.5h-223l172-137-63.5-228.5 204.5 136.5 204-136.5-73 228.5zM661.5 379l-126-94.5 57-169.5-151.5 103-155.5-103 47 169.5-119.5 94.5h159.5l68.5 183 71-183h149.5z" />
<glyph unicode="&#x272e;" glyph-name="untitled2463" horiz-adv-x="865" d="M673.5-10q0-6.5-8.25-6.5t-13.25 9.5l-218 142-221-139q-18-9-16.5-9-6 0-6 7 0 2.5 3 15.5l60.5 260-190.5 151.5q-13.5 13.5-13.5 14.5 0 6 20.5 8l252 25.5 99 232.5q7.5 17.5 12.5 17.5 7 0 11.5-17.5l100-232.5 249-25.5q6-0.5 13.25-1.5t7.25-6.5l-14.5-14.5-187.5-151.5 57.5-263.5q3-13.5 3-16zM704.5 405.5l-195.5 13.5-75 187.5-75-187.5-196.5-13.5 149.5-115.5-54-213 176 121.5 171-121.5-51 213zM602 377l-94.5-73 35-134-108.5 80-113.5-80 37.5 134-90 73h119l47 119.5 46-119.5h122z" />
<glyph unicode="&#x272f;" glyph-name="untitled2464" horiz-adv-x="880" d="M829.5 441.5l-226.5-170 104.5-289-263.5 180.5-254.5-180.5 99 289-238.5 170h295l99 277.5 97.5-277.5h288zM774 420h-250l-80-100.5zM444 319.5v348l-85-247.5zM672.5 27.5l-92 250-136.5 42zM444 319.5l-341 100.5 209-142.5zM444 185.5v133l-218-291z" />
<glyph unicode="&#x2730;" glyph-name="untitled2465" horiz-adv-x="974" d="M923.5 430l-220-160.5 93-270.5-136 5-150.5 113-182.5-134.5-134 27 88 266-231.5 176h291l90 267.5 12-1 114-17.5 85-249h218zM778 430h-253l-85 252-83-252h-244.5l195.5-144-83-246 215 155.5 207-155.5-77 246z" />
<glyph unicode="&#x2731;" glyph-name="untitled2466" horiz-adv-x="791" d="M741 236.5l-80.5-134-191.5 119 6-224.5h-159l6.5 224.5-192.5-119-80 134 200.5 115-200.5 114.5 80 134 192.5-124-6.5 229.5h159l-6-229.5 191.5 124 80.5-134-201.5-114.5z" />
<glyph unicode="&#x2732;" glyph-name="untitled2467" horiz-adv-x="769" d="M718.5 482.5l-214-126-56 94 212 130zM441 456h-112.5v249.5h112.5v-249.5zM718.5 220l-55-98-214 126 55 98zM321.5 450.5l-57.5-94-214 126 54.5 98zM441-3h-112.5v246h112.5v-246zM321.5 248l-212-126-58.5 98 214 126z" />
<glyph unicode="&#x2733;" glyph-name="untitled2468" horiz-adv-x="796" d="M745.5 331l-323 6 238-219-32-33-221 235.5 11-323.5h-44l10.5 323.5-212-235.5-34 33 231.5 219-320.5-6v44l320.5-9.5-238.5 217 31.5 33 221.5-237.5-14.5 327.5h47l-10-327.5 221 232.5 32-32-238-216 323 12.5v-44z" />
<glyph unicode="&#x2734;" glyph-name="untitled2469" horiz-adv-x="840" d="M789.5 353.5q0-8.5-19.5-8.5l-276.5-26.5 171-211q9-9 9-13 0-6.5-5-6.5t-16.5 11.5l-205.5 172-20.5-272.5q-3.5-16.5-7.5-16.5-9 0-9 19.5l-27.5 272.5-211-176q-11.5-9.5-13.5-9.5-7 0-7 7.5 0 5 10 15l175 209-268 19.5q-17.5 1.5-17.5 8 0 4.5 19.5 8.5l265 26.5-177 211q-8 9.5-8 13.5 0 7 5 7t16.5-11.5l211-173 21.5 273.5q3 15.5 7 15.5 6 0 8-18.5l30-273.5 214 184.5q9.5 8 13 8 7.5 0 7.5-7 0-4-11.5-15.5l-174-213 275.5-22.5q16.5-1.5 16.5-8z" />
<glyph unicode="&#x2735;" glyph-name="untitled2470" horiz-adv-x="841" d="M790.5 350.5l-222.5-51.5 119-199.5-8.5-8.5-193.5 122-56-230.5h-12.5l-47 222.5-204-122-8 8 122 195-229.5 54v10.5l229.5 51-122 208 8 8 191.5-125 59.5 226.5h12.5l48-223.5 207 127 8-9-128-196.5 226.5-55.5v-11zM659.5 590l-182.5-115-44-110.5zM750.5 354.5l-201 47-110.5-47h311.5zM422.5 367.5v316.5l-49-209zM657 121l-113.5 178-106.5 41zM408.5 361.5l-221.5 223.5 113-183.5zM471 226.5l-48.5 109.5v-316.5zM403.5 350.5l-322-3.5 216.5-48zM413.5 340l-228.5-230.5 184.5 117z" />
<glyph unicode="&#x2736;" glyph-name="untitled2471" horiz-adv-x="741" d="M691 530.5q0-3-12.5-12.5l-195.5-167.5 191.5-169q11.5-10 11.5-11.5 0-5-6-5-0.5 0-15.5 5l-233.5 79-52.5-251q-5-15.5-9.5-15.5t-8.5 18.5l-51.5 248-236.5-79q-18.5-9-18.5 1 0 1.5 13.5 13.5l189.5 166-197 170q-10 8.5-10 10 0 6 5 6-1.5 0 14.5-4l239.5-83 54.5 255q3.5 15.5 8 15.5 3.5 0 7-17.5l52.5-253 241.5 83q18.5 6.5 18.5-2z" />
<glyph unicode="&#x2737;" glyph-name="untitled2472" horiz-adv-x="823" d="M558 703.5l-2-15.5-41-223 237.5 42q20.5 3.5 20.5-4 0-5-14.5-12.5l-195.5-138 195.5-138.5q14.5-10.5 14.5-13 0-6.5-5-6.5-1.5 0-16.5 3l-236.5 47.5 45-232.5q2-10.5 2-16t-6.25-5.5-13.25 14l-133 188.5-134-189.5q-13-13-12.5-13-5 0-5 5l44 249-230.5-39q-12-2-15.5-2-6 0-6 4.5t15.5 15l191.5 129-190.5 137-14.5 14.5q0 5 6 5l16.5-2 227.5-42-42 226.5q0 0.5-1 7.5-3 14 5 14 5.5 0 12.5-14.5l133-188.5 129 185.5q7 14 13.25 14t6.25-6z" />
<glyph unicode="&#x2738;" glyph-name="untitled2473" horiz-adv-x="816" d="M766 208l-224.5 19.5 15.5-237.5-151.5 173-151.5-173 17 237.5-221-19.5 172 150.5-172 150.5 221-19.5-17 223.5 151.5-173.5 151.5 173.5-15.5-223.5 220 19.5-169-150.5z" />
<glyph unicode="&#x2739;" glyph-name="untitled2474" horiz-adv-x="840" d="M789.5 351.5l-181.5-55.5 131-129-178 45 52-178-145 133-51.5-184.5-46 180.5-134-135.5 46 179.5-180.5-46 134.5 138-186.5 52.5 186.5 51-134.5 138 180.5-46-46 180.5 134-135.5 46 179.5 51.5-184.5 145 133-52-178 178 45-131-129z" />
<glyph unicode="&#x273a;" glyph-name="untitled2475" horiz-adv-x="807" d="M50 366.5h278.5l-260 102.5 14.5 35 256-108.5-200 192.5 27.5 27.5 192.5-197.5-110.5 254 36 14 100.5-256v275.5h37.5l-6-275.5 99.5 256 36-14-106.5-254 192.5 197.5 28.5-27.5-197.5-192.5 252.5 108.5 15.5-35-257-102.5 276.5 5.5v-40l-276.5 5 257-103.5-15.5-36-252.5 113 197.5-195.5-25.5-28-195.5 202 112.5-257-36-14.5-105.5 260 6-280.5h-37.5l3 280.5-99.5-260-37 14.5 107.5 257-192.5-202-27.5 28 200 195.5-256-113-14.5 36 260 103.5-278.5-5v34.5z" />
<glyph unicode="&#x2794;" glyph-name="untitled2565" horiz-adv-x="945" d="M50 281.5v139.5h592l-221.5 225h183.5l291-294.5-291-295h-183.5l221.5 225h-592z" />
<glyph unicode="&#x2795;" glyph-name="untitled2566" horiz-adv-x="807" d="M756.5 290h-294v-293h-119.5v293h-293v122.5h293v293h119.5v-293h294v-122.5z" />
<glyph unicode="&#x2796;" glyph-name="untitled2567" horiz-adv-x="807" d="M756.5 290h-706.5v122.5h706.5v-122.5z" />
<glyph unicode="&#x2797;" glyph-name="untitled2568" horiz-adv-x="807" d="M756.5 290h-706.5v122.5h706.5v-122.5zM462.5 583h-119.5v122.5h119.5v-122.5zM462.5-3h-119.5v122.5h119.5v-122.5z" />
<glyph unicode="&#x2798;" glyph-name="untitled2569" horiz-adv-x="779" d="M729 93.5l-387 52 86 115.5-378 220.5 90 127 333-284 80 119z" />
<glyph unicode="&#x2799;" glyph-name="untitled2570" horiz-adv-x="976" d="M925.5 351.5l-402.5-211 82 183-555-68.5v192.5l555-68.5-82 183z" />
<glyph unicode="&#x279a;" glyph-name="untitled2571" horiz-adv-x="779" d="M729 608.5l-176-350.5-80 119-333-283.5-90 126.5 378 220.5-86 115.5z" />
<glyph unicode="&#x279b;" glyph-name="untitled2572" horiz-adv-x="970" d="M919.5 351.5l-307.5-68-293.5-116.5-6.5 3 109.5 172-371.5-13v45l371.5-13.5-109.5 171 6.5 4 293.5-116.5z" />
<glyph unicode="&#x279c;" glyph-name="untitled2573" horiz-adv-x="978" d="M688 80q-44-50-83.75-50t-66.5 26.5-26.75 67.5 35.5 80l63.5 53h-442q-57 0-82 19.5-36 28-36 71.5t27 70.5 86.5 27h446.5l-57 54.5q-42 40-42 78.25t26.75 66.5 66.75 28.25 80.5-46l242.5-275.5z" />
<glyph unicode="&#x279d;" glyph-name="untitled2574" horiz-adv-x="977" d="M704.5 335.5h-654.5v32h654.5v205l222-221-222-221v205z" />
<glyph unicode="&#x279e;" glyph-name="untitled2575" horiz-adv-x="1017" d="M967 288l-310.5-251 39 159-645.5-36 31.5 128-31.5 127 645.5-35.5-39 160z" />
<glyph unicode="&#x279f;" glyph-name="untitled2576" horiz-adv-x="1021" d="M971 288l-311-230 35.5 124-313.5-17.5 36 123.5-36 123 313.5-17-35.5 124zM388 288l-36-125.5-94-4.5 35.5 130-35.5 130 94-5zM250 288l-35-132.5-57-3 35.5 135.5-35.5 135.5 57-3zM116.5 288l-36-140-30.5-1.5 35.5 141.5-35.5 141.5 30.5-1z" />
<glyph unicode="&#x27a0;" glyph-name="untitled2577" horiz-adv-x="1067" d="M1017 288q-230-93.5-325.5-301h-9l21 128-204.5-11 35.5 184-35.5 184 204.5-10.5-21 127.5h9q95.5-208 325.5-301zM506 288l-36-186-88.5-4 35.5 190-35.5 191 88.5-5zM370.5 288l-35.5-192.5-61-3.5 35 196-35 197 61-4zM199.5 288l-35.5 203 40-2.5 35-200.5-35-200-40-2zM114 288q0 1.5-12-69l-23.5-138-28.5-1 35.5 208-35.5 208 28.5-1z" />
<glyph unicode="&#x27a1;" glyph-name="untitled2578" horiz-adv-x="1067" d="M1017 288l-325.5-301h-9l21 128-653.5-35v416l653.5-34.5-21 127.5h9z" />
<glyph unicode="&#x27a4;" glyph-name="untitled2581" horiz-adv-x="968" d="M917.5 351.5l-867.5-354.5 206 354.5-206 354z" />
<glyph unicode="&#x27a5;" glyph-name="untitled2582" horiz-adv-x="982" d="M572 167h-334.5q-97 0-140.5 46-31 33-39 67.75t-8 92.25v246.5h41v-16.5q0-85 42.5-111.5 31-19.5 120.5-19.5h318v86l359.5-237.5-359.5-237.5v84z" />
<glyph unicode="&#x27a6;" glyph-name="untitled2583" horiz-adv-x="982" d="M572 229.5h-317q-90.5 0-121-19-43-26-43-111v-16.5h-41v247q0 56.5 8.25 91.5t38.75 67q45 47 140.5 47h334.5v84l359.5-237.5-359.5-237.5v85z" />
<glyph unicode="&#x27a9;" glyph-name="untitled2586" horiz-adv-x="886" d="M431 42v161h-381v297h381v160.5h141l263.5-309-263.5-309.5h-141zM457.5 474h-381v-245.5h381v-165l256 288-256 287.5v-165z" />
<glyph unicode="&#x27aa;" glyph-name="untitled2587" horiz-adv-x="886" d="M417.5 42v161h-367.5v297h367.5v160.5h127l291-309-291-309.5h-127zM529 474h-374.5v-245.5h374.5v-165l270.5 288-270.5 287.5v-165z" />
<glyph unicode="&#x27b3;" glyph-name="untitled2596" horiz-adv-x="997" d="M763.5 161q-34.5 37.5-34.5 90.5t34.5 87.5h-225l-124-178h-364.5l134 190.5-134 191.5h364.5l124-179.5h225q-34.5 36-34.5 89t34.5 90.5q62.5-153.5 183.5-191.5-123-42.5-183.5-190.5zM506.5 363.5l-107.5 153.5h-50l106.5-153.5h51zM422.5 363.5l-106.5 153.5h-50l105.5-153.5h51zM340 363.5l-106.5 153.5h-52.5l107.5-153.5h51.5zM505.5 339h-50l-104.5-152.5h49zM256 363.5l-107.5 153.5h-49.5l106.5-153.5h50.5zM422.5 339h-50l-105.5-152.5h51.5zM340 339h-52.5l-104.5-152.5h53.5zM255 339h-50.5l-103.5-152.5h49.5z" />
<glyph unicode="&#x27b5;" glyph-name="untitled2598" horiz-adv-x="914" d="M687 214q-14.5 23-14.5 58.25t19.5 58.75h-167v41h167q-20.5 26.5-20.5 61.75t15.5 54.75q53-81 177-131v-12.5q-123.5-50.5-177-131zM520 372h-346l-124 117.5h347q57-68 123-117.5zM520 331l-122-122h-348l124 122h346z" />
<glyph unicode="&#x27b8;" glyph-name="untitled2601" horiz-adv-x="1019" d="M641 334q-114.5 0-159-32-32-23-56.5-69.75t-29.5-88.75h-346q6.5 70 46.5 127.5t104 80.5q-130 50.5-150.5 207.5h346q9-93.5 72-147.5 33-28.5 83-37.5 30.5-5.5 92-5.5h123q-71 71-75 210 120-161 277.5-227-137-55-277.5-227.5 11.5 143 75 210h-125z" />
<glyph unicode="&#x292c;" glyph-name="untitled2717" d="M962 716q0-7-5-12l-387-387-29 29 387 387q5 5 12 5 22 0 22-22zM962-140q0-22-22-22-7 0-12 5l-861 861q-5 5-5 12 0 22 22 22 7 0 12-5l861-861q5-5 5-12zM84-162q-22 0-22 22 0 7 5 12l387 387 29-29-387-387q-5-5-12-5z" />
<glyph unicode="&#x2b05;" glyph-name="untitled3190" d="M966.5 187q0-18.5-20.5-18.5h-502.5q-13.5 0-13.5-13v-138q0-12-18-12-2 0-6.75 0.25t-7.5 0.25-6.75 6.5q-64 110.5-133.25 167.5t-151.25 84.5q-13.5 3.5-40 12-9 3.5-9 11.5t9 11.5l40 12q82 27.5 151.25 84.5t133.25 167.5q4 6.5 6.75 6.5t7.5 0.25 6.75 0.25q18 0 18-12v-138q0-13 13.5-13h502.5q20.5 0 20.5-18.5v-202z" />
<glyph unicode="&#x2b1a;" glyph-name="untitled3211" horiz-adv-x="789" d="M730.5 548h-50v26h-26v50h76v-76zM611.5 574h-76v50h76v-50zM730.5 429h-50v76h50v-76zM492 574h-76v50h76v-50zM730.5 309.5h-50v76h50v-76zM373 574h-76v50h76v-50zM730.5 190.5h-50v76h50v-76zM253.5 574h-76v50h76v-50zM730.5 71h-50v76h50v-76zM134.5 574h-26v-26h-50v76h76v-50zM730.5-48h-76v50h26v26h50v-76zM108.5 429h-50v76h50v-76zM611.5-48h-76v50h76v-50zM108.5 309.5h-50v76h50v-76zM492-48h-76v50h76v-50zM108.5 190.5h-50v76h50v-76zM373-48h-76v50h76v-50zM108.5 71h-50v76h50v-76zM253.5-48h-76v50h76v-50zM134.5-48h-76v76h50v-26h26v-50z" />
<glyph unicode="&#x2b1b;" glyph-name="untitled3212" d="M954-154h-884v884h884v-884z" />
<glyph unicode="&#x2b1c;" glyph-name="untitled3213" d="M954-154h-884v884h884v-884zM904-104v784h-784v-784h784z" />
<glyph unicode="&#x2b1f;" glyph-name="untitled3216" horiz-adv-x="867" d="M818 413.5l-147-451.5h-475l-147 451.5 384.5 279z" />
<glyph unicode="&#x2b20;" glyph-name="untitled3217" horiz-adv-x="867" d="M818 413.5l-147-451.5h-475l-147 451.5 384.5 279zM759 394.5l-325.5 236-325.5-236 124.5-382.5h402z" />
<glyph unicode="&#x2b21;" glyph-name="untitled3218" horiz-adv-x="819" d="M760.5 85.5l-351-202-351 202v405l351 202 351-202v-405zM710.5 114.5v347l-301 173.5-301-173.5v-347l301-173.5z" />
<glyph unicode="&#x2b22;" glyph-name="untitled3219" horiz-adv-x="819" d="M760.5 85.5l-351-202-351 202v405l351 202 351-202v-405z" />
<glyph unicode="&#x2b23;" glyph-name="untitled3220" horiz-adv-x="827" d="M818 288l-202-351h-405l-202 351 202 351h405z" />
<glyph unicode="&#x2b24;" glyph-name="untitled3221" d="M1004 288q0-205-143.5-348.5t-348.5-143.5-348.5 143.5-143.5 348.5 143.5 348.5 348.5 143.5 348.5-143.5 143.5-348.5z" />
<glyph unicode="&#x2b2c;" glyph-name="untitled3229" horiz-adv-x="875" d="M855 288q0-130-150-208-123.5-64-267.5-64t-267.5 64q-150 78-150 208t150 208q123.5 64 267.5 64t267.5-64q150-78 150-208z" />
<glyph unicode="&#x2b2d;" glyph-name="untitled3230" horiz-adv-x="875" d="M855 288q0-130-150-208-123.5-64-267.5-64t-267.5 64q-150 78-150 208t150 208q123.5 64 267.5 64t267.5-64q150-78 150-208zM805 288q0 98-123 163.5-110.5 58.5-244.5 58.5t-244.5-58.5q-123-65.5-123-163.5t123-163.5q110.5-58.5 244.5-58.5t244.5 58.5q123 65.5 123 163.5z" />
<glyph unicode="&#x2b2e;" glyph-name="untitled3231" horiz-adv-x="644" d="M594 288q0-144-64-267.5-78-150-208-150t-208 150q-64 123.5-64 267.5t64 267.5q78 150 208 150t208-150q64-123.5 64-267.5z" />
<glyph unicode="&#x2b2f;" glyph-name="untitled3232" horiz-adv-x="644" d="M594 288q0-144-64-267.5-78-150-208-150t-208 150q-64 123.5-64 267.5t64 267.5q78 150 208 150t208-150q64-123.5 64-267.5zM544 288q0 134-58.5 244.5-65.5 123-163.5 123t-163.5-123q-58.5-110.5-58.5-244.5t58.5-244.5q65.5-123 163.5-123t163.5 123q58.5 110.5 58.5 244.5z" />
<glyph unicode="&#x2b53;" glyph-name="untitled3268" horiz-adv-x="822" d="M789 288l-279-384.5-451.5 147v475l451.5 147z" />
<glyph unicode="&#x2b54;" glyph-name="untitled3269" horiz-adv-x="822" d="M789 288l-279-384.5-451.5 147v475l451.5 147zM727 288l-236 325.5-382.5-124.5v-402l382.5-124.5z" />
<glyph unicode="&#x2b55;" glyph-name="untitled3270" d="M974 288q0-192.5-134.75-327.25t-327.25-134.75-327.25 134.75-134.75 327.25 134.75 327.25 327.25 134.75 327.25-134.75 134.75-327.25zM874 288q0 151-105.5 256.5t-256.5 105.5-256.5-105.5-105.5-256.5 105.5-256.5 256.5-105.5 256.5 105.5 105.5 256.5z" />
<glyph unicode="&#x2b56;" glyph-name="untitled3271" d="M997.5 324.5q0-138.5-101-235.5-89-86-232-119-65.5-15-152.5-15-188 0-325.5 88.5-160 103-160 281 0 127 87.5 220 78 82.5 208 123.5 82.5 26 191 26 187 0 325-89 159.5-103.5 159.5-280.5zM913 324.5q0 143.5-134.5 223-112.5 66.5-266.5 66.5-94.5 0-160.5-19.5-106.5-31.5-168.5-94-72-72.5-72-175 0-144 134.5-223.5 112.5-67 266.5-67 216 0 327.5 111.5 73.5 73.5 73.5 178zM722.5 490.5q113-57.5 113-166.25t-113-165.75q-89.5-45.5-210.25-45.5t-209.25 45q-112 57-112 166t111.5 166.5q88.5 46 209.25 46t210.75-46zM688 191.5q99 47 99 133.25t-98.5 132.75q-77.5 36.5-175 36.5t-176.5-37q-100-47-100-132t100.5-132.5q79.5-37.5 176.25-37.5t174.25 36.5z" />
<glyph unicode="&#x2b57;" glyph-name="untitled3272" d="M924 288q0-170.5-120.75-291.25t-291.25-120.75-291.25 120.75-120.75 291.25 120.75 291.25 291.25 120.75 291.25-120.75 120.75-291.25zM839.5 288q0 135.5-96 231.5t-231.5 96-231.5-96-96-231.5 96-231.5 231.5-96 231.5 96 96 231.5zM759.5 288q0-102.5-72.5-175t-175-72.5-175 72.5-72.5 175 72.5 175 175 72.5 175-72.5 72.5-175zM713.5 288q0 83.5-59 142.5t-142.5 59-142.5-59-59-142.5 59-142.5 142.5-59 142.5 59 59 142.5z" />
<glyph unicode="&#x2b59;" glyph-name="untitled3274" d="M974 288q0-192.5-134.75-327.25t-327.25-134.75-327.25 134.75-134.75 327.25 134.75 327.25 327.25 134.75 327.25-134.75 134.75-327.25zM512 650q-123 0-219-72.5l219-219 219 219q-96 72.5-219 72.5zM874 288q0 123-72.5 219l-219-219 219-219q72.5 96 72.5 219zM150 288q0-123 72.5-219l219 219-219 219q-72.5-96-72.5-219zM512-74q123 0 219 72.5l-219 219-219-219q96-72.5 219-72.5z" />
</font>
</defs>
</svg>
