<svg id="app-svgcanvas-dust00" xmlns="http://www.w3.org/2000/svg" version="1.1" width="1600" height="1000" class="app-svg" viewBox="0 0 200 200" preserveAspectRatio="xMidYMid" style="user-select: none; touch-action: none;"><g id="wrap-dust00" data-id="wrap-dust00" data-shapes="{&quot;backs&quot;:28,&quot;eyesback&quot;:14,&quot;eyesfront&quot;:14,&quot;eyebrows&quot;:10,&quot;eyesiris&quot;:7,&quot;body&quot;:0,&quot;ears&quot;:4,&quot;nose&quot;:3,&quot;faceshape&quot;:7,&quot;clothes&quot;:6,&quot;hair&quot;:15,&quot;mouth&quot;:4}" data-colors="{&quot;faceshape&quot;:&quot;#764630&quot;,&quot;body&quot;:&quot;#764630&quot;,&quot;ears&quot;:&quot;#764630&quot;,&quot;nose&quot;:&quot;#764630&quot;,&quot;eyesfront&quot;:&quot;#764630&quot;,&quot;mouth&quot;:&quot;#cc3399&quot;,&quot;eyebrows&quot;:&quot;#543c32&quot;}" data-author-mouth="vectorcharacters.net" data-backs-single-scalex="1.4346" data-backs-single-scaley="1.4346" style="display: inline;"><g id="backs-single-dust00" data-scaleX="1.4346" data-scaleY="1.4346" data-shape="28" data-cn="true" transform="matrix(1.4335 0 0 1.4335 -43.349999999999994 -43.349999999999994)" style="display: inline;"><path id="SvgjsPath1046" d="M225.0 225.0H-25.0V-25.0H225.0V225.0z " data-colored="true" data-filltype="tone" data-stroketype="none" fill="#ecf0f1" stroke="none"/><path id="SvgjsPath1047" d="M188.9 107.3C188.9 111.9 184.8 115.6 179.7 115.6C174.6 115.6 170.5 111.9 170.5 107.3S174.6 99.0 179.7 99.0C184.8 99.0 188.9 102.7 188.9 107.3 " data-colored="true" data-filltype="sd1" data-stroketype="none" fill="#c6dce2" stroke="none" opacity="0.57"/><path id="SvgjsPath1048" d="M163.7 97.3C163.7 99.6 161.6 101.6 158.9 101.6C156.3 101.6 154.1 99.7 154.1 97.3C154.1 95.0 156.2 93.0 158.9 93.0C161.6 93.0 163.7 94.9 163.7 97.3 " data-colored="true" data-filltype="sd1" data-stroketype="none" fill="#c6dce2" stroke="none"/><path id="SvgjsPath1049" d="M29.4 125.1C29.4 127.4 27.3 129.4 24.6 129.4C22.0 129.4 19.8 127.5 19.8 125.1C19.8 122.8 21.9 120.8 24.6 120.8C27.2 120.9 29.3 122.7 29.4 125.1 " data-colored="true" data-filltype="sd1" data-stroketype="none" fill="#c6dce2" stroke="none" opacity="0.64"/><path id="SvgjsPath1050" d="M33.5 135.1C33.5 136.5 32.3 137.6 30.7 137.6S27.9 136.5 27.9 135.1C27.9 133.7 29.1 132.6 30.7 132.6C32.3 132.6 33.5 133.7 33.5 135.1 " data-colored="true" data-filltype="sd1" data-stroketype="none" fill="#c6dce2" stroke="none"/><path id="SvgjsPath1051" d="M61.7 124.2C61.7 124.8 61.2 125.3 60.5 125.3C59.8 125.3 59.3 124.8 59.3 124.2C59.3 123.6 59.8 123.1 60.5 123.1C61.2 123.1 61.7 123.6 61.7 124.2 " data-colored="true" data-filltype="sd1" data-stroketype="none" fill="#c6dce2" stroke="none"/><path id="SvgjsPath1052" d="M110.1 108.0C110.1 109.4 108.8 110.6 107.3 110.6C105.7 110.6 104.5 109.4 104.5 108.0C104.5 106.6 105.8 105.4 107.3 105.4C108.8 105.4 110.1 106.5 110.1 108.0 " data-colored="true" data-filltype="sd1" data-stroketype="none" fill="#c6dce2" stroke="none"/><path id="SvgjsPath1053" d="M99.3 113.8C99.3 115.2 98.0 116.4 96.5 116.4C94.9 116.4 93.7 115.2 93.7 113.8S95.0 111.2 96.5 111.2C98.0 111.3 99.3 112.4 99.3 113.8 " data-colored="true" data-filltype="sd1" data-stroketype="none" fill="#c6dce2" stroke="none" opacity="0.2"/><path id="SvgjsPath1054" d="M54.5 120.5C54.5 121.8 53.3 122.9 51.9 122.9S49.3 121.8 49.3 120.5C49.3 119.2 50.5 118.1 51.9 118.1C53.3 118.2 54.5 119.2 54.5 120.5 " data-colored="true" data-filltype="sd1" data-stroketype="none" fill="#c6dce2" stroke="none" opacity="0.87"/><path id="SvgjsPath1055" d="M182.8 68.2C182.8 71.0 180.4 73.2 177.3 73.2C174.3 73.2 171.8 71.0 171.8 68.2C171.8 65.4 174.2 63.2 177.3 63.2C180.3 63.2 182.8 65.4 182.8 68.2 " data-colored="true" data-filltype="sd1" data-stroketype="none" fill="#c6dce2" stroke="none" opacity="0.81"/><path id="SvgjsPath1056" d="M196.0 84.6C196.0 86.7 194.1 88.4 191.8 88.4S187.6 86.7 187.6 84.6C187.6 82.5 189.5 80.8 191.8 80.8C194.1 80.8 196.0 82.5 196.0 84.6 " data-colored="true" data-filltype="sd1" data-stroketype="none" fill="#c6dce2" stroke="none"/><path id="SvgjsPath1057" d="M32.1 71.0C32.1 72.4 30.8 73.6 29.3 73.6C27.7 73.6 26.5 72.4 26.5 71.0C26.5 69.6 27.8 68.4 29.3 68.4C30.8 68.4 32.1 69.5 32.1 71.0 " data-colored="true" data-filltype="sd1" data-stroketype="none" fill="#c6dce2" stroke="none"/><path id="SvgjsPath1058" d="M21.3 76.8C21.3 78.2 20.0 79.4 18.5 79.4C16.9 79.4 15.7 78.2 15.7 76.8C15.7 75.4 17.0 74.2 18.5 74.2C20.0 74.3 21.3 75.4 21.3 76.8 " data-colored="true" data-filltype="sd1" data-stroketype="none" fill="#c6dce2" stroke="none" opacity="0.2"/><path id="SvgjsPath1059" d="M121.5 35.3C120.2 35.9 118.6 35.3 117.9 33.9C117.2 32.5 117.7 30.9 118.9 30.2C120.2 29.6 121.8 30.2 122.5 31.6C123.3 33.0 122.8 34.6 121.5 35.3 " data-colored="true" data-filltype="sd1" data-stroketype="none" fill="#c6dce2" stroke="none"/><path id="SvgjsPath1060" d="M111.4 28.2C110.1 28.8 108.5 28.2 107.8 26.8C107.1 25.4 107.6 23.8 108.8 23.1C110.1 22.5 111.7 23.1 112.4 24.5C113.1 25.9 112.7 27.6 111.4 28.2 " data-colored="true" data-filltype="sd1" data-stroketype="none" fill="#c6dce2" stroke="none" opacity="0.2"/><path id="SvgjsPath1061" d="M44.4 18.5C44.4 21.3 42.0 23.5 38.9 23.5C35.9 23.5 33.4 21.3 33.4 18.5C33.4 15.7 35.8 13.5 38.9 13.5C42.0 13.5 44.4 15.7 44.4 18.5 " data-colored="true" data-filltype="sd1" data-stroketype="none" fill="#c6dce2" stroke="none" opacity="0.81"/><path id="SvgjsPath1062" d="M161.1 178.2C161.1 181.0 158.7 183.2 155.6 183.2C152.6 183.2 150.1 181.0 150.1 178.2S152.5 173.2 155.6 173.2C158.6 173.2 161.1 175.4 161.1 178.2 " data-colored="true" data-filltype="sd1" data-stroketype="none" fill="#c6dce2" stroke="none" opacity="0.81"/><path id="SvgjsPath1063" d="M149.9 161.1C149.8 159.7 151.0 158.4 152.5 158.3S155.4 159.2 155.5 160.7C155.6 162.1 154.4 163.4 152.9 163.5C151.3 163.6 150.0 162.5 149.9 161.1 " data-colored="true" data-filltype="sd1" data-stroketype="none" fill="#c6dce2" stroke="none"/><path id="SvgjsPath1064" d="M141.6 144.8C141.5 143.4 142.7 142.1 144.2 142.0S147.1 142.9 147.2 144.4C147.3 145.8 146.1 147.1 144.6 147.2C143.0 147.2 141.7 146.2 141.6 144.8 " data-colored="true" data-filltype="sd1" data-stroketype="none" fill="#c6dce2" stroke="none" opacity="0.2"/><path id="SvgjsPath1065" d="M57.1 180.0C56.2 181.1 54.5 181.2 53.3 180.3C52.1 179.3 51.8 177.6 52.7 176.5C53.6 175.4 55.3 175.3 56.5 176.2C57.7 177.2 58.0 178.9 57.1 180.0 " data-colored="true" data-filltype="sd1" data-stroketype="none" fill="#c6dce2" stroke="none"/><path id="SvgjsPath1066" d="M45.0 177.9C44.1 179.0 42.4 179.1 41.2 178.2C40.0 177.2 39.7 175.5 40.6 174.4C41.5 173.3 43.2 173.2 44.4 174.1C45.6 175.1 45.9 176.8 45.0 177.9 " data-colored="true" data-filltype="sd1" data-stroketype="none" fill="#c6dce2" stroke="none" opacity="0.2"/><path id="SvgjsPath1067" d="M20.5 143.6C20.5 148.3 16.4 152.1 11.4 152.1S2.3 148.3 2.3 143.6S6.4 135.1 11.4 135.1C16.4 135.1 20.5 138.8 20.5 143.6 " data-colored="true" data-filltype="2stepsDarker" data-stroketype="none" fill="#94c0cb" stroke="none"/><path id="SvgjsPath1068" d="M11.4 135.1C6.4 135.1 2.3 138.9 2.3 143.6C2.3 143.9 2.3 144.2 2.3 144.4C2.8 140.1 6.6 136.7 11.4 136.7C16.1 136.7 20.0 140.1 20.5 144.4C20.5 144.1 20.5 143.8 20.5 143.5V143.4C20.5 138.8 16.4 135.1 11.4 135.1L11.4 135.1z " data-colored="true" data-filltype="3stepsDarker" data-stroketype="none" fill="#ecf0f1" stroke="none"/><path id="SvgjsPath1069" d="M11.4 152.2C16.4 152.2 20.5 148.4 20.5 143.7C20.5 143.4 20.5 143.1 20.5 142.9C20.0 147.2 16.2 150.6 11.4 150.6C6.7 150.6 2.8 147.2 2.3 142.9C2.3 143.2 2.3 143.5 2.3 143.8V143.9C2.3 148.4 6.4 152.2 11.4 152.2z " data-colored="true" data-filltype="1stepDarker" data-stroketype="none" fill="#d9e6e9" stroke="none"/><path id="SvgjsPath1070" d="M43.7 51.1C43.7 57.6 38.4 62.9 31.9 62.9S20.1 57.6 20.1 51.1C20.1 44.6 25.4 39.3 31.9 39.3C38.4 39.3 43.6 44.5 43.6 51.0 " data-colored="true" data-filltype="2stepsDarker" data-stroketype="none" fill="#94c0cb" stroke="none"/><path id="SvgjsPath1071" d="M32.0 39.3C25.5 39.3 20.3 44.6 20.3 51.1C20.3 51.5 20.3 51.9 20.4 52.3C21.0 46.3 26.0 41.7 32.1 41.7C38.2 41.7 43.2 46.4 43.8 52.3C43.8 51.9 43.9 51.5 43.9 51.1V51.0C43.7 44.5 38.4 39.3 32.0 39.3L32.0 39.3z " data-colored="true" data-filltype="3stepsDarker" data-stroketype="none" fill="#ecf0f1" stroke="none"/><path id="SvgjsPath1072" d="M32.0 63.0C38.5 63.0 43.7 57.7 43.7 51.2C43.7 50.8 43.7 50.4 43.6 50.0C43.0 56.0 38.0 60.6 31.9 60.6C25.8 60.6 20.8 55.9 20.2 50.0C20.2 50.4 20.1 50.8 20.1 51.2V51.3C20.3 57.8 25.5 63.0 32.0 63.0z " data-colored="true" data-filltype="1stepDarker" data-stroketype="none" fill="#d9e6e9" stroke="none"/><path id="SvgjsPath1073" d="M166.5 139.0C166.5 145.5 161.2 150.8 154.7 150.8C148.2 150.8 142.9 145.5 142.9 139.0S148.2 127.2 154.7 127.2C161.2 127.2 166.4 132.4 166.4 138.9 " data-colored="true" data-filltype="2stepsDarker" data-stroketype="none" fill="#94c0cb" stroke="none"/><path id="SvgjsPath1074" d="M154.8 127.2C148.3 127.2 143.1 132.5 143.1 139.0C143.1 139.4 143.1 139.8 143.2 140.2C143.8 134.2 148.8 129.6 154.9 129.6C161.0 129.6 166.0 134.3 166.6 140.2C166.6 139.8 166.7 139.4 166.7 139.0V138.9C166.5 132.4 161.2 127.2 154.8 127.2L154.8 127.2z " data-colored="true" data-filltype="3stepsDarker" data-stroketype="none" fill="#ecf0f1" stroke="none"/><path id="SvgjsPath1075" d="M154.8 151.0C161.3 151.0 166.5 145.7 166.5 139.2C166.5 138.8 166.5 138.4 166.4 138.0C165.8 144.0 160.8 148.6 154.7 148.6C148.6 148.6 143.6 143.9 143.0 138.0C143.0 138.4 142.9 138.8 142.9 139.2V139.3C143.1 145.7 148.3 151.0 154.8 151.0z " data-colored="true" data-filltype="1stepDarker" data-stroketype="none" fill="#d9e6e9" stroke="none"/></g><g id="subwrap-dust00" style="display: inline;"><g id="hair-back-dust00" data-shape="15" style="display: inline;"><path id="SvgjsPath1198" d="M151.6 41.1L52.1 35.4C52.1 35.4 27.0 218.3 27.0 224.0C27.0 224.0 127.9 224.7 170.9 224.0C170.1 216.1 151.6 41.1 151.6 41.1z " data-colored="true" data-filltype="sd2" data-stroketype="none" fill="#0c080c" stroke-width="none" opacity="1"/><path id="SvgjsPath1199" d="M121.8 135.1C134.8 163.9 124.3 162.1 125.6 174.7C126.0 177.6 126.8 180.3 127.1 182.5C127.4 184.2 127.6 188.9 127.3 184.7C127.1 183.5 127.0 182.7 126.2 179.9C125.9 178.5 125.5 177.1 125.2 175.6C123.4 167.8 128.1 163.0 127.4 154.3C126.8 149.6 126.3 146.0 121.8 135.1zM132.5 168.1C135.0 178.5 134.9 180.8 132.2 194.9C131.6 197.6 131.4 199.3 131.4 199.0C132.4 193.8 135.3 186.0 135.3 177.1C135.4 173.6 133.4 166.0 132.9 162.6C132.9 162.7 132.9 162.6 132.9 162.7C132.1 151.3 137.8 143.3 136.8 127.4C137.4 146.2 128.7 153.3 132.5 168.1zM71.2 126.8C71.3 127.3 71.5 127.9 71.6 128.7C71.7 129.4 71.9 130.3 71.9 131.2C72.4 138.5 70.1 145.9 69.9 154.2C70.0 160.4 71.8 168.5 72.0 173.0C72.1 174.5 72.1 176.3 72.1 178.3C72.0 180.3 71.8 182.6 71.7 185.0C71.3 189.7 71.2 189.0 71.2 199.2C71.2 206.5 71.0 210.0 71.0 210.0C71.0 209.6 71.3 207.2 71.6 203.7C72.2 195.2 71.6 194.9 73.0 184.2C74.0 176.6 73.9 173.1 73.5 169.3C73.5 169.3 73.5 169.3 73.5 169.3C72.6 160.6 70.4 158.9 71.4 147.3C71.9 142.4 72.5 137.6 72.3 133.5C72.3 131.5 72.0 129.7 71.7 128.3C71.4 126.9 71.0 125.8 70.7 125.1C70.7 125.1 70.9 125.7 71.2 126.8zM60.8 146.8C61.0 154.5 61.3 157.3 61.1 160.5C61.0 161.3 61.0 162.0 61.0 162.6C60.4 172.6 64.3 172.3 64.7 194.9C64.8 197.2 64.9 199.3 64.8 201.1C64.3 217.8 66.1 190.9 64.9 178.7C64.2 172.8 62.8 171.1 62.8 163.7C62.8 164.0 62.8 163.8 62.8 163.8C62.8 155.9 63.5 167.7 62.2 147.6C61.5 137.4 66.7 128.8 65.7 116.7C66.2 128.4 60.8 136.8 60.8 146.8z " data-colored="true" data-filltype="sd3" data-stroketype="none" fill="#000000" stroke-width="none" opacity="1"/></g><g id="body-single-dust00" data-shape="0" style="display: inline;"><path id="SvgjsPath1176" d="M190.9 199.9C184.8 189.7 177.4 187.9 171.2 185.9C164.9 183.9 151.9 182.8 144.8 181.3C137.9 180.0 121.6 175.5 121.4 167.8C121.3 159.8 125.7 127.8 125.7 127.8H74.0C74.0 127.8 78.5 159.8 78.3 167.8C78.1 175.5 61.8 180.0 55.0 181.3C47.9 182.8 34.8 183.9 28.5 185.9C22.4 187.9 14.9 189.7 8.9 199.9C5.2 206.0 2.9 216.0 2.9 227.0H196.9C196.9 216.0 194.5 206.0 190.9 199.9z " data-colored="true" data-filltype="tone" data-stroketype="none" data-fromskin="true" fill="#764630" stroke-width="none" opacity="1" stroke="none"/><path id="SvgjsPath1177" d="M121.4 167.8C123.9 178.8 139.6 181.5 147.7 183.2C169.6 187.5 181.5 188.3 190.0 202.7C192.9 207.6 195.5 218.6 196.0 226.9C197.8 227.2 196.5 209.4 190.9 199.9C181.1 183.4 161.8 184.7 144.8 181.3C137.9 180.0 121.6 175.5 121.4 167.8L121.4 167.8zM78.6 167.8C78.4 175.5 62.1 180.0 55.2 181.3C38.2 184.7 18.9 183.4 9.1 199.9C3.5 209.4 2.2 227.2 4.0 226.9C4.5 218.6 7.1 207.6 10.0 202.7C18.5 188.3 30.4 187.5 52.3 183.2C60.4 181.5 76.1 178.8 78.6 167.8L78.6 167.8z " data-colored="true" data-filltype="hl1" data-stroketype="none" data-fromskin="true" fill="#855844" stroke-width="none" opacity="1" stroke="none"/><path id="SvgjsPath1178" d="M51.2 189.5C51.2 189.5 79.8 189.8 84.7 191.4C87.0 192.2 93.1 197.0 93.1 197.0S86.5 193.9 84.4 193.3C79.5 191.9 51.2 189.5 51.2 189.5zM99.8 200.0C101.8 200.0 107.7 196.2 107.7 196.2S102.1 198.3 100.3 198.4C98.8 198.4 94.0 197.1 94.0 197.1S98.1 200.0 99.8 200.0zM117.0 192.8C123.8 190.9 146.8 189.5 146.8 189.5S123.0 189.0 116.3 191.3C114.0 192.0 108.7 196.4 108.7 196.4S114.8 193.4 117.0 192.8z " data-colored="true" data-filltype="sd1" data-stroketype="none" data-fromskin="true" fill="#673620" stroke-width="none" opacity="1" stroke="none"/><path id="SvgjsPath1179" d="M190.9 199.9C181.1 183.4 161.7 184.7 144.8 181.3C137.9 180.0 121.6 175.5 121.4 167.8C121.3 159.8 125.7 127.8 125.7 127.8H74.0C74.0 127.8 78.5 159.8 78.3 167.8C78.1 175.5 61.8 180.0 55.0 181.3C47.9 182.8 34.8 183.9 28.5 185.9C22.4 187.9 14.9 189.7 8.9 199.9C5.2 206.0 2.9 216.0 2.9 227.0H196.9C196.9 216.0 194.5 206.0 190.9 199.9z " data-colored="true" data-filltype="none" data-stroketype="sd3" data-fromskin="true" fill="none" stroke="#481c08" stroke-width="1.5" opacity="1"/></g><g id="chinshadow-single-dust00" data-shape="7" style="display: inline;"><path id="SvgjsPath1369" d="M100.0 171.0C107.5 171.0 114.6 169.1 120.8 166.0C121.1 157.6 123.8 137.1 124.8 130.1C120.0 129.2 114.6 128.7 109.0 128.4H91.0C85.3 128.7 79.8 129.3 75.0 130.1C75.9 137.2 78.6 157.4 78.9 165.9C85.2 169.1 92.4 171.0 100.0 171.0z " data-colored="false" data-filltype="gradient" data-stroketype="none" data-fromskin="true" fill="url(#SvgjsLinearGradient1370)" opacity="1"/></g><g id="clothes-single-dust00" data-shape="6" style="display: inline;"><path id="SvgjsPath1194" d="M30.0 232.6C32.2 214.3 30.1 189.3 29.9 184.8C31.4 181.7 34.1 181.7 36.9 183.0C37.9 181.6 39.8 180.9 42.3 181.9V181.8C43.4 180.9 44.1 179.1 46.4 180.3C48.0 178.6 50.2 178.8 52.3 179.8H52.4L52.5 179.7C53.1 177.8 54.6 177.6 56.5 178.6V178.4C57.1 176.8 59.5 177.1 61.2 177.5C73.4 187.4 90.9 198.6 103.6 205.9C103.7 205.8 121.7 192.5 121.7 192.4C123.3 191.5 132.9 184.7 139.7 179.3C141.5 178.7 144.2 178.3 145.8 179.2C146.8 178.9 147.7 178.5 149.7 180.5L149.7 180.5C151.7 179.6 154.9 179.4 155.8 182.1C156.8 181.9 159.4 180.7 160.2 182.5L160.4 182.6C162.2 182.1 163.5 182.5 164.1 183.1L164.2 183.1C166.0 182.4 168.4 182.2 169.3 184.0C169.7 184.7 169.5 185.1 169.5 186.0C165.3 212.2 166.1 223.5 168.2 232.8C145.4 233.4 31.0 232.6 30.0 232.6z " data-colored="true" data-filltype="tone" data-stroketype="none" fill="#09aac5" stroke-width="none" opacity="1"/><path id="SvgjsPath1195" d="M147.8 184.7C145.9 182.5 143.9 182.9 143.1 183.4C142.2 181.1 137.2 181.7 135.8 182.4C137.2 181.3 138.5 180.3 139.7 179.3C141.5 178.7 144.2 178.3 145.8 179.2C146.8 178.9 147.7 178.5 149.7 180.5L149.7 180.6C151.7 179.6 154.9 179.5 155.8 182.1C156.8 182.0 159.4 180.7 160.2 182.6L160.4 182.7C162.2 182.1 163.5 182.6 164.1 183.2L164.2 183.1C166.0 182.4 168.4 182.2 169.3 184.0C169.7 184.8 169.5 185.2 169.5 186.1C169.4 187.7 169.3 188.1 169.2 189.6C168.5 188.2 164.5 187.4 163.7 188.5C163.1 187.0 160.1 187.1 159.1 187.7C157.7 186.1 156.5 185.8 154.3 186.5C153.1 184.3 150.8 183.8 147.8 184.7zM37.9 187.9C38.4 185.8 42.2 185.7 44.0 185.6C44.3 185.3 45.8 183.4 48.6 184.2C50.3 182.1 54.1 182.8 54.8 182.9C55.2 182.9 56.1 181.1 59.3 182.0C60.4 180.1 63.6 180.5 64.5 180.6C63.7 180.0 61.9 178.1 61.2 177.5C59.5 177.1 57.1 176.8 56.5 178.4V178.6C54.6 177.6 53.1 177.8 52.5 179.7L52.4 179.8H52.3C50.2 178.8 48.0 178.6 46.4 180.3C44.1 179.1 43.4 180.9 42.3 181.8V181.9C39.8 180.9 37.9 181.6 36.9 183.0C34.1 181.7 31.4 181.7 29.9 184.8C29.9 185.5 30.0 187.5 30.0 189.2C32.9 186.8 36.1 187.3 37.9 187.9z " data-colored="true" data-filltype="hl1" data-stroketype="none" fill="#1fbad4" stroke-width="none" opacity="1"/><path id="SvgjsPath1196" d="M36.9 183.3C37.8 188.4 41.4 198.8 43.4 204.0C41.0 199.8 36.1 190.0 36.9 183.3C37.2 183.4 36.5 183.2 36.9 183.3zM42.1 182.1C43.8 189.9 47.5 199.6 59.0 212.0C51.4 200.7 44.3 189.0 42.4 182.0C41.6 181.8 42.7 182.1 42.1 182.1zM60.8 202.0C55.2 195.6 50.3 188.4 46.0 180.2C47.3 184.4 53.0 196.4 60.8 202.0zM60.8 202.0C61.5 202.7 62.3 203.3 63.0 204.0C62.3 203.3 61.5 202.7 60.8 202.0zM93.0 201.2C83.2 195.1 68.2 183.7 60.1 177.2C63.5 182.7 80.4 196.9 93.0 201.2zM146.2 179.3C138.0 191.9 127.2 199.3 115.4 207.5C131.4 199.7 139.9 191.7 146.0 179.3C145.5 179.1 146.6 179.3 146.2 179.3zM149.7 180.6L149.7 180.5C149.6 180.4 149.6 180.3 149.5 180.3C145.3 190.6 137.7 199.3 129.6 208.4C139.2 200.6 145.8 192.2 149.7 180.6C149.0 180.6 150.4 180.2 149.7 180.6zM155.8 182.1C155.8 182.0 155.7 181.9 155.7 181.8C150.6 195.2 142.1 207.4 134.8 219.3C146.3 209.0 154.1 192.2 155.8 182.1C155.0 182.2 156.2 182.0 155.8 182.1zM160.4 182.6L160.2 182.5C160.1 182.2 160.5 182.7 160.2 182.5C156.9 191.0 154.5 198.7 149.5 205.7C156.5 198.4 159.6 190.5 160.4 182.6C160.0 182.6 160.9 182.5 160.4 182.6zM164.1 183.1C163.9 183.2 164.3 183.0 164.2 183.1L164.1 183.1C163.8 182.8 164.7 183.2 163.9 183.1C162.3 195.0 160.2 206.1 156.5 217.0C161.6 205.6 166.1 195.3 164.1 183.1zM140.2 179.2C139.3 179.3 140.5 179.0 139.7 179.3C132.9 184.7 123.3 191.5 121.7 192.4C121.7 192.5 115.7 199.1 110.9 202.7C124.6 193.6 132.2 189.4 140.2 179.2zM56.1 178.8C55.2 178.1 64.7 192.9 84.1 201.1C72.5 194.9 62.6 187.1 56.1 178.8zM52.5 179.7L52.4 179.8H52.3C50.9 180.2 64.0 199.2 74.9 206.9C66.2 198.8 52.5 179.7 52.5 179.7z " data-colored="true" data-filltype="sd1" data-stroketype="none" fill="#009cb6" stroke-width="none" opacity="1"/><path id="SvgjsPath1197" d="M169.7 184.7C169.2 182.2 166.6 182.1 164.1 183.0C164.1 182.9 164.1 183.0 164.1 183.0C163.6 182.4 162.2 182.0 160.4 182.5C159.5 180.9 157.6 181.4 155.9 182.0C155.0 179.4 151.5 179.4 149.8 180.4C149.8 180.4 149.8 180.4 149.8 180.4C147.8 178.4 146.8 178.8 145.8 179.0C144.1 178.2 141.4 178.6 139.7 179.2C134.2 183.6 127.3 188.4 121.6 192.4C121.6 192.5 113.5 198.5 103.6 205.8C88.8 197.2 72.8 186.7 61.2 177.4C59.4 177.0 57.0 176.7 56.4 178.4C56.4 178.4 56.4 178.4 56.4 178.4C54.5 177.5 53.0 177.8 52.4 179.7C52.3 179.7 52.3 179.7 52.3 179.7C50.2 178.7 48.0 178.5 46.3 180.2C45.6 179.8 44.9 179.7 44.1 180.0C43.2 180.4 42.2 181.6 42.2 181.8C39.8 180.8 37.8 181.5 36.9 182.9C34.0 181.5 30.9 181.8 29.8 184.8C29.8 185.8 32.4 209.2 29.9 232.7C29.9 232.7 168.3 232.9 168.3 232.9C166.2 227.7 166.2 211.3 169.7 184.7zM30.6 232.4C34.7 216.0 30.9 196.3 30.0 185.8C31.1 182.8 34.3 182.5 36.7 183.4C37.3 188.1 38.6 192.7 41.2 197.7C40.5 196.2 37.3 183.9 37.3 183.5C38.7 181.9 40.7 181.6 42.4 182.3C44.8 190.6 52.1 202.4 54.2 204.5C52.9 203.1 42.9 183.1 42.5 182.1C43.6 180.7 44.8 180.1 46.3 180.8C50.4 188.9 55.6 195.7 57.0 197.1C57.0 197.1 46.8 180.6 46.7 180.6C48.0 179.4 50.4 179.6 52.2 180.2C52.2 180.2 52.2 180.2 52.2 180.2C78.2 213.6 58.3 186.0 52.6 180.0C52.6 179.9 52.6 179.9 52.7 179.9C53.7 177.7 55.4 178.8 56.6 179.5C61.7 186.8 75.1 196.1 76.3 196.5C75.5 196.2 62.6 185.9 57.1 179.3C57.2 178.3 57.4 177.3 60.2 177.6C73.5 189.7 89.9 200.0 102.3 206.7C89.5 216.2 74.5 227.3 71.1 230.0C72.1 229.4 121.5 196.7 140.8 179.2C142.9 178.9 144.7 179.1 145.6 179.4C145.6 179.5 145.6 179.5 145.6 179.5C138.4 190.3 118.9 205.6 115.4 207.2C120.9 204.9 140.2 191.4 146.2 179.3C146.2 179.3 146.2 179.3 146.3 179.3C147.3 179.2 148.8 180.2 149.5 180.9C149.5 180.9 149.5 180.9 149.5 181.0C146.5 187.1 136.3 201.6 131.4 206.0C139.4 198.7 146.0 190.7 150.0 180.7C152.2 180.0 154.4 180.3 155.6 182.3C153.4 187.8 154.8 187.3 145.5 201.6C136.7 215.3 139.8 213.1 132.6 222.1C148.8 201.9 153.3 191.0 155.7 182.6C155.7 182.6 155.8 182.6 155.8 182.6C157.7 182.0 159.1 181.6 159.9 183.0C159.9 183.0 159.9 183.0 159.9 183.1C157.3 190.6 153.7 198.2 152.7 200.3C159.1 190.4 158.3 190.7 160.2 183.0C162.0 182.4 163.4 182.8 163.9 183.2C162.9 191.8 160.6 202.1 158.6 210.1C159.1 208.1 164.3 199.8 164.2 183.4C164.2 183.4 164.2 183.4 164.2 183.4C166.2 183.0 168.4 182.9 169.3 184.8C167.2 201.8 163.1 212.6 167.9 232.5C128.2 231.5 79.1 231.4 30.6 232.4z " data-colored="true" data-filltype="sd3" data-stroketype="none" fill="#008197" stroke-width="none" opacity="1"/></g><g id="head-dust00" style="display: inline;"><g id="antlers-left-dust00" style="display: inline;"/><g id="antlers-right-dust00" style="display: inline;"/><g id="ears-left-dust00" data-shape="4" style="display: inline;"><path id="SvgjsPath1180" d="M46.8 83.7C44.2 82.3 38.2 75.6 35.6 76.5C34.0 77.1 33.3 81.8 33.0 83.7C32.7 86.1 32.1 91.1 32.7 93.5C33.4 96.3 36.3 101.7 38.0 104.1C39.5 106.1 43.3 109.6 44.5 111.8C45.2 113.2 45.9 117.0 48.5 116.8C50.2 116.6 54.1 113.8 54.3 112.5C55.4 105.3 51.9 86.5 46.8 83.7z " data-colored="true" data-filltype="tone" data-stroketype="sd3" fill="#764630" stroke="#481c08" stroke-width="1.5" opacity="1"/><path id="SvgjsPath1181" d="M43.3 99.3C43.2 98.7 43.3 97.8 43.4 97.0C43.6 96.2 43.7 95.4 43.6 94.9C43.4 92.9 41.9 89.1 41.0 87.1C40.0 84.8 38.3 81.8 36.1 81.1C35.2 80.7 34.6 81.1 34.3 81.5C34.0 81.8 34.0 82.1 34.1 82.1C34.2 82.2 34.3 81.9 34.6 81.7C34.8 81.4 35.1 81.3 35.6 81.3C35.4 82.3 34.5 87.6 34.9 91.3C35.2 94.1 36.4 96.3 36.6 96.6C36.6 96.9 36.6 97.2 36.7 97.6C37.6 101.7 41.4 106.5 42.7 108.0C42.9 108.3 43.2 108.5 43.2 108.4C43.3 108.4 43.1 108.1 42.9 107.8C41.6 106.2 37.9 101.5 37.0 97.5C36.1 93.2 39.2 86.9 39.9 85.5C40.2 86.2 40.5 86.8 40.7 87.3C40.9 87.7 41.1 88.1 41.3 88.6C40.9 89.3 38.1 94.4 39.1 98.5C39.5 100.0 41.2 102.0 42.4 102.5C43.0 102.8 43.2 103.2 43.5 103.7C43.8 104.3 44.2 105.0 45.2 105.5C45.4 105.6 45.6 105.6 45.8 105.6C46.1 105.6 46.3 105.5 46.4 105.3C46.5 105.6 46.5 105.9 46.5 106.2C46.4 106.6 46.5 106.9 46.6 107.0S46.8 106.6 46.8 106.3C46.8 105.8 46.8 105.2 46.7 104.9C46.5 104.0 45.8 103.1 45.0 102.1C44.3 101.1 43.5 100.1 43.3 99.3zM36.5 95.5C34.5 89.0 36.5 83.0 37.0 82.1C37.8 82.8 39.1 84.2 39.7 85.2C39.3 86.0 36.6 91.1 36.5 95.5zM45.3 105.1C44.4 104.7 44.1 104.1 43.8 103.5C43.5 103.0 43.2 102.5 42.5 102.2C42.3 102.1 42.1 102.0 42.0 101.8C39.7 96.1 42.2 93.6 42.9 93.1C43.1 93.8 43.2 94.4 43.3 94.9C43.3 95.4 43.2 96.2 43.1 96.9C43.0 97.8 42.9 98.7 43.0 99.3C43.2 100.2 44.0 101.3 44.8 102.3C45.4 103.2 46.1 104.2 46.4 104.9C46.3 105.1 45.9 105.4 45.3 105.1z " data-colored="true" data-filltype="sd3" data-stroketype="none" fill="#481c08" stroke-width="none" opacity="1" stroke="none"/></g><g id="ears-right-dust00" data-shape="4" style="display: inline;"><path id="SvgjsPath1182" d="M153.0 83.7C155.6 82.3 161.5 75.6 164.1 76.5C165.8 77.1 166.5 81.8 166.7 83.7C167.1 86.1 167.7 91.1 167.1 93.5C166.3 96.3 163.4 101.7 161.7 104.1C160.2 106.1 156.5 109.6 155.3 111.8C154.5 113.2 153.8 117.0 151.2 116.8C149.5 116.6 145.7 113.8 145.5 112.5C144.3 105.3 147.8 86.5 153.0 83.7z " data-colored="true" data-filltype="tone" data-stroketype="sd3" fill="#764630" stroke="#481c08" stroke-width="1.5" opacity="1"/><path id="SvgjsPath1183" d="M154.7 102.1C154.0 103.1 153.3 104.0 153.0 104.9C153.0 105.2 153.0 105.8 153.0 106.3C153.0 106.6 153.1 107.0 153.2 106.9S153.3 106.6 153.3 106.2C153.3 105.9 153.3 105.6 153.3 105.3C153.5 105.5 153.7 105.6 154.0 105.6C154.1 105.6 154.3 105.6 154.5 105.5C155.6 105.0 155.9 104.3 156.3 103.7C156.5 103.2 156.8 102.8 157.4 102.5C158.5 102.0 160.2 100.0 160.6 98.5C161.6 94.4 158.8 89.3 158.4 88.6C158.6 88.1 158.8 87.7 159.0 87.3C159.2 86.8 159.5 86.2 159.9 85.5C160.6 86.9 163.6 93.2 162.7 97.5C161.9 101.5 158.1 106.2 156.8 107.8C156.6 108.1 156.4 108.4 156.5 108.4C156.6 108.5 156.8 108.3 157.1 108.0C158.4 106.5 162.2 101.7 163.0 97.6C163.1 97.2 163.1 96.9 163.2 96.6C163.4 96.3 164.5 94.1 164.8 91.3C165.2 87.6 164.3 82.3 164.2 81.3C164.6 81.3 164.9 81.4 165.1 81.7C165.4 81.9 165.6 82.2 165.7 82.1C165.8 82.1 165.7 81.8 165.4 81.5C165.1 81.1 164.5 80.7 163.6 81.1C161.5 81.8 159.8 84.8 158.7 87.1C157.8 89.1 156.4 92.9 156.1 94.9C156.1 95.4 156.2 96.2 156.3 96.9C156.4 97.8 156.6 98.7 156.4 99.2C156.2 100.1 155.5 101.1 154.7 102.1zM160.1 85.2C160.6 84.2 161.9 82.8 162.7 82.1C163.2 83.0 165.2 89.0 163.2 95.5C163.1 91.1 160.5 86.0 160.1 85.2zM153.4 104.9C153.6 104.2 154.3 103.2 155.0 102.3C155.7 101.3 156.5 100.2 156.7 99.3C156.9 98.7 156.7 97.8 156.6 96.9C156.5 96.2 156.4 95.4 156.5 94.9C156.5 94.4 156.7 93.8 156.9 93.1C157.5 93.6 160.1 96.1 157.8 101.8C157.6 102.0 157.4 102.1 157.3 102.2C156.5 102.5 156.3 103.0 156.0 103.5C155.7 104.1 155.4 104.7 154.4 105.1C153.8 105.4 153.5 105.1 153.4 104.9z " data-colored="true" data-filltype="sd3" data-stroketype="none" fill="#481c08" stroke-width="none" opacity="1" stroke="none"/></g><g id="faceshape-wrap-dust00" style="display: inline;"><g id="faceshape-single-dust00" data-shape="7" style="display: inline;"><path id="SvgjsPath1366" d="M100.0 0.9C66.4 0.8 39.2 27.9 39.1 61.4C39.1 66.7 39.8 71.8 41.1 76.8L41.1 76.8C41.1 76.8 49.8 115.4 55.6 127.1C61.7 139.4 79.4 159.3 100.0 159.3C120.6 159.3 138.3 139.4 144.4 127.1C150.2 115.4 158.9 76.8 158.9 76.8L158.9 76.8C160.2 71.8 160.9 66.7 160.9 61.4C160.8 27.9 133.6 0.8 100.0 0.9z " data-colored="true" data-filltype="tone" data-stroketype="none" fill="#764630" stroke-width="none" opacity="1"/><path id="SvgjsPath1367" d="M120.8 4.5C142.2 13.8 157.2 35.1 157.2 59.9C157.2 65.2 156.5 70.4 155.3 75.3L155.2 75.3C155.2 75.3 146.5 113.9 140.7 125.6C135.0 137.2 119.1 157.6 100.0 157.6S65.0 137.2 59.3 125.6C53.5 113.9 44.8 75.3 44.8 75.3L44.8 75.3C43.5 70.4 42.8 65.2 42.8 59.9C42.8 35.1 57.8 13.8 79.3 4.5C55.9 12.9 39.2 35.2 39.1 61.4C39.1 66.7 39.8 71.8 41.1 76.8L41.1 76.8C41.1 76.8 49.8 115.4 55.6 127.1C61.7 139.4 79.4 159.3 100.0 159.3C120.6 159.3 138.3 139.4 144.4 127.1C150.2 115.4 158.9 76.8 158.9 76.8L158.9 76.8C160.2 71.8 160.9 66.7 160.9 61.4C160.8 35.2 144.1 12.9 120.8 4.5z " data-colored="true" data-filltype="sd05" data-stroketype="none" fill="#6e3e27" stroke-width="none" opacity="1"/><path id="SvgjsPath1368" d="M100.0 0.9C66.4 0.8 39.2 27.9 39.1 61.4C39.1 66.7 39.8 71.8 41.1 76.8L41.1 76.8C41.1 76.8 49.8 115.4 55.6 127.1C61.7 139.4 79.4 159.3 100.0 159.3C120.6 159.3 138.3 139.4 144.4 127.1C150.2 115.4 158.9 76.8 158.9 76.8L158.9 76.8C160.2 71.8 160.9 66.7 160.9 61.4C160.8 27.9 133.6 0.8 100.0 0.9z " data-colored="true" data-filltype="none" data-stroketype="sd3" fill="none" stroke="#481c08" stroke-width="1.5" opacity="1"/></g></g><g id="eyes-left-dust00" style="display: inline;"><g id="eyesback-left-dust00" data-shape="14" style="display: inline;"><path id="SvgjsPath1134" d="M74.3 78.1C76.7 78.1 79.7 78.6 83.0 80.6C85.4 82.0 86.5 84.5 87.2 86.7C87.2 87.7 87.2 88.7 87.1 89.5C86.6 92.8 85.8 94.9 83.9 97.1C83.4 97.5 82.8 97.8 82.1 98.0C81.9 98.1 81.6 97.7 81.1 97.7C79.2 97.8 75.1 97.7 73.4 97.7C69.8 97.8 67.8 97.7 66.0 97.0C64.3 96.3 62.9 93.8 61.5 89.3C61.2 88.2 60.8 85.7 61.3 84.6C63.8 79.4 70.4 78.0 74.3 78.1z " data-colored="false" data-filltype="gradient" data-stroketype="none" fill="url(#SvgjsRadialGradient1135)" opacity="1"/></g><g id="eyesiriswrap-left-dust00" transform="translate(-0.5 1.5)" style="display: inline;"><g id="eyesiriscontrol-left-dust00" style="display: inline;"><g id="eyesiris-left-dust00" data-shape="7" data-resizeme="false" style="display: inline;"><path id="SvgjsPath1152" d="M83.2 89.3C82.0 93.8 77.3 96.4 72.8 95.2C68.2 94.0 65.6 89.3 66.8 84.8C68.0 80.2 72.7 77.6 77.2 78.8C81.8 80.0 84.4 84.7 83.2 89.3z " data-colored="true" data-filltype="tone" data-stroketype="sd3" fill="#4e60a3" stroke="#152975" stroke-width="0.5" opacity="1"/><path id="SvgjsPath1153" d="M83.0 87.5C82.4 92.5 78.6 95.2 74.6 94.9C70.8 94.6 67.4 91.9 67.1 87.1C68.4 86.7 70.2 87.3 71.7 87.1C71.7 87.1 71.6 87.2 71.6 87.2C71.5 89.1 73.0 90.7 74.9 90.8C76.9 90.9 78.6 89.5 78.7 87.7C78.7 87.5 78.7 87.2 78.6 87.0C80.0 87.2 81.6 87.0 83.0 87.5z " data-colored="true" data-filltype="hl1" data-stroketype="none" fill="#6777b2" stroke-width="none" opacity="1"/><path id="SvgjsPath1154" d="M76.2 84.2C74.4 83.6 72.5 84.7 72.0 86.6C71.5 88.4 72.6 90.4 74.5 90.9C76.4 91.4 78.3 90.4 78.7 88.5C79.2 86.6 78.1 84.7 76.2 84.2z " data-colored="false" data-filltype="#000000" data-stroketype="none" fill="#000000" stroke-width="none" opacity="0.9"/><path id="SvgjsPath1155" d="M76.2 84.2C74.4 83.6 72.5 84.7 72.0 86.6C71.5 88.4 72.6 90.4 74.5 90.9C76.4 91.4 78.3 90.4 78.7 88.5C79.2 86.6 78.1 84.7 76.2 84.2z " data-colored="true" data-filltype="none" data-stroketype="sd3" fill="none" stroke="#152975" stroke-width="0.75" opacity="1"/><path id="SvgjsPath1156" d="M71.0 92.2C70.8 92.8 69.8 92.5 70.0 91.9C70.2 91.3 70.6 90.9 70.9 90.4C71.3 89.9 72.1 90.4 71.8 90.9C71.6 91.4 71.1 91.7 71.0 92.2L71.0 92.2zM72.5 91.2C72.3 91.5 71.9 92.7 71.8 93.0C71.5 93.6 72.5 93.9 72.7 93.3C72.8 93.1 73.1 92.1 73.2 91.9C73.6 91.4 72.9 90.7 72.5 91.2L72.5 91.2zM74.6 94.2C75.1 93.5 75.1 92.9 75.1 92.1C75.0 91.5 74.0 91.5 74.1 92.1C74.1 92.5 74.2 93.1 73.9 93.4C73.5 93.9 74.2 94.6 74.6 94.2L74.6 94.2zM75.6 92.0C75.6 92.6 75.7 93.2 75.9 93.8C76.1 94.4 77.0 94.2 76.9 93.5C76.7 93.0 76.6 92.5 76.6 92.0C76.6 91.3 75.6 91.3 75.6 92.0L75.6 92.0z " data-colored="false" data-filltype="#ffffff" data-stroketype="none" fill="#ffffff" stroke-width="none" opacity="0.5"/><path id="SvgjsPath1157" d="M80.9 85.5C80.0 86.1 78.5 85.6 77.6 84.4C76.8 83.1 76.9 81.6 77.9 81.0C78.9 80.4 80.4 81.0 81.2 82.2C82.1 83.5 81.9 85.0 80.9 85.5z " data-colored="false" data-filltype="#ffffff" data-stroketype="none" fill="#ffffff" stroke-width="none" opacity="0.8"/></g></g></g><g id="eyesfront-left-dust00" data-shape="14" data-resizeme="false" style="display: inline;"><path id="SvgjsPath1101" d="M55.0 88.0C55.0 101.8 63.5 113.0 74.0 113.0S93.0 101.8 93.0 88.0C93.0 74.2 84.5 63.0 74.0 63.0S55.0 74.2 55.0 88.0zM61.5 89.3C61.2 88.2 60.8 85.7 61.3 84.6C63.8 79.4 70.4 78.0 74.3 78.1C76.7 78.1 79.7 78.6 83.0 80.6C85.4 82.0 86.5 84.5 87.2 86.7C87.2 87.7 87.2 88.7 87.1 89.5C86.6 92.8 85.8 94.9 83.9 97.1C83.4 97.5 82.8 97.8 82.1 98.0C81.9 98.1 81.6 97.7 81.1 97.7C79.2 97.8 75.1 97.7 73.4 97.7C69.8 97.8 67.8 97.7 66.0 97.0C64.3 96.3 62.9 93.8 61.5 89.3z " data-colored="true" data-filltype="tone" data-stroketype="none" data-fromskin="true" fill="#764630" stroke-width="none" opacity="1" stroke="none"/><path id="SvgjsPath1102" d="M59.4 87.1C59.4 95.9 67.3 103.0 76.9 103.0C86.6 102.9 94.4 95.8 94.4 86.9C94.4 78.1 86.5 71.0 76.9 71.0C67.2 71.0 59.4 78.2 59.4 87.1zM61.4 89.3C61.1 88.2 60.7 85.7 61.2 84.6C63.7 79.4 70.3 78.0 74.2 78.1C76.6 78.1 79.6 78.6 82.9 80.6C85.3 82.0 86.4 84.5 87.1 86.7C87.1 87.7 87.1 88.7 87.0 89.5C86.5 92.8 85.7 94.9 83.8 97.1C83.3 97.5 82.7 97.8 82.0 98.0C81.8 98.1 81.5 97.7 81.0 97.7C79.1 97.8 75.0 97.7 73.3 97.7C69.7 97.8 67.7 97.7 65.9 97.0C64.2 96.3 62.8 93.8 61.4 89.3z " data-colored="false" data-filltype="gradient" data-stroketype="none" data-fromskin="true" fill="url(#SvgjsRadialGradient1103)" opacity="1"/><path id="SvgjsPath1107" d="M74.3 78.1C76.7 78.1 79.7 78.6 83.0 80.6C85.4 82.0 86.5 84.5 87.2 86.7C87.2 87.7 87.2 88.7 87.1 89.5C86.6 92.8 85.8 94.9 83.9 97.1C83.4 97.5 82.8 97.8 82.1 98.0C81.9 98.1 81.6 97.7 81.1 97.7C79.2 97.8 75.1 97.7 73.4 97.7C69.8 97.8 67.8 97.7 66.0 97.0C64.3 96.3 62.9 93.8 61.5 89.3C61.2 88.2 60.8 85.7 61.3 84.6C63.8 79.4 70.4 78.0 74.3 78.1z " data-colored="false" data-filltype="gradient" data-stroketype="none" fill="url(#SvgjsRadialGradient1108)" opacity="1"/><path id="SvgjsPath1111" d="M62.9 75.0C66.4 73.8 76.9 73.9 81.5 76.7C75.1 74.2 69.2 74.3 62.9 75.0zM84.4 77.8C86.1 78.5 87.1 79.8 87.9 80.9C86.8 79.7 85.3 78.5 84.4 77.8z " data-colored="true" data-filltype="sd3" data-stroketype="none" data-fromskin="true" fill="#481c08" stroke-width="none" opacity="1" stroke="none"/><path id="SvgjsPath1112" d="M89.4 83.9L86.0 81.9C86.0 81.9 87.2 83.4 87.2 86.7C86.5 84.6 85.4 82.1 83.0 80.7C79.7 78.8 76.7 78.2 74.3 78.2C70.4 78.1 63.8 79.5 61.3 84.6C60.8 85.7 61.2 88.2 61.5 89.3C62.9 93.7 64.3 96.2 66.0 96.9C67.8 97.6 69.8 97.6 73.4 97.6C75.1 97.5 79.2 97.6 81.1 97.6C81.6 97.6 82.1 97.7 82.1 97.9C82.2 98.1 81.7 98.3 81.2 98.3C79.2 98.4 77.8 98.6 72.7 98.6C68.1 98.6 66.3 98.5 65.2 98.0C63.6 97.4 62.8 95.3 60.6 88.5C57.7 84.1 55.1 81.1 52.0 78.9L57.0 80.5C56.1 79.4 55.1 78.5 53.2 76.9C57.2 77.3 58.8 77.4 61.8 77.0C66.5 76.2 69.5 76.1 73.9 76.2C80.4 77.3 85.2 79.4 89.4 83.9zM83.9 97.0C86.4 95.3 87.2 92.7 87.2 89.4C86.7 92.7 85.8 94.8 83.9 97.0z " data-colored="true" data-filltype="tone" data-stroketype="none" fill="#93614a" stroke-width="none" opacity="1" stroke="none"/></g></g><g id="eyes-right-dust00" style="display: inline;"><g id="eyesback-right-dust00" data-shape="14" style="display: inline;"><path id="SvgjsPath1142" d="M125.7 78.1C123.3 78.1 120.3 78.6 117.0 80.6C114.6 82.0 113.5 84.5 112.8 86.7C112.8 87.7 112.8 88.7 112.9 89.5C113.4 92.8 114.2 94.9 116.1 97.1C116.6 97.5 117.2 97.8 117.9 98.0C118.1 98.1 118.4 97.7 118.9 97.7C120.8 97.8 124.9 97.7 126.6 97.7C130.2 97.8 132.2 97.7 134.0 97.0C135.7 96.3 137.1 93.8 138.5 89.3C138.8 88.2 139.2 85.7 138.7 84.6C136.2 79.4 129.6 78.0 125.7 78.1z " data-colored="false" data-filltype="gradient" data-stroketype="none" fill="url(#SvgjsRadialGradient1143)" opacity="1"/></g><g id="eyesiriswrap-right-dust00" transform="translate(0.5 1.5)" style="display: inline;"><g id="eyesiriscontrol-right-dust00" style="display: inline;"><g id="eyesiris-right-dust00" data-resizeme="false" data-shape="7" style="display: inline;"><path id="SvgjsPath1158" d="M133.2 89.3C132.0 93.8 127.3 96.4 122.8 95.2C118.2 94.0 115.6 89.3 116.8 84.8C118.0 80.2 122.7 77.6 127.2 78.8C131.8 80.0 134.4 84.7 133.2 89.3z " data-colored="true" data-filltype="tone" data-stroketype="sd3" fill="#4e60a3" stroke="#152975" stroke-width="0.5" opacity="1"/><path id="SvgjsPath1159" d="M133.0 87.5C132.4 92.5 128.6 95.2 124.6 94.9C120.8 94.6 117.4 91.9 117.1 87.1C118.4 86.7 120.2 87.3 121.7 87.1C121.7 87.1 121.6 87.2 121.6 87.2C121.5 89.1 123.0 90.7 124.9 90.8C126.9 90.9 128.6 89.5 128.7 87.7C128.7 87.5 128.7 87.2 128.6 87.0C130.0 87.2 131.6 87.0 133.0 87.5z " data-colored="true" data-filltype="hl1" data-stroketype="none" fill="#6777b2" stroke-width="none" opacity="1"/><path id="SvgjsPath1160" d="M126.2 84.2C124.4 83.6 122.5 84.7 122.0 86.6C121.5 88.4 122.6 90.4 124.5 90.9C126.4 91.4 128.3 90.4 128.7 88.5C129.2 86.6 128.1 84.7 126.2 84.2z " data-colored="false" data-filltype="#000000" data-stroketype="none" fill="#000000" stroke-width="none" opacity="0.9"/><path id="SvgjsPath1161" d="M126.2 84.2C124.4 83.6 122.5 84.7 122.0 86.6C121.5 88.4 122.6 90.4 124.5 90.9C126.4 91.4 128.3 90.4 128.7 88.5C129.2 86.6 128.1 84.7 126.2 84.2z " data-colored="true" data-filltype="none" data-stroketype="sd3" fill="none" stroke="#152975" stroke-width="0.75" opacity="1"/><path id="SvgjsPath1162" d="M121.0 92.2C120.8 92.8 119.8 92.5 120.0 91.9C120.2 91.3 120.6 90.9 120.9 90.4C121.3 89.9 122.1 90.4 121.8 90.9C121.6 91.4 121.1 91.7 121.0 92.2L121.0 92.2zM122.5 91.2C122.3 91.5 121.9 92.7 121.8 93.0C121.5 93.6 122.5 93.9 122.7 93.3C122.8 93.1 123.1 92.1 123.2 91.9C123.6 91.4 122.9 90.7 122.5 91.2L122.5 91.2zM124.6 94.2C125.1 93.5 125.1 92.9 125.1 92.1C125.0 91.5 124.0 91.5 124.1 92.1C124.1 92.5 124.2 93.1 123.9 93.4C123.5 93.9 124.2 94.6 124.6 94.2L124.6 94.2zM125.6 92.0C125.6 92.6 125.7 93.2 125.9 93.8C126.1 94.4 127.0 94.2 126.9 93.5C126.7 93.0 126.6 92.5 126.6 92.0C126.6 91.3 125.6 91.3 125.6 92.0L125.6 92.0z " data-colored="false" data-filltype="#ffffff" data-stroketype="none" fill="#ffffff" stroke-width="none" opacity="0.5"/><path id="SvgjsPath1163" d="M130.9 85.5C130.0 86.1 128.5 85.6 127.6 84.4C126.8 83.1 126.9 81.6 127.9 81.0C128.9 80.4 130.4 81.0 131.2 82.2C132.1 83.5 131.9 85.0 130.9 85.5z " data-colored="false" data-filltype="#ffffff" data-stroketype="none" fill="#ffffff" stroke-width="none" opacity="0.8"/></g></g></g><g id="eyesfront-right-dust00" data-resizeme="false" data-shape="14" style="display: inline;"><path id="SvgjsPath1122" d="M126.0 63.0C115.5 63.0 107.0 74.2 107.0 88.0C107.0 101.8 115.5 113.0 126.0 113.0S145.0 101.8 145.0 88.0C145.0 74.2 136.5 63.0 126.0 63.0zM134.0 97.0C132.2 97.7 130.2 97.8 126.6 97.7C124.9 97.7 120.8 97.8 118.9 97.7C118.4 97.7 118.1 98.1 117.9 98.0C117.2 97.8 116.6 97.5 116.1 97.1C114.2 94.9 113.4 92.8 112.9 89.5C112.8 88.7 112.8 87.7 112.8 86.7C113.5 84.5 114.6 82.0 117.0 80.6C120.3 78.6 123.3 78.1 125.7 78.1C129.6 78.0 136.2 79.4 138.7 84.6C139.2 85.7 138.8 88.2 138.5 89.3C137.1 93.8 135.7 96.3 134.0 97.0z " data-colored="true" data-filltype="tone" data-stroketype="none" data-fromskin="true" fill="#764630" stroke-width="none" opacity="1" stroke="none"/><path id="SvgjsPath1123" d="M123.1 71.0C113.5 71.0 105.6 78.1 105.6 86.9C105.6 95.7 113.4 102.9 123.1 103.0C132.7 103.0 140.6 95.9 140.6 87.1C140.6 78.2 132.8 71.0 123.1 71.0zM134.1 97.0C132.3 97.7 130.3 97.8 126.7 97.7C125.0 97.7 120.9 97.8 119.0 97.7C118.5 97.7 118.2 98.1 118.0 98.0C117.3 97.8 116.7 97.5 116.2 97.1C114.3 94.9 113.5 92.8 113.0 89.5C112.9 88.7 112.9 87.7 112.9 86.7C113.6 84.5 114.7 82.0 117.1 80.6C120.4 78.6 123.4 78.1 125.8 78.1C129.7 78.0 136.3 79.4 138.8 84.6C139.3 85.7 138.9 88.2 138.6 89.3C137.2 93.8 135.8 96.3 134.1 97.0z " data-colored="false" data-filltype="gradient" data-stroketype="none" data-fromskin="true" fill="url(#SvgjsRadialGradient1124)" opacity="1"/><path id="SvgjsPath1128" d="M125.7 78.1C123.3 78.1 120.3 78.6 117.0 80.6C114.6 82.0 113.5 84.5 112.8 86.7C112.8 87.7 112.8 88.7 112.9 89.5C113.4 92.8 114.2 94.9 116.1 97.1C116.6 97.5 117.2 97.8 117.9 98.0C118.1 98.1 118.4 97.7 118.9 97.7C120.8 97.8 124.9 97.7 126.6 97.7C130.2 97.8 132.2 97.7 134.0 97.0C135.7 96.3 137.1 93.8 138.5 89.3C138.8 88.2 139.2 85.7 138.7 84.6C136.2 79.4 129.6 78.0 125.7 78.1z " data-colored="false" data-filltype="gradient" data-stroketype="none" fill="url(#SvgjsRadialGradient1129)" opacity="1"/><path id="SvgjsPath1132" d="M118.5 76.7C123.1 73.9 133.6 73.8 137.1 75.0C130.8 74.3 124.9 74.2 118.5 76.7zM112.1 80.9C112.9 79.8 113.9 78.5 115.6 77.8C114.7 78.5 113.2 79.7 112.1 80.9z " data-colored="true" data-filltype="sd3" data-stroketype="none" data-fromskin="true" fill="#481c08" stroke-width="none" opacity="1" stroke="none"/><path id="SvgjsPath1133" d="M126.1 76.2C130.5 76.1 133.5 76.2 138.2 77.0C141.2 77.4 142.8 77.3 146.8 76.8C144.9 78.5 143.9 79.4 143.0 80.5L148.0 78.9C144.9 81.1 142.3 84.1 139.4 88.5C137.2 95.3 136.4 97.4 134.8 98.0C133.7 98.5 131.9 98.6 127.4 98.6C122.2 98.6 120.9 98.4 118.8 98.3C118.3 98.3 117.8 98.1 117.9 97.9C117.9 97.7 118.4 97.6 118.9 97.6C120.8 97.6 124.9 97.5 126.6 97.6C130.2 97.6 132.2 97.6 134.0 96.9C135.7 96.2 137.1 93.7 138.5 89.2C138.8 88.2 139.2 85.7 138.7 84.6C136.2 79.5 129.6 78.1 125.7 78.2C123.3 78.2 120.3 78.8 117.0 80.7C114.6 82.1 113.5 84.6 112.8 86.7C112.8 83.4 114.0 81.9 114.0 81.9L110.6 83.9C114.8 79.4 119.6 77.3 126.1 76.2zM112.8 89.4C112.8 92.7 113.6 95.3 116.1 97.0C114.2 94.8 113.3 92.7 112.8 89.4z " data-colored="true" data-filltype="tone" data-stroketype="none" fill="#93614a" stroke-width="none" opacity="1" stroke="none"/></g></g><g id="eyesiris-single-dust00" style="display: inline;"/><g id="facehighlight-single-dust00" data-shape="0" style="display: inline;"><path id="SvgjsPath1168" d="M140.2 113.0C140.2 135.3 122.2 153.4 99.9 153.4C77.7 153.4 59.6 135.4 59.5 113.1C59.5 90.9 77.5 72.8 99.8 72.7C122.1 72.7 140.2 90.7 140.2 113.0z " data-colored="false" data-filltype="gradient" data-stroketype="none" data-fromskin="true" fill="url(#SvgjsRadialGradient1169)" opacity="1"/><path id="SvgjsPath1172" d="M135.0 56.0C135.0 75.3 119.3 91.0 100.0 91.0C80.7 91.0 65.0 75.3 65.0 56.0S80.7 21.0 100.0 21.0C119.3 21.0 135.0 36.7 135.0 56.0z " data-colored="false" data-filltype="gradient" data-stroketype="none" data-fromskin="true" fill="url(#SvgjsRadialGradient1173)" opacity="1"/></g><g id="nose-single-dust00" data-shape="3" style="display: inline;"><path id="SvgjsPath1184" d="M95.4 122.2C95.4 122.2 93.9 121.7 93.2 121.5C92.6 121.2 91.3 119.7 91.3 119.7S92.5 119.9 93.5 120.4C94.4 120.8 95.4 122.2 95.4 122.2z " data-colored="false" data-filltype="#000000" data-stroketype="none" fill="#000000" stroke="none"/><path id="SvgjsPath1185" d="M105.4 122.0C105.4 122.0 106.9 121.5 107.6 121.3C108.2 121.0 109.3 119.6 109.3 119.6S108.3 119.7 107.4 120.1C106.4 120.7 105.4 122.0 105.4 122.0z " data-colored="false" data-filltype="#000000" data-stroketype="none" fill="#000000" stroke="none"/><path id="SvgjsPath1186" d="M93.0 123.0H92.9C92.9 123.0 91.8 122.5 90.5 122.0C89.4 121.6 87.4 120.5 87.0 117.9C86.6 115.4 89.7 114.1 89.9 114.1C90.0 114.0 90.2 114.1 90.2 114.3C90.3 114.4 90.2 114.6 90.0 114.6C90.0 114.6 87.1 115.8 87.5 117.8C87.9 120.2 89.7 121.2 90.7 121.5C92.0 121.9 93.1 122.5 93.2 122.5C93.3 122.6 93.4 122.7 93.3 122.9C93.2 122.9 93.1 123.0 93.0 123.0z " data-colored="true" data-filltype="sd35" data-stroketype="none" data-fromskin="true" fill="#401704" stroke="none"/><path id="SvgjsPath1187" d="M107.9 123.0C107.8 123.0 107.7 122.9 107.7 122.9C107.6 122.8 107.7 122.6 107.8 122.5C107.8 122.5 108.9 122.0 110.3 121.5C111.3 121.2 113.1 120.1 113.5 117.8C113.8 115.7 111.0 114.7 111.0 114.6C110.9 114.5 110.8 114.4 110.8 114.3C110.9 114.2 111.0 114.1 111.1 114.1C111.2 114.1 114.4 115.4 114.0 117.9C113.6 120.5 111.6 121.6 110.5 122.0C109.3 122.4 108.1 123.0 108.1 123.0C108.0 123.0 108.0 123.0 107.9 123.0z " data-colored="true" data-filltype="sd35" data-stroketype="none" data-fromskin="true" fill="#401704" stroke="none"/><path id="SvgjsPath1188" d="M109.0 117.6C109.0 117.6 107.2 117.8 105.0 118.8C103.3 119.5 102.4 121.1 100.3 121.1C98.0 121.1 97.4 119.6 95.9 119.0C94.0 118.2 92.3 118.1 92.3 118.1S92.5 118.9 92.6 118.9C94.0 119.1 96.1 121.0 97.8 122.1C98.5 122.7 99.1 123.1 100.2 123.1C100.2 123.1 100.2 123.1 100.3 123.1C100.3 123.1 100.3 123.1 100.4 123.1C101.4 123.1 102.0 122.7 102.8 122.1C104.5 121.1 107.2 118.9 108.6 118.6C108.7 118.5 109.0 117.6 109.0 117.6z " data-colored="true" data-filltype="2stepsDarker" data-stroketype="none" data-fromskin="true" fill="#50220d" stroke="none"/><path id="SvgjsPath1189" d="M93.9 114.0L93.9 114.0C93.7 114.0 93.6 113.9 93.6 113.7S94.2 107.5 95.3 105.2C95.4 105.1 95.5 105.0 95.7 105.1C95.8 105.2 95.9 105.3 95.8 105.5C94.8 107.8 94.1 113.8 94.1 113.8C94.2 113.8 94.0 114.0 93.9 114.0z " data-colored="true" data-filltype="sd35" data-stroketype="none" data-fromskin="true" fill="#401704" stroke="none" opacity="0.57"/></g><g id="mouth-single-dust00" data-shape="4" style="display: inline;"><path id="SvgjsPath3110" d="M101.1 139.9V142.1H101.3V139.9C101.3 139.9 101.2 139.9 101.1 139.9z " data-colored="false" data-filltype="#ffffff" data-stroketype="none" fill="#ffffff" stroke-width="none" opacity="0.25"/><path id="SvgjsPath3111" d="M96.7 139.9V141.9H96.9V139.9C96.8 139.9 96.7 139.9 96.7 139.9z " data-colored="false" data-filltype="#ffffff" data-stroketype="none" fill="#ffffff" stroke="none" opacity="0.25"/><path id="SvgjsPath3112" d="M98.9 140.0V142.1H99.1V140.0C99.1 140.1 99.0 140.0 98.9 140.0z " data-colored="false" data-filltype="#ffffff" data-stroketype="none" fill="#ffffff" stroke="none" opacity="0.25"/><path id="SvgjsPath3113" d="M92.3 140.7V139.0C92.2 139.0 92.2 139.0 92.1 139.0V140.6C92.2 140.7 92.2 140.7 92.3 140.7z " data-colored="false" data-filltype="#ffffff" data-stroketype="none" fill="#ffffff" stroke="none" opacity="0.25"/><path id="SvgjsPath3114" d="M94.7 141.5V139.6H94.5V141.4C94.6 141.5 94.6 141.5 94.7 141.5z " data-colored="false" data-filltype="#ffffff" data-stroketype="none" fill="#ffffff" stroke="none" opacity="0.25"/><path id="SvgjsPath3115" d="M88.2 138.8V137.6C88.1 137.6 88.1 137.6 88.0 137.6V138.7C88.1 138.7 88.1 138.8 88.2 138.8z " data-colored="false" data-filltype="#ffffff" data-stroketype="none" fill="#ffffff" stroke="none" opacity="0.25"/><path id="SvgjsPath3116" d="M90.1 139.8V138.2C90.0 138.2 90.0 138.2 89.9 138.2V139.8C89.9 139.8 90.0 139.8 90.1 139.8z " data-colored="false" data-filltype="#ffffff" data-stroketype="none" fill="#ffffff" stroke="none" opacity="0.25"/><path id="SvgjsPath3117" d="M109.6 138.5V140.0C109.7 140.0 109.7 140.0 109.8 139.9V138.5C109.7 138.5 109.7 138.5 109.6 138.5z " data-colored="false" data-filltype="#ffffff" data-stroketype="none" fill="#ffffff" stroke="none" opacity="0.25"/><path id="SvgjsPath3118" d="M111.3 137.9V139.1C111.4 139.1 111.4 139.1 111.5 139.0V137.9C111.5 137.9 111.4 137.9 111.3 137.9z " data-colored="false" data-filltype="#ffffff" data-stroketype="none" fill="#ffffff" stroke="none" opacity="0.25"/><path id="SvgjsPath3119" d="M104.1 141.9V139.8C104.0 139.8 104.0 139.8 103.9 139.8V141.9L104.1 141.9C104.0 141.9 104.0 141.9 104.1 141.9z " data-colored="false" data-filltype="#ffffff" data-stroketype="none" fill="#ffffff" stroke="none" opacity="0.25"/><path id="SvgjsPath3120" d="M105.5 139.4V141.5C105.6 141.5 105.6 141.5 105.7 141.5V139.4C105.6 139.4 105.6 139.4 105.5 139.4z " data-colored="false" data-filltype="#ffffff" data-stroketype="none" fill="#ffffff" stroke="none" opacity="0.25"/><path id="SvgjsPath3121" d="M107.9 138.9V140.7C108.0 140.7 108.0 140.7 108.1 140.7V138.9C108.1 138.9 108.0 138.9 107.9 138.9z " data-colored="false" data-filltype="#ffffff" data-stroketype="none" fill="#ffffff" stroke="none" opacity="0.25"/><path id="SvgjsPath3122" d="M118.0 135.4C115.4 136.1 108.2 137.5 106.2 137.2C103.6 136.9 103.6 136.3 101.7 137.0C101.3 137.1 99.6 137.0 99.1 136.8C98.6 136.6 97.6 136.8 96.6 137.1C93.9 137.8 93.2 137.4 89.0 136.5C84.8 135.6 82.0 133.7 82.3 134.4C82.6 135.1 87.4 142.9 89.2 145.2C90.9 147.5 95.1 152.4 102.5 151.2C109.9 150.0 111.5 145.0 112.9 143.2C114.3 141.4 118.0 135.8 118.1 135.5C118.3 135.2 118.8 135.1 118.0 135.4z " data-colored="true" data-filltype="tone" data-stroketype="none" fill="#cc3399" stroke-width="none"/><path id="SvgjsPath3123" d="M118.0 134.3C115.4 135.0 108.1 135.7 106.1 135.4C103.5 135.1 103.5 134.5 101.6 135.2C101.2 135.3 99.5 135.2 99.0 135.0C98.5 134.8 97.5 135.0 96.5 135.3C93.8 136.0 93.0 135.9 88.8 135.0C84.6 134.1 82.2 134.0 82.6 134.7C82.9 135.4 87.4 141.0 89.2 143.4C90.9 145.7 95.1 150.6 102.5 149.4C109.9 148.2 111.5 143.2 112.9 141.4C114.3 139.6 117.7 135.8 117.8 135.6C117.9 135.3 118.9 134.1 118.0 134.3z " data-colored="true" data-filltype="sd3" data-stroketype="none" data-fromskin="true" fill="#481c08" stroke-width="none"/><path id="SvgjsPath3124" d="M118.1 134.1C115.5 134.8 108.3 136.2 106.3 135.9C103.7 135.6 103.7 135.0 101.8 135.7C101.4 135.8 99.7 135.7 99.2 135.5C98.7 135.3 97.7 135.5 96.7 135.8C94.0 136.5 93.3 136.1 89.1 135.2C84.9 134.3 82.0 133.6 82.3 134.3C82.6 135.0 87.6 141.6 89.3 143.9C91.0 146.2 95.2 151.1 102.6 149.9C110.0 148.7 111.6 143.7 113.0 141.9C114.4 140.1 118.2 135.3 118.4 135.1C118.6 134.8 118.9 133.9 118.1 134.1z " data-colored="true" data-filltype="hl05" data-stroketype="none" fill="#d43fa2" stroke-width="none"/><path id="SvgjsPath3125" d="M113.7 136.3C111.9 136.8 110.2 137.3 108.4 137.7C106.5 138.1 104.5 138.5 102.6 138.8C100.6 139.1 98.7 139.1 96.7 138.9C94.9 138.7 93.2 138.3 91.5 137.8C89.8 137.3 88.0 136.8 86.2 136.3C85.3 136.1 84.5 135.8 83.6 135.5C83.5 135.4 83.3 135.4 83.2 135.3C84.0 136.1 84.9 136.7 85.8 137.4C87.5 138.5 89.3 139.5 91.0 140.5C92.9 141.5 94.8 142.4 96.8 143.1C96.8 143.1 96.9 143.1 96.9 143.1C98.9 143.1 100.9 142.9 102.8 142.6C105.1 142.1 107.4 141.4 109.6 140.4C111.0 139.7 112.3 138.9 113.5 137.9C113.9 137.5 114.4 137.1 114.8 136.7C115.3 136.2 115.7 135.8 116.2 135.3C115.6 135.7 114.7 136.0 113.7 136.3z " data-colored="false" data-filltype="url(#SVGID_1_)" data-stroketype="none" fill="url(#SVGID_1_)" stroke="none" opacity="0.3"/><path id="SvgjsPath3126" d="M115.2 136.2C113.2 137.3 107.4 139.9 100.4 140.0C93.4 140.1 92.7 139.3 89.0 137.9C85.3 136.5 83.1 134.6 84.5 136.2C85.1 136.9 89.8 142.8 93.7 144.0C97.6 145.2 102.4 145.4 105.7 144.2C109.0 143.0 114.8 137.5 115.1 137.2C117.1 135.2 115.2 136.2 115.2 136.2z " data-colored="false" data-filltype="#2d0911" data-stroketype="none" fill="#2d0911" stroke="none"/><path id="SvgjsPath3127" d="M103.1 143.8C101.5 144.0 100.0 144.2 98.4 144.1C97.6 144.0 96.7 143.9 95.9 143.8C95.5 143.7 95.1 143.7 94.7 143.6C94.5 143.6 94.3 143.6 94.2 143.5C94.1 143.5 94.0 143.5 93.9 143.5C93.9 143.5 93.9 143.5 93.9 143.5C93.5 143.5 93.1 143.5 92.7 143.5C93.1 143.7 93.4 143.8 93.8 143.9C97.7 145.1 102.5 145.3 105.8 144.1C106.2 144.0 106.6 143.8 107.0 143.5C105.6 143.5 104.4 143.7 103.1 143.8z " data-colored="true" data-filltype="sd3" data-stroketype="none" data-fromskin="true" fill="#481c08" stroke-width="none"/><path id="SvgjsPath3128" d="M113.6 137.0C110.9 138.2 106.0 139.9 100.3 140.0C93.3 140.1 92.6 139.3 88.9 137.9C88.0 137.6 87.2 137.2 86.6 136.9C86.7 137.1 86.8 137.4 86.9 137.6C86.9 137.6 86.9 137.7 87.0 137.7C87.0 137.7 87.1 137.8 87.1 137.8C87.4 138.2 87.8 138.5 88.2 138.9C88.4 139.1 88.6 139.2 88.8 139.4C88.9 139.4 88.9 139.5 89.0 139.5C89.1 139.5 89.2 139.6 89.2 139.6C90.1 140.2 91.0 140.6 92.0 141.0C92.0 141.0 92.1 141.0 92.1 141.0C92.2 141.0 92.3 141.1 92.5 141.1C92.7 141.2 93.0 141.3 93.2 141.3C93.7 141.4 94.3 141.6 94.8 141.7C107.0 144.0 113.2 138.1 113.6 137.0z " data-colored="false" data-filltype="#f4efef" data-stroketype="none" fill="#f4efef" stroke="none"/><path id="SvgjsPath3129" d="M118.2 132.1C118.3 132.0 118.4 131.9 118.5 131.9C118.6 131.9 118.8 131.8 118.9 131.9C119.2 132.0 119.4 132.2 119.6 132.4C120.0 132.8 120.2 133.3 120.3 133.9C120.4 134.4 120.4 135.0 120.3 135.5C120.3 135.8 120.2 136.0 120.1 136.3C120.0 136.5 119.9 136.8 119.8 137.0C119.9 136.5 119.9 136.0 119.9 135.5C119.9 135.0 119.9 134.5 119.8 134.1C119.7 133.6 119.6 133.2 119.3 132.8C119.3 132.7 119.2 132.7 119.2 132.7C119.2 132.7 119.1 132.6 119.1 132.6C119.0 132.5 118.9 132.4 118.8 132.4C118.7 132.3 118.6 132.3 118.5 132.3C118.4 132.0 118.3 132.0 118.2 132.1z " data-colored="true" data-filltype="sd3" data-stroketype="none" data-fromskin="true" fill="#481c08" stroke-width="none"/><path id="SvgjsPath3130" d="M82.4 132.4C82.3 132.4 82.2 132.4 82.0 132.4C81.9 132.4 81.8 132.5 81.7 132.5C81.6 132.6 81.5 132.6 81.5 132.7C81.5 132.7 81.4 132.8 81.4 132.8C81.4 132.8 81.4 132.9 81.3 133.0C81.1 133.4 81.0 133.9 81.0 134.4C81.0 134.9 81.0 135.4 81.1 135.8C81.2 136.3 81.3 136.8 81.4 137.3C81.2 137.1 81.1 136.9 81.0 136.7C80.9 136.5 80.8 136.2 80.7 136.0C80.5 135.5 80.5 135.0 80.5 134.4C80.5 133.9 80.7 133.3 81.0 132.9C81.1 132.7 81.3 132.4 81.6 132.3C81.7 132.2 81.9 132.2 82.0 132.3C82.2 132.2 82.3 132.3 82.4 132.4z " data-colored="true" data-filltype="sd3" data-stroketype="none" data-fromskin="true" fill="#481c08" stroke-width="none"/></g><g id="eyebrows-left-dust00" data-shape="10" data-cn="true" style="display: inline;"><path id="SvgjsPath2330" d="M54.4 75.0C64.1 59.9 90.8 80.1 92.4 73.8C92.7 72.5 92.0 71.8 90.8 71.3C77.2 65.8 59.2 61.2 54.4 75.0z " data-colored="true" data-filltype="#000000" data-stroketype="none" fill="#543c32" stroke-width="none" opacity="1"/></g><g id="eyebrows-right-dust00" data-shape="10" data-cn="true" style="display: inline;"><path id="SvgjsPath2331" d="M145.6 75.0C135.9 59.9 109.2 80.1 107.6 73.8C107.3 72.5 108.0 71.8 109.2 71.3C122.8 65.8 140.8 61.2 145.6 75.0z " data-colored="true" data-filltype="#000000" data-stroketype="none" fill="#543c32" stroke-width="none" opacity="1"/></g><g id="beardwrap-dust00" style="display: inline;"><g id="beard-single-dust00" style="display: inline;"/></g><g id="mustache-single-dust00" style="display: inline;"/><g id="hair-front-dust00" data-shape="15" style="display: inline;"><path id="SvgjsPath1201" d="M150.5 25.4C145.8 21.9 48.0 26.1 44.5 31.4C41.4 36.1 38.5 232.7 39.1 232.7C52.8 233.8 94.0 233.6 123.6 233.1C103.2 232.2 58.6 230.5 57.9 230.4C56.4 217.1 58.7 205.2 60.1 198.6C60.4 197.2 60.6 196.0 60.7 195.1L60.7 195.0C61.1 191.1 60.4 187.8 59.6 184.2C58.5 179.4 57.4 174.4 59.0 167.3C61.3 157.3 59.7 150.4 58.4 144.9C57.9 142.7 57.4 140.8 57.3 139.1C57.0 134.8 58.9 132.3 61.0 129.4C64.4 124.9 66.3 115.9 60.8 108.2C56.3 102.0 57.3 100.1 58.8 96.9C60.3 93.6 62.4 89.0 60.0 80.3C58.2 73.9 55.7 65.1 72.8 54.4C78.4 50.9 84.1 48.8 89.0 46.9C95.3 44.5 103.8 37.5 106.4 33.0C107.5 43.7 114.7 54.3 119.4 59.2C125.8 65.9 130.9 71.1 128.3 90.2C127.2 98.3 128.8 102.1 130.3 106.5C130.9 108.5 131.9 110.5 132.5 113.2C133.4 117.5 132.4 121.7 131.1 126.1C129.9 129.9 129.8 133.9 129.9 138.4C130.8 135.8 133.6 130.9 134.1 127.8C135.3 119.4 136.8 73.6 136.7 68.4C145.3 76.3 147.1 88.0 145.2 95.5C144.3 99.0 142.3 111.6 142.0 115.7C141.4 123.9 142.3 122.0 142.0 127.3C141.6 132.6 139.7 135.3 136.4 140.8C128.8 153.8 132.0 161.3 135.0 168.5C136.1 171.2 137.2 174.0 137.8 177.2C139.0 183.2 136.7 191.9 134.5 200.3C132.4 208.3 130.2 216.6 130.8 223.4C131.0 225.0 132.6 229.7 133.4 232.8C144.4 232.6 152.7 232.2 155.3 231.9C164.1 230.9 159.7 32.2 150.5 25.4z " data-colored="true" data-filltype="tone" data-stroketype="none" fill="#2a232b" stroke-width="none" opacity="0.1"/><path id="SvgjsPath1202" d="M169.9 60.5C169.5 47.8 166.8 37.0 161.9 28.2C160.6 21.8 158.1 13.7 149.6 7.4C145.1 4.1 135.9 0.6 127.3 -1.2C115.6 -12.0 114.9 -2.4 102.6 -7.4C99.7 -8.5 97.7 -9.3 93.1 -6.3C86.8 -7.9 79.7 -8.0 75.3 -7.1C70.4 -6.2 64.0 -3.0 59.3 0.8C51.4 2.9 45.7 6.5 42.5 11.4C39.6 15.7 38.2 20.5 38.4 25.6C36.9 28.7 36.0 32.0 35.5 35.9C32.8 39.7 30.0 44.5 27.9 48.6C26.1 52.1 23.0 68.6 24.7 75.8C12.7 97.1 20.8 106.9 25.7 124.6C22.1 133.0 22.1 140.7 25.7 149.5C21.6 165.6 17.1 168.0 21.2 207.8C23.5 229.4 22.5 230.1 22.5 235.9L22.6 235.8C33.8 235.7 39.2 232.1 45.5 232.9C46.5 232.9 55.1 233.7 55.4 233.7C135.1 240.1 128.6 232.4 172.6 231.6C171.8 223.5 170.8 201.2 172.3 192.3C174.4 179.2 172.4 163.8 168.5 152.7C172.9 144.6 172.4 140.5 169.7 132.3C175.2 116.1 177.6 107.8 174.2 92.5C178.0 81.4 175.8 70.8 169.9 60.5zM144.4 111.6C144.1 116.9 145.3 122.2 144.9 127.6C144.5 133.7 142.2 137.0 139.0 142.3C129.4 158.8 138.5 164.7 140.8 176.6C143.3 189.4 132.5 209.9 133.8 223.1C134.0 225.6 135.5 231.7 136.0 234.0C115.8 236.3 66.7 234.1 55.2 233.2C52.6 215.5 57.0 199.5 57.8 194.7C58.6 186.2 53.1 179.7 56.1 166.6C59.1 153.4 54.8 146.0 54.3 139.3C53.3 126.1 69.4 125.8 58.3 109.9C48.4 95.7 61.7 97.7 57.1 81.1C55.3 74.6 52.2 63.7 71.2 51.9C86.4 42.4 100.7 42.8 106.6 31.2C112.8 63.6 135.3 53.9 130.3 90.6C128.8 101.4 131.8 103.5 133.7 112.5C135.7 121.7 129.6 129.2 129.7 138.4C132.2 130.9 138.6 123.8 138.8 116.0C139.0 109.8 136.4 103.8 136.5 97.6C136.5 92.7 138.0 87.8 138.7 83.0C142.4 59.9 123.0 59.2 118.3 41.4L118.5 41.3C129.7 58.6 138.6 63.9 144.7 75.1C152.9 90.0 145.3 98.7 144.4 111.6z " data-colored="true" data-filltype="tone" data-stroketype="none" fill="#2a232b" stroke-width="none" opacity="1"/><path id="SvgjsPath1203" d="M143.4 232.9C140.9 233.3 138.7 233.6 136.3 233.9C133.7 221.5 133.2 220.0 138.3 202.7C145.9 177.0 143.1 175.9 139.0 163.9C133.8 148.7 143.4 144.5 146.6 134.3C148.5 128.5 147.8 122.6 147.1 116.7C145.6 102.8 153.4 94.5 149.1 81.1C144.4 66.4 132.7 61.5 118.1 40.0C117.6 38.1 117.3 36.1 117.1 34.0C130.0 54.5 152.8 65.0 153.2 80.4C153.5 91.3 147.4 114.1 150.0 129.0C151.6 138.1 143.0 144.0 141.0 153.0C138.0 165.0 150.0 175.0 146.0 186.0C140.1 200.4 138.9 216.4 143.4 232.9zM48.0 58.0C39.0 69.0 49.0 83.0 43.0 96.0C37.0 107.0 49.0 121.0 42.0 134.0C39.0 141.0 46.2 148.1 44.0 154.0C34.3 180.9 39.2 206.5 39.9 232.8C42.1 232.3 43.7 232.2 45.3 232.3C46.0 217.5 40.9 206.3 40.5 199.7C40.2 192.7 43.5 188.2 44.7 182.2C46.4 173.8 44.3 163.6 47.4 155.7C49.3 150.2 46.0 144.6 45.4 139.4C44.5 132.6 48.2 126.3 48.2 121.9C47.6 114.5 43.8 110.5 44.3 104.4C44.7 100.7 46.2 97.4 47.5 94.1C51.6 83.8 47.0 81.9 46.5 73.0C45.4 55.4 75.5 36.3 98.9 31.5C78.9 29.8 58.9 43.4 48.0 58.0zM46.4 36.0C37.4 45.1 38.0 55.9 37.1 68.7C36.4 78.9 24.2 88.0 26.2 97.8C30.1 117.4 35.6 130.2 31.1 151.5C30.0 156.7 32.4 163.0 32.4 168.0C29.3 177.4 28.8 187.0 28.8 197.4C28.8 207.8 29.2 218.2 31.4 229.0C31.8 231.2 31.6 233.2 31.2 235.2C32.3 235.1 33.4 234.8 34.7 234.5C37.7 219.4 31.6 194.9 33.2 186.7C35.0 177.5 37.8 176.1 37.0 165.9C36.6 160.9 35.8 154.5 35.7 149.9C35.5 135.5 43.2 129.2 38.2 116.6C37.2 114.1 36.0 111.6 35.0 109.0C29.8 95.8 36.7 88.6 40.8 78.3C43.2 72.6 43.1 70.4 42.4 63.5C41.5 55.0 40.4 42.7 63.0 28.3C76.1 19.9 88.1 19.5 97.8 19.5C77.0 15.1 59.2 23.0 46.4 36.0zM97.2 6.5C90.2 4.9 83.0 3.9 75.7 4.5C57.5 5.9 38.8 17.0 37.1 36.6C45.7 11.9 69.9 0.9 97.2 6.5zM126.8 59.7C121.0 53.1 106.1 39.3 108.9 23.1C108.7 25.8 107.6 29.3 106.8 31.0C112.5 57.8 131.2 56.0 132.9 77.9C133.6 74.0 129.6 62.8 126.8 59.7zM101.9 33.9C101.9 34.0 102.0 34.0 102.0 34.0C102.0 34.0 101.9 34.0 101.9 33.9C84.8 44.7 55.9 46.2 51.0 70.0C49.7 76.2 56.1 88.0 51.0 97.0C47.0 104.0 55.0 114.0 55.0 120.0S51.0 131.0 50.0 138.0C49.0 143.0 52.0 147.0 53.0 152.0C54.0 158.0 50.0 164.0 51.0 169.0C55.2 202.5 43.4 193.6 51.8 232.9C52.8 233.0 53.9 233.0 55.1 233.1C54.1 228.0 53.4 220.5 54.2 210.4C55.8 192.3 58.3 198.5 54.8 183.1C51.9 170.6 54.5 169.0 55.1 161.1C55.6 153.7 53.3 147.1 52.3 142.7C49.2 127.6 62.1 125.4 59.0 116.5C58.2 114.0 56.5 111.8 55.1 109.6C47.5 97.6 56.5 95.7 55.9 86.4C55.4 79.3 48.9 69.6 61.7 57.5C79.1 41.0 100.9 45.5 108.0 28.8C106.4 30.3 103.7 32.8 101.9 33.9zM158.0 190.0C159.0 181.0 156.9 172.4 153.9 163.4C151.9 153.4 160.5 147.7 162.0 138.3C163.8 127.0 155.3 117.6 162.0 101.3C169.7 82.9 165.6 65.6 153.5 57.5C138.9 47.4 130.2 36.6 122.6 20.3C129.3 55.4 151.9 58.3 157.8 76.9C161.8 89.4 153.9 99.4 154.9 113.3C155.3 119.2 157.8 124.9 157.0 130.9C155.5 141.8 144.9 148.3 147.2 161.9C148.3 167.9 150.6 173.6 151.2 179.8C152.0 189.3 150.2 198.9 151.0 208.8C151.7 217.1 153.1 215.1 151.1 231.7C153.1 231.4 158.2 231.3 160.3 231.3C157.5 217.6 155.5 203.5 158.0 190.0zM114.3 8.5C124.6 11.8 126.8 22.4 139.6 33.0C145.0 37.5 155.2 42.5 163.6 51.8C150.6 34.0 125.6 8.5 114.3 8.5zM118.2 4.3C128.3 4.2 134.8 5.6 145.0 11.3C151.8 15.0 156.8 20.1 160.5 25.7C157.2 15.6 137.5 -1.3 118.2 4.3zM169.2 130.7C174.0 114.3 175.6 104.8 173.8 93.9C169.3 105.9 163.2 112.9 169.2 130.7zM35.3 37.9C30.2 46.4 27.6 57.8 27.1 61.6C26.5 65.6 25.0 69.8 25.7 73.9C36.6 54.9 34.1 54.7 35.3 37.9zM29.0 229.0C18.4 182.4 34.6 164.9 27.2 151.5C21.3 170.9 19.3 171.9 22.2 211.1C23.0 221.8 22.9 230.2 22.6 235.7C25.1 235.6 27.0 235.5 28.8 235.2C29.2 233.2 29.5 231.2 29.0 229.0zM26.0 125.9C24.1 132.4 24.6 139.3 26.5 145.9C28.1 138.0 27.8 132.7 26.0 125.9zM171.3 179.0C171.1 167.0 169.8 159.5 168.0 153.9C164.9 159.5 161.1 165.1 162.1 171.7C162.5 174.1 163.3 176.4 163.8 178.8C165.6 187.1 161.8 192.2 163.2 205.5C163.8 210.5 165.8 215.1 165.2 231.5C169.5 231.6 170.6 231.5 172.1 231.5C167.4 194.6 171.6 190.2 171.3 179.0z " data-colored="true" data-filltype="sd1" data-stroketype="none" fill="#1b141c" stroke-width="none" opacity="1"/><path id="SvgjsPath1204" d="M41.2 37.0C43.9 32.1 46.9 27.4 50.7 23.2C68.8 3.2 94.3 10.7 98.5 10.5C96.1 10.6 81.2 7.6 66.8 13.3C52.4 19.0 46.2 28.8 41.2 37.0zM82.1 15.5C91.3 15.5 101.4 18.7 102.4 19.1C101.0 18.5 90.5 14.8 82.5 14.8C75.2 14.8 68.2 17.8 61.8 20.9C68.2 18.1 75.0 15.5 82.1 15.5zM94.5 24.4C94.7 24.4 101.4 23.6 101.5 23.9C101.5 23.8 100.2 23.9 100.1 23.9C75.2 23.9 50.6 37.1 44.0 57.1C51.9 36.5 78.1 26.5 94.5 24.4zM85.7 29.5C80.8 30.9 76.0 32.8 71.6 35.4C73.3 34.3 75.3 33.6 77.2 32.9C91.5 27.1 99.3 28.2 100.9 28.3C95.8 27.8 90.7 28.1 85.7 29.5zM55.8 57.4C63.5 46.9 86.6 40.8 98.5 34.3C85.2 40.9 64.9 44.9 55.8 57.4zM23.8 90.4C21.9 96.9 25.2 107.4 27.4 113.9C26.0 109.6 23.1 97.0 25.0 91.0C27.5 82.7 33.1 75.7 35.4 67.2C32.2 76.7 25.9 83.2 23.8 90.4zM49.3 135.4C49.1 136.2 48.7 137.2 48.6 138.0C48.7 137.4 49.2 136.5 49.4 135.9C54.2 123.2 55.0 119.8 48.8 107.1C52.5 116.5 53.7 119.5 49.3 135.4zM37.7 168.5C37.7 168.7 37.8 171.6 37.8 171.8C37.7 171.5 37.9 170.8 37.9 170.6C38.1 157.2 44.8 152.4 39.4 138.1C43.5 152.0 37.8 153.2 37.7 168.5zM49.7 184.5C49.0 189.6 46.4 197.2 46.3 207.2C46.2 208.5 46.5 209.8 46.5 211.1C46.5 209.5 46.4 208.0 46.5 206.4C47.0 199.1 48.6 195.3 49.6 190.0C51.6 179.3 49.7 177.8 49.1 166.7C49.2 173.6 50.3 179.3 49.7 184.5zM40.8 114.3C42.8 121.9 42.3 122.8 42.4 127.1C42.4 125.4 43.4 123.3 41.4 114.0C36.5 91.0 45.1 99.2 43.1 76.4C44.1 99.7 34.9 91.9 40.8 114.3zM125.9 58.4C141.3 77.8 128.6 95.7 134.5 105.8C130.0 98.1 138.1 82.9 132.4 67.4C128.9 57.9 119.6 52.2 114.5 41.6C111.9 36.3 109.8 31.0 109.5 25.1C110.0 41.7 122.7 54.5 125.9 58.4zM129.3 48.1C131.9 50.9 134.8 53.7 138.0 55.8C136.7 55.0 135.6 53.8 134.5 52.8C118.7 37.5 118.3 25.2 117.3 18.0C118.5 32.0 120.6 38.6 129.3 48.1zM134.6 34.6C144.1 47.4 175.9 64.4 169.2 87.7C169.2 87.7 167.1 94.4 167.1 94.4C172.1 82.5 172.5 73.6 163.4 60.9C155.0 49.2 142.1 43.7 133.8 33.1C132.4 31.4 131.3 29.6 130.1 27.8C131.5 30.2 132.9 32.4 134.6 34.6zM160.8 35.4C156.6 20.8 139.8 9.3 121.8 8.8C141.1 10.3 157.8 25.0 160.8 35.4zM102.2 31.7C106.2 28.2 109.1 25.7 110.5 12.1C109.4 19.7 107.8 26.9 102.2 31.7zM164.1 138.8C163.8 146.4 160.6 149.9 158.5 155.0C153.8 166.4 159.5 174.2 160.5 183.6C160.5 183.7 160.8 186.7 160.8 186.7C160.8 186.7 160.8 186.4 160.8 186.4C160.6 174.0 154.5 167.3 159.7 155.2C163.9 145.2 167.3 143.0 161.9 122.6C162.7 126.5 164.3 132.6 164.1 138.8zM144.2 166.2C148.4 177.6 147.3 177.0 147.8 179.4C147.8 179.3 147.7 176.7 147.0 173.7C145.5 166.9 142.3 161.0 143.1 152.9C143.9 145.1 149.6 139.8 150.1 132.7C150.2 130.4 149.9 128.3 149.5 126.1C152.1 144.3 136.1 144.1 144.2 166.2zM151.2 99.4C151.0 100.6 150.9 101.9 150.5 103.1C151.5 100.2 152.0 97.1 152.7 94.1C156.0 78.9 152.6 74.0 143.1 61.8C151.3 73.8 155.7 77.5 151.2 99.4z " data-colored="true" data-filltype="hl1" data-stroketype="none" fill="#3a353a" stroke-width="none" opacity="1"/><path id="SvgjsPath1205" d="M174.6 71.4C173.4 67.3 171.8 63.7 170.0 60.5C169.7 50.7 167.9 38.6 162.0 28.2C160.6 21.4 158.0 13.5 149.6 7.3C145.2 4.1 136.2 0.5 127.3 -1.3C121.0 -7.1 118.4 -7.2 112.8 -6.2C101.8 -4.4 101.4 -12.1 93.1 -6.4C86.9 -7.9 79.8 -8.1 75.2 -7.2C70.3 -6.3 63.9 -3.1 59.3 0.7C59.3 0.7 59.3 0.7 59.3 0.7C52.1 2.6 45.9 6.0 42.4 11.3C39.0 16.3 38.1 21.3 38.3 25.6C36.6 29.1 35.8 32.5 35.5 35.9C32.4 40.2 29.5 45.2 27.9 48.4C26.0 52.1 22.9 68.5 24.6 75.8C22.9 78.8 21.3 81.8 20.4 84.7C19.5 87.5 18.9 90.3 18.5 93.2C17.9 98.5 18.9 104.1 20.5 109.1C22.7 115.5 24.4 120.4 25.6 124.6C21.7 133.6 22.3 141.3 25.6 149.5C24.9 152.4 23.9 155.8 22.6 159.7C15.4 182.1 22.6 208.6 22.6 228.8C22.6 230.7 22.5 233.3 22.4 235.7C22.4 235.8 22.4 235.8 22.4 235.9C22.5 235.9 22.6 235.9 22.6 235.9C26.7 235.9 28.8 235.7 32.2 234.9C32.3 234.9 32.4 234.9 32.5 234.9C33.6 234.6 34.9 234.3 36.5 234.0C40.6 233.0 42.4 232.8 45.3 232.9C45.3 232.9 45.4 232.9 45.5 233.0C47.6 233.1 50.4 233.4 55.2 233.8C55.3 233.8 55.3 233.8 55.4 233.8C58.6 234.1 62.8 234.4 68.2 234.6C74.4 234.9 80.5 235.3 86.6 235.6C96.6 236.2 106.6 236.5 116.7 236.1C123.0 235.9 129.6 235.5 136.1 234.7C136.2 234.7 136.3 234.7 136.4 234.7C139.4 234.3 142.3 233.9 145.2 233.4C147.2 233.0 149.0 232.7 150.5 232.5C150.7 232.5 150.8 232.4 151.0 232.4C157.0 231.6 159.6 231.7 164.6 231.8C164.8 231.8 165.0 231.8 165.2 231.8C167.1 231.8 169.3 231.8 172.2 231.7C172.3 231.7 172.5 231.7 172.7 231.7C172.7 231.6 172.7 231.6 172.7 231.5C171.6 218.3 171.2 199.8 172.4 192.3C174.2 181.1 173.0 169.4 170.3 158.4C169.8 156.3 169.2 154.4 168.6 152.8C169.8 150.6 170.8 148.3 171.4 146.0C172.6 141.0 171.3 136.8 169.8 132.3C172.7 123.7 175.7 113.8 175.8 108.5C176.0 102.0 175.1 96.3 174.2 92.6C176.3 86.7 177.3 80.2 174.6 71.4zM27.1 61.6C27.6 57.8 30.2 46.4 35.3 37.9C34.8 45.0 35.6 52.3 32.7 60.1C30.9 64.9 28.2 69.5 25.7 73.9C25.0 69.8 26.5 65.6 27.1 61.6zM25.5 127.9C25.6 127.2 25.8 126.6 26.0 125.9C27.8 132.7 28.1 138.0 26.5 145.9C25.0 140.4 24.1 134.2 25.5 127.9zM113.3 235.0C102.6 235.3 91.9 234.8 81.2 234.2C74.8 233.9 68.5 233.7 62.1 233.5C59.4 233.4 57.2 233.3 55.3 233.1C52.6 215.5 57.3 198.6 57.9 194.7C58.7 186.2 53.2 179.8 56.2 166.6C59.2 153.3 54.9 146.0 54.4 139.3C53.6 128.8 63.4 126.9 62.2 117.7C61.4 111.4 54.5 107.4 54.5 100.8C55.4 94.5 59.6 92.5 57.8 83.4C56.5 77.5 49.8 65.3 71.3 51.9C86.3 42.6 100.8 42.8 106.6 31.5C107.9 38.6 110.2 45.4 115.6 51.7C119.4 56.2 124.0 60.2 127.1 65.3C133.7 76.3 130.0 89.0 129.7 94.6C129.4 101.0 132.3 106.5 133.6 112.5C134.9 118.8 132.5 124.5 130.8 130.4C130.0 133.2 129.7 135.7 129.7 137.7C129.6 138.2 129.6 138.6 129.7 138.9C129.7 138.7 129.8 138.5 129.9 138.3C132.8 130.2 138.7 123.7 138.9 116.0C139.1 109.8 136.5 103.9 136.5 97.6C136.6 92.7 138.0 87.9 138.8 83.0C142.2 61.7 126.1 59.3 119.8 45.3C119.2 44.1 118.8 42.8 118.4 41.4C119.4 43.0 120.5 44.5 121.6 46.1C130.9 59.3 139.1 65.0 144.6 75.1C152.8 90.1 145.2 98.7 144.4 111.6C144.0 116.9 145.2 122.2 144.9 127.5C144.4 133.7 142.0 137.0 138.9 142.3C130.5 156.8 136.4 162.7 140.1 174.0C140.1 174.0 140.1 174.0 140.1 174.0C140.1 174.0 140.1 174.0 140.1 174.0C140.2 174.3 140.5 175.7 140.7 176.6C143.2 189.4 132.4 209.9 133.7 223.1C133.9 225.1 134.8 229.5 135.9 233.9C130.9 234.4 124.8 234.8 113.3 235.0zM171.3 179.0C171.6 190.7 167.6 192.8 172.0 230.2C172.0 230.6 172.1 231.0 172.1 231.5C171.6 231.5 171.2 231.5 170.7 231.5C168.9 231.5 167.0 231.5 165.2 231.5C165.3 228.8 165.3 225.7 165.2 222.3C164.8 210.6 163.9 212.0 163.2 205.5C161.8 192.2 165.6 187.1 163.8 178.8C163.3 176.4 162.5 174.1 162.1 171.7C161.1 165.1 164.9 159.5 168.0 153.9C169.8 159.5 171.1 167.0 171.3 179.0zM168.1 146.1C167.8 147.1 167.4 148.0 167.0 148.9C166.9 149.2 166.8 149.6 166.6 149.9C164.7 154.1 162.2 158.1 160.6 162.5C157.9 170.3 160.8 175.9 161.6 179.2C163.1 185.3 161.3 191.8 161.2 198.1C161.2 209.1 164.7 210.4 164.6 231.4C160.1 231.3 155.5 231.1 151.1 231.7C153.1 215.1 151.7 217.1 151.0 208.8C150.2 198.9 152.0 189.3 151.1 179.8C150.6 173.6 148.3 167.9 147.2 161.9C144.9 148.3 155.5 141.8 157.0 130.9C157.1 130.0 157.2 129.0 157.2 128.1C157.1 123.1 155.2 118.3 154.9 113.3C153.9 99.4 161.8 89.4 157.8 76.9C151.8 57.9 128.3 55.3 122.2 18.1C125.6 43.5 136.5 51.7 146.9 63.1C166.9 85.1 150.5 93.4 152.3 114.7C152.7 120.2 155.1 125.9 153.8 131.5C151.2 140.9 143.3 148.3 144.2 159.0C144.8 165.4 147.7 171.2 148.7 177.5C150.9 190.0 147.6 197.2 150.7 215.0C151.6 220.0 151.2 225.8 150.6 231.8C144.5 232.7 140.8 233.3 136.3 233.9C135.8 231.4 135.3 228.9 134.8 226.5C133.4 218.5 136.1 210.3 138.3 202.7C145.9 177.0 143.1 175.9 139.0 163.9C133.8 148.7 143.3 144.5 146.6 134.3C148.5 128.5 147.7 122.6 147.1 116.7C145.6 102.8 153.4 94.5 149.1 81.1C145.4 69.5 135.5 61.7 127.8 52.8C124.3 48.7 121.1 44.4 118.1 40.0C116.6 33.6 116.5 26.0 116.1 20.4C116.3 26.2 116.1 32.5 117.1 38.5C117.1 38.8 117.2 39.2 117.2 39.5C117.8 42.6 118.8 45.6 120.3 48.4C124.8 56.5 134.1 62.5 136.6 70.6C139.2 80.6 134.3 88.9 134.8 98.3C135.1 104.5 137.9 110.5 137.8 116.8C137.6 123.0 132.6 129.4 130.0 136.8C130.7 129.4 135.5 122.4 135.0 114.7C134.5 108.6 131.4 103.0 131.3 96.9C131.1 91.0 136.1 78.6 129.6 66.6C124.0 56.0 113.3 52.3 108.5 37.2C107.8 35.1 107.3 33.1 106.8 31.0C107.6 29.3 108.2 27.5 108.6 25.3C108.8 24.1 109.0 22.8 109.1 21.4C108.8 25.1 108.0 28.1 106.8 30.6C106.7 30.8 106.6 30.9 106.5 31.1C99.2 45.1 78.7 41.4 61.7 57.5C48.9 69.6 55.4 79.3 55.9 86.4C56.0 87.6 55.9 89.4 55.7 90.2C53.6 97.0 48.9 99.9 55.1 109.6C56.5 111.8 58.2 114.0 59.0 116.5C62.1 125.4 49.2 127.6 52.3 142.7C53.3 147.1 55.6 153.7 55.1 161.1C54.5 169.0 51.9 170.6 54.8 183.1C58.3 198.5 55.8 192.3 54.2 210.4C53.4 220.5 54.1 228.0 55.1 233.1C50.2 232.8 47.7 232.4 45.6 232.3C45.9 227.4 45.8 220.3 43.7 210.8C43.1 207.7 42.1 204.6 41.8 201.5C40.8 192.8 45.5 188.2 46.6 180.9C47.9 172.3 46.9 162.6 49.3 156.9C51.8 150.7 49.2 146.3 48.2 140.9C46.0 128.7 54.3 128.3 48.5 113.1C45.7 106.0 46.0 103.6 48.2 98.0C49.4 94.8 50.6 91.7 51.1 88.3C52.3 79.8 41.3 72.3 55.1 55.8C67.4 41.1 88.6 33.3 99.2 31.4C75.1 35.3 45.4 54.6 46.5 73.0C47.2 85.2 51.7 81.3 47.5 94.1C46.4 97.5 44.7 100.7 44.3 104.4C43.8 110.5 47.6 114.5 48.2 121.9C48.2 126.3 44.5 132.6 45.4 139.4C46.0 144.6 49.3 150.2 47.4 155.7C44.3 163.6 46.4 173.8 44.7 182.2C43.5 188.2 40.2 192.7 40.5 199.7C40.7 202.7 41.5 205.7 42.3 208.6C45.1 219.3 45.6 227.1 45.3 232.3C42.5 232.2 40.1 232.6 33.8 234.2C33.4 234.3 33.0 234.4 32.6 234.5C35.5 221.3 31.8 200.2 32.1 190.3C32.2 184.7 35.6 178.2 36.6 173.1C37.8 167.2 35.4 156.4 36.1 148.1C36.8 139.5 38.7 136.3 40.1 130.3C43.0 117.4 35.3 111.4 33.8 102.2C32.3 92.7 40.6 83.5 42.4 73.3C44.2 62.8 36.0 53.2 50.1 38.3C67.8 19.6 87.7 19.8 98.4 19.5C88.2 19.4 75.0 19.0 60.6 28.3C38.0 42.7 39.1 55.0 40.0 63.5C40.7 70.4 40.8 72.6 38.4 78.3C36.3 83.6 33.5 88.0 31.9 92.9C30.4 97.5 30.1 102.5 32.6 109.0C33.6 111.6 34.8 114.1 35.8 116.6C36.2 117.7 36.7 118.9 36.9 120.1C37.0 120.5 37.3 121.9 37.4 122.1C38.3 132.4 33.2 137.8 33.3 149.9C33.4 154.5 34.2 160.9 34.6 165.9C34.8 168.1 34.9 170.0 34.8 171.3C34.3 176.2 31.9 180.8 30.8 186.7C29.2 194.9 35.3 219.4 32.3 234.5C28.8 235.4 26.6 235.6 22.6 235.7C22.9 230.2 23.0 221.8 22.2 211.1C20.8 193.1 19.2 177.4 24.0 161.6C25.1 158.1 26.1 155.1 26.9 152.3C27.2 151.4 27.4 150.6 27.7 149.8C30.4 140.1 31.0 133.8 27.6 121.6C27.5 121.4 27.4 121.1 27.4 120.9C26.9 119.3 26.3 117.5 25.7 115.7C21.2 102.0 18.5 94.0 25.5 79.7C25.8 79.1 26.0 78.5 26.3 78.0C26.5 77.6 26.7 77.3 26.9 77.0C30.6 69.9 35.2 62.7 36.3 54.6C37.3 47.7 36.4 41.1 37.3 34.7C37.4 34.1 37.5 33.6 37.5 33.1C37.8 31.7 38.1 30.3 38.6 29.0C38.8 28.5 38.9 28.0 39.1 27.5C40.1 25.1 41.5 22.7 43.4 20.2C51.1 10.7 63.7 5.4 75.7 4.5C86.7 3.5 97.5 6.3 107.9 9.4C97.3 6.0 86.3 3.0 75.0 3.8C67.6 4.3 59.9 6.6 53.3 10.4C49.5 12.5 46.1 15.2 43.2 18.4C41.6 20.2 40.3 22.0 39.3 23.7C39.8 19.1 41.6 14.6 44.8 11.1C47.3 8.2 51.1 6.0 55.6 4.3C56.0 4.2 56.4 4.0 56.9 3.9C70.3 -0.8 88.9 -0.9 98.7 2.3C101.2 3.1 103.5 4.1 105.9 5.1C103.7 4.0 101.5 2.9 99.1 2.0C96.0 0.7 91.7 -0.3 86.9 -0.8C86.9 -0.9 86.8 -0.9 86.8 -0.9C79.3 -1.8 70.4 -1.7 62.4 -0.0C64.9 -1.5 67.6 -2.7 69.9 -3.6C77.4 -6.1 83.6 -6.4 90.4 -5.6C90.9 -5.6 91.4 -5.5 91.9 -5.5C92.2 -5.4 92.5 -5.4 92.8 -5.3C97.1 -4.7 101.7 -3.4 104.4 0.1C102.5 -2.8 98.6 -4.8 94.0 -6.1C97.6 -8.2 99.1 -7.5 104.6 -5.0C107.2 -3.9 109.7 -3.6 112.4 -4.0C117.8 -4.8 119.2 -5.9 124.9 -1.7C116.6 -3.1 108.8 -2.8 105.6 1.1C105.5 1.2 105.3 1.4 105.2 1.6C108.9 -2.9 117.9 -2.5 127.2 -0.0C127.9 0.2 128.6 0.4 129.3 0.6C137.5 3.0 145.5 6.8 149.7 10.2C156.1 15.2 158.8 20.4 160.5 25.7C156.8 20.1 151.8 15.0 145.0 11.3C141.4 9.2 138.2 7.7 135.1 6.7C135.0 6.6 134.9 6.6 134.8 6.6C129.1 4.6 123.7 4.1 116.3 4.3C119.3 4.4 122.2 4.6 125.1 5.0C135.9 6.4 144.7 12.1 152.3 19.3C156.1 23.0 160.4 29.8 163.8 38.3C166.2 44.5 168.1 51.5 168.9 58.8C167.8 57.0 166.5 55.3 165.2 53.7C164.2 44.9 161.6 36.5 152.4 28.3C148.7 25.0 144.6 22.7 140.2 20.5C144.4 23.0 148.5 25.6 151.9 29.2C158.5 36.3 161.8 44.7 163.6 51.8C155.2 42.5 145.0 37.5 139.6 33.0C130.7 25.6 125.7 17.3 120.9 12.9C118.9 11.0 116.6 9.6 114.1 8.4C116.0 9.4 117.7 10.4 119.4 11.8C121.0 13.2 122.4 14.8 123.8 16.5C124.0 16.7 124.2 17.0 124.3 17.2C130.6 25.2 135.0 31.7 146.9 39.8C153.7 44.5 159.9 49.8 164.6 56.2C165.0 56.8 165.3 57.3 165.7 57.8C167.0 59.8 168.3 62.0 169.3 64.3C169.6 64.8 169.8 65.3 170.0 65.8C170.2 66.1 170.3 66.5 170.5 66.9C172.0 70.7 173.2 75.0 173.5 79.1C173.6 82.4 173.3 85.0 172.7 87.5C172.6 87.7 172.6 87.9 172.5 88.2C171.7 91.1 170.4 93.9 168.6 97.8C158.4 120.2 164.9 127.8 167.5 136.4C167.7 136.8 167.8 137.3 167.9 137.7C168.5 140.2 168.8 142.9 168.1 146.1zM169.2 130.7C167.8 126.4 166.4 121.7 166.8 115.7C167.3 107.2 171.1 100.9 173.8 93.9C175.6 104.8 174.0 114.3 169.2 130.7z " data-colored="true" data-filltype="sd3" data-stroketype="none" fill="#000000" stroke-width="none" opacity="1"/></g><g id="glasses-single-dust00" style="display: inline;"/></g><g id="bubble-single-dust00" style="display: inline;"/></g></g><defs id="SvgjsDefs1003"><radialGradient id="SvgjsRadialGradient1077" cx="126.653" cy="88.227" r="13.678" gradientTransform="matrix(-1.0357 0 0 1.0357 204.6606 -3.2718)" gradientUnits="userSpaceOnUse" class="app-on-canvas-eyesback-gradient-left-dust00-0"><stop id="SvgjsStop1078" stop-opacity="1" stop-color="#ffffff" offset="0" data-stoptype="#ffffff"/><stop id="SvgjsStop1079" stop-opacity="1" stop-color="#fdfefe" offset="0.544" data-stoptype="#fdfefe"/><stop id="SvgjsStop1080" stop-opacity="1" stop-color="#f6f8f9" offset="0.74" data-stoptype="#f6f8f9"/><stop id="SvgjsStop1081" stop-opacity="1" stop-color="#eaeff2" offset="0.879" data-stoptype="#eaeff2"/><stop id="SvgjsStop1082" stop-opacity="1" stop-color="#d9e3e8" offset="0.992" data-stoptype="#d9e3e8"/><stop id="SvgjsStop1083" stop-opacity="1" stop-color="#d8e2e7" offset="1" data-stoptype="#d8e2e7"/></radialGradient><radialGradient id="SvgjsRadialGradient1085" cx="126.654" cy="88.227" r="13.678" gradientTransform="matrix(1.0357 0 0 1.0357 -4.6606 -3.2718)" gradientUnits="userSpaceOnUse" class="app-on-canvas-eyesback-gradient-right-dust00-0"><stop id="SvgjsStop1086" stop-opacity="1" stop-color="#ffffff" offset="0" data-stoptype="#ffffff"/><stop id="SvgjsStop1087" stop-opacity="1" stop-color="#fdfefe" offset="0.544" data-stoptype="#fdfefe"/><stop id="SvgjsStop1088" stop-opacity="1" stop-color="#f6f8f9" offset="0.74" data-stoptype="#f6f8f9"/><stop id="SvgjsStop1089" stop-opacity="1" stop-color="#eaeff2" offset="0.879" data-stoptype="#eaeff2"/><stop id="SvgjsStop1090" stop-opacity="1" stop-color="#d9e3e8" offset="0.992" data-stoptype="#d9e3e8"/><stop id="SvgjsStop1091" stop-opacity="1" stop-color="#d8e2e7" offset="1" data-stoptype="#d8e2e7"/></radialGradient><radialGradient id="SvgjsRadialGradient1093" cx="126.653" cy="88.227" r="13.678" gradientTransform="matrix(-1.0357 0 0 1.0357 204.6606 -3.2718)" gradientUnits="userSpaceOnUse" class="app-on-canvas-eyesfront-gradient-left-dust00-0"><stop id="SvgjsStop1094" stop-opacity="1" stop-color="#ffffff" offset="0" data-stoptype="#ffffff"/><stop id="SvgjsStop1095" stop-opacity="1" stop-color="#fdfefe" offset="0.544" data-stoptype="#fdfefe"/><stop id="SvgjsStop1096" stop-opacity="1" stop-color="#f6f8f9" offset="0.74" data-stoptype="#f6f8f9"/><stop id="SvgjsStop1097" stop-opacity="1" stop-color="#eaeff2" offset="0.879" data-stoptype="#eaeff2"/><stop id="SvgjsStop1098" stop-opacity="1" stop-color="#d9e3e8" offset="0.992" data-stoptype="#d9e3e8"/><stop id="SvgjsStop1099" stop-opacity="1" stop-color="#d8e2e7" offset="1" data-stoptype="#d8e2e7"/></radialGradient><radialGradient id="SvgjsRadialGradient1103" cx="123.012" cy="86.371" fx="135.984" fy="86.407" r="18.449" gradientTransform="matrix(0.9996 0.028 0.0231 -0.8278 -47.9747 154.4321)" gradientUnits="userSpaceOnUse" class="app-on-canvas-eyesfront-gradient-left-dust00-3"><stop id="SvgjsStop1104" stop-opacity="1" stop-color="#673620" offset="0" data-stoptype="sd1"/><stop id="SvgjsStop1105" stop-opacity="0.3" stop-color="#673620" offset="0.7" data-stoptype="sd1"/><stop id="SvgjsStop1106" stop-opacity="0" stop-color="#764630" offset="1" data-stoptype="tone"/></radialGradient><radialGradient id="SvgjsRadialGradient1108" cx="73.035" cy="94.844" r="16.125" gradientTransform="matrix(0.9522 -0.0499 0.0499 0.9514 0.1249 7.7016)" gradientUnits="userSpaceOnUse" class="app-on-canvas-eyesfront-gradient-left-dust00-4"><stop id="SvgjsStop1109" stop-opacity="0" stop-color="#000000" offset="0.9" data-stoptype="#000000"/><stop id="SvgjsStop1110" stop-opacity="0.3" stop-color="#000000" offset="1" data-stoptype="#000000"/></radialGradient><radialGradient id="SvgjsRadialGradient1114" cx="126.654" cy="88.227" r="13.678" gradientTransform="matrix(1.0357 0 0 1.0357 -4.6606 -3.2718)" gradientUnits="userSpaceOnUse" class="app-on-canvas-eyesfront-gradient-right-dust00-0"><stop id="SvgjsStop1115" stop-opacity="1" stop-color="#ffffff" offset="0" data-stoptype="#ffffff"/><stop id="SvgjsStop1116" stop-opacity="1" stop-color="#fdfefe" offset="0.544" data-stoptype="#fdfefe"/><stop id="SvgjsStop1117" stop-opacity="1" stop-color="#f6f8f9" offset="0.74" data-stoptype="#f6f8f9"/><stop id="SvgjsStop1118" stop-opacity="1" stop-color="#eaeff2" offset="0.879" data-stoptype="#eaeff2"/><stop id="SvgjsStop1119" stop-opacity="1" stop-color="#d9e3e8" offset="0.992" data-stoptype="#d9e3e8"/><stop id="SvgjsStop1120" stop-opacity="1" stop-color="#d8e2e7" offset="1" data-stoptype="#d8e2e7"/></radialGradient><radialGradient id="SvgjsRadialGradient1124" cx="123.012" cy="86.371" fx="135.984" fy="86.407" r="18.449" gradientTransform="matrix(-0.9996 0.028 -0.0231 -0.8278 247.9747 154.4321)" gradientUnits="userSpaceOnUse" class="app-on-canvas-eyesfront-gradient-right-dust00-3"><stop id="SvgjsStop1125" stop-opacity="1" stop-color="#673620" offset="0" data-stoptype="sd1"/><stop id="SvgjsStop1126" stop-opacity="0.3" stop-color="#673620" offset="0.7" data-stoptype="sd1"/><stop id="SvgjsStop1127" stop-opacity="0" stop-color="#764630" offset="1" data-stoptype="tone"/></radialGradient><radialGradient id="SvgjsRadialGradient1129" cx="73.035" cy="94.844" r="16.125" gradientTransform="matrix(-0.9522 -0.0499 -0.0499 0.9514 199.8751 7.7016)" gradientUnits="userSpaceOnUse" class="app-on-canvas-eyesfront-gradient-right-dust00-4"><stop id="SvgjsStop1130" stop-opacity="0" stop-color="#000000" offset="0.9" data-stoptype="#000000"/><stop id="SvgjsStop1131" stop-opacity="0.3" stop-color="#000000" offset="1" data-stoptype="#000000"/></radialGradient><radialGradient id="SvgjsRadialGradient1135" cx="126.653" cy="88.227" r="13.678" gradientTransform="matrix(-1.0357 0 0 1.0357 204.6606 -3.2718)" gradientUnits="userSpaceOnUse" class="app-on-canvas-eyesback-gradient-left-dust00-0"><stop id="SvgjsStop1136" stop-opacity="1" stop-color="#ffffff" offset="0" data-stoptype="#ffffff"/><stop id="SvgjsStop1137" stop-opacity="1" stop-color="#fdfefe" offset="0.544" data-stoptype="#fdfefe"/><stop id="SvgjsStop1138" stop-opacity="1" stop-color="#f6f8f9" offset="0.74" data-stoptype="#f6f8f9"/><stop id="SvgjsStop1139" stop-opacity="1" stop-color="#eaeff2" offset="0.879" data-stoptype="#eaeff2"/><stop id="SvgjsStop1140" stop-opacity="1" stop-color="#d9e3e8" offset="0.992" data-stoptype="#d9e3e8"/><stop id="SvgjsStop1141" stop-opacity="1" stop-color="#d8e2e7" offset="1" data-stoptype="#d8e2e7"/></radialGradient><radialGradient id="SvgjsRadialGradient1143" cx="126.654" cy="88.227" r="13.678" gradientTransform="matrix(1.0357 0 0 1.0357 -4.6606 -3.2718)" gradientUnits="userSpaceOnUse" class="app-on-canvas-eyesback-gradient-right-dust00-0"><stop id="SvgjsStop1144" stop-opacity="1" stop-color="#ffffff" offset="0" data-stoptype="#ffffff"/><stop id="SvgjsStop1145" stop-opacity="1" stop-color="#fdfefe" offset="0.544" data-stoptype="#fdfefe"/><stop id="SvgjsStop1146" stop-opacity="1" stop-color="#f6f8f9" offset="0.74" data-stoptype="#f6f8f9"/><stop id="SvgjsStop1147" stop-opacity="1" stop-color="#eaeff2" offset="0.879" data-stoptype="#eaeff2"/><stop id="SvgjsStop1148" stop-opacity="1" stop-color="#d9e3e8" offset="0.992" data-stoptype="#d9e3e8"/><stop id="SvgjsStop1149" stop-opacity="1" stop-color="#d8e2e7" offset="1" data-stoptype="#d8e2e7"/></radialGradient><linearGradient id="SvgjsLinearGradient1165" x1="99.98" y1="171.27" x2="99.98" y2="136.351" gradientUnits="userSpaceOnUse" class="app-on-canvas-chinshadow-gradient-single-dust00-0"><stop id="SvgjsStop1166" stop-opacity="0.8" stop-color="#e4b3ab" offset="0" data-stoptype="sd1"/><stop id="SvgjsStop1167" stop-opacity="1" stop-color="#c5796d" offset="0.7" data-stoptype="sd3"/></linearGradient><radialGradient id="SvgjsRadialGradient1169" cx="100" cy="113" r="40" gradientUnits="userSpaceOnUse" class="app-on-canvas-facehighlight-gradient-single-dust00-0"><stop id="SvgjsStop1170" stop-opacity="0.5" stop-color="#855844" offset="0" data-stoptype="hl1"/><stop id="SvgjsStop1171" stop-opacity="0" stop-color="#764630" offset="0.9" data-stoptype="tone"/></radialGradient><radialGradient id="SvgjsRadialGradient1173" cx="100" cy="57" r="36" gradientUnits="userSpaceOnUse" class="app-on-canvas-facehighlight-gradient-single-dust00-1"><stop id="SvgjsStop1174" stop-opacity="0.5" stop-color="#855844" offset="0" data-stoptype="hl1"/><stop id="SvgjsStop1175" stop-opacity="0" stop-color="#764630" offset="0.9" data-stoptype="tone"/></radialGradient><linearGradient id="SvgjsLinearGradient1370" x1="99.98" y1="171.27" x2="99.98" y2="136.351" gradientUnits="userSpaceOnUse" class="app-on-canvas-chinshadow-gradient-single-dust00-0"><stop id="SvgjsStop1371" stop-opacity="0.8" stop-color="#673620" offset="0" data-stoptype="sd1"/><stop id="SvgjsStop1372" stop-opacity="1" stop-color="#481c08" offset="0.7" data-stoptype="sd3"/></linearGradient></defs></svg>