<svg enable-background="new 0 0 370 334" viewBox="0 0 370 334" xmlns="http://www.w3.org/2000/svg"><path d="m354 151h-256c-9 0-16 7-16 16s7 16 16 16h256c9 0 16-7 16-16s-7-16-16-16zm0-128h-256c-9 0-16 7-16 16s7 16 16 16h256c9 0 16-7 16-16s-7-16-16-16zm0 256h-256c-9 0-16 7-16 16s7 16 16 16h256c9 0 16-7 16-16s-7-16-16-16zm-321-201v-78h-9l-17 9 2 8 14-8v69zm-25 114-8 8v6h50v-8h-35v-1l6-5c16-16 27-28 27-43 0-11-7-23-24-23-9 0-17 4-22 8l3 8c4-3 10-7 17-7 11 0 15 7 15 16 0 11-9 22-29 41zm13 134c-7 0-14-3-17-5l-3 8c4 3 11 5 20 5 19 0 29-11 29-23 0-11-8-19-18-20v-1c10-3 15-10 15-18 0-10-7-19-23-19-8 0-16 3-20 6l3 8c3-3 9-5 15-5 10 0 14 5 14 11 0 10-10 14-17 14h-6v8h6c10 0 20 5 20 16 0 6-4 15-18 15z"/></svg>