<svg id="bg_gli_cactus-head-creature-1~2497" width="500" height="500" xmlns="http://www.w3.org/2000/svg" version="1.1" xmlns:xlink="http://www.w3.org/1999/xlink" xmlns:svgjs="http://svgjs.com/svgjs" class="bgs" preserveAspectRatio="xMidYMin slice"><defs id="SvgjsDefs14229"></defs><rect id="rect_gli_cactus-head-creature-1~2497" width="100%" height="100%" fill="none" rx="0.00" ry="0.00" opacity="1.00"></rect><svg id="th_gli_cactus-head-creature-1~2497" preserveAspectRatio="xMidYMid meet" viewBox="0.03144483268260956 0.02723732590675354 55.58394241333008 63.27276611328125" class="svg_thumb" data-uid="gli_cactus-head-creature-1~2497" data-keyword="cactus-head-creature-1" data-coll="gli" data-complex="true" data-c="{&quot;131313&quot;:[&quot;gli_cactus-head-creature-1~2497_l_27&quot;,&quot;gli_cactus-head-creature-1~2497_l_29&quot;,&quot;gli_cactus-head-creature-1~2497_l_31&quot;],&quot;a07b49&quot;:[&quot;gli_cactus-head-creature-1~2497_l_0&quot;],&quot;a09974&quot;:[&quot;gli_cactus-head-creature-1~2497_l_1&quot;],&quot;bab28b&quot;:[&quot;gli_cactus-head-creature-1~2497_l_2&quot;,&quot;gli_cactus-head-creature-1~2497_l_3&quot;],&quot;75ad89&quot;:[&quot;gli_cactus-head-creature-1~2497_l_4&quot;,&quot;gli_cactus-head-creature-1~2497_l_9&quot;,&quot;gli_cactus-head-creature-1~2497_l_14&quot;,&quot;gli_cactus-head-creature-1~2497_l_18&quot;,&quot;gli_cactus-head-creature-1~2497_l_24&quot;],&quot;5a8779&quot;:[&quot;gli_cactus-head-creature-1~2497_l_5&quot;,&quot;gli_cactus-head-creature-1~2497_l_7&quot;,&quot;gli_cactus-head-creature-1~2497_l_11&quot;,&quot;gli_cactus-head-creature-1~2497_l_17&quot;,&quot;gli_cactus-head-creature-1~2497_l_19&quot;,&quot;gli_cactus-head-creature-1~2497_l_22&quot;,&quot;gli_cactus-head-creature-1~2497_l_25&quot;],&quot;a89a69&quot;:[&quot;gli_cactus-head-creature-1~2497_l_6&quot;,&quot;gli_cactus-head-creature-1~2497_l_12&quot;,&quot;gli_cactus-head-creature-1~2497_l_16&quot;,&quot;gli_cactus-head-creature-1~2497_l_21&quot;],&quot;b4cdc7&quot;:[&quot;gli_cactus-head-creature-1~2497_l_8&quot;,&quot;gli_cactus-head-creature-1~2497_l_13&quot;,&quot;gli_cactus-head-creature-1~2497_l_23&quot;],&quot;3d5d54&quot;:[&quot;gli_cactus-head-creature-1~2497_l_10&quot;,&quot;gli_cactus-head-creature-1~2497_l_15&quot;,&quot;gli_cactus-head-creature-1~2497_l_20&quot;,&quot;gli_cactus-head-creature-1~2497_l_26&quot;,&quot;gli_cactus-head-creature-1~2497_l_37&quot;],&quot;ffffff&quot;:[&quot;gli_cactus-head-creature-1~2497_l_28&quot;,&quot;gli_cactus-head-creature-1~2497_l_30&quot;],&quot;aba379&quot;:[&quot;gli_cactus-head-creature-1~2497_l_32&quot;],&quot;b1aa7c&quot;:[&quot;gli_cactus-head-creature-1~2497_l_33&quot;],&quot;8f8965&quot;:[&quot;gli_cactus-head-creature-1~2497_l_34&quot;],&quot;3d5547&quot;:[&quot;gli_cactus-head-creature-1~2497_l_35&quot;],&quot;7e7959&quot;:[&quot;gli_cactus-head-creature-1~2497_l_36&quot;],&quot;f3eec2&quot;:[&quot;gli_cactus-head-creature-1~2497_l_38&quot;],&quot;413f2e&quot;:[&quot;gli_cactus-head-creature-1~2497_l_39&quot;],&quot;2a291e&quot;:[&quot;gli_cactus-head-creature-1~2497_l_40&quot;],&quot;a5a176&quot;:[&quot;gli_cactus-head-creature-1~2497_l_41&quot;]}" data-colors="[&quot;#a07b49&quot;,&quot;#a09974&quot;,&quot;#bab28b&quot;,&quot;#75ad89&quot;,&quot;#5a8779&quot;,&quot;#a89a69&quot;,&quot;#b4cdc7&quot;,&quot;#3d5d54&quot;,&quot;#131313&quot;,&quot;#ffffff&quot;,&quot;#aba379&quot;,&quot;#b1aa7c&quot;,&quot;#8f8965&quot;,&quot;#3d5547&quot;,&quot;#7e7959&quot;,&quot;#f3eec2&quot;,&quot;#413f2e&quot;,&quot;#2a291e&quot;,&quot;#a5a176&quot;]" style="overflow: visible;"><path id="gli_cactus-head-creature-1~2497_l_0" d="M38.3 16.8L29.1 19.3L26.3 19.6C24.2 19.1 22.5 17.4 21.2 14.4C19.8 11.1 20.2 8.1 22.3 5.2C24.1 2.8 26.6 1.1 29.6 0.3C32 -0.3 34.2 0.1 36.2 1.4C37.9 2.5 39.2 4.2 40.2 6.4C41 8.2 41.1 10.3 40.5 12.8C39.9 15.1 39.2 16.4 38.3 16.8Z " data-color-original="#a07b49" fill="#a07b49" class="oranges"></path><path id="gli_cactus-head-creature-1~2497_l_1" d="M35.9 16.4C39.5 17.1 42 17.3 43.2 16.8C44.2 16.4 45.2 16.2 46.2 16.2S47.8 16.4 48 16.8C48.2 17.3 47.5 17.8 46 18.5C44.4 19.2 42.9 19.5 41.4 19.5C40 19.5 38.4 19.2 36.5 18.8C35.2 18.5 34.2 18.2 33.4 17.9C32.8 17.7 33.6 17.2 35.9 16.4ZM21.6 17.9C20.9 18.1 20.1 18.2 19.3 18.3C18.2 18.4 17.4 18.2 16.9 17.8C16.2 17.3 15.9 16.8 16.1 16.1C16.2 15.4 16.9 15.3 18 15.6C20.4 16.4 22 16.7 22.7 16.6C23 16.5 23.4 16.6 23.7 16.8L24 17.1Z " data-color-original="#a09974" fill="#a09974" class="grays"></path><path id="gli_cactus-head-creature-1~2497_l_2" d="M31.7 15.4C34.5 14.1 36.6 12.9 37.8 11.6C38.8 10.6 40 9.8 41.2 9.4C42.6 8.9 43.8 8.9 45 9.4C46.3 10 47.1 10.9 47.5 12.1C47.8 13.4 47.2 14.4 45.8 15.2C43.1 16.7 39.7 17.7 35.4 18.1C33.2 18.3 30.7 18.2 28 17.7ZM24 17.3C22 17.2 20.5 17 19.3 16.7C17.5 16.2 16.1 15.1 15.1 13.3C14 11.3 14.8 10.1 17.7 9.6C18.2 9.5 18.7 9.8 19.2 10.3C20.1 11.3 20.9 12 21.6 12.5C23.5 13.8 24.9 14.8 25.8 15.4C27.3 16.4 27.8 17 27.5 17.2C26.9 17.3 25.7 17.3 24 17.3Z " data-color-original="#bab28b" fill="#bab28b" class="oranges"></path><path id="gli_cactus-head-creature-1~2497_l_3" d="M34.1 6.7C35.6 6.9 36.5 7.7 36.7 9C37 10.2 36.3 11.8 34.7 13.8C33.4 15.5 32.4 16.4 31.7 16.7H28.9C26.9 16.6 25.5 16.3 24.8 15.6C23.9 14.8 23.3 13.5 22.9 11.7S22.7 8.6 23.3 8C23.7 7.5 24.5 7.3 25.6 7.2C27.4 7.1 28.7 7 29.5 6.8C31.4 6.6 33 6.5 34.1 6.7Z " data-color-original="#bab28b" fill="#bab28b" class="oranges"></path><path id="gli_cactus-head-creature-1~2497_l_4" d="M48.1 20.3C51.8 23.7 54.1 29.3 55.2 37.1C56.4 45.6 55 52 51 56.4C47.1 60.5 40.3 62.8 30.5 63.1C21.2 63.4 13.4 62 6.9 58.8C5.5 58 4.1 56 2.7 52.9C1.3 49.6 0.5 46 0.2 42.2C-0.6 32.1 2.6 25 9.8 20.8C17.3 16.4 24.9 14.4 32.7 14.7C39.3 15 44.4 16.9 48.1 20.3Z " data-color-original="#75ad89" fill="#75ad89" class="greens"></path><path id="gli_cactus-head-creature-1~2497_l_5" d="M20.4 16.2C16.5 18.7 13.8 21.4 12.4 24.2C11.2 26.7 10.3 29.4 9.7 32.4C9.1 35.7 8.9 38.9 9.1 42C9.4 45.4 10.7 49.3 13 53.6C15.4 58.1 17.6 60.8 19.8 61.7L22.4 62.8L18.2 62.2C16.3 61.4 15.1 60.6 14.6 60C14 59.3 13.2 58.1 12.2 56.4C10.9 54.3 9.9 52.5 9.1 50.8C8.2 49 7.6 46.6 7.3 43.7C7 41.1 6.9 38.4 7.1 35.7C7.3 33.2 7.9 30.5 9.1 27.4C10.3 24.4 11.5 22.2 12.8 20.8C13.9 19.6 15.6 18.3 17.9 16.9C18.3 16.9 19.2 16.6 20.4 16.2Z " data-color-original="#5a8779" fill="#5a8779" class="grays"></path><path id="gli_cactus-head-creature-1~2497_l_6" d="M7.4 29.4C8.3 26.1 9.3 23.8 10.4 22.5C11.4 21.3 13 19.8 15.3 18C16.4 17.5 17.3 17.2 17.9 17C15.7 18.3 14 19.6 12.8 20.9C11.5 22.3 10.3 24.5 9.1 27.5S7.3 33.3 7.1 35.8C6.9 38.5 7 41.2 7.3 43.8C7.6 46.7 8.2 49.1 9.1 50.9C9.9 52.6 10.9 54.4 12.2 56.5C13.2 58.2 14 59.4 14.6 60.1C15.1 60.7 16.3 61.5 18.2 62.3L17 62C15 61 13.2 59.7 11.5 58.1C10.1 56.7 9 55.3 8.2 53.9C7.4 52.4 6.7 50.1 6.2 47S5.5 41 5.7 38.2S6.5 32.5 7.4 29.4Z " data-color-original="#a89a69" fill="#a89a69" class="oranges"></path><path id="gli_cactus-head-creature-1~2497_l_7" d="M5.9 28.2C6.9 25.9 8 24 9.2 22.6C10.3 21.4 11.3 20.3 12.2 19.4L15.4 17.9C13.2 19.7 11.5 21.2 10.5 22.4C9.4 23.7 8.4 26 7.5 29.3C6.6 32.5 6 35.5 5.8 38.3C5.6 41 5.8 43.9 6.3 47.1C6.8 50.2 7.5 52.5 8.3 54C9.1 55.4 10.2 56.8 11.6 58.2C13.3 59.8 15.1 61.1 17.1 62.1L15.6 61.7C11.8 59.9 9.1 57.8 7.6 55.2C6.5 53.2 5.6 50 4.8 45.6S3.7 37.8 4 35.3C4.2 32.9 4.9 30.5 5.9 28.2Z " data-color-original="#5a8779" fill="#5a8779" class="grays"></path><path id="gli_cactus-head-creature-1~2497_l_8" d="M8.4 21.7L12.2 19.5C11.3 20.4 10.3 21.5 9.2 22.7C8 24.1 6.9 26 5.9 28.3C4.9 30.7 4.2 33.1 4 35.5C3.7 37.9 4 41.3 4.8 45.6C5.6 50 6.5 53.2 7.7 55.2C9.2 57.8 11.8 59.9 15.7 61.7C14.6 61.5 13.5 61.2 12.3 60.8C9.7 59.3 7.9 58.1 6.9 57C6 56 5 54 3.9 50.9C3 48.3 2.4 45.8 2 43.6C1.3 39.6 1.4 35.3 2.4 30.7C2.9 28.4 4.9 25.3 8.4 21.7Z " data-color-original="#b4cdc7" fill="#b4cdc7" class="grays"></path><path id="gli_cactus-head-creature-1~2497_l_9" d="M8.4 21.7C4.9 25.3 2.9 28.4 2.4 31C1.4 35.5 1.3 39.8 2 43.8C2.4 46 3 48.5 3.9 51.1C5 54.2 6 56.2 6.9 57.1C7.9 58.1 9.7 59.4 12.3 60.9C10.6 60.4 8.8 59.7 7 58.9C5.6 58.2 4.2 56.3 2.8 53.3C1.5 50.2 0.6 46.7 0.2 43C-0.7 33.2 2 26.2 8.4 21.7Z " data-color-original="#75ad89" fill="#75ad89" class="greens"></path><path id="gli_cactus-head-creature-1~2497_l_10" d="M13.5 27.6C14.9 23.6 16.2 21 17.4 19.8C18.1 19.2 19.1 18.4 20.4 17.5S22.8 15.9 23.8 15.4C24.4 15.3 25.2 15.1 26.3 15C25.3 15.5 24.1 16.3 22.8 17.2S20.4 18.9 19.7 19.6C18.5 20.8 17.2 23.4 15.8 27.6C14.2 32.5 13.4 36.8 13.6 40.7C13.8 44.7 14.4 48.1 15.5 51.1C16.4 53.4 17.7 55.7 19.5 58.2C20.7 59.8 21.5 60.8 21.8 61.1C22.5 61.9 23.2 62.6 23.8 63.1L22.7 63C21.7 62.5 20.8 61.8 19.9 60.8C19.4 60.3 18.5 59.2 17.2 57.4C15.4 55 14.1 52.7 13.2 50.5C12.1 47.6 11.5 44.2 11.3 40.3C11.1 36.5 11.9 32.2 13.5 27.6Z " data-color-original="#3d5d54" fill="#3d5d54" class="grays"></path><path id="gli_cactus-head-creature-1~2497_l_11" d="M26.2 15L26.6 14.9C24.5 16.4 23 17.6 22.1 18.5C21 19.7 19.7 22.4 18.3 26.7C16.7 31.6 16 36.1 16.1 40.1C16.3 44.2 16.9 47.7 18 50.7C18.8 53 20.1 55.4 21.8 57.9C23 59.6 23.8 60.7 24.1 61.1C24.8 62 25.5 62.7 26.3 63.2L23.5 63C22.9 62.5 22.2 61.9 21.5 61C21.2 60.7 20.5 59.7 19.2 58.1C17.4 55.7 16.1 53.3 15.2 51C14.1 48.1 13.5 44.6 13.3 40.6C13.1 36.7 13.9 32.4 15.5 27.5C16.9 23.4 18.2 20.7 19.4 19.5C20.1 18.8 21.2 18 22.5 17.1C24 16.3 25.2 15.5 26.2 15Z " data-color-original="#5a8779" fill="#5a8779" class="grays"></path><path id="gli_cactus-head-creature-1~2497_l_12" d="M26.6 15L27.6 14.9C25.9 16.4 24.6 17.6 23.9 18.6C23 19.8 22 22.5 20.9 26.8C19.6 31.7 19 36.2 19.1 40.2C19.2 44.3 19.7 47.8 20.6 50.8C21.3 53.1 22.3 55.5 23.7 58C24.6 59.6 25.2 60.6 25.6 61.2C26.2 62.1 26.8 62.8 27.4 63.3H26.3C25.6 62.8 24.8 62.1 24.1 61.2C23.8 60.8 23 59.7 21.8 58C20.1 55.5 18.8 53.1 18 50.8C16.9 47.8 16.3 44.2 16.1 40.2S16.7 31.8 18.3 26.8C19.7 22.5 20.9 19.8 22.1 18.6C23 17.6 24.4 16.4 26.6 15Z " data-color-original="#a89a69" fill="#a89a69" class="oranges"></path><path id="gli_cactus-head-creature-1~2497_l_13" d="M27.5 14.9L28 14.8C26.8 16.1 25.8 17.4 25.2 18.5C24.5 19.7 23.7 22.4 22.9 26.7C21.9 31.6 21.5 36.1 21.6 40.1C21.7 44.2 22.1 47.7 22.8 50.7C23.3 53.1 24.1 55.5 25.1 57.9C25.8 59.6 26.3 60.7 26.5 61.1C26.9 62 27.4 62.7 27.8 63.2H27.3C26.7 62.7 26.1 62 25.5 61.1C25.1 60.5 24.5 59.5 23.6 57.9C22.2 55.4 21.2 53 20.5 50.7C19.6 47.7 19.1 44.1 19 40.1S19.5 31.7 20.8 26.7C21.9 22.4 22.9 19.7 23.8 18.5C24.5 17.6 25.8 16.4 27.5 14.9Z " data-color-original="#b4cdc7" fill="#b4cdc7" class="grays"></path><path id="gli_cactus-head-creature-1~2497_l_14" d="M25.2 18.5C25.8 17.4 26.8 16.1 28 14.8L29.3 14.7C28.5 16 27.8 17.2 27.3 18.5C26.8 19.7 26.3 22.4 25.8 26.7C25.1 31.7 24.8 36.1 24.9 40.1C25 46.9 25.8 52.9 27.2 58C28 60.8 28.6 62.5 29.1 63.3L27.7 63C27.3 62.5 26.8 61.8 26.4 60.9C26.2 60.5 25.7 59.4 25 57.7C24 55.3 23.2 52.9 22.7 50.5C22.1 47.5 21.7 43.9 21.5 39.9C21.4 35.9 21.8 31.5 22.8 26.5C23.8 22.4 24.5 19.7 25.2 18.5Z " data-color-original="#75ad89" fill="#75ad89" class="greens"></path><path id="gli_cactus-head-creature-1~2497_l_15" d="M25.7 26.7C26.2 22.5 26.7 19.7 27.2 18.5C27.7 17.2 28.4 16 29.2 14.7H30L29.3 16.3C28.8 17.7 28.4 19.4 27.9 21.3C27.2 24.4 26.8 27 26.8 29C26.8 30.6 26.7 33.7 26.5 38.5C26.4 43.1 26.5 47 26.9 50.2C27.2 52.6 27.6 55.3 28.2 58.2C28.7 60.6 29.1 62.3 29.4 63.3H29C28.6 62.5 27.9 60.8 27.1 58C25.7 52.9 24.9 47 24.8 40.1C24.7 36 25 31.5 25.7 26.7Z " data-color-original="#3d5d54" fill="#3d5d54" class="grays"></path><path id="gli_cactus-head-creature-1~2497_l_16" d="M26.8 29C26.8 27 27.2 24.4 27.9 21.3C28.4 19.4 28.8 17.7 29.3 16.3L30 14.7H30.6L30.5 16.4C30.5 17.2 30.3 18.4 30 20S29.5 22.9 29.5 23.9S29.3 28.5 28.9 34.7S28.2 44.5 28.2 45.6C28.2 46.8 28.4 49.1 28.7 52.4S29.2 57.6 29.2 58.1C29.2 58.5 29.3 59.4 29.4 60.7C29.5 61.9 29.6 62.7 29.6 63.2L29.4 63.3C29.1 62.3 28.7 60.6 28.2 58.2C27.6 55.3 27.2 52.7 26.9 50.2C26.5 47.1 26.4 43.2 26.5 38.5C26.7 33.6 26.8 30.4 26.8 29Z " data-color-original="#a89a69" fill="#a89a69" class="oranges"></path><path id="gli_cactus-head-creature-1~2497_l_17" d="M29.5 23.9C29.5 22.9 29.7 21.6 30 20S30.5 17.2 30.5 16.4L30.6 14.7L31.2 14.6C31.3 15.2 31.5 16.6 31.6 19C31.7 20.3 31.8 22.4 31.9 25.2C32 27.4 32 35 31.8 48C31.7 52.7 31.7 55.7 31.5 57C31.3 60.2 30.9 62.3 30.2 63.2H29.6C29.6 62.7 29.6 61.9 29.4 60.7C29.3 59.4 29.2 58.5 29.2 58.1S29 55.8 28.7 52.4C28.4 49.1 28.2 46.8 28.2 45.6C28.2 44.5 28.4 40.9 28.9 34.7C29.3 28.5 29.5 24.9 29.5 23.9Z " data-color-original="#5a8779" fill="#5a8779" class="grays"></path><path id="gli_cactus-head-creature-1~2497_l_18" d="M31.8 25.2C31.7 22.4 31.6 20.3 31.5 19C31.4 16.7 31.3 15.2 31.1 14.6L32.7 14.7C33.3 15.1 33.8 15.7 34.2 16.4C34.8 17.3 35.4 19.1 36.1 21.7C36.9 24.6 37.4 27.3 37.6 29.7C38.1 36.7 38 42.8 37.1 48C36.8 49.6 36.5 52 36 55C35.5 57.4 34.6 59.3 33.3 60.7C32.3 61.7 31.5 62.5 30.7 63.2H30.2C30.8 62.3 31.3 60.2 31.5 57C31.6 55.7 31.7 52.7 31.8 48C31.9 34.9 31.9 27.4 31.8 25.2Z " data-color-original="#75ad89" fill="#75ad89" class="greens"></path><path id="gli_cactus-head-creature-1~2497_l_19" d="M34.2 16.4C33.8 15.7 33.3 15.1 32.7 14.7L34.4 14.9C35 15.4 35.6 15.9 36 16.5C36.7 17.4 37.4 19.2 38.2 21.8C39.1 24.7 39.7 27.4 39.9 29.8C40.5 36.8 40.3 42.9 39.3 48.1C39 49.7 38.6 52.1 38.1 55.1C37.5 57.5 36.5 59.4 35 60.8C33.7 61.9 32.7 62.7 32.1 63.2L30.8 63C31.5 62.4 32.4 61.5 33.4 60.5C34.7 59.1 35.6 57.2 36.1 54.8C36.5 51.8 36.9 49.4 37.2 47.8C38.1 42.6 38.2 36.5 37.7 29.5C37.5 27.1 37 24.5 36.2 21.5C35.4 19.1 34.8 17.3 34.2 16.4Z " data-color-original="#5a8779" fill="#5a8779" class="grays"></path><path id="gli_cactus-head-creature-1~2497_l_20" d="M36 16.4C35.6 15.8 35.1 15.3 34.4 14.8L35.2 14.9C35.8 15.3 36.4 15.8 36.9 16.4C37.7 17.3 38.5 19.1 39.5 21.7C40.6 24.6 41.2 27.3 41.5 29.7C42.2 36.9 42 43 40.8 48C40.4 49.6 40 52 39.4 55C38.7 57.4 37.5 59.3 35.8 60.7C34.5 61.7 33.4 62.5 32.5 63.1L32.1 63.2C32.7 62.7 33.7 61.9 35 60.8C36.5 59.4 37.5 57.5 38.1 55.1C38.6 52.1 39 49.7 39.3 48.1C40.3 42.9 40.5 36.8 39.9 29.8C39.7 27.4 39.1 24.8 38.2 21.8C37.4 19.1 36.6 17.3 36 16.4Z " data-color-original="#3d5d54" fill="#3d5d54" class="grays"></path><path id="gli_cactus-head-creature-1~2497_l_21" d="M36.9 16.4C36.4 15.8 35.9 15.3 35.2 14.9C36.2 15 37.4 15.3 38.8 15.6L39.8 16.4C40.8 17.4 41.8 19.1 43 21.7C44.3 24.6 45.1 27.3 45.4 29.7C46.3 36.8 46 42.9 44.6 48C44.1 49.6 43.5 52 42.8 55C41.9 57.4 40.4 59.3 38.3 60.7C36.6 61.7 35.4 62.5 34.5 62.9L32.3 63C33.2 62.5 34.3 61.7 35.6 60.6C37.3 59.2 38.5 57.3 39.2 54.9C39.8 51.9 40.2 49.5 40.6 47.9C41.8 42.9 42 36.8 41.3 29.6C41.1 27.2 40.4 24.6 39.3 21.6C38.5 19.1 37.6 17.3 36.9 16.4Z " data-color-original="#a89a69" fill="#a89a69" class="oranges"></path><path id="gli_cactus-head-creature-1~2497_l_22" d="M45.4 29.6C45.1 27.2 44.3 24.6 43 21.6C41.8 19 40.8 17.3 39.8 16.3L38.8 15.5L39.6 15.7L40.4 16.3C41.4 17.2 42.6 19 43.9 21.6C45.3 24.5 46.2 27.2 46.5 29.6C47.5 36.7 47.2 42.8 45.6 47.9C45.1 49.5 44.5 51.9 43.7 54.9C42.7 57.3 41.1 59.2 38.7 60.6L34.6 62.8H34.5C35.3 62.4 36.6 61.7 38.3 60.6C40.4 59.2 41.9 57.3 42.8 54.9C43.5 51.9 44.1 49.5 44.6 47.9C46 42.8 46.3 36.7 45.4 29.6Z " data-color-original="#5a8779" fill="#5a8779" class="grays"></path><path id="gli_cactus-head-creature-1~2497_l_23" d="M46.5 29.6C46.2 27.2 45.3 24.5 43.9 21.6C42.6 19 41.4 17.2 40.4 16.3L39.6 15.7L40.9 16.1L41.2 16.3C42.3 17.3 43.6 19 45 21.6C46.6 24.5 47.5 27.2 47.9 29.6C48.3 32.6 48.5 35.5 48.4 38.5C48.3 42.1 47.8 45.2 46.9 47.9C46.4 49.5 45.7 51.9 44.8 54.9C43.8 57.3 42 59.2 39.5 60.6C37.7 61.6 36.2 62.3 35.2 62.7L34.8 62.8L38.9 60.6C41.2 59.2 42.9 57.3 43.9 54.9C44.7 51.9 45.3 49.5 45.8 47.9C47.1 42.8 47.4 36.7 46.5 29.6Z " data-color-original="#b4cdc7" fill="#b4cdc7" class="grays"></path><path id="gli_cactus-head-creature-1~2497_l_24" d="M47.8 29.6C47.5 27.2 46.5 24.6 44.9 21.6C43.5 19 42.2 17.3 41.1 16.3L40.8 16.1C41.6 16.4 42.6 16.7 43.6 17.2C45 18.6 46.3 20.4 47.6 22.7C49 25.2 49.9 27.5 50.2 29.6C50.7 32.6 50.9 35.6 50.8 38.5C50.7 42.1 50.1 45.2 49.1 47.9C48.5 49.5 47.7 51.9 46.7 54.9C45.5 57.3 43.5 59.2 40.6 60.6C38.2 61.6 36.7 62.3 35.9 62.6L35.1 62.7C36.1 62.3 37.6 61.6 39.4 60.6C41.9 59.2 43.7 57.3 44.7 54.9C45.6 51.9 46.3 49.5 46.8 47.9C47.7 45.2 48.2 42.1 48.3 38.5C48.4 35.5 48.2 32.5 47.8 29.6Z " data-color-original="#75ad89" fill="#75ad89" class="greens"></path><path id="gli_cactus-head-creature-1~2497_l_25" d="M50.2 29.6C49.9 27.5 49 25.2 47.6 22.7C46.3 20.5 45 18.6 43.6 17.2C44.9 17.8 46 18.5 47 19.3C48.3 20.8 49.4 22.5 50.4 24.2C51.5 26.2 52.2 28 52.5 29.6C53.2 33.2 53.5 36.3 53.6 38.8C53.7 42.7 53.2 45.9 52.1 48.5C50.5 52.3 49.5 54.5 49 55.1C47.5 57.3 45.1 59.2 41.8 60.6L37.1 62.4L36 62.6C36.7 62.3 38.3 61.6 40.7 60.6C43.6 59.2 45.6 57.3 46.8 54.9C47.8 51.9 48.6 49.5 49.2 47.9C50.2 45.2 50.8 42.1 50.9 38.5C50.9 35.6 50.7 32.6 50.2 29.6Z " data-color-original="#5a8779" fill="#5a8779" class="grays"></path><path id="gli_cactus-head-creature-1~2497_l_26" d="M52.5 29.6C52.2 28 51.5 26.2 50.4 24.2C49.4 22.5 48.3 20.8 47 19.3L48.1 20.2C51.8 23.6 54.1 29.2 55.2 37C56.4 45.5 55 51.9 51 56.3C48.2 59.4 43.5 61.5 37.1 62.6L41.8 60.7C45.1 59.3 47.5 57.5 49 55.2C49.5 54.5 50.5 52.3 52.1 48.6C53.2 46 53.7 42.8 53.6 38.9C53.5 36.2 53.1 33.2 52.5 29.6Z " data-color-original="#3d5d54" fill="#3d5d54" class="grays"></path><path id="gli_cactus-head-creature-1~2497_l_27" d="M1.1 48V47.8C1.5 48 1.8 48.1 2.2 48.2C1.7 48.2 1.3 48.1 1.1 48Z " data-color-original="#131313" fill="#131313" class="grays"></path><path id="gli_cactus-head-creature-1~2497_l_28" d="M28.8 47L26.5 47.6L27.4 47.1Z " data-color-original="#ffffff" fill="#ffffff" class="whites"></path><path id="gli_cactus-head-creature-1~2497_l_29" d="M28.8 47L26.5 47.6L27.4 47.1Z " data-color-original="#131313" fill="#131313" class="grays"></path><path id="gli_cactus-head-creature-1~2497_l_30" d="M30.2 45.7C30.5 45.8 30.8 45.8 31.2 45.8V45.9Z " data-color-original="#ffffff" fill="#ffffff" class="whites"></path><path id="gli_cactus-head-creature-1~2497_l_31" d="M30.2 45.7C30.5 45.8 30.8 45.8 31.2 45.8V45.9Z " data-color-original="#131313" fill="#131313" class="grays"></path><path id="gli_cactus-head-creature-1~2497_l_32" d="M30.1 24.7C33.2 24.5 36 25.1 38.4 26.5C40.9 27.9 42.2 30.6 42.2 34.4C42.2 37.8 41.5 40 40.2 41.3C39.4 42 36.4 42.6 31.3 43.1C28.6 43.3 25.1 43.6 20.9 44C13.9 45.1 8.9 45 5.8 43.5C4 42.4 3 41 2.9 39.1C2.9 38.2 3.2 36.4 3.8 33.7C4.3 31.8 5.8 30.1 8.3 28.6C11.2 26.9 14.8 26 19.3 25.6C24.5 25.1 28.1 24.8 30.1 24.7Z " data-color-original="#aba379" fill="#aba379" class="grays"></path><path id="gli_cactus-head-creature-1~2497_l_33" d="M5.8 43.3C5.3 43.1 4.9 42.9 4.5 42.5L4.2 41.7C4.4 41.9 4.7 42.2 5.2 42.6S6.1 43.4 6.4 43.7Z " data-color-original="#b1aa7c" fill="#b1aa7c" class="oranges"></path><path id="gli_cactus-head-creature-1~2497_l_34" d="M41.7 30.9C40.6 29.3 39.3 28.3 37.9 27.8C37.3 27.6 36.1 27.4 34.3 27.2C33.3 27.1 30.9 27.3 27.2 27.8C22.8 28.4 20 28.7 19 28.8C15.3 29 11.6 30.2 8 32.3C6.6 33.1 5.6 34 5 35C4.5 35.8 4.1 37.1 3.7 39.1L3.6 39.6C3.6 38.6 3.7 37.5 3.9 36.1C4.4 34.3 4.9 33 5.5 32.2S7 30.7 8.2 30C10 29 11.1 28.4 11.7 28.2C13.2 27.6 14.9 27.1 17 26.7C19.3 26.3 22.2 26 25.9 25.6C29.3 25.3 31.7 25.1 33.1 25.1C35.1 25.1 37.5 26 40.5 27.8C40.9 28.8 41.4 29.7 41.7 30.9Z " data-color-original="#8f8965" fill="#8f8965" class="grays"></path><path id="gli_cactus-head-creature-1~2497_l_35" d="M30.1 24.7C33.2 24.5 36 25.1 38.4 26.5C39.2 27 39.9 27.6 40.3 28.1C37.3 26.3 34.9 25.4 32.9 25.4C31.6 25.4 29.2 25.6 25.7 25.9C22.1 26.2 19.1 26.6 16.8 27C14.7 27.3 13 27.8 11.5 28.5C11 28.7 9.8 29.3 8 30.3C6.8 30.9 6 31.7 5.4 32.5C5 33 4.5 34.3 4.2 36C4 37.3 3.9 38.5 3.9 39.5C4 40.3 4.1 41 4.3 41.7L4.5 42.5C3.4 41.5 2.9 40.2 2.9 38.4C2.9 37.7 3.2 36.1 3.8 33.6C4.3 31.7 5.8 30 8.3 28.5C11.2 26.8 14.8 25.9 19.3 25.5C24.5 25.1 28.1 24.8 30.1 24.7Z " data-color-original="#3d5547" fill="#3d5547" class="grays"></path><path id="gli_cactus-head-creature-1~2497_l_36" d="M20.2 27.1C20.5 27.2 20.7 27.4 20.6 27.7L20.4 28.7C20.3 29 20.2 29.1 19.9 29.1H19.8C19.5 29 19.3 28.8 19.4 28.5L19.6 27.5C19.7 27.2 19.9 27 20.2 27.1ZM19 31.3L19.2 30.3C19.2 29.9 19.4 29.8 19.8 29.8C20.1 29.9 20.3 30.1 20.2 30.4L20 31.4C19.9 31.7 19.8 31.9 19.5 31.9H19.4C19.1 31.7 18.9 31.6 19 31.3ZM19.3 34.7C19 34.7 18.8 34.5 18.8 34.1L18.9 33.1C19 32.7 19.2 32.6 19.5 32.6C19.6 32.6 19.8 32.7 19.9 32.8S20 33 20 33.2L19.9 34.2C19.8 34.5 19.6 34.7 19.3 34.7ZM20.1 43.3C19.8 43.3 19.7 43.2 19.6 42.9L19.4 41.9C19.4 41.6 19.6 41.4 19.9 41.3S20.4 41.4 20.5 41.8L20.7 42.7C20.8 43 20.6 43.2 20.1 43.3ZM20.4 26.2C20.2 26.1 20 26 20 25.7L21.1 25.6L21 25.9C20.9 26.2 20.8 26.3 20.4 26.2ZM19.6 40.5C19.3 40.5 19.1 40.3 19.1 40L19 39.1C18.9 38.8 19.1 38.6 19.5 38.5C19.8 38.5 20 38.7 20.1 39L20.2 40C20.2 40.3 20 40.5 19.6 40.5ZM19.4 37.6C19 37.6 18.9 37.4 18.8 37.1L18.7 36.2C18.7 35.9 18.9 35.7 19.2 35.6C19.5 35.6 19.7 35.8 19.7 36.1L19.8 37.1C19.9 37.4 19.7 37.5 19.4 37.6Z " data-color-original="#7e7959" fill="#7e7959" class="grays"></path><path id="gli_cactus-head-creature-1~2497_l_37" d="M31.3 22.5C31.7 22.5 32.1 22.5 32.3 22.6C32.6 22.6 32.8 22.8 32.8 23.1S32.6 23.6 32.3 23.6H31.3C31 23.6 30.8 23.4 30.8 23.1C30.8 22.7 31 22.5 31.3 22.5ZM29.3 23.6C28.9 23.6 28.6 23.6 28.4 23.7H28.3C28 23.7 27.8 23.5 27.7 23.2C27.8 22.8 27.9 22.6 28.2 22.6L29.3 22.5C29.4 22.5 29.6 22.5 29.7 22.6S29.8 22.9 29.8 23C29.8 23.4 29.6 23.5 29.3 23.6ZM25.2 23.7C24.9 23.7 24.7 23.5 24.7 23.2C24.7 22.8 24.9 22.6 25.2 22.6H26.2C26.5 22.6 26.7 22.8 26.8 23.1C26.8 23.5 26.6 23.7 26.2 23.7ZM41.2 25.2L41 25.1L40.1 24.7C39.8 24.6 39.7 24.3 39.8 24S40.2 23.6 40.4 23.7L41.4 24.1C41.7 24.3 41.8 24.5 41.7 24.8S41.5 25.2 41.2 25.2ZM35.9 23.3C35.8 23.6 35.6 23.8 35.3 23.8L34.3 23.7C34 23.7 33.9 23.5 33.9 23.1C33.9 22.8 34.1 22.6 34.5 22.6L35.5 22.7C35.7 22.8 35.9 23 35.9 23.3ZM38.3 24.2L37.2 24C36.9 24 36.8 23.8 36.8 23.4C36.9 23.1 37.1 22.9 37.4 23L38.5 23.2C38.8 23.3 39 23.5 38.9 23.8C38.7 24.1 38.6 24.2 38.3 24.2ZM43.5 27.1C43.3 27.1 43.2 27 43.1 26.8L42.5 26.1C42.3 25.9 42.2 25.6 42.4 25.4C42.7 25.1 42.9 25.1 43.2 25.3C43.5 25.6 43.7 25.9 43.9 26.3C44.1 26.6 44.1 26.8 43.8 27ZM43.9 28.2L44.2 27.9C44.5 27.8 44.7 27.9 44.9 28.3L45.2 29.4C45.3 29.7 45.1 29.9 44.8 30H44.7C44.4 30 44.2 29.9 44.2 29.6L43.9 28.6C43.8 28.4 43.8 28.3 43.9 28.2ZM45.3 31.3L45.4 32.4C45.4 32.8 45.2 33 44.9 33S44.4 32.8 44.3 32.5L44.2 31.5C44.2 31.1 44.3 30.9 44.6 30.9C44.7 30.9 44.9 30.9 45 31C45.3 31.1 45.3 31.2 45.3 31.3ZM11.9 24.9C12 25.2 12 25.5 11.6 25.6L10.7 26.1H10.5C10.3 26.1 10.1 26 10 25.8C9.9 25.5 9.9 25.3 10.3 25.1L11.2 24.6C11.5 24.5 11.8 24.6 11.9 24.9ZM13.1 23.8L14.1 23.4C14.4 23.3 14.6 23.4 14.8 23.7C14.9 24 14.8 24.2 14.5 24.4L13.6 24.8L13.4 24.9C13.2 24.9 13 24.8 12.9 24.6C12.7 24.2 12.8 24 13.1 23.8ZM6.8 28.3C6.8 28.5 6.7 28.6 6.6 28.7L5.9 29.4C5.8 29.5 5.7 29.6 5.5 29.6S5.2 29.5 5.1 29.4C4.9 29.1 4.9 28.8 5.2 28.6L6 27.9C6.3 27.6 6.5 27.6 6.7 28C6.7 28.1 6.8 28.2 6.8 28.3ZM7.5 27.4C7.3 27.1 7.4 26.9 7.7 26.7L8.6 26.1C8.7 26 8.9 26 9 26C9.2 26 9.3 26.1 9.3 26.2C9.3 26.6 9.3 26.8 9 27L8.1 27.5L7.9 27.6C7.7 27.6 7.6 27.5 7.5 27.4ZM4.6 30.8L4.1 31.6C4 31.8 3.8 31.9 3.6 31.9L3.5 31.8C3.2 31.6 3.1 31.4 3.3 31.1L3.8 30.2C4 29.9 4.2 29.9 4.5 30C4.8 30.2 4.8 30.5 4.6 30.8ZM19.3 23.8C19 23.8 18.8 23.6 18.7 23.3C18.7 23 18.9 22.8 19.2 22.8L20.3 22.7C20.6 22.7 20.8 22.9 20.8 23.2C20.8 23.6 20.6 23.8 20.3 23.8ZM22.3 23.7C22 23.7 21.8 23.5 21.8 23.2S22 22.7 22.3 22.7H23.4C23.7 22.7 23.9 22.9 23.9 23.2S23.7 23.7 23.4 23.7ZM15.7 23.6C15.7 23.5 15.7 23.3 15.8 23.2S16 23 16.2 23L17.2 22.8C17.6 22.8 17.8 23 17.8 23.3C17.9 23.6 17.7 23.8 17.3 23.9L16.3 24H16.2C15.9 24 15.8 23.9 15.7 23.6ZM13.5 46.5C13.9 46.5 14.1 46.7 14.1 47C14.1 47.4 13.9 47.6 13.6 47.6L12.6 47.7C12.3 47.7 12.1 47.5 12 47.2C12 46.9 12.2 46.7 12.5 46.7ZM10.5 46.7C10.8 46.7 11 46.9 11 47.2S10.8 47.7 10.5 47.7L10.1 47.8L9.5 47.7C9.2 47.7 9 47.5 9 47.2S9.2 46.7 9.5 46.7ZM6.7 46.3L7.6 46.5C8 46.6 8.1 46.8 8.1 47.1C7.9 47.4 7.8 47.5 7.5 47.5H7.4L6.3 47.2C6 47.1 5.9 46.9 6 46.6S6.3 46.2 6.7 46.3ZM4.4 46.2L3.6 45.4C3.4 45.2 3.4 44.9 3.7 44.6C3.9 44.4 4.2 44.4 4.4 44.7C4.7 45 4.9 45.2 5.1 45.3C5.3 45.5 5.4 45.8 5.2 46.1C5.1 46.2 5 46.3 4.8 46.3ZM22.6 45.9C23 45.9 23.2 46.1 23.2 46.4S23 46.9 22.7 46.9C22.5 46.9 22.1 47 21.7 47H21.6C21.3 47 21.1 46.8 21.1 46.5S21.3 46 21.6 46C21.8 45.9 22.2 45.9 22.6 45.9ZM20.1 46.5C20.1 46.6 20.1 46.8 20 46.9S19.8 47 19.6 47L18.6 47.1C18.3 47.1 18.1 46.9 18.1 46.6C18 46.3 18.2 46.1 18.6 46L19.6 45.9C19.9 46 20.1 46.2 20.1 46.5ZM17.1 46.8C17.1 47.2 16.9 47.4 16.6 47.4L15.6 47.5H15.5C15.2 47.5 15.1 47.3 15 47C15 46.6 15.2 46.4 15.5 46.4L16.6 46.3C16.9 46.2 17 46.4 17.1 46.8ZM3.5 33.4L3.3 34.4C3.2 34.7 3.1 34.8 2.8 34.8H2.7C2.4 34.7 2.2 34.5 2.3 34.2L2.5 33.2C2.6 32.9 2.8 32.7 3.1 32.8C3.4 32.8 3.6 33 3.5 33.4ZM2.9 37.4C2.9 37.7 2.7 37.9 2.4 37.9H2.3C1.9 37.9 1.8 37.7 1.8 37.3L2 36.2C2 35.9 2.2 35.7 2.6 35.7C3 35.8 3.1 36 3.1 36.3ZM2.8 39.4V40.4C2.8 40.7 2.6 40.9 2.3 41C2 41 1.8 40.8 1.8 40.5L1.7 39.4C1.7 39 1.9 38.8 2.3 38.9C2.6 38.9 2.8 39 2.8 39.4ZM3.4 43.2C3.5 43.5 3.4 43.8 3.1 43.9H2.9C2.7 43.9 2.6 43.8 2.4 43.5C2.3 43.3 2.2 43 2.1 42.5C2 42.2 2.2 42 2.5 41.9S3 41.9 3.2 42.3C3.1 42.6 3.2 42.9 3.4 43.2ZM45 33.9C45.3 33.9 45.5 34.1 45.5 34.5L45.4 35.5C45.4 35.8 45.2 36 44.9 36H44.8C44.7 36 44.5 35.9 44.4 35.8S44.3 35.6 44.3 35.4V34.4C44.4 34.1 44.6 33.9 45 33.9ZM44.8 37C45.1 37 45.2 37.2 45.2 37.6L45.1 38.6C45.1 38.9 44.9 39.1 44.6 39.1H44.5C44.1 39 44 38.8 44 38.5L44.1 37.5C44.3 37.1 44.4 36.9 44.8 37ZM44.5 41.7C44.4 41.9 44.3 42.1 44 42.1L43.8 42C43.5 41.9 43.4 41.6 43.5 41.3L43.8 40.4C43.8 40.3 43.9 40.2 44.1 40.1C44.2 40 44.3 40 44.5 40C44.8 40.1 45 40.3 44.9 40.6ZM43.5 43.7L42.7 44.5C42.6 44.6 42.5 44.6 42.4 44.6C42.2 44.6 42.1 44.5 42 44.5C41.8 44.2 41.8 44 42.1 43.7L42.8 43C43 42.7 43.2 42.7 43.5 42.9C43.6 43.1 43.6 43.4 43.5 43.7ZM32.2 46.5C32.2 46.8 32 47 31.7 47H30.6C30.3 47 30.1 46.8 30.1 46.4C30.1 46.3 30.2 46.1 30.2 46C30.3 45.9 30.5 45.8 30.6 45.9H31.6C32 45.9 32.2 46.1 32.2 46.5ZM33.7 45.9L34.7 45.8C35 45.8 35.2 46 35.3 46.3C35.3 46.6 35.1 46.8 34.8 46.9H33.7C33.4 46.9 33.2 46.7 33.2 46.4S33.3 45.9 33.7 45.9ZM27.6 45.9H28.6C28.9 46 29.1 46.2 29.1 46.5S28.9 47 28.6 47H27.6C27.2 47 27 46.8 27.1 46.4C27.1 46 27.3 45.9 27.6 45.9ZM26.1 46.4C26.1 46.7 25.9 46.9 25.6 46.9H24.6C24.3 46.9 24.1 46.7 24.1 46.4C24.1 46 24.3 45.8 24.6 45.8H25.6C25.9 45.9 26.1 46.1 26.1 46.4ZM39.6 45.9C39.4 45.9 39.2 45.8 39.1 45.5C39 45.1 39.1 44.9 39.4 44.9L40.4 44.5C40.7 44.4 40.9 44.5 41.1 44.8C41.2 45.1 41.1 45.4 40.8 45.5ZM36.8 46.7C36.4 46.7 36.2 46.5 36.2 46.2C36.1 45.9 36.3 45.7 36.6 45.6L37.6 45.4C37.7 45.3 37.9 45.3 38 45.5C38.1 45.6 38.2 45.7 38.2 45.8C38.3 46.1 38.2 46.3 37.8 46.5Z " data-color-original="#3d5d54" fill="#3d5d54" class="grays"></path><path id="gli_cactus-head-creature-1~2497_l_38" d="M30.8 22.5C31.2 22.5 31.6 22.5 31.8 22.6C32.1 22.6 32.3 22.8 32.3 23.1C32.2 23.4 32.1 23.6 31.8 23.6H31.7C31.5 23.6 31.2 23.5 30.7 23.5C30.4 23.5 30.2 23.3 30.2 23C30.3 22.7 30.4 22.5 30.8 22.5ZM29.3 23.1C29.3 23.4 29.1 23.6 28.8 23.6C28.4 23.6 28.1 23.6 27.9 23.7H27.8C27.5 23.7 27.3 23.5 27.3 23.2C27.2 22.8 27.4 22.6 27.7 22.6L28.8 22.5C28.9 22.5 29.1 22.5 29.2 22.6C29.2 22.8 29.3 22.9 29.3 23.1ZM33.8 22.6L34.8 22.7C35.1 22.8 35.3 23 35.3 23.3C35.2 23.6 35.1 23.8 34.8 23.8H34.7L33.7 23.6C33.4 23.6 33.2 23.4 33.2 23.1C33.3 22.8 33.5 22.6 33.8 22.6ZM24.8 23.7C24.5 23.7 24.4 23.5 24.3 23.2C24.3 22.9 24.5 22.7 24.8 22.7H25.8C26.1 22.7 26.3 22.9 26.3 23.2S26.1 23.7 25.8 23.7ZM40.5 25.1L40.3 25L39.4 24.6C39.1 24.5 39 24.2 39.1 23.9S39.4 23.5 39.7 23.6L40.7 24C41 24.1 41.1 24.4 41 24.7S40.7 25.1 40.5 25.1ZM36.4 23.1C36.5 23 36.6 23 36.8 23L37.8 23.2C38.1 23.3 38.3 23.5 38.2 23.8S38 24.2 37.7 24.2H37.6L36.6 24C36.3 23.9 36.1 23.7 36.2 23.4C36.2 23.2 36.3 23.1 36.4 23.1ZM43.2 26.2C43.4 26.5 43.3 26.7 43 26.9L42.7 27C42.5 27 42.3 26.9 42.3 26.8S42.1 26.5 41.8 26.1C41.6 25.9 41.5 25.6 41.7 25.4S42.2 25.2 42.4 25.4C42.7 25.5 43 25.8 43.2 26.2ZM44 28.1L44.2 29.1C44.3 29.4 44.2 29.6 43.8 29.7C43.5 29.7 43.4 29.6 43.3 29.3L43 28.4C42.9 28.1 43.1 27.8 43.4 27.7C43.7 27.7 43.9 27.8 44 28.1ZM44 30.6C44.4 30.5 44.6 30.7 44.6 31.1L44.7 32.1C44.7 32.4 44.5 32.6 44.2 32.6S43.7 32.5 43.7 32.1L43.6 31.1C43.5 30.8 43.7 30.6 44 30.6ZM11.7 24.9C11.9 25.2 11.8 25.4 11.4 25.6L10.5 26L10.2 26.1C10 26.1 9.8 26 9.7 25.8C9.6 25.5 9.6 25.3 10 25.1L10.9 24.7C11.4 24.5 11.6 24.6 11.7 24.9ZM13.1 24.8C12.9 24.8 12.7 24.7 12.6 24.5C12.5 24.2 12.6 24 12.9 23.8L13.2 23.6L13.9 23.3C14.2 23.2 14.4 23.3 14.6 23.6C14.7 23.9 14.5 24.2 14.2 24.3L13.6 24.5L13.3 24.7ZM7.8 27.4C7.6 27.4 7.5 27.3 7.4 27.2C7.2 26.9 7.3 26.7 7.6 26.5L8.5 25.9C8.8 25.8 9 25.8 9.2 26.1S9.3 26.6 9 26.8L8.2 27.3ZM5.5 29.3C5.3 29.3 5.2 29.2 5.1 29.1C4.9 28.9 4.9 28.6 5.1 28.4L5.9 27.7C6.1 27.5 6.4 27.5 6.6 27.8S6.8 28.4 6.5 28.6L5.8 29.2C5.7 29.2 5.6 29.3 5.5 29.3ZM4.5 29.8C4.8 30 4.9 30.2 4.7 30.5L4.1 31.3C4 31.5 3.9 31.6 3.6 31.6L3.5 31.5C3.2 31.3 3.1 31.1 3.2 30.8L3.8 29.9C4 29.6 4.2 29.6 4.5 29.8ZM18.9 23.8C18.6 23.8 18.4 23.6 18.4 23.3S18.6 22.8 18.9 22.8C19.1 22.8 19.4 22.7 19.9 22.7C20.2 22.7 20.4 22.9 20.4 23.2S20.2 23.7 19.9 23.7C19.5 23.7 19.1 23.7 18.9 23.8ZM21.9 23.7C21.6 23.7 21.4 23.5 21.4 23.2C21.4 22.8 21.6 22.6 21.9 22.6H22.9C23.2 22.6 23.4 22.8 23.4 23.1S23.2 23.6 22.9 23.6ZM15.9 23L16.9 22.9C17.2 22.8 17.4 23 17.5 23.4C17.5 23.7 17.3 23.9 17 24L16 24.1H15.9C15.6 24.1 15.5 24 15.4 23.7C15.4 23.2 15.5 23 15.9 23ZM11.9 46.4C11.9 46.1 12.1 45.9 12.4 45.8L13.4 45.7C13.7 45.7 13.9 45.9 14 46.2C14 46.5 13.8 46.7 13.5 46.7C13.3 46.7 13 46.8 12.5 46.8S11.9 46.7 11.9 46.4ZM10.4 45.9C10.7 45.9 10.9 46 10.9 46.3S10.7 46.8 10.4 46.9L9.4 46.8C9.1 46.8 8.9 46.6 8.9 46.3S9.1 45.8 9.5 45.8ZM7.4 46.7L6.2 46.4C5.9 46.3 5.8 46 5.9 45.7S6.3 45.4 6.6 45.5L6.7 45.6L7.6 45.8C7.7 45.8 7.9 45.9 8 46S8.1 46.2 8.1 46.4C7.8 46.6 7.7 46.7 7.4 46.7ZM4.4 45.5L3.6 44.7C3.4 44.5 3.4 44.2 3.6 44C3.9 43.8 4.1 43.8 4.4 44.1L5.1 44.7C5.4 44.9 5.4 45.1 5.2 45.4C5.1 45.5 5 45.6 4.8 45.6ZM22.8 45.6C22.8 45.9 22.6 46.1 22.3 46.1C21.9 46.1 21.5 46.1 21.3 46.2H21.2C20.9 46.2 20.7 46 20.7 45.7S20.9 45.2 21.2 45.2C21.4 45.2 21.7 45.1 22.2 45.1C22.6 45.2 22.8 45.3 22.8 45.6ZM19.3 46.3L18.3 46.4C18 46.4 17.8 46.3 17.8 46C17.7 45.7 17.9 45.5 18.3 45.4L19.3 45.3C19.6 45.2 19.8 45.4 19.8 45.8C19.8 46.1 19.7 46.2 19.3 46.3ZM15.3 46.6C15 46.6 14.9 46.5 14.8 46.2C14.8 45.9 15 45.7 15.3 45.6L16.3 45.5C16.7 45.4 16.9 45.6 16.9 46C17 46.3 16.8 46.5 16.4 46.6ZM3.1 32.4C3.4 32.5 3.6 32.7 3.5 33L3.4 33.4L3.3 34C3.2 34.3 3.1 34.5 2.8 34.5H2.7C2.4 34.4 2.2 34.2 2.3 33.9L2.5 32.9C2.6 32.5 2.8 32.3 3.1 32.4ZM2.4 37.4C2 37.3 1.9 37.1 1.9 36.8L2 35.8C2.1 35.5 2.3 35.4 2.6 35.4S3 35.6 3 35.9L2.8 36.9C2.9 37.2 2.7 37.4 2.4 37.4ZM2.3 38.3C2.6 38.3 2.8 38.5 2.8 38.8V39.8C2.8 40.1 2.6 40.3 2.3 40.3S1.8 40.2 1.8 39.8V38.8C1.8 38.5 1.9 38.3 2.3 38.3ZM2.9 43.2C2.7 43.2 2.5 43.1 2.4 42.9L2 41.9C2 41.6 2.1 41.4 2.4 41.3S3 41.3 3.1 41.7L3.3 42.5C3.5 42.8 3.4 43 2.9 43.2ZM44.1 35.6C43.9 35.6 43.7 35.5 43.6 35.5C43.5 35.4 43.5 35.2 43.5 35.1V34.1C43.5 33.8 43.7 33.6 44.1 33.6C44.4 33.6 44.6 33.8 44.6 34.1V35.1C44.5 35.4 44.4 35.6 44.1 35.6ZM44.3 38.1C44.3 38.4 44.1 38.5 43.8 38.5C43.5 38.4 43.4 38.2 43.4 37.9L43.5 36.9C43.5 36.6 43.7 36.4 44.1 36.5C44.4 36.5 44.6 36.7 44.6 37.1ZM44 40.1L43.7 41.1C43.7 41.3 43.5 41.4 43.2 41.4H43.1C42.8 41.3 42.7 41.1 42.7 40.7L43 39.8C43.1 39.5 43.3 39.4 43.6 39.5S44 39.8 44 40.1ZM41.3 43L41.9 42.4C42.1 42.1 42.3 42.1 42.6 42.3S42.9 42.7 42.7 43C42.4 43.4 42.1 43.6 41.9 43.8L41.6 44C41.5 44 41.3 43.9 41.2 43.8S41.1 43.6 41.1 43.4S41.2 43.1 41.3 43ZM32.6 45.7C32.6 45.4 32.8 45.2 33.1 45.2C33.5 45.2 33.9 45.2 34.1 45.1C34.4 45.1 34.6 45.3 34.6 45.6C34.6 45.7 34.6 45.9 34.5 46S34.3 46.1 34.1 46.1S33.5 46.2 33.1 46.2H33C32.8 46.2 32.6 46 32.6 45.7ZM30.1 46.2C29.8 46.2 29.6 46 29.6 45.7C29.6 45.3 29.8 45.1 30.1 45.2H31.1C31.4 45.2 31.6 45.4 31.6 45.7S31.4 46.2 31.1 46.2ZM27.1 46.1C26.8 46.1 26.6 45.9 26.6 45.6S26.8 45.1 27.1 45.1L28.1 45.2C28.4 45.2 28.6 45.4 28.6 45.7S28.4 46.2 28.1 46.2ZM24.2 46.1C23.9 46.1 23.7 45.9 23.7 45.6S23.9 45.1 24.2 45.1H25.2C25.5 45.1 25.7 45.3 25.7 45.6C25.6 45.9 25.5 46.1 25.2 46.1ZM40.3 44.2C40.4 44.5 40.4 44.8 40 44.8L39 45.2H38.9C38.7 45.2 38.5 45.1 38.4 44.8S38.4 44.3 38.7 44.2C39 44.2 39.4 44.1 39.7 43.9C40 43.8 40.2 43.9 40.3 44.2ZM36.9 44.7C37.2 44.6 37.5 44.8 37.5 45.1C37.6 45.4 37.4 45.6 37.1 45.7L36.1 45.9H36C35.7 45.9 35.6 45.8 35.5 45.5S35.6 45 35.9 44.9L36.7 44.7Z " data-color-original="#f3eec2" fill="#f3eec2" class="oranges"></path><path id="gli_cactus-head-creature-1~2497_l_39" d="M27.6 33.7C29.4 33.6 32.1 33.2 35.7 32.7C36.2 33.6 36.5 34.4 36.5 35.2C36.5 36.2 36.4 37 36.1 37.6C35.7 38.5 34.9 39.2 33.8 39.9C32.5 40.7 31.2 40.8 29.9 40.2C28.5 39.6 27.6 38.6 27.3 37.1C27.1 35.9 27.2 34.8 27.6 33.7ZM13.8 35.5L14.2 37.1C14.4 38.3 14.3 39.1 14 39.7C13.7 40.2 13.4 40.7 13 41.3C12.5 41.7 11.3 41.8 9.3 41.8C7.4 41.7 6.4 40.7 6.1 38.7L6.3 35.8L7.1 35.5Z " data-color-original="#413f2e" fill="#413f2e" class="grays"></path><path id="gli_cactus-head-creature-1~2497_l_40" d="M35.7 32.7C36.2 33.6 36.5 34.4 36.5 35.2C36.5 36.2 36.4 37 36.1 37.6C35.7 38.5 34.9 39.2 33.8 39.9C32.9 40.5 31.9 40.7 30.8 40.5S28.9 39.8 28.2 38.9C28.8 39.2 29.4 39.3 30 39.3C31 39.3 32 39 32.8 38.3C33.6 37.7 34.1 36.8 34.4 35.8C34.8 34.9 34.8 33.9 34.5 33ZM14.2 37.1C14.4 38.3 14.3 39.1 14 39.7C13.7 40.2 13.4 40.7 13 41.3C12.5 41.7 11.3 41.8 9.3 41.8C8.1 41.8 7.2 41.3 6.6 40.3C7.1 40.4 7.6 40.5 8.1 40.5H8.4C9.6 40.5 10.7 40 11.6 39.1S12.9 37.2 12.9 35.9V35.5H13.8Z " data-color-original="#2a291e" fill="#2a291e" class="grays"></path><path id="gli_cactus-head-creature-1~2497_l_41" d="M32 34.3L32.1 35C32 35.5 31.8 35.9 31.3 36.1C30.6 36.4 30 36.6 29.3 36.6L28.8 34.7C29.8 34.4 30.9 34.3 32 34.3ZM9.8 36.7L9.9 37.5L7.6 38.2C7.4 37.5 7.3 37 7.4 36.7C7.5 36.5 7.9 36.4 8.7 36.5ZM8.1 39H8.6C8.6 39.2 8.6 39.4 8.5 39.7C7.9 39.8 7.6 39.7 7.5 39.5C7.5 39.2 7.7 39 8.1 39ZM29.7 37.2L30.5 37.3C30.6 38 30.3 38.3 29.6 38.2C29 38 29 37.6 29.7 37.2Z " data-color-original="#a5a176" fill="#a5a176" class="grays"></path></svg></svg>