<?xml version="1.0" encoding="utf-8"?>
<!-- Generator: Adobe Illustrator 17.1.0, SVG Export Plug-In . SVG Version: 6.00 Build 0)  -->
<!DOCTYPE svg PUBLIC "-//W3C//DTD SVG 1.1//EN" "http://www.w3.org/Graphics/SVG/1.1/DTD/svg11.dtd">
<svg version="1.1" id="colorp" xmlns="http://www.w3.org/2000/svg" xmlns:xlink="http://www.w3.org/1999/xlink" x="0px" y="0px"
	 width="75px" height="68.7px" viewBox="319.2 324.3 75 68.7" enable-background="new 319.2 324.3 75 68.7" xml:space="preserve">
<g id="Layer_2">
	<g id="Layer_8">
		<path fill="#7EBDDC" d="M384.8,341.5c0,6.6-10.9,4.4-10.9,9.4c0,3.7,6.2,6.2,9.4,6.2c6.8,0,10.9,4.7,10.9,9.4
			c0,9.7-18.1,26.6-40.6,26.6c-20.8,0-34.4-13.8-34.4-31.2c0-19.9,16.1-32.8,40.6-32.8C378.6,329,384.8,337.4,384.8,341.5
			 M375.4,361.8c-4.2,0-7.8,4.3-7.8,6.2c0,3,1.6,4.7,4.7,4.7c4.7,0,7.8-4.4,7.8-6.2C380.1,364.7,379.5,361.8,375.4,361.8"/>
		<path fill="#FFFFFF" d="M352,345.4c0,3.9-3.1,7-7,7s-7-3.1-7-7c0-3.9,3.1-7,7-7C348.9,338.4,352,341.5,352,345.4"/>
		<path fill="#00B086" d="M370.8,342.3c0,3.9-3.1,7-7,7s-7-3.1-7-7c0-3.9,3.1-7,7-7C367.6,335.2,370.8,338.4,370.8,342.3"/>
		<path fill="#FFCA65" d="M339.5,359.5c0,3.9-3.1,7-7,7c-3.9,0-7-3.1-7-7s3.1-7,7-7C336.4,352.4,339.5,355.6,339.5,359.5"/>
		<path fill="#F1593A" d="M345.8,376.6c0,3.9-3.1,7-7,7c-3.9,0-7-3.1-7-7c0-3.9,3.1-7,7-7C342.6,369.6,345.8,372.8,345.8,376.6"/>
		<path fill="#AB55A0" d="M364.5,381.3c0,3.9-3.1,7-7,7s-7-3.1-7-7s3.1-7,7-7C361.4,374.3,364.5,377.4,364.5,381.3"/>
	</g>
	<path fill="#ACACAC" d="M373.9,375.9l-3.2,3.1c0,0-6.6-0.3-18.8-12.5v-1.6l7.9-7.8h1.6C373.6,369.3,373.9,375.9,373.9,375.9"/>
	<path id="brush" d="M361.4,357.1c5.5,0,8.5,6.9,11.5,14.7c5,12.5,10.1,12.5,10.1,12.5v2.6c0,0-3.9,3.1-10.1,3.1
		c-8,0-18.1-7.3-18.1-18.9l-2.8-4.5L361.4,357.1z"/>
	<path fill="#0776B7" d="M320.8,324.3c2.4,0,22.7,14.9,40.6,32.8l-9.4,9.4c-17.8-17.8-32.8-38.2-32.8-40.6
		C319.2,325.8,320.7,324.3,320.8,324.3"/>
</g>
</svg>
