<?xml version="1.0" encoding="utf-8"?>
<!-- Generator: Adobe Illustrator 22.1.0, SVG Export Plug-In . SVG Version: 6.00 Build 0)  -->
<svg version="1.1" id="lib_trash" xmlns="http://www.w3.org/2000/svg" xmlns:xlink="http://www.w3.org/1999/xlink" x="0px" y="0px"
	 viewBox="0 0 403 439" style="enable-background:new 0 0 403 439;" xml:space="preserve">
<style type="text/css">
	.st0{stroke:#000000;}
</style>
<path class="st0" d="M146.5,173.5v165c0,3-1,5-2,6c-2,2-4,3-7,3h-18c-3,0-5-1-7-3c-2-1-2-3-2-6v-165c0-2,0-5,2-6c2-2,4-3,7-3h18
	c3,0,5,1,7,3C145.5,168.5,146.5,171.5,146.5,173.5z M219.5,173.5v165c0,3-1,5-2,6c-2,2-4,3-7,3h-18c-3,0-5-1-7-3c-1-1-2-3-2-6v-165
	c0-2,1-5,2-6c2-2,4-3,7-3h18c3,0,5,1,7,3C218.5,168.5,219.5,171.5,219.5,173.5z M292.5,173.5v165c0,3,0,5-2,6c-2,2-4,3-7,3h-18
	c-3,0-5-1-7-3c-1-1-2-3-2-6v-165c0-2,1-5,2-6c2-2,4-3,7-3h18c3,0,5,1,7,3C292.5,168.5,292.5,171.5,292.5,173.5z M329.5,380.5v-271
	h-256v271c0,4,1,8,2,12c1,3,3,6,4,7c2,2,3,3,3,3h238c0,0,1-1,3-3c1-1,3-4,4-7C328.5,388.5,329.5,384.5,329.5,380.5z M137.5,73.5h128
	l-14-34c-1-1-3-2-5-3h-90c-2,1-4,2-5,3L137.5,73.5z M402.5,82.5v18c0,3-1,5-2,7c-2,1-4,2-7,2h-27v271c0,16-5,30-14,41
	c-9,12-20,17-32,17h-238c-12,0-23-5-32-16s-14-25-14-41v-272h-27c-3,0-5-1-7-2c-1-2-2-4-2-7v-18c0-3,1-5,2-7c2-1,4-2,7-2h88l20-48
	c3-7,8-13,16-18c7-5,15-7,22-7h92c7,0,15,2,22,7c8,5,13,11,16,18l20,48h88c3,0,5,1,7,2C401.5,77.5,402.5,79.5,402.5,82.5z"/>
</svg>
