<?xml version="1.0" encoding="utf-8"?>
<!-- Generator: Adobe Illustrator 22.1.0, SVG Export Plug-In . SVG Version: 6.00 Build 0)  -->
<svg version="1.1" id="ico_edit" xmlns:svgjs="http://svgjs.com/svgjs"
	 xmlns="http://www.w3.org/2000/svg" xmlns:xlink="http://www.w3.org/1999/xlink" x="0px" y="0px" viewBox="0 0 512 512"
	 style="enable-background:new 0 0 512 512;" xml:space="preserve">
<style type="text/css">
	.st0{fill:#808080;}
</style>
<path class="st0" d="M322,56l-31,30l135,135l32-29L322,56z M271,107L58,318c-4,3-8,7-9,12L3,485c-1,2-1,4-1,6c0,10,9,19,19,19
	c2,0,4,0,6-1l155-46c7-1,13-6,15-12l210-209l-29-28L162,430l-86,25l-19-19l27-90l213-213L271,107z M318,154L102,371l32,7l4,29
	l216-216L318,154z"/>
<path d="M396,5c-12,0-23,4-32,13l-42,38l134.8,136l40.8-40.9C515,133.8,511,102,494,84l-66-66C419,9,407,5,396,5z"/>
</svg>
