<?xml version="1.0" encoding="utf-8"?>
<!-- Generator: Adobe Illustrator 22.1.0, SVG Export Plug-In . SVG Version: 6.00 Build 0)  -->
<svg version="1.1" id="designer_design" xmlns:svgjs="http://svgjs.com/svgjs"
	 xmlns="http://www.w3.org/2000/svg" xmlns:xlink="http://www.w3.org/1999/xlink" x="0px" y="0px" viewBox="0 0 416.7 257.2"
	 style="enable-background:new 0 0 416.7 257.2;" xml:space="preserve">
<style type="text/css">
	.st0{fill:none;}
</style>
<rect id="rect_design" x="60.7" y="-193.4" class="st0" width="500" height="500"/>
<path id="compound_designer_design" d="M148.9,253.1v-12.2c22.8-3.3,26-7.3,20.3-23.6c-4.9-13-11.4-30.9-17.9-48.8H75.7
	c-4.9,13.8-10.6,28.5-14.6,43.9c-6.5,20.3-4.9,25.2,22.8,28.5v12.2H0v-12.2c24.4-3.3,29.3-7.3,42.3-39.9L121.3,4.1L137.5,0
	c24.4,65.9,48,134.3,73.2,200.2c12.2,33.4,17.1,37.4,41.5,40.7v12.2H148.9z M114.7,61.8h-0.8c-11.4,29.3-21.2,59.4-31.7,87.9h63.5
	L114.7,61.8z M378.4,257.2c-9,0-16.3-3.3-21.2-7.3c-4.9-4.9-8.1-9.8-9.8-15.5c-14.6,9.8-32.6,22.8-41.5,22.8
	c-30.1,0-49.6-24.4-49.6-48c0-18.7,9.8-29.3,30.1-36.6c22-8.1,51.3-17.1,60.2-24.4v-9.8c0-25.2-10.6-39.9-26.9-39.9
	c-5.7,0-10.6,2.4-14.6,7.3c-4.1,4.9-7.3,13.8-10.6,26c-2.4,8.1-7.3,11.4-13.8,11.4c-9,0-21.2-9-21.2-17.9c0-6.5,4.9-11.4,12.2-17.1
	c13.8-9.8,39.9-22.8,61-27.7c13.8,0,25.2,4.1,35,11.4c15.5,11.4,19.5,27.7,19.5,48.8v65.1c0,17.9,5.7,22.8,12.2,22.8
	c4.9,0,9.8-1.6,13-3.3l4.1,11.4L378.4,257.2z M346.7,161.9c-7.3,4.1-17.9,9-26,13c-13,6.5-20.3,13.8-20.3,26.9
	c0,20.3,14.6,29.3,24.4,29.3c7.3,0,15.5-4.1,22-9V161.9z"/>
</svg>
