<?xml version="1.0" encoding="UTF-8" standalone="no"?>
<svg
   xmlns:dc="http://purl.org/dc/elements/1.1/"
   xmlns:cc="http://creativecommons.org/ns#"
   xmlns:rdf="http://www.w3.org/1999/02/22-rdf-syntax-ns#"
   xmlns:svg="http://www.w3.org/2000/svg"
   xmlns="http://www.w3.org/2000/svg"
   xmlns:sodipodi="http://sodipodi.sourceforge.net/DTD/sodipodi-0.dtd"
   xmlns:inkscape="http://www.inkscape.org/namespaces/inkscape"
   inkscape:version="1.0 (4035a4fb49, 2020-05-01)"
   height="100%"
   width="100%"
   sodipodi:docname="gradient.svg"
   id="svg42"
   xml:space="preserve"
   enable-background="new 0 0 100 100"
   viewBox="0 0 69.960999 50.452"
   y="0px"
   x="0px"
   version="1.1"><metadata
     id="metadata48"><rdf:RDF><cc:Work
         rdf:about=""><dc:format>image/svg+xml</dc:format><dc:type
           rdf:resource="http://purl.org/dc/dcmitype/StillImage" /><dc:title></dc:title></cc:Work></rdf:RDF></metadata><defs
     id="defs46" /><sodipodi:namedview
     inkscape:current-layer="svg42"
     inkscape:window-maximized="1"
     inkscape:window-y="31"
     inkscape:window-x="0"
     inkscape:cy="37.727"
     inkscape:cx="34.981"
     inkscape:zoom="6.616"
     showgrid="false"
     id="namedview44"
     inkscape:window-height="1021"
     inkscape:window-width="1920"
     inkscape:pageshadow="2"
     inkscape:pageopacity="0"
     guidetolerance="10"
     gridtolerance="10"
     objecttolerance="10"
     borderopacity="1"
     bordercolor="#666666"
     pagecolor="#ffffff" /><g
     transform="translate(-15.019,-24.773)"
     style="display:inline"
     inkscape:groupmode="layer"
     id="g36"><circle
       id="circle2"
       r="1.148"
       cy="37.008999"
       cx="77.061996" /><circle
       id="circle4"
       r="1.148"
       cy="46.405998"
       cx="77.061996" /><circle
       id="circle6"
       r="1.148"
       cy="55.803001"
       cx="77.061996" /><circle
       id="circle8"
       r="1.148"
       cy="65.199997"
       cx="77.061996" /><circle
       id="circle10"
       r="1.8660001"
       cy="37.008999"
       cx="67.665001" /><circle
       id="circle12"
       r="1.8660001"
       cy="46.405998"
       cx="67.665001" /><circle
       id="circle14"
       r="1.867"
       cy="55.803001"
       cx="67.665001" /><circle
       id="circle16"
       r="1.8660001"
       cy="65.199997"
       cx="67.665001" /><circle
       id="circle18"
       r="2.7019999"
       cy="37.008999"
       cx="58.268002" /><circle
       id="circle20"
       r="2.7019999"
       cy="46.405998"
       cx="58.268002" /><circle
       id="circle22"
       r="2.7019999"
       cy="55.803001"
       cx="58.268002" /><circle
       id="circle24"
       r="2.7019999"
       cy="65.199997"
       cx="58.268002" /><circle
       id="circle26"
       r="3.7460001"
       cy="37.008999"
       cx="48.870998" /><circle
       id="circle28"
       r="3.7460001"
       cy="46.405998"
       cx="48.870998" /><circle
       id="circle30"
       r="3.7460001"
       cy="55.803001"
       cx="48.870998" /><circle
       id="circle32"
       r="3.7460001"
       cy="65.199997"
       cx="48.870998" /><path
       id="path34"
       d="M 82.962,24.773 H 51.289 46.452 43.312 35.625 34.92 17.038 c -1.116,0 -2.019,0.903 -2.019,2.018 v 4.335 2.368 7.029 2.368 7.028 2.369 7.028 2.368 7.029 2.368 2.126 c 0,1.114 0.902,2.018 2.019,2.018 h 27.169 0.98 7.365 3.093 5.241 5.027 3.501 6.71 1.873 4.964 c 1.116,0 2.019,-0.903 2.019,-2.018 V 26.791 c 0,-1.114 -0.902,-2.018 -2.018,-2.018 z M 26.059,70.665 c -0.2,-0.271 -0.412,-0.529 -0.647,-0.767 0.235,-0.237 0.447,-0.496 0.647,-0.766 0.279,0.287 0.591,0.544 0.928,0.766 -0.338,0.223 -0.649,0.48 -0.928,0.767 z m 0,-9.397 c -0.2,-0.27 -0.412,-0.528 -0.647,-0.766 0.235,-0.237 0.447,-0.496 0.647,-0.767 0.279,0.287 0.591,0.545 0.928,0.767 -0.338,0.222 -0.649,0.478 -0.928,0.766 z m 0,-9.397 c -0.2,-0.271 -0.412,-0.529 -0.647,-0.767 0.235,-0.237 0.447,-0.496 0.647,-0.767 0.279,0.287 0.591,0.545 0.928,0.767 -0.338,0.223 -0.649,0.479 -0.928,0.767 z m 0,-9.397 c -0.2,-0.271 -0.412,-0.529 -0.647,-0.766 0.235,-0.237 0.447,-0.497 0.647,-0.767 0.279,0.286 0.591,0.544 0.928,0.767 -0.338,0.222 -0.649,0.479 -0.928,0.766 z m 0,-9.397 c -0.2,-0.271 -0.412,-0.529 -0.647,-0.767 0.235,-0.237 0.447,-0.496 0.647,-0.767 0.279,0.287 0.591,0.545 0.928,0.767 -0.338,0.222 -0.649,0.479 -0.928,0.767 z M 36.114,71.19 h -1.581 c -0.383,-0.501 -0.84,-0.943 -1.368,-1.292 0.91,-0.599 1.636,-1.455 2.073,-2.464 0.664,1.257 1.87,2.182 3.31,2.464 -0.941,0.185 -1.777,0.647 -2.434,1.292 z m -0.876,-8.224 c -0.438,-1.01 -1.163,-1.864 -2.073,-2.464 0.91,-0.6 1.636,-1.455 2.073,-2.465 0.664,1.258 1.87,2.183 3.31,2.465 -1.44,0.282 -2.646,1.207 -3.31,2.464 z m 0,-9.397 c -0.438,-1.01 -1.163,-1.865 -2.073,-2.465 0.91,-0.6 1.636,-1.454 2.073,-2.464 0.664,1.257 1.87,2.182 3.31,2.464 -1.44,0.283 -2.646,1.208 -3.31,2.465 z m 0,-9.397 c -0.438,-1.01 -1.163,-1.865 -2.073,-2.464 0.91,-0.6 1.636,-1.455 2.073,-2.465 0.664,1.257 1.87,2.182 3.31,2.465 -1.44,0.281 -2.646,1.207 -3.31,2.464 z m 0,-9.397 C 34.8,33.765 34.075,32.91 33.165,32.31 c 0.91,-0.6 1.636,-1.455 2.073,-2.465 0.664,1.258 1.87,2.183 3.31,2.465 -1.44,0.283 -2.646,1.208 -3.31,2.465 z M 80.944,71.19 H 50.409 c -0.471,-0.213 -0.989,-0.339 -1.538,-0.339 -0.553,0 -1.07,0.126 -1.542,0.339 h -4.513 c -0.655,-0.642 -1.48,-1.108 -2.416,-1.292 2.2,-0.432 3.862,-2.37 3.862,-4.698 0,-2.328 -1.662,-4.267 -3.862,-4.698 2.2,-0.432 3.862,-2.37 3.862,-4.699 0,-2.328 -1.662,-4.266 -3.862,-4.698 2.2,-0.432 3.862,-2.37 3.862,-4.698 0,-2.329 -1.662,-4.267 -3.862,-4.698 2.2,-0.433 3.862,-2.371 3.862,-4.699 0,-2.328 -1.662,-4.267 -3.862,-4.698 1.809,-0.354 3.235,-1.732 3.692,-3.501 h 1.246 c 0.5,1.478 1.885,2.548 3.532,2.548 1.647,0 3.028,-1.07 3.531,-2.548 h 3.455 c 0.441,0.888 1.35,1.504 2.41,1.504 1.058,0 1.968,-0.616 2.409,-1.504 h 5.566 c 0.343,0.405 0.848,0.669 1.422,0.669 0.571,0 1.077,-0.264 1.418,-0.669 H 80.942 V 71.19 Z" /></g></svg>
