<?xml version="1.0" encoding="utf-8"?>
<!-- Generator: Adobe Illustrator 23.0.6, SVG Export Plug-In . SVG Version: 6.00 Build 0)  -->
<svg version="1.1" id="Layer_1" xmlns="http://www.w3.org/2000/svg" xmlns:xlink="http://www.w3.org/1999/xlink" x="0px" y="0px" width="100%" height="100%"
	 viewBox="0 0 187.4 150" style="enable-background:new 0 0 187.4 150;" xml:space="preserve">
<path fill="#ffffff" d="M84.5,51.5c0,13.2-10.6,23.8-23.8,23.8c-12.8,0-23.3-10.6-23.3-23.8c0-12.8,10.6-23.3,23.3-23.3
	C73.9,28.2,84.5,38.7,84.5,51.5z M131.1,65.5c-18.5,0-28.2,28.2-42.2,28.2s-14.1-9.2-32.6-9.2c-18.9,0-28.2,37.4-28.2,37.4h131.1
	C159.2,121.8,150,65.5,131.1,65.5z M168.9,0H18.5C8.4,0,0,8.4,0,18.9v112.6C0,141.6,8.4,150,18.5,150h150.4
	c10.1,0,18.5-8.4,18.5-18.5V18.9C187.4,8.4,179,0,168.9,0z M168.9,131.5H18.5V18.9h150.4V131.5z"/>
</svg>
