<?xml version="1.0" encoding="utf-8"?>
<svg id="icf_image-edit-pencil" version="1.1" xmlns:svgjs="http://svgjs.com/svgjs"
	 xmlns="http://www.w3.org/2000/svg" xmlns:xlink="http://www.w3.org/1999/xlink"  viewBox="0 0 512 512" class="svelte-49unch"><path stroke="#000000" stroke-width="undefined" fill="undefined" d="M64,384l96,-165l96,93l64,-60l38,79l38,-38l52,-52l0,-145c0,-18,-14,-32,-32,-32l-384,0c-18,0,-32,14,-32,32l0,320c0,18,14,32,32,32l240,0l0,-30l9,-10l24,-24zm224,-267c27,0,48,22,48,48c0,27,-21,48,-48,48c-27,0,-48,-21,-48,-48c0,-26,21,-48,48,-48zm16,314l0,49l48,0l116,-116l-49,-48zm16,41l-8,-8l0,-24l32,32zm188,-168l-29,-29c-3,-3,-6,-4,-10,-4c-4,0,-7,1,-10,4l-23,24l49,48l23,-24c2,-2,4,-6,4,-9c0,-4,-2,-7,-4,-10z"></path>

</svg>