<?xml version="1.0" encoding="utf-8"?>
<!-- Generator: Adobe Illustrator 22.1.0, SVG Export Plug-In . SVG Version: 6.00 Build 0)  -->
<svg version="1.1" id="app-svgcanvas-dust00" xmlns="http://www.w3.org/2000/svg" xmlns:xlink="http://www.w3.org/1999/xlink"
	 x="0px" y="0px" viewBox="0 0 979.9 1192.6" style="enable-background:new 0 0 979.9 1192.6;" xml:space="preserve">
<style type="text/css">
	.st0{display:none;}
	.st1{display:inline;fill:url(#SVGID_1_);}
	.st2{fill:#543C32;}
	.st3{fill:#F2AA92;}
	.st4{fill:#FFC6B3;}
	.st5{fill:#E38E72;}
	.st6{fill:none;stroke:#C45E3B;stroke-width:1.5;}
	.st7{fill:url(#SvgjsPath15405_1_);}
	.st8{fill:#1E78A2;}
	.st9{fill:#0C6893;}
	.st10{fill:#3389B1;}
	.st11{fill:#004F74;}
	.st12{fill:#F2AA92;stroke:#C45E3B;stroke-width:1.5;}
	.st13{fill:#C45E3B;}
	.st14{fill:#EA9C82;}
	.st15{fill:url(#SvgjsPath5901_1_);}
	.st16{fill:#4FAAAB;}
	.st17{fill:url(#SvgjsPath14699_1_);}
	.st18{fill:url(#SvgjsPath14703_1_);}
	.st19{opacity:0.9;enable-background:new    ;}
	.st20{opacity:0.5;fill:url(#SvgjsPath14709_1_);enable-background:new    ;}
	.st21{opacity:0.5;fill:url(#SvgjsPath14713_1_);enable-background:new    ;}
	.st22{opacity:0.75;fill:url(#SvgjsPath14717_1_);enable-background:new    ;}
	.st23{fill:url(#SvgjsPath5869_1_);}
	.st24{fill:url(#SvgjsPath5874_1_);}
	.st25{fill:#092E0C;}
	.st26{fill:url(#SvgjsPath5909_1_);}
	.st27{fill:url(#SvgjsPath14722_1_);}
	.st28{fill:url(#SvgjsPath14726_1_);}
	.st29{opacity:0.5;fill:url(#SvgjsPath14732_1_);enable-background:new    ;}
	.st30{opacity:0.5;fill:url(#SvgjsPath14736_1_);enable-background:new    ;}
	.st31{opacity:0.75;fill:url(#SvgjsPath14740_1_);enable-background:new    ;}
	.st32{fill:url(#SvgjsPath5890_1_);}
	.st33{fill:url(#SvgjsPath5895_1_);}
	.st34{fill:url(#SvgjsPath5934_1_);}
	.st35{fill:url(#SvgjsPath5938_1_);}
	.st36{opacity:0.5;enable-background:new    ;}
	.st37{fill:#F7F7F7;}
	.st38{fill:#FFFFFF;}
	.st39{opacity:0.1;enable-background:new    ;}
	.st40{fill:#AB2563;}
	.st41{fill:#B3306C;}
	.st42{fill:#080806;}
	.st43{opacity:0.1;fill:#73625B;enable-background:new    ;}
	.st44{fill:#73625B;}
	.st45{fill:#644E45;}
	.st46{fill:#827874;}
	.st47{fill:#452C22;}
</style>
<g id="wrap-dust00">
	<g id="backs-single-dust00" transform="matrix(1.5 0 0 1.5 -50 -50)" class="st0">
		<linearGradient id="SVGID_1_" gradientUnits="userSpaceOnUse" x1="363.0909" y1="-231.9556" x2="363.0909" y2="1643.0444">
			<stop  offset="0" style="stop-color:#FFFFFF"/>
			<stop  offset="1" style="stop-color:#00B2FF"/>
		</linearGradient>
		<path class="st1" d="M-261.9-232v1250h1250V-232H-261.9z M21.8,726.4l788-2.7L21.8,726.4z"/>
	</g>
	<g id="subwrap-dust00">
		<g id="hair-back-dust00">
			<path class="st2" d="M190.2,1038.9c-0.3,69-0.6,114.8-0.6,120.7h615l-1.2-122.8L190.2,1038.9z"/>
			<path class="st2" d="M794.6,164.6h-600c0,0-3.1,608.8-4.4,874.3l613.2-2.1L794.6,164.6z"/>
		</g>
		<g id="body-single-dust00">
			<path class="st3" d="M850.6,969.1c-31.5-10-96.5-15.5-132-23c-34.5-6.5-116-29-117-67.5c-0.5-40,21.5-200,21.5-200H364.6
				c0,0,22.5,160,21.5,200c-1,38.5-82.5,61-116.5,67.5c-35.5,7.5-101,13-132.5,23c-30.5,10-68,19-98,70c-0.1,0.1-0.1,0.2-0.2,0.3
				l908.5-3.1C917.3,987.7,881.1,978.9,850.6,969.1z"/>
			<path class="st3" d="M947.4,1036.3L39,1039.4c-18.4,30.5-29.8,80.4-29.8,135.2h970c0-55-12-105-30-135.5
				C948.6,1038.1,948,1037.2,947.4,1036.3z"/>
			<path class="st4" d="M256.1,955.6c34.9-7.3,98-18.4,122.8-56.4c-22.1,26-80.5,41.7-108.3,46.9c-85,17-181.5,10.5-230.5,93
				c-0.1,0.1-0.1,0.2-0.2,0.3l13.6,0C95.4,980.5,154.1,975.6,256.1,955.6z"/>
			<path class="st4" d="M378.9,899.1c5.3-6.3,8.5-13.1,8.7-20.6C385.9,886.2,382.9,893,378.9,899.1z"/>
			<path class="st4" d="M14.6,1174.1c2.5-41.5,15.5-96.5,30-121c2.9-4.9,5.9-9.5,8.9-13.7l-13.6,0
				C12.1,1086.9,5.7,1175.6,14.6,1174.1z"/>
			<path class="st4" d="M718.6,946.1c-27.8-5.2-86.2-20.9-108.3-46.9c24.8,38.1,87.9,49.1,122.8,56.4
				c100.3,19.7,158.7,24.7,200.4,80.8l13.9,0C897.9,956.7,802.7,962.9,718.6,946.1z"/>
			<path class="st4" d="M947.4,1036.3l-13.9,0c3.8,5.1,7.5,10.7,11.1,16.7c14.5,24.5,27.5,79.5,30,121c9,1.5,2.5-87.5-25.5-135
				C948.6,1038.1,948,1037.2,947.4,1036.3z"/>
			<path class="st4" d="M610.4,899.1c-4-6.1-7-13-8.7-20.6C601.8,886,605.1,892.9,610.4,899.1z"/>
			<path class="st5" d="M460.1,1024.6c0,0-30.5-24-42-28c-24.5-8-167.5-9.5-167.5-9.5s141.5,12,166,19
				C427.1,1009.1,460.1,1024.6,460.1,1024.6z"/>
			<path class="st5" d="M728.6,987.1c0,0-119-2.5-152.5,9c-11.5,3.5-38,25.5-38,25.5s30.5-15,41.5-18
				C613.6,994.1,728.6,987.1,728.6,987.1z"/>
			<path class="st5" d="M533.1,1020.6c0,0-28,10.5-37,11c-7.5,0-31.5-6.5-31.5-6.5s12.7,9,22.2,12.8l14.1,0
				C513.7,1033.1,533.1,1020.6,533.1,1020.6z"/>
			<path class="st5" d="M501,1037.8l-14.1,0c2.6,1,5,1.7,6.8,1.7C495.5,1039.6,498.1,1038.9,501,1037.8z"/>
			<path class="st6" d="M718.6,946.1c-34.5-6.5-116-29-117-67.5c-0.5-40,21.5-200,21.5-200H364.6c0,0,22.5,160,21.5,200
				c-1,38.5-82.5,61-116.5,67.5c-35.5,7.5-101,13-132.5,23c-30.5,10-68,19-98,70c-0.1,0.1-0.1,0.2-0.2,0.3l908.5-3.1
				C897.9,956.7,802.2,962.9,718.6,946.1z"/>
			<path class="st6" d="M947.4,1036.3L39,1039.4c-18.4,30.5-29.8,80.4-29.8,135.2h970c0-55-12-105-30-135.5
				C948.6,1038.1,948,1037.2,947.4,1036.3z"/>
		</g>
		<g id="chinshadow-single-dust00">
			
				<linearGradient id="SvgjsPath15405_1_" gradientUnits="userSpaceOnUse" x1="-77.4637" y1="788.2966" x2="-77.4637" y2="823.2156" gradientTransform="matrix(5 0 0 -5 881.4549 4837.3999)">
				<stop  offset="0" style="stop-color:#E38E72;stop-opacity:0.8"/>
				<stop  offset="0.7" style="stop-color:#C45E3B"/>
			</linearGradient>
			<path id="SvgjsPath15405" class="st7" d="M368.6,682.1c3,23,17.5,128.5,20.5,179c32,18.5,71,33.5,105.5,33.5
				c33,0,71.5-15,104.5-33c3-50.5,17-156,20.5-179.5v-0.5h-251V682.1z"/>
		</g>
		<g id="clothes-single-dust00">
			<path class="st8" d="M899.6,976.1c-72.5-41-234.5-18.5-260.5-118.5c-4.5-16.5-9.5-39-27.5-41.5c-94.5,35.5-160.5,36.5-237-5.5
				c-15,5.5-22,20-30,37c-28.5,60.5-50.5,68.5-130.5,92C105.4,971.8,50.7,993.8,24,1039.4l929.7-3.1
				C942.1,1010.8,924.9,988.6,899.6,976.1z"/>
			<path class="st8" d="M24,1039.4c-13.9,23.8-20.2,54.1-22.4,95.6c-0.5,8-1.5,33-1,38.5c122.5,8,879,6,977,2c0-0.5,0-0.5,0-0.5
				c0.7-25-0.7-88.2-23.9-138.8L24,1039.4z"/>
			<path class="st9" d="M572.1,973.6c-6.5-37-13-93.5-29-133c-1,0-2.5,0-3.5,0.5c17.5,45.5,20,84,27,133
				C568.6,974.1,570.1,973.6,572.1,973.6z"/>
			<path class="st9" d="M576.6,973.1c2.5-0.5,4.5-1,7-1.5c-3-49-15-85.5-33-132c-1.5,0.5-3,0.5-4.5,0.5c8,17,17,50,22,74.5
				C569.1,920.6,573.6,947.1,576.6,973.1z"/>
			<path class="st9" d="M417.6,967.1c-0.5-41,6-90.5,26-126.5c-1.5,0-3.5-0.5-5-1c-21,41-27,78.5-25.5,126.5
				C414.6,966.1,416.1,966.6,417.6,967.1z"/>
			<path class="st9" d="M627.1,960.1c2.5-0.5,4.5-1.5,7-2.5c-4-5.5-7.5-11.5-9.5-18c-17-38-27-75-50.5-108c-2.5,0.5-6,2-7.5,2.5
				c25.5,36,22,31,29.5,63.5C604.1,929.6,615.1,945.1,627.1,960.1z"/>
			<path class="st9" d="M663.1,944.6c-15.5-15.5-37-46-44.5-69.5c-6-18.5-6-29-26-50c-1.5,0-4.5,4-6,4c22.5,41,35.5,84,69.5,119
				C658.6,947.1,660.6,946.1,663.1,944.6z"/>
			<path class="st9" d="M622.6,961.6c-9-9.5-22-30.5-28-53.5c-11.5-44-3.5-31.5-29-75c-1,0-2.5,0-3.5,0c23.5,47,23,94.5,52,131
				C617.1,963.6,620.1,962.6,622.6,961.6z"/>
			<path class="st9" d="M667.1,942.6c1.5-1,7-4,13.5-7.5c-39.5-22.5-48.5-78-78.5-114c-3,0.5-6,4-9,4.5
				C634.1,862.6,607.1,877.1,667.1,942.6z"/>
			<path class="st9" d="M427.1,968.6c3-47.5,6.5-82.5,23-127c-1.5-0.5-2.5-0.5-4-0.5c-17.5,36.5-23,86.5-24.5,126.5
				C423.6,968.1,425.1,968.6,427.1,968.6z"/>
			<path class="st9" d="M371.6,954.1c22.5-40.5,40-76.5,38.5-124c-1.5,0-3-0.5-5-1c-3,40-14.5,91.5-40,122.5
				C367.1,952.6,369.6,953.1,371.6,954.1z"/>
			<path class="st9" d="M899.1,984.1c-5.7,18.2-9.5,35.3-12.2,52.4l3.4,0C891.3,1020,893.6,1002.5,899.1,984.1z"/>
			<path class="st9" d="M89.1,984.1c2.1,21.5,6.1,38.1,10.6,55.1l8.2,0c-6.4-14.3-12.7-29.8-15.3-52.6
				C91.1,987.1,90.6,983.6,89.1,984.1z"/>
			<path class="st9" d="M887,1036.5c-4.3,27.6-5.8,55.1-8.3,86.6c-1.5,16.5-10,20-15.5,33c32.6-30.3,24.2-70.5,27.2-119.6
				L887,1036.5z"/>
			<path class="st9" d="M118.1,1143.1c-0.5-28.5,4-69.5-3.5-88.5c-2.1-5.2-4.4-10.2-6.7-15.4l-8.2,0
				C106.7,1066,114.8,1093.8,118.1,1143.1z"/>
			<path class="st9" d="M362.1,950.6c25.5-36.5,33-78.5,40-122c-3-1-6-7-9-8c-5,45.5-15.5,88.5-39.5,126.5
				C356.6,948.1,359.6,949.6,362.1,950.6z"/>
			<path class="st9" d="M317.6,930.6c2.5,1.5,5,3,8,4c33.5-28,55.5-69.5,66-114.5c-1.5-0.5-3-1-4-1.5c-4,14-23.5,57.5-32.5,72.5
				C345.6,907.1,331.6,921.6,317.6,930.6z"/>
			<path class="st9" d="M373.6,844.6c4.5-8.5,9-17.5,12-26.5c-3-1-6-2-8.5-3c-18.5,39-36.5,81-71,109.5c3,1.5,5.5,3,8,4.5
				C351.6,902.6,362.6,866.6,373.6,844.6z"/>
			<path class="st10" d="M295.6,925.6l-10-6.5C203.4,950.9,80.6,962.6,29,1039.4l20.1-0.1C107.8,973.1,201.7,976.7,295.6,925.6z"/>
			<path class="st10" d="M25.6,1044.6c-18.5,30.5-24.5,75-24.5,130c10.5-27.5,4-72,33.5-116.5c4.5-6.8,9.3-13,14.4-18.7l-20.1,0.1
				C27.8,1041.1,26.7,1042.8,25.6,1044.6z"/>
			<path class="st10" d="M703.6,928.1l-10,6c94.5,51.9,178.7,20.5,237.5,102.3l18.9-0.1C908.4,950.7,785.1,959.6,703.6,928.1z"/>
			<path class="st10" d="M950,1036.3l-18.9,0.1c4.7,6.5,9.2,13.7,13.5,21.7c25.5,46.5,23,89,33.5,116.5c0-55-11.5-97-24.5-130
				C952.5,1041.7,951.3,1039,950,1036.3z"/>
			<path class="st11" d="M89.6,993.1c-0.9,20.7,3.1,33.5,8,46.1l5,0c-5-13-9.5-26.7-9.5-48.1c37.5-18.5,80-31,122-43.5
				c25-7.5,50-15,73-27c66,43.5,127,66.5,236.5,66c79.5,0,126-20.5,174.5-55.5c66,30,151,26,197.5,54.5c-8,24.5-14,37.5-15.5,51
				l5.5,0c2-13.2,6.1-23.9,13-49.4c19,11.9,33.3,29.1,44.1,49.2l10.5,0c-12.2-26.5-29.8-48.5-54.6-60.7c-72-41-234-19-260.5-118.5
				c-3-12.5-8.5-38.5-27.5-41.5c-1,0.5-3.5-0.5-3.5-0.5c-75.5,29.5-154.5,38-233.5-5c-35.5,12.5-26,76.5-93,106
				c-29.5,13.5-68,22-123,40c-75.1,24.4-114.4,48.6-135.2,83.4l9.3,0C47.4,1019.9,67.5,1005.1,89.6,993.1z M613.6,818.6
				c36,12-4,67.5,79,109c-11,7-23,13.5-25.5,15c-60-65.5-32.5-75-71-115.5C603.1,823.6,607.1,820.6,613.6,818.6z M594.1,827.6
				c20,21,18.5,29,24.5,47.5c7.5,23.5,29,54,44.5,69.5c-11.5,6-23.5,11.5-36,15.5c-12-15-22-30.5-30-62.5c-7.5-27.5-5-30-29-63
				C573.1,833.6,586.1,829.1,594.1,827.6z M566.1,835.1c25.5,43.5,17,29,28.5,73c6,23,19,44,28,53.5c-15,5-30.5,9-46,11.5
				c-3.5-26-7-52.5-8-58.5c-5-27.5-14.5-57.5-22.5-74.5C552.1,839.6,559.6,836.1,566.1,835.1z M543.1,840.6c16,39.5,22.5,96,29,133
				c-14.5,2-30.5,3-45,3c0-0.5-9.5-79.5-13-131C524.1,844.1,534.6,843.1,543.1,840.6z M489.1,846.1c9,0,17.5-0.5,22.5-0.5
				c0,58.5,4.5,73.5,12,131c-17.5,0-35-1-52.5-2.5C483.1,876.1,489.1,846.1,489.1,846.1z M486.1,846.1c-14,76.5-16.5,95-18,128
				c-16-1.5-31.5-3.5-46.5-6.5c1.5-40,7-90,24.5-126.5C459.1,842.6,472.6,846.1,486.1,846.1z M443.6,840.6
				c-20,36-26.5,85.5-26,126.5c-19-4-36-9-52.5-15.5c25.5-31,37-82.5,40-122.5C417.6,832.1,431.1,838.1,443.6,840.6z M402.1,828.6
				c-7,43.5-14.5,85.5-40,122c-15-6-30-12.5-44.5-20c14-9,28-23.5,37.5-39.5c9-15,28-57.5,32-71.5
				C391.6,821.6,397.1,827.1,402.1,828.6z M373.6,813.6c4,2.5,7.5,4,11.5,5.5c-3,9-7,17-11.5,25.5c-11,22-22,58-59.5,84.5
				c-6.5-3.5-13.5-7.5-20.5-11.5C351.6,886.6,342.1,828.1,373.6,813.6z"/>
			<path class="st11" d="M943.7,1036.3c21.8,40.8,29.1,93.6,31.4,138.8c-166.5-1-907-1-972.5-2c0.5-20,4-82,17.5-112.5
				c3.5-7.6,7.8-14.7,12.6-21.2l-9.3,0c-14.9,25-20.2,55.5-22.3,95.6c-0.5,7-1.5,34.5-1,39c135.5,9,907,5,978,1.5v-0.5
				c0.9-44-4.7-97-23.9-138.8L943.7,1036.3z"/>
			<path class="st11" d="M118.1,1153.1c-1.5-17.5-2-35-2-53c0.3-28.8-7.1-44.2-13.5-60.9l-5,0c6.2,16,13.7,31.8,14.5,63.4
				C112.6,1119.6,115.1,1136.1,118.1,1153.1z"/>
			<path class="st11" d="M878.1,1119.6c-2.5,16.5-15.5,29-19,45.5c10.5-31,28.5-19.5,26.5-92.5c-0.6-16.9-0.3-27,1-36.1l-5.5,0
				c0,0,0,0,0,0C877.6,1068.1,883.1,1090.6,878.1,1119.6z"/>
		</g>
		<g id="head-dust00">
			<g id="ears-left-dust00">
				<path id="SvgjsPath5946" class="st12" d="M229.6,455.6c-7-12-28-42-50-35c-13.5,5-16.5,20-18.5,33.5c-3,18,2.5,53.5,7,66.5
					c4.5,12,17.5,36,26,45c11,11.5,24,46.5,26,50.5c3.5,5.5,8,14.5,21,13.5c14-1.5,22.5-9.5,29-10.5
					C286.1,615.6,247.6,487.6,229.6,455.6z"/>
				<path id="SvgjsPath5947" class="st13" d="M215.6,530.1c-0.5-3,0-8,0.5-12.5c1-4.5,1.5-8.5,1-11.5c-1.5-10.5-9-31-13.5-42
					c-6-13-15-29-26.5-33c-5-2-8,0-9.5,2.5c-1.5,1.5-2,3-1.5,3.5c0.5,0,1.5-1.5,3-3c1-1,3-2,5-1.5c-1,5-5.5,34-3.5,54
					c1.5,15.5,8,27,9,29c0,2,0.5,3.5,0.5,5.5c5,22.5,25,48.5,32,57c1.5,1.5,2.5,2.5,3,2c0.5-0.5-0.5-2-1.5-3.5c-7-8.5-27-34-31.5-56
					c-5-23.5,11.5-58,15-65c2,3,3.5,6.5,4.5,9.5c1,2,2,4.5,3.5,7c-2.5,4-17.5,32-12,54c2,8,11.5,19,17.5,21.5c3,2,4.5,4,6,7
					c1.5,3,3.5,6.5,9,9.5c1,0.5,2,0.5,3,0.5c1.5,0,3-0.5,3.5-1.5c0.5,1.5,0.5,3.5,0.5,5c-0.5,2,0,4,0.5,4c0.5,0,1-1.5,1-4
					s0-5.5-0.5-7.5c-1-4.5-5-9.5-9-15C220.6,540.1,216.6,534.6,215.6,530.1z M179.6,510.1c-11-36,3-66.5,5.5-71.5c4,4,8,9.5,11,15
					C194.1,457.6,179.6,486.1,179.6,510.1z M226.1,562.1c-5-2.5-6.5-5.5-8-8.5s-3-6-7-7.5c-1-0.5-1.5-1-2.5-2
					c-12.5-31,1-45,4.5-47.5c1,3.5,2,7,2.5,10c0,2.5-0.5,6.5-1,10.5c-0.5,5-1.5,10-0.5,13.5c1,5,5,10.5,9,16c4,5,7.5,10,9,14.5
					C231.6,561.6,229.6,563.6,226.1,562.1z"/>
			</g>
			<g id="ears-right-dust00">
				<path id="SvgjsPath5948" class="st12" d="M758.1,455.6c7-12,28.5-42,50-35c14,5,16.5,20,19,33.5c2.5,18-2.5,53.5-7,66.5
					c-4.5,12-18,36-26.5,45c-10.5,11.5-24,46.5-26,50.5c-3.5,5.5-7.5,14.5-20.5,13.5c-14.5-1.5-23-9.5-29.5-10.5
					C702.1,615.6,740.6,487.6,758.1,455.6z"/>
				<path id="SvgjsPath5949" class="st13" d="M763.1,545.6c-4,5.5-7.5,10.5-9,15c-0.5,2-0.5,5-0.5,7.5c0.5,2.5,1,4,1,4s1-2,1-4
					c0-1.5,0-3.5,0-5c1,1,2,1.5,3.5,1.5c1,0,2,0,3-0.5c5.5-3,7.5-6.5,9.5-9.5c1-3,2.5-5,6-7c6-2.5,15-13.5,17-21.5
					c5.5-22-9.5-50-11.5-54c1-2.5,2-5,3-7c1-3,3-6.5,4.5-9.5c4,7,20,41.5,15.5,65c-4.5,22-24.5,47.5-31.5,56c-1.5,1.5-2,3-2,3.5
					c0.5,0.5,2-0.5,3-2c7-8.5,27.5-34.5,32-57c0.5-2,0.5-3.5,1-5.5c1-2,7-13.5,8.5-29c2.5-20-2.5-49-3.5-54c2.5-0.5,4,0.5,5.5,1.5
					c1,1.5,2,3,2.5,3c0.5-0.5,0.5-2-1-3.5c-2-2.5-5-4.5-9.5-2.5c-11.5,4-21,20-26.5,33c-5,11-12.5,31.5-14,42c0,3,0.5,7,1,11.5
					c0.5,4.5,1.5,9.5,0.5,12.5C771.1,534.6,767.1,540.1,763.1,545.6z M791.6,453.6c3-5.5,7-11,11-15c2.5,5,17,35.5,6,71.5
					C808.1,486.1,794.1,457.6,791.6,453.6z M756.1,561.1c1-4.5,5-9.5,8.5-14.5c4-5.5,8-11,9.5-16c0.5-3.5,0-8.5-1-13.5
					c-0.5-4-1-8-0.5-10.5c0-3,1-6.5,2-10c3.5,2.5,17.5,16.5,5,47.5c-1,1-2,1.5-3,2c-3.5,1.5-5,4.5-6.5,7.5c-2,3-3.5,6-8.5,8.5
					C758.1,563.6,756.6,561.6,756.1,561.1z"/>
			</g>
			<g id="faceshape-wrap-dust00">
				<g id="faceshape-single-dust00">
					<path id="SvgjsPath15402" class="st3" d="M714.6,665.1c-25,50-100,139.5-154,163.5c-27,12-105.5,12.5-132,0
						c-53-25-129-113.5-154-163.5c-28-56-74.5-239.5-74.5-239.5c-6.5-24.5-10-50.5-10-77c0-167.5,136-303,304-303.5
						c168,0,304.5,135,305,302.5c0,26.5-3.5,52.5-10,77C789.1,425.1,742.6,608.6,714.6,665.1z"/>
					<path id="SvgjsPath15403" class="st14" d="M545.6,49.6c134.5,31,235,151.5,235,295.5c0,26.5-3.5,52.5-10,77
						c0,0-43,183-70.5,239c-24.5,49.5-98.5,135.5-150.5,160c-11,5.5-43.5,8-55,8c-11.5,0-44-2.5-55-8c-52-24.5-126-110.5-150.5-160
						c-27.5-56-70.5-239-70.5-239c-6.5-24.5-10-50.5-10-77c0-144,100.5-264.5,235.5-295.5c-144.5,24-254,149-254,299
						c0,26.5,3.5,52.5,10,77c0,0,46.5,183.5,74.5,239.5c25.5,50,101,138,154,163.5c13.5,6.5,46.5,9,65,9c18,0,53.5-2.5,67-9
						c53-25.5,129-113.5,154-163.5c28-56,74.5-239.5,74.5-239.5c6.5-24.5,10-50.5,10-77C799.1,198.6,689.6,73.6,545.6,49.6z"/>
					<path id="SvgjsPath15404" class="st6" d="M714.6,665.1c-25,50-100,139.5-154,163.5c-27,12-105.5,12.5-132,0
						c-53-25-129-113.5-154-163.5c-28-56-74.5-239.5-74.5-239.5c-6.5-24.5-10-50.5-10-77c0-167.5,136-303,304-303.5
						c168,0,304.5,135,305,302.5c0,26.5-3.5,52.5-10,77C789.1,425.1,742.6,608.6,714.6,665.1z"/>
				</g>
			</g>
			<g id="eyes-left-dust00">
				<g id="eyesback-left-dust00">
					
						<radialGradient id="SvgjsPath5901_1_" cx="14.054" cy="873.6082" r="15.179" gradientTransform="matrix(-4.574 0.2395 -0.2615 -4.993 657.5963 4832.6289)" gradientUnits="userSpaceOnUse">
						<stop  offset="0" style="stop-color:#FFFFFF"/>
						<stop  offset="0.544" style="stop-color:#FDFEFE"/>
						<stop  offset="0.74" style="stop-color:#F6F8F9"/>
						<stop  offset="0.879" style="stop-color:#EAEFF2"/>
						<stop  offset="0.992" style="stop-color:#D9E3E8"/>
						<stop  offset="1" style="stop-color:#D8E2E7"/>
					</radialGradient>
					<path id="SvgjsPath5901" class="st15" d="M299.6,456.1c2-4.5,10.5-11,29.5-15.5c8.5-2,20.5-1.5,33-1c30,2.5,58.5,21.5,67.5,37
						l0,0c2,3,3,5.5,3,8.5c0.5,5-2,9.5-6.5,13l0,0c-11,9-42.5,11-61.5,11c-37.5-0.5-48.5-15-48.5-15c-5-6-10-13-13.5-20.5
						c0,0.5,0,0.5,0,0.5c-3.5-8-3-11-3.5-16C299.1,457.6,299.1,456.6,299.6,456.1z"/>
				</g>
				<g id="eyesiriswrap-left-dust00" transform="translate(-0.75 0.25)">
					<g id="eyesiriscontrol-left-dust00">
						<g id="eyesiris-left-dust00">
							<path id="SvgjsPath14698" class="st16" d="M409.1,475.6c0,23.5-19,42.5-42.5,42.5c-23.5,0-42.5-19-42.5-42.5l0,0
								c0-23.5,19-42.5,42.5-42.5C390.1,433.1,409.1,452.1,409.1,475.6L409.1,475.6z"/>
							
								<radialGradient id="SvgjsPath14699_1_" cx="-966.107" cy="1706.1978" r="84.646" gradientTransform="matrix(0.48 -0.124 -0.1225 -0.4805 1038.8562 1175.7646)" gradientUnits="userSpaceOnUse">
								<stop  offset="0" style="stop-color:#FFFFFF;stop-opacity:0.8"/>
								<stop  offset="1" style="stop-color:#FFFFFF;stop-opacity:0"/>
							</radialGradient>
							<path id="SvgjsPath14699" class="st17" d="M361.6,433.6c0,0,0,0-0.5,0c0.5,1,0.5,2,1,3C362.1,435.6,362.1,434.6,361.6,433.6z
								 M362.1,436.6c0.5,14,1,26.5,3.5,31C366.6,462.6,364.6,450.1,362.1,436.6z M365.6,467.6c-0.5,1-1,2-1.5,2
								c-0.5,0.5-1.5,0-2.5-0.5c0,1,0,2-0.5,2.5c-0.5,0.5-1.5,0.5-2.5,0.5c1,1,1,2,1,2.5c0,1-1,1.5-2,2c1,0,2,1,2,1.5
								c0,1,0,1.5-1,2.5c1,0,2,0,2.5,0.5c0.5,0.5,0.5,1.5,0.5,3c1-1,2-1,2.5-1c0.5,0.5,1,1,1.5,2.5c0.5-1,1-2,2-2
								c0.5,0,1.5,0.5,2,1.5c0.5-1.5,0.5-2.5,1-2.5c1-0.5,1.5-0.5,3,0c-0.5-1-1-2-0.5-3c0.5-0.5,1-1,2.5-1c-1-0.5-1.5-1.5-1.5-2
								c0-1,0.5-1.5,1.5-2.5c-1.5,0-2-0.5-2.5-1c-0.5-0.5,0-1.5,0.5-2.5c-1.5,0.5-2,0.5-3,0c-0.5-0.5-0.5-1.5-0.5-2.5
								c-1,1-2,1.5-2.5,1C366.6,469.1,366.1,468.6,365.6,467.6z M370.1,468.1c3-4,7-16,11-29C375.1,451.6,370.1,463.1,370.1,468.1z
								 M381.1,439.1c0.5-1,1-2,1-3c0,0,0,0-0.5,0C381.6,437.1,381.1,438.1,381.1,439.1z M373.6,470.6c4.5-2,13.5-10.5,23-20.5
								C385.6,458.1,376.1,466.1,373.6,470.6z M396.6,450.1c1-1,1.5-1.5,2.5-2h-0.5C398.1,448.6,397.6,449.1,396.6,450.1z
								 M375.6,474.1c5,1,17-3,30-7C392.1,469.1,379.6,471.6,375.6,474.1z M405.6,467.1c1-0.5,1.5-0.5,2.5-0.5v-0.5
								C407.1,466.6,406.6,466.6,405.6,467.1z M375.6,478.6c4,3,16.5,5.5,30,7.5C392.6,481.6,380.6,478.1,375.6,478.6z M405.6,486.1
								c0.5,0.5,1.5,0.5,2,0.5l0,0C407.1,486.6,406.6,486.1,405.6,486.1z M373.6,482.6c2,4.5,12,12,23,20.5
								C387.1,493.1,378.1,484.1,373.6,482.6z M396.6,503.1c0.5,0.5,1,1,1.5,1.5c0,0,0,0,0-0.5C397.6,504.1,397.1,503.6,396.6,503.1
								z M370.1,485.1c-0.5,5,4.5,16.5,10.5,29C377.1,500.6,373.1,488.6,370.1,485.1z M380.6,514.1c0.5,0.5,0.5,1,0.5,1.5
								c0.5,0,0.5,0,0.5,0C381.1,515.1,381.1,514.6,380.6,514.1z M365.6,485.6c-2.5,4.5-3.5,17-4,30.5
								C364.6,502.6,366.6,490.6,365.6,485.6z M361.6,516.1c0,1,0,1.5,0,2l0,0C361.6,517.6,361.6,517.1,361.6,516.1z M361.6,484.1
								c-4.5,2.5-11,13.5-18,25.5C352.6,498.6,360.1,488.6,361.6,484.1z M343.6,509.6c0,0.5-0.5,1-1,1c0,0.5,0,0.5,0.5,0.5
								C343.1,510.6,343.6,510.1,343.6,509.6z M358.6,480.6c-5,0.5-16,7-27.5,14.5C344.1,489.6,355.1,484.6,358.6,480.6z
								 M331.1,495.1c-0.5,0-1.5,0.5-2,0.5c0,0.5,0,0.5,0,0.5C330.1,495.6,330.6,495.6,331.1,495.1z M357.6,476.6
								c-5-2-17-1.5-31-0.5C340.6,477.6,352.6,478.1,357.6,476.6z M326.6,476.1c-1,0-1.5,0-2.5,0v0.5
								C325.1,476.6,325.6,476.6,326.6,476.1z M358.6,472.1c-3.5-3.5-14.5-9-27.5-14.5C343.1,465.1,353.6,471.6,358.6,472.1z
								 M331.1,457.6c-0.5-0.5-1.5-1-2-1.5c-0.5,0.5-0.5,0.5-0.5,0.5C329.6,457.1,330.6,457.1,331.1,457.6z M361.6,469.1
								c-1.5-5-9-15-17.5-26C350.6,455.6,357.1,466.1,361.6,469.1z M344.1,443.1c-0.5-0.5-1-1.5-1.5-2.5c0,0.5-0.5,0.5-0.5,0.5
								C342.6,441.6,343.1,442.6,344.1,443.1z"/>
							
								<radialGradient id="SvgjsPath14703_1_" cx="-1035.0647" cy="1630.79" r="84.7066" gradientTransform="matrix(0.4955 4.428162e-03 5.500000e-03 -0.4955 870.0131 1288.4049)" gradientUnits="userSpaceOnUse">
								<stop  offset="0" style="stop-color:#FFFFFF;stop-opacity:0.8"/>
								<stop  offset="1" style="stop-color:#FFFFFF;stop-opacity:0"/>
							</radialGradient>
							<path id="SvgjsPath14703" class="st18" d="M373.1,433.6c-0.5,0-0.5,0-0.5,0c-0.5,1-0.5,2-0.5,3
								C372.6,435.6,372.6,434.6,373.1,433.6z M372.1,436.6c-3,13.5-5.5,26-4.5,31C370.1,463.1,371.6,450.6,372.1,436.6z
								 M367.6,467.6c-0.5,1-1,1.5-2,1.5c-0.5,0-1.5-0.5-2-1.5c0,1.5-0.5,2.5-1,2.5c-1,0.5-1.5,0.5-3,0c0.5,1,1,2,0.5,3
								c-0.5,0.5-1,1-2.5,1c1,0.5,1.5,1.5,1.5,2c0,1-0.5,1.5-1.5,2c1,0.5,2,1,2.5,1.5c0,0.5,0,1.5-0.5,2.5c1-0.5,2-0.5,2.5,0
								c0.5,0.5,1,1.5,1,2.5c1-0.5,1.5-1,2.5-1c0.5,0,1,0.5,1.5,2c0.5-1.5,1-2,2-2.5c0.5,0,1.5,0,2.5,1c-0.5-1.5-0.5-2.5,0-3
								c0.5-0.5,1.5-0.5,3-0.5c-1-1-1.5-1.5-1-2.5c0-0.5,1-1,2-1.5c-1-0.5-2-1-2-2c0-0.5,0-1.5,1-2.5c-1,0.5-2,0-2.5-0.5
								c-0.5-0.5-0.5-1.5-0.5-2.5c-1,0.5-1.5,1-2.5,0.5C368.6,469.6,368.1,468.6,367.6,467.6z M371.6,469.1c4.5-3,11-13.5,18.5-25.5
								C381.1,454.6,373.1,464.1,371.6,469.1z M390.1,443.6c0.5-0.5,1-1.5,2-2c-0.5,0-0.5,0-0.5-0.5
								C391.1,442.1,390.6,443.1,390.1,443.6z M374.6,472.1c5-0.5,16-6.5,28-13.5C389.6,463.6,378.1,468.6,374.6,472.1z
								 M402.6,458.6c0.5-0.5,1.5-1,2.5-1l-0.5-0.5C404.1,457.6,403.1,458.1,402.6,458.6z M375.6,476.6c4.5,2,17,1.5,31,0.5
								C392.6,475.6,380.1,475.1,375.6,476.6z M406.6,477.1c1,0.5,1.5,0.5,2.5,0.5v-0.5C408.1,477.1,407.6,477.1,406.6,477.1z
								 M374.6,480.6c3,4,14.5,9.5,27,15C390.1,488.1,379.6,481.6,374.6,480.6z M401.6,495.6c0.5,0.5,1,1,2,1.5v-0.5
								C403.1,496.6,402.1,496.1,401.6,495.6z M371.6,484.1c1,5,8.5,15,17,26C381.6,497.6,375.6,487.1,371.6,484.1z M388.6,510.1
								c0,0.5,0.5,1,1,1.5l0,0C389.1,511.1,389.1,510.6,388.6,510.1z M367.1,485.6c-1,4.5,1,17,3.5,31
								C370.1,502.6,369.6,490.1,367.1,485.6z M370.6,516.6c0,0.5,0,1,0,1.5l0,0C370.6,517.6,370.6,517.1,370.6,516.6z M363.1,484.6
								c-3.5,4-7.5,15.5-12,29C357.6,501.1,363.1,490.1,363.1,484.6z M351.1,513.6c0,0.5-0.5,1-0.5,1.5l0,0
								C351.1,514.6,351.1,514.1,351.1,513.6z M359.6,482.1c-5,2-14,10.5-24,20C347.1,494.1,357.1,486.6,359.6,482.1z M335.6,502.1
								c-0.5,0.5-1,1-1.5,1.5c0.5,0,0.5,0,0.5,0C335.1,503.1,335.1,502.6,335.6,502.1z M357.6,478.1c-5-0.5-17,3-30.5,7
								C341.1,483.1,353.1,481.1,357.6,478.1z M327.1,485.1c-0.5,0-1,0-2,0.5l0,0C326.1,485.6,326.6,485.1,327.1,485.1z
								 M357.6,474.1c-4-3-16-5.5-30-8C340.6,470.6,352.6,474.6,357.6,474.1z M327.6,465.6c-0.5,0-1.5-0.5-2-0.5c0,0,0,0,0,0.5
								C326.1,465.6,327.1,465.6,327.6,465.6z M359.6,470.1c-2-4.5-11.5-12.5-22.5-21C346.6,459.1,355.1,468.1,359.6,470.1z
								 M337.1,449.1c-0.5-0.5-1.5-1.5-2-2c0,0,0,0,0,0.5C335.6,448.1,336.1,448.6,337.1,449.1z M363.6,467.6c0-5-5-16.5-10.5-29
								C356.6,452.1,360.1,464.1,363.6,467.6z M353.1,438.6c-0.5-1-0.5-2-1-3c0,0,0,0,0,0.5S352.6,437.6,353.1,438.6z"/>
							<path id="SvgjsPath14707" class="st16" d="M383.1,475.6c0,9-7.5,16.5-16.5,16.5c-9,0-16.5-7.5-16.5-16.5
								c0-9,7.5-16.5,16.5-16.5C375.6,459.1,383.1,466.6,383.1,475.6z"/>
							<path id="SvgjsPath14708" class="st19" d="M383.1,475.6c0,9-7.5,16.5-16.5,16.5c-9,0-16.5-7.5-16.5-16.5
								c0-9,7.5-16.5,16.5-16.5C375.6,459.1,383.1,466.6,383.1,475.6z"/>
							
								<linearGradient id="SvgjsPath14709_1_" gradientUnits="userSpaceOnUse" x1="-54.3422" y1="866.2793" x2="-53.0152" y2="867.8603" gradientTransform="matrix(5 0 0 -5 614.7049 4837.1499)">
								<stop  offset="0" style="stop-color:#FFFFFF"/>
								<stop  offset="1" style="stop-color:#FFFFFF;stop-opacity:0"/>
							</linearGradient>
							<path id="SvgjsPath14709" class="st20" d="M343.1,495.1c3.5-2,7.5-1.5,10,2c2,3,1,7.5-2,9.5c-3,2-7.5,1.5-9.5-2
								C339.1,501.6,340.1,497.1,343.1,495.1L343.1,495.1z"/>
							
								<linearGradient id="SvgjsPath14713_1_" gradientUnits="userSpaceOnUse" x1="-49.9072" y1="874.6102" x2="-51.9072" y2="872.6102" gradientTransform="matrix(5 0 0 -5 624.7049 4837.1499)">
								<stop  offset="0" style="stop-color:#FFFFFF"/>
								<stop  offset="1" style="stop-color:#FFFFFF;stop-opacity:0"/>
							</linearGradient>
							<path id="SvgjsPath14713" class="st21" d="M379.6,473.1c-1.5,3-6.5,2.5-11-0.5c-4.5-3-7-7.5-5-10.5l0,0c1.5-2.5,6.5-2,11,1
								C379.1,466.1,381.6,470.6,379.6,473.1L379.6,473.1z"/>
							
								<linearGradient id="SvgjsPath14717_1_" gradientUnits="userSpaceOnUse" x1="-46.3387" y1="878.0417" x2="-50.3387" y2="874.0417" gradientTransform="matrix(5 0 0 -5 624.7049 4837.1499)">
								<stop  offset="0" style="stop-color:#FFFFFF"/>
								<stop  offset="1" style="stop-color:#FFFFFF;stop-opacity:0"/>
							</linearGradient>
							<path id="SvgjsPath14717" class="st22" d="M400.1,466.1c-4,6.5-14.5,6.5-23.5,1c-8.5-6-12.5-15.5-8.5-21.5
								c4-6.5,14.5-6.5,23.5-1C400.1,450.6,404.1,460.1,400.1,466.1L400.1,466.1z"/>
						</g>
					</g>
				</g>
				<g id="eyesfront-left-dust00">
					<path id="SvgjsPath5868" class="st3" d="M274.6,479.6c0,69,40.5,125,90,125s90-56,90-125s-40.5-125-90-125
						S274.6,410.6,274.6,479.6z M302.6,473.6c0,0.5,0,0.5,0,0.5c-3.5-8-3-11-3.5-16c0-0.5,0-1.5,0.5-2c2-4.5,10.5-11,29.5-15.5
						c8.5-2,20.5-1.5,33-1c30,2.5,58.5,21.5,67.5,37l0,0c2,3,3,5.5,3,8.5c0.5,5-2,9.5-6.5,13l0,0c-11,9-42.5,11-61.5,11
						c-37.5-0.5-48.5-15-48.5-15C311.1,488.1,306.1,481.1,302.6,473.6z"/>
					
						<radialGradient id="SvgjsPath5869_1_" cx="-53.8663" cy="830.9922" r="18.705" fx="-39.8413" fy="828.8732" gradientTransform="matrix(4.999 0.104 -8.300000e-02 3.999 713.3491 -2855.9065)" gradientUnits="userSpaceOnUse">
						<stop  offset="0" style="stop-color:#E38E72"/>
						<stop  offset="0.7" style="stop-color:#E38E72;stop-opacity:0.3"/>
						<stop  offset="1" style="stop-color:#F2AA92;stop-opacity:0"/>
					</radialGradient>
					<path id="SvgjsPath5869" class="st23" d="M280.1,465.1c0.5,41.5,42.5,74.5,94.5,74.5c52.5,0,94.5-34,94.5-75.5
						c-0.5-41.5-42.5-74.5-94.5-74.5C322.1,389.6,280.1,423.6,280.1,465.1z M302.6,474.1c-3.5-8-3-11-3.5-16c0-0.5,0-1.5,0.5-2
						c2-4.5,10.5-11,29.5-15.5c8.5-2,20.5-1.5,33-1c30,2.5,58.5,21.5,67.5,37l0,0c2,3,3,5.5,3,8.5c0.5,5-2,9.5-6.5,13l0,0
						c-11,9-42.5,11-61.5,11c-37.5-0.5-48.5-15-48.5-15c-5-6-10-13-13.5-20.5C302.6,474.1,302.6,474.1,302.6,474.1z"/>
					
						<radialGradient id="SvgjsPath5874_1_" cx="-105.8638" cy="853.5581" r="29.508" gradientTransform="matrix(5.161 -0.2705 -0.2705 -5.161 1129.5477 4976.4429)" gradientUnits="userSpaceOnUse">
						<stop  offset="0.95" style="stop-color:#000000;stop-opacity:0"/>
						<stop  offset="1" style="stop-color:#000000;stop-opacity:0.3"/>
					</radialGradient>
					<path id="SvgjsPath5874" class="st24" d="M316.1,494.1c-5-6-10-13-13.5-20.5c0,0.5,0,0.5,0,0.5c-3.5-8-3-11-3.5-16
						c0-0.5,0-1.5,0.5-2c2-4.5,10.5-11,29.5-15.5c8.5-2,20.5-1.5,33-1c30,2.5,58.5,21.5,67.5,37l0,0c2,3,3,5.5,3,8.5
						c0.5,5-2,9.5-6.5,13l0,0c-11,9-42.5,11-61.5,11C327.1,508.6,316.1,494.1,316.1,494.1z"/>
					<path id="SvgjsPath5878" class="st13" d="M436.1,460.1c-34.5-27-54.5-37.5-97-38.5c29-3,55.5,6,71,16
						C417.6,442.1,431.1,455.6,436.1,460.1z"/>
					<path id="SvgjsPath5879" class="st25" d="M364.6,508.6c19,0,50.5-2,61.5-11c-16.5,13-43,14.5-58,14.5c-9.5,0.5-30,0-38.5-4.5
						c-4-2-12-9-13.5-13.5C316.1,494.1,327.1,508.1,364.6,508.6z M295.6,437.6c-13.5,0.5-20.5,0-20.5,0c7.5,5,9,6,12,12
						c7,11.5,15.5,24.5,15.5,24.5c-3.5-8-3-10.5-3.5-15.5c-0.5-4.5,7.5-12.5,30-17.5c8.5-2,20.5-1.5,33-1c30,2.5,58.5,21,67.5,36.5
						c1.5-0.5,3-0.5,3.5-1c0.5-0.5,0.5-2.5,0-3c-12.5-22-55.5-47-91-45C317.1,429.1,304.6,437.6,295.6,437.6z"/>
				</g>
			</g>
			<g id="eyes-right-dust00">
				<g id="eyesback-right-dust00">
					
						<radialGradient id="SvgjsPath5909_1_" cx="-55.7163" cy="870.2616" r="15.179" gradientTransform="matrix(4.574 0.2395 0.2615 -4.993 651.6788 4832.6289)" gradientUnits="userSpaceOnUse">
						<stop  offset="0" style="stop-color:#FFFFFF"/>
						<stop  offset="0.544" style="stop-color:#FDFEFE"/>
						<stop  offset="0.74" style="stop-color:#F6F8F9"/>
						<stop  offset="0.879" style="stop-color:#EAEFF2"/>
						<stop  offset="0.992" style="stop-color:#D9E3E8"/>
						<stop  offset="1" style="stop-color:#D8E2E7"/>
					</radialGradient>
					<path id="SvgjsPath5909" class="st26" d="M689.6,456.1c-2-4.5-10.5-11-29.5-15.5c-8.5-2-20.5-1.5-33-1
						c-30,2.5-58.5,21.5-67.5,37l0,0c-2,3-3,5.5-3,8.5c-0.5,5,2,9.5,6.5,13l0,0c11,9,42.5,11,61.5,11c37.5-0.5,48.5-15,48.5-15
						c5-6,10-13,13.5-20.5c0,0.5,0,0.5,0,0.5c3.5-8,3-11,3.5-16C690.1,457.6,690.1,456.6,689.6,456.1z"/>
				</g>
				<g id="eyesiriswrap-right-dust00" transform="translate(0.75 0.25)">
					<g id="eyesiriscontrol-right-dust00">
						<g id="eyesiris-right-dust00">
							<path id="SvgjsPath14721" class="st16" d="M665.1,475.6c0,23.5-19,42.5-42.5,42.5c-23.5,0-42.5-19-42.5-42.5l0,0
								c0-23.5,19-42.5,42.5-42.5C646.1,433.1,665.1,452.1,665.1,475.6L665.1,475.6z"/>
							
								<radialGradient id="SvgjsPath14722_1_" cx="-987.779" cy="1706.0098" r="84.646" gradientTransform="matrix(0.48 -0.124 -0.1225 -0.4805 1305.2341 1172.9922)" gradientUnits="userSpaceOnUse">
								<stop  offset="0" style="stop-color:#FFFFFF;stop-opacity:0.8"/>
								<stop  offset="1" style="stop-color:#FFFFFF;stop-opacity:0"/>
							</radialGradient>
							<path id="SvgjsPath14722" class="st27" d="M617.6,433.6c0,0,0,0-0.5,0c0.5,1,0.5,2,1,3C618.1,435.6,618.1,434.6,617.6,433.6z
								 M618.1,436.6c0.5,14,1,26.5,3.5,31C622.6,462.6,620.6,450.1,618.1,436.6z M621.6,467.6c-0.5,1-1,2-1.5,2
								c-0.5,0.5-1.5,0-2.5-0.5c0,1,0,2-0.5,2.5c-0.5,0.5-1.5,0.5-2.5,0.5c1,1,1,2,1,2.5c0,1-1,1.5-2,2c1,0,2,1,2,1.5
								c0,1,0,1.5-1,2.5c1,0,2,0,2.5,0.5s0.5,1.5,0.5,3c1-1,2-1,2.5-1c0.5,0.5,1,1,1.5,2.5c0.5-1,1-2,2-2c0.5,0,1.5,0.5,2,1.5
								c0.5-1.5,0.5-2.5,1-2.5c1-0.5,1.5-0.5,3,0c-0.5-1-1-2-0.5-3c0.5-0.5,1-1,2.5-1c-1-0.5-1.5-1.5-1.5-2c0-1,0.5-1.5,1.5-2.5
								c-1.5,0-2-0.5-2.5-1c-0.5-0.5,0-1.5,0.5-2.5c-1.5,0.5-2,0.5-3,0c-0.5-0.5-0.5-1.5-0.5-2.5c-1,1-2,1.5-2.5,1
								C622.6,469.1,622.1,468.6,621.6,467.6z M626.1,468.1c3-4,7-16,11-29C631.1,451.6,626.1,463.1,626.1,468.1z M637.1,439.1
								c0.5-1,1-2,1-3c0,0,0,0-0.5,0C637.6,437.1,637.1,438.1,637.1,439.1z M629.6,470.6c4.5-2,13.5-10.5,23-20.5
								C641.6,458.1,632.1,466.1,629.6,470.6z M652.6,450.1c1-1,1.5-1.5,2.5-2h-0.5C654.1,448.6,653.6,449.1,652.6,450.1z
								 M631.6,474.1c5,1,17-3,30-7C648.1,469.1,635.6,471.6,631.6,474.1z M661.6,467.1c1-0.5,1.5-0.5,2.5-0.5v-0.5
								C663.1,466.6,662.6,466.6,661.6,467.1z M631.6,478.6c4,3,16.5,5.5,30,7.5C648.6,481.6,636.6,478.1,631.6,478.6z M661.6,486.1
								c0.5,0.5,1.5,0.5,2,0.5l0,0C663.1,486.6,662.6,486.1,661.6,486.1z M629.6,482.6c2,4.5,12,12,23,20.5
								C643.1,493.1,634.1,484.1,629.6,482.6z M652.6,503.1c0.5,0.5,1,1,1.5,1.5c0,0,0,0,0-0.5C653.6,504.1,653.1,503.6,652.6,503.1
								z M626.1,485.1c-0.5,5,4.5,16.5,10.5,29C633.1,500.6,629.1,488.6,626.1,485.1z M636.6,514.1c0.5,0.5,0.5,1,0.5,1.5
								c0.5,0,0.5,0,0.5,0C637.1,515.1,637.1,514.6,636.6,514.1z M621.6,485.6c-2.5,4.5-3.5,17-4,30.5
								C620.6,502.6,622.6,490.6,621.6,485.6z M617.6,516.1c0,1,0,1.5,0,2l0,0C617.6,517.6,617.6,517.1,617.6,516.1z M617.6,484.1
								c-4.5,2.5-11,13.5-18,25.5C608.6,498.6,616.1,488.6,617.6,484.1z M599.6,509.6c0,0.5-0.5,1-1,1c0,0.5,0,0.5,0.5,0.5
								C599.1,510.6,599.6,510.1,599.6,509.6z M614.6,480.6c-5,0.5-16,7-27.5,14.5C600.1,489.6,611.1,484.6,614.6,480.6z
								 M587.1,495.1c-0.5,0-1.5,0.5-2,0.5c0,0.5,0,0.5,0,0.5C586.1,495.6,586.6,495.6,587.1,495.1z M613.6,476.6
								c-5-2-17-1.5-31-0.5C596.6,477.6,608.6,478.1,613.6,476.6z M582.6,476.1c-1,0-1.5,0-2.5,0v0.5
								C581.1,476.6,581.6,476.6,582.6,476.1z M614.6,472.1c-3.5-3.5-14.5-9-27.5-14.5C599.1,465.1,609.6,471.6,614.6,472.1z
								 M587.1,457.6c-0.5-0.5-1.5-1-2-1.5c-0.5,0.5-0.5,0.5-0.5,0.5C585.6,457.1,586.6,457.1,587.1,457.6z M617.6,469.1
								c-1.5-5-9-15-17.5-26C606.6,455.6,613.1,466.1,617.6,469.1z M600.1,443.1c-0.5-0.5-1-1.5-1.5-2.5c0,0.5-0.5,0.5-0.5,0.5
								C598.6,441.6,599.1,442.6,600.1,443.1z"/>
							
								<radialGradient id="SvgjsPath14726_1_" cx="-1056.0057" cy="1625.4266" r="84.7073" gradientTransform="matrix(0.4955 4.428162e-03 5.500000e-03 -0.4955 1136.4214 1285.8401)" gradientUnits="userSpaceOnUse">
								<stop  offset="0" style="stop-color:#FFFFFF;stop-opacity:0.8"/>
								<stop  offset="1" style="stop-color:#FFFFFF;stop-opacity:0"/>
							</radialGradient>
							<path id="SvgjsPath14726" class="st28" d="M629.1,433.6c-0.5,0-0.5,0-0.5,0c-0.5,1-0.5,2-0.5,3
								C628.6,435.6,628.6,434.6,629.1,433.6z M628.1,436.6c-3,13.5-5.5,26-4.5,31C626.1,463.1,627.6,450.6,628.1,436.6z
								 M623.6,467.6c-0.5,1-1,1.5-2,1.5c-0.5,0-1.5-0.5-2-1.5c0,1.5-0.5,2.5-1,2.5c-1,0.5-1.5,0.5-3,0c0.5,1,1,2,0.5,3
								c-0.5,0.5-1,1-2.5,1c1,0.5,1.5,1.5,1.5,2c0,1-0.5,1.5-1.5,2c1,0.5,2,1,2.5,1.5c0,0.5,0,1.5-0.5,2.5c1-0.5,2-0.5,2.5,0
								c0.5,0.5,1,1.5,1,2.5c1-0.5,1.5-1,2.5-1c0.5,0,1,0.5,1.5,2c0.5-1.5,1-2,2-2.5c0.5,0,1.5,0,2.5,1c-0.5-1.5-0.5-2.5,0-3
								s1.5-0.5,3-0.5c-1-1-1.5-1.5-1-2.5c0-0.5,1-1,2-1.5c-1-0.5-2-1-2-2c0-0.5,0-1.5,1-2.5c-1,0.5-2,0-2.5-0.5
								c-0.5-0.5-0.5-1.5-0.5-2.5c-1,0.5-1.5,1-2.5,0.5C624.6,469.6,624.1,468.6,623.6,467.6z M627.6,469.1c4.5-3,11-13.5,18.5-25.5
								C637.1,454.6,629.1,464.1,627.6,469.1z M646.1,443.6c0.5-0.5,1-1.5,2-2c-0.5,0-0.5,0-0.5-0.5
								C647.1,442.1,646.6,443.1,646.1,443.6z M630.6,472.1c5-0.5,16-6.5,28-13.5C645.6,463.6,634.1,468.6,630.6,472.1z
								 M658.6,458.6c0.5-0.5,1.5-1,2.5-1l-0.5-0.5C660.1,457.6,659.1,458.1,658.6,458.6z M631.6,476.6c4.5,2,17,1.5,31,0.5
								C648.6,475.6,636.1,475.1,631.6,476.6z M662.6,477.1c1,0.5,1.5,0.5,2.5,0.5v-0.5C664.1,477.1,663.6,477.1,662.6,477.1z
								 M630.6,480.6c3,4,14.5,9.5,27,15C646.1,488.1,635.6,481.6,630.6,480.6z M657.6,495.6c0.5,0.5,1,1,2,1.5v-0.5
								C659.1,496.6,658.1,496.1,657.6,495.6z M627.6,484.1c1,5,8.5,15,17,26C637.6,497.6,631.6,487.1,627.6,484.1z M644.6,510.1
								c0,0.5,0.5,1,1,1.5l0,0C645.1,511.1,645.1,510.6,644.6,510.1z M623.1,485.6c-1,4.5,1,17,3.5,31
								C626.1,502.6,625.6,490.1,623.1,485.6z M626.6,516.6c0,0.5,0,1,0,1.5l0,0C626.6,517.6,626.6,517.1,626.6,516.6z M619.1,484.6
								c-3.5,4-7.5,15.5-12,29C613.6,501.1,619.1,490.1,619.1,484.6z M607.1,513.6c0,0.5-0.5,1-0.5,1.5l0,0
								C607.1,514.6,607.1,514.1,607.1,513.6z M615.6,482.1c-5,2-14,10.5-24,20C603.1,494.1,613.1,486.6,615.6,482.1z M591.6,502.1
								c-0.5,0.5-1,1-1.5,1.5c0.5,0,0.5,0,0.5,0C591.1,503.1,591.1,502.6,591.6,502.1z M613.6,478.1c-5-0.5-17,3-30.5,7
								C597.1,483.1,609.1,481.1,613.6,478.1z M583.1,485.1c-0.5,0-1,0-2,0.5l0,0C582.1,485.6,582.6,485.1,583.1,485.1z
								 M613.6,474.1c-4-3-16-5.5-30-8C596.6,470.6,608.6,474.6,613.6,474.1z M583.6,465.6c-0.5,0-1.5-0.5-2-0.5c0,0,0,0,0,0.5
								C582.1,465.6,583.1,465.6,583.6,465.6z M615.6,470.1c-2-4.5-11.5-12.5-22.5-21C602.6,459.1,611.1,468.1,615.6,470.1z
								 M593.1,449.1c-0.5-0.5-1.5-1.5-2-2c0,0,0,0,0,0.5C591.6,448.1,592.1,448.6,593.1,449.1z M619.6,467.6c0-5-5-16.5-10.5-29
								C612.6,452.1,616.1,464.1,619.6,467.6z M609.1,438.6c-0.5-1-0.5-2-1-3c0,0,0,0,0,0.5S608.6,437.6,609.1,438.6z"/>
							<path id="SvgjsPath14730" class="st16" d="M639.1,475.6c0,9-7.5,16.5-16.5,16.5c-9,0-16.5-7.5-16.5-16.5
								c0-9,7.5-16.5,16.5-16.5C631.6,459.1,639.1,466.6,639.1,475.6z"/>
							<path id="SvgjsPath14731" class="st19" d="M639.1,475.6c0,9-7.5,16.5-16.5,16.5c-9,0-16.5-7.5-16.5-16.5
								c0-9,7.5-16.5,16.5-16.5C631.6,459.1,639.1,466.6,639.1,475.6z"/>
							
								<linearGradient id="SvgjsPath14732_1_" gradientUnits="userSpaceOnUse" x1="-57.8421" y1="866.2801" x2="-56.5151" y2="867.86" gradientTransform="matrix(5 0 0 -5 888.2049 4837.1499)">
								<stop  offset="0" style="stop-color:#FFFFFF"/>
								<stop  offset="1" style="stop-color:#FFFFFF;stop-opacity:0"/>
							</linearGradient>
							<path id="SvgjsPath14732" class="st29" d="M599.1,495.1c3.5-2,7.5-1.5,10,2c2,3,1,7.5-2,9.5c-3,2-7.5,1.5-9.5-2
								C595.1,501.6,596.1,497.1,599.1,495.1L599.1,495.1z"/>
							
								<linearGradient id="SvgjsPath14736_1_" gradientUnits="userSpaceOnUse" x1="-51.4072" y1="874.6102" x2="-53.4072" y2="872.6102" gradientTransform="matrix(5 0 0 -5 888.2049 4837.1499)">
								<stop  offset="0" style="stop-color:#FFFFFF"/>
								<stop  offset="1" style="stop-color:#FFFFFF;stop-opacity:0"/>
							</linearGradient>
							<path id="SvgjsPath14736" class="st30" d="M635.6,473.1c-1.5,3-6.5,2.5-11-0.5c-4.5-3-7-7.5-5-10.5l0,0c1.5-2.5,6.5-2,11,1
								C635.1,466.1,637.6,470.6,635.6,473.1L635.6,473.1z"/>
							
								<linearGradient id="SvgjsPath14740_1_" gradientUnits="userSpaceOnUse" x1="-47.8387" y1="878.0417" x2="-51.8387" y2="874.0417" gradientTransform="matrix(5 0 0 -5 888.2049 4837.1499)">
								<stop  offset="0" style="stop-color:#FFFFFF"/>
								<stop  offset="1" style="stop-color:#FFFFFF;stop-opacity:0"/>
							</linearGradient>
							<path id="SvgjsPath14740" class="st31" d="M656.1,466.1c-4,6.5-14.5,6.5-23.5,1c-8.5-6-12.5-15.5-8.5-21.5
								c4-6.5,14.5-6.5,23.5-1C656.1,450.6,660.1,460.1,656.1,466.1L656.1,466.1z"/>
						</g>
					</g>
				</g>
				<g id="eyesfront-right-dust00">
					<path id="SvgjsPath5889" class="st3" d="M624.6,354.6c-49.5,0-90,56-90,125s40.5,125,90,125c49.5,0,90-56,90-125
						S674.1,354.6,624.6,354.6z M673.1,494.1c0,0-11,14.5-48.5,15c-19,0-50.5-2-61.5-11l0,0c-4.5-3.5-7-8-6.5-13c0-3,1-5.5,3-8.5
						l0,0c9-15.5,37.5-34.5,67.5-37c12.5-0.5,24.5-1,33,1c19,4.5,27.5,11,29.5,15.5c0.5,0.5,0.5,1.5,0.5,2c-0.5,5,0,8-3.5,16
						c0,0,0,0,0-0.5C683.1,481.1,678.1,488.1,673.1,494.1z"/>
					
						<radialGradient id="SvgjsPath5890_1_" cx="10.1188" cy="829.3282" r="18.705" fx="24.1438" fy="827.2092" gradientTransform="matrix(-4.999 0.104 8.300000e-02 3.999 595.9235 -2855.9065)" gradientUnits="userSpaceOnUse">
						<stop  offset="0" style="stop-color:#E38E72"/>
						<stop  offset="0.7" style="stop-color:#E38E72;stop-opacity:0.3"/>
						<stop  offset="1" style="stop-color:#F2AA92;stop-opacity:0"/>
					</radialGradient>
					<path id="SvgjsPath5890" class="st32" d="M614.6,389.6c-52,0-94,33-94.5,74.5c0,41.5,42,75.5,94.5,75.5c52,0,94-33,94.5-74.5
						C709.1,423.6,667.1,389.6,614.6,389.6z M686.6,473.6c-3.5,7.5-8.5,14.5-13.5,20.5c0,0-11,14.5-48.5,15c-19,0-50.5-2-61.5-11
						l0,0c-4.5-3.5-7-8-6.5-13c0-3,1-5.5,3-8.5l0,0c9-15.5,37.5-34.5,67.5-37c12.5-0.5,24.5-1,33,1c19,4.5,27.5,11,29.5,15.5
						c0.5,0.5,0.5,1.5,0.5,2c-0.5,5,0,8-3.5,16C686.6,474.1,686.6,474.1,686.6,473.6z"/>
					
						<radialGradient id="SvgjsPath5895_1_" cx="-44.0302" cy="850.3173" r="29.508" gradientTransform="matrix(-5.161 -0.2705 0.2705 -5.161 179.7248 4976.4429)" gradientUnits="userSpaceOnUse">
						<stop  offset="0.95" style="stop-color:#000000;stop-opacity:0"/>
						<stop  offset="1" style="stop-color:#000000;stop-opacity:0.3"/>
					</radialGradient>
					<path id="SvgjsPath5895" class="st33" d="M673.1,494.1c5-6,10-13,13.5-20.5c0,0.5,0,0.5,0,0.5c3.5-8,3-11,3.5-16
						c0-0.5,0-1.5-0.5-2c-2-4.5-10.5-11-29.5-15.5c-8.5-2-20.5-1.5-33-1c-30,2.5-58.5,21.5-67.5,37l0,0c-2,3-3,5.5-3,8.5
						c-0.5,5,2,9.5,6.5,13l0,0c11,9,42.5,11,61.5,11C662.1,508.6,673.1,494.1,673.1,494.1z"/>
					<path id="SvgjsPath5899" class="st13" d="M553.1,460.1c34.5-27,54.5-37.5,97-38.5c-29-3-55.5,6-71,16
						C571.6,442.1,558.1,455.6,553.1,460.1z"/>
					<path id="SvgjsPath5900" class="st25" d="M673.1,494.1c-1.5,4.5-9.5,11.5-13.5,13.5c-8.5,4.5-29,5-38.5,4.5
						c-15,0-41.5-1.5-58-14.5c11,9,42.5,11,61.5,11C662.1,508.1,673.1,494.1,673.1,494.1z M647.1,427.6c-35.5-2-78.5,23-91,45
						c-0.5,0.5-0.5,2.5,0,3c0.5,0.5,2,0.5,3.5,0.5c9-15,37.5-33.5,67.5-36c12.5-0.5,24.5-1,33,1c22.5,5,30.5,13,30,17.5
						c-0.5,5,0,7.5-3.5,15.5c0,0,8.5-13,15.5-24.5c3-6,4.5-7,11.5-12c0,0-6.5,0.5-20,0C684.6,437.6,672.1,429.1,647.1,427.6z"/>
				</g>
			</g>
			<g id="eyesiris-single-dust00">
			</g>
			<g id="facehighlight-single-dust00">
				
					<radialGradient id="SvgjsPath5934_1_" cx="-77.3637" cy="846.5167" r="40.0249" gradientTransform="matrix(5 0 0 -5 881.4549 4837.3999)" gradientUnits="userSpaceOnUse">
					<stop  offset="0" style="stop-color:#FFC6B3;stop-opacity:0.5"/>
					<stop  offset="0.9" style="stop-color:#F2AA92;stop-opacity:0"/>
				</radialGradient>
				<path id="SvgjsPath5934" class="st34" d="M695.6,604.6c0,111.5-90,202-201.5,202c-111,0-201.5-90-202-201.5
					c0-111,90-201.5,201.5-202C605.1,403.1,695.6,493.1,695.6,604.6z"/>
				
					<radialGradient id="SvgjsPath5938_1_" cx="-77.3637" cy="902.5667" r="36" gradientTransform="matrix(5 0 0 -5 881.4549 4837.3999)" gradientUnits="userSpaceOnUse">
					<stop  offset="0" style="stop-color:#FFC6B3;stop-opacity:0.5"/>
					<stop  offset="0.9" style="stop-color:#F2AA92;stop-opacity:0"/>
				</radialGradient>
				<path id="SvgjsPath5938" class="st35" d="M669.6,319.6c0,96.5-78.5,175-175,175s-175-78.5-175-175s78.5-175,175-175
					S669.6,223.1,669.6,319.6z"/>
			</g>
			<g id="nose-single-dust00" transform="translate(0 -2.5)">
				<path id="SvgjsPath5950" class="st13" d="M520.1,619.1c5,0,6.5,1.5,6.5,3c0,2-1.5,4.5-6.5,3c-5.5-1-15.5-0.5-15.5-0.5
					S514.6,619.1,520.1,619.1z M469.6,619.1c-5,0-6.5,1.5-6.5,3c0,2,1.5,4.5,6.5,3c5.5-1,15.5-0.5,15.5-0.5S475.1,619.1,469.6,619.1
					z M537.6,600.1c0,0,7.5,8.5,6,17.5c-1.5,8.5-16.5,12-16.5,12s10.5-6.5,11.5-14.5C539.1,611.6,537.6,600.1,537.6,600.1z
					 M447.6,591.6c0,0-5,12-3.5,19c2.5,12.5,18,17.5,18,17.5s-9.5-8.5-13-16.5C445.1,603.6,447.6,591.6,447.6,591.6z"/>
				<path id="SvgjsPath5951" class="st4" d="M519.6,606.6c5-4,5.5-6,4.5-7.5c-1-1.5-4-2.5-8,2.5c-5,5-15,8.5-15,8.5
					S514.6,610.1,519.6,606.6z"/>
			</g>
			<g id="mouth-single-dust00" transform="matrix(1 0 0 1.1557 0 -21.50844601478576)">
				<path id="SvgjsPath7946" class="st5" d="M501.1,704.8c-27,0-49.5-26-49.5-26c47,9.5,104-5.5,104-5.5S535.1,704.8,501.1,704.8z"
					/>
				<path id="SvgjsPath7947" class="st36" d="M500.6,650.8c-17.5,0-57-8.5-72-15c-9-4-24-17.5-35-24c-4-2.5-2.5-7.5,3-8
					c13-0.5,30,5,38,6c16.5,2,37.5,9.5,65.5,9.5c21,0,44-6,58.5-8c9-1.5,29-7,43.5-7.5c5.5-0.5,7.5,4,3.5,6.5c-11,7.5-29,22-39,26
					C551.6,642.3,516.1,650.3,500.6,650.8z"/>
				<path id="SvgjsPath7948" class="st37" d="M504.6,673.3c-10.5,0.5-35-4-44-7.5c-5.5-2-15-10-21.5-14
					c-2.5-1.5-23.5-16.5-20.5-16.5c8-0.5,40.5,12.5,45.5,13c10,1,21.5,4.5,38.5,4c13-0.5,29.5-5,38.5-7c5.5-1,34.5-15.5,43.5-16
					c3.5-0.5-14.5,16-17,18c-6.5,5-17.5,14-23,16.5C535.6,666.8,514.1,672.8,504.6,673.3z"/>
				<path id="SvgjsPath7949" class="st38" d="M558.1,605.8c-26.5,1.5-53.5,1-80,0.5c-3.5,0-7-0.5-10.5-0.5c-18,0.5-36,0.5-54,0
					c-2,0-4.5,0-6.5,0c1,4.5,2,9,3.5,11.5c4.5,7,31,21.5,41.5,23.5c7,1.5,20.5,3.5,28,4.5c8,1,12.5,0,20.5,0c8.5-0.5,16,1,24.5-1
					c6-1.5,23.5-6,29-8.5c4.5-2,13-5,17-7.5c3.5-2,13.5-10,15.5-13.5c1-2,2-5.5,3-9.5C579.1,606.3,568.6,605.8,558.1,605.8z"/>
				<path id="SvgjsPath7950" class="st39" d="M451.6,604.3c0,0-3.5,33.5-3.5,34c-0.5,0.5-1-34-1-34H451.6z M465.6,607.8l3,35.5
					l2-35.5H465.6z M498.6,613.3l3.5,32.5l2.5-33L498.6,613.3z M527.6,606.3c6.5,0.5,8.5,34.5,8.5,34.5l1-34.5H527.6z M551.6,602.3
					c0,0,2.5,32.5,3,32c0.5-0.5,1-32,1-32H551.6z M430.1,602.3l2,26.5l2-26.5H430.1z M568.6,599.8l0.5,28l3-28H568.6z M431.1,647.3
					c0,0,0.5-10.5,1-10.5c0.5,0,3,10.5,3,10.5H431.1z M470.1,658.3l-1.5-10.5l-2.5,10.5H470.1z M504.6,665.8l-1.5-15l-2.5,14.5
					L504.6,665.8z M537.1,660.8l-0.5-15.5c0,0-1,15.5-4.5,15.5H537.1z M556.6,652.3c0,0-0.5-12-0.5-12.5l-2,12.5H556.6z
					 M449.6,649.8l-1.5-8l-1.5,8H449.6z M572.6,642.8l-2.5-8.5l-0.5,8.5H572.6z"/>
				<path id="SvgjsPath7951" class="st40" d="M610.1,601.8c-8-3.5-24.5-1-32.5-2.5c-12-2-35.5-3.5-47.5-3c-7.5,0.5-22,4-29.5,4
					s-23-4-30.5-4c-12,0-36.5,2-48.5,4.5c-8,2-25-1-31.5,4c-1.5,1-0.5,6,0,8c5.5,17,27,36.5,45.5,53c24,21.5,49,28,68.5,28
					c26,0,56.5-18.5,82-46.5c11.5-12.5,25.5-25,28-37C614.6,604.3,612.1,602.3,610.1,601.8z M500.6,661.3c-16,0-53-10-69-20.5
					c-9.5-6.5-24-21-33.5-30.5c-4-3.5,34.5,9.5,42,11c15.5,2.5,34.5,6.5,60.5,6.5c19.5,0,40.5-2,54-4.5c8-2,50.5-17.5,46.5-14
					c-10.5,10.5-28,26.5-39,33.5C548.6,651.3,515.1,660.8,500.6,661.3z"/>
				<path id="SvgjsPath7952" class="st41" d="M417.6,642.8c16.5,4.5,54,30,86,28.5c33-1.5,81.5-39,88-35c2.5,10-63.5,57.5-88,58.5
					C481.1,695.3,410.6,653.8,417.6,642.8z M498.6,618.3c20-0.5,44.5-3.5,61-14c-19-8.5-44.5,1-59.5,1.5
					c-19.5,0.5-35.5-7.5-53.5,0.5C463.6,613.8,481.1,618.8,498.6,618.3z"/>
				<path id="SvgjsPath7953" class="st41" d="M487.6,663.3c-12-2.5-12.5-4-1-2.5c7,0.5,14,1,21,0c1,0,2,0,2.5-0.5
					c7.5-1,16-3.5,24.5-6.5c13-5,13-4,0.5,3c-9.5,5-18,8.5-24.5,9h-0.5C504.1,666.3,496.1,665.3,487.6,663.3z"/>
			</g>
			<g id="eyebrows-left-dust00">
				<path id="SvgjsPath5917" class="st42" d="M269.6,434.6c15.5-58,175.5-6,182.5-56c0.5-6-2.5-9.5-13-2
					C411.1,400.6,275.1,373.1,269.6,434.6z"/>
			</g>
			<g id="eyebrows-right-dust00">
				<path id="SvgjsPath5918" class="st42" d="M719.6,434.6c-15.5-58.5-175.5-5-182.5-56c-0.5-6,2.5-9.5,13-2
					C578.1,400.6,714.1,373.1,719.6,434.6z"/>
			</g>
			<g id="beardwrap-dust00">
				<g id="beard-single-dust00">
				</g>
			</g>
			<g id="mustache-single-dust00">
			</g>
			<g id="hair-front-dust00">
				<path class="st43" d="M217.1,1097.1h198c-2.7-21.4-5.9-41.7-9.4-58.9l-188.6,0.6V1097.1z"/>
				<path class="st43" d="M799.1,133.6h-582v905.2l188.6-0.6c-3-14.6-6.2-26.9-9.6-35.6c-38.5-98-173.5-124-150-253h1
					c26,56,38,88.5,98,98.5c-83.5-68-67.5-131.5-55.5-212c6.5-47-8-84-18-121.5c11.5-35,18-68,24-105.5
					c56.5-336.5,308-321,380-104.5c45.5,137,7.5,180.5,64,266.5c2.5,60,15,124.5-57,209.5c-16,18.5-39.5,38-60,51
					c75-6.5,116.5-78.5,141.5-149.5h1C735,935.8,627.1,852.6,598.8,1037.5l200.3-0.7V133.6z"/>
				<path class="st43" d="M598.8,1037.5c-2.6,17.3-4.6,37-5.7,59.6h206v-60.3L598.8,1037.5z"/>
				<path id="SvgjsPath11714" class="st2" d="M415.6,162.1c0,0,67.5,14,77.5,42c-49.5-2-71-18.5-140,8.5
					C369.1,185.1,415.6,162.1,415.6,162.1z M576.6,158.6c0,0-74.5-3-83.5,45.5c49-2,79-24,149,7.5
					C632.6,183.6,576.6,158.6,576.6,158.6z"/>
				<path class="st44" d="M816.6,1036.7l-225.8,0.8c-1.9,39.2-0.7,88.8,4.4,152.7l229,2.4C807.9,1120.4,809,1072.6,816.6,1036.7z"/>
				<path class="st44" d="M417.9,1038.1l-249.9,0.8c13.9,65.7-8.7,81.5-12.7,146.8l266,2.7C422.6,1138.1,422.9,1078.4,417.9,1038.1z
					"/>
				<path class="st44" d="M410.6,1004.1c-40.5-102-168.5-135-175.5-249h1c27,58.5,48.5,82.5,111,92.5c-87-71-69-126-67-211
					c1.5-49.5-8.5-87.5-18.5-127c12-36,18.5-70.5,25-110c26.5-159.5,116.5-282.5,205.5-196l1-1.5c0.5,0.5,0.5,0.5,1,1.5
					c76-84.5,149-14,189,87.5c55,139.5,7.5,188,66.5,277.5c2.5,63,5.5,127-69.5,215.5c-16.5,19.5-36.5,35-58.5,48.5
					c78.5-7,127.5-74,153.5-148h1c-64,244.3-174.5,130.6-185.3,352.9l225.8-0.8c16.1-75.6,61-98.8,33.5-188.7
					c-39-127.5,68-170,1-292.5c62.5-424.5-142-589.5-332.5-542.5c-210.5-51.5-371,56-396,348.5c-4,102.5,7,180,9,198.5
					c-14.5,29-23,60.5-27,93.5c-11.5,9.5-21.5,17.5-33.5,26c6-1,15.5-2,32.5-7c-4,114,52.5,134,49,228.5c-3.5,63.5-3.5,69,8.5,111
					c2.9,9.9,5.2,18.7,6.9,26.9l249.9-0.8C416.2,1024,413.8,1012.2,410.6,1004.1z"/>
				<path class="st45" d="M492.7,197.9c4.8-6.8,10.1-12.8,15.7-18.2c51.4-53.5,105.4-53.9,140.2-33.1c31,18.5,52.5,50.5,67.5,85.5
					c35.5,91,29,174,69,264c25,60,60,111,62,164.5c-1.5,22-15.4,75.7-23,94.8c4.5-10.5,31-61.2,31-90.8c0-34.5-8-79.5-27.5-111
					c-57-93.5-54.5-206-93-324c-22.5-69-121.9-197.9-242.3-31.2c0,0,0,0,0,0C492.4,198.2,492.6,198,492.7,197.9z"/>
				<path class="st45" d="M230.1,149.1c2-4,4.1-8,6.3-11.8C228.2,150.2,226.6,156.7,230.1,149.1z"/>
				<path class="st45" d="M824.1,755.4c-0.2,0.5-0.4,0.9-0.5,1.2C823.8,756.2,824,755.8,824.1,755.4z"/>
				<path class="st45" d="M130.6,562.1c120-184.5,69.5-284,114-382.5c10-25,31-43,55-70c-40.5,34-70,65-80,120
					c-20.5,103.5-28,214.5-92.5,292c2,19,3.5,32,4.5,38.5C131.1,561.1,130.6,561.6,130.6,562.1z"/>
				<path class="st45" d="M492.3,198.4c0.3,1.2,0.6,2.4,0.8,3.7c0.5,0.5,0.5,0.5,1,1.5c76-84.5,149-13.5,189,87.5
					c55,140,7.5,188,66.5,277.5c13,118.5-35.5,206-128,264c76.5-35,141-92.5,151-233.5l2,1c27.5,35.5,45,143,28.5,200.5
					c71-170.5-24.5-186-52.5-296c-30-119-30-327.5-136-350c-43.3-9.2-79.3-0.4-106.2,25.1c-5.3,5.5-10.5,11.5-15.7,18.2
					C492.6,198,492.4,198.2,492.3,198.4z"/>
				<path class="st45" d="M492.7,197.9c5.2-6.6,10.4-12.7,15.7-18.2C502.8,185,497.5,191.1,492.7,197.9z"/>
				<path class="st45" d="M669.1,80.1c-68.5-42.5-137.5-7.5-166.5,61.5c40-85,126-92,169-59C689.1,95.6,682.1,89.6,669.1,80.1z"/>
				<path class="st45" d="M370.6,48.6c42-8.5,97-4.5,124,31C453,19,304.3,19,236.4,137.3C252.4,112.4,293.5,63.7,370.6,48.6z"/>
				<path class="st45" d="M733.6,118.6c-89.5-125.5-207.5-81.5-236-12C535.1,29.1,654.6,12.6,733.6,118.6z"/>
				<path class="st45" d="M710.1,139.6c38.5,33.5,56.5,80,56.5,125c9,107.2,19.9,214,84.5,290.9c1-6.6,3-22.4,4-28.4
					c-29-34-57-93.5-65.5-157.5C779.1,289.6,790.1,197.1,710.1,139.6z"/>
				<path class="st45" d="M851.2,555.6c0,0-0.1-0.1-0.1-0.1C851.1,555.5,851.1,555.5,851.2,555.6
					C851.1,555.6,851.2,555.6,851.2,555.6z"/>
				<path class="st45" d="M851.2,555.6c0.1,0.2,0.3,0.3,0.4,0.5C851.6,555.7,851.4,555.6,851.2,555.6z"/>
				<path class="st45" d="M360.5,83.7c-3.7,1.4-6.6,2.9-8.4,4.4C354.7,86.5,357.5,85,360.5,83.7z"/>
				<path class="st45" d="M501.1,143.1c-14-73.6-99.1-77.8-140.6-59.4C391.5,72.3,481.9,69.4,501.1,143.1z"/>
				<path class="st45" d="M668.1,104.1c6.5,4,10.5,8,10.5,7.5c-1-0.5-5.5-5-13-10.5c-58-38-149,6-169.5,75.5
					C520.1,108.1,612.6,67.1,668.1,104.1z"/>
				<path class="st45" d="M355.1,103.1c41.5-10.5,120-2.5,144,60c-22.5-69-119-88-177.5-45.5C304.1,131.6,343.6,106.1,355.1,103.1z"
					/>
				<path class="st45" d="M816.6,1036.7l-85.5,0.3c-4,12.9-7.7,25-11,36c-2.7-12.1-3.7-24.1-3.6-36l-73.3,0.2
					c-7.5,50.1,0.3,102,4.7,153.5l176.3,1.8C807.9,1120.4,809,1072.6,816.6,1036.7z"/>
				<path class="st45" d="M417.9,1038.1l-46.2,0.2c18.2,52.9,13.4,92.6,11.9,149.8l37.8,0.4C422.6,1138,422.9,1078.2,417.9,1038.1z"
					/>
				<path class="st45" d="M619.6,1037.4l-28.8,0.1c-1.9,39.2-0.7,88.8,4.4,152.7l26.3,0.3C617.5,1124,616.8,1075,619.6,1037.4z"/>
				<path class="st45" d="M410.6,1004.6c-39-98.5-220.5-157-167-313.5c-48.5,65.5-23,120.5,8.5,156.5
					c69.7,87.5,103.6,144.2,119.6,190.7l46.2-0.2C416.2,1024.1,413.8,1012.6,410.6,1004.6z"/>
				<path class="st45" d="M190.6,749.6c-7-24,43-78.5,26.5-153.5c-3,50.5-29.5,89.5-42.5,133.5c-17.4,147.4,98.6,187.4,85.5,309.1
					l66.7-0.2c-7.2-28.4-19.4-56.8-38.7-86.8C253.6,898.1,182.1,843.1,190.6,749.6z"/>
				<path class="st45" d="M326.9,1038.4l-66.7,0.2c-2,18.3-6.8,38.4-15.5,60.9c0-23.7-1.8-43-5.3-60.9l-22.6,0.1
					c4.7,36.3,4.9,71.8-17.1,115.8c0,0,14-59,1.5-87c-3.3-10-6.2-19.6-8.7-28.7l-24.4,0.1c13.9,65.7-8.7,81.5-12.7,146.8l177,1.8
					C337.2,1132.6,338.9,1085.5,326.9,1038.4z"/>
				<path class="st45" d="M206.1,942.6c0,36,6.8,66.4,10.6,96.2l22.6-0.1C233.3,1007.5,222,980.7,206.1,942.6z"/>
				<path class="st45" d="M850.1,848.1c-7.5-26-20.5-59.5-20.5-59.5c9.5,109-7.5,147-28,192.5c-2.5-50.5,3.5-73,6.5-153.5
					c-22.1,43.3-54.5,137.6-77,209.5l85.5-0.3C832.7,961.1,877.7,937.9,850.1,848.1z"/>
				<path class="st45" d="M781.6,755.1c-2.5,24.5-9,53.5-12,64.5c-15,60-85,107-107,155c-10.2,20.5-16.2,41.4-19.4,62.8l73.3-0.2
					C717.4,941.3,797.2,851.1,781.6,755.1z"/>
				<path class="st45" d="M728.1,847.6c46-46.5,66-149.5,57-217.5c-4,20.5-7.5,40.5-12.5,60.5c1-2,1.5-4,2.5-6h1
					c-64,244.3-174.5,130.6-185.3,352.9l28.8-0.1C627.3,932.7,661.8,915.2,728.1,847.6z"/>
				<path class="st45" d="M105.1,670.1c0,0.4,0,0.7,0,1.1c0.1,0,0.1,0,0.2-0.1C105.3,670.7,105.2,670.4,105.1,670.1z"/>
				<path class="st45" d="M338.1,846.1c3,0.5,6,1,9,1.5c-87-71-70.5-126-68.5-211c1.5-47.9-8-86.8-17.9-124.3
					c-1.5,4.2-4.1,11.4-8.3,20.5C297.2,648,203.4,753.8,338.1,846.1z"/>
				<path class="st45" d="M492.3,198.4c-0.3,0.4-0.6,0.8-0.8,1.2c0.6,0.8,1.1,1.6,1.7,2.4C492.9,200.8,492.6,199.6,492.3,198.4z"/>
				<path class="st45" d="M492.1,203.6l1-1.5c-0.6-0.8-1.1-1.6-1.7-2.4c-0.4,0.6-0.9,1.3-1.3,1.9
					C490.6,202.6,491.1,203.1,492.1,203.6z"/>
				<path class="st45" d="M492.3,198.4c-0.1,0.1-0.1,0.1-0.2,0.2C492.2,198.5,492.2,198.4,492.3,198.4
					c-18.4-75.9-103.5-93.4-152.7-68.8c-125,75-94.5,217.5-124.5,330c-15.5,60-57.5,114-103,153.5c-3,12-5.5,24.5-7,36.5
					c191-122.5,115.5-367.5,195.5-456.5c57.5-64,125.8-88.6,190.8,6.6C491.8,199.2,492,198.8,492.3,198.4
					C492.3,198.4,492.3,198.4,492.3,198.4z"/>
				<path class="st45" d="M159.6,809.6c-13.9-38.3-40.7-70.7-54.3-138.5c-0.1,0-0.1,0-0.2,0.1c3.8,97.8,52.9,146.2,50,229.9
					c-3.5,63.5-6,69,6,111c2.9,9.9,5.2,18.7,6.9,26.9l24.4-0.1C163.9,932.9,189.1,884.6,159.6,809.6z"/>
				<path class="st45" d="M492.3,198.4C492.3,198.4,492.3,198.4,492.3,198.4c-0.1,0.1-0.1,0.1-0.2,0.2
					C492.2,198.5,492.2,198.4,492.3,198.4z"/>
				<path class="st45" d="M105.3,671.1c87.3-29,129.9-100.3,147.1-138.2c-0.1-0.3-0.2-0.5-0.3-0.8c3-6.5,6-13.5,8.5-20
					c0,0.1,0,0.2,0.1,0.2c0.4-1.1,0.7-2.1,0.9-2.7c12-36,18.5-70.5,25-110c26.5-158.5,115.5-280.5,203.5-198c-28.5-29.5-45-43-84-35
					c-36,7.5-74,46-95,81.5c-32,55.5-37.5,141.5-63,234c-22,78.5-70,152.5-168.5,196c8.9-1.9,17.4-4.2,25.5-6.9c0-0.4,0-0.7,0-1.1
					C105.2,670.4,105.3,670.7,105.3,671.1z"/>
				<path class="st45" d="M252.1,532.1c0.1,0.3,0.2,0.5,0.3,0.8c4.1-9.1,6.8-16.3,8.3-20.5c0-0.1,0-0.2-0.1-0.2
					C258.1,518.6,255.1,525.6,252.1,532.1z"/>
				<path class="st46" d="M736.6,215.1c5,12,7,19.5,7,18c-1-1.5-3-10.5-8-23.5c-37.5-108.1-139.9-134.1-233.9-29.7
					c0.1,0.1,0.2,0.3,0.3,0.4C597.4,82.7,692.8,104.1,736.6,215.1z"/>
				<path class="st46" d="M485.6,159.6c-113-138-241,24-252.5,145c18.5-122,128-236.5,218-174.5c21.9,15.6,42.7,40.2,50.5,49.9
					c0,0,0-0.1,0.1-0.1C498.6,175.7,493.1,168.4,485.6,159.6z"/>
				<path class="st46" d="M345.6,984.6c-57.5-107.5-155.5-171-119.5-268.5c12-32,20-46.5,16-111.5c0.5,45-1.5,65-17.5,102.5
					c-44,103.5,27,144.5,112.5,265C356.6,1004.1,350.1,993.6,345.6,984.6z"/>
				<path class="st46" d="M501.6,179.9c0.1,0.1,0.2,0.3,0.3,0.4c0,0,0,0,0.1-0.1C501.9,180.1,501.8,180,501.6,179.9
					C501.7,179.9,501.7,179.9,501.6,179.9z"/>
				<path class="st46" d="M166.1,801.1c10,56.5,57,128,75.5,190.5c8.5,29.5,9,31-1-6.5c-56-177-108.5-197.5-51-347
					C189.6,638.1,145.6,722.6,166.1,801.1z"/>
				<path class="st46" d="M199.1,588.1c71.5-88,56.5-123,75.5-230c-15.5,71-17.5,169-79,232.5C177.1,609.6,185.6,601.6,199.1,588.1z
					"/>
				<path class="st46" d="M258.6,572.1c-2,51.5-0.5,17.5-2,65.5c-0.5,63.5-32.5,108.5,34.5,176.5c20.5,16-14.5-17-20.5-27
					c-11-19-19-42.5-16.5-65C257.1,652.6,260.6,715.1,258.6,572.1z"/>
				<path class="st46" d="M806.1,598.5c0,0,0,0.1,0.1,0.1C806.2,598.6,806.2,598.6,806.1,598.5z"/>
				<path class="st46" d="M806.1,598.5c-34.9-59.8-22.5,7-74.9-218.9c19.5,100,17.5,147,66.5,208
					C802.3,593.9,805.5,597.7,806.1,598.5z"/>
				<path class="st46" d="M848.1,485.6c0-2,1-14,1.5-31c2.5-110.5-22.5-291.5-111-359.5C853.6,196.1,847.6,491.6,848.1,485.6z"/>
				<path class="st46" d="M735.9,1004.2c44.8-194.4,69.7-132.1,58.7-328.7c0,220-25,124-56,310.5
					C737.3,994.9,736.4,1001.5,735.9,1004.2z"/>
				<path class="st46" d="M504.6,183.6c-0.4-0.4-1.3-1.6-2.6-3.3c0,0,0,0-0.1,0.1C504.5,183.4,505.5,184.8,504.6,183.6z"/>
				<path class="st46" d="M735.9,1004.2c-0.1,0.4-0.2,0.9-0.3,1.3C735.6,1006,735.7,1005.6,735.9,1004.2z"/>
				<path class="st46" d="M494.1,188.6c2.6-2.8,5.2-5.6,7.8-8.2c-0.1-0.1-0.2-0.3-0.3-0.4C499.1,182.7,496.6,185.6,494.1,188.6z"/>
				<path class="st46" d="M395.6,164.1c-3.1,1-6.1,2.1-9.1,3.2c7.8-2.7,14.4-4.4,18.8-5.8C403.6,162,400.3,162.8,395.6,164.1z"/>
				<path class="st46" d="M144.5,435.8C144.2,440.6,144.3,441.1,144.5,435.8L144.5,435.8z"/>
				<path class="st46" d="M694.6,96.6c18.3,17.9,33.8,34.9,39.3,40.8c-23.2-25.3-108.6-164-233.3-13.8
					C561.6,56.6,628.6,34.6,694.6,96.6z"/>
				<path class="st46" d="M215.1,200.6c35-82,138-171,234.5-127c19,8.5,32.5,18.5,38.5,23c-134-103-275.5,18.5-292.5,174.5
					C189.6,325.1,206.1,222.6,215.1,200.6z"/>
				<path class="st46" d="M266.1,81.6c-105.5,92.5-116.5,192-121,336c-0.3,8.8-0.5,14.7-0.6,18.2c1.5-28,13.1-203.6,58.1-274.7
					C224.6,122.1,235.6,110.6,266.1,81.6z"/>
				<path class="st46" d="M620.1,1037.4l-0.5,0c0.5,11.1,2.5,15.7,2.5,15.7C621.2,1048.2,620.2,1045.3,620.1,1037.4z"/>
				<path class="st46" d="M620.1,1036.6c10.5-157,126.5-130,158-301c-27.5,139.5-124,139-151,241.5c-7,29.2-8.1,48.5-7.5,60.3l0.5,0
					C620.1,1037.1,620.1,1036.9,620.1,1036.6z"/>
				<path class="st46" d="M733.9,137.3c0.3,0.3,0.6,0.6,0.9,0.9C734.6,138,734.3,137.7,733.9,137.3z"/>
				<path class="st46" d="M572.6,148.6c2.9-0.1,5.8-0.2,8.6-0.2C578.4,148.4,575.6,148.4,572.6,148.6z"/>
				<path class="st46" d="M406.6,161.1c-0.4,0.1-0.8,0.3-1.3,0.4C406.4,161.2,406.8,161.1,406.6,161.1z"/>
				<path class="st46" d="M712.1,274.6c13.5,42.5-9.5-41.5-23.5-68c-25.5-48.2-58.7-58.9-107.4-58.2
					C661.3,147.9,685.1,195.8,712.1,274.6z"/>
				<path class="st46" d="M736.1,139.6c-0.4-0.4-0.9-0.8-1.3-1.3C735.7,139.2,736.1,139.6,736.1,139.6z"/>
				<path class="st46" d="M285.6,297.1c16-69.5,54.8-111.6,100.9-129.8C354.4,178.4,300.6,206,285.6,297.1z"/>
				<path class="st46" d="M688.6,797.1c88-84.5,68.5-139,85-174c-16.5,35.5-4.5,72-65.5,153c-8.5,10.5-23.5,21.5-28,30.5
					C679.1,808.6,682.6,802.6,688.6,797.1z"/>
				<path class="st47" d="M781.6,755.1C762.7,919.8,651.9,908.4,638,1037.3l7.9,0c0.1-0.6,0.1-1.2,0.2-1.8
					C660.1,910.6,766.1,920.1,781.6,755.1z"/>
				<path class="st47" d="M330.7,1038.4l-6.4,0c5.9,26.5,8.1,95.6,8.9,149.1l3.4,0C338.4,1118,337.2,1073,330.7,1038.4z"/>
				<path class="st47" d="M418.3,1038.1l-7.9,0c6,33.3,7,78.6,7.8,150.3l3.7,0C422.9,1139.3,423.2,1078.9,418.3,1038.1z"/>
				<path class="st47" d="M161.1,1155.6c6.5-29.5,18-60.5,16.5-91.5c-0.5-8.5-1.9-16.9-3.7-25.1l-5.7,0c1.9,8,3.5,16,4.3,24.1
					c3.4,40.8-14.3,67.1-18,122.6l1.7,0C157.1,1177.1,158.6,1167.9,161.1,1155.6z"/>
				<path class="st47" d="M817.1,1036.7l-5.2,0c-7.2,37.2-7.5,85.3,10.1,155.8l1.8,0C807.4,1121.8,808.9,1073.8,817.1,1036.7z"/>
				<path class="st47" d="M645.9,1037.3l-7.9,0c-0.8,7.3-1.3,15-1.4,23.2c0,6.2,4.7,77.3,8.2,130.2l4.3,0
					C646,1111.8,640.9,1081,645.9,1037.3z"/>
				<path class="st47" d="M595.8,1037.5l-5.6,0c-1.9,39.2-0.7,88.8,4.5,152.7l2.5,0C592.7,1126.4,592.5,1076.8,595.8,1037.5z"/>
				<path class="st47" d="M158.1,970.6c-4-30.5,2.5-61.5,2.5-92.5c0.5-61-51-104.5-48-208c40.5-13.5,77-38,104.5-74
					c5,106-27.5,99.5-32,159c-7.5,100.5,110.5,178.5,138.5,280.5c0.2,0.9,0.5,1.8,0.7,2.8l6.4,0c-10.2-54.6-33.4-83.5-78.6-142.8
					c-113-148-38-173.5-33-251.5c1-16.5,0-33-1-49c11-14.5,20-29.5,27.5-45.5c4,66.5,4.5,67,4,79.5c-3,86-73.5,141.5,61.5,269.5
					c63.7,60.2,88.8,82.1,99.2,139.6l7.9,0c-1.7-14.1-4-25.9-7.1-34c-40.5-102.5-168.5-135.5-175.5-249c1.5,5,17,39,34.5,57
					c22.5,23.5,47.5,31.5,79,36.5c-90-65.5-70-140.5-68.5-212c1.5-49-8-86.5-18.5-127c21.5-62,24.5-122,37-169
					c28.5-108,111.5-219.5,193-136c0-0.5,1-1.5,1-1.5s1,1,1,1.5c67-84.5,145.5-22,188.5,86.5c55,139.5,8,188.5,66.5,278
					c2.5,59,7,125-69.5,214.5c-16.5,20-42,39.5-60,50c78.5-4.5,130-74.5,156-149c-65.3,243.8-174.8,131.3-185.4,352.9l5.6,0
					c14-171,91-146.2,145.4-243.4c25-43.5,43.5-112.5,44-174.5c41,58.5,38.5,87.5,24,164c27-42.5,49-112.5,32.5-164
					c-5.5-22-24-59.5-31.5-74.5c-54-112.5-44.5-118.5-65-227c-37-201-166-235.5-252-116.5c-87.5-139.5-226.5-41-245,127
					c-7,62-1.5,192.5-133.5,315c9.5-75,43.5-111.5,69-171c63-148.5,9-252.5,93-336.5c-91.5,91-27,200.5-111.5,361
					c-9.5,18-20.5,36-30,54.5c-29.5-321,82-605,378-535c204-51.5,321,127,338,339c7.5,91-1.5,173-3,193.5c-14-24-31.5-47-41.5-74
					c-59.5-156.5-7.5-260-96.5-336c90.5,81.5,32.5,209.5,99,358c13,24.5,29,47,40.5,71.5c48,101-38,159-15.5,254.5
					c6.5,27.5,18.5,53,19,81.5c-4.1,45.2-30.4,76.4-41.2,132.2l5.2,0c9.9-44.4,29.4-73.1,39-106.7c17-58.5-17.5-89.5-15.5-137.5
					c5.5-97.5,65-132,11-237.5c60.5-429-144.5-589.5-333-542.5c-318-76-426,203.5-387.5,547.5c-14.5,29-23.5,61-26.5,93
					c-13.5,11.5-30.5,24-35.5,27c11.5-1.5,22.5-3.5,34-7c-2.5,65,17,104.5,34.5,146.5c31.5,74.5,1,106.5,17,170.5
					c4,16.2,9.7,32.4,13.7,48.9l5.7,0C169.1,1016.2,161.1,994,158.1,970.6z M630.1,830.1c12.5-7.5,25-16,35.5-26
					c79-75.5,92.5-141.5,85.5-231.5c10.5,15.5,22,30,32.5,45C783.6,699.6,717.6,817.6,630.1,830.1z M740.1,333.6
					c22,145,27.5,135.5,76,236.5c22,45,51.5,104-4.5,207c38.5-178-72.5-156-86.5-298c-5-52-3.5-145-64.5-243.5
					c-43.5-70.5-108-102-166.5-32.5c0,0,0-0.5-0.5-1C572.6,95.1,705.6,104.6,740.1,333.6z M276.6,610.6c0.5,73-31.5,168.5,66,235.5
					c-58-10.5-82-42-107-95.5c-1.5-29,9.5-60.5,14.5-89.5c5.5-28.5,2-54.5-3.5-113.5c5.5-11.5,10.5-24,15-36
					C269.1,544.1,276.6,577.1,276.6,610.6z M77.1,677.1c209-136,158.5-335.5,195-429c36.5-92,138.5-170,220.5-45.5
					c0,0.5-0.5,0.5-0.5,1c-87-91.5-180.5,44.5-203.5,157c-22.5,109-35,257-176,307l-9.5,3C94.6,673.6,85.6,675.6,77.1,677.1z"/>
			</g>
			<g id="glasses-single-dust00">
			</g>
		</g>
	</g>
</g>
</svg>
