<?xml version="1.0" encoding="utf-8"?>
<!-- Generator: Adobe Illustrator 17.0.0, SVG Export Plug-In . SVG Version: 6.00 Build 0)  -->
<!DOCTYPE svg PUBLIC "-//W3C//DTD SVG 1.1//EN" "http://www.w3.org/Graphics/SVG/1.1/DTD/svg11.dtd">
<svg version="1.1" id="Layer_1" xmlns="http://www.w3.org/2000/svg" xmlns:xlink="http://www.w3.org/1999/xlink" x="0px" y="0px"
	 width="40px" height="40px" viewBox="0 0 40 40" enable-background="new 0 0 40 40" xml:space="preserve">
<path fill="#000000"  d="M16.015,24.425V6.086
	c0-2.199,1.799-3.999,3.999-3.999l0,0c2.2,0,4,1.8,4,3.999v18.339l4.217-4.217c1.555-1.556,4.1-1.556,5.656,0l0,0
	c1.555,1.555,1.555,4.1,0,5.655c0,0-9.354,9.363-11.04,11.05c-1.469,1.469-4.228,1.437-5.666,0
	c-1.105-1.105-11.039-11.05-11.039-11.05c-1.556-1.555-1.556-4.101,0-5.655l0,0c1.555-1.556,4.101-1.555,5.655,0L16.015,24.425
	L16.015,24.425z"/>
</svg>
