<?xml version="1.0" encoding="utf-8"?>
<!-- Generator: Adobe Illustrator 17.0.0, SVG Export Plug-In . SVG Version: 6.00 Build 0)  -->
<!DOCTYPE svg PUBLIC "-//W3C//DTD SVG 1.1//EN" "http://www.w3.org/Graphics/SVG/1.1/DTD/svg11.dtd">
<svg version="1.1" id="Layer_1" xmlns="http://www.w3.org/2000/svg" xmlns:xlink="http://www.w3.org/1999/xlink" x="0px" y="0px"
	 width="40px" height="40px" viewBox="0 0 40 40" enable-background="new 0 0 40 40" xml:space="preserve">
<path fill="#000000"  d="M24.394,23.985H6.055c-2.2,0-4-1.799-4-4l0,0
	c0-2.199,1.799-3.999,4-3.999h18.338l-4.217-4.217c-1.555-1.555-1.556-4.1,0-5.655l0,0c1.555-1.556,4.1-1.556,5.656,0
	c0,0,9.364,9.354,11.049,11.039c1.469,1.469,1.438,4.229,0,5.666c-1.105,1.105-11.049,11.039-11.049,11.039
	c-1.555,1.556-4.101,1.556-5.656,0l0,0c-1.555-1.556-1.554-4.101,0-5.655L24.394,23.985L24.394,23.985z"/>
</svg>
