<?xml version="1.0" encoding="utf-8"?>
<!-- Generator: Adobe Illustrator 22.1.0, SVG Export Plug-In . SVG Version: 6.00 Build 0)  -->
<svg version="1.1" id="Layer_1" xmlns="http://www.w3.org/2000/svg" xmlns:xlink="http://www.w3.org/1999/xlink" x="0px" y="0px"
	 viewBox="0 0 240.8 241.2" style="enable-background:new 0 0 240.8 241.2;" xml:space="preserve">
<path d="M93.1,14.1c4.4-1.1,8.9-2,13.5-2.5c1.1-0.1,2.3-0.3,3.4-0.4l-1-10.7c-0.8,0.1-1.6,0.2-2.4,0.2l0,0c0,0,0,0-0.1,0l0,0
	c-0.1,0-0.1,0-0.2,0l0,0c0,0,0,0-0.1,0l0,0l0,0l0,0c0,0,0,0-0.1,0l0,0H106l0,0l0,0l0,0l0,0l0,0l0,0l0,0h-0.1l0,0l0,0l0,0l0,0l0,0
	l0,0l0,0h-0.1l0,0l0,0l0,0l0,0l0,0l0,0l0,0c0,0,0,0-0.1,0c0,0,0,0-0.1,0l0,0l0,0l0,0l0,0l0,0l0,0l0,0c0,0,0,0-0.1,0l0,0l0,0l0,0l0,0
	l0,0l0,0l0,0l0,0l0,0l0,0l0,0l0,0l0,0l0,0l0,0l0,0l0,0c0,0,0,0-0.1,0l0,0l0,0l0,0l0,0l0,0l0,0l0,0l0,0l0,0c0,0,0,0-0.1,0l0,0l0,0
	l0,0l0,0l0,0l0,0l0,0c0,0,0,0-0.1,0l0,0l0,0l0,0l0,0l0,0l0,0l0,0l0,0l0,0c0,0,0,0-0.1,0l0,0l0,0l0,0l0,0l0,0l0,0l0,0l0,0l0,0l0,0
	l0,0l0,0l0,0l0,0l0,0l0,0l0,0c0,0,0,0-0.1,0l0,0l0,0l0,0l0,0l0,0l0,0l0,0c0,0,0,0-0.1,0l0,0l0,0l0,0l0,0l0,0l0,0l0,0l0,0l0,0
	c0,0,0,0-0.1,0l0,0l0,0l0,0l0,0l0,0l0,0l0,0l0,0l0,0l0,0l0,0l0,0l0,0l0,0l0,0l0,0l0,0c0,0,0,0-0.1,0l0,0l0,0l0,0l0,0l0,0l0,0l0,0
	l0,0c0,0,0,0-0.1,0l0,0l0,0l0,0l0,0l0,0l0,0l0,0h-0.1l0,0l0,0l0,0l0,0l0,0l0,0l0,0h-0.1l0,0l0,0l0,0l0,0l0,0l0,0l0,0h-0.1l0,0l0,0
	l0,0l0,0l0,0l0,0l0,0h-0.1l0,0l0,0l0,0l0,0l0,0h-0.1l0,0l0,0l0,0l0,0l0,0l0,0l0,0c-0.1,0-0.1,0-0.1,0l0,0l0,0l0,0l0,0l0,0
	c-0.1,0-0.1,0-0.2,0l0,0l0,0l0,0c-0.1,0-0.1,0-0.2,0l0,0l0,0l0,0l0,0l0,0c-0.1,0-0.1,0-0.2,0l0,0l0,0l0,0c-3,0.5-5.9,1.2-8.8,1.9
	L93.1,14.1L93.1,14.1z M61.8,27.5c4.8-3,9.9-5.7,15.1-7.9l-4.2-9.9l0,0c0,0,0,0-0.1,0l0,0c0,0-0.1,0-0.1,0.1l0,0c0,0,0,0-0.1,0l0,0
	c0,0,0,0-0.1,0l0,0c0,0,0,0-0.1,0l0,0c0,0,0,0-0.1,0l0,0c0,0,0,0-0.1,0l0,0c0,0,0,0-0.1,0l0,0c0,0,0,0-0.1,0l0,0c0,0,0,0-0.1,0l0,0
	c0,0,0,0-0.1,0l0,0c0,0,0,0-0.1,0l0,0c0,0,0,0-0.1,0l0,0l0,0l0,0c0,0,0,0-0.1,0l0,0l0,0l0,0c0,0,0,0-0.1,0l0,0l0,0l0,0l0,0l0,0
	c0,0,0,0-0.1,0l0,0l0,0l0,0l0,0l0,0l0,0l0,0l0,0l0,0l0,0l0,0l0,0l0,0c0,0,0,0-0.1,0l0,0l0,0l0,0l0,0l0,0l0,0l0,0l0,0l0,0l0,0l0,0
	l0,0l0,0l0,0l0,0l0,0c0,0,0,0-0.1,0l0,0l0,0l0,0c0,0,0,0-0.1,0l0,0c0,0,0,0-0.1,0l0,0l0,0l0,0c0,0,0,0-0.1,0l0,0l0,0l0,0
	c0,0,0,0-0.1,0l0,0c0,0,0,0-0.1,0l0,0l0,0l0,0c0,0,0,0-0.1,0l0,0l0,0l0,0h-0.1l0,0c0,0-0.1,0-0.1,0.1l0,0c0,0,0,0-0.1,0l0,0l0,0l0,0
	h-0.1l0,0c0,0-0.1,0-0.1,0.1l0,0c0,0-0.1,0-0.1,0.1l0,0c0,0,0,0-0.1,0l0,0c0,0-0.1,0-0.1,0.1l0,0c0,0-0.1,0-0.1,0.1l0,0h-0.1l0,0
	c0,0-0.1,0-0.1,0.1l0,0c0,0-0.1,0-0.1,0.1l0,0c0,0,0,0-0.1,0l0,0c0,0-0.1,0-0.1,0.1l0,0c0,0-0.1,0-0.1,0.1l0,0h-0.1l0,0l0,0l0,0
	c0,0,0,0-0.1,0l0,0c0,0-0.1,0-0.1,0.1l0,0c0,0-0.1,0-0.1,0.1l0,0h-0.1l0,0c0,0-0.1,0-0.1,0.1l0,0c0,0-0.1,0-0.1,0.1l0,0
	c0,0,0,0-0.1,0l0,0l0,0l0,0c0,0,0,0-0.1,0l0,0c0,0-0.1,0-0.1,0.1l0,0c0,0,0,0-0.1,0l0,0l0,0l0,0c0,0,0,0-0.1,0l0,0
	c0,0-0.1,0-0.1,0.1l0,0c0,0,0,0-0.1,0l0,0l0,0l0,0c0,0,0,0-0.1,0l0,0l0,0l0,0c0,0,0,0-0.1,0l0,0c0,0,0,0-0.1,0l0,0l0,0l0,0l0,0l0,0
	l0,0l0,0l0,0l0,0l0,0l0,0l0,0l0,0l0,0l0,0l0,0l0,0l0,0l0,0l0,0l0,0l0,0l0,0l0,0l0,0l0,0l0,0l0,0l0,0l0,0c0,0,0,0-0.1,0l0,0l0,0l0,0
	c0,0,0,0-0.1,0l0,0c0,0,0,0-0.1,0l0,0l0,0l0,0c0,0,0,0-0.1,0l0,0l0,0l0,0c0,0,0,0-0.1,0l0,0c0,0,0,0-0.1,0l0,0c0,0,0,0-0.1,0l0,0
	c0,0,0,0-0.1,0l0,0c0,0,0,0-0.1,0l0,0c0,0,0,0-0.1,0l0,0l0,0l0,0c0,0,0,0-0.1,0l0,0c0,0,0,0-0.1,0l0,0c0,0,0,0-0.1,0l0,0
	c0,0,0,0-0.1,0l0,0c0,0,0,0-0.1,0l0,0c0,0,0,0-0.1,0l0,0c0,0-0.1,0-0.1,0.1l0,0c-0.1,0-0.1,0.1-0.2,0.1l0,0
	c-2.5,1.3-4.9,2.7-7.3,4.2L61.8,27.5L61.8,27.5z M36.2,49.8c3.7-4.4,7.7-8.5,12-12.2l-7-8.1c-4.7,4.1-9.1,8.6-13.1,13.4L36.2,49.8
	L36.2,49.8z M18.5,79c2.2-5.3,4.7-10.4,7.7-15.2L17,58.2l-0.1,0.1l0,0c0,0,0,0,0,0.1l0,0l0,0l0,0l0,0l0,0l0,0l0,0l0,0l0,0l0,0l0,0
	l0,0c0,0,0,0,0,0.1l0,0l0,0l0,0c0,0,0,0,0,0.1l0,0l0,0l0,0c0,0,0,0,0,0.1l0,0c0,0,0,0,0,0.1l0,0c0,0,0,0,0,0.1l0,0c0,0,0,0,0,0.1
	l0,0c0,0,0,0,0,0.1l0,0c0,0,0,0,0,0.1l0,0c0,0,0,0,0,0.1l0,0c0,0,0,0.1-0.1,0.1l0,0c-2.9,4.9-5.4,10-7.6,15.3L18.5,79L18.5,79z
	 M10.6,112.1c0.4-5.7,1.3-11.3,2.6-16.9L2.8,92.7c-0.6,2.5-1.1,5-1.5,7.6l0,0v0.1l0,0v0.1l0,0v0.1l0,0v0.1l0,0v0.1l0,0l0,0l0,0v0.1
	l0,0l0,0l0,0v0.1l0,0v0.1l0,0c0,0,0,0,0,0.1l0,0l0,0l0,0c0,0,0,0,0,0.1l0,0l0,0l0,0c0,0,0,0,0,0.1l0,0l0,0l0,0l0,0l0,0
	c0,0,0,0,0,0.1l0,0l0,0l0,0l0,0l0,0l0,0c0,0,0,0,0,0.1l0,0l0,0l0,0c0,0,0,0,0,0.1l0,0l0,0l0,0l0,0l0,0l0,0l0,0l0,0l0,0
	c0,0,0,0,0,0.1l0,0l0,0l0,0c0,0,0,0,0,0.1l0,0c0,0,0,0,0,0.1l0,0c0,0,0,0,0,0.1l0,0c0,0,0,0,0,0.1l0,0l0,0l0,0c0,0,0,0,0,0.1l0,0
	c0,0,0,0,0,0.1l0,0c0,0,0,0,0,0.1l0,0c0,0,0,0,0,0.1l0,0c0,0,0,0,0,0.1l0,0c0,0,0,0,0,0.1l0,0c0,0,0,0,0,0.1l0,0c0,0,0,0,0,0.1l0,0
	c0,0,0,0,0,0.1l0,0c0,0,0,0,0,0.1l0,0c0,0,0,0,0,0.1l0,0c0,0,0,0,0,0.1l0,0c0,0,0,0,0,0.1l0,0c0,0,0,0,0,0.1l0,0c0,0,0,0,0,0.1l0,0
	v0.1l0,0c0,0.1,0,0.1,0,0.1l0,0c0,0,0,0,0,0.1l0,0c0,0,0,0,0,0.1l0,0c0,0,0,0,0,0.1l0,0c0,0.1,0,0.1,0,0.1l0,0c0,0.2,0,0.3-0.1,0.5
	l0,0c-0.2,1.5-0.4,3-0.5,4.5l0,0v0.1l0,0c0,0.1,0,0.1,0,0.2l0,0c0,0.1,0,0.1,0,0.2l0,0v0.1l0,0v0.1l0,0c0,0,0,0,0,0.1l0,0v0.1l0,0
	v0.1l0,0c0,0,0,0,0,0.1l0,0c0,0,0,0,0,0.1l0,0L10.6,112.1L10.6,112.1z M2.9,148.5l10.4-2.5c-0.9-3.9-1.6-7.9-2.1-11.8
	c-0.2-1.7-0.4-3.4-0.5-5.1L0,129.9c0,0.3,0.1,0.6,0.1,0.9l0,0l0,0l0,0l0,0l0,0l0,0l0,0l0,0l0,0l0,0c0.1,1.1,0.2,2.2,0.3,3.3l0,0
	c0,0.1,0,0.2,0,0.3l0,0l0,0l0,0l0,0l0,0l0,0l0,0l0,0l0,0l0,0l0,0l0,0l0,0v0.1l0,0l0,0l0,0l0,0l0,0l0,0l0,0l0,0l0,0l0,0l0,0l0,0l0,0
	l0,0l0,0l0,0l0,0l0,0c0,0,0,0,0,0.1l0,0l0,0l0,0l0,0l0,0l0,0l0,0l0,0l0,0l0,0l0,0l0,0l0,0l0,0l0,0l0,0l0,0l0,0l0,0l0,0l0,0l0,0l0,0
	l0,0l0,0l0,0l0,0c0,0,0,0,0,0.1l0,0l0,0l0,0l0,0l0,0l0,0l0,0l0,0l0,0l0,0l0,0l0,0l0,0l0,0l0,0l0,0l0,0l0,0l0,0l0,0l0,0l0,0l0,0l0,0
	l0,0l0,0l0,0l0,0v0.1l0,0l0,0l0,0l0,0l0,0l0,0l0,0l0,0l0,0l0,0l0,0l0,0l0,0l0,0l0,0l0,0l0,0l0,0l0,0l0,0l0,0l0,0l0,0
	c0,0.1,0,0.2,0,0.3l0,0l0,0l0,0l0,0l0,0l0,0l0,0l0,0l0,0l0,0l0,0l0,0l0,0l0,0l0,0l0,0l0,0c0,0.2,0.1,0.4,0.1,0.6l0,0l0,0l0,0l0,0
	l0,0c0.2,1.2,0.4,2.4,0.6,3.6l0,0v0.1l0,0l0,0l0,0l0,0l0,0c0,0.1,0,0.3,0.1,0.4l0,0l0,0l0,0l0,0l0,0l0,0l0,0l0,0l0,0l0,0l0,0l0,0
	l0,0l0,0l0,0l0,0l0,0l0,0l0,0l0,0l0,0l0,0l0,0l0,0l0,0c0,0,0,0,0,0.1l0,0l0,0l0,0l0,0l0,0l0,0l0,0l0,0l0,0l0,0l0,0l0,0l0,0l0,0l0,0
	l0,0l0,0l0,0l0,0l0,0l0,0l0,0c0,0,0,0,0,0.1l0,0C2.2,145.8,2.5,147.1,2.9,148.5L2.9,148.5z M17,183.1l9.2-5.6
	c-2.9-4.9-5.5-10-7.7-15.2l-9.9,4.1l0,0c0,0,0,0,0,0.1l0,0c0,0,0,0.1,0.1,0.1l0,0c0,0,0,0,0,0.1l0,0c0,0,0,0,0,0.1l0,0
	c0,0,0,0,0,0.1l0,0c0,0,0,0.1,0.1,0.1l0,0c0,0,0,0.1,0.1,0.1l0,0c0,0,0,0,0,0.1l0,0c0,0,0,0.1,0.1,0.1l0,0c0,0,0,0.1,0.1,0.1l0,0
	c0,0,0,0,0,0.1l0,0C11.3,172.9,14,178.1,17,183.1L17,183.1z M41.1,211.6l7-8.1c-4.3-3.7-8.3-7.8-12-12.2l-8.2,6.9
	C32,203.1,36.4,207.5,41.1,211.6L41.1,211.6z M72.8,231.5l4.2-9.9c-5.2-2.2-10.3-4.9-15.1-7.9l-5.7,9.1c2.2,1.4,4.5,2.7,6.8,4l0,0
	c0,0,0.1,0,0.1,0.1l0,0c0.1,0,0.1,0.1,0.2,0.1l0,0c0,0,0.1,0,0.1,0.1l0,0c0,0,0,0,0.1,0l0,0c0,0,0.1,0,0.1,0.1l0,0
	c0,0,0.1,0,0.1,0.1l0,0c0,0,0,0,0.1,0l0,0c0,0,0.1,0,0.1,0.1l0,0c0,0,0,0,0.1,0l0,0c0,0,0,0,0.1,0l0,0c0,0,0,0,0.1,0l0,0
	c0,0,0.1,0,0.1,0.1l0,0c0,0,0,0,0.1,0l0,0c0,0,0,0,0.1,0l0,0c0,0,0,0,0.1,0l0,0c0,0,0,0,0.1,0l0,0c0,0,0,0,0.1,0l0,0c0,0,0,0,0.1,0
	l0,0c0,0,0.1,0,0.1,0.1l0,0c0,0,0,0,0.1,0l0,0c0,0,0,0,0.1,0l0,0c0,0,0,0,0.1,0l0,0c0,0,0,0,0.1,0l0,0c0,0,0,0,0.1,0l0,0
	c0,0,0,0,0.1,0l0,0c0,0,0,0,0.1,0l0,0c0,0,0,0,0.1,0l0,0c0,0,0,0,0.1,0l0,0c0,0,0,0,0.1,0l0,0c0,0,0,0,0.1,0l0,0c0,0,0.1,0,0.1,0.1
	l0,0c0,0,0,0,0.1,0l0,0c0,0,0,0,0.1,0l0,0c0,0,0,0,0.1,0l0,0c0,0,0,0,0.1,0l0,0c0,0,0,0,0.1,0l0,0c0,0,0,0,0.1,0l0,0c0,0,0,0,0.1,0
	l0,0c0,0,0,0,0.1,0l0,0c0,0,0,0,0.1,0l0,0c0,0,0,0,0.1,0l0,0c0,0,0,0,0.1,0l0,0c0,0,0,0,0.1,0l0,0c0,0,0,0,0.1,0l0,0c0,0,0,0,0.1,0
	l0,0c0,0,0,0,0.1,0l0,0c0,0,0,0,0.1,0l0,0c0,0,0,0,0.1,0l0,0c0,0,0,0,0.1,0l0,0c0,0,0,0,0.1,0l0,0c0,0,0.1,0,0.1,0.1l0,0
	c0,0,0,0,0.1,0l0,0c0,0,0,0,0.1,0l0,0c0,0,0,0,0.1,0l0,0c0,0,0.1,0,0.1,0.1l0,0c0,0,0,0,0.1,0l0,0c0,0,0,0,0.1,0l0,0c0,0,0,0,0.1,0
	l0,0c0,0,0.1,0,0.1,0.1l0,0c0,0,0,0,0.1,0l0,0c0,0,0.1,0,0.1,0.1l0,0c0,0,0,0,0.1,0l0,0c0,0,0,0,0.1,0l0,0c0,0,0,0,0.1,0l0,0
	c0,0,0.1,0,0.1,0.1l0,0c0,0,0,0,0.1,0l0,0c0,0,0,0,0.1,0l0,0c0,0,0,0,0.1,0l0,0c0,0,0.1,0,0.1,0.1l0,0c0,0,0,0,0.1,0l0,0
	c0,0,0.1,0,0.1,0.1l0,0c0,0,0.1,0,0.1,0.1l0,0c0.1,0,0.1,0.1,0.2,0.1l0,0c0.1,0,0.1,0.1,0.2,0.1l0,0C70.4,230.5,71.6,231,72.8,231.5
	L72.8,231.5z M109,240.7l1-10.7c-5.7-0.5-11.3-1.5-16.8-2.9l-2.6,10.4c0.9,0.2,1.8,0.5,2.8,0.7l0,0h0.1l0,0h0.1l0,0c0,0,0,0,0.1,0
	l0,0c0,0,0,0,0.1,0l0,0c0,0,0,0,0.1,0l0,0c0,0,0,0,0.1,0l0,0c0,0,0,0,0.1,0l0,0c0,0,0,0,0.1,0l0,0c0,0,0,0,0.1,0l0,0c0,0,0,0,0.1,0
	l0,0c0,0,0,0,0.1,0l0,0c0,0,0,0,0.1,0l0,0c0,0,0,0,0.1,0l0,0c0,0,0,0,0.1,0l0,0c0,0,0,0,0.1,0l0,0l0,0l0,0c0,0,0,0,0.1,0l0,0l0,0
	l0,0l0,0l0,0l0,0l0,0l0,0l0,0c0,0,0,0,0.1,0l0,0l0,0l0,0l0,0l0,0l0,0c0,0,0,0,0.1,0l0,0l0,0l0,0c0,0,0,0,0.1,0l0,0l0,0l0,0l0,0l0,0
	c0,0,0,0,0.1,0l0,0l0,0l0,0c0,0,0,0,0.1,0l0,0l0,0l0,0c0,0,0,0,0.1,0l0,0c0,0,0,0,0.1,0l0,0l0,0l0,0h0.1l0,0l0,0l0,0h0.1l0,0H96l0,0
	h0.1l0,0h0.1l0,0h0.1l0,0h0.1l0,0c1.4,0.3,2.7,0.5,4.1,0.7l0,0c0.1,0,0.2,0,0.4,0.1l0,0h0.1l0,0c0.1,0,0.2,0,0.2,0l0,0h0.1l0,0h0.1
	l0,0h0.1l0,0l0,0l0,0h0.1l0,0h0.1l0,0c0,0,0,0,0.1,0l0,0l0,0l0,0c0,0,0,0,0.1,0l0,0l0,0l0,0l0,0l0,0l0,0l0,0l0,0l0,0l0,0l0,0l0,0
	l0,0l0,0l0,0l0,0c0,0,0,0,0.1,0l0,0l0,0l0,0c0,0,0,0,0.1,0l0,0l0,0l0,0c0,0,0,0,0.1,0l0,0c0,0,0,0,0.1,0l0,0c0,0,0,0,0.1,0l0,0
	c0,0,0,0,0.1,0l0,0c0,0,0,0,0.1,0l0,0c0,0,0,0,0.1,0l0,0c0,0,0,0,0.1,0l0,0c0,0,0,0,0.1,0l0,0c0,0,0,0,0.1,0l0,0c0,0,0,0,0.1,0l0,0
	c0,0,0,0,0.1,0l0,0h0.1l0,0C105.9,240.4,107.4,240.6,109,240.7L109,240.7z"/>
<path d="M120.2,0v241.2c66.6,0,120.6-54,120.6-120.6S186.8,0,120.2,0z"/>
</svg>
