<?xml version="1.0" encoding="utf-8"?>
<!-- Generator: Adobe Illustrator 22.1.0, SVG Export Plug-In . SVG Version: 6.00 Build 0)  -->
<svg version="1.1" id="win_page-corner-text" xmlns="http://www.w3.org/2000/svg" xmlns:xlink="http://www.w3.org/1999/xlink"
	 x="0px" y="0px" viewBox="0 0 512 512" style="enable-background:new 0 0 512 512;" xml:space="preserve">
<style type="text/css">
	.st0{stroke:#000000;}
</style>
<g>
	<g>
		<path d="M25,305l285-2v-34H21C21,282,23,293,25,305z"/>
		<path d="M50,372l260-1v-34H34C39,350,44,361,50,372z"/>
		<path d="M106,438h204v-34H73C83,417,94,428,106,438z"/>
		<path d="M26,202c-2,10-4,21-5,33l289,1v-34H26z"/>
	</g>
	<path class="st0" d="M385,454l-1-326H58c-6,10-12,21-18,32l310,2v310C363,466,374,460,385,454z"/>
</g>
</svg>
