<svg id="web_gears-1" xmlns="http://www.w3.org/2000/svg" version="1.1" xmlns:xlink="http://www.w3.org/1999/xlink" viewBox="0 0 512 512" class="svelte-49unch"><path stroke="#000000"  d="M512,320q1,9,1,16t-1,16h-32q-1.5,12,-4.5,24l29.5,12.5q-4.5,14.5,-12,29.5l-30,-12.5q-5.5,10.5,-13.5,20.5l22.5,22.5q-10,12.5,-22.5,22.5l-22.5,-22.5q-10,8,-20.5,13.5l12.5,29.5q-15,8,-29.5,12.5l-12.5,-29.5q-12,3,-24,4.5v32q-9,1,-16,1t-16,-1v-32q-12,-1.5,-24,-4.5l-12,29.5q-15,-4.5,-30,-12.5l12.5,-29.5q-10.5,-5.5,-20,-13.5l-23,22.5q-12.5,-10,-22.5,-22.5l22.5,-22.5q-7.5,-10,-13.5,-20.5l-29.5,12.5q-8,-15,-12.5,-29.5l30,-12.5q-3.5,-12,-5,-24h-32q-1,-9,-1,-16t1,-16h32q1.5,-12,5,-24l-30,-12.5q4.5,-14.5,12.5,-29.5l29.5,12.5q6,-10.5,13.5,-20.5l-22.5,-22.5q10,-12.5,22.5,-22.5l23,22.5q9.5,-8,20,-13.5l-12.5,-30q15,-7.5,30,-12l12,29.5q12,-3.5,24,-4.5v-32q9,-1,16,-1t16,1v32q12,1,24,4.5l12.5,-29.5q14.5,4.5,29.5,12l-12.5,30q10.5,6,20.5,13.5l22.5,-22.5q12.5,10,22.5,22.5l-22.5,22.5q8,10,13.5,20.5l30,-12.5q7.5,15,12,29.5l-29.5,12.5q3,12,4.5,24h32zM337,256q-33,0,-56.5,23.5t-23.5,56.5t23.5,56.5t56.5,23.5t56.5,-23.5t23.5,-56.5t-23.5,-56.5t-56.5,-23.5zM224.5,149l-6,15.5q-1.5,3,-4.75,4.5t-6.25,0l-28.5,-11.5q-8.5,12,-20.5,20l12,28.5q1.5,3.5,0,6.5t-4.5,4.5l-15.5,6.5q-3,1.5,-6.25,0t-4.75,-4.5l-12,-28.5q-8,1.5,-14.5,1.5q-6,0,-14,-1.5l-12,28.5q-1,3,-4.25,4.5t-6.75,0l-15,-6.5q-3.5,-1,-4.75,-4.25t-0.25,-6.75l12,-28q-12,-8.5,-20.5,-20.5l-28.5,12q-3,1,-6.25,-0.25t-4.75,-4.25l-6,-15.5q-1.5,-3.5,-0.25,-6.75t4.75,-4.25l28,-12q-1.5,-8,-1.5,-14.5q0,-6,1.5,-14.5l-28.5,-11.5q-3,-1.5,-4.25,-4.5t-0.25,-6.5l6.5,-15.5q1.5,-3,4.5,-4.5t6.5,0l28.5,11.5q8,-12,20,-20l-11.5,-28.5q-1.5,-3.5,-0.25,-6.5t4.75,-4.5l15.5,-6.5q3,-1.5,6.25,0t4.75,4.5l11.5,28.5q8,-1.5,14.5,-1.5t14.5,1.5l11.5,-28.5q1.5,-3.5,4.75,-4.75t6.25,0.25l15.5,6.5q3.5,1,4.75,4.25t-0.25,6.25l-11.5,28.5q12,8.5,20.5,20.5l28,-12q3.5,-1,6.75,0.25t4.25,4.25l6.5,15.5q1.5,3.5,0.25,6.75t-4.75,4.25l-28.5,12q1.5,8,1.5,14.5t-1.5,14.5l28.5,11.5q3.5,1.5,4.75,4.5t-0.25,6.5zM113.25,64q-19.75,0,-34,14t-14.25,34t14.25,34t34,14t33.75,-14t14,-34t-14,-34t-33.75,-14z"></path></svg>