<?xml version="1.0" encoding="utf-8"?>
<!-- Generator: Adobe Illustrator 22.1.0, SVG Export Plug-In . SVG Version: 6.00 Build 0)  -->
<svg version="1.1" xmlns="http://www.w3.org/2000/svg" xmlns:xlink="http://www.w3.org/1999/xlink" x="0px" y="0px"
	 viewBox="0 0 401.9 340" style="enable-background:new 0 0 401.9 340;" xml:space="preserve">
<style type="text/css">
	.st0{stroke:#000000;}
</style>
<g id="mat_shape-rectangle-plus">
	<path class="st0" d="M299.5,297.5v-64h42v106H0.5v-277h171v43h-128v192H299.5z"/>
</g>
<g id="Layer_2">
	<path class="st0" d="M401,138.6c0.3,2.6,0.4,4.9,0.4,6.9c0,2-0.1,4.3-0.4,6.9h-13.8c-0.4,3.4-1.1,6.9-1.9,10.3l12.7,5.4
		c-1.3,4.2-3,8.4-5.2,12.7l-12.9-5.4c-1.6,3-3.5,6-5.8,8.8l9.7,9.7c-2.9,3.6-6.1,6.8-9.7,9.7l-9.7-9.7c-2.9,2.3-5.8,4.2-8.8,5.8
		l5.4,12.7c-4.3,2.3-8.5,4.1-12.7,5.4l-5.4-12.7c-3.4,0.9-6.9,1.5-10.3,1.9v13.8c-2.6,0.3-4.9,0.4-6.9,0.4c-2,0-4.3-0.1-6.9-0.4
		v-13.8c-3.4-0.4-6.9-1.1-10.3-1.9l-5.2,12.7c-4.3-1.3-8.6-3.1-12.9-5.4l5.4-12.7c-3-1.6-5.9-3.5-8.6-5.8l-9.9,9.7
		c-3.6-2.9-6.8-6.1-9.7-9.7l9.7-9.7c-2.2-2.9-4.1-5.8-5.8-8.8l-12.7,5.4c-2.3-4.3-4.1-8.5-5.4-12.7l12.9-5.4
		c-1-3.4-1.7-6.9-2.2-10.3h-13.8c-0.3-2.6-0.4-4.9-0.4-6.9c0-2,0.1-4.3,0.4-6.9h13.8c0.4-3.4,1.1-6.9,2.2-10.3l-12.9-5.4
		c1.3-4.2,3.1-8.4,5.4-12.7l12.7,5.4c1.7-3,3.7-6,5.8-8.8l-9.7-9.7c2.9-3.6,6.1-6.8,9.7-9.7L287,97c2.7-2.3,5.6-4.2,8.6-5.8
		l-5.4-12.9c4.3-2.2,8.6-3.9,12.9-5.2l5.2,12.7c3.4-1,6.9-1.7,10.3-1.9V70c2.6-0.3,4.9-0.4,6.9-0.4c2,0,4.3,0.1,6.9,0.4v13.8
		c3.4,0.3,6.9,0.9,10.3,1.9l5.4-12.7c4.2,1.3,8.4,3,12.7,5.2l-5.4,12.9c3,1.7,6,3.7,8.8,5.8l9.7-9.7c3.6,2.9,6.8,6.1,9.7,9.7
		l-9.7,9.7c2.3,2.9,4.2,5.8,5.8,8.8l12.9-5.4c2.2,4.3,3.9,8.5,5.2,12.7l-12.7,5.4c0.9,3.4,1.5,6.9,1.9,10.3H401z M325.6,111
		c-9.5,0-17.6,3.4-24.4,10.1c-6.8,6.8-10.1,14.9-10.1,24.4c0,9.5,3.4,17.6,10.1,24.4c6.8,6.8,14.9,10.1,24.4,10.1
		s17.6-3.4,24.4-10.1c6.8-6.8,10.1-14.9,10.1-24.4c0-9.5-3.4-17.6-10.1-24.4C343.2,114.4,335.1,111,325.6,111z M277.1,64.9l-2.6,6.7
		c-0.4,0.9-1.1,1.5-2,1.9c-0.9,0.4-1.8,0.4-2.7,0l-12.3-5c-2.4,3.4-5.4,6.3-8.8,8.6l5.2,12.3c0.4,1,0.4,1.9,0,2.8
		c-0.4,0.9-1.1,1.5-1.9,1.9l-6.7,2.8c-0.9,0.4-1.8,0.4-2.7,0c-0.9-0.4-1.6-1.1-2-1.9l-5.2-12.3c-2.3,0.4-4.4,0.6-6.3,0.6
		c-1.7,0-3.7-0.2-6-0.6L217.8,95c-0.3,0.9-0.9,1.5-1.8,1.9s-1.9,0.4-2.9,0l-6.5-2.8c-1-0.3-1.7-0.9-2-1.8c-0.4-0.9-0.4-1.9-0.1-2.9
		l5.2-12.1c-3.4-2.4-6.4-5.4-8.8-8.8l-12.3,5.2c-0.9,0.3-1.8,0.3-2.7-0.1c-0.9-0.4-1.6-1-2-1.8l-2.6-6.7c-0.4-1-0.5-2-0.1-2.9
		c0.4-0.9,1-1.5,2-1.8l12.1-5.2c-0.4-2.3-0.6-4.4-0.6-6.3c0-1.7,0.2-3.8,0.6-6.3l-12.3-5c-0.9-0.4-1.5-1.1-1.8-1.9
		c-0.4-0.9-0.4-1.8-0.1-2.8l2.8-6.7c0.4-0.9,1.1-1.5,1.9-1.9c0.9-0.4,1.8-0.4,2.8,0l12.3,5c2.3-3.4,5.2-6.3,8.6-8.6l-5-12.3
		c-0.4-1-0.5-1.9-0.1-2.8s1-1.5,2-1.9l6.7-2.8c0.9-0.4,1.8-0.4,2.7,0s1.6,1.1,2,1.9l5,12.3c2.3-0.4,4.4-0.6,6.3-0.6
		c1.9,0,4,0.2,6.3,0.6l5-12.3c0.4-1,1.1-1.7,2-2s1.8-0.3,2.7,0.1l6.7,2.8c1,0.3,1.7,0.9,2,1.8c0.4,0.9,0.3,1.8-0.1,2.7l-5,12.3
		c3.4,2.4,6.4,5.4,8.8,8.8l12.1-5.2c1-0.3,2-0.3,2.9,0.1c0.9,0.4,1.5,1,1.8,1.8l2.8,6.7c0.4,1,0.5,2,0.1,2.9c-0.4,0.9-1,1.5-2,1.8
		l-12.3,5.2c0.4,2.3,0.6,4.4,0.6,6.3s-0.2,4-0.6,6.3l12.3,5c1,0.4,1.7,1.1,2,1.9S277.5,63.9,277.1,64.9z M229.1,28.2
		c-5.7,0-10.6,2-14.7,6s-6.1,8.9-6.1,14.7s2,10.6,6.1,14.7s9,6,14.7,6c5.7,0,10.5-2,14.5-6s6-8.9,6-14.7s-2-10.6-6-14.7
		S234.8,28.2,229.1,28.2z"/>
</g>
</svg>
