<?xml version="1.0" encoding="utf-8"?>
<!-- Generator: Adobe Illustrator 22.1.0, SVG Export Plug-In . SVG Version: 6.00 Build 0)  -->
<svg version="1.1" id="Layer_1" xmlns="http://www.w3.org/2000/svg" xmlns:xlink="http://www.w3.org/1999/xlink" x="0px" y="0px"
	 viewBox="0 0 450.2 198.7" style="enable-background:new 0 0 450.2 198.7;" xml:space="preserve">
<style type="text/css">
	.st0{fill:#BC4565;}
	.st1{fill:#AF3F5D;}
	.st2{fill:#D24D57;}
</style>
<path class="st0" d="M380.8,15.7c6.6,0,12.4,0.5,17.7,1.3c-17-9.6-37.3-17-68.5-17c-60.4,0-79.5,27.8-114,45.2
	c11.2,6,24.6,10.5,44.8,10.5C320.8,55.7,320.7,15.7,380.8,15.7z"/>
<path class="st0" d="M0.8,55.7l20-0.4c28.3,0,43.3-8.7,57.4-18C55.4,23.1,36.6,6.3,0,1.3l0.4,64.4h0.4V55.7z"/>
<path class="st1" d="M326.3,32c-1.5-0.2-3.2-0.3-5.1-0.3c-19.4,0-19.6,13-39,13s-19.6-13-39-13c-15.9,0-18.9,8.7-30.1,11.9
	c11.8,6.7,25.7,12.1,47.7,12.1C294.5,55.7,309.2,43.1,326.3,32z"/>
<path class="st1" d="M86.3,31.7c-19.5,0-19.4,12.9-39,12.9l-6.5,0.1v8.9c20.7-3.8,32.6-13.3,45.9-21.9
	C86.6,31.7,86.5,31.7,86.3,31.7z"/>
<polygon class="st2" points="0.8,198.7 1.4,198.7 0.8,117.2 "/>
<path class="st2" d="M380.8,15.7c-60.1,0-60,40-120,40s-60.1-40-120-40s-59.7,39.6-120,39.6l-20,0.4v61.5l0.6,81.5h448.8l-1.7-158.1
	C430.5,29.3,415.8,15.7,380.8,15.7z"/>
</svg>
