<?xml version="1.0" encoding="utf-8"?>
<!-- Generator: Adobe Illustrator 22.1.0, SVG Export Plug-In . SVG Version: 6.00 Build 0)  -->
<svg version="1.1" id="web_refresh" xmlns="http://www.w3.org/2000/svg" xmlns:xlink="http://www.w3.org/1999/xlink" x="0px"
	 y="0px" viewBox="0 0 512 512" style="enable-background:new 0 0 512 512;" xml:space="preserve">
<style type="text/css">
	.st0{stroke:#000000;}
</style>
<path class="st0" d="M0.3,16.7l67,67c-21,23-37.4,49.3-49.3,78.8S0.3,223.1,0.3,255.8c0,53,14.9,101.1,44.8,144.3
	s68.6,74.3,116.3,93.3l24-59.5c-36-14.3-65.2-37.6-87.5-69.8s-33.5-68.3-33.5-108.3c0-48.3,16.2-90.7,48.5-127l63.5,63
	c4.7,0.3,8.6-1.1,11.8-4.3s4.6-7.1,4.3-11.8V21.2c0-4.7-2.3-9.3-6.8-13.8s-9.1-6.9-13.8-7.3l-160-0.5C3.8-0.6-0.1,5.1,0.3,16.7z
	 M448.3,255.8c0,48.3-16,90.7-48,127l-63.5-63c-4.7-0.3-8.6,1.1-11.8,4.3c-3.2,3.2-4.8,7.1-4.8,11.8v154.5c0.3,4.7,2.8,9.3,7.3,13.8
	s9.1,6.9,13.8,7.3l160,0.5c8,0.3,11.8-5.3,11.5-17l-67-67c21-23,37.3-49.3,49-78.8s17.5-60.6,17.5-93.3c0-53-14.8-101.1-44.5-144.3
	s-68.5-74.3-116.5-93.3l-23.5,59.5c36,14.3,65.1,37.6,87.3,69.8S448.3,215.8,448.3,255.8z"/>
</svg>
