<?xml version="1.0" encoding="utf-8"?>
<!-- Generator: Adobe Illustrator 17.0.0, SVG Export Plug-In . SVG Version: 6.00 Build 0)  -->
<!DOCTYPE svg PUBLIC "-//W3C//DTD SVG 1.1//EN" "http://www.w3.org/Graphics/SVG/1.1/DTD/svg11.dtd">
<svg version="1.1" id="Layer_1" xmlns="http://www.w3.org/2000/svg" xmlns:xlink="http://www.w3.org/1999/xlink" x="0px" y="0px"
	 width="40px" height="40px" viewBox="0 0 40 40" enable-background="new 0 0 40 40" xml:space="preserve">
<path fill="#000000"  d="M1.359,31.418
	C1.856,20.57,9.79,11.937,19.506,11.937c5.714,0,10.807,2.991,14.139,7.655l4.318-4.885c0.373-0.422,0.676-0.281,0.676,0.317v12.782
	c0,0.599-0.43,1.086-0.957,1.086H26.377c-0.526,0-0.651-0.346-0.281-0.768l4.257-4.809c-2.471-3.73-6.406-6.147-10.848-6.147
	c-7.156,0-13.026,6.292-13.517,14.25C5.954,32.013,5.526,32.5,5,32.5H2.29C1.76,32.5,1.33,32.013,1.359,31.418z"/>
</svg>
