<?xml version="1.0" encoding="utf-8"?>
<!-- Generator: Adobe Illustrator 17.0.0, SVG Export Plug-In . SVG Version: 6.00 Build 0)  -->
<!DOCTYPE svg PUBLIC "-//W3C//DTD SVG 1.1//EN" "http://www.w3.org/Graphics/SVG/1.1/DTD/svg11.dtd">
<svg version="1.1" id="Layer_1" xmlns="http://www.w3.org/2000/svg" xmlns:xlink="http://www.w3.org/1999/xlink" x="0px" y="0px"
	 width="40px" height="40px" viewBox="0 0 40 40" enable-background="new 0 0 40 40" xml:space="preserve">
<path fill="#000000"  d="M38.226,33.625h-2.654
	c-0.515,0-0.932-0.504-0.967-1.12c-0.477-8.236-6.218-14.748-13.215-14.748c-4.344,0-8.192,2.502-10.608,6.366l4.163,4.977
	c0.362,0.433,0.24,0.792-0.274,0.792H3.616c-0.515,0-0.935-0.504-0.935-1.124V15.539c0-0.62,0.296-0.765,0.661-0.329l4.222,5.055
	c3.259-4.828,8.239-7.923,13.827-7.923c9.501,0,17.26,8.934,17.746,20.161C39.165,33.121,38.741,33.625,38.226,33.625z"/>
</svg>
