<?xml version="1.0" encoding="utf-8"?>
<!-- Generator: Adobe Illustrator 22.1.0, SVG Export Plug-In . SVG Version: 6.00 Build 0)  -->
<svg version="1.1" id="Layer_2_1_" xmlns="http://www.w3.org/2000/svg" xmlns:xlink="http://www.w3.org/1999/xlink" x="0px" y="0px"
	 viewBox="0 0 40 45.9" style="enable-background:new 0 0 40 45.9;" xml:space="preserve">
<path d="M32.4,8.2H7.2c-2.4,0-4.4,2-4.4,4.4v25.2c0,2.4,2,4.4,4.4,4.4h25.2c2.4,0,4.4-2,4.4-4.4V12.6C36.8,10.2,34.8,8.2,32.4,8.2z
	 M32.7,38.1h-26V12.9h26V38.1z"/>
<g id="Your_Icon">
	<rect x="11.9" y="27" width="16.6" height="0.4"/>
	<rect x="11.9" y="29.2" width="16.6" height="0.4"/>
	<rect x="22.2" y="13.8" width="3" height="6"/>
	<rect x="11.9" y="31.3" width="16.6" height="0.4"/>
	<path d="M30.2,10.7H7c-0.9,0-1.6,0.7-1.6,1.6v25.1C5.4,38.3,6.1,39,7,39h26.3c0.9,0,1.6-0.7,1.6-1.6V15.2L30.2,10.7z M11.2,13.9
		c0-0.8,0.7-1.4,1.6-1.4h14.7c0.9,0,1.6,0.6,1.6,1.4v5.8c0,0.8-0.7,1.4-1.6,1.4H12.8c-0.9,0-1.6-0.6-1.6-1.4V13.9L11.2,13.9z
		 M30.7,37.4H9.5V23.8h21.2V37.4z"/>
	<rect x="11.9" y="33.2" width="16.6" height="0.4"/>
</g>
</svg>
