<?xml version="1.0" encoding="utf-8"?>
<!-- Generator: Adobe Illustrator 22.1.0, SVG Export Plug-In . SVG Version: 6.00 Build 0)  -->
<svg version="1.1" id="Layer_1" xmlns="http://www.w3.org/2000/svg" xmlns:xlink="http://www.w3.org/1999/xlink" x="0px" y="0px"
	 viewBox="0 0 11.2 12" style="enable-background:new 0 0 11.2 12;" xml:space="preserve">
<path d="M9.5,4.2H7.2V1.7C7.2,0.8,6.5,0,5.6,0H5.5C4.6,0,3.9,0.8,3.9,1.7v2.5H1.6C0.7,4.2,0,5,0,5.9v0.2C0,7,0.7,7.8,1.6,7.8h2.3
	v2.5c0,0.9,0.7,1.7,1.6,1.7h0.2c0.9,0,1.6-0.8,1.6-1.7V7.8h2.3c0.9,0,1.6-0.8,1.6-1.7V5.9C11.1,5,10.3,4.2,9.5,4.2z"/>
</svg>
