<?xml version="1.0" encoding="utf-8"?>
<!-- Generator: Adobe Illustrator 17.0.0, SVG Export Plug-In . SVG Version: 6.00 Build 0)  -->
<!DOCTYPE svg PUBLIC "-//W3C//DTD SVG 1.1//EN" "http://www.w3.org/Graphics/SVG/1.1/DTD/svg11.dtd">
<svg version="1.1" id="Layer_1" xmlns="http://www.w3.org/2000/svg" xmlns:xlink="http://www.w3.org/1999/xlink" x="0px" y="0px"
	 width="40px" height="40px" viewBox="0 0 40 40" enable-background="new 0 0 40 40" xml:space="preserve">
<path fill="#000000"  d="M28.093,19.998l7.59,9.635
	c0.515,0.649,0.515,1.705,0,2.354l-2.009,2.555c-0.513,0.652-1.347,0.652-1.862,0L21.276,21.18c-0.518-0.649-0.518-1.708,0-2.36
	L31.812,5.457c0.515-0.652,1.349-0.652,1.862,0l2.009,2.552c0.515,0.652,0.515,1.708,0,2.36L28.093,19.998z M4.315,29.633
	c-0.513,0.649-0.513,1.705,0,2.354l2.012,2.555c0.518,0.652,1.347,0.652,1.862,0L18.724,21.18c0.515-0.652,0.515-1.708,0-2.36
	L8.188,5.457c-0.518-0.652-1.349-0.652-1.862,0L4.315,8.01c-0.513,0.652-0.513,1.708,0,2.36l7.59,9.629L4.315,29.633z"/>
</svg>
