<?xml version="1.0" encoding="utf-8"?>
<!-- Generator: Adobe Illustrator 18.0.0, SVG Export Plug-In . SVG Version: 6.00 Build 0)  -->
<!DOCTYPE svg PUBLIC "-//W3C//DTD SVG 1.1//EN" "http://www.w3.org/Graphics/SVG/1.1/DTD/svg11.dtd">
<svg version="1.1" id="Layer_1" xmlns="http://www.w3.org/2000/svg" xmlns:xlink="http://www.w3.org/1999/xlink" x="0px" y="0px"
	 viewBox="0 0 40 40" enable-background="new 0 0 40 40" xml:space="preserve">
<path fill="#000000" d="M20,10.4l12.1-7.9c0.8-0.5,2.1-0.5,2.9,0
	l3.2,2.1c0.8,0.5,0.8,1.4,0,1.9l-16.7,11c-0.8,0.5-2.1,0.5-3,0L1.8,6.5C1,5.9,1,5.1,1.8,4.5L5,2.4c0.8-0.5,2.1-0.5,3,0L20,10.4z
	 M32.6,35.4c0.8,0.5,2.1,0.5,2.9,0l3.2-2.1c0.8-0.5,0.8-1.4,0-1.9L22,20.4c-0.8-0.5-2.1-0.5-3,0l-16.7,11c-0.8,0.5-0.8,1.4,0,1.9
	l3.2,2.1c0.8,0.5,2.1,0.5,3,0l12.1-7.9L32.6,35.4z"/>
</svg>
