<?xml version="1.0" encoding="utf-8"?>
<svg version="1.1" id="search" xmlns="http://www.w3.org/2000/svg" xmlns:xlink="http://www.w3.org/1999/xlink" viewBox="0 0 512 512" class="svelte-139h32l"><path stroke="#000000" fill="#000000" d="M197,4c-107,0,-193,86,-193,193c0,107,86,193,193,193c45,0,86,-16,119,-42l18,18c-8,13,-5,31,6,42l91,91c14,14,37,14,51,0l17,-17c14,-14,14,-37,0,-51l-91,-91c-11,-11,-29,-13,-42,-6l-18,-17c26,-33,42,-75,42,-120c0,-107,-86,-193,-193,-193zm0,35c87,0,157,71,157,158c0,87,-70,157,-157,157c-87,0,-158,-70,-158,-157c0,-87,71,-158,158,-158zm-100,108c-10,17,-16,36,-16,57c0,59,48,107,108,107c23,0,45,-7,62,-19c-5,0,-10,0,-15,0c-77,0,-139,-62,-139,-139c0,-2,0,-4,0,-6z"></path></svg>