<svg id="bg_design" width="500" height="500" xmlns="http://www.w3.org/2000/svg" version="1.1" xmlns:xlink="http://www.w3.org/1999/xlink" xmlns:svgjs="http://svgjs.com/svgjs" class="bgs" preserveAspectRatio="xMidYMin slice"><defs id="SvgjsDefs3990"></defs><rect id="rect_design" width="100%" height="100%" fill="none"></rect><svg id="designer_design" preserveAspectRatio="xMidYMid meet" viewBox="-51.19999999999999 -19.19999999999999 614.4 614.4" data-uid="met_share" data-keyword="share" data-coll="met" style="overflow: visible;"><path id="compound_designer_design" d="M432 384C409.5 384 389 393.5 374.5 408.5L159 300.5C159.5 296.5 160 292 160 288S159.5 279.5 159 275.5L374.5 167.5C389 182.5 409.5 192 432 192C476 192 512 156 512 112S476 32 432 32S352 68 352 112C352 116.5 352.5 120.5 353 124.5L137.5 232.5C123 217.5 102.5 208 80 208C36 208 0 244 0 288C0 332 36 368 80 368C102.5 368 123 358.5 137.5 343.5L353 451.5C352.5 455.5 352 460 352 464C352 508 388 544 432 544S512 508 512 464C512 420 476 384 432 384Z " fill-rule="evenodd" fill="#000000" class="compoundy" data-color-group="blacks"></path></svg></svg>