<?xml version="1.0" encoding="utf-8"?>
<!-- Generator: Adobe Illustrator 22.1.0, SVG Export Plug-In . SVG Version: 6.00 Build 0)  -->
<svg version="1.1" id="designer_design" xmlns:svgjs="http://svgjs.com/svgjs"
	 xmlns="http://www.w3.org/2000/svg" xmlns:xlink="http://www.w3.org/1999/xlink" x="0px" y="0px" viewBox="0 0 416.7 370.4"
	 style="enable-background:new 0 0 416.7 370.4;" xml:space="preserve">
<path id="compound_designer_design" d="M261.3,274.8l-158.8,0l0,22.9l158.8,0l0,57.1l79.4-68.5l-79.4-68.5L261.3,274.8z M411.3,46.3
	H257v154.3h154.3V46.3z M0.1,46.3h46.3v30.9H0.1V46.3z M61.8,46.3h46.3v30.9H61.8V46.3z M123.6,46.3h30.9v46.3h-30.9
	C123.5,92.6,123.5,46.3,123.6,46.3z M0.1,154.4H31v46.3H0.1V154.4z M46.4,169.8h46.3v30.9H46.4V169.8z M108.1,169.8h46.3v30.9h-46.3
	V169.8z M0.1,92.6H31v46.3H0.1V92.6z M123.6,108.1h30.9v46.3h-30.9C123.5,154.4,123.5,108.1,123.6,108.1z"/>
</svg>
