<?xml version="1.0" encoding="utf-8"?>
<!-- Generator: Adobe Illustrator 22.1.0, SVG Export Plug-In . SVG Version: 6.00 Build 0)  -->
<svg version="1.1" id="designer_design" xmlns:svgjs="http://svgjs.com/svgjs"
	 xmlns="http://www.w3.org/2000/svg" xmlns:xlink="http://www.w3.org/1999/xlink" x="0px" y="0px" viewBox="0 0 500 500"
	 style="enable-background:new 0 0 500 500;" xml:space="preserve">
<style type="text/css">
	.st0{fill:none;}
</style>
<rect id="rect_design" class="st0" width="500" height="500"/>
<path id="compound_designer_design" d="M128.5,107.6V55.6c0-9.8-7.6-17.4-17.4-17.4s-17.4,7.6-17.4,17.4v52.1
	c-19.5,0-34.7,15.2-34.7,34.7v34.7c0,19.5,15.2,34.7,34.7,34.7v225.7c0,9.8,7.6,17.4,17.4,17.4s17.4-7.6,17.4-17.4V211.8
	c19.5,0,34.7-15.2,34.7-34.7v-34.7C163.2,122.8,148,107.6,128.5,107.6z M93.8,142.4h34.7v34.7H93.8V142.4z M267.4,281.3V55.6
	c0-9.8-7.6-17.4-17.4-17.4s-17.4,7.6-17.4,17.4v225.7c-19.5,0-34.7,15.2-34.7,34.7v34.7c0,19.5,15.2,34.7,34.7,34.7v52.1
	c0,9.8,7.6,17.4,17.4,17.4s17.4-7.6,17.4-17.4v-52.1c19.5,0,34.7-15.2,34.7-34.7V316C302.1,296.4,286.9,281.3,267.4,281.3z
	 M232.6,316h34.7v34.7h-34.7V316z M406.3,177.1V55.6c0-9.8-7.6-17.4-17.4-17.4s-17.4,7.6-17.4,17.4v121.5
	c-19.5,0-34.7,15.2-34.7,34.7v34.7c0,19.5,15.2,34.7,34.7,34.7v156.3c0,9.8,7.6,17.4,17.4,17.4s17.4-7.6,17.4-17.4V281.3
	c19.5,0,34.7-15.2,34.7-34.7v-34.7C441,192.3,425.8,177.1,406.3,177.1z M371.5,211.8h34.7v34.7h-34.7V211.8z"/>
</svg>
