<svg id="bg_gli_fireplace-3" width="500" height="500" xmlns="http://www.w3.org/2000/svg" version="1.1" xmlns:xlink="http://www.w3.org/1999/xlink" xmlns:svgjs="http://svgjs.com/svgjs" class="bgs" preserveAspectRatio="xMidYMin slice"><defs id="SvgjsDefs14081"></defs><rect id="rect_gli_fireplace-3" width="100%" height="100%" fill="none" rx="0.00" ry="0.00" opacity="1.00"></rect><svg id="th_gli_fireplace-3" preserveAspectRatio="xMidYMid meet" viewBox="-0.016666412353515625 -0.025000005960464478 126.52915954589844 129.625" class="svg_thumb" data-uid="gli_fireplace-3" data-keyword="fireplace-3" data-coll="gli" data-complex="true" data-c="{&quot;141422&quot;:[&quot;gli_fireplace-3_l_35&quot;],&quot;151525&quot;:[&quot;gli_fireplace-3_l_5&quot;],&quot;393969&quot;:[&quot;gli_fireplace-3_l_9&quot;,&quot;gli_fireplace-3_l_16&quot;],&quot;4b4c88&quot;:[&quot;gli_fireplace-3_l_0&quot;],&quot;6163ac&quot;:[&quot;gli_fireplace-3_l_1&quot;,&quot;gli_fireplace-3_l_48&quot;],&quot;29294a&quot;:[&quot;gli_fireplace-3_l_2&quot;,&quot;gli_fireplace-3_l_8&quot;,&quot;gli_fireplace-3_l_25&quot;,&quot;gli_fireplace-3_l_56&quot;,&quot;gli_fireplace-3_l_60&quot;,&quot;gli_fireplace-3_l_65&quot;],&quot;1b1b33&quot;:[&quot;gli_fireplace-3_l_3&quot;,&quot;gli_fireplace-3_l_14&quot;,&quot;gli_fireplace-3_l_23&quot;],&quot;1d1e36&quot;:[&quot;gli_fireplace-3_l_4&quot;],&quot;5e5eaa&quot;:[&quot;gli_fireplace-3_l_6&quot;],&quot;3a3a69&quot;:[&quot;gli_fireplace-3_l_7&quot;,&quot;gli_fireplace-3_l_26&quot;],&quot;17172a&quot;:[&quot;gli_fireplace-3_l_10&quot;],&quot;44468b&quot;:[&quot;gli_fireplace-3_l_11&quot;,&quot;gli_fireplace-3_l_13&quot;,&quot;gli_fireplace-3_l_17&quot;,&quot;gli_fireplace-3_l_18&quot;,&quot;gli_fireplace-3_l_20&quot;,&quot;gli_fireplace-3_l_22&quot;,&quot;gli_fireplace-3_l_30&quot;,&quot;gli_fireplace-3_l_31&quot;,&quot;gli_fireplace-3_l_49&quot;],&quot;3b3c75&quot;:[&quot;gli_fireplace-3_l_12&quot;,&quot;gli_fireplace-3_l_19&quot;,&quot;gli_fireplace-3_l_21&quot;,&quot;gli_fireplace-3_l_32&quot;,&quot;gli_fireplace-3_l_55&quot;,&quot;gli_fireplace-3_l_67&quot;],&quot;e4d7fb&quot;:[&quot;gli_fireplace-3_l_15&quot;],&quot;6dbaa2&quot;:[&quot;gli_fireplace-3_l_24&quot;,&quot;gli_fireplace-3_l_34&quot;,&quot;gli_fireplace-3_l_36&quot;,&quot;gli_fireplace-3_l_51&quot;,&quot;gli_fireplace-3_l_68&quot;],&quot;1c1d36&quot;:[&quot;gli_fireplace-3_l_27&quot;,&quot;gli_fireplace-3_l_29&quot;],&quot;0f0f16&quot;:[&quot;gli_fireplace-3_l_28&quot;],&quot;3a8491&quot;:[&quot;gli_fireplace-3_l_33&quot;,&quot;gli_fireplace-3_l_37&quot;,&quot;gli_fireplace-3_l_38&quot;,&quot;gli_fireplace-3_l_39&quot;,&quot;gli_fireplace-3_l_46&quot;,&quot;gli_fireplace-3_l_52&quot;,&quot;gli_fireplace-3_l_53&quot;,&quot;gli_fireplace-3_l_69&quot;],&quot;35626c&quot;:[&quot;gli_fireplace-3_l_40&quot;,&quot;gli_fireplace-3_l_42&quot;,&quot;gli_fireplace-3_l_43&quot;],&quot;99d4c3&quot;:[&quot;gli_fireplace-3_l_41&quot;,&quot;gli_fireplace-3_l_45&quot;],&quot;294b52&quot;:[&quot;gli_fireplace-3_l_44&quot;,&quot;gli_fireplace-3_l_54&quot;],&quot;4c4d8b&quot;:[&quot;gli_fireplace-3_l_47&quot;],&quot;2f565e&quot;:[&quot;gli_fireplace-3_l_50&quot;],&quot;86f9a9&quot;:[&quot;gli_fireplace-3_l_57&quot;],&quot;3e3d70&quot;:[&quot;gli_fireplace-3_l_58&quot;,&quot;gli_fireplace-3_l_62&quot;],&quot;0e0e14&quot;:[&quot;gli_fireplace-3_l_59&quot;,&quot;gli_fireplace-3_l_63&quot;],&quot;a6d6f3&quot;:[&quot;gli_fireplace-3_l_61&quot;],&quot;bb9cfb&quot;:[&quot;gli_fireplace-3_l_64&quot;],&quot;50491f&quot;:[&quot;gli_fireplace-3_l_66&quot;]}" data-colors="[&quot;#4b4c88&quot;,&quot;#6163ac&quot;,&quot;#29294a&quot;,&quot;#1b1b33&quot;,&quot;#1d1e36&quot;,&quot;#151525&quot;,&quot;#5e5eaa&quot;,&quot;#3a3a69&quot;,&quot;#393969&quot;,&quot;#17172a&quot;,&quot;#44468b&quot;,&quot;#3b3c75&quot;,&quot;#e4d7fb&quot;,&quot;#6dbaa2&quot;,&quot;#1c1d36&quot;,&quot;#0f0f16&quot;,&quot;#3a8491&quot;,&quot;#141422&quot;,&quot;#35626c&quot;,&quot;#99d4c3&quot;,&quot;#294b52&quot;,&quot;#4c4d8b&quot;,&quot;#2f565e&quot;,&quot;#86f9a9&quot;,&quot;#3e3d70&quot;,&quot;#0e0e14&quot;,&quot;#a6d6f3&quot;,&quot;#bb9cfb&quot;,&quot;#50491f&quot;]" style="overflow: visible;"><path id="gli_fireplace-3_l_0" d="M66.7 25.9C51.6 25.9 39.2 33.4 29.7 48.4C24.9 55.9 21.7 63.4 19.9 70.9C19.9 68.9 20.4 65.5 21.5 60.5C23 53.2 25.2 46.4 27.9 40.3C36.3 21.4 48.7 11.9 65 11.9C79.5 11.9 91 21.6 99.7 40.9C104 50.6 106.9 60.2 108.3 69.9C106.3 62.6 103.1 55.2 98.6 47.9C89.6 33.2 79 25.9 66.7 25.9Z " data-color-original="#4b4c88" fill="#4b4c88" class="purples"></path><path id="gli_fireplace-3_l_1" d="M91.8 36.2C90.8 34.8 89.8 33.8 88.9 33.3C88.3 32.9 87.5 32.2 86.5 31.2L85.1 29.7L87.8 27.4C88.3 27 89.2 26.2 90.3 25L92.8 28.1C92.5 27.8 92.8 28.3 93.6 29.6C94.1 30.3 94.6 31.2 95.2 32.1Z " data-color-original="#6163ac" fill="#6163ac" class="purples"></path><path id="gli_fireplace-3_l_2" d="M2 121.9V104H125V120.8Z " data-color-original="#29294a" fill="#29294a" class="purples"></path><path id="gli_fireplace-3_l_3" d="M8.9 118.5C13.8 119 17.2 119.3 19 119.2C20.3 119.1 22.8 119.2 26.5 119.3C30.4 119.5 33.6 119.5 35.9 119.4C37.2 119.4 41.2 119.4 47.7 119.5C53.4 119.6 58.4 119.5 62.5 119.2C67.5 118.9 74.1 118.7 82.5 118.7C90 118.7 96 118.9 100.6 119.2C106.1 119.5 114.1 119.2 124.7 118.2V121.2L2 121.7V117.7Z " data-color-original="#1b1b33" fill="#1b1b33" class="purples"></path><path id="gli_fireplace-3_l_4" d="M44 113.9C41.5 113.7 38.1 113.7 34 113.9C28.7 114.1 24.9 114.6 22.5 115.4C20.2 116.1 16.1 116.2 10.2 115.7L2 114.6L2.3 106.5L93 105.2L124.5 109V115.3C121.8 116 118.3 116.3 114 116.3C111.6 116.3 108.5 115.9 104.7 115.2C100.3 114.4 97.3 113.9 95.7 113.8C92.6 113.5 90.2 113.4 88.3 113.5C86.3 113.6 82.4 114 76.6 114.6C71.6 115.1 65.1 115.2 57.1 114.9C54.4 114.6 50 114.3 44 113.9Z " data-color-original="#1d1e36" fill="#1d1e36" class="purples"></path><path id="gli_fireplace-3_l_5" d="M42.7 110.1C40.7 110.3 39.1 110.6 37.8 110.9C36.7 111.1 34.6 111.3 31.4 111.5C28.3 111.6 26.1 111.6 24.8 111.4C23.5 111.3 21.8 111.3 19.7 111.5C17.5 111.7 15.5 112.1 13.5 112.6C11.8 113 9.4 113.2 6.2 113L2 112.7L2.3 106.4L124.8 107.9L125.1 112.7L117.8 111.9C112.1 112.1 108.2 112.1 106 111.9C104.9 111.8 102.5 111.3 98.8 110.4S92.9 109 92 108.9C91.3 108.8 88.2 109.4 82.7 110.6C76.9 111.9 72.5 112.6 69.5 112.7C66.2 112.8 61.6 112.4 55.8 111.5C50.4 110.6 47.5 110 47 109.9C46.3 109.8 44.9 109.9 42.7 110.1Z " data-color-original="#151525" fill="#151525" class="purples"></path><path id="gli_fireplace-3_l_6" d="M39 104L13.2 106.9L2 104L16 87.9H112L125 104L117.4 105.9L96.7 104L67.9 107.6Z " data-color-original="#5e5eaa" fill="#5e5eaa" class="purples"></path><path id="gli_fireplace-3_l_7" d="M20.3 88.7L113.8 95C116 97.5 116.9 99.2 116.6 100C116.4 100.8 116.2 101.4 116 101.7C115.7 102.2 115 102.4 113.8 102.3C111.5 102 109.6 101.8 108 101.6C105.1 101.3 102.7 101.2 100.7 101.3C95.7 101.7 91.5 102.1 88 102.4C81.3 102.9 76.6 103 73.9 102.9C71.3 102.7 67.7 102.5 63.2 102.3C58.4 102.1 55.2 102 53.4 101.9C51.4 101.8 48.4 101.8 44.5 102C39.7 102.1 37 102.2 36.3 102.2C27.8 102 22.4 101.9 20 101.9C17.3 102 15.3 102 14 102C11.8 101.9 10.7 101.4 10.7 100.7C10.7 99.5 10.9 98.2 11.2 96.8C11.6 95 12.1 93.9 12.8 93.4Z " data-color-original="#3a3a69" fill="#3a3a69" class="purples"></path><path id="gli_fireplace-3_l_8" d="M66 23.3C82.7 23.2 95.8 35.9 105.5 61.6C110.3 74.4 113.5 87.3 115 100.1H97C97.1 90.3 95.9 80.5 93.4 70.7C88.3 51.2 79.1 41.6 65.8 41.9C49.9 42.3 39.5 52.1 34.6 71.3C32.1 80.9 31.2 90.5 31.9 100H13C14 87.3 17 74.5 21.9 61.8C31.7 36.3 46.4 23.4 66 23.3Z " data-color-original="#29294a" fill="#29294a" class="purples"></path><path id="gli_fireplace-3_l_9" d="M87.1 39.9C83.8 36.7 81.6 34.8 80.5 34.1C79.3 33.4 76.7 32.7 72.7 32.2C68.8 31.7 65.8 31.5 63.7 31.8C61.1 32.1 58 32.9 54.4 34.2C49.9 35.7 46.4 37.5 43.9 39.4C41.3 41.4 38.6 44 35.9 47.3C33.4 50.2 31.7 52.8 30.6 55C29.8 56.7 28.2 58.3 26 60C24.9 60.8 23.8 61.5 22.8 62L22 61C26.3 50 31.7 41.4 38 35.1C45.9 27.3 55.2 23.3 65.8 23.2C76.1 23.1 85.2 28.1 93 38.3C99 46 104 56.5 108.1 69.6L108 69.9C107.1 68.1 106.1 66.2 104.9 64.3C102.6 60.4 100.9 58 99.7 57.2C98.7 56.5 97.5 54.7 96.2 52C94.8 49 93.8 47.1 93.1 46.4C92 44.8 89.9 42.6 87.1 39.9Z " data-color-original="#393969" fill="#393969" class="purples"></path><path id="gli_fireplace-3_l_10" d="M48.5 40.7C50 39.6 52.4 38.6 55.8 37.6C59 36.7 62.2 36.1 65.3 35.8C68.1 35.6 71.8 36.1 76.4 37.5C80.6 38.8 83.6 40.1 85.2 41.5C86.4 42.5 88.4 44.8 91 48.3C92.4 50.1 94 52.4 96 55.1C96.7 55.9 97.4 57.4 98.1 59.7C98.9 62.1 99.7 63.9 100.5 65.2C101.5 66.7 102.4 69.3 103.3 73.2C104.3 77.8 104.9 80.4 105.1 80.9C105.9 83 106.3 85.9 106.3 89.8C106.3 92 107.6 93 110.1 92.8C111.9 92.6 113.2 92.7 113.9 93.1L115.1 100.4H97C97.1 90.6 95.9 80.8 93.4 71C88.3 51.2 79.1 41.6 65.8 41.9C49.9 42.3 39.5 52.1 34.6 71.3C32.1 80.9 31.2 90.5 31.9 100H13L14.5 90.7L15.6 91.7C16.6 92.5 17.6 93.1 18.8 93.5S20.9 93.5 21.8 92.3C22.6 90.8 23.2 89.7 23.6 89.2C24.7 88.1 25.6 87.3 26.2 86.6C27.3 85.5 27.8 84.5 27.7 83.6C27.6 82.5 27.8 79.8 28.3 75.3C28.8 70.7 29.3 67.9 29.8 66.7S31.6 62.7 33.8 58.4C36 54.2 37.3 51.7 37.8 50.9S39.9 48.5 42.6 45.9C45 43.6 47 41.8 48.5 40.7Z " data-color-original="#17172a" fill="#17172a" class="purples"></path><path id="gli_fireplace-3_l_11" d="M78 38.2C78.8 41.4 80.2 44.2 82 46.4C82.8 47.4 83.5 48.1 84.2 48.6L79 44.9C77.8 43.2 76.7 40.9 75.7 37.9C75.1 36 74.6 33 74.4 28.9L74.2 23.3L77.2 24.1L76.8 28.2C76.8 31.6 77.2 34.9 78 38.2ZM51.3 45.7L46 50.2C47 48.6 47.7 47.6 48.1 47C49.4 44.8 50.5 42.6 51.3 40.4C51.8 39 52 36.7 51.8 33.4L51.3 28.8L52.8 32.7C53.8 35.7 54.2 38 54.1 39.8L53.8 44.3C52.8 44.6 51.9 45 51.3 45.7Z " data-color-original="#44468b" fill="#44468b" class="purples"></path><path id="gli_fireplace-3_l_12" d="M54.5 38.7L54.3 42.4L49.3 45.7L51.3 40.4Z " data-color-original="#3b3c75" fill="#3b3c75" class="purples"></path><path id="gli_fireplace-3_l_13" d="M60.8 26.2L64.6 25.4L63.8 27.9C63.5 29.9 63.7 31.7 64.4 33.3C65.6 35.8 66.6 37.5 67.4 38.3C66.7 38.2 65.4 37.4 63.5 35.7C62.4 34.7 61.6 32.8 61.1 30ZM91.8 36.2L90.3 38.4C89.5 40.5 89.4 42.9 90 45.7C90.5 47.8 92.7 51 96.8 55.3C101.2 59.9 104.1 64 105.5 67.7C107.2 72.1 107.4 76.7 106.2 81.6C105.6 84.1 104.8 86.1 103.8 87.7C104.2 86.9 104.5 85.6 104.7 83.9C105.2 80.5 105 76.5 104.3 71.9C103.6 67.4 101.3 63 97.5 58.5C93.5 54.5 91 51.9 90.2 50.6C88.2 47.4 86.8 42.9 85.8 37.2L85 29.7Z " data-color-original="#44468b" fill="#44468b" class="purples"></path><path id="gli_fireplace-3_l_14" d="M70 41.8L71.4 41.9C74.4 42.4 77.2 43.5 80 45.2C88.7 50.5 94.8 60.4 98.1 75C99.8 82.4 100.7 88.9 100.7 94.3C100.7 97 100.5 98.9 100.1 100.2H31.1C30.8 99 30.6 97 30.6 94.3C30.6 88.9 31.4 82.5 33.1 75C36.4 60.4 42.5 50.5 51.3 45.2C55.7 42.6 59.7 41.4 63.4 41.7C60.7 41.6 57.8 42.3 54.8 44C48.7 47.3 44.8 53.3 43.1 62C42 67.9 41.3 72.6 41.1 76.3C41 78.1 41 79.4 41.1 80.1H90C90.1 79.4 90.1 78.2 90 76.3C89.8 72.7 89.1 67.9 88 62C86.3 53.3 82.5 47.3 76.4 44C74.5 43 72.5 42.3 70.3 41.9Z " data-color-original="#1b1b33" fill="#1b1b33" class="purples"></path><path id="gli_fireplace-3_l_15" d="M69.1 41.8L70.9 41.9C73.4 42.3 75.9 43.1 78.3 44.3C86 48.2 91.8 55.7 95.7 66.7L97.8 83.4L35 82.9L36.4 74.9L34.8 68.6C38.6 56.7 44.5 48.6 52.5 44.4C56.5 42.3 60.2 41.3 63.4 41.6C60.7 41.5 57.8 42.2 54.8 43.9C48.7 47.2 44.8 53.2 43.1 61.9C42 67.8 41.3 72.5 41.1 76.2C41 78 41 79.3 41.1 80H90C90.1 79.3 90.1 78.1 90 76.2C89.8 72.6 89.1 67.8 88 61.9C86.3 53.2 82.5 47.2 76.4 43.9C74.5 42.9 72.5 42.2 70.3 41.8Z " fill-rule="evenodd" fill="#393c9e" class="purples"></path><path id="gli_fireplace-3_l_16" d="M51.4 84.6C49.6 84.6 46.5 84.3 42.2 83.8L36.3 82.9L43.8 83.3C49.2 83.5 53.1 83.5 55.3 83.2S60.6 82.7 64.6 82.7C66.7 82.7 69.4 82.7 72.7 82.8H89.4C92.1 82.8 94.9 82.9 97.8 83.2C92.2 84.1 87.9 84.4 84.8 84.2C82.5 84 79.5 83.9 75.8 83.9S69.5 84 67.8 84.2C65.5 84.5 60 84.6 51.4 84.6Z " data-color-original="#393969" fill="#393969" class="purples"></path><path id="gli_fireplace-3_l_17" d="M16.7 117.3C23.4 117 33.3 115 46.4 111.3C50.1 110.2 56.3 109.8 65.1 110C75.7 110.2 81.5 110.3 82.5 110.3C85.7 110 88.1 109 89.7 107.2C90.5 106.3 91 105.4 91.2 104.6H96.6C93.7 107.3 91 109.3 88.6 110.6C87.3 111.3 82.9 111.6 75.3 111.5C65.8 111.4 59.1 111.6 55.2 112C50 112.6 45.7 113.4 42.1 114.5C37.5 116.2 33 117.7 28.5 119C22.9 120.7 16.9 121.4 10.5 121.4L2.5 120.7L2.1 114.7L6.5 116.2C9.9 117 13.4 117.4 16.7 117.3Z " data-color-original="#44468b" fill="#44468b" class="purples"></path><path id="gli_fireplace-3_l_18" d="M43.4 121.4L34 121.6L41.9 118.8C48.3 116.8 54.6 115.4 60.8 114.5C66.9 113.7 74.1 114.5 82.4 117.1C86.6 118.4 90.1 119.8 93.1 121.2H89.1C87.1 120.2 84.7 119.2 81.8 118.3C76.1 116.4 71.1 115.6 66.8 115.9S57.3 117.2 51.2 118.9Z " data-color-original="#44468b" fill="#44468b" class="purples"></path><path id="gli_fireplace-3_l_19" d="M35.7 108.3C35.1 108.8 34.1 109.4 32.6 110C29.8 111.2 26.3 112.1 22.3 112.6C18.3 113.2 15.1 112.8 12.7 111.5L10.3 109.3H13.7L16 110.1C17.9 110.6 19.8 110.7 21.8 110.6C23.7 110.5 25.7 110 27.7 109.3C28.7 108.9 29.5 108.6 30.1 108.2Z " data-color-original="#3b3c75" fill="#3b3c75" class="purples"></path><path id="gli_fireplace-3_l_20" d="M119.4 105.3C119.1 106.4 118.4 107.6 117.3 108.9C115.2 111.5 112.3 113.4 108.7 114.7S100.7 116.3 95.7 115.7L89.3 114.4H92.9C95.9 114.3 98.8 113.9 101.7 113.4C104.6 112.8 107.5 111.4 110.3 109C111.7 107.8 112.8 106.7 113.7 105.6Z " data-color-original="#44468b" fill="#44468b" class="purples"></path><path id="gli_fireplace-3_l_21" d="M102 113.4C103.3 112.9 104.9 112.1 106.8 111.1S110 109.2 110.8 108.5L116.1 110.2C115.4 110.9 114.1 111.8 112.2 112.8C110.5 113.8 108.8 114.6 107.3 115.2C106.5 115 105.5 114.7 104.3 114.3C103.1 113.8 102.3 113.5 102 113.4Z " data-color-original="#3b3c75" fill="#3b3c75" class="purples"></path><path id="gli_fireplace-3_l_22" d="M101.7 121.3L107.3 120.9C111.4 120.5 114.5 119.8 116.4 119C119.3 117.7 122.2 116.1 125.1 114.3V121.3Z " data-color-original="#44468b" fill="#44468b" class="purples"></path><path id="gli_fireplace-3_l_23" d="M100 88.7L100.6 94.5C100.6 96.4 100.4 98.2 100.1 99.8H31C30.5 97.4 30.4 94.1 30.7 89.7Z " data-color-original="#1b1b33" fill="#1b1b33" class="purples"></path><path id="gli_fireplace-3_l_24" d="M67.4 13.6L70 12.2C72.2 11.1 74.6 10 77.1 8.9S83 8.5 87.2 11C89.3 12.2 91.2 13.5 92.8 15C90.3 15.9 88.1 16.7 86.1 17.4C85 17.8 83.3 18 81.1 18.1H78.1L80.2 18.8C81.8 19.6 83.3 21 84.5 22.8C85.8 24.6 86.4 26.7 86.3 29.1C86.3 30.3 86.1 31.3 85.8 32.2C82.5 30.5 78.8 29 74.8 27.8C72.3 27.1 69.9 25.8 67.5 24L64.7 21.5C61.4 24.6 58.4 27.1 55.7 28.8C54 29.9 51.4 30.6 47.8 30.8H43C43.1 30 43.3 29 43.6 27.9C44.1 25.7 44.7 24 45.4 22.7S47.3 20.2 48.9 19C49.7 18.4 50.4 18 51.1 17.6L46.4 17.3C43.8 17.1 41.6 16.7 39.6 16.1L37.4 15.3L39.8 12.8C42 11 44.8 9.7 48.1 8.9S55.7 8.7 60.8 10.6C63.2 11.5 65.5 12.5 67.4 13.6Z " data-color-original="#6dbaa2" fill="#6dbaa2" class="cyans"></path><path id="gli_fireplace-3_l_25" d="M76.5 16.6C75.1 15.9 73.6 15.5 72 15.5C69.3 15.5 66.5 16.3 63.6 17.9H62.4L60.6 16.9C59.7 16.4 58 16.2 55.4 16.4C52.8 16.5 50.6 17 48.6 17.7C48.5 17.7 48.5 17.4 48.7 17L48.9 16.4V4L53.3 2.4C56.9 1.4 60.3 0.8 63.5 0.8C67.1 0.8 70.6 1.3 74 2.4C75.7 3 77 3.5 78 4L77.1 16.4Z " data-color-original="#29294a" fill="#29294a" class="purples"></path><path id="gli_fireplace-3_l_26" d="M67.8 9.7L67.4 10.7C67.2 11.5 67.1 12 67.1 12.3S67.2 13 67.5 13.7C67.6 14.3 67.4 14.6 67 14.6C66.6 14.7 65.9 14.9 65 15.4L63.7 16.1C62.9 15 61.8 14.2 60.4 13.8C59.6 13.5 58.5 13.5 57.1 13.8L55.3 14.3C55.4 13.7 55.5 13.2 55.7 12.8C55.9 12.3 55.7 11.5 55.2 10.6L56.6 10.8C57.7 10.8 58.9 10.7 60 10.5C61.8 10.2 63.4 9.8 64.6 9.5C65.4 9.1 66.4 9.2 67.8 9.7Z " data-color-original="#3a3a69" fill="#3a3a69" class="purples"></path><path id="gli_fireplace-3_l_27" d="M71.2 7.8L77.5 7.4L77.2 16.4L71.2 14.9Z " data-color-original="#1c1d36" fill="#1c1d36" class="purples"></path><path id="gli_fireplace-3_l_28" d="M75.7 15.4V8.3L77.5 6.8L77.2 16.4Z " data-color-original="#0f0f16" fill="#0f0f16" class="grays"></path><path id="gli_fireplace-3_l_29" d="M52.5 9.3L53.5 15.3L48.8 17.7V6.5Z " data-color-original="#1c1d36" fill="#1c1d36" class="purples"></path><path id="gli_fireplace-3_l_30" d="M34 54.9C32.5 55.9 30.8 57.5 29 59.6C25.3 63.8 22.7 68.5 21 73.7C19.8 77.4 19.1 82.9 19 90.1C19 93.7 19 97 19.2 99.9L13 100C13.5 96.5 14.1 92.7 15 88.5C16.6 80.2 18.3 74.3 20.1 70.9C22.8 65.6 26 61.3 29.6 58.1C31.3 56.5 32.8 55.4 34 54.9Z " data-color-original="#44468b" fill="#44468b" class="purples"></path><path id="gli_fireplace-3_l_31" d="M37.3 35.9L39.8 33.1L40.7 40.1C41.2 45.3 41.4 49.4 41.1 52.2C40.8 54.7 39 57.8 35.7 61.3C31.5 65.8 28.8 68.9 27.8 70.8C26.1 73.8 25 78.2 24.4 83.7C24.1 86.5 24 89.1 24 91.3C23.7 89.6 23.5 87.6 23.4 85.3C23.1 80.7 23.4 77 24.3 74.2C25.2 71.2 26.8 68.2 29 65.2C30.3 63.4 32.4 61 35.1 58.1C38 55.1 39.3 50.4 38.9 44.2ZM111.3 94.7C110.8 97.4 110.5 99.1 110.5 100H102.7L105.1 97.9C106.9 95.8 108.2 92.9 109 89.2C109.6 86.4 109.9 82.7 109.7 78.1L109.2 72.2L111.5 80.2L111.6 86.2C111.6 90.5 111.5 93.3 111.3 94.7Z " data-color-original="#44468b" fill="#44468b" class="purples"></path><path id="gli_fireplace-3_l_32" d="M27.3 85.9C27.7 84.2 28.7 82.5 30.1 80.8L32.1 78.7L30.8 91L31.1 99.9C30.7 99.6 30.3 99.2 29.8 98.6C28.9 97.5 28.1 96.2 27.6 94.7S26.9 91.3 27 89ZM98.7 78.3C98.5 75.4 97.8 72.3 96.7 68.9C96 66.8 95.3 64.9 94.5 63.2L93.6 61.2L94.5 61.7C95.4 62.4 96.5 63.8 97.9 65.9S99.8 70.7 99.5 74C99.4 75.6 99.1 77 98.7 78.3Z " data-color-original="#3b3c75" fill="#3b3c75" class="purples"></path><path id="gli_fireplace-3_l_33" d="M76.5 2L77.1 2.4C77.5 2.8 77.9 3.2 78.2 3.8C78.6 4.5 78.7 5.2 78.5 5.9S77.6 7.4 76.6 8.2C75.7 8.9 74.3 9.1 72.2 8.9C70 8.5 68.5 8.3 67.8 8.2C66 8 63 8.3 59 9.3C57.4 9.7 55.8 9.7 54.1 9.5C52.4 9.2 50.9 8.6 49.8 7.7C48.9 7 48.4 5.9 48.3 4.6L48.5 2.9Z " data-color-original="#3a8491" fill="#3a8491" class="cyans"></path><path id="gli_fireplace-3_l_34" d="M72.4 7.3C70.4 7.2 68.8 7.1 67.5 7.1C65.1 7 62.9 7.2 60.8 7.6C58.4 8.1 56 8 53.8 7.4C51.7 6.8 50 5.8 48.8 4.4C47.8 3.2 48.5 2.2 50.9 1.4C52.6 0.8 54.8 0.4 57.4 0.2C61 -0.1 65.1 -0.1 69.8 0.2C72.2 0.4 74.2 0.8 75.9 1.6S78.2 3.1 78 4C77.9 4.9 77.2 5.6 76 6.3C74.9 6.9 73.7 7.3 72.4 7.3Z " data-color-original="#6dbaa2" fill="#6dbaa2" class="cyans"></path><path id="gli_fireplace-3_l_35" d="M52.7 2.6L59.4 1.3C60.8 1 62.3 0.9 63.9 1.1C64.9 1.2 66.7 1.3 69.4 1.6C73.8 1.9 75.5 2.8 74.4 4.3C73.6 5.3 71.1 5.6 67 5C63.7 4.5 60.6 4.5 57.7 5C56.1 5.3 54.8 5.2 54 4.6C53.6 4.2 53.2 3.5 52.7 2.6Z " data-color-original="#141422" fill="#141422" class="purples"></path><path id="gli_fireplace-3_l_36" d="M91.4 21.6L84.8 25.6C84.1 23.2 83.1 21.5 81.8 20.6C81 20.1 79.9 19.5 78.7 18.8L77 17.9L78.6 18.1C79.8 18.1 80.7 18.1 81.4 17.9C82.5 17.7 83.7 17.4 85.1 17.2L86.5 17C87.5 17.1 88.4 17.5 89.1 18.2C89.8 19 90.6 20.1 91.4 21.6ZM48.9 19C47.4 20 46.4 20.9 46 21.6S45.2 23.1 44.8 24.1C44.6 24.6 44.4 25 44.3 25.3L36.6 22.3L37.6 20.9C38.4 19.9 39 19.1 39.6 18.5C40.5 17.6 41.8 16.9 43.6 16.2L50.9 17.5C50.3 18 49.6 18.4 48.9 19Z " data-color-original="#6dbaa2" fill="#6dbaa2" class="cyans"></path><path id="gli_fireplace-3_l_37" d="M52.8 20.9L55.4 18.3C55.9 17.6 55.6 17.3 54.3 17.4C51.8 17.6 49.7 18.4 47.9 19.7L46 21.6L47.4 18.9C48.9 17.1 51.1 16.1 54 15.9S59.5 16.1 61.7 17C62.8 17.5 63.6 18 64.1 18.5L64.4 19.4C64.6 20.1 64.5 20.9 64.3 21.7C63.5 24.3 61.1 27 56.9 29.6C55.4 30.5 52.7 31 48.7 31L43 30.6L49.8 29.4C54.6 28.4 57.5 27.1 58.5 25.6C59.9 23.6 60.7 22.1 60.7 21C60.7 19.8 59.6 19.5 57.5 20.3C55.6 21 53.7 22.1 51.8 23.6L49.5 25.6L50.4 24C51.1 22.8 51.9 21.7 52.8 20.9Z " data-color-original="#3a8491" fill="#3a8491" class="cyans"></path><path id="gli_fireplace-3_l_38" d="M68.3 15.4C72 14.6 75.6 15.1 79.1 16.9C81.1 17.9 82.8 19.8 84.3 22.6C85 24 85.6 25.2 85.9 26.4C85.7 25.8 85.4 25 84.9 24.2C84 22.6 82.9 21.3 81.6 20.3C80.1 19.2 78.7 18.5 77.4 18.2S75.9 18.3 76.8 19.3C78 20.6 79.1 22.5 80.1 24.8C78.8 23.7 77.3 22.6 75.6 21.7C72.4 19.8 70 19.2 68.5 20C65 22 68.4 24.4 78.8 27.3C80.1 27.7 81.7 28.5 83.5 29.9C84.4 30.6 85.2 31.3 85.8 31.9C81 30.1 76.2 28.5 71.3 27.1C68.3 26.3 66.1 24.5 64.8 21.7L63.7 17.8L65.1 16.7C66.3 16.1 67.3 15.6 68.3 15.4Z " data-color-original="#3a8491" fill="#3a8491" class="cyans"></path><path id="gli_fireplace-3_l_39" d="M91.8 14.7C91.3 15.4 90 16 87.8 16.7C86.4 17.1 84.8 17.5 82.9 17.9L80.5 18.3L77.1 16.5L77.5 8.5L77.9 9.3C78.4 9.8 79.1 10 80 9.8S82.3 9.9 84 10.6C84.9 11 85.6 11.4 86.3 11.8C85.1 11.5 83.7 11.4 82 11.5C80.6 11.6 79.8 12.1 79.4 12.8S79.5 14.2 81 14.8C83 15.5 86.6 15.5 91.8 14.7ZM49 8.9L48.7 17.7C47.5 17.5 46.2 17.4 44.7 17.4C43.8 17.4 42.2 17 40.1 16.3L37.2 15.2L44 15.4C45.3 15.4 46.2 15 46.6 14.3C47 13.7 47 12.9 46.5 12.1C46.2 11.5 45.3 11.3 43.8 11.6L41.7 12.3L42.6 11.3C43.3 10.6 43.9 10.2 44.5 10C45.3 9.8 46.8 9.4 49 8.9Z " data-color-original="#3a8491" fill="#3a8491" class="cyans"></path><path id="gli_fireplace-3_l_40" d="M87.9 21.7C89 21.7 90.2 21.7 91.3 21.5L85.5 25.4C85.3 24.7 84.9 23.8 84.3 22.5C83.9 21.8 83.2 20.8 82 19.6L80.4 18L86.6 17.2L89.1 19.5C88.4 19.4 87.7 19.4 86.9 19.5C85.4 19.6 84.6 20 84.5 20.6C84.6 21.4 85.6 21.7 87.9 21.7ZM46.8 20.4C46.3 21.2 45.7 22.3 45.1 23.6C44.8 24.2 44.5 24.8 44.3 25.3L36.6 22.3L40.2 22.9C42.6 23.1 44 22.7 44.2 21.7C44.4 20.8 43.9 20.2 42.7 20L41 19.9L42.5 16.9L49 17.4C48.3 18.1 47.6 19.1 46.8 20.4Z " data-color-original="#35626c" fill="#35626c" class="cyans"></path><path id="gli_fireplace-3_l_41" d="M72.3 21.7C72.7 21.5 73.1 21.4 73.5 21.5C73.8 21.6 74.5 21.9 75.6 22.5C76.9 23.2 79.2 25 82.4 28C79.9 26.2 77.6 25 75.6 24.5C73.7 24 72.6 23.6 72.1 23.3C71.2 22.8 71.3 22.3 72.3 21.7ZM79 20.4C78.7 19.7 78.7 19.3 79.2 19.2C79.7 19 80.6 19.5 81.8 20.6C82.9 21.6 83.7 23.2 84.2 25.3C84.4 26.4 84.6 27.3 84.6 28.2L82.3 24.2C81.9 23.5 81.2 22.6 80.3 21.6ZM57.5 22.4C58.5 22.7 58.8 23.2 58.3 23.9C58.1 24.2 57.3 24.8 56 25.7C55.3 26.2 53.7 26.9 51.2 27.6L47.7 28.5L51.8 25.2C54.7 23 56.6 22.1 57.5 22.4ZM49.5 19.9C51 20 50.8 21.2 48.9 23.6L45.7 27.2C45.9 26 46.3 24.7 46.7 23.5C47.6 21 48.5 19.8 49.5 19.9Z " data-color-original="#99d4c3" fill="#99d4c3" class="cyans"></path><path id="gli_fireplace-3_l_42" d="M77.5 21.7C78 22.2 78.8 23.3 80 25C79.2 24.1 78.1 23.2 76.9 22.2C74.5 20.3 72.5 19 70.7 18.5C68.7 17.9 67.3 17.9 66.5 18.4C65.8 18.8 65.6 19.8 65.9 21.3C66.2 23.1 66.6 24.3 67 24.9C67.7 26 69.1 26.8 71.2 27.4C72.3 27.7 74.1 28.1 76.4 28.6C77.8 28.9 79 29.3 80 29.7C81.7 30.4 83.6 31.2 85.7 32.2C82.4 31.4 79.6 30.7 77.2 30.2C74.5 29.8 72.4 29.4 70.9 28.9C68.3 28.1 66.5 26.9 65.4 25.2C64.4 23.5 63.7 21.9 63.5 20.2V18.2L65.9 16.8C67.8 15.8 69.5 15.3 71.1 15.2S74.1 15.3 75.5 15.9C76.2 16.2 76.7 16.4 77.1 16.7C76.3 16.7 75.6 16.8 74.9 16.9C73.6 17.2 73.3 17.6 73.9 18.3C75 18.9 76.2 20.2 77.5 21.7Z " data-color-original="#35626c" fill="#35626c" class="cyans"></path><path id="gli_fireplace-3_l_43" d="M49.8 16.9L53.8 15.3C56.9 14.5 59.5 14.7 61.6 15.9C63.1 16.7 64.1 18.1 64.6 20.2C64.8 21.2 64.9 22.1 64.9 23C64.9 23.5 64.6 24.1 64.2 24.8C63.4 26.2 62.1 27.6 60.3 29S55.6 31.2 51.6 31.4L46 31.2L50.2 30.8C53.2 30.4 55.4 30 56.8 29.4C58.5 28.8 59.8 27.6 60.9 26C62 24.3 62.3 22.9 61.8 21.6C61.3 20.5 60.8 19.8 60.1 19.7C59.7 19.7 58.9 19.9 57.5 20.3C56.6 20.6 55.2 21.4 53.3 22.7L50.7 24.6L52.9 22.1C54.4 20.4 55.5 19.3 56 19C56.8 18.5 57.3 17.7 57.3 16.5L55.3 16C54.5 15.8 53.3 15.9 51.8 16.2ZM81.7 10.5C81.3 10.5 80.9 10.6 80.4 10.8C79.5 11.1 79 11.5 78.8 12C78.2 14.3 78.8 15.7 80.7 16.2C82.5 16.6 86.6 16.2 92.8 14.9C89.3 16.6 86.6 17.6 84.6 17.9C83.4 18 82.3 18.1 81.5 18.2H80.6L77.2 15.5L77.7 10.7L78.6 10.4C79.3 10.2 79.8 10.1 80 10.1C80.4 10.2 81 10.3 81.7 10.5ZM48.9 9.7L49.2 17.7C48.9 17.9 47.9 17.9 46 17.7C44.9 17.6 43.4 17.3 41.6 16.8L39.4 16L42.1 16.2C44 16.3 45.4 16.3 46.3 16.1S47.8 15.3 48.1 14.3C48.4 13.4 48.4 12.6 48 11.9C47.8 11.4 47.3 11 46.5 10.8L45.4 10.6Z " data-color-original="#35626c" fill="#35626c" class="cyans"></path><path id="gli_fireplace-3_l_44" d="M83.8 19.2C83.5 19.7 83.4 20.3 83.6 21C83.9 21.8 84.5 22.3 85.5 22.6C87 23 88.6 23 90.3 22.6L85.5 25.5C85.3 24.2 84.5 22.7 83.2 21.1C82.4 20.1 81.7 19.4 81.1 18.8L80.4 18.2L84.4 17.9L87.6 17.2C87.2 17.4 86.9 17.5 86.5 17.7C85.9 18 85.7 18.3 85.9 18.4C85.6 18.4 85.3 18.4 84.9 18.5C84.4 18.6 84 18.8 83.8 19.2ZM42.2 16.9L43.6 17.2C44.7 17.4 45.6 17.5 46.3 17.5L48.8 17.7C48.4 18.5 47.7 19.6 46.7 21C46.1 21.8 45.4 22.9 44.8 24.1L44 25.5L38.7 23L41.1 23.5C42.8 23.8 43.8 23.8 44.3 23.7C44.9 23.5 45.4 22.8 45.7 21.5C46 20.3 45.9 19.6 45.3 19.4L42.3 19.1L44.7 18.3Z " data-color-original="#294b52" fill="#294b52" class="cyans"></path><path id="gli_fireplace-3_l_45" d="M46 13.2C46.5 13.9 44.1 14.3 38.7 14.5L42 13.4C44.3 12.7 45.6 12.6 46 13.2ZM81.4 13C81.5 12.1 83 11.9 85.7 12.4C87.1 12.7 88.4 13 89.8 13.5C88.4 13.6 86.9 13.7 85.5 13.7C82.7 13.7 81.3 13.5 81.4 13ZM73.4 5.8C74.3 5.9 75.1 5.5 75.8 4.6C76.1 4.2 76.3 3.7 76.5 3.3C76.5 4.6 75.9 5.5 74.8 6.1C74.1 6.5 73.4 6.7 72.7 6.7C71.8 6.6 71 6.5 70.3 6.4C69.5 6.3 68.1 6.2 66.1 6.1C63.9 6.1 62.4 6 61.5 6S59.5 6.1 58.1 6.4C56.6 6.7 55.3 6.9 54.2 6.9C52.9 6.9 52 6.4 51.5 5.5L51.1 4L51.9 4.8C52.6 5.4 53.3 5.9 54 6.2S56 6.5 58.1 6.1C60.6 5.7 62.2 5.4 62.7 5.4C64.3 5.3 67.9 5.4 73.4 5.8Z " data-color-original="#99d4c3" fill="#99d4c3" class="cyans"></path><path id="gli_fireplace-3_l_46" d="M74.7 3.8C73.5 3.1 72.4 2.7 71.4 2.5C70.1 2.3 68.3 2.3 66 2.5C65 2.6 63.7 2.6 62.2 2.6C60.6 2.5 59.4 2.5 58.6 2.5C57.7 2.5 56.5 2.7 55.1 3.2L53.3 3.9C53 3.9 52.7 3.8 52.4 3.7C51.8 3.5 51.6 3.2 51.7 2.7C51.8 2.3 52.4 2 53.4 1.8C53.9 1.7 54.7 1.6 55.6 1.4C56 1.3 57.6 1 60.4 0.6C61.2 0.5 62.5 0.5 64.3 0.5C65.8 0.5 67 0.6 67.8 0.7C71.8 1 74.1 1.5 74.9 2C75.5 2.4 75.6 2.7 75.3 3.1Z " data-color-original="#3a8491" fill="#3a8491" class="cyans"></path><path id="gli_fireplace-3_l_47" d="M58.2 10.8L60.2 10.4C60.5 10.4 61.5 10.1 63 9.6L63.3 15.5C62.8 14.8 62.1 14.3 61.3 13.9C60.8 13.6 60.2 13.4 59.6 13.2L58.8 13Z " data-color-original="#4c4d8b" fill="#4c4d8b" class="purples"></path><path id="gli_fireplace-3_l_48" d="M39.8 33.2L37.3 36C37.1 34.1 36.9 32.6 36.5 31.5C36.3 30.8 36 30 35.5 29L35 27.8L36.9 25.3L37.5 26.2C37.9 27 38.3 27.9 38.6 28.9C39.1 30.3 39.5 31.8 39.8 33.2ZM31.5 32.9V35.5C31.4 37.4 31.1 39 30.7 40.1C30 41.9 28.4 43.9 25.7 46.1L27.2 42.6C28.1 42.1 28.8 41.2 29.4 40.1S30.2 37.7 30.1 36.3ZM95.4 41.4L96.5 41.5C97.3 41.8 98.1 42.5 98.8 43.5C99.9 45.2 100.5 47.4 100.6 50.2C99.7 48 98.8 46.2 97.9 45Z " data-color-original="#6163ac" fill="#6163ac" class="purples"></path><path id="gli_fireplace-3_l_49" d="M95.4 41.4L97.9 45C98.9 46.6 99.8 48.3 100.6 50.2C99.3 49.4 97.9 48.2 96.6 46.5C95.8 45.5 95.3 44.3 95.3 43Z " data-color-original="#44468b" fill="#44468b" class="purples"></path><path id="gli_fireplace-3_l_50" d="M52.4 46.7C50 48.5 48.3 49.8 47.5 50.6C46.8 51.4 45.7 53 44.2 55.5C43.4 56.9 42.3 58.6 41 60.8C40.4 61.7 39.6 63.8 38.6 67C38.1 68.7 37.4 70.7 36.7 73.1C36.4 73.9 36.2 76 36 79.4C35.8 82.9 35.6 85.1 35.3 86C34.9 87.1 34.8 88.7 34.8 90.6C34.8 91.9 34.9 93.1 35.1 94.1C35.2 94.9 35.3 96.1 35.4 97.8L33.9 100.1C33.6 99.8 33.4 98.4 33.2 96C33 93.3 32.9 91.6 32.8 90.9S32.9 88.4 33.3 85.7C33.7 82.9 33.9 81.2 33.9 80.7C33.9 80.1 34.2 78.2 34.7 75.1S35.5 70.2 35.5 69.6C35.5 68.8 35.9 67.4 36.8 65.3C37.6 63.3 38.2 61.9 38.8 61.1C39.5 60.1 41 57.6 43.5 53.6C43.8 53.1 44.5 52 45.4 50.4C46.4 48.9 47.4 47.9 48.4 47.3C52.4 45 54.8 43.6 55.7 43C56.6 42.3 57.5 41.8 58.4 41.5C59.4 41.1 60.6 40.7 62.1 40.5C63.8 40.2 66.3 40.1 69.4 40.2C72.7 40.3 74.7 40.6 75.3 41.1C76.1 41.7 77.7 42.8 80.2 44.5C82.9 46.3 84.6 47.5 85.5 48.1C86.3 48.6 87.9 50.9 90.3 55C92.4 58.7 93.8 61.5 94.6 63.3C95.1 64.5 95.7 66.9 96.5 70.5C96.9 72.4 97.4 74.6 97.9 77.1C97.9 77.2 98.4 78.7 99.4 81.7C100.2 84 100.6 85.8 100.7 87.1C100.8 89.2 100.7 93.5 100.3 100.1L98.3 97.6C98.5 92.9 98.6 89.6 98.5 87.6C98.4 86.2 98.1 84.1 97.6 81.4C97.1 78.8 96.7 77.2 96.4 76.6C96 74.3 95.5 72 95 69.9C94.1 65.7 93.1 63 92 61.8C91.1 61.2 89.9 58.8 88.1 54.6C86.6 51.1 85 48.9 83.5 48C80.8 46.2 78.6 44.8 77 43.9C74.2 42.3 71.4 41.7 68.8 41.9C67.1 42.1 64.8 42.2 61.7 42.2C59.9 42.2 58.5 42.4 57.6 42.9C56.4 43.8 54.6 45 52.4 46.7Z " data-color-original="#2f565e" fill="#2f565e" class="cyans"></path><path id="gli_fireplace-3_l_51" d="M113.7 90.6L113.3 88.8L115.4 90.8C116.9 92.3 118.1 93.6 118.8 94.5C120.1 96 121.3 97.9 122.5 100.1C122.8 100.8 123.7 102.1 125 104.1L125.5 105.5C125.7 106.5 125.4 107.4 124.7 108C123.1 109.4 121.2 110 118.9 109.8C116.3 109.3 114.3 109 112.9 109C109.1 109 106.8 109 106 108.9C102.8 108.7 99.5 108.2 96.1 107.3C93 106.5 88.5 106.7 82.6 107.8C75.5 109.1 71.2 109.8 69.8 109.8C66.3 109.8 61.7 109.5 56 109S46.4 107.9 44.4 107.4C44 107.3 40.9 107.8 35.3 108.8C29.6 109.9 25.3 110.1 22.5 109.5C20 108.9 16.7 108.9 12.6 109.4C8.4 109.9 5.8 110.1 4.8 109.9C1.4 109.2 -0.2 107.6 0 104.9C0.2 102.7 0.9 101.2 2.3 100.5C3.8 99.7 5.2 98.6 6.7 97.1C8.1 95.6 9.2 94.5 9.9 93.9C10.7 93.2 11.7 92.1 12.8 90.6L14.2 88.5L13.9 91.7L9.6 96.6C9.1 97.3 8.1 98.3 6.6 99.5C5.5 100.4 4.9 101.3 4.8 102.2C4.5 104.8 8.7 105.7 17.5 105C22.4 104.6 29.6 104 39.1 103C42.8 103 49.2 103.7 58.3 105.2C67.3 106.2 75.4 105.9 82.4 104.1C86.6 103.1 92.7 102.9 100.7 103.5C110.3 104.3 115.9 104.7 117.6 104.6C120 104.4 121 102.9 120.7 100.1Z " data-color-original="#6dbaa2" fill="#6dbaa2" class="cyans"></path><path id="gli_fireplace-3_l_52" d="M8.9 108.3C10.4 108.3 12.6 108.1 15.6 107.6C17.5 107.3 20 107.2 22.9 107.5C26.2 107.7 28.5 107.8 29.7 107.6C31.2 107.5 33.3 107.1 36.2 106.3C39 105.6 41.1 105.2 42.6 105.1S47 105.4 51.4 106.2C56.8 107.1 61 107.7 64 108C68 108.4 72.1 108.3 76.4 107.8C78.1 107.6 80.9 107.1 84.9 106.3C89.2 105.4 93 105.1 96.4 105.3C97.5 105.3 100.4 105.5 105 105.9C109.6 106.2 112.5 106.4 113.8 106.5C114.9 106.5 116.4 106.8 118.3 107.3C119.8 107.7 121.1 107.8 122.2 107.7C123.4 107.6 124.2 106.8 124.6 105.3L124.9 103.1V103L125.6 104L126.1 105.4C126.3 106.4 126 107.3 125.3 107.9C123.7 109.3 121.8 109.9 119.5 109.7C116.9 109.2 114.9 108.9 113.5 108.9C109.7 108.9 107.4 108.9 106.6 108.8C103.4 108.6 100.1 108.1 96.7 107.2C93.6 106.4 89.1 106.6 83.2 107.7C76.1 109 71.8 109.7 70.4 109.7C66.9 109.7 62.3 109.4 56.6 108.9S47 107.8 45 107.3C44.6 107.2 41.5 107.7 35.9 108.7C30.2 109.8 25.9 110 23.1 109.4C20.6 108.8 17.3 108.8 13.2 109.3C9 109.8 6.4 110 5.4 109.8C2.7 109.3 1.1 108.1 0.7 106.2C0.4 104.8 0.7 103.3 1.7 101.8C1.6 104.3 2.3 105.9 3.8 106.8C5 107.8 6.8 108.2 8.9 108.3Z " data-color-original="#3a8491" fill="#3a8491" class="cyans"></path><path id="gli_fireplace-3_l_53" d="M14.2 91.9L9.9 96.8C9.4 97.5 8.4 98.5 6.9 99.7C5.8 100.6 5.2 101.5 5.1 102.4C4.9 103.7 5.8 104.6 7.7 105L7.1 105.2C6.7 105.2 6.1 104.7 5.3 103.8C4.4 102.8 4 102 4.2 101.4C4.7 100.1 5 99.2 5.1 98.7C5.9 98.1 6.8 97.3 7.8 96.1C8.9 95 9.6 94.2 10.1 93.8C10.9 93.1 11.9 92 13 90.5L14.4 88.4ZM113.7 90.6L113.3 88.8L115.4 90.8C116.9 92.3 118.1 93.6 118.8 94.5C119.7 95.5 120.4 96.4 120.9 97.4C122.1 100.2 122.6 101.8 122.5 102.2C122.4 102.8 121.7 103.6 120.3 104.7H119.5C120.8 104 121.3 102.6 121 100.6Z " data-color-original="#3a8491" fill="#3a8491" class="cyans"></path><path id="gli_fireplace-3_l_54" d="M43.5 108.2C41.8 108 39.3 108.3 36.1 109.1C32.3 110 29.9 110.4 28.7 110.5C26.6 110.6 24.9 110.6 23.4 110.6C22.5 110.5 20.9 110.3 18.7 110C17.5 109.8 15.3 110 12.1 110.6C8.7 111.2 6 111.4 4.2 111.3C1.9 111.2 0.6 110.1 0.2 107.9L0.4 104.8L1.6 107.1C2.6 108.7 3.8 109.7 5.2 110.1C6.4 110.5 8.2 110.4 10.6 109.8C13.8 109 15.6 108.6 16.1 108.6C17.3 108.5 19 108.5 21.2 108.7C23.8 108.9 25.8 109.1 27.2 109.1C28.8 109.1 31.5 108.7 35.1 107.9C38.9 107.1 41.2 106.6 42.2 106.6C44.1 106.5 48.2 107 54.4 108.1C60.9 109.2 65.9 109.8 69.5 109.9C71.9 109.9 75.8 109.4 81.4 108.2C84.3 107.6 87.6 106.9 91.3 106.1C92.5 105.9 94.9 106.2 98.5 107C102.5 108 104.9 108.5 105.6 108.6C109.9 108.9 114.9 109.1 120.4 109.1C122.2 109.1 123.6 108.6 124.8 107.6C125.4 107.1 125.8 106.6 126 106.1L126.5 107.4C126.6 108.4 126.1 109.3 125 110.2C124 111 122.4 111.4 120.3 111.2C118.1 110.9 116.7 110.7 116 110.7H106.7C105.1 110.7 102.9 110.3 100.2 109.4C97.2 108.4 94.9 107.9 93.4 107.7C91.6 107.5 88.5 108.1 84 109.4C79.1 110.9 75.8 111.6 74.1 111.7C69.5 111.9 64.2 111.5 58.2 110.6C51.5 109.2 46.7 108.5 43.5 108.2ZM14.5 88.9L13.7 94.2L12.1 95.8C10.9 97 10 97.8 9.5 98.2C8.7 98.9 7.5 100 6 101.5C7.8 98.3 9.3 96.2 10.5 95C11.2 94.3 12.1 93 13.2 91.3ZM113.4 88.8L115 90.5C116.1 91.8 116.9 92.9 117.3 93.7C118 95 119 96.7 120.3 98.7C120.6 99.4 121 100.7 121.3 102.7C119.8 99.5 118.6 97.7 117.8 97.2C117.3 96.9 116.4 96.2 115.3 95L113.7 93.4Z " data-color-original="#294b52" fill="#294b52" class="cyans"></path><path id="gli_fireplace-3_l_55" d="M90.3 106.3L94.6 106.2C92.1 108.3 90 109.7 88.4 110.6C87.1 111.3 82.7 111.6 75.1 111.5C65.6 111.4 58.9 111.6 55 112L51.3 112.4L46.3 111.3C50 110.2 56.2 109.8 65 110C75.6 110.2 81.4 110.3 82.4 110.3C86.1 110 88.7 108.6 90.3 106.3ZM14 93.2H19L19.3 99.9L13 100ZM108.3 91.9L111.8 92.4L110.5 99.9H102.7C104.2 98.7 105.3 97.5 106 96.1ZM65.5 35.4L67.4 38.3L63.5 35.7Z " data-color-original="#3b3c75" fill="#3b3c75" class="purples"></path><path id="gli_fireplace-3_l_56" d="M2 121.3H23V129.6H2Z " data-color-original="#29294a" fill="#29294a" class="purples"></path><path id="gli_fireplace-3_l_57" d="M2 121.3H23V125.6H2Z " fill-rule="evenodd" fill="#f1dc4c" class="oranges"></path><path id="gli_fireplace-3_l_58" d="M21.5 121.3H23.3V129.6H21.5Z " data-color-original="#3e3d70" fill="#3e3d70" class="blues"></path><path id="gli_fireplace-3_l_59" d="M23 129.6V121.3H27.7L27 124.9Z " data-color-original="#0e0e14" fill="#0e0e14" class="grays"></path><path id="gli_fireplace-3_l_60" d="M103.7 121.3H124.7V129.6H103.7Z " data-color-original="#29294a" fill="#29294a" class="purples"></path><path id="gli_fireplace-3_l_61" d="M103.7 121.3H124.7V125.6H103.7Z " fill-rule="evenodd" fill="#646464" class="grays"></path><path id="gli_fireplace-3_l_62" d="M103.5 121.3H105.3V129.6H103.5Z " data-color-original="#3e3d70" fill="#3e3d70" class="blues"></path><path id="gli_fireplace-3_l_63" d="M103.7 129.6L99.7 124.9L99 121.3H103.7Z " data-color-original="#0e0e14" fill="#0e0e14" class="grays"></path><path id="gli_fireplace-3_l_64" d="M62.7 90.9C57.1 90.9 50.4 91.3 42.7 92.3C41.3 92.4 40.2 93.1 39.4 94.2S38.6 96 39.3 96.4L40.7 97.1L34 100.1L35.5 97.8L35 88.3H97.4L98.1 94.6L97.9 97.8L99.9 100.3C99 100.2 98.2 100.1 97.3 99.9C95.5 99.5 94.5 99 94.4 98.3C94.2 96.8 94 95.7 93.8 94.9C93.4 93.5 92.8 92.7 92.1 92.5C90.4 92.1 88.9 91.8 87.5 91.6C85 91.2 83.1 91.1 81.7 91.2C80.5 91.3 77.7 91.3 73.4 91.1C68.1 91 64.5 90.9 62.7 90.9Z " fill-rule="evenodd" fill="#ea68f3" class="pinks"></path><path id="gli_fireplace-3_l_65" d="M56.5 93.5C59.5 93.5 63.3 93.5 68 93.6H85.7C87.7 93.6 88.8 94.1 89 95.1C89.1 95.7 88.9 96.5 88.3 97.6C88 98.2 85.3 98.5 80.3 98.6C76.1 98.7 72.8 98.6 70.3 98.3C69 98.2 66.2 98 61.9 97.8C55.5 97.5 52.2 97.3 51.9 97.3C49.1 97.1 47.1 96.8 45.9 96.3C44.6 95.8 44.6 95.2 45.9 94.5C47.4 93.9 50.9 93.5 56.5 93.5Z " data-color-original="#29294a" fill="#29294a" class="purples"></path><path id="gli_fireplace-3_l_66" d="M48.9 46.7L51.3 45.1L51.5 45C52.2 44.6 53.1 44.1 54.4 43.5L55.7 43L57.7 42.3L59.5 41.9L61.4 41.6H61.7C59.7 41.8 57.5 42.5 55.3 43.8C49.5 47.1 45.8 53.1 44.1 61.8C42.3 71.2 41.3 77.2 41.1 79.8H90C89.8 77.2 88.8 71.2 87 61.8C85.3 53.1 81.6 47.1 75.9 43.8C74.1 42.8 72.2 42.1 70.2 41.7L67.7 41.5H69.1L69.5 41.6H69.6L70.1 41.7H70.2L70.8 41.8H70.9C74 42.3 77 43.4 80 45.1C84.2 47.6 87.8 51.2 90.8 56L90.9 56.1L91.8 58L93.8 61.9L94.8 64.2L94.9 64.4C96.2 67.7 97.3 71.2 98.1 75C99.5 81.2 100.3 86.7 100.6 91.5C100.8 94.6 100.7 97.1 100.3 99.1V99.2L100 100H31.1L31 99.5V99.4L30.9 99.2V99.1L30.8 98.9V98.8L30.7 98.6V98.4L30.6 98.1V98.2L30.5 97.8V97.7L30.4 97.2V97L30.3 96.7V96.4L30.2 96V91.9L30.3 91.5V91.1L30.4 89.8V89.7C30.8 85.1 31.6 80.2 32.8 74.9C33.6 71.1 34.7 67.6 36.1 64.3L39.6 57.1L40.9 55.3L44 51.3Z " data-color-original="#50491f" fill="#50491f" class="oranges"></path><path id="gli_fireplace-3_l_67" d="M87.5 43.4L90 45.7L91.2 48C92.1 49.7 93 50.8 93.8 51.5C95.1 52.5 96.5 54.1 97.8 56.3L97.5 59.1L94 55.6C92.2 53.4 90.9 51.8 90.2 50.8L87.7 47.3Z " data-color-original="#3b3c75" fill="#3b3c75" class="purples"></path><path id="gli_fireplace-3_l_68" d="M57 39.9C60.7 39.2 63.4 38.7 64.9 38.5C68.1 38.2 71.3 38.3 74.6 38.9C78.4 39.5 82 41.5 85.4 44.7C87.2 46.4 89.2 48.6 91.4 51.2C92.4 52.2 93.6 54.5 94.9 58.1C95.6 60 96.3 62.2 97.2 64.8C98.2 67 98.9 68.6 99.2 69.4C100.1 71.7 100.9 74.3 101.5 77.1C102.1 79.8 102.5 83.7 102.7 88.8C102.8 91.3 102.8 93.6 102.8 95.6C101.8 88.3 101.1 84.1 100.8 83.1C100 79.6 99.1 76.9 98.3 75.1C97.9 74.2 97.1 72 96.1 68.5C95.1 65.2 94.4 63.2 94 62.6C93 60.6 91.6 58.1 89.7 54.9C87.2 50.6 85.5 48.1 84.5 47.3C82 45.3 80.2 44 79.2 43.4C76.4 41.6 73.8 40.5 71.5 40C69.3 39.6 65.7 40 60.9 41.2C56.1 42.3 53.5 42.9 53 42.9C52.2 42.9 50.6 44 48.1 46.2S43.9 50.3 43.2 51.7C41.5 54.4 40 56.6 38.8 58.6C36.5 62.2 35.1 65.1 34.6 67.4C33.7 71.1 32.7 79.1 31.6 91.3C30.8 86 30.4 82 30.6 79.5C30.7 77.5 31 74.9 31.5 71.7C32 68.3 32.4 66.2 32.7 65.3C33.6 62.7 35 59.6 36.9 56.2C38.3 53.8 39.6 51.7 41 49.8C42 48.4 44.2 46.6 47.8 44.3C51.6 41.8 54.7 40.4 57 39.9Z " data-color-original="#6dbaa2" fill="#6dbaa2" class="cyans"></path><path id="gli_fireplace-3_l_69" d="M50.8 47.4C48.7 49 47 50.5 45.7 51.9C45.2 52.4 44.5 53.5 43.6 55.2C42.6 57 41.8 58.3 41.3 59C40.4 60.1 39.4 61.6 38.4 63.4C37.3 65.4 36.7 67 36.6 68.1C36.5 68.9 36.1 71 35.4 74.4C34.8 77.7 34.5 79.9 34.5 81.2V90.6C34.5 91.7 34.3 95 33.8 100.4L30.8 100.3C31 92.1 31.3 86.4 31.5 83.3C31.8 79.2 32.8 74 34.5 67.6C34.9 66 36 63.7 37.7 60.6C39.6 57.2 40.9 54.8 41.6 53.6C44.2 48.6 48 45.1 53 42.9C56.3 41.5 60.3 40.4 65.1 39.8C70.3 39.2 74 39.4 76.4 40.5C79.9 42.1 84.1 45.8 89.1 51.5C90.1 52.7 91.5 55 93.3 58.5C95 61.9 96 64.2 96.2 65.2C96.3 66 97.8 70.6 100.6 78.9C101 80.2 101.4 82.2 101.7 85C101.9 86.5 102.1 88.6 102.3 91.3C102.5 93.5 102.8 96.4 103.1 100H99.8C100.1 95.3 100.3 92.2 100.3 90.6C100.3 89.2 100.1 87.5 99.8 85.3C99.4 82.8 98.9 80.9 98.3 79.5C97.1 76.7 95.9 72.8 94.6 67.9C94 65.6 92.5 62.2 90 57.5C88.9 55.3 88.1 53.6 87.6 52.4C86.6 50.4 85.7 49.1 84.8 48.5C82.9 47 81.3 45.8 80 44.8C77.6 43 75.8 42 74.6 41.7C73 41.4 70.7 41.3 67.5 41.4C64.2 41.6 61.3 42 58.9 42.7C56.6 43.5 53.9 45 50.8 47.4Z " data-color-original="#3a8491" fill="#3a8491" class="cyans"></path></svg></svg>