<?xml version="1.0" encoding="utf-8"?>
<!-- Generator: Adobe Illustrator 18.0.0, SVG Export Plug-In . SVG Version: 6.00 Build 0)  -->
<!DOCTYPE svg PUBLIC "-//W3C//DTD SVG 1.1//EN" "http://www.w3.org/Graphics/SVG/1.1/DTD/svg11.dtd">
<svg version="1.1" id="Layer_1" xmlns="http://www.w3.org/2000/svg" xmlns:xlink="http://www.w3.org/1999/xlink" x="0px" y="0px"
	 viewBox="0 0 40 40" enable-background="new 0 0 40 40" xml:space="preserve">
<g>
	<path fill="#FFFFFF" d="M25.8,1H14.5C7.6,1,2,6.4,2,13.1v14c0,6.7,5.6,12.1,12.5,12.1h11.3c6.9,0,12.5-5.4,12.5-12.1v-14
		C38.3,6.4,32.7,1,25.8,1z M23.4,30.2c0.1,0.3,0.4,0.5,0.8,0.8c0.4,0.2,0.9,0.3,1.6,0.3h0.8v0.6H14.1v-0.6h0.8
		c0.7,0,1.2-0.1,1.7-0.4c0.3-0.2,0.5-0.4,0.7-0.8c0.1-0.3,0.2-1,0.2-2.1V10.3h-1.7c-1.6,0-2.8,0.3-3.5,1c-1,0.9-1.7,2.2-1.9,3.9H9.6
		V9H31v6.2h-0.6c-0.4-1.4-0.8-2.5-1.2-3.1c-0.5-0.6-1.1-1.1-1.9-1.5c-0.4-0.2-1.2-0.3-2.3-0.3h-1.8V28
		C23.2,29.2,23.2,29.9,23.4,30.2z"/>
	<path d="M19.8,36c-9.1,0-16.5-7.1-16.5-15.8S10.7,4.3,19.8,4.3s16.5,7.1,16.5,15.8S28.9,36,19.8,36z M19.8,10.7
		c-5.5,0-9.9,4.3-9.9,9.5s4.4,9.5,9.9,9.5s9.9-4.3,9.9-9.5S25.3,10.7,19.8,10.7z"/>
</g>
</svg>
