<?xml version="1.0" encoding="utf-8"?>
<!-- Generator: Adobe Illustrator 22.1.0, SVG Export Plug-In . SVG Version: 6.00 Build 0)  -->
<svg version="1.1" xmlns="http://www.w3.org/2000/svg" xmlns:xlink="http://www.w3.org/1999/xlink" x="0px" y="0px"
	 viewBox="0 0 512 512" style="enable-background:new 0 0 512 512;" xml:space="preserve">
<style type="text/css">
	.st0{stroke:#000000;}
</style>
<g id="web_textlayer">
	<path class="st0" d="M477,16v400h16c4.3,0,8.1,1.6,11.3,4.8s4.8,6.9,4.8,11.3v64c0,4.3-1.6,8.1-4.8,11.3s-6.9,4.8-11.3,4.8h-64
		c-4.3,0-8.1-1.6-11.3-4.8s-4.8-6.9-4.8-11.3v-64c0-4.3,1.6-8.1,4.8-11.3s6.9-4.8,11.3-4.8h16V16c0-4.3,1.6-8.1,4.8-11.3
		S456.7,0,461,0c4.3,0,8.1,1.6,11.3,4.8S477,11.7,477,16z M453,448c-2.3,0-4.3,0.8-5.8,2.3s-2.3,3.4-2.3,5.8v16
		c0,2.3,0.8,4.3,2.3,5.8s3.4,2.3,5.8,2.3h16c2.3,0,4.3-0.8,5.8-2.3s2.3-3.4,2.3-5.8v-16c0-2.3-0.8-4.3-2.3-5.8s-3.4-2.3-5.8-2.3H453
		z"/>
</g>
<g>
	<g>
		<path d="M378,170H245v273h-80V170H36V93h342V170z"/>
	</g>
</g>
</svg>
