<?xml version="1.0" encoding="utf-8"?>
<!-- Generator: Adobe Illustrator 22.1.0, SVG Export Plug-In . SVG Version: 6.00 Build 0)  -->
<svg version="1.1" xmlns="http://www.w3.org/2000/svg" xmlns:xlink="http://www.w3.org/1999/xlink" x="0px" y="0px"
	 viewBox="0 0 512 512" style="enable-background:new 0 0 512 512;" xml:space="preserve">
<style type="text/css">
	.st0{stroke:#000000;}
</style>
<g id="web_textlayer">
	<path class="st0" d="M496,480H96v16c0,4.3-1.6,8.1-4.8,11.3S84.3,512,80,512H16c-4.3,0-8.1-1.6-11.3-4.8S0,500.3,0,496v-64
		c0-4.3,1.6-8.1,4.8-11.3S11.7,416,16,416h64c4.3,0,8.1,1.6,11.3,4.8S96,427.7,96,432v16h400c4.3,0,8.1,1.6,11.3,4.8
		s4.8,6.9,4.8,11.3s-1.6,8.1-4.8,11.3S500.3,480,496,480z M64,456c0-2.3-0.8-4.3-2.3-5.8S58.3,448,56,448H40c-2.3,0-4.3,0.8-5.8,2.3
		S32,453.7,32,456v16c0,2.3,0.8,4.3,2.3,5.8s3.4,2.3,5.8,2.3h16c2.3,0,4.3-0.8,5.8-2.3s2.3-3.4,2.3-5.8V456z"/>
</g>
<g>
	<g>
		<path d="M422,118H289v273h-80V118H80V41h342V118z"/>
	</g>
</g>
</svg>
