<?xml version="1.0" encoding="utf-8"?>
<!-- Generator: Adobe Illustrator 22.1.0, SVG Export Plug-In . SVG Version: 6.00 Build 0)  -->
<svg version="1.1" id="Layer_1" xmlns="http://www.w3.org/2000/svg" xmlns:xlink="http://www.w3.org/1999/xlink" x="0px" y="0px"
	 viewBox="0 0 630.5 547.3" style="enable-background:new 0 0 630.5 547.3;" xml:space="preserve">
<g>
	<g>
		<path d="M425,95.7H281.9V396h-86.1V95.7H57V11h368V95.7z"/>
	</g>
</g>
<path d="M489.2,467.8c-3.2-3.2-7-4.8-11.3-4.8H88.2v-52.2L0,479l88.2,68.2V495h389.7c4.3,0,8.1-1.4,11.3-4.6
	c3.2-3.2,4.8-6.9,4.8-11.3C494,474.7,492.4,471,489.2,467.8z"/>
<path d="M551.1,489.2c-3.2-3.2-4.8-7-4.8-11.3V88.2H494L562.3,0l68.2,88.2h-52.2v389.7c0,4.3-1.4,8.1-4.6,11.3
	c-3.2,3.2-6.9,4.8-11.3,4.8C558,494,554.3,492.4,551.1,489.2z"/>
</svg>
