<svg id="app-svgcanvas-dust00" xmlns="http://www.w3.org/2000/svg" version="1.1" width="1600" height="1000" class="app-svg" viewBox="0 0 200 200" preserveAspectRatio="xMidYMid" style="user-select: none; touch-action: none;"><g id="wrap-dust00" data-id="wrap-dust00" data-shapes="{&quot;backs&quot;:11,&quot;eyesback&quot;:13,&quot;eyesfront&quot;:13,&quot;eyebrows&quot;:25,&quot;eyesiris&quot;:7,&quot;body&quot;:0,&quot;ears&quot;:13,&quot;nose&quot;:5,&quot;faceshape&quot;:14,&quot;clothes&quot;:12,&quot;hair&quot;:18,&quot;mouth&quot;:21}" data-colors="{&quot;faceshape&quot;:&quot;#cda184&quot;,&quot;body&quot;:&quot;#cda184&quot;,&quot;ears&quot;:&quot;#cda184&quot;,&quot;nose&quot;:&quot;#cda184&quot;,&quot;eyesfront&quot;:&quot;#cda184&quot;}" data-backs-single-scalex="1.4346" data-backs-single-scaley="1.4346" style="display: inline;"><g id="backs-single-dust00" data-scaleX="1.4346" data-scaleY="1.4346" data-shape="11" transform="matrix(1.4335 0 0 1.4335 -43.349999999999994 -43.349999999999994)" style="display: inline;"><path id="SvgjsPath1416" d="M225.0 225.0H-25.0V-25.0H225.0V225.0z " data-colored="true" data-filltype="tone" data-stroketype="none" fill="#8851f5" stroke-width="none" opacity="1"/><path id="SvgjsPath1417" d="M55.0 79.1H26.0V53.1H55.0V79.1zM84.2 33.0H43.5V66.1H84.2V33.0zM63.9 100.0H100.0V56.4H63.9V100.0zM76.9 95.7H40.5V127.1H76.9V95.7zM175.5 13.4H126.0V70.1H175.5V13.4zM119.5 39.1H107.5V53.1H119.5V39.1zM155.8 -4.3H107.5V24.4H155.8V-4.3zM100.0 5.7H74.0V41.7H100.0V5.7zM40.5 8.4H26.0V23.7H40.5V8.4zM21.2 33.0H-1.2V67.4H21.2V33.0zM47.5 100.0H8.2V143.7H47.5V100.0zM26.0 173.7H70.2V147.7H26.0V173.7zM131.5 163.7H100.5V186.4H131.5V163.7zM206.8 141.1H178.1V175.1H206.8V141.1zM159.5 156.5H134.9V179.2H159.5V156.5zM183.2 111.7H147.2V152.4H183.2V111.7zM192.2 181.7H147.2V211.1H192.2V181.7zM43.5 163.7H-5.3V207.7H43.5V163.7zM202.9 53.1H169.7V79.1H202.9V53.1zM183.2 90.4H168.8V105.2H183.2V90.4zM-5.3 118.0H22.1V79.3H-5.3V118.0zM33.5 -5.6L-15.8 -4.3V33.0H33.5V-5.6zM211.5 -4.3H179.5V36.4H211.5V-4.3zM61.0 -8.3H47.5V21.1H61.0V-8.3zM208.9 97.8H176.0V124.5H208.9V97.8z " data-colored="true" data-filltype="sd1" data-stroketype="hl05" fill="#7035e6" stroke="#9560fd" stroke-width="0.5" opacity="1"/></g><g id="subwrap-dust00" style="display: inline;"><g id="hair-back-dust00" data-shape="18" style="display: inline;"><path id="SvgjsPath1543" d="M160.0 25.0H40.0C40.0 25.0 39.0 218.3 39.0 224.0H162.0L160.0 25.0z " data-colored="true" data-filltype="sd2" data-stroketype="none" fill="#85481f" stroke-width="none" opacity="1"/></g><g id="body-single-dust00" data-shape="0" style="display: inline;"><path id="SvgjsPath1518" d="M190.9 199.9C184.8 189.7 177.4 187.9 171.2 185.9C164.9 183.9 151.9 182.8 144.8 181.3C137.9 180.0 121.6 175.5 121.4 167.8C121.3 159.8 125.7 127.8 125.7 127.8H74.0C74.0 127.8 78.5 159.8 78.3 167.8C78.1 175.5 61.8 180.0 55.0 181.3C47.9 182.8 34.8 183.9 28.5 185.9C22.4 187.9 14.9 189.7 8.9 199.9C5.2 206.0 2.9 216.0 2.9 227.0H196.9C196.9 216.0 194.5 206.0 190.9 199.9z " data-colored="true" data-filltype="tone" data-stroketype="none" data-fromskin="true" fill="#cda184" stroke-width="none" opacity="1" stroke="none"/><path id="SvgjsPath1519" d="M121.4 167.8C123.9 178.8 139.6 181.5 147.7 183.2C169.6 187.5 181.5 188.3 190.0 202.7C192.9 207.6 195.5 218.6 196.0 226.9C197.8 227.2 196.5 209.4 190.9 199.9C181.1 183.4 161.8 184.7 144.8 181.3C137.9 180.0 121.6 175.5 121.4 167.8L121.4 167.8zM78.6 167.8C78.4 175.5 62.1 180.0 55.2 181.3C38.2 184.7 18.9 183.4 9.1 199.9C3.5 209.4 2.2 227.2 4.0 226.9C4.5 218.6 7.1 207.6 10.0 202.7C18.5 188.3 30.4 187.5 52.3 183.2C60.4 181.5 76.1 178.8 78.6 167.8L78.6 167.8z " data-colored="true" data-filltype="hl1" data-stroketype="none" data-fromskin="true" fill="#dcbaa4" stroke-width="none" opacity="1" stroke="none"/><path id="SvgjsPath1520" d="M51.2 189.5C51.2 189.5 79.8 189.8 84.7 191.4C87.0 192.2 93.1 197.0 93.1 197.0S86.5 193.9 84.4 193.3C79.5 191.9 51.2 189.5 51.2 189.5zM99.8 200.0C101.8 200.0 107.7 196.2 107.7 196.2S102.1 198.3 100.3 198.4C98.8 198.4 94.0 197.1 94.0 197.1S98.1 200.0 99.8 200.0zM117.0 192.8C123.8 190.9 146.8 189.5 146.8 189.5S123.0 189.0 116.3 191.3C114.0 192.0 108.7 196.4 108.7 196.4S114.8 193.4 117.0 192.8z " data-colored="true" data-filltype="sd1" data-stroketype="none" data-fromskin="true" fill="#be8a67" stroke-width="none" opacity="1" stroke="none"/><path id="SvgjsPath1521" d="M190.9 199.9C181.1 183.4 161.7 184.7 144.8 181.3C137.9 180.0 121.6 175.5 121.4 167.8C121.3 159.8 125.7 127.8 125.7 127.8H74.0C74.0 127.8 78.5 159.8 78.3 167.8C78.1 175.5 61.8 180.0 55.0 181.3C47.9 182.8 34.8 183.9 28.5 185.9C22.4 187.9 14.9 189.7 8.9 199.9C5.2 206.0 2.9 216.0 2.9 227.0H196.9C196.9 216.0 194.5 206.0 190.9 199.9z " data-colored="true" data-filltype="none" data-stroketype="sd3" data-fromskin="true" fill="none" stroke="#9f6037" stroke-width="1.5" opacity="1"/></g><g id="chinshadow-single-dust00" data-shape="14" style="display: inline;"><path id="SvgjsPath1534" d="M74.8 128.5C75.4 132.8 77.9 151.3 78.7 162.0C84.9 165.6 90.1 171.0 100.0 171.0C109.7 171.0 115.0 165.7 121.0 162.2C121.8 151.5 124.4 132.8 125.0 128.5L125.0 128.4H74.8L74.8 128.5z " data-colored="false" data-filltype="gradient" data-stroketype="none" data-fromskin="true" fill="url(#SvgjsLinearGradient1535)" opacity="1"/></g><g id="clothes-single-dust00" data-shape="12" style="display: inline;"><path id="SvgjsPath1539" d="M3.2 223.0C2.6 223.0 2.8 223.0 2.3 223.0C2.3 205.2 9.0 192.0 20.1 187.5C21.6 187.8 23.2 188.2 24.7 188.5C11.6 194.9 4.5 208.8 3.2 223.0zM181.6 188.4C179.8 188.7 178.0 188.9 176.1 189.1C189.5 194.9 193.6 209.7 195.6 223.0C195.9 223.0 196.2 223.0 196.5 223.0C195.4 206.2 195.2 195.4 181.6 188.4z " data-colored="true" data-filltype="hl1" data-stroketype="none" fill="#dd166e" stroke-width="none" opacity="1"/><path id="SvgjsPath1540" d="M181.5 192.2C182.2 192.1 183.5 191.9 184.3 191.8C182.6 190.5 181.6 189.8 180.6 189.2C174.7 190.2 121.3 196.3 92.1 196.3C53.8 196.3 25.5 189.6 20.1 188.0C19.0 188.6 18.0 189.3 17.0 190.1C18.0 190.3 19.2 190.7 20.2 190.9C9.9 198.0 4.4 210.4 3.2 223.0C33.6 223.4 64.7 223.5 95.5 223.5C95.6 223.5 95.6 223.5 95.6 223.5C136.2 223.5 167.2 223.2 183.9 223.1C189.3 223.0 193.2 223.0 195.6 223.0C193.8 211.6 190.6 199.2 181.5 192.2z " data-colored="true" data-filltype="tone" data-stroketype="none" fill="#ce005b" stroke-width="none" opacity="1"/><path id="SvgjsPath1541" d="M23.4 189.0C22.3 189.6 21.3 190.3 20.2 191.0C70.0 203.0 130.5 200.0 181.4 192.2C180.3 191.3 179.1 190.6 177.7 189.9C129.0 198.1 71.1 201.8 23.4 189.0z " data-colored="true" data-filltype="sd1" data-stroketype="none" fill="#bf0054" stroke-width="none" opacity="1"/><path id="SvgjsPath1542" d="M181.6 188.3C92.2 200.4 57.2 195.3 20.1 187.4C6.8 192.7 2.2 208.8 2.2 223.1C2.4 223.1 2.5 223.1 2.7 223.1C108.4 224.3 185.0 223.1 196.6 223.1C195.5 206.3 195.3 195.3 181.6 188.3zM20.2 188.1C69.4 202.3 130.2 198.1 180.6 189.4C181.6 190.0 182.6 190.5 184.3 191.8C131.7 200.0 68.4 203.4 17.1 190.2C18.1 189.4 19.1 188.7 20.2 188.1zM2.8 222.6C4.7 208.2 7.4 197.9 16.7 190.5C67.4 205.0 132.9 201.9 185.0 192.3C193.3 199.0 192.9 206.0 196.0 222.6C141.0 222.0 68.4 221.8 2.8 222.6z " data-colored="true" data-filltype="sd3" data-stroketype="none" fill="#a00047" stroke-width="none" opacity="1"/></g><g id="head-dust00" style="display: inline;"><g id="antlers-left-dust00" style="display: inline;"/><g id="antlers-right-dust00" style="display: inline;"/><g id="ears-left-dust00" data-shape="13" style="display: inline;"><path id="SvgjsPath1522" d="M47.7 83.1C46.1 80.7 39.7 75.2 36.0 76.1C31.6 77.1 30.3 80.5 30.4 82.6C31.0 94.6 34.8 94.6 37.1 99.2C38.8 102.7 40.2 104.2 41.3 111.2C41.9 115.1 45.7 118.1 48.5 118.0C52.4 117.8 55.5 114.3 56.8 110.8C59.5 103.6 51.8 89.3 47.7 83.1z " data-colored="true" data-filltype="tone" data-stroketype="sd3" fill="#cda184" stroke="#9f6037" stroke-width="1.5" opacity="1"/><path id="SvgjsPath1523" d="M43.3 100.3C43.1 99.8 43.2 98.8 43.3 97.9C43.4 97.1 44.7 94.0 44.6 93.5C44.3 91.4 42.7 87.5 41.7 85.4C40.5 83.0 38.1 80.0 35.9 79.4C35.0 79.1 32.4 79.4 32.1 80.0C31.0 82.2 31.5 84.4 33.2 90.2C34.1 93.1 37.1 96.4 37.2 96.7C38.3 101.1 42.3 108.0 43.7 109.6C44.0 109.9 44.2 110.0 44.3 110.0C44.4 109.9 44.2 109.6 43.9 109.3C42.6 107.8 38.6 100.8 37.5 96.6C36.4 92.2 39.8 85.3 40.5 83.8C40.8 84.5 41.2 85.1 41.4 85.6C41.6 86.0 41.8 86.5 42.1 87.0C41.7 87.8 37.8 93.4 39.0 97.6C39.5 99.2 41.1 102.2 42.5 103.8C43.0 104.4 43.4 104.5 43.7 105.0C44.0 105.6 44.4 106.3 45.5 106.8C45.7 106.9 45.9 106.9 46.0 106.9C46.3 106.9 46.5 106.7 46.7 106.6C46.7 106.8 46.7 107.2 46.7 107.5C46.8 107.9 46.8 108.2 46.9 108.2S47.1 107.9 47.1 107.5C47.1 107.0 47.0 106.4 46.9 106.1C46.7 105.2 45.9 104.2 45.1 103.2C44.3 102.2 43.5 101.2 43.3 100.3zM37.0 94.6C34.6 87.9 35.4 81.0 35.9 80.0C37.2 80.0 39.6 82.5 40.3 83.5C39.9 84.4 36.8 90.0 37.0 94.6zM45.6 106.4C44.6 106.0 44.3 105.4 43.9 104.8C43.6 104.3 42.9 103.8 42.6 103.5C42.4 103.2 42.0 102.7 41.9 102.6C40.1 95.0 43.2 92.2 43.8 91.6C44.1 92.3 44.2 93.0 44.3 93.5C44.4 94.0 43.0 97.1 43.0 97.9C42.9 98.8 42.8 99.8 43.0 100.4C43.2 101.4 44.1 102.4 44.9 103.5C45.6 104.4 46.3 105.3 46.6 106.1C46.5 106.3 46.2 106.7 45.6 106.4z " data-colored="true" data-filltype="sd3" data-stroketype="none" fill="#9f6037" stroke-width="none" opacity="1" stroke="none"/></g><g id="ears-right-dust00" data-shape="13" style="display: inline;"><path id="SvgjsPath1524" d="M152.0 83.1C153.6 80.7 160.1 75.2 163.8 76.1C168.1 77.1 169.5 80.5 169.4 82.6C168.7 94.6 164.9 94.6 162.6 99.2C160.9 102.7 159.5 104.2 158.5 111.2C157.9 115.1 154.0 118.1 151.3 118.0C147.3 117.8 144.3 114.3 143.0 110.8C140.3 103.6 147.9 89.3 152.0 83.1z " data-colored="true" data-filltype="tone" data-stroketype="sd3" fill="#cda184" stroke="#9f6037" stroke-width="1.5" opacity="1"/><path id="SvgjsPath1525" d="M154.6 103.2C153.8 104.2 153.1 105.2 152.8 106.1C152.7 106.4 152.7 107.0 152.7 107.5C152.7 107.9 152.7 108.3 152.8 108.2C152.9 108.2 153.0 107.9 153.0 107.5C153.0 107.2 153.0 106.8 153.0 106.6C153.2 106.7 153.4 106.9 153.7 106.9C153.9 106.9 154.1 106.9 154.3 106.8C155.3 106.3 155.7 105.6 156.1 105.0C156.4 104.5 156.8 104.4 157.3 103.8C158.6 102.2 160.3 99.2 160.7 97.6C161.9 93.4 158.0 87.8 157.7 87.0C157.9 86.5 158.1 86.0 158.3 85.6C158.6 85.1 158.9 84.5 159.3 83.8C159.9 85.3 163.3 92.2 162.2 96.6C161.2 100.8 157.2 107.8 155.8 109.3C155.6 109.6 155.4 109.9 155.4 110.0C155.5 110.0 155.8 109.9 156.0 109.6C157.4 108.0 161.4 101.1 162.5 96.7C162.6 96.4 165.7 93.1 166.5 90.2C168.2 84.4 168.7 82.2 167.6 80.0C167.3 79.4 164.7 79.1 163.8 79.4C161.6 80.0 159.2 83.0 158.0 85.4C157.0 87.5 155.4 91.4 155.1 93.5C155.0 94.0 156.4 97.1 156.4 97.9C156.5 98.8 156.6 99.8 156.5 100.3C156.2 101.2 155.4 102.2 154.6 103.2zM159.5 83.5C160.1 82.5 162.5 80.0 163.9 80.0C164.3 81.0 165.1 87.9 162.8 94.6C162.9 90.0 159.9 84.4 159.5 83.5zM153.1 106.1C153.4 105.3 154.1 104.4 154.9 103.5C155.7 102.4 156.5 101.4 156.8 100.4C156.9 99.8 156.8 98.8 156.8 97.9C156.7 97.1 155.3 94.0 155.4 93.5C155.5 93.0 155.7 92.3 155.9 91.6C156.5 92.2 159.6 95.0 157.9 102.6C157.7 102.7 157.4 103.2 157.2 103.5C156.8 103.8 156.1 104.3 155.8 104.8C155.5 105.4 155.1 106.0 154.2 106.4C153.5 106.7 153.2 106.3 153.1 106.1z " data-colored="true" data-filltype="sd3" data-stroketype="none" fill="#9f6037" stroke-width="none" opacity="1" stroke="none"/></g><g id="faceshape-wrap-dust00" style="display: inline;"><g id="faceshape-single-dust00" data-shape="14" style="display: inline;"><path id="SvgjsPath1531" d="M100.0 0.9C66.4 0.9 39.1 28.1 39.1 61.6C39.1 66.9 39.8 72.0 41.1 76.9H41.1C41.1 77.0 49.5 97.1 51.6 109.6C54.0 123.7 62.1 139.4 67.9 144.8C74.0 150.5 88.2 159.3 100.0 159.3C111.3 159.3 126.0 150.5 132.1 144.8C137.9 139.4 146.0 123.7 148.4 109.6C150.5 97.1 158.9 77.0 158.9 76.9H158.9C160.2 72.0 160.9 66.9 160.9 61.6C160.9 28.1 133.6 0.9 100.0 0.9z " data-colored="true" data-filltype="tone" data-stroketype="none" fill="#cda184" stroke-width="none" opacity="1" stroke="none"/><path id="SvgjsPath1532" d="M136.9 13.3C149.8 24.5 158.0 41.3 157.9 60.1C157.9 65.4 157.3 70.6 156.0 75.5H156.0C156.0 75.5 148.1 95.6 146.1 108.1C143.8 122.2 136.1 137.9 130.6 143.4C124.8 149.0 110.7 157.8 100.0 157.8C88.8 157.8 75.2 149.0 69.5 143.4C63.9 137.9 56.2 122.2 53.9 108.1C51.9 95.6 44.0 75.5 44.0 75.5H44.0C42.7 70.6 42.1 65.4 42.1 60.1C42.0 41.3 50.2 24.5 63.1 13.3C48.5 24.4 39.1 41.9 39.1 61.6C39.1 66.9 39.8 72.0 41.1 76.9H41.1C41.1 77.0 49.5 97.1 51.6 109.6C54.0 123.7 62.1 139.4 67.9 144.8C74.0 150.5 88.2 159.3 100.0 159.3C111.3 159.3 126.0 150.5 132.1 144.8C137.9 139.4 146.0 123.7 148.4 109.6C150.5 97.1 158.9 77.0 158.9 76.9H158.9C160.2 72.0 160.9 66.9 160.9 61.6C160.9 41.9 151.5 24.4 136.9 13.3z " data-colored="true" data-filltype="sd05" data-stroketype="none" fill="#c59575" stroke-width="none" opacity="1" stroke="none"/><path id="SvgjsPath1533" d="M100.0 0.9C66.4 0.9 39.1 28.1 39.1 61.6C39.1 66.9 39.8 72.0 41.1 76.9H41.1C41.1 77.0 49.5 97.1 51.6 109.6C54.0 123.7 62.1 139.4 67.9 144.8C74.0 150.5 88.2 159.3 100.0 159.3C111.3 159.3 126.0 150.5 132.1 144.8C137.9 139.4 146.0 123.7 148.4 109.6C150.5 97.1 158.9 77.0 158.9 76.9H158.9C160.2 72.0 160.9 66.9 160.9 61.6C160.9 28.1 133.6 0.9 100.0 0.9z " data-colored="true" data-filltype="none" data-stroketype="sd3" fill="none" stroke="#9f6037" stroke-width="1.5" opacity="1"/></g></g><g id="eyes-left-dust00" style="display: inline;"><g id="eyesback-left-dust00" data-shape="13" style="display: inline;"><path id="SvgjsPath1476" d="M61.0 84.2C72.3 76.7 84.5 80.6 87.0 87.7C88.0 90.5 87.4 93.0 85.3 94.6C70.0 100.1 62.4 92.7 61.0 84.2z " data-colored="false" data-filltype="gradient" data-stroketype="none" fill="url(#SvgjsRadialGradient1477)" opacity="1"/></g><g id="eyesiriswrap-left-dust00" transform="translate(-0.5 1.5)" style="display: inline;"><g id="eyesiriscontrol-left-dust00" style="display: inline;"><g id="eyesiris-left-dust00" data-shape="7" data-resizeme="false" style="display: inline;"><path id="SvgjsPath1494" d="M83.2 89.3C82.0 93.8 77.3 96.4 72.8 95.2C68.2 94.0 65.6 89.3 66.8 84.8C68.0 80.2 72.7 77.6 77.2 78.8C81.8 80.0 84.4 84.7 83.2 89.3z " data-colored="true" data-filltype="tone" data-stroketype="sd3" fill="#4dbce9" stroke="#0687bb" stroke-width="0.5" opacity="1"/><path id="SvgjsPath1495" d="M83.0 87.5C82.4 92.5 78.6 95.2 74.6 94.9C70.8 94.6 67.4 91.9 67.1 87.1C68.4 86.7 70.2 87.3 71.7 87.1C71.7 87.1 71.6 87.2 71.6 87.2C71.5 89.1 73.0 90.7 74.9 90.8C76.9 90.9 78.6 89.5 78.7 87.7C78.7 87.5 78.7 87.2 78.6 87.0C80.0 87.2 81.6 87.0 83.0 87.5z " data-colored="true" data-filltype="hl1" data-stroketype="none" fill="#6bd0f8" stroke-width="none" opacity="1"/><path id="SvgjsPath1496" d="M76.2 84.2C74.4 83.6 72.5 84.7 72.0 86.6C71.5 88.4 72.6 90.4 74.5 90.9C76.4 91.4 78.3 90.4 78.7 88.5C79.2 86.6 78.1 84.7 76.2 84.2z " data-colored="false" data-filltype="#000000" data-stroketype="none" fill="#000000" stroke-width="none" opacity="0.9"/><path id="SvgjsPath1497" d="M76.2 84.2C74.4 83.6 72.5 84.7 72.0 86.6C71.5 88.4 72.6 90.4 74.5 90.9C76.4 91.4 78.3 90.4 78.7 88.5C79.2 86.6 78.1 84.7 76.2 84.2z " data-colored="true" data-filltype="none" data-stroketype="sd3" fill="none" stroke="#0687bb" stroke-width="0.75" opacity="1"/><path id="SvgjsPath1498" d="M71.0 92.2C70.8 92.8 69.8 92.5 70.0 91.9C70.2 91.3 70.6 90.9 70.9 90.4C71.3 89.9 72.1 90.4 71.8 90.9C71.6 91.4 71.1 91.7 71.0 92.2L71.0 92.2zM72.5 91.2C72.3 91.5 71.9 92.7 71.8 93.0C71.5 93.6 72.5 93.9 72.7 93.3C72.8 93.1 73.1 92.1 73.2 91.9C73.6 91.4 72.9 90.7 72.5 91.2L72.5 91.2zM74.6 94.2C75.1 93.5 75.1 92.9 75.1 92.1C75.0 91.5 74.0 91.5 74.1 92.1C74.1 92.5 74.2 93.1 73.9 93.4C73.5 93.9 74.2 94.6 74.6 94.2L74.6 94.2zM75.6 92.0C75.6 92.6 75.7 93.2 75.9 93.8C76.1 94.4 77.0 94.2 76.9 93.5C76.7 93.0 76.6 92.5 76.6 92.0C76.6 91.3 75.6 91.3 75.6 92.0L75.6 92.0z " data-colored="false" data-filltype="#ffffff" data-stroketype="none" fill="#ffffff" stroke-width="none" opacity="0.5"/><path id="SvgjsPath1499" d="M80.9 85.5C80.0 86.1 78.5 85.6 77.6 84.4C76.8 83.1 76.9 81.6 77.9 81.0C78.9 80.4 80.4 81.0 81.2 82.2C82.1 83.5 81.9 85.0 80.9 85.5z " data-colored="false" data-filltype="#ffffff" data-stroketype="none" fill="#ffffff" stroke-width="none" opacity="0.8"/></g></g></g><g id="eyesfront-left-dust00" data-shape="13" data-resizeme="false" style="display: inline;"><path id="SvgjsPath1443" d="M56.0 88.0C56.0 101.8 64.1 113.0 74.0 113.0S92.0 101.8 92.0 88.0C92.0 74.2 83.9 63.0 74.0 63.0S56.0 74.2 56.0 88.0zM61.0 84.2C72.3 76.7 84.5 80.6 87.0 87.7C88.0 90.5 87.4 93.0 85.3 94.6C70.0 100.1 62.4 92.7 61.0 84.2z " data-colored="true" data-filltype="tone" data-stroketype="none" data-fromskin="true" fill="#cda184" stroke-width="none" opacity="1" stroke="none"/><path id="SvgjsPath1444" d="M58.3 88.1C58.3 96.4 66.4 103.0 76.3 103.0C86.3 103.0 94.3 96.2 94.3 87.9C94.3 79.6 86.2 73.0 76.2 73.0C66.3 73.0 58.3 79.8 58.3 88.1zM61.0 84.2C72.3 76.7 84.5 80.6 87.0 87.7C88.0 90.5 87.4 93.0 85.3 94.6C70.0 100.1 62.4 92.7 61.0 84.2z " data-colored="false" data-filltype="gradient" data-stroketype="none" data-fromskin="true" fill="url(#SvgjsRadialGradient1445)" opacity="1"/><path id="SvgjsPath1449" d="M61.0 84.2C72.3 76.7 84.5 80.6 87.0 87.7C88.0 90.5 87.4 93.0 85.3 94.6C70.0 100.1 62.4 92.7 61.0 84.2z " data-colored="false" data-filltype="gradient" data-stroketype="none" fill="url(#SvgjsRadialGradient1450)" opacity="1"/><path id="SvgjsPath1453" d="M68.0 77.9C74.0 77.3 81.5 76.7 88.1 81.2C79.5 77.2 75.3 77.7 68.0 77.9z " data-colored="true" data-filltype="sd3" data-stroketype="none" data-fromskin="true" fill="#9f6037" stroke-width="none" opacity="1" stroke="none"/><path id="SvgjsPath1454" d="M91.6 88.7C89.8 86.0 88.0 84.3 85.0 82.3C86.8 82.8 88.1 83.3 90.1 84.3C80.4 77.7 71.6 77.9 64.9 78.9L68.9 79.4L65.9 80.1C64.3 80.2 61.6 79.8 60.2 79.7L64.0 81.0C62.0 81.9 59.9 81.6 57.3 81.4L59.4 83.1C57.5 83.3 55.9 82.7 54.0 82.1C56.1 85.8 58.1 88.0 61.7 90.0C63.3 92.2 64.6 93.3 67.1 94.8C67.0 95.0 66.8 95.2 66.4 95.4C67.4 95.4 67.8 95.3 68.2 95.4C69.0 95.9 69.7 96.2 70.6 96.5C70.2 96.7 69.9 96.8 69.4 96.9C70.4 96.8 71.3 96.6 71.9 96.8C74.5 97.1 76.5 97.1 79.4 96.6C80.5 96.3 81.5 96.6 82.5 96.5C82.0 96.4 81.4 96.2 81.2 96.2L85.3 94.5C70.0 99.8 62.4 92.6 61.0 84.3C72.3 77.0 84.5 80.7 87.0 87.7C87.1 86.4 86.6 85.2 85.3 84.0C87.5 85.1 89.8 86.7 91.6 88.7z " data-colored="true" data-filltype="tone" data-stroketype="none" fill="#d9b8af" stroke-width="none" opacity="1" stroke="none"/></g></g><g id="eyes-right-dust00" style="display: inline;"><g id="eyesback-right-dust00" data-shape="13" style="display: inline;"><path id="SvgjsPath1484" d="M139.0 84.2C127.7 76.7 115.5 80.6 113.0 87.7C112.0 90.5 112.6 93.0 114.7 94.6C130.0 100.1 137.6 92.7 139.0 84.2z " data-colored="false" data-filltype="gradient" data-stroketype="none" fill="url(#SvgjsRadialGradient1485)" opacity="1"/></g><g id="eyesiriswrap-right-dust00" transform="translate(0.5 1.5)" style="display: inline;"><g id="eyesiriscontrol-right-dust00" style="display: inline;"><g id="eyesiris-right-dust00" data-resizeme="false" data-shape="7" style="display: inline;"><path id="SvgjsPath1500" d="M133.2 89.3C132.0 93.8 127.3 96.4 122.8 95.2C118.2 94.0 115.6 89.3 116.8 84.8C118.0 80.2 122.7 77.6 127.2 78.8C131.8 80.0 134.4 84.7 133.2 89.3z " data-colored="true" data-filltype="tone" data-stroketype="sd3" fill="#4dbce9" stroke="#0687bb" stroke-width="0.5" opacity="1"/><path id="SvgjsPath1501" d="M133.0 87.5C132.4 92.5 128.6 95.2 124.6 94.9C120.8 94.6 117.4 91.9 117.1 87.1C118.4 86.7 120.2 87.3 121.7 87.1C121.7 87.1 121.6 87.2 121.6 87.2C121.5 89.1 123.0 90.7 124.9 90.8C126.9 90.9 128.6 89.5 128.7 87.7C128.7 87.5 128.7 87.2 128.6 87.0C130.0 87.2 131.6 87.0 133.0 87.5z " data-colored="true" data-filltype="hl1" data-stroketype="none" fill="#6bd0f8" stroke-width="none" opacity="1"/><path id="SvgjsPath1502" d="M126.2 84.2C124.4 83.6 122.5 84.7 122.0 86.6C121.5 88.4 122.6 90.4 124.5 90.9C126.4 91.4 128.3 90.4 128.7 88.5C129.2 86.6 128.1 84.7 126.2 84.2z " data-colored="false" data-filltype="#000000" data-stroketype="none" fill="#000000" stroke-width="none" opacity="0.9"/><path id="SvgjsPath1503" d="M126.2 84.2C124.4 83.6 122.5 84.7 122.0 86.6C121.5 88.4 122.6 90.4 124.5 90.9C126.4 91.4 128.3 90.4 128.7 88.5C129.2 86.6 128.1 84.7 126.2 84.2z " data-colored="true" data-filltype="none" data-stroketype="sd3" fill="none" stroke="#0687bb" stroke-width="0.75" opacity="1"/><path id="SvgjsPath1504" d="M121.0 92.2C120.8 92.8 119.8 92.5 120.0 91.9C120.2 91.3 120.6 90.9 120.9 90.4C121.3 89.9 122.1 90.4 121.8 90.9C121.6 91.4 121.1 91.7 121.0 92.2L121.0 92.2zM122.5 91.2C122.3 91.5 121.9 92.7 121.8 93.0C121.5 93.6 122.5 93.9 122.7 93.3C122.8 93.1 123.1 92.1 123.2 91.9C123.6 91.4 122.9 90.7 122.5 91.2L122.5 91.2zM124.6 94.2C125.1 93.5 125.1 92.9 125.1 92.1C125.0 91.5 124.0 91.5 124.1 92.1C124.1 92.5 124.2 93.1 123.9 93.4C123.5 93.9 124.2 94.6 124.6 94.2L124.6 94.2zM125.6 92.0C125.6 92.6 125.7 93.2 125.9 93.8C126.1 94.4 127.0 94.2 126.9 93.5C126.7 93.0 126.6 92.5 126.6 92.0C126.6 91.3 125.6 91.3 125.6 92.0L125.6 92.0z " data-colored="false" data-filltype="#ffffff" data-stroketype="none" fill="#ffffff" stroke-width="none" opacity="0.5"/><path id="SvgjsPath1505" d="M130.9 85.5C130.0 86.1 128.5 85.6 127.6 84.4C126.8 83.1 126.9 81.6 127.9 81.0C128.9 80.4 130.4 81.0 131.2 82.2C132.1 83.5 131.9 85.0 130.9 85.5z " data-colored="false" data-filltype="#ffffff" data-stroketype="none" fill="#ffffff" stroke-width="none" opacity="0.8"/></g></g></g><g id="eyesfront-right-dust00" data-resizeme="false" data-shape="13" style="display: inline;"><path id="SvgjsPath1464" d="M126.0 63.0C116.1 63.0 108.0 74.2 108.0 88.0C108.0 101.8 116.1 113.0 126.0 113.0S144.0 101.8 144.0 88.0C144.0 74.2 135.9 63.0 126.0 63.0zM114.7 94.6C112.6 93.0 112.0 90.5 113.0 87.7C115.5 80.6 127.7 76.7 139.0 84.2C137.6 92.7 130.0 100.1 114.7 94.6z " data-colored="true" data-filltype="tone" data-stroketype="none" data-fromskin="true" fill="#cda184" stroke-width="none" opacity="1" stroke="none"/><path id="SvgjsPath1465" d="M123.8 73.0C113.8 73.0 105.7 79.6 105.7 87.9C105.7 96.2 113.7 103.0 123.7 103.0C133.6 103.0 141.7 96.4 141.7 88.1C141.7 79.8 133.7 73.0 123.8 73.0zM114.7 94.6C112.6 93.0 112.0 90.5 113.0 87.7C115.5 80.6 127.7 76.7 139.0 84.2C137.6 92.7 130.0 100.1 114.7 94.6z " data-colored="false" data-filltype="gradient" data-stroketype="none" data-fromskin="true" fill="url(#SvgjsRadialGradient1466)" opacity="1"/><path id="SvgjsPath1470" d="M139.0 84.2C127.7 76.7 115.5 80.6 113.0 87.7C112.0 90.5 112.6 93.0 114.7 94.6C130.0 100.1 137.6 92.7 139.0 84.2z " data-colored="false" data-filltype="gradient" data-stroketype="none" fill="url(#SvgjsRadialGradient1471)" opacity="1"/><path id="SvgjsPath1474" d="M111.9 81.2C118.5 76.7 126.0 77.3 132.0 77.9C124.7 77.7 120.5 77.2 111.9 81.2z " data-colored="true" data-filltype="sd3" data-stroketype="none" data-fromskin="true" fill="#9f6037" stroke-width="none" opacity="1" stroke="none"/><path id="SvgjsPath1475" d="M108.4 88.7C110.2 86.0 112.0 84.3 115.0 82.3C113.2 82.8 111.9 83.3 109.9 84.3C119.6 77.7 128.4 77.9 135.1 78.9L131.1 79.4L134.1 80.1C135.7 80.2 138.4 79.8 139.8 79.7L136.0 81.0C138.0 81.9 140.1 81.6 142.7 81.4L140.7 83.1C142.5 83.3 144.1 82.7 146.0 82.1C143.9 85.8 141.9 88.0 138.3 90.0C136.7 92.2 135.4 93.3 132.9 94.8C133.0 95.0 133.2 95.2 133.6 95.4C132.6 95.4 132.2 95.3 131.8 95.4C131.0 95.9 130.3 96.2 129.4 96.5C129.8 96.7 130.1 96.8 130.6 96.9C129.6 96.8 128.7 96.6 128.1 96.8C125.5 97.1 123.5 97.1 120.7 96.6C119.5 96.3 118.5 96.6 117.5 96.5C118.0 96.4 118.6 96.2 118.8 96.2L114.7 94.5C130.0 99.8 137.6 92.6 139.0 84.3C127.7 76.9 115.5 80.7 113.0 87.7C112.9 86.4 113.4 85.2 114.7 84.0C112.5 85.1 110.2 86.7 108.4 88.7z " data-colored="true" data-filltype="tone" data-stroketype="none" fill="#d9b8af" stroke-width="none" opacity="1" stroke="none"/></g></g><g id="eyesiris-single-dust00" style="display: inline;"/><g id="facehighlight-single-dust00" data-shape="0" style="display: inline;"><path id="SvgjsPath1510" d="M140.2 113.0C140.2 135.3 122.2 153.4 99.9 153.4C77.7 153.4 59.6 135.4 59.5 113.1C59.5 90.9 77.5 72.8 99.8 72.7C122.1 72.7 140.2 90.7 140.2 113.0z " data-colored="false" data-filltype="gradient" data-stroketype="none" data-fromskin="true" fill="url(#SvgjsRadialGradient1511)" opacity="1"/><path id="SvgjsPath1514" d="M135.0 56.0C135.0 75.3 119.3 91.0 100.0 91.0C80.7 91.0 65.0 75.3 65.0 56.0S80.7 21.0 100.0 21.0C119.3 21.0 135.0 36.7 135.0 56.0z " data-colored="false" data-filltype="gradient" data-stroketype="none" data-fromskin="true" fill="url(#SvgjsRadialGradient1515)" opacity="1"/></g><g id="nose-single-dust00" data-shape="5" style="display: inline;"><path id="SvgjsPath1526" d="M101.4 126.3C100.1 126.3 98.9 125.9 97.6 125.4C97.5 125.3 97.4 125.2 97.5 125.1S97.7 124.9 97.8 125.0C99.9 125.9 101.7 126.2 104.1 125.3L109.2 120.7C110.4 117.3 109.7 113.2 107.0 108.5C106.9 108.4 107.0 108.2 107.1 108.2C107.2 108.1 107.4 108.2 107.4 108.3C110.2 113.2 111.0 117.5 109.6 121.0C109.6 121.0 109.6 121.1 109.5 121.1L104.4 125.8C104.4 125.8 104.3 125.8 104.3 125.8C103.2 126.2 102.3 126.3 101.4 126.3z " data-colored="true" data-filltype="wrinkles" data-stroketype="none" data-fromskin="true" fill="#a76a42" stroke-width="none" stroke="none"/><path id="SvgjsPath1527" d="M108.3 122.5C108.2 122.5 108.2 122.5 108.1 122.5C108.0 122.5 107.9 122.4 107.9 122.2C107.9 122.1 108.0 122.0 108.2 122.0C108.2 122.0 108.3 122.0 108.4 122.0C111.8 122.0 113.4 120.3 114.0 116.1C114.0 114.3 113.5 112.9 112.5 112.3C111.6 111.7 110.4 111.8 109.1 112.4C109.0 112.5 108.8 112.4 108.8 112.3C108.7 112.2 108.8 112.0 108.9 112.0C110.4 111.3 111.7 111.3 112.8 112.0C113.6 112.5 114.6 113.7 114.6 116.3C113.7 120.6 111.9 122.5 108.3 122.5z " data-colored="true" data-filltype="wrinkles" data-stroketype="none" data-fromskin="true" fill="#a76a42" stroke-width="none" stroke="none"/><path id="SvgjsPath1528" d="M100.9 126.1C99.8 126.1 98.7 125.9 97.6 125.5C97.6 125.5 97.5 125.5 97.5 125.5L92.4 120.8C92.4 120.8 92.3 120.7 92.3 120.7C91.0 117.2 91.7 112.9 94.5 108.0C94.6 107.9 94.7 107.8 94.8 107.9C94.9 108.0 95.0 108.1 94.9 108.2C92.2 112.9 91.4 117.0 92.7 120.4L97.8 125.0C100.0 125.8 102.2 125.7 104.4 124.8C104.5 124.7 104.7 124.8 104.7 124.9C104.8 125.0 104.7 125.2 104.6 125.2C103.3 125.8 102.1 126.1 100.9 126.1z " data-colored="true" data-filltype="wrinkles" data-stroketype="none" data-fromskin="true" fill="#a76a42" stroke-width="none" stroke="none"/><path id="SvgjsPath1529" d="M93.6 122.2C89.9 122.2 88.2 120.3 87.5 115.8C87.5 113.8 88.2 112.3 89.3 111.6C90.3 110.9 91.7 110.9 93.1 111.6C93.2 111.7 93.3 111.8 93.2 111.9S93.0 112.1 92.9 112.0C91.7 111.4 90.5 111.4 89.5 112.0C88.5 112.6 87.9 114.0 87.9 115.7C88.5 120.0 90.1 121.7 93.6 121.6C93.6 121.6 93.6 121.6 93.6 121.6C93.7 121.6 93.8 121.7 93.9 121.8C93.9 121.9 93.8 122.1 93.7 122.1C93.7 122.2 93.6 122.2 93.6 122.2z " data-colored="true" data-filltype="wrinkles" data-stroketype="none" data-fromskin="true" fill="#a76a42" stroke-width="none" stroke="none"/><path id="SvgjsPath1530" d="M107.5 90.8C106.5 93.6 106.1 97.6 106.8 103.7 " data-colored="true" data-filltype="wrinkles" data-stroketype="none" data-fromskin="true" fill="#a76a42" stroke-width="none" stroke="none"/></g><g id="mouth-single-dust00" data-shape="21" style="display: inline;"><path id="SvgjsPath2361" d="M101.3 149.0C95.9 149.0 91.4 143.8 91.4 143.8C100.8 145.7 112.2 142.7 112.2 142.7S108.1 149.0 101.3 149.0z " data-colored="true" data-filltype="hl1" data-stroketype="none" data-fromskin="true" fill="#dcbaa4" stroke-width="none"/><path id="SvgjsPath2362" d="M101.2 138.2C97.7 138.2 89.8 136.5 86.8 135.2C85.0 134.4 82.0 131.7 79.8 130.4C79.0 129.9 79.3 128.9 80.4 128.8C83.0 128.7 86.4 129.8 88.0 130.0C91.3 130.4 95.5 131.9 101.1 131.9C105.3 131.9 109.9 130.7 112.8 130.3C114.6 130.0 118.6 128.9 121.5 128.8C122.6 128.7 123.0 129.6 122.2 130.1C120.0 131.6 116.4 134.5 114.4 135.3C111.4 136.5 104.3 138.1 101.2 138.2z " data-colored="false" data-filltype="#000000" data-stroketype="none" fill="#000000" stroke="none" opacity="0.5"/><path id="SvgjsPath2363" d="M102.0 142.7C99.9 142.8 95.0 141.9 93.2 141.2C92.1 140.8 90.2 139.2 88.9 138.4C88.4 138.1 84.2 135.1 84.8 135.1C86.4 135.0 92.9 137.6 93.9 137.7C95.9 137.9 98.2 138.6 101.6 138.5C104.2 138.4 107.5 137.5 109.3 137.1C110.4 136.9 116.2 134.0 118.0 133.9C118.7 133.8 115.1 137.1 114.6 137.5C113.3 138.5 111.1 140.3 110.0 140.8C108.2 141.4 103.9 142.6 102.0 142.7z " data-colored="false" data-filltype="#f7f7f7" data-stroketype="none" fill="#f7f7f7" stroke="none"/><path id="SvgjsPath2364" d="M112.7 129.2C107.4 129.5 102.0 129.4 96.7 129.3C96.0 129.3 95.3 129.2 94.6 129.2C91.0 129.3 87.4 129.3 83.8 129.2C83.4 129.2 82.9 129.2 82.5 129.2C82.7 130.1 82.9 131.0 83.2 131.5C84.1 132.9 89.4 135.8 91.5 136.2C92.9 136.5 95.6 136.9 97.1 137.1C98.7 137.3 99.6 137.1 101.2 137.1C102.9 137.0 104.4 137.3 106.1 136.9C107.3 136.6 110.8 135.7 111.9 135.2C112.8 134.8 114.5 134.2 115.3 133.7C116.0 133.3 118.0 131.7 118.4 131.0C118.6 130.6 118.8 129.9 119.0 129.1C116.9 129.3 114.8 129.2 112.7 129.2z " data-colored="false" data-filltype="#ffffff" data-stroketype="none" fill="#ffffff" stroke="none"/><path id="SvgjsPath2365" d="M91.4 128.9C91.4 128.9 90.7 135.6 90.7 135.7C90.6 135.8 90.5 128.9 90.5 128.9H91.4zM94.2 129.6L94.8 136.7L95.2 129.6H94.2zM100.8 130.7L101.5 137.2L102.0 130.6L100.8 130.7zM106.6 129.3C107.9 129.4 108.3 136.2 108.3 136.2L108.5 129.3H106.6zM111.4 128.5C111.4 128.5 111.9 135.0 112.0 134.9C112.1 134.8 112.2 128.5 112.2 128.5H111.4zM87.1 128.5L87.5 133.8L87.9 128.5H87.1zM114.8 128.0L114.9 133.6L115.5 128.0L114.8 128.0zM87.3 137.5C87.3 137.5 87.4 135.4 87.5 135.4C87.6 135.4 88.1 137.5 88.1 137.5H87.3zM95.1 139.7L94.8 137.6L94.3 139.7H95.1zM102.0 141.2L101.7 138.2L101.2 141.1L102.0 141.2zM108.5 140.2L108.4 137.1C108.4 137.1 108.2 140.2 107.5 140.2H108.5zM112.4 138.5C112.4 138.5 112.3 136.1 112.3 136.0C112.3 136.0 111.9 138.5 111.9 138.5H112.4zM91.0 138.0L90.7 136.4L90.4 138.0H91.0zM115.6 136.6L115.1 134.9L115.0 136.6L115.6 136.6z " data-colored="false" data-filltype="#000000" data-stroketype="none" fill="#000000" stroke="none" opacity="0.1"/><path id="SvgjsPath2366" d="M123.1 128.4C121.5 127.7 118.2 128.2 116.6 127.9C114.2 127.5 109.5 127.2 107.1 127.3C105.6 127.4 102.7 128.1 101.2 128.1C99.7 128.1 96.6 127.3 95.1 127.3C92.7 127.3 87.8 127.7 85.4 128.2C83.8 128.6 80.4 128.0 79.1 129.0C78.8 129.2 79.0 130.2 79.1 130.6C80.2 134.0 84.5 137.9 88.2 141.2C93.0 145.5 98.0 146.8 101.9 146.8C107.1 146.8 113.2 143.1 118.3 137.5C120.6 135.0 123.4 132.5 123.9 130.1C124.0 128.9 123.5 128.5 123.1 128.4zM101.2 140.3C98.0 140.3 90.6 138.3 87.4 136.2C85.5 134.9 82.6 132.0 80.7 130.1C79.9 129.4 87.6 132.0 89.1 132.3C92.2 132.8 96.0 133.6 101.2 133.6C105.1 133.6 109.3 133.2 112.0 132.7C113.6 132.3 122.1 129.2 121.3 129.9C119.2 132.0 115.7 135.2 113.5 136.6C110.8 138.3 104.1 140.2 101.2 140.3z " data-colored="true" data-filltype="tone" data-stroketype="none" fill="#ff5027" stroke-width="none"/><path id="SvgjsPath2367" d="M84.6 136.6C87.9 137.5 95.4 142.6 101.8 142.3C108.4 142.0 118.1 134.5 119.4 135.3C119.9 137.3 106.7 146.8 101.8 147.0C97.3 147.1 83.2 138.8 84.6 136.6zM100.8 131.7C104.8 131.6 109.7 131.0 113.0 128.9C109.2 127.2 104.1 129.1 101.1 129.2C97.2 129.3 94.0 127.7 90.4 129.3C93.8 130.8 97.3 131.8 100.8 131.7z " data-colored="true" data-filltype="hl05" data-stroketype="none" fill="#ff5a34" stroke-width="none"/><path id="SvgjsPath2368" d="M98.6 140.7C96.2 140.2 96.1 139.9 98.4 140.2C99.8 140.3 101.2 140.4 102.6 140.2C102.8 140.2 103.0 140.2 103.1 140.1C104.6 139.9 106.3 139.4 108.0 138.8C110.6 137.8 110.6 138.0 108.1 139.4C106.2 140.4 104.5 141.1 103.2 141.2L103.1 141.2C101.9 141.3 100.3 141.1 98.6 140.7z " data-colored="true" data-filltype="hl05" data-stroketype="none" fill="#ff5a34" stroke-width="none"/></g><g id="eyebrows-left-dust00" data-shape="25" style="display: inline;"><path id="SvgjsPath1492" d="M51.6 75.9C70.5 58.9 96.8 67.6 90.9 69.5C88.9 70.1 69.7 63.5 51.6 75.9z " data-colored="true" data-filltype="#000000" data-stroketype="none" fill="#543c32" stroke-width="none" opacity="1"/></g><g id="eyebrows-right-dust00" data-shape="25" style="display: inline;"><path id="SvgjsPath1493" d="M148.4 75.9C129.5 58.9 103.2 67.6 109.1 69.5C111.1 70.1 130.3 63.5 148.4 75.9z " data-colored="true" data-filltype="#000000" data-stroketype="none" fill="#543c32" stroke-width="none" opacity="1"/></g><g id="beardwrap-dust00" style="display: inline;"><g id="beard-single-dust00" style="display: inline;"/></g><g id="mustache-single-dust00" style="display: inline;"/><g id="hair-front-dust00" data-shape="18" style="display: inline;"><path id="SvgjsPath1545" d="M44.5 18.8V211.5H84.1C83.1 203.6 81.8 196.4 80.3 192.6C72.6 173.0 45.6 167.8 50.3 142.0L50.5 142.0C55.7 153.2 58.1 159.7 70.1 161.7C53.4 148.1 56.6 135.4 59.0 119.3C60.3 109.9 57.4 102.5 55.4 95.0C57.7 88.0 59.0 81.4 60.2 73.9C71.5 6.6 121.8 9.7 136.2 53.0C145.3 80.4 137.7 89.1 149.0 106.3C149.5 118.3 152.0 131.2 137.6 148.2C134.4 151.9 129.7 155.8 125.6 158.4C140.6 157.1 148.9 142.7 153.9 128.5L154.1 128.5C147.5 184.0 122.3 158.9 119.7 211.5H160.9V18.8H44.5z " data-colored="true" data-filltype="tone" data-stroketype="none" fill="#a46c47" stroke-width="none" opacity="0.1"/><path id="SvgjsPath1546" d="M84.2 24.5C84.2 24.5 97.7 27.3 99.7 32.9C89.8 32.5 85.5 29.2 71.7 34.6C74.9 29.1 84.2 24.5 84.2 24.5zM116.4 23.8C116.4 23.8 101.5 23.2 99.7 32.9C109.5 32.5 115.5 28.1 129.5 34.4C127.6 28.8 116.4 23.8 116.4 23.8z " data-colored="true" data-filltype="sd2" data-stroketype="none" fill="#85481f" stroke-width="none" opacity="1"/><path id="SvgjsPath1547" d="M171.3 103.2C183.8 18.3 142.9 -14.7 104.8 -5.3C62.7 -15.6 30.6 5.9 25.6 64.4C24.8 84.9 27.0 100.4 27.4 104.1C24.5 109.9 22.8 116.2 22.0 122.8C19.7 124.7 17.7 126.3 15.3 128.0C16.5 127.8 18.4 127.6 21.8 126.6C21.0 149.4 32.3 153.4 31.6 172.3C30.9 185.0 30.9 186.1 33.3 194.5C39.9 216.6 29.8 214.7 32.5 242.0C63.6 240.7 79.0 246.1 152.0 241.6C153.6 241.5 164.5 240.8 168.6 241.0C152.3 185.2 179.8 190.1 171.1 161.7C163.3 136.2 184.7 127.7 171.3 103.2zM120.3 232.5C120.7 236.3 121.2 241.0 121.4 242.1C107.4 242.2 107.4 241.7 85.0 241.9C85.4 228.9 86.5 201.3 83.2 192.9C75.1 172.5 49.5 165.9 48.1 143.1L48.3 143.1C53.7 154.8 58.0 159.6 70.5 161.6C53.1 147.4 56.7 136.4 57.1 119.4C57.4 109.5 55.5 101.9 53.4 94.0C55.8 86.8 57.1 79.9 58.4 72.0C63.7 40.1 81.7 15.5 99.5 32.8C99.5 32.8 99.7 32.5 99.7 32.5C99.8 32.6 99.8 32.6 99.9 32.8C115.1 15.9 129.7 30.0 137.7 50.3C148.7 78.2 139.2 87.9 151.0 105.8C151.5 118.4 152.1 131.2 137.1 148.9C133.8 152.8 129.8 155.9 125.4 158.6C141.1 157.2 150.9 143.8 156.1 129.0L156.3 129.0C141.1 187.0 112.8 144.1 120.3 232.5z " data-colored="true" data-filltype="tone" data-stroketype="none" fill="#a46c47" stroke-width="none" opacity="1"/><path id="SvgjsPath1548" d="M168.6 241.0C164.5 240.8 153.6 241.5 152.0 241.6C144.4 242.0 137.5 242.4 131.1 242.7C131.7 224.1 124.8 204.6 133.6 187.0C138.0 177.4 152.0 168.0 155.0 156.0C155.6 153.8 156.9 148.0 157.4 143.1C160.9 164.7 140.3 184.8 145.1 206.7C149.4 192.2 157.5 167.8 162.7 157.6C162.1 173.7 160.9 178.2 161.4 188.3C165.5 179.2 168.9 171.6 167.0 149.8C167.0 149.8 169.6 156.5 171.1 161.7C179.8 190.1 152.3 185.2 168.6 241.0zM161.7 152.2C175.9 118.1 156.8 115.0 151.2 93.0C145.2 69.2 145.2 27.5 124.0 23.0C113.2 20.7 104.7 24.0 99.1 32.4C99.2 32.6 99.3 32.7 99.5 32.8C99.5 32.8 99.7 32.5 99.7 32.5C99.8 32.6 99.8 32.6 99.9 32.8C115.1 15.9 129.7 30.1 137.7 50.3C148.7 78.3 139.2 87.9 151.0 105.8C153.6 129.5 143.9 147.0 125.4 158.6C140.7 151.6 153.6 140.1 155.6 111.9L156.0 112.1C161.5 119.2 165.0 140.7 161.7 152.2zM154.4 45.0C156.2 66.5 158.4 87.9 171.4 103.3C171.4 103.2 171.3 103.2 171.3 103.2C171.5 101.9 171.9 98.7 172.1 97.5C166.3 90.7 160.7 78.8 159.0 66.0C156.9 50.0 159.1 31.5 143.1 20.0C150.8 26.7 154.4 36.0 154.4 45.0zM69.0 18.0C44.0 33.0 50.1 61.5 44.1 84.0C41.0 96.0 32.6 106.8 23.5 114.7C22.9 117.1 22.4 119.6 22.1 122.0C60.3 97.5 45.2 48.5 61.2 30.7C72.8 17.8 86.6 12.9 99.7 32.5C96.4 16.7 79.0 13.0 69.0 18.0zM82.3 25.4C75.1 26.9 67.5 34.6 63.3 41.7C56.9 52.8 55.8 70.0 50.7 88.5C46.3 104.2 36.7 119.0 17.0 127.7C43.8 122.0 52.4 97.0 53.4 94.0C55.8 86.8 57.1 79.9 58.4 72.0C63.7 40.3 81.5 15.9 99.1 32.4C93.4 26.5 90.1 23.8 82.3 25.4zM68.7 161.3C69.3 161.4 69.9 161.5 70.5 161.6C53.1 147.4 56.4 136.4 56.8 119.4C57.1 109.8 55.2 102.0 53.2 94.5C52.7 95.8 52.1 97.2 51.5 98.5C60.6 121.6 41.7 142.8 68.7 161.3zM146.7 161.6C155.9 152.3 159.9 131.7 158.1 118.1C157.3 122.2 156.6 126.2 155.6 130.2C155.8 129.8 155.9 129.4 156.1 129.0L156.3 129.0C141.1 187.0 112.8 144.1 120.3 232.5C120.7 236.3 121.2 241.0 121.4 242.1C107.4 242.2 107.4 241.7 85.0 241.9C85.4 228.9 86.5 201.3 83.2 193.0C75.4 173.3 39.1 161.6 49.8 130.3C40.1 143.4 45.2 154.4 51.5 161.6C86.6 205.7 76.3 210.6 77.9 242.7C89.1 243.0 108.0 243.2 126.2 242.6C121.5 179.7 127.3 181.4 146.7 161.6zM39.2 142.0C37.8 137.2 47.8 126.3 44.5 111.3C43.9 121.4 38.6 129.2 36.0 138.0C32.0 171.9 63.3 177.4 50.0 212.0C50.0 199.0 47.3 192.6 42.3 180.6C42.3 196.6 49.0 207.0 41.0 223.0C41.0 223.0 43.8 211.2 41.3 205.6C32.9 180.3 39.4 170.3 33.0 154.0C30.2 146.3 24.8 139.8 22.1 126.1C22.8 145.8 32.7 155.5 32.1 172.3C31.4 185.0 30.9 186.1 33.3 194.5C39.9 216.6 29.8 214.7 32.5 242.0C44.7 241.5 54.5 242.0 66.3 242.6C68.6 218.2 71.4 202.1 58.7 182.4C51.8 171.7 37.5 160.7 39.2 142.0zM45.0 38.0C40.9 58.7 39.4 80.9 26.5 96.4C26.9 100.2 27.2 102.8 27.4 104.1C27.3 104.3 27.2 104.4 27.2 104.5C51.2 67.6 41.1 47.7 50.0 28.0C52.0 23.0 56.2 19.4 61.0 14.0C52.9 20.8 47.0 27.0 45.0 38.0zM166.6 102.8C155.2 84.1 155.7 61.6 148.0 38.0C143.5 24.2 123.6 -1.6 99.5 31.8C110.7 17.4 123.1 16.8 130.8 21.4C137.0 25.1 141.3 31.5 144.3 38.5C151.4 56.7 150.1 73.3 158.1 91.3C163.1 103.3 170.1 113.5 170.5 124.2C170.2 128.7 167.3 139.8 165.8 143.4C166.3 142.0 172.1 131.2 172.1 125.0C172.1 118.1 170.5 109.1 166.6 102.8zM71.5 9.7C74.8 6.9 97.0 4.2 101.3 20.7C98.3 4.9 78.9 5.1 71.5 9.7zM135.4 8.6C138.9 11.2 137.5 10.0 134.9 8.1C121.2 -0.4 107.4 6.6 101.6 20.4C109.6 3.4 126.8 2.0 135.4 8.6zM147.8 15.8C129.9 -9.3 106.3 -0.5 100.6 13.4C108.1 -2.1 132.0 -5.4 147.8 15.8zM47.1 21.9C45.0 26.4 51.8 6.4 75.2 1.8C83.6 0.1 94.6 0.9 100.0 8.0C91.4 -4.5 60.0 -4.1 47.1 21.9zM134.7 12.9C136.0 13.7 136.8 14.5 136.8 14.4C136.6 14.3 135.7 13.4 134.2 12.3C122.6 4.7 104.4 13.5 100.3 27.4C105.1 13.7 123.6 5.5 134.7 12.9zM65.4 15.6C61.9 18.4 69.8 13.3 72.1 12.7C80.4 10.6 96.1 12.2 100.9 24.7C96.4 10.9 77.1 7.1 65.4 15.6z " data-colored="true" data-filltype="sd1" data-stroketype="none" fill="#955932" stroke-width="none" opacity="1"/><path id="SvgjsPath1549" d="M54.3 8.4C48.2 14.2 46.0 16.5 41.6 24.3C30.0 42.6 29.5 95.5 30.1 75.6C31.0 46.8 33.2 26.9 54.3 8.4zM40.2 46.3C39.0 57.1 42.3 36.6 44.1 32.2C51.1 15.8 71.7 -2.0 91.0 6.8C94.8 8.5 97.5 10.5 98.7 11.4C71.9 -9.2 43.6 15.1 40.2 46.3zM140.0 11.4C144.6 15.9 148.3 20.1 148.3 20.0C144.4 16.5 127.0 -14.3 101.2 16.8C113.4 3.4 126.8 -1.0 140.0 11.4zM91.3 18.1C97.2 22.3 102.7 29.8 102.0 28.8C101.7 28.5 100.4 26.6 98.2 24.0C75.6 -3.6 50.0 28.8 47.7 53.0C51.4 28.6 73.3 5.7 91.3 18.1zM148.4 35.1C149.4 37.5 149.8 39.0 149.8 38.7C149.6 38.4 149.2 36.6 148.2 34.0C140.5 11.8 119.1 6.9 99.9 29.8C119.5 8.4 139.4 12.3 148.4 35.1zM170.7 89.2C170.7 88.8 170.9 86.4 171.0 83.0C171.5 60.9 166.5 24.7 148.8 11.1C171.8 31.3 170.6 90.4 170.7 89.2zM160.6 109.6C161.7 111.1 162.4 111.9 162.3 111.8C155.3 99.8 157.8 113.2 147.3 68.0C151.2 88.0 150.8 97.4 160.6 109.6zM40.2 110.2C36.5 114.0 38.2 112.4 40.9 109.7C55.2 92.1 52.2 85.1 56.0 63.7C52.9 77.9 52.5 97.5 40.2 110.2zM80.2 24.9C81.7 24.5 82.5 24.3 82.4 24.3C78.3 25.7 62.0 28.4 58.2 51.5C61.6 36.7 70.2 28.1 80.2 24.9zM143.5 47.0C146.2 55.5 141.6 38.7 138.8 33.4C133.4 23.2 126.3 21.4 115.6 21.8C133.0 21.0 137.9 30.7 143.5 47.0zM34.3 152.3C36.3 163.6 45.7 177.9 49.4 190.4C51.1 196.3 51.2 196.6 49.2 189.1C38.0 153.7 27.5 149.6 39.0 119.7C39.0 119.7 30.2 136.6 34.3 152.3zM148.8 189.3C148.4 191.9 148.2 193.5 148.2 193.2C157.2 154.0 162.2 166.6 160.0 127.2C160.0 171.2 155.0 152.0 148.8 189.3zM46.0 133.5C37.2 154.2 51.4 162.4 68.5 186.5C72.4 192.9 71.1 190.8 70.2 189.0C58.7 167.5 39.1 154.8 46.3 135.3C48.7 128.9 50.3 126.0 49.5 113.0C49.6 122.0 49.2 126.0 46.0 133.5zM52.4 119.6C52.3 132.3 45.9 141.3 59.3 154.9C63.4 158.1 56.4 151.5 55.2 149.5C53.0 145.7 51.4 141.0 51.9 136.5C52.5 122.6 53.2 135.1 52.8 106.5C52.4 116.8 52.7 110.0 52.4 119.6zM142.7 147.3C141.0 149.4 138.0 151.6 137.1 153.4C136.9 153.8 137.6 152.6 138.8 151.5C156.4 134.6 152.5 123.7 155.8 116.7C152.5 123.8 154.9 131.1 142.7 147.3zM126.5 187.5C123.8 198.8 125.5 202.7 125.5 202.7C125.3 201.7 125.1 201.1 125.1 199.4C127.2 168.0 150.4 173.4 156.7 139.2C151.2 167.1 131.9 167.0 126.5 187.5z " data-colored="true" data-filltype="hl1" data-stroketype="none" fill="#b38160" stroke-width="none" opacity="1"/><path id="SvgjsPath1550" d="M171.4 103.1C183.5 17.3 142.5 -14.8 104.8 -5.4C41.2 -20.6 19.6 35.3 27.3 104.1C24.4 109.9 22.6 116.3 22.0 122.7C19.3 125.0 15.9 127.5 14.9 128.1C17.2 127.8 19.4 127.4 21.7 126.7C21.2 139.7 25.1 147.6 28.6 156.0C34.9 170.9 28.8 177.3 32.0 190.1C33.3 194.9 35.1 199.7 35.6 204.7C36.5 215.5 30.0 221.2 32.4 242.1C32.5 242.1 32.6 242.1 32.6 242.1C57.3 241.2 45.7 242.0 62.4 242.6C124.5 245.0 151.3 241.1 168.7 241.1C156.4 201.3 168.4 191.7 172.3 178.1C175.7 166.4 168.8 160.2 169.2 150.6C170.3 131.1 182.2 124.2 171.4 103.1zM69.6 161.3C58.0 159.2 53.2 152.9 48.2 142.2C47.9 136.4 50.1 130.1 51.1 124.3C52.2 118.6 51.5 113.4 50.4 101.6C51.5 99.3 52.5 96.8 53.4 94.4C54.9 100.9 56.4 107.5 56.4 114.2C56.5 128.8 50.1 147.9 69.6 161.3zM21.7 126.2C20.0 126.8 18.2 127.2 16.5 127.5C58.3 100.3 48.2 60.4 55.5 41.7C62.8 23.3 83.2 7.7 99.6 32.6C99.6 32.7 99.5 32.7 99.5 32.8C82.1 14.5 63.4 41.7 58.8 64.2C54.3 86.0 51.8 115.6 23.6 125.6C23.6 125.6 21.7 126.2 21.7 126.2zM32.6 241.9C32.1 232.4 31.8 230.5 33.3 223.2C34.6 217.3 36.9 211.1 36.6 204.9C36.2 198.5 33.5 192.6 32.7 186.2C31.9 180.1 33.2 173.9 33.2 167.7C33.3 155.5 23.0 146.8 23.6 126.1C31.7 123.4 39.0 118.5 44.5 111.3C45.5 132.5 39.0 131.2 38.1 143.1C36.6 163.2 60.2 178.8 65.8 199.2C67.7 206.3 67.8 234.4 67.8 241.8C42.5 241.3 58.3 240.3 32.6 241.9zM68.0 241.8C69.8 194.2 67.8 192.6 51.5 171.2C28.9 141.6 43.9 136.5 44.9 120.9C45.1 117.6 44.9 114.3 44.7 111.1C46.9 108.2 48.7 105.2 50.2 102.0C51.0 115.3 51.1 115.4 51.0 117.9C50.4 135.1 36.3 146.2 63.3 171.8C85.3 192.6 84.3 190.5 84.8 241.8C79.2 241.9 73.6 241.9 68.0 241.8zM85.1 241.8C85.4 230.5 86.6 201.5 83.3 192.9C75.2 172.4 49.6 165.8 48.2 143.1C48.5 144.1 51.6 150.9 55.1 154.5C59.6 159.2 64.6 160.8 70.9 161.8C52.9 148.7 56.9 133.7 57.2 119.4C57.5 109.6 55.6 102.1 53.5 94.0C57.8 81.6 58.4 69.6 60.9 60.2C66.6 38.6 83.2 16.3 99.5 33.0C99.5 32.9 99.7 32.7 99.7 32.7C99.7 32.7 99.9 32.9 99.9 33.0C113.3 16.1 129.0 28.6 137.6 50.3C148.6 78.2 139.2 88.0 150.9 105.9C151.4 117.7 152.3 130.9 137.0 148.8C133.7 152.8 128.6 156.7 125.0 158.8C140.7 157.9 151.0 143.9 156.2 129.0C140.7 186.9 112.7 144.3 120.2 232.5C120.6 236.7 121.1 241.3 121.3 242.0C109.8 242.1 111.8 241.7 85.1 241.8zM163.4 147.5C171.1 111.9 148.9 116.3 146.1 87.9C145.1 77.5 145.4 58.9 133.2 39.2C124.5 25.1 111.6 18.8 99.9 32.7C99.9 32.7 99.9 32.6 99.8 32.5C115.6 11.1 142.2 13.0 149.1 58.8C153.5 87.8 154.6 85.9 164.3 106.1C168.7 115.1 174.6 126.9 163.4 147.5zM151.3 106.6C153.4 109.7 155.7 112.6 157.8 115.6C157.8 132.0 144.6 155.6 127.1 158.1C129.6 156.6 132.1 154.9 134.2 152.9C150.0 137.8 152.7 124.6 151.3 106.6zM167.9 156.7C169.2 162.2 171.6 167.3 171.7 173.0C170.2 189.4 154.1 196.6 168.4 240.7C158.5 240.2 148.7 241.2 131.2 241.8C130.8 216.7 129.0 210.0 130.3 199.2C133.1 174.2 154.3 176.1 157.4 143.1C153.4 177.9 128.9 173.4 128.4 204.2C128.4 206.2 130.8 241.5 130.8 241.8C128.1 241.9 124.2 242.0 121.5 242.0C113.5 160.3 135.2 176.1 149.3 150.9C154.3 142.2 158.0 128.4 158.1 116.0C166.3 127.7 165.8 133.5 162.9 148.8C168.3 140.3 172.7 126.3 169.4 116.0C168.3 111.6 164.6 104.1 163.1 101.1C152.3 78.6 154.2 77.4 150.1 55.7C142.7 15.5 116.9 8.6 99.7 32.4C82.2 4.5 54.4 24.2 50.7 57.8C49.3 70.2 50.4 96.3 24.0 120.8C25.9 105.8 32.7 98.5 37.8 86.6C50.4 56.9 39.6 36.1 56.4 19.3C38.1 37.5 51.0 59.4 34.1 91.5C32.2 95.1 30.0 98.7 28.1 102.4C22.2 38.2 44.5 -18.6 103.7 -4.6C144.5 -14.9 167.9 20.8 171.3 63.2C172.8 81.4 171.0 97.8 170.7 101.9C167.9 97.1 164.4 92.5 162.4 87.1C150.5 55.8 160.9 35.1 143.1 19.9C161.2 36.2 149.6 61.8 162.9 91.5C165.5 96.4 168.7 100.9 171.0 105.8C180.6 126.0 163.4 137.6 167.9 156.7z " data-colored="true" data-filltype="sd3" data-stroketype="none" fill="#763810" stroke-width="none" opacity="1"/></g><g id="glasses-single-dust00" style="display: inline;"/></g><g id="bubble-single-dust00" style="display: inline;"/></g></g><defs id="SvgjsDefs1377"><radialGradient id="SvgjsRadialGradient1419" cx="126.672" cy="88.669" r="14.058" gradientTransform="matrix(-1.0357 0 0 1.0357 204.6606 -3.2718)" gradientUnits="userSpaceOnUse" class="app-on-canvas-eyesback-gradient-left-dust00-0"><stop id="SvgjsStop1420" stop-opacity="1" stop-color="#ffffff" offset="0" data-stoptype="#ffffff"/><stop id="SvgjsStop1421" stop-opacity="1" stop-color="#fdfefe" offset="0.544" data-stoptype="#fdfefe"/><stop id="SvgjsStop1422" stop-opacity="1" stop-color="#f6f8f9" offset="0.74" data-stoptype="#f6f8f9"/><stop id="SvgjsStop1423" stop-opacity="1" stop-color="#eaeff2" offset="0.879" data-stoptype="#eaeff2"/><stop id="SvgjsStop1424" stop-opacity="1" stop-color="#d9e3e8" offset="0.992" data-stoptype="#d9e3e8"/><stop id="SvgjsStop1425" stop-opacity="1" stop-color="#d8e2e7" offset="1" data-stoptype="#d8e2e7"/></radialGradient><radialGradient id="SvgjsRadialGradient1427" cx="126.672" cy="88.669" r="14.058" gradientTransform="matrix(1.0357 0 0 1.0357 -4.6606 -3.2718)" gradientUnits="userSpaceOnUse" class="app-on-canvas-eyesback-gradient-right-dust00-0"><stop id="SvgjsStop1428" stop-opacity="1" stop-color="#ffffff" offset="0" data-stoptype="#ffffff"/><stop id="SvgjsStop1429" stop-opacity="1" stop-color="#fdfefe" offset="0.544" data-stoptype="#fdfefe"/><stop id="SvgjsStop1430" stop-opacity="1" stop-color="#f6f8f9" offset="0.74" data-stoptype="#f6f8f9"/><stop id="SvgjsStop1431" stop-opacity="1" stop-color="#eaeff2" offset="0.879" data-stoptype="#eaeff2"/><stop id="SvgjsStop1432" stop-opacity="1" stop-color="#d9e3e8" offset="0.992" data-stoptype="#d9e3e8"/><stop id="SvgjsStop1433" stop-opacity="1" stop-color="#d8e2e7" offset="1" data-stoptype="#d8e2e7"/></radialGradient><radialGradient id="SvgjsRadialGradient1435" cx="126.672" cy="88.669" r="14.058" gradientTransform="matrix(-1.0357 0 0 1.0357 204.6606 -3.2718)" gradientUnits="userSpaceOnUse" class="app-on-canvas-eyesfront-gradient-left-dust00-0"><stop id="SvgjsStop1436" stop-opacity="1" stop-color="#ffffff" offset="0" data-stoptype="#ffffff"/><stop id="SvgjsStop1437" stop-opacity="1" stop-color="#fdfefe" offset="0.544" data-stoptype="#fdfefe"/><stop id="SvgjsStop1438" stop-opacity="1" stop-color="#f6f8f9" offset="0.74" data-stoptype="#f6f8f9"/><stop id="SvgjsStop1439" stop-opacity="1" stop-color="#eaeff2" offset="0.879" data-stoptype="#eaeff2"/><stop id="SvgjsStop1440" stop-opacity="1" stop-color="#d9e3e8" offset="0.992" data-stoptype="#d9e3e8"/><stop id="SvgjsStop1441" stop-opacity="1" stop-color="#d8e2e7" offset="1" data-stoptype="#d8e2e7"/></radialGradient><radialGradient id="SvgjsRadialGradient1445" cx="123.623" cy="87.41" fx="136.422" fy="87.446" r="18.203" gradientTransform="matrix(0.9998 0.0208 0.0166 -0.7998 -48.6744 154.7508)" gradientUnits="userSpaceOnUse" class="app-on-canvas-eyesfront-gradient-left-dust00-3"><stop id="SvgjsStop1446" stop-opacity="1" stop-color="#be8a67" offset="0" data-stoptype="sd1"/><stop id="SvgjsStop1447" stop-opacity="0.3" stop-color="#be8a67" offset="0.7" data-stoptype="sd1"/><stop id="SvgjsStop1448" stop-opacity="0" stop-color="#cda184" offset="1" data-stoptype="tone"/></radialGradient><radialGradient id="SvgjsRadialGradient1450" cx="72.134" cy="102.21" r="22.89" gradientTransform="matrix(0.9878 -0.0515 0.0518 0.9833 -2.5169 7.7255)" gradientUnits="userSpaceOnUse" class="app-on-canvas-eyesfront-gradient-left-dust00-4"><stop id="SvgjsStop1451" stop-opacity="0" stop-color="#000000" offset="0.95" data-stoptype="#000000"/><stop id="SvgjsStop1452" stop-opacity="0.3" stop-color="#000000" offset="1" data-stoptype="#000000"/></radialGradient><radialGradient id="SvgjsRadialGradient1456" cx="126.672" cy="88.669" r="14.058" gradientTransform="matrix(1.0357 0 0 1.0357 -4.6606 -3.2718)" gradientUnits="userSpaceOnUse" class="app-on-canvas-eyesfront-gradient-right-dust00-0"><stop id="SvgjsStop1457" stop-opacity="1" stop-color="#ffffff" offset="0" data-stoptype="#ffffff"/><stop id="SvgjsStop1458" stop-opacity="1" stop-color="#fdfefe" offset="0.544" data-stoptype="#fdfefe"/><stop id="SvgjsStop1459" stop-opacity="1" stop-color="#f6f8f9" offset="0.74" data-stoptype="#f6f8f9"/><stop id="SvgjsStop1460" stop-opacity="1" stop-color="#eaeff2" offset="0.879" data-stoptype="#eaeff2"/><stop id="SvgjsStop1461" stop-opacity="1" stop-color="#d9e3e8" offset="0.992" data-stoptype="#d9e3e8"/><stop id="SvgjsStop1462" stop-opacity="1" stop-color="#d8e2e7" offset="1" data-stoptype="#d8e2e7"/></radialGradient><radialGradient id="SvgjsRadialGradient1466" cx="123.623" cy="87.41" fx="136.422" fy="87.446" r="18.203" gradientTransform="matrix(-0.9998 0.0208 -0.0166 -0.7998 248.6744 154.7508)" gradientUnits="userSpaceOnUse" class="app-on-canvas-eyesfront-gradient-right-dust00-3"><stop id="SvgjsStop1467" stop-opacity="1" stop-color="#be8a67" offset="0" data-stoptype="sd1"/><stop id="SvgjsStop1468" stop-opacity="0.3" stop-color="#be8a67" offset="0.7" data-stoptype="sd1"/><stop id="SvgjsStop1469" stop-opacity="0" stop-color="#cda184" offset="1" data-stoptype="tone"/></radialGradient><radialGradient id="SvgjsRadialGradient1471" cx="72.134" cy="102.21" r="22.89" gradientTransform="matrix(-0.9878 -0.0515 -0.0518 0.9833 202.5169 7.7255)" gradientUnits="userSpaceOnUse" class="app-on-canvas-eyesfront-gradient-right-dust00-4"><stop id="SvgjsStop1472" stop-opacity="0" stop-color="#000000" offset="0.95" data-stoptype="#000000"/><stop id="SvgjsStop1473" stop-opacity="0.3" stop-color="#000000" offset="1" data-stoptype="#000000"/></radialGradient><radialGradient id="SvgjsRadialGradient1477" cx="126.672" cy="88.669" r="14.058" gradientTransform="matrix(-1.0357 0 0 1.0357 204.6606 -3.2718)" gradientUnits="userSpaceOnUse" class="app-on-canvas-eyesback-gradient-left-dust00-0"><stop id="SvgjsStop1478" stop-opacity="1" stop-color="#ffffff" offset="0" data-stoptype="#ffffff"/><stop id="SvgjsStop1479" stop-opacity="1" stop-color="#fdfefe" offset="0.544" data-stoptype="#fdfefe"/><stop id="SvgjsStop1480" stop-opacity="1" stop-color="#f6f8f9" offset="0.74" data-stoptype="#f6f8f9"/><stop id="SvgjsStop1481" stop-opacity="1" stop-color="#eaeff2" offset="0.879" data-stoptype="#eaeff2"/><stop id="SvgjsStop1482" stop-opacity="1" stop-color="#d9e3e8" offset="0.992" data-stoptype="#d9e3e8"/><stop id="SvgjsStop1483" stop-opacity="1" stop-color="#d8e2e7" offset="1" data-stoptype="#d8e2e7"/></radialGradient><radialGradient id="SvgjsRadialGradient1485" cx="126.672" cy="88.669" r="14.058" gradientTransform="matrix(1.0357 0 0 1.0357 -4.6606 -3.2718)" gradientUnits="userSpaceOnUse" class="app-on-canvas-eyesback-gradient-right-dust00-0"><stop id="SvgjsStop1486" stop-opacity="1" stop-color="#ffffff" offset="0" data-stoptype="#ffffff"/><stop id="SvgjsStop1487" stop-opacity="1" stop-color="#fdfefe" offset="0.544" data-stoptype="#fdfefe"/><stop id="SvgjsStop1488" stop-opacity="1" stop-color="#f6f8f9" offset="0.74" data-stoptype="#f6f8f9"/><stop id="SvgjsStop1489" stop-opacity="1" stop-color="#eaeff2" offset="0.879" data-stoptype="#eaeff2"/><stop id="SvgjsStop1490" stop-opacity="1" stop-color="#d9e3e8" offset="0.992" data-stoptype="#d9e3e8"/><stop id="SvgjsStop1491" stop-opacity="1" stop-color="#d8e2e7" offset="1" data-stoptype="#d8e2e7"/></radialGradient><linearGradient id="SvgjsLinearGradient1507" x1="99.98" y1="171.27" x2="99.98" y2="136.351" gradientUnits="userSpaceOnUse" class="app-on-canvas-chinshadow-gradient-single-dust00-0"><stop id="SvgjsStop1508" stop-opacity="0.8" stop-color="#be8a67" offset="0" data-stoptype="sd1"/><stop id="SvgjsStop1509" stop-opacity="1" stop-color="#9f6037" offset="0.7" data-stoptype="sd3"/></linearGradient><radialGradient id="SvgjsRadialGradient1511" cx="100" cy="113" r="40" gradientUnits="userSpaceOnUse" class="app-on-canvas-facehighlight-gradient-single-dust00-0"><stop id="SvgjsStop1512" stop-opacity="0.5" stop-color="#dcbaa4" offset="0" data-stoptype="hl1"/><stop id="SvgjsStop1513" stop-opacity="0" stop-color="#cda184" offset="0.9" data-stoptype="tone"/></radialGradient><radialGradient id="SvgjsRadialGradient1515" cx="100" cy="57" r="36" gradientUnits="userSpaceOnUse" class="app-on-canvas-facehighlight-gradient-single-dust00-1"><stop id="SvgjsStop1516" stop-opacity="0.5" stop-color="#dcbaa4" offset="0" data-stoptype="hl1"/><stop id="SvgjsStop1517" stop-opacity="0" stop-color="#cda184" offset="0.9" data-stoptype="tone"/></radialGradient><linearGradient id="SvgjsLinearGradient1535" x1="99.98" y1="171.27" x2="99.98" y2="136.351" gradientUnits="userSpaceOnUse" class="app-on-canvas-chinshadow-gradient-single-dust00-0"><stop id="SvgjsStop1536" stop-opacity="0.8" stop-color="#be8a67" offset="0" data-stoptype="sd1"/><stop id="SvgjsStop1537" stop-opacity="1" stop-color="#9f6037" offset="0.7" data-stoptype="sd3"/></linearGradient></defs></svg>